<?xml version="1.0" encoding="UTF-8"?>
<svg width="273px" height="52px" viewBox="0 0 273 52" version="1.1" xmlns="http://www.w3.org/2000/svg" xmlns:xlink="http://www.w3.org/1999/xlink">
    <!-- Generator: Sketch 59.1 (86144) - https://sketch.com -->
    <title>Group 27</title>
    <desc>Created with Sketch.</desc>
    <g id="Amazon-Browser" stroke="none" stroke-width="1" fill="none" fill-rule="evenodd">
        <g id="Group-27" fill-rule="nonzero">
            <g id="Group-18-Copy" transform="translate(136.500000, 26.000000) scale(1, -1) translate(-136.500000, -26.000000) ">
                <g id="paint1-copy-3" transform="translate(136.500000, 26.000000) scale(1, -1) rotate(180.000000) translate(-136.500000, -26.000000) ">
                    <path d="M161.934689,3.04222778 C161.973876,3.06435544 162.013062,3.0864831 162.065311,3.09754693 C162.026124,3.07541927 162,3.04222778 161.960813,3.02010013 L161.934689,3.04222778 Z" id="Path" fill="#C2C4C6"></path>
                    <path d="M272.8596,9.73952891 C273.11387,9.58621715 273.000183,9.16112545 272.699504,9.098407 C271.927278,8.94509524 271.117382,8.72906504 270.345156,9.07750085 C270.100303,9.18900032 269.949625,9.30049978 269.808364,9.05659471 C269.695355,8.86147065 269.817781,8.70815889 270.109721,8.66634659 C270.36399,8.62453429 270.674764,8.66634659 270.750103,8.38759794 C269.940208,8.1576303 269.149146,8.10188057 268.386337,8.45031638 C268.59352,8.81268963 269.036138,8.46425382 269.299825,8.67331531 C269.092642,9.02175112 268.706529,8.97297011 268.348668,8.91722038 C266.766545,8.65937787 265.165588,8.63150301 263.545796,8.68725274 C262.566387,8.72209632 261.577561,8.68028402 260.598152,8.68028402 C260.3533,8.68028402 260.051943,8.65240916 260.004856,8.46425382 C259.929517,8.20641131 260.306213,8.16459902 260.53223,8.0740057 C260.720578,7.99734982 260.927761,8.0321934 261.134943,8.0740057 C262.12377,8.26216104 263.150266,7.97644367 264.14851,8.18550516 C264.261518,8.20641131 264.402779,8.14369287 264.591127,8.10884928 C264.449866,7.92766266 264.374527,7.76041347 264.092005,7.7325386 C263.790649,7.70466374 263.63997,7.57225813 263.734144,7.37016535 C263.818901,7.18897873 263.969579,6.90326136 264.261518,6.97991724 C264.911319,7.14019771 265.598788,6.71510602 266.210919,7.09838542 C266.333345,7.1750413 266.531111,7.09838542 266.700624,7.0914167 C267.567024,7.05657312 268.226242,6.68026244 268.989051,6.43635736 C268.734781,6.08095283 268.367503,5.99732824 267.934302,6.00429695 C267.425763,6.01126567 266.917224,6.01126567 266.399267,6.00429695 C266.201502,6.00429695 265.956649,6.04610925 265.871893,5.86492263 C265.777719,5.65586114 265.975484,5.50951809 266.17325,5.43286221 C266.832467,5.16108228 267.538772,4.98686437 268.310998,5.07745768 C268.715946,5.12623869 269.111477,5.19592586 269.572929,5.0844264 C269.469338,4.83355261 269.337494,4.58267882 269.610599,4.32483632 C269.789529,4.15061841 269.601181,3.82308874 269.959042,3.76733901 C268.263911,3.39799704 266.484024,3.46768421 264.722971,3.39102833 C263.611718,3.34224731 262.481631,3.32830988 261.389213,3.16802941 C259.420977,2.8683746 257.42449,2.75687514 255.446837,2.51297007 C254.947715,2.45025162 254.439176,2.34572088 253.940054,2.35965831 C252.160166,2.41540804 250.417948,2.16453425 248.666312,2.05303479 C248.195443,2.02515993 247.799912,2.02515993 247.394964,2.19240912 C246.90526,2.38753318 246.359051,2.54084494 245.841094,2.47115777 C244.466154,2.28300243 243.053545,2.41540804 241.678605,2.20634655 C241.235988,2.13665939 240.718031,2.09484709 240.058813,2.24119013 C240.539101,2.33178345 240.859292,2.34572088 241.113562,2.45722034 C241.923458,2.79868744 242.789858,2.79868744 243.684511,2.80565616 C244.645085,2.81262487 245.633911,2.84746845 246.406138,3.39799704 C246.509729,3.47465292 246.65099,3.47465292 246.792251,3.45374677 C247.696321,3.34224731 248.383791,3.84399489 249.231356,3.91368205 C249.560965,3.94155692 249.560965,4.19939942 249.259608,4.35271118 C249.07126,4.45027321 248.741652,4.43633578 248.656895,4.61055369 C248.412043,5.11230126 247.875251,5.01473923 247.376129,4.97989565 C244.814598,4.79174031 242.253067,4.78477159 239.682118,4.79174031 C238.429604,4.79870903 237.205343,4.72205315 236.047003,4.34574247 C235.924577,4.30393017 235.783316,4.2760553 235.651473,4.28999273 C234.408377,4.38058605 233.20295,4.06699381 231.922184,4.22030557 C230.613166,4.37361733 229.247644,4.07396253 227.891539,4.12274354 C226.639026,4.16455584 225.386512,3.99730665 224.133999,3.96943178 C222.966242,3.94852563 221.770233,4.17152456 220.62131,3.85096361 C220.508302,3.81612002 220.357623,3.85793232 220.216362,3.86490104 C218.992101,3.90671334 217.76784,3.85793232 216.552996,3.79521388 C215.432326,3.73946414 214.311656,3.66280826 213.190986,3.64190212 C211.703037,3.61402725 210.196254,3.6349334 208.717723,3.58615239 C206.353957,3.50949651 203.980774,3.53040265 201.617007,3.44677806 C200.034885,3.39102833 198.452763,3.3770909 196.861223,3.31437245 C195.401527,3.25862272 193.951248,3.15409197 192.491552,3.07743609 C190.156038,2.95896792 187.811107,2.93109305 185.466175,2.92412433 C185.315497,2.92412433 185.155401,2.89624947 185.004723,2.87534332 C185.117732,3.07046738 185.362584,3.09137353 185.588601,3.06349866 C186.407915,2.95896792 187.151889,3.37012218 187.98062,3.21681042 C188.150133,3.18196684 188.41382,3.26559143 188.41382,3.46071549 C188.41382,3.65583955 188.187802,3.66977698 187.98062,3.69765185 C187.782854,3.718558 187.538002,3.5513088 187.359072,3.76037029 C187.669846,4.10183739 188.121881,3.8927759 188.489159,3.92761949 C188.715176,3.94852563 188.903524,3.9764005 188.922359,4.16455584 C188.941194,4.34574247 188.771681,4.42936706 188.555081,4.46421064 C188.423237,4.48511679 188.281976,4.51299166 188.150133,4.51299166 C186.549176,4.51299166 184.919966,4.47117936 183.394348,4.17152456 C182.518531,4.00427537 181.6898,3.95549435 180.832817,3.94852563 C179.147103,3.9345882 177.46139,3.87883847 175.785093,3.73249543 C174.268893,3.60008982 172.76211,3.32830988 171.227074,3.3770909 C170.44543,3.40496576 169.710874,3.43980934 168.92923,3.20287299 C168.373603,3.0356238 167.610795,2.96593663 167.036333,3.15409197 C166.386533,3.36315346 165.887411,3.5931211 165.482463,2.96593663 C165.463628,2.93806177 165.35062,2.91715562 165.294115,2.92412433 C164.493637,3.07046738 163.683741,3.0356238 162.873845,2.97987406 C162.647827,2.96593663 162.534819,3.11227967 162.412393,3.23771657 C162.299384,3.35618475 162.158123,3.41193448 161.979192,3.35618475 C162.092201,3.43284063 162.186375,3.52343394 162.402975,3.50252779 C162.911514,3.46071549 163.269375,3.66977698 163.777915,4.05305638 C163.090445,4.07396253 162.67608,4.26908659 162.129871,4.12274354 C161.329392,3.90671334 160.547748,3.64887083 159.662513,3.65583955 C159.502417,3.65583955 159.31407,3.58615239 159.31407,3.43284063 C159.31407,3.23074785 159.53067,3.2098417 159.737852,3.19590427 C159.982705,3.17499812 160.246392,3.40496576 160.557166,3.07046738 C159.201061,2.80565616 157.920295,2.53387622 156.488851,3.04259251 C156.81846,3.19590427 157.119817,3.27256015 157.326999,3.16106069 C157.863791,2.8683746 158.108643,3.15409197 158.447669,3.42587191 C158.15573,3.58615239 157.920295,4.03911895 157.618939,3.86490104 C156.969138,3.48162164 156.309921,3.86490104 155.678955,3.69765185 C155.405851,3.62796468 155.057407,3.65583955 154.812555,3.83005746 C154.511198,4.04608766 154.14392,4.02518151 153.767224,4.0182128 C152.034423,3.99730665 150.31104,3.99033793 148.578239,3.99033793 C148.003778,3.99033793 147.438735,4.0600251 146.854856,4.01124408 C145.479916,3.90671334 144.095559,3.77430773 142.72062,3.76037029 C140.855976,3.73946414 139.000749,3.86490104 137.136105,3.85793232 C135.280878,3.85096361 133.435068,3.96943178 131.579842,3.87883847 C129.216075,3.76037029 126.833475,3.83702617 124.460291,3.82308874 C122.586229,3.80915131 120.721585,3.80915131 118.866358,3.5931211 C117.519671,3.43980934 116.154149,3.34224731 114.798044,3.39799704 C112.048165,3.50949651 109.31712,3.30043502 106.576658,3.27952887 C105.493658,3.27256015 104.40124,3.22377914 103.318239,3.23074785 C100.897969,3.23771657 98.4871159,3.32830988 96.0668454,3.26559143 C94.268123,3.22377914 92.4694006,3.28649758 90.6706781,3.21681042 C89.2863211,3.16106069 87.901964,3.27256015 86.517607,3.27952887 C85.8960589,3.27952887 85.3310152,3.08440481 84.7000498,3.14712326 C82.6470577,3.36315346 80.5752308,3.43980934 78.5034039,3.40496576 C75.9512899,3.36315346 73.4462629,3.73946414 70.9035662,3.79521388 C69.3779483,3.83005746 67.8523303,4.0600251 66.3361297,4.01124408 C64.2548854,3.94155692 62.2018933,4.17152456 60.1300665,4.16455584 C58.8022138,4.15758712 57.4837785,4.33877375 56.1559258,4.28302402 C55.7886474,4.26908659 55.374282,4.33877375 55.4119516,3.87883847 C55.4307864,3.69068313 55.1765167,3.77430773 55.0258384,3.77430773 C54.2441946,3.75340158 53.4625509,3.76733901 52.6809071,3.81612002 C51.0140282,3.92761949 49.3377319,3.52343394 47.6520182,3.88580719 C47.0963919,4.00427537 46.4465917,4.0182128 45.834461,4.04608766 C44.1393299,4.10880611 42.425364,4.05305638 40.7773199,4.45724193 C40.683146,4.47814808 40.5701372,4.48511679 40.4759633,4.47814808 C38.8185018,4.38755476 37.1704577,4.45027321 35.5224136,4.53389781 C35.1645526,4.55480396 34.8349437,4.52692909 34.7031002,4.22030557 C34.6560132,4.11577483 34.5618393,4.03911895 34.4205784,4.0182128 C33.4034997,3.87186975 32.3581689,3.52343394 31.3881772,3.62099597 C29.4481939,3.81612002 27.5176279,3.71158928 25.587062,3.78824516 C24.8901747,3.81612002 24.0991136,3.43284063 24.0896962,3.07743609 C24.0802788,2.6523444 23.8165917,2.63840696 23.3833915,2.6523444 C21.5564169,2.72900028 19.7200249,2.79868744 17.9213025,3.09834224 C17.5634415,3.16106069 17.2055805,3.18893555 16.8194673,3.14712326 C16.0566583,3.07046738 15.3032667,2.94503048 14.5122055,3.04956123 C14.0601706,3.11227967 13.5704661,3.08440481 13.1749355,2.81262487 C12.996005,2.69415669 12.7134831,2.54084494 12.4592135,2.77081257 C12.1672742,3.04259251 11.8094132,3.00078021 11.4421348,2.89624947 C11.0277694,2.77778129 10.7829172,2.79171872 10.6134041,3.17499812 C10.4344736,3.57918367 10.1331169,3.61402725 9.53040364,3.43284063 C9.04069911,3.28649758 8.58866415,3.3352786 8.21196836,3.60705853 C7.88235953,3.84399489 7.55275071,4.03911895 7.07246357,4.05305638 C6.82761131,4.0600251 6.70518517,4.15758712 6.75227215,4.34574247 C6.77110694,4.44330449 6.78994173,4.5757101 6.62984601,4.61055369 C5.83878484,4.79174031 5.20781938,5.11926998 4.73694964,5.62798627 C4.68986266,5.67676728 4.54860174,5.67676728 4.45442779,5.70464215 C3.85171452,5.87886006 3.84229712,5.88582877 4.17190594,6.31092047 C4.39792342,6.61057527 4.76520182,6.88235521 4.96296711,7.14716643 C5.1795672,7.4328838 5.33024552,7.82313191 5.52801081,8.1576303 C5.79169787,8.61756558 5.75402829,8.68028402 5.11364543,8.65240916 C4.83112359,8.63847173 4.58627132,8.62453429 4.41675821,8.81965835 C4.49209737,8.95206396 4.63335829,8.93115781 4.76520182,8.9241891 C5.1701498,8.89631423 5.58451518,8.86147065 5.98004576,8.97297011 C6.30965459,9.07053214 6.62984601,9.23081261 6.56392425,9.51652998 C6.49800248,9.83012222 6.11188929,9.74649762 5.81053266,9.74649762 C5.74461089,9.74649762 5.65985434,9.71165404 5.61276736,9.72559147 C5.06655846,9.89284067 4.33200166,9.7813412 4.09656678,10.401557 C3.96472325,10.7499928 3.48443611,10.9102732 2.98531418,10.9799604 C2.5897836,11.0357101 2.19425301,11.1053973 1.80813982,11.1959906 C1.16775697,11.3493024 1.1112526,11.4189895 1.28076571,11.9137684 C1.52561797,12.6176088 1.76105285,13.3284178 2.31667915,13.9486336 C2.62745318,14.2901007 2.44852268,14.5618806 1.98707032,14.4991622 C1.15833957,14.3876627 0.734556803,14.8336605 0,15.0566595 C0.51795672,15.2099712 0.932322095,15.2169399 1.25251352,15.4399389 C2.11891385,16.0462172 1.8552268,16.8545883 2.0341573,17.5863035 C2.06240948,17.7047717 1.87406159,17.7883963 1.74221806,17.8789896 C0.922904701,18.4225495 0.951156885,19.5723877 1.83639201,20.0114168 C2.27900957,20.2344157 2.53327923,20.5549767 2.90055763,20.8128192 C3.18307948,21.0079432 3.12657511,21.1751924 2.957062,21.4121288 C2.60861839,21.8929702 2.74987931,22.2971557 3.40909696,22.5201547 C3.82346233,22.659529 4.03064502,22.8755592 4.22841031,23.1473391 C5.01005409,24.1787091 5.57509778,25.2797663 6.20606324,26.3668861 C6.52625467,26.9174147 7.18547231,27.3146315 7.392655,27.9278785 C7.54333332,28.3808451 7.90119432,28.7710932 8.43798583,29.0986229 C8.8617686,29.3564654 9.29496877,29.6700576 9.49273406,30.0951493 C10.0295256,31.2449875 10.7358302,32.3251385 11.9412567,33.1753219 C12.3179525,33.4401332 12.3838743,33.6143511 11.9695089,33.9070371 C11.3856304,34.3181914 11.0842738,34.8547826 10.9995172,35.4471235 C10.9712651,35.6283101 10.9524303,35.802528 10.8205867,35.9558397 C10.4533083,36.366994 10.3214648,36.7502734 10.8582563,37.1683964 C11.0842738,37.349583 11.159613,37.5934881 10.6981606,37.7746747 C10.1236995,38.0046423 9.85059507,38.4506402 9.92593423,38.9175442 C10.0106908,39.3774795 9.73758633,39.635322 9.40797751,39.9767891 C8.8617686,40.5412551 8.35322928,41.1614708 8.25905533,41.8792486 C8.22138575,42.1789034 8.3249771,42.4646208 7.95769869,42.7015572 C7.79760298,42.8060879 7.77876819,43.0081807 7.92944651,43.1196801 C8.3155597,43.4053975 8.52274239,43.7817082 8.84293381,44.0953004 C8.90885558,44.1580189 9.45506448,45.1475766 9.43622969,45.2242325 C9.25729919,45.8026359 9.69049936,46.3949768 9.27613398,46.9873177 C9.03128171,47.3357535 9.73758633,47.8514385 10.2743778,47.7469078 C11.2443695,47.5657212 12.2708656,47.6284396 13.1937703,47.2521289 C13.5233791,47.1197233 13.9848314,47.1475982 14.3709446,47.0430674 C14.6911361,46.9594428 14.8700666,47.077911 14.9359883,47.3218161 C15.0489971,47.7329703 15.3409363,48.0674687 15.7364669,48.4368107 C15.811806,48.2904677 15.858893,48.2277492 15.8871452,48.158062 C16.2073366,47.2939412 16.4898585,47.126692 17.7047024,47.1545669 C17.9495547,47.1615356 18.0719808,47.0709423 18.1755722,46.931568 C18.2697461,46.7991624 18.3356679,46.6319132 18.6087723,46.6806942 C18.9007116,46.7364439 18.9195464,46.9245993 18.9666333,47.0988172 C19.0325551,47.3218161 19.0137203,47.544815 18.9383812,47.7678139 C18.8253724,48.1162497 18.9007116,48.4646856 19.0702247,48.8061527 C19.2020682,49.0709639 19.3809987,49.1685259 19.7953641,49.2103382 C20.8595297,49.3218377 21.8766084,49.2451818 22.893687,49.0012767 C23.2421306,48.9176521 23.5999916,48.9873393 23.7130004,49.2869941 C23.8071743,49.5448366 23.609409,49.7329919 23.251548,49.7678355 C22.6959217,49.8235852 22.7712609,50.0814278 22.8371826,50.4856133 C23.1762089,50.0674903 23.5529047,49.8514601 24.0802788,49.9629596 C24.7677486,50.1093026 24.3628006,50.6180189 24.6359051,50.9803922 C25.0973574,50.6319563 25.6247315,50.5762066 26.20861,50.7364871 C26.5476362,50.8270804 26.8772451,50.7713307 27.2068539,50.6877061 C28.1015064,50.4647071 29.0338285,50.2835205 29.8060549,49.8653975 C30.0320723,49.7469294 30.239255,49.7817729 30.4841073,49.8026791 C31.3316728,49.8653975 31.3975946,49.8235852 31.5953599,49.1545885 C31.6801165,48.8688711 31.859047,48.8131214 32.1604036,48.9594644 C32.4900124,49.1197449 32.7913691,49.3357751 33.2622388,49.2591192 C32.8572908,48.7852465 32.8949604,48.6598096 33.4317519,48.6598096 C34.816109,48.6528409 36.1251269,48.9524957 37.6978318,49.1894321 C36.4453183,49.6981484 35.3434831,49.2660879 34.0721348,49.3775874 C34.6089263,49.5657427 34.9479525,49.6214925 35.2775613,49.5727115 C36.0686225,49.4542433 36.8502663,49.607555 37.6036579,49.6981484 C38.1027798,49.7608668 38.6019017,49.8026791 39.1010236,49.7957104 C39.4871368,49.7887417 39.8355804,49.8375227 40.2028588,49.9002411 C41.803816,50.1650523 43.3953557,50.3323015 44.9115563,49.6563361 C45.0904868,49.5727115 45.3165043,49.6423986 45.5048522,49.6214925 C46.2299916,49.5378679 46.9928006,49.7329919 47.6896878,49.5030243 C48.2641489,49.3079002 48.8762796,49.3079002 49.4884102,49.2730567 C51.9651851,49.1127762 54.4419599,49.3706187 56.9187348,49.3497125 C58.3407614,49.3357751 59.7722055,49.2730567 61.1848147,49.4542433 C61.5144235,49.4960556 61.740441,49.3706187 62.1171368,49.1615572 C60.3466665,49.0500577 58.7645442,48.7852465 57.1353349,48.8758398 C56.6267956,48.9037147 55.9864127,48.7643404 55.6379691,48.945527 C55.0729254,49.2312444 54.5926383,49.0221829 54.0840989,49.0221829 C53.9145858,49.0221829 53.7356553,48.994308 53.6697336,48.8549337 C53.5943944,48.6737471 53.7639075,48.5692163 53.9334206,48.4925604 C54.0746815,48.429842 54.2441946,48.3949984 54.4137078,48.3740922 C55.2141863,48.2834989 56.0052475,48.1998743 56.8245609,48.2347179 C57.6721264,48.2765302 58.5385267,48.2974364 59.3672575,48.1929056 C61.2978234,47.9559693 63.2283894,47.9908129 65.1683727,47.962938 C65.3755554,47.962938 65.6109903,47.9559693 65.7428338,48.0814062 C66.0724426,48.3880297 66.5150602,48.3392487 66.9576778,48.3601548 C67.7299041,48.3880297 68.4832957,48.2765302 69.2743569,48.33228 C69.7169745,48.3601548 70.1784268,48.5343727 70.6210444,48.4577168 C71.7888014,48.2556241 72.9753931,48.2486554 74.1619849,48.2277492 C74.7270286,48.2207805 75.2261505,48.1441246 75.7252724,47.7190329 C74.4068371,48.0883749 73.2014106,47.8165949 71.9865666,47.8514385 C70.7905575,47.8862821 69.5662962,48.1371559 68.1442695,47.7678139 C68.7846524,47.5657212 69.0671742,47.1475982 69.5945483,47.2939412 C70.159592,47.447253 70.5362878,47.4820966 70.658714,46.9455054 C70.6681314,46.8967244 70.8188097,46.8270372 70.9035662,46.8270372 C71.5251143,46.8340059 72.2408363,46.4995076 72.7211234,47.0988172 C72.8623844,47.2730351 73.1354888,47.2242541 73.3803411,47.2033479 C74.1902371,47.1406295 75.0095504,47.1615356 75.810029,47.1127546 C77.8441863,46.9873177 79.9536827,47.4193781 81.9125009,46.7155378 C83.5699624,46.6319132 85.1897543,46.2834773 86.875468,46.3531645 C87.1768246,46.3671019 87.6759466,46.4019455 87.7512857,46.2974148 C88.1373989,45.7956672 88.7495296,46.0047287 89.2769037,45.9350415 C89.8419474,45.8653544 90.4352433,45.9141354 91.000287,45.8723231 C93.6842445,45.677199 96.3682021,45.6981052 99.0521596,45.6702303 C100.069238,45.6632616 101.095734,45.6493242 102.112813,45.6144806 C102.508344,45.6005431 103.016883,45.6841677 103.092222,45.1754515 C103.120474,44.9942648 103.572509,44.9106402 103.798527,44.9942648 C104.608423,45.2799822 105.427736,44.9385151 106.265884,45.0709207 C107.160537,45.2172638 108.139946,45.0500146 109.081685,45.0221397 C109.57139,45.0082023 110.023425,44.9454838 110.409538,44.7085475 C110.710894,44.5203921 111.097008,44.4785798 111.473703,44.5343296 C111.888069,44.597048 112.283599,44.5622044 112.688547,44.5412983 C113.809217,44.4855485 114.929887,44.450705 116.050557,44.3949552 C118.084715,44.2973932 120.118872,44.3949552 122.162447,44.2207373 C123.123021,44.1371127 124.130682,43.7189897 125.138343,44.1162066 C125.194848,44.1371127 125.336109,44.081363 125.420865,44.0465194 C125.8729,43.8095831 126.400274,43.8583641 126.908814,43.8444266 C129.395006,43.7886769 131.871781,43.7956456 134.348556,44.0047071 C134.753504,44.0395507 135.139617,44.130144 135.5634,44.1022691 C137.211444,43.9768322 138.868905,43.9768322 140.516949,44.1231753 C141.402184,44.1998312 142.268585,44.178925 143.15382,44.1022691 C144.152064,44.0116758 145.187977,43.9210825 146.157969,44.2904245 C146.327482,44.3531429 146.553499,44.3740491 146.751265,44.3670804 C147.693004,44.3392055 148.625326,44.276487 149.567066,44.276487 C150.621814,44.276487 151.695397,44.2416435 152.712476,44.3879865 C153.964989,44.5691731 155.208085,44.5134234 156.451182,44.5064547 C157.157486,44.5064547 157.863791,44.4297988 158.570095,44.5691731 C158.758443,44.6040167 158.975043,44.6040167 159.172809,44.5831106 C159.982705,44.499486 160.802018,44.5343296 161.602497,44.5831106 C163.372967,44.69461 165.13402,44.6737039 166.895072,44.6179541 C168.317099,44.5761418 169.748543,44.5203921 171.17057,44.5622044 C173.647345,44.6388603 176.105285,44.8130782 178.591477,44.6388603 C180.540878,44.499486 182.509113,44.450705 184.467931,44.3601116 C184.844627,44.3461742 185.193071,44.2695183 185.550932,44.2137686 C186.257236,44.1092379 186.935289,43.9489574 187.698098,43.9559261 C189.148377,43.9768322 190.645742,43.983801 192.039517,43.7329272 C193.216691,43.516897 194.337361,43.2590545 195.57104,43.293898 C196.616371,43.3217729 197.708789,43.1127114 198.71645,43.2520857 C199.761781,43.3984288 200.797694,43.4820534 201.843025,43.5029595 C202.671756,43.5238657 203.330973,43.9419887 204.159704,43.9489574 C204.734165,43.9559261 205.336878,43.9210825 205.883087,44.032582 C207.088514,44.2904245 208.312775,44.3601116 209.546454,44.3879865 C211.00615,44.4158614 212.494099,44.2904245 213.878456,44.7294536 C214.867282,45.0430458 215.856109,45.063952 216.892022,44.9942648 C217.438231,44.9594212 217.956188,45.1336392 218.483562,45.210295 C219.632484,45.3705755 220.83791,45.1824202 221.920911,45.4681375 C223.776138,45.948979 225.725538,45.8444482 227.618435,46.1231969 C228.899201,46.3113522 230.245888,46.3322584 231.573741,46.3810394 C232.863924,46.4298204 234.144689,46.464664 235.44429,46.4367891 C236.357777,46.415883 237.280682,46.4786014 238.184752,46.5970696 C239.512605,46.7643188 239.842213,46.7573501 240.953466,46.2068215 C241.170066,46.1022907 241.405501,46.095322 241.640936,46.1301656 C242.592093,46.2834773 243.524415,45.9629164 244.475572,46.095322 C244.673337,46.1231969 244.955859,46.0744159 244.927607,45.8862605 C244.84285,45.433294 245.153624,45.3705755 245.643329,45.4054191 C245.803424,45.4193565 245.972937,45.3705755 245.991772,45.2033263 C245.662163,44.9454838 245.181876,45.161514 244.833433,45.0221397 C243.825771,44.6318916 242.723936,44.7364223 241.659771,44.6737039 C241.367831,44.6527977 241.094727,44.7015787 241.08531,44.4088927 C241.075892,44.1649876 241.160649,43.9489574 241.556179,43.9141138 C241.857536,43.8862389 242.16831,43.8653328 242.469667,43.8653328 C244.758094,43.8583641 247.055938,44.0534881 249.344365,43.9071451 C249.344365,43.098774 249.32553,43.0569617 248.308451,42.9733371 C247.639816,42.9245561 247.018268,42.6945884 246.311964,42.778213 C246.048277,42.8130566 245.671581,42.6876197 245.53032,42.3809962 C246.038859,42.1928409 246.509729,42.3043403 246.971181,42.3252465 C247.234868,42.3322152 247.33846,42.2346532 247.413799,42.0883101 C247.51739,41.8862173 247.30079,41.8165302 247.112442,41.7677492 C246.415555,41.5795938 245.690416,41.4680944 244.955859,41.3705323 C244.729841,41.3426575 244.466154,41.3426575 244.475572,41.036034 C245.210129,40.8757535 246.085946,40.9802842 246.698077,40.5203489 C246.726329,40.4994428 246.820503,40.5342864 246.886425,40.5482238 C247.055938,40.5900361 247.244286,40.6039735 247.291373,40.4436931 C247.33846,40.2903813 247.150112,40.2276629 246.980599,40.2067567 C246.848755,40.1858506 246.707494,40.199788 246.575651,40.1858506 C246.39672,40.1649444 246.264877,40.0882885 246.246042,39.9419455 C246.21779,39.7537901 246.283712,39.5795722 246.500312,39.4750415 C246.65099,39.3983856 246.848755,39.4262605 246.961764,39.5377599 C247.347877,39.9349768 247.865834,39.8165086 248.214277,39.6074471 C248.713399,39.3077923 249.240774,39.3496046 249.626887,39.5447287 C250.182513,39.8234773 250.606296,39.6422907 251.048913,39.4820102 C251.491531,39.3217297 251.510366,39.1405431 251.105418,38.8617945 C250.954739,38.7572637 250.766392,38.6666704 250.738139,38.5133586 C250.6628,38.1509854 250.40853,37.9976736 249.899991,38.0394859 C249.749313,38.0534234 249.570382,37.9837362 249.419704,37.9279865 C249.156017,37.8234557 249.203104,37.6353004 249.212521,37.4610825 C249.221939,37.2868646 249.391452,37.3147394 249.560965,37.2798958 C250.135426,37.154459 250.70047,36.9872098 251.265513,36.833898 C251.482114,36.7711796 251.548035,36.6318052 251.5292,36.464556 C251.482114,36.1161202 251.425609,35.7676844 251.38794,35.4122799 C251.35027,35.1056564 251.143087,34.9244697 250.719305,34.9941569 C250.352026,35.0568753 250.078922,34.9871882 249.994165,34.7432831 C249.899991,34.4924093 249.532713,34.4645345 249.400869,34.2624417 C249.683391,33.9209746 250.248435,33.8652248 250.549791,33.5307265 C251.38794,32.5969185 252.913558,32.5063252 253.996558,33.3007588 C254.439176,33.6213198 255.023054,33.7816003 255.559846,33.7049444 C256.030715,33.6352572 256.416828,33.5586013 256.850029,33.7606941 C257.000707,33.8303813 257.273811,33.886131 257.367985,33.6910069 C257.471577,33.468008 257.245559,33.4122583 256.99129,33.3425711 C256.30382,33.1404783 255.823533,32.7850738 255.672854,32.2624201 C255.814115,32.116077 255.945959,32.1509206 256.08722,32.1509206 C256.91595,32.1578893 257.019542,32.0812335 257.000707,31.454049 C256.99129,31.0150199 257.584585,30.6805215 258.196716,30.8198958 C258.450986,30.8756455 258.695838,31.0289573 258.968942,30.9523014 C259.364473,30.840802 259.684664,30.9035204 259.995439,31.0986445 C260.193204,31.2240814 260.419221,31.3007372 260.588734,31.084707 C260.767665,30.8617081 260.513395,30.7711148 260.306213,30.6874902 C260.193204,30.6387092 260.070778,30.5829595 259.938934,30.569022 C259.279716,30.4853974 259.063116,30.1648365 259.053699,29.7188386 C259.986021,29.5306833 260.871256,29.391309 261.351543,30.5063036 C261.624648,29.683995 262.0861,29.3634341 262.961918,29.537652 C263.037257,29.5515894 263.187935,29.5167459 263.235022,29.4609961 C263.630553,29.0289357 264.242684,29.2101223 265.005493,29.1961849 C264.299188,28.9662173 264.073171,28.603844 263.715309,28.3390328 C263.46104,28.1439087 263.592883,27.9487847 263.960162,27.9487847 C264.299188,27.9487847 264.628797,27.9975657 264.920736,27.8094104 C265.363354,27.523693 265.871893,27.4609745 266.446354,27.5097556 C266.757128,27.5376304 267.067902,27.5027868 267.425763,27.4958181 C267.284502,27.3216002 267.124406,27.2867566 266.964311,27.2449443 C266.634702,27.1613197 266.088493,27.2310069 266.210919,26.8128839 C266.31451,26.4574794 265.645875,26.3599174 265.843641,26.0114815 C266.13558,25.4957965 266.229754,24.9104244 266.917224,24.5480511 C267.397511,24.2971773 267.51052,23.7605862 267.077319,23.544556 C266.728876,23.3703381 266.738293,23.1612766 266.597032,22.9452464 C266.342763,22.5271234 266.276841,22.0462819 265.730632,21.6978461 C266.003736,21.6351277 266.182667,21.5863467 266.380432,21.5445344 C265.862476,21.2936606 265.127919,21.5305969 264.609962,21.0985365 C265.240927,20.9661309 265.787136,20.8546315 266.342763,20.7361633 C265.805971,20.1856347 266.079076,19.9417296 267.331589,19.2518267 C266.879554,19.1542647 266.465189,19.0427652 266.031989,19.0985149 C265.476362,19.1751708 265.184423,18.9312657 264.996075,18.6316109 C264.817145,18.3389249 265.316267,18.3040813 265.457528,18.1298634 C265.824806,17.6908342 266.465189,17.7605214 266.992563,17.6281158 C267.124406,17.5932722 267.265667,17.5375225 267.246833,17.426023 C267.209163,17.2518051 267.011398,17.2518051 266.851302,17.3075548 C266.144997,17.5375225 265.410441,17.6002409 264.657049,17.4817728 C264.073171,17.3911794 263.498709,17.2378677 262.933666,17.5444912 C262.858327,17.5863035 262.669979,17.4957102 262.547553,17.5096476 C261.794161,17.6072096 261.125526,17.2169615 260.3533,17.3005861 C260.070778,17.3354297 259.807091,17.0706185 259.769421,16.861557 C259.722334,16.6037145 260.089612,16.5200899 260.343882,16.5549335 C260.918343,16.6315894 261.502222,16.4643402 262.057848,16.6455268 C262.3027,16.7291514 262.575805,16.7291514 262.77357,16.5758396 C262.745318,16.4225279 262.632309,16.3667781 262.509883,16.3179971 C262.359205,16.2622474 262.170857,16.2204351 262.217944,16.0601546 C262.255613,15.8998741 262.453379,15.9068429 262.613474,15.878968 C262.858327,15.830187 263.169101,15.9138116 263.366866,15.6211255 C262.943083,15.5653758 262.717066,15.3005645 262.34037,15.1820964 C261.568143,14.9312226 261.568143,14.9242539 261.935422,14.3458504 C262.293283,13.7813844 262.453379,13.7395721 263.263275,13.9277274 C263.875405,14.0740705 264.496953,14.1855699 265.203258,14.2064761 C265.061997,14.011352 264.704136,13.9556023 264.770058,13.7674469 C264.854814,13.5305106 265.165588,13.6559475 265.382188,13.6420101 C266.088493,13.5792916 266.82305,13.5862603 267.491685,13.4399173 C268.791285,13.1541999 270.109721,12.931201 271.456408,12.8266702 C271.682426,12.8057641 271.927278,12.7848579 272.021452,12.5757965 C271.418739,12.4921719 270.844277,12.3527975 270.232147,12.3458288 C269.902538,12.3458288 269.610599,12.2273606 269.582347,11.9625494 C269.554094,11.7395505 269.864868,11.7256131 270.062634,11.6350197 C270.65593,11.3632398 271.258643,11.1541783 271.974365,11.2099281 C272.087374,11.2168968 272.256887,11.2308342 272.266304,11.0287414 C271.494078,10.7778676 270.505251,11.2238655 269.695355,10.6803056 C270.36399,10.3876195 271.032625,10.3667134 271.654173,10.3388385 C272.190965,10.2761201 272.482904,9.96949655 272.8596,9.73952891 Z M247.978843,37.5028948 C247.875251,37.6910501 247.658651,37.6492378 247.376129,37.6562065 C247.103025,37.6143942 246.745164,37.5795507 246.39672,37.5028948 C246.227207,37.4680512 246.133033,37.3356456 246.161285,37.2102087 C246.189538,37.0778031 246.359051,36.980241 246.528564,37.0081159 C246.980599,37.0708344 247.432634,37.1614277 247.865834,37.2589897 C247.997677,37.2868646 248.035347,37.3913953 247.978843,37.5028948 Z M248.816991,38.5203274 C248.713399,38.5063899 248.647478,38.4506402 248.685147,38.3739843 C248.703982,38.3391407 248.788739,38.3112659 248.845243,38.3112659 C248.939417,38.3042971 249.024173,38.332172 249.033591,38.4227653 C249.005339,38.4994212 248.920582,38.5342648 248.816991,38.5203274 Z" id="Shape" fill="#DE287C"></path>
                    <path d="M177.995102,3.05882353 C177.995102,3.05882353 177.995102,3.05882353 177.995102,3.05882353 L177.995102,3.05882353 C178.008164,3.05882353 178.008164,3.05882353 177.995102,3.05882353 Z" id="Path" fill="#C2C4C6"></path>
                    <path d="M178.788171,2.83380663 C178.017882,2.89006085 177.26685,2.72129817 176.50619,2.69317106 C174.291609,2.60878972 172.0674,2.7142664 169.862448,2.50331305 C169.554333,2.47518594 169.236589,2.49628127 168.918845,2.50331305 C167.667125,2.52440838 166.405777,2.51034483 165.173315,2.44002705 C163.237964,2.32751859 161.292985,2.17281947 159.357634,2.15875592 C156.594223,2.1306288 153.821183,2.11656525 151,2.03921569 C151.259972,2.25016903 151.548831,2.21501014 151.808803,2.20797836 C152.887208,2.18688303 153.955983,2.27829615 155.024759,2.33455037 C157.9326,2.48924949 160.859697,2.46815416 163.767538,2.62988506 C165.808803,2.74239351 167.859697,2.7142664 169.910591,2.75645707 C172.259972,2.80567951 174.609354,2.86896552 176.949106,2.9392833 C177.632737,2.96037863 178.345254,2.80567951 179,3.05882353 C178.971114,2.96037863 178.951857,2.81974307 178.788171,2.83380663 Z" id="Path" fill="#C2C4C6"></path>
                    <path d="M82.7475728,2.69044106 C83.4368932,2.71311075 84.1359223,2.67910622 84.815534,2.80378951 C86.0097087,3.04182126 87.1941748,3.34786208 88.3106796,2.49774869 C88.5533981,2.30505632 88.8349515,2.31639117 89.1165049,2.31639117 C89.368932,2.31639117 89.6504854,2.475079 90,2.1236988 C89.4563107,2.10102911 89.0485437,1.98768066 88.592233,2.06702457 C87.3300971,2.29372148 86.0873786,2.75845013 84.776699,2.40706993 C84.5145631,2.33906086 84.223301,2.42973962 83.9417476,2.48641385 C83.2912621,2.61109714 82.6407767,2.5997623 82,2.42973962 C82.2038835,2.7244456 82.4757282,2.67910622 82.7475728,2.69044106 Z" id="Path" fill="#C2C4C6"></path>
                    <path d="M84.0261244,2.05027952 C84.0130622,2.03921569 84.0130622,2.03921569 84,2.02815186 L83.9738756,2.05027952 C83.9869378,2.05027952 84.0130622,2.05027952 84.0261244,2.05027952 Z" id="Path" fill="#C2C4C6"></path>
                    <path d="M54.4315789,1.7486981 C56.5894737,1.63249106 58.7473684,1.45818051 61,1.09503352 C58.3894737,0.833567688 55.9157895,1.31292171 53.4210526,1.6034393 C53.2,1.63249106 53.1052632,1.83585337 53,2.03921569 C53.4421053,1.6760687 53.9473684,1.77774986 54.4315789,1.7486981 Z" id="Path" fill="#C2C4C6"></path>
                    <path d="M55.0048983,2.03675706 C54.9918361,2.03675706 54.9918361,2.03675706 55.0048983,2.03675706 L55.0048983,2.03675706 C54.9918361,2.04782089 54.9918361,2.03675706 55.0048983,2.03675706 Z" id="Path" fill="#C2C4C6"></path>
                    <path d="M185.934689,3.06435544 C185.960813,3.06435544 185.986938,3.06435544 186.013062,3.06435544 C186.013062,3.06435544 186.013062,3.06435544 186.013062,3.06435544 C186.026124,3.06435544 186.039187,3.06435544 186.065311,3.07541927 C186.065311,3.06435544 186.052249,3.05329161 186.052249,3.04222778 C186.013062,3.05329161 185.973876,3.05329161 185.934689,3.06435544 Z" id="Path" fill="#C2C4C6"></path>
                    <path d="M180,2.45520487 C180.821656,2.41784445 181.633758,2.36803056 182.44586,2.36803056 C182.904459,2.36803056 183.410828,2.24349584 183.735669,2.90352989 C183.83121,3.10278545 184.041401,3.09033198 184.203822,2.97825073 C184.767516,2.59219307 185.407643,2.64200696 186,2.45520487 C184.347134,2.33067014 182.694268,2.20613542 181.041401,2.04424027 C180.649682,2.00687985 180.315287,2.18122847 180,2.45520487 Z" id="Path" fill="#C2C4C6"></path>
                    <path d="M124.057778,1.05565198 C124.573333,1.05565198 125.088889,1.08347049 125.595556,1.05565198 C126.057778,1.0347881 126.555556,1.18778989 127,0.979151092 C124.982222,1.07651586 122.973333,0.895695574 121,0.965241839 C121.506667,1.00001497 122.013333,1.05565198 122.52,1.07651586 C123.035556,1.09042512 123.542222,1.06260661 124.057778,1.05565198 Z" id="Path" fill="#C2C4C6"></path>
                    <path d="M13.7221555,48.4756901 C13.3020003,48.3170015 12.8750685,48.1477337 12.4549133,47.9890452 C12.3193794,47.936149 12.1567387,47.8303567 12.061865,48.0842583 C11.9805446,48.2852638 11.9805446,48.5285863 12.0550883,48.740171 C12.149962,49.0046519 12.3261561,48.9094388 12.4481366,48.8459633 C12.9767189,48.5497447 13.4917478,48.697854 14,48.9411765 C13.9728932,48.6872748 13.8780195,48.5391655 13.7221555,48.4756901 Z" id="Path" fill="#C2C4C6"></path>
                    <path d="M13.9970973,48.9411765 C13.9970973,48.9411765 13.9970973,48.9411765 13.9970973,48.9411765 C13.9970973,48.9411765 13.9970973,48.9411765 13.9970973,48.9411765 C13.9970973,48.9411765 14.0101595,48.9411765 13.9970973,48.9411765 C13.9970973,48.9411765 13.9970973,48.9411765 13.9970973,48.9411765 C13.9970973,48.9411765 13.9970973,48.9411765 13.9970973,48.9411765 Z" id="Path" fill="#C2C4C6"></path>
                    <path d="M151,2.0977025 C149.333333,2.08379325 147.687371,1.82647207 146,1.99338311 C147.666667,2.06292937 149.322981,2.21593115 151,2.0977025 Z" id="Path" fill="#C2C4C6"></path>
                    <path d="M264,15.4356826 C263.094527,15.0423219 262.547264,15.5245059 262,16.1970258 C262.78607,16.501563 263.373134,16.1970258 264,15.4356826 Z" id="Path" fill="#C2C4C6"></path>
                    <path d="M100.806794,1.10446964 C102.208068,1.07665114 103.598726,1.05578726 105,1.02796875 C103.333333,1.0140595 101.656051,1.041878 100,0.930603979 C100.201699,1.13228815 100.509554,1.11142427 100.806794,1.10446964 Z" id="Path" fill="#C2C4C6"></path>
                    <path d="M53,2.12706925 C53.5284281,2.11316 54.2575251,2.09229612 55,2.07143224 C54.2508361,1.80020181 53.5217391,2.06447762 53,2.12706925 Z" id="Path" fill="#C2C4C6"></path>
                    <path d="M51.2071749,2.03139238 C51.0565022,2.03139238 50.9152466,2.04245621 50.7928251,2.04245621 C50.9152466,2.05352004 51.0565022,2.04245621 51.2071749,2.03139238 Z" id="Path" fill="#C2C4C6"></path>
                    <path d="M266,14.283617 C266.678899,14.5061651 267.348624,14.4713919 268,14.2001615 C267.311927,13.9637042 266.678899,14.3253448 266,14.283617 Z" id="Path" fill="#C2C4C6"></path>
                    <path d="M62,48.9414012 C62.6453901,49.017902 63.2978723,49.0804937 64,48.9344465 C63.3049645,48.8996734 62.6524823,48.7814447 62,48.9414012 Z" id="Path" fill="#C2C4C6"></path>
                    <path d="M39,50.8651343 C39.9950739,51.1850471 40.1330049,51.1989564 41,51.0181361 C40.3103448,50.8651343 39.729064,50.7677695 39,50.8651343 Z" id="Path" fill="#C2C4C6"></path>
                    <path d="M139,0.960493518 C138.333333,0.981357397 137.666667,1.00222128 137,1.02308516 C137,1.04394904 137,1.05785829 137,1.07872217 C137.666667,1.05785829 138.333333,1.03699441 139,1.01613053 C139,0.99526665 139,0.974402771 139,0.960493518 Z" id="Path" fill="#C2C4C6"></path>
                    <path d="M41,2.95830144 C40.2533333,2.88180055 39.6488889,3.17389487 39,3.11130323 C39.6577778,3.26430501 40.28,3.09739397 41,2.95830144 Z" id="Path" fill="#C2C4C6"></path>
                    <path d="M73.1836323,2.02966312 C73.0612108,2.00753546 72.9387892,2.00753546 72.8163677,2.05179078 C72.9387892,2.07391844 73.0612108,2.06285461 73.1836323,2.02966312 Z" id="Path" fill="#C2C4C6"></path>
                    <path d="M75,3.13009492 C74.6285714,2.84495524 74.3071429,2.98404777 74,3.03968478 C74.3,3.06750328 74.6142857,3.22745969 75,3.13009492 Z" id="Path" fill="#C2C4C6"></path>
                    <path d="M114,0.97448131 C113.333333,0.996608969 112.666667,1.01873663 112,1.04086429 C112.675,1.10724727 113.341667,1.01873663 114,0.97448131 Z" id="Path" fill="#C2C4C6"></path>
                    <path d="M14,48.952646 C14.3221477,48.9735098 14.6510067,49.1612848 15,48.9943737 C14.6442953,48.6605517 14.3221477,48.897009 14,48.952646 Z" id="Path" fill="#C2C4C6"></path>
                    <path d="M13.8634529,48.9480507 C13.9576233,48.9591145 14.0423767,48.9480507 14.1365471,48.9369868 C14.0423767,48.925923 13.9482063,48.925923 13.8634529,48.9480507 Z" id="Path" fill="#C2C4C6"></path>
                    <path d="M130,0.964288694 C129.666667,0.981773099 129.333333,0.999257505 129,1.00799971 C129.333333,1.06919513 129.666667,1.13913275 130,0.964288694 Z" id="Path" fill="#C2C4C6"></path>
                    <path d="M100,0.964288694 C99.6632124,0.984982077 99.3316062,1.00567546 99,1.01602215 C99.3367876,1.02636884 99.6735751,1.17122252 100,0.964288694 Z" id="Path" fill="#C2C4C6"></path>
                    <path d="M98.8446188,1.02513976 C98.9482063,1.02513976 99.0517937,1.01407593 99.1553812,1.01407593 C99.0517937,1.01407593 98.9482063,1.01407593 98.8446188,1.02513976 Z" id="Path" fill="#C2C4C6"></path>
                    <path d="M102.013062,1.02513976 C102.026124,1.02513976 102.039187,1.02513976 102.039187,1.02513976 C102.039187,1.02513976 102.026124,1.01407593 102.026124,1.01407593 C102,1.02513976 101.973876,1.02513976 101.960813,1.02513976 C101.973876,1.02513976 102,1.02513976 102.013062,1.02513976 C102.013062,1.02513976 102.013062,1.02513976 102.013062,1.02513976 Z" id="Path" fill="#C2C4C6"></path>
                    <path d="M105,1.97208784 C104.648936,1.91645083 104.329787,1.95122396 104,1.9859971 C104.606383,2.18768126 104.606383,2.18768126 105,1.97208784 Z" id="Path" fill="#C2C4C6"></path>
                    <path d="M141,1.97687145 C140.666667,1.98382608 140.333333,1.99078071 140,1.99773533 C140.00813,2.01859921 140.02439,2.03946309 140.04065,2.07423623 C140.349593,2.12987324 140.666667,2.10205473 141,1.97687145 Z" id="Path" fill="#C2C4C6"></path>
                    <path d="M43,3.00350438 C42.6940299,3.0126141 42.3880597,3.02172382 42,3.03994327 C42.3955224,3.2221377 42.6940299,3.0126141 43,3.00350438 Z" id="Path" fill="#C2C4C6"></path>
                    <path d="M36,3.97713403 C35.6666667,3.93540627 35.4102564,4.04668029 35,4.17186357 C35.4444444,4.16490894 35.7606838,4.28313759 36,3.97713403 Z" id="Path" fill="#C2C4C6"></path>
                    <path d="M133,1.02513976 C133,1.01407593 133,1.0030121 133,0.980884439 C132.67,0.991948269 132.33,1.0030121 132,1.01407593 C132,1.02513976 132,1.03620359 132,1.05833125 C132.33,1.04726742 132.66,1.03620359 133,1.02513976 Z" id="Path" fill="#C2C4C6"></path>
                    <path d="M162,3.06988736 C162,3.06988736 162.026124,3.0477597 162.026124,3.0477597 C162.013062,3.0477597 161.986938,3.05882353 161.973876,3.05882353 C161.973876,3.06988736 161.986938,3.06988736 162,3.06988736 Z" id="Path" fill="#C2C4C6"></path>
                    <path d="M160.744592,3.04143696 C160.744592,2.93016294 160.653375,2.85366205 160.324993,2.85366205 C160.106072,2.85366205 159.996611,2.90929906 160.014854,2.99275458 C160.051341,3.09707398 159.83242,3.26398501 160.36148,3.26398501 C160.580401,3.26398501 160.781079,3.22225725 161,3.19443875 C160.799322,3.16662024 160.744592,3.11098323 160.744592,3.04143696 Z" id="Path" fill="#C2C4C6"></path>
                    <path d="M118,0.980884439 C117.670213,0.991948269 117.340426,1.0030121 117,1.01407593 C117,1.02513976 117,1.03620359 117,1.05833125 C117.329787,1.04726742 117.659574,1.03620359 118,1.02513976 C118,1.0030121 118,0.991948269 118,0.980884439 Z" id="Path" fill="#C2C4C6"></path>
                    <path d="M83,2.09453484 C83,2.06049228 83,2.02644973 83,1.98389654 C82.6696429,1.99240718 82.3303571,2.00091781 82,2.00942845 C82,2.02644973 82,2.05198164 82,2.06900292 C82.3303571,2.07751356 82.6607143,2.0860242 83,2.09453484 Z" id="Path" fill="#C2C4C6"></path>
                    <path d="M65,2.01708803 C64.6712329,2.02815186 64.3287671,2.02815186 64,2.03921569 C64,2.05027952 64,2.05027952 64,2.06134335 C64.3150685,2.05027952 64.630137,2.05027952 64.9589041,2.03921569 C64.9726027,2.02815186 64.9863014,2.01708803 65,2.01708803 Z" id="Path" fill="#C2C4C6"></path>
                    <path d="M18.916843,49.7762665 C18.8038385,49.7762665 18.7379192,49.8458128 18.7567533,49.9223137 C18.7850044,50.0544516 18.9074259,50.1379071 19.0863497,50.1448617 C19.1899372,50.1518164 19.2464394,50.0753155 19.2464394,49.99186 C19.1993542,49.8736313 19.1146008,49.7762665 18.916843,49.7762665 Z" id="Path" fill="#C2C4C6"></path>
                    <path d="M44.9902033,3.07000649 C45.0163278,3.05894266 45.0163278,3.02575117 44.9902033,3.07000649 L44.9902033,3.07000649 Z" id="Path" fill="#C2C4C6"></path>
                    <path d="M44.8876404,3.09833721 C44.9213483,3.09833721 44.9775281,3.08253174 44.988764,3.06672626 C44.988764,3.05092079 45,3.04301806 45,3.03511532 C44.988764,3.04301806 44.9550562,3.03511532 44.9101124,3.00350438 C44.6179775,3.02721259 44.3146067,3.04301806 44,3.06672626 C44,3.08253174 44,3.09833721 44,3.11414268 C44.3033708,3.11414268 44.5955056,3.10623994 44.8876404,3.09833721 Z" id="Path" fill="#C2C4C6"></path>
                    <path d="M144,2.01155611 C143.672131,2.02261994 143.327869,2.02261994 143,2.03368377 C143,2.0447476 143,2.05581143 143,2.06687526 C143.327869,2.05581143 143.672131,2.05581143 144,2.0447476 C144,2.03368377 144,2.02261994 144,2.01155611 Z" id="Path" fill="#C2C4C6"></path>
                    <path d="M56.3950617,3.01913259 C56.2716049,3.01217796 56.1481481,3.03999647 56,3.05390572 C56.0617284,3.08172423 56.0987654,3.10258811 56.1358025,3.10258811 C56.3950617,3.10954273 56.654321,3.11649736 56.9135802,3.11649736 C56.9382716,3.11649736 57,3.0747696 57,3.06781498 C56.8271605,2.94958632 56.5925926,3.02608722 56.3950617,3.01913259 Z" id="Path" fill="#C2C4C6"></path>
                    <path d="M49.2024664,2.0060242 C49.0800448,2.0060242 48.9576233,2.01708803 48.8257848,2.01708803 C48.8163677,2.01708803 48.8069507,2.05027952 48.7975336,2.07240718 C48.9293722,2.07240718 49.0612108,2.06134335 49.1930493,2.06134335 C49.2024664,2.03921569 49.2024664,2.02815186 49.2024664,2.0060242 Z" id="Path" fill="#C2C4C6"></path>
                    <path d="M144.984678,2.11959733 C145.144768,2.14046121 145.229521,2.09873345 145.20127,2.07091494 C145.154185,2.02223256 145.060014,1.9805048 144.975261,1.95964092 C144.899925,1.94573167 144.749252,1.94573167 144.805754,2.05005106 C144.824588,2.09873345 144.965844,2.1126427 144.984678,2.11959733 Z" id="Path" fill="#C2C4C6"></path>
                    <path d="M155.954393,3.17294862 C156.05798,3.18685788 156.152151,3.165994 156.199236,3.08949311 C156.21807,2.99908296 156.161568,2.95040058 156.048563,2.94344595 C155.954393,2.93649132 155.831971,2.93649132 155.80372,3.01994684 C155.775469,3.08949311 155.841388,3.15903937 155.954393,3.17294862 Z" id="Path" fill="#C2C4C6"></path>
                    <path d="M41.7598655,51.0022531 C41.9199552,51.011714 42.0800448,51.0874006 42.2401345,50.9738706 C42.1836323,50.954949 42.12713,50.9171056 42.0800448,50.9265665 C41.9670404,50.9360273 41.8634529,50.9738706 41.7598655,51.0022531 Z" id="Path" fill="#C2C4C6"></path>
                    <path d="M29.1520819,2.01943857 C29.1238307,1.98389654 29.0390774,1.98389654 28.9731581,1.98389654 C28.9260729,1.98389654 28.8884047,2.01943857 28.8413195,2.0460951 C28.9072388,2.06386612 28.9637411,2.08163714 29.0202433,2.09052265 C29.1144137,2.10829367 29.180333,2.06386612 29.1520819,2.01943857 Z" id="Path" fill="#C2C4C6"></path>
                    <path d="M88.9171431,1.05050794 C88.9736454,1.06157177 89.0489817,1.05050794 89.1054839,1.03944411 C89.114901,1.03944411 89.124318,1.00625262 89.1431521,0.995188789 C89.0772328,0.995188789 89.0207306,0.98412496 88.9548113,0.98412496 C88.8418068,0.995188789 88.8229727,1.02838028 88.9171431,1.05050794 Z" id="Path" fill="#C2C4C6"></path>
                    <path d="M96.0195933,1.01407593 C96.0065311,1.01407593 96.0065311,1.01407593 95.9804067,1.02513976 L95.9804067,1.02513976 C95.9934689,1.02513976 96.0195933,1.01407593 96.0195933,1.01407593 Z" id="Path" fill="#C2C4C6"></path>
                    <path d="M84,2.01033219 C83.7126437,1.98946831 83.4252874,1.91296742 83,2.05901458 C83.4597701,2.15637935 83.7356322,2.08683308 84,2.01033219 Z" id="Path" fill="#C2C4C6"></path>
                    <path d="M84.0261244,2.02815186 C84.0130622,2.03921569 83.9869378,2.03921569 83.9738756,2.05027952 C83.9869378,2.05027952 83.9869378,2.05027952 84,2.05027952 C84,2.03921569 84.0261244,2.02815186 84.0261244,2.02815186 Z" id="Path" fill="#C2C4C6"></path>
                    <path d="M134.164798,1.02937879 C134.108296,1.00768209 134.051794,0.985985393 134.004709,0.964288694 C133.948206,0.985985393 133.891704,1.00768209 133.835202,1.01853044 C133.891704,1.04022714 133.948206,1.07277219 134.004709,1.07277219 C134.051794,1.08362054 134.108296,1.05107549 134.164798,1.02937879 Z" id="Path" fill="#C2C4C6"></path>
                    <path d="M140.95815,3.11656822 C141.005235,3.13047747 141.089988,3.13047747 141.118239,3.10961359 C141.202993,3.02615808 141.127656,2.99138494 141.024069,2.99138494 C140.967567,2.99138494 140.901647,3.01224882 140.845145,3.02615808 C140.873396,3.05397658 140.911064,3.10265897 140.95815,3.11656822 Z" id="Path" fill="#C2C4C6"></path>
                    <path d="M266.971749,18.3916646 C267.028251,18.3916646 267.09417,18.3695369 267.16009,18.3695369 C267.150673,18.3474093 267.131839,18.3142178 267.122422,18.3142178 C267.028251,18.3252816 266.934081,18.3474093 266.83991,18.3695369 C266.877578,18.3695369 266.924664,18.3916646 266.971749,18.3916646 Z" id="Path" fill="#C2C4C6"></path>
                    <path d="M16.8361702,47.9065003 C16.8173362,48.0177743 16.9397577,48.003865 17.0339281,47.9899558 C17.0810133,47.9830012 17.1186815,47.9412734 17.1657667,47.9134549 C17.1092644,47.8856364 17.0527622,47.8439086 16.9962599,47.8439086 C16.9397577,47.8439086 16.8455873,47.8786818 16.8361702,47.9065003 Z" id="Path" fill="#C2C4C6"></path>
                </g>
            </g>
            <path d="M117.086,36.953 C116.735998,37.1350009 116.260003,37.2399999 115.658,37.268 C115.195998,37.2960001 114.517004,37.2750004 113.621,37.205 L113.495,34.307 L114.272,34.37 L114.272,34.37 L115.175,34.433 C115.427001,34.4610001 115.553,34.3700011 115.553,34.16 L115.553,30.464 L112.571,30.254 C113.369004,31.3040053 113.949998,32.227996 114.314,33.026 L112.298,34.433 C112.143999,34.026998 111.871002,33.4880034 111.479,32.816 C111.128998,32.2559972 110.765002,31.6960028 110.387,31.136 L111.773,30.191 L109.904,30.065 L109.904,27.356 L115.553,27.755 L115.553,26.096 L109.505,25.655 L109.505,22.925 L113.537,23.219 L113.537,21.749 L110.555,21.539 L110.555,18.893 L113.537,19.103 L113.537,17.381 L116.078,17.549 L116.078,19.271 L119.165,19.502 L119.165,22.148 L116.078,21.917 L116.078,23.387 L119.921,23.66 L119.921,26.39 L118.094,26.264 L118.094,27.923 L119.711,28.028 L119.711,30.737 L118.094,30.632 L118.094,34.37 C118.094,35.7420069 117.758003,36.6029982 117.086,36.953 Z M108.077,30.296 L108.077,36.869 L105.536,36.68 L105.536,30.926 L103.205,31.535 L102.638,28.469 L103.321667,28.3523333 C103.822555,28.2621114 104.413663,28.1470007 105.095,28.007 L105.536,27.902 L105.536,23.744 L104.738,23.702 L104.675,24.164 C104.534999,25.172005 104.402001,25.8929978 104.276,26.327 L102.239,25.487 C102.521335,24.4988284 102.744847,23.2048123 102.909542,21.6049185 L102.974,20.93 C103.072,19.9779952 103.128,19.1450036 103.142,18.431 L105.2,18.998 L105.074,20.846 L105.536,20.867 L105.536,16.835 L108.077,17.024 L108.077,21.056 L109.295,21.14 L109.295,24.017 L108.077,23.933 L108.077,27.377 L109.295,27.125 L109.505,29.855 L108.077,30.296 Z M132.8465,21.182 L133.5815,21.224 L133.5815,20.384 L132.8465,20.342 L132.8465,21.182 Z M130.0745,23.849 L130.7465,23.891 L130.7465,22.694 L130.0745,22.652 L130.0745,23.849 Z M132.8465,24.038 L133.5815,24.08 L133.5815,22.883 L132.8465,22.841 L132.8465,24.038 Z M135.7025,24.248 L136.3955,24.29 L136.3955,23.093 L135.7025,23.051 L135.7025,24.248 Z M132.9095,35.189 C132.321497,35.6090021 131.551505,35.9729985 130.5995,36.281 C129.731496,36.5610014 128.793505,36.7849992 127.7855,36.953 L127.1135,34.769 C127.547502,34.7129997 128.051497,34.6220006 128.6255,34.496 C129.255503,34.3419992 129.801498,34.167001 130.2635,33.971 L128.0165,33.824 L128.0165,25.991 L138.6425,26.726 L138.6425,34.559 L136.4165,34.412 L138.3065,35.315 L138.836215,35.5892863 C139.249072,35.806429 139.590499,35.9949992 139.8605,36.155 L137.5505,37.625 C136.612495,36.9249965 135.317508,36.1970038 133.6655,35.441 L134.9465,34.307 L131.6285,34.076 L132.9095,35.189 Z M130.4735,28.322 L136.0385,28.721 L136.0385,28.133 L130.4735,27.734 L130.4735,28.322 Z M130.4735,30.38 L136.0385,30.779 L136.0385,30.212 L130.4735,29.792 L130.4735,30.38 Z M130.4735,32.438 L136.0385,32.837 L136.0385,32.249 L130.4735,31.85 L130.4735,32.438 Z M123.7325,26.936 L123.7115,26.957 L123.3755,27.44 L121.2965,25.151 C122.136504,24.1149948 122.920496,22.792008 123.6485,21.182 C124.278503,19.7539929 124.789498,18.2910075 125.1815,16.793 L127.6595,17.843 L127.6595,17.864 L139.3775,18.683 L139.3775,20.804 L135.7025,20.552 L135.7025,21.392 L138.8105,21.602 L138.8105,26.054 L127.7855,25.277 L127.7855,20.825 L130.7465,21.035 L130.7465,20.195 L127.5125,19.964 L127.5125,18.305 C127.120498,19.5790064 126.707502,20.7689945 126.2735,21.875 L126.2735,36.743 L123.7325,36.575 L123.7325,26.936 Z M147.41,24.668 L144.869,24.836 L144.869,22.778 L144.302,23.24 L144.092,23.408 C143.769998,23.6600013 143.476001,23.8769991 143.21,24.059 L141.761,21.728 C143.73501,20.6779947 145.358994,19.1940096 146.633,17.276 L149.048,18.095 C148.501997,18.9490043 147.956003,19.676997 147.41,20.279 L147.41,21.224 C148.320004,20.9159985 149.194996,20.5800018 150.035,20.216 L150.035,17.339 L152.618,17.15 L152.618,18.851 C153.612005,18.2909972 154.472996,17.6820033 155.201,17.024 L157.175,18.599 C156.502997,19.1310027 155.789004,19.6349976 155.033,20.111 C154.206996,20.6290026 153.409004,21.0629982 152.639,21.413 C152.667,21.5950009 152.778999,21.7069998 152.975,21.749 C153.199001,21.8050003 153.625997,21.8120002 154.256,21.77 L155.012,21.707 C155.614003,21.6649998 156.019999,21.5530009 156.23,21.371 C156.412001,21.2169992 156.517,20.937002 156.545,20.531 L158.813,20.804 C158.658999,21.9800059 158.330002,22.7919978 157.826,23.24 C157.307997,23.7020023 156.391007,23.9749996 155.075,24.059 L154.13,24.122 C152.729993,24.2200005 151.729003,24.1360013 151.127,23.87 C150.580997,23.6179987 150.245001,23.1490034 150.119,22.463 L148.019,23.261 C147.935,22.8269978 147.732002,22.3020031 147.41,21.686 L147.41,24.668 Z M149.657,34.391 C148.942996,34.9790029 147.998006,35.5809969 146.822,36.197 C145.729994,36.7710029 144.582006,37.2819978 143.378,37.73 L142.412,35.399 C142.972003,35.2589993 143.615996,35.0490014 144.344,34.769 C145.184004,34.4469984 145.883997,34.1320015 146.444,33.824 L144.176,33.971 L144.176,25.487 L156.755,24.626 L156.755,33.11 L154.718,33.236 L154.98764,33.3418398 L154.98764,33.3418398 L157.385,34.328 L158.03075,34.6377501 C158.22325,34.7322499 158.392999,34.8179996 158.54,34.895 L156.251,36.596 C155.566552,36.1853313 154.716189,35.747014 153.69989,35.2810377 L152.387,34.685 L151.673,34.391 L152.723,33.383 L148.082,33.698 L149.657,34.391 Z M146.759,27.65 L154.067,27.125 L154.067,26.495 L146.759,27.02 L146.759,27.65 Z M146.759,29.876 L154.067,29.351 L154.067,28.742 L146.759,29.267 L146.759,29.876 Z M146.759,32.102 L154.067,31.577 L154.067,30.968 L146.759,31.493 L146.759,32.102 Z M175.6025,18.473 L175.6025,26.453 L164.3045,25.655 L164.3045,17.675 L175.6025,18.473 Z M166.8665,23.051 L172.8725,23.471 L172.8725,21.098 L166.8665,20.678 L166.8665,23.051 Z M177.9545,28.217 L177.9545,36.911 L170.4785,36.386 L170.4785,27.692 L177.9545,28.217 Z M169.1555,27.608 L169.1555,36.302 L161.8475,35.777 L161.8475,27.083 L169.1555,27.608 Z M173.0195,33.74 L175.2875,33.908 L175.2875,30.842 L173.0195,30.674 L173.0195,33.74 Z M164.4,33.066 L166.668,33.234 L166.668,30.168 L164.4,30 L164.4,33.066 Z" id="" fill="#FFFFFF"></path>
        </g>
    </g>
</svg>