<?xml version="1.0" encoding="UTF-8"?>
<svg width="166px" height="75px" viewBox="0 0 166 75" version="1.1" xmlns="http://www.w3.org/2000/svg" xmlns:xlink="http://www.w3.org/1999/xlink">
    <!-- Generator: Sketch 59.1 (86144) - https://sketch.com -->
    <title>Group 30</title>
    <desc>Created with Sketch.</desc>
    <defs>
        <linearGradient x1="100%" y1="100%" x2="100%" y2="0%" id="linearGradient-1">
            <stop stop-color="#5B60B4" offset="0%"></stop>
            <stop stop-color="#A99FF7" offset="100%"></stop>
        </linearGradient>
    </defs>
    <g id="Amazon-Browser" stroke="none" stroke-width="1" fill="none" fill-rule="evenodd">
        <g id="Group-30" fill-rule="nonzero">
            <g id="whatsAppLogotype-Copy-2" fill="url(#linearGradient-1)">
                <rect id="Rectangle" x="0" y="0.330935252" width="166" height="74" rx="23.1"></rect>
            </g>
            <path d="M31.9345001,20.668 L26.8945001,20.668 L26.8945001,31.826 L28.1965001,31.826 L28.1965001,30.972 L30.6465001,30.972 L30.6465001,31.826 L31.9345001,31.826 L31.9345001,20.668 Z M28.1965001,29.684 L28.1965001,21.956 L30.6465001,21.956 L30.6465001,29.684 L28.1965001,29.684 Z M22.1905001,19.45 C22.0505001,20.29 21.9105001,21.116 21.7565001,21.928 L19.9785001,21.928 L19.9785001,23.23 L21.4765001,23.23 C21.1405001,24.63 20.7765001,25.932 20.3565001,27.136 C21.2245001,27.752 22.0085001,28.326 22.7085001,28.886 C22.0085001,29.81 21.1125001,30.608 20.0485001,31.28 L20.9305001,32.386 C22.0365001,31.63 22.9745001,30.734 23.7305001,29.698 C24.4025001,30.23 24.9765001,30.734 25.4525001,31.21 L26.3765001,30.118 C25.8725001,29.656 25.2285001,29.138 24.4445001,28.564 C25.3545001,26.912 25.8585001,24.952 25.9705001,22.684 L25.9705001,21.928 L23.1005001,21.928 L23.2734281,21.022592 C23.3614601,20.55488 23.4505001,20.066 23.5345001,19.562 L22.1905001,19.45 Z M23.4085001,27.808 C22.9325001,27.472 22.4005001,27.108 21.8405001,26.73 C22.1905001,25.792 22.5265001,24.63 22.8345001,23.23 L24.7245001,23.23 C24.5845001,24.952 24.1365001,26.478 23.4085001,27.808 Z M38.5775001,27.052 L38.5775001,27.766 L36.5055001,27.766 L36.5055001,28.774 L38.5775001,28.774 L38.5775001,31.042 C37.7935001,31.098 36.9815001,31.14 36.1695001,31.168 L36.4495001,32.26 C38.3395001,32.148 40.1175001,32.008 41.7695001,31.854 L41.7695001,30.804 C41.0975001,30.86 40.4255001,30.902 39.7255001,30.958 L39.7255001,28.774 L41.7555001,28.774 L41.7555001,27.766 L39.7255001,27.766 L39.7255001,27.052 L40.8035001,27.052 L40.8035001,26.394 L41.4895001,26.968 L41.4895001,26.968 L42.1475001,26.086 C41.1675001,25.33 40.2715001,24.686 39.4315001,24.168 L38.7595001,24.168 C38.0035001,24.938 37.0375001,25.652 35.8895001,26.296 L36.5195001,27.206 C36.8835001,26.982 37.2195001,26.758 37.5415001,26.534 L37.5415001,27.052 L38.5775001,27.052 Z M40.5655001,28.984 C40.4255001,29.516 40.2575001,29.95 40.0615001,30.3 L40.9575001,30.622 C41.1675001,30.216 41.3355001,29.74 41.4755001,29.208 L40.5655001,28.984 Z M38.4935001,21.424 L37.6815001,21.648 C37.7935001,22.068 37.9055001,22.516 38.0175001,22.978 C37.7935001,23.076 37.5415001,23.174 37.2335001,23.286 L37.2335001,20.99 C37.8775001,20.878 38.4235001,20.682 38.8575001,20.402 L38.3535001,19.534 C37.7935001,19.856 37.0795001,20.066 36.2255001,20.164 L36.2255001,23.062 C36.2255001,23.314 36.1415001,23.538 35.9875001,23.706 L36.3095001,24.532 C37.0375001,24.322 37.6675001,24.098 38.2135001,23.86 L38.2835001,24.182 L38.2835001,24.182 L39.0955001,23.874 C39.0535001,23.65 38.9975001,23.412 38.9415001,23.16 L39.4595001,23.818 C39.8095001,23.482 40.0615001,23.076 40.2015001,22.614 C40.3135001,22.25 40.3975001,21.718 40.4395001,21.004 L41.0695001,21.004 L41.0521929,21.8561074 C41.0356184,22.416426 41.0102693,22.7981538 40.9715001,22.992 C40.9155001,23.272 40.7755001,23.426 40.5655001,23.454 L39.9495001,23.454 L40.2295001,24.392 L40.8175001,24.392 C41.2935001,24.364 41.6295001,24.154 41.8255001,23.734 C42.0215001,23.286 42.1195001,22.082 42.1195001,20.094 L39.0395001,20.094 L39.0395001,21.004 L39.5435001,21.004 L39.5160715,21.4202449 C39.4903572,21.7437143 39.4575001,22.008 39.4175001,22.208 C39.3195001,22.53 39.1515001,22.824 38.9275001,23.076 C38.8015001,22.558 38.6615001,22.012 38.4935001,21.424 Z M37.6395001,28.998 L36.7015001,29.292 C36.9395001,29.782 37.1215001,30.3 37.2615001,30.846 L38.1855001,30.608 C38.0175001,29.992 37.8355001,29.46 37.6395001,28.998 Z M38.1155001,26.1 C38.5075001,25.778 38.8435001,25.456 39.1375001,25.148 C39.4875001,25.386 39.9215001,25.708 40.4255001,26.1 L38.1155001,26.1 Z M34.0975001,19.786 L33.2575001,20.584 C34.0695001,21.228 34.7135001,21.844 35.1615001,22.418 L35.9735001,21.592 C35.4695001,20.976 34.8395001,20.374 34.0975001,19.786 Z M34.1395001,23.37 L33.3135001,24.168 C34.1675001,24.882 34.8255001,25.554 35.3015001,26.198 L36.1275001,25.358 C35.5955001,24.686 34.9235001,24.028 34.1395001,23.37 Z M34.9795001,27.052 C34.5315001,28.648 33.9995001,30.202 33.3835001,31.728 L34.5035001,32.218 C35.0635001,30.734 35.5675001,29.138 36.0435001,27.458 L34.9795001,27.052 Z M44.5135001,32.358 C45.3255001,32.358 45.7315001,31.91 45.7315001,31.014 L45.7315001,19.59 L44.5555001,19.59 L44.5555001,30.706 C44.5555001,31.042 44.3875001,31.21 44.0795001,31.21 C43.6315001,31.21 43.1695001,31.182 42.6935001,31.126 L42.9595001,32.358 L44.5135001,32.358 Z M42.7075001,20.976 L42.7075001,29.572 L43.7855001,29.572 L43.7855001,20.976 L42.7075001,20.976 Z M48.7205001,24.154 L48.7205001,23.44 L50.0085001,23.44 L50.0085001,24.154 L48.7205001,24.154 Z M51.0165001,23.44 L52.4165001,23.44 L52.4165001,21.298 L51.0165001,21.298 L51.0165001,20.626 L52.6685001,20.626 L52.6685001,19.758 L47.5585001,19.758 L47.5585001,25.036 L52.8505001,25.036 L52.8505001,24.154 L51.0165001,24.154 L51.0165001,23.44 Z M48.7205001,22.684 L48.7205001,22.068 L51.4365001,22.068 L51.4365001,22.684 L48.7205001,22.684 Z M48.7205001,21.298 L48.7205001,20.626 L50.0085001,20.626 L50.0085001,21.298 L48.7205001,21.298 Z M54.6005001,21.018 L59.0945001,21.018 L59.0945001,20.122 L55.0485001,20.122 C55.1185001,19.954 55.1885001,19.772 55.2445001,19.576 L54.1665001,19.408 C53.8865001,20.304 53.3685001,21.018 52.5845001,21.55 L53.2705001,22.404 C53.8025001,22.04 54.2505001,21.578 54.6005001,21.018 Z M53.3265001,22.698 L53.3265001,25.022 L59.0945001,25.022 L59.0945001,22.698 L53.3265001,22.698 Z M58.1565001,24.238 L57.3445001,24.238 L57.3445001,23.44 L58.1565001,23.44 L58.1565001,24.238 Z M56.5745001,24.238 L55.8465001,24.238 L55.8465001,23.44 L56.5745001,23.44 L56.5745001,24.238 Z M55.0905001,24.238 L54.2645001,24.238 L54.2645001,23.44 L55.0905001,23.44 L55.0905001,24.238 Z M48.6085001,25.54 L48.6085001,30.314 L51.3385001,30.314 C51.1145001,30.524 50.8205001,30.706 50.4285001,30.874 C49.7285001,31.126 48.5805001,31.336 46.9985001,31.49 L47.4465001,32.568 C49.2945001,32.316 50.5825001,31.994 51.3385001,31.574 C51.9265001,31.238 52.3465001,30.818 52.6125001,30.314 L54.1805001,30.314 L54.1805001,31.266 C54.1805001,31.896 54.5725001,32.218 55.3705001,32.218 L58.1705001,32.218 C58.6045001,32.218 58.9265001,32.134 59.1505001,31.994 C59.3745001,31.812 59.5425001,31.294 59.6265001,30.454 L58.4925001,30.09 C58.4505001,30.65 58.3805001,30.972 58.2965001,31.084 C58.2265001,31.182 58.1145001,31.238 57.9605001,31.238 L55.6925001,31.238 C55.5245001,31.238 55.4405001,31.154 55.4405001,31.014 L55.4405001,30.314 L57.8345001,30.314 L57.8345001,25.54 L48.6085001,25.54 Z M56.6305001,29.446 L49.8125001,29.446 L49.8125001,28.844 L56.6305001,28.844 L56.6305001,29.446 Z M49.8125001,28.144 L49.8125001,27.598 L56.6305001,27.598 L56.6305001,28.144 L49.8125001,28.144 Z M49.8125001,26.884 L49.8125001,26.282 L56.6305001,26.282 L56.6305001,26.884 L49.8125001,26.884 Z M54.5165001,21.494 L54.5165001,22.264 L58.4085001,22.264 L58.4085001,21.494 L54.5165001,21.494 Z M67.5155001,25.932 C68.8595001,26.548 70.0635001,27.192 71.1135001,27.878 L67.2495001,27.878 L67.2495001,32.456 L68.4255001,32.456 L68.4255001,31.91 L70.6935001,31.91 L70.6935001,32.456 L71.8695001,32.456 L71.8695001,28.396 L72.2345371,28.6666667 C72.2988334,28.7148889 72.3641667,28.7646667 72.4295001,28.816 L73.2555001,27.836 C72.1915001,27.164 70.9875001,26.52 69.6295001,25.932 L72.9055001,25.932 L72.9055001,24.756 L71.0155001,24.756 C70.8195001,24.364 70.5815001,23.986 70.3015001,23.622 L71.9675001,23.622 L71.9675001,19.982 L67.3475001,19.982 L67.3475001,23.622 L70.2035001,23.622 L69.1675001,23.958 C69.3495001,24.196 69.5315001,24.462 69.7135001,24.756 L66.5775001,24.756 C66.7315001,24.476 66.8715001,24.196 66.9975001,23.902 L65.7235001,23.762 C65.5835001,24.098 65.3875001,24.434 65.1495001,24.756 L60.4735001,24.756 L60.4735001,25.932 L63.9595001,25.932 C63.0355001,26.618 61.7895001,27.192 60.2215001,27.64 L60.8235001,28.732 C61.1315001,28.634 61.4395001,28.536 61.7475001,28.424 L61.7475001,32.456 L62.9095001,32.456 L62.9095001,31.91 L64.9395001,31.91 L64.9395001,32.456 L66.1155001,32.456 L66.1155001,27.878 L63.0215001,27.878 C64.1135001,27.346 65.0095001,26.688 65.7095001,25.932 L67.5155001,25.932 Z M68.4255001,30.776 L68.4255001,28.97 L70.6935001,28.97 L70.6935001,30.776 L68.4255001,30.776 Z M62.9095001,30.776 L62.9095001,28.97 L64.9395001,28.97 L64.9395001,30.776 L62.9095001,30.776 Z M61.5515001,19.982 L61.5515001,23.622 L66.0455001,23.622 L66.0455001,19.982 L61.5515001,19.982 Z M64.8415001,22.516 L62.7555001,22.516 L62.7555001,21.116 L64.8415001,21.116 L64.8415001,22.516 Z M70.7635001,22.516 L68.5515001,22.516 L68.5515001,21.116 L70.7635001,21.116 L70.7635001,22.516 Z M74.1305,20.164 L74.1305,21.466 L80.1645,21.466 C78.9325,23.916 76.7765,26.016 73.6965,27.752 L74.5785,28.914 C76.5525,27.738 78.1905,26.394 79.4785,24.896 L79.4785,32.47 L80.8505,32.47 L80.8505,25.022 C82.7405,26.226 84.3365,27.514 85.6385,28.886 L86.5485,27.78 C84.9525,26.268 83.0485,24.882 80.8505,23.622 L80.8505,23.006 C81.1445,22.516 81.4105,21.998 81.6625,21.466 L86.1985,21.466 L86.1985,20.164 L74.1305,20.164 Z M94.5495,19.73 L94.5495,24.42 C94.5495,25.302 95.0115,25.75 95.9495,25.75 L99.6735,25.75 L99.6735,24.532 L96.3415,24.532 C96.0195,24.532 95.8655,24.378 95.8655,24.084 L95.8655,22.446 L99.3655,22.18 L99.3655,20.962 L95.8655,21.228 L95.8655,19.73 L94.5495,19.73 Z M92.4915,20.514 L91.4695,21.158 C91.7495,21.55 92.0155,21.942 92.2675,22.334 C91.1475,22.474 90.0975,22.572 89.1035,22.642 C89.8315,21.942 90.4895,21.032 91.0775,19.884 L89.8035,19.506 C89.3415,20.458 88.6835,21.41 87.8435,22.376 C87.6755,22.516 87.4795,22.628 87.2415,22.698 L87.6055,23.818 C89.6215,23.706 91.3715,23.524 92.8415,23.286 C93.0095,23.58 93.1775,23.874 93.3175,24.168 L94.3815,23.412 C93.9475,22.6 93.3175,21.634 92.4915,20.514 Z M98.3015,32.232 C98.8055,32.232 99.1835,32.12 99.4215,31.91 C99.6735,31.686 99.8555,30.986 99.9675,29.81 L98.7635,29.418 C98.7215,30.202 98.6375,30.678 98.5255,30.846 C98.4275,30.972 98.2735,31.042 98.0495,31.042 L96.3415,31.042 C96.0055,31.042 95.8515,30.916 95.8515,30.678 L95.8515,28.732 L99.5895,28.48 L99.5895,27.248 L95.8515,27.514 L95.8515,26.226 L94.5355,26.226 L94.5355,30.958 C94.5355,31.798 95.0115,32.232 95.9775,32.232 L98.3015,32.232 Z M92.2535,32.288 C93.0795,32.288 93.4995,31.91 93.4995,31.154 L93.4995,24.42 L87.9835,24.42 L87.9835,32.344 L89.2575,32.344 L89.2575,29.852 L92.2255,29.852 L92.2255,30.874 C92.2255,31.098 92.1135,31.21 91.8895,31.21 L90.4615,31.154 L90.7555,32.288 L92.2535,32.288 Z M89.2575,28.774 L89.2575,27.752 L92.2255,27.752 L92.2255,28.774 L89.2575,28.774 Z M89.2575,26.674 L89.2575,25.596 L92.2255,25.596 L92.2255,26.674 L89.2575,26.674 Z M101.3465,19.954 L101.3465,24.098 L106.8905,24.098 L106.8905,19.954 L101.3465,19.954 Z M105.7285,23.104 L102.5225,23.104 L102.5225,22.46 L105.7285,22.46 L105.7285,23.104 Z M102.5225,21.592 L102.5225,20.948 L105.7285,20.948 L105.7285,21.592 L102.5225,21.592 Z M101.3325,29.712 C101.2345,30.636 100.9965,31.462 100.6045,32.176 L101.7105,32.54 C102.0605,31.756 102.2845,30.846 102.3825,29.824 L101.3325,29.712 Z M103.8105,29.726 L102.8165,29.908 C102.9845,30.608 103.1245,31.434 103.2365,32.358 L104.2865,32.106 C104.1465,31.252 103.9785,30.454 103.8105,29.726 Z M105.3365,29.6 L104.4125,29.782 C104.6505,30.468 104.8605,31.252 105.0425,32.148 L106.0505,31.924 C105.8405,31.084 105.6025,30.3 105.3365,29.6 Z M106.8065,29.334 L105.9105,29.642 C106.1905,30.16 106.4705,30.776 106.7225,31.476 L107.6325,31.056 C107.4085,30.44 107.1285,29.866 106.8065,29.334 Z M103.6705,27.038 L102.9285,27.29 C103.2925,26.786 103.7265,26.142 104.2025,25.386 L103.2785,25.022 L102.901019,25.6753333 C102.839833,25.7811111 102.779167,25.8853333 102.7185,25.988 L101.9905,26.086 L101.9905,26.086 C102.3265,25.652 102.6345,25.078 102.9145,24.35 L101.9205,24.238 C101.6265,25.246 101.2345,25.918 100.7445,26.226 L100.9405,26.968 L101.789833,26.8663704 C101.928278,26.8497778 102.065167,26.8326667 102.2005,26.814 C101.6685,27.626 101.2205,28.13 100.8705,28.34 L101.0665,29.25 C101.7385,29.152 102.4805,29.012 103.2925,28.83 C103.3205,29.026 103.3625,29.222 103.4185,29.446 L104.2585,29.082 C104.0765,28.354 103.8805,27.682 103.6705,27.038 Z M102.8865,27.346 L103.1105,28.074 C102.7325,28.158 102.3825,28.228 102.0745,28.284 C102.2985,28.06 102.5785,27.738 102.8865,27.346 Z M107.0445,26.842 L106.3865,27.052 L106.6945,26.5293333 C106.909167,26.1591111 107.1425,25.7453333 107.3945,25.288 L106.4705,24.924 C106.3025,25.288 106.1345,25.638 105.9665,25.946 L105.2245,26.072 C105.5325,25.652 105.8265,25.092 106.0785,24.364 L105.0845,24.252 C104.8185,25.26 104.4545,25.918 104.0065,26.24 L104.2025,26.968 C104.6505,26.912 105.0985,26.856 105.5185,26.786 C105.0565,27.598 104.6785,28.102 104.3845,28.326 L104.5805,29.222 C105.2525,29.096 105.9805,28.914 106.7785,28.69 C106.8065,28.844 106.8485,29.012 106.9045,29.18 L107.7025,28.83 C107.5065,28.13 107.2965,27.458 107.0445,26.842 Z M106.2885,27.206 C106.3725,27.43 106.4565,27.682 106.5545,27.962 C106.1765,28.074 105.8405,28.158 105.5325,28.242 C105.7425,27.99 105.9945,27.64 106.2885,27.206 Z M107.9685,22.068 L107.9685,29.53 L113.1205,29.53 L113.1205,22.068 L110.9925,22.068 L111.128352,21.4478519 C111.149611,21.3431111 111.169833,21.2373333 111.1885,21.13 L113.5125,21.13 L113.5125,19.954 L107.4925,19.954 L107.4925,21.13 L109.8585,21.13 C109.8025,21.438 109.7325,21.76 109.6485,22.068 L107.9685,22.068 Z M111.8885,28.424 L109.1725,28.424 L109.1725,27.318 L111.8885,27.318 L111.8885,28.424 Z M109.1725,26.268 L109.1725,25.232 L111.8885,25.232 L111.8885,26.268 L109.1725,26.268 Z M109.1725,24.182 L109.1725,23.174 L111.8885,23.174 L111.8885,24.182 L109.1725,24.182 Z M109.3265,29.726 C108.7945,30.426 108.1225,31.028 107.3385,31.56 L108.0525,32.484 C108.8925,31.896 109.6065,31.224 110.1805,30.468 L109.3265,29.726 Z M111.6505,29.754 L110.8945,30.482 C111.6785,31.154 112.2805,31.798 112.7145,32.4 L113.5405,31.574 C113.0225,30.958 112.3925,30.356 111.6505,29.754 Z M119.8195,32.274 C120.7995,32.274 121.3035,31.798 121.3035,30.846 L121.3035,25.022 L126.5955,25.022 L126.5955,23.706 L114.5835,23.706 L114.5835,25.022 L119.9455,25.022 L119.9455,30.51 C119.9455,30.874 119.7495,31.056 119.3575,31.056 C118.8395,31.056 118.2935,31.028 117.7335,30.986 L118.0135,32.274 L119.8195,32.274 Z M116.5995,26.38 C116.1515,28.004 115.3955,29.53 114.3315,30.958 L115.4935,31.672 C116.5295,30.272 117.3415,28.606 117.9155,26.674 L116.5995,26.38 Z M124.3415,26.212 L123.1375,26.618 C124.0195,28.046 124.8315,29.698 125.5735,31.56 L126.7915,31.014 C126.1055,29.32 125.2935,27.724 124.3415,26.212 Z M115.8715,20.178 L115.8715,21.466 L125.3495,21.466 L125.3495,20.178 L115.8715,20.178 Z M127.7505,23.86 L127.7505,33.814 L129.1645,33.814 L129.1645,30.104 C129.8085,30.762 130.7045,31.154 131.6985,31.154 C133.7985,31.154 135.4505,29.502 135.4505,27.43 C135.4505,25.372 133.7985,23.692 131.6985,23.692 C130.7045,23.692 129.7945,24.098 129.1505,24.756 L129.1505,23.86 L127.7505,23.86 Z M129.1365,27.43 C129.1365,26.058 130.2285,24.952 131.6005,24.952 C132.9445,24.952 134.0505,26.058 134.0505,27.43 C134.0505,28.802 132.9445,29.908 131.6005,29.908 C130.2425,29.908 129.1365,28.802 129.1365,27.43 Z M143.4655,31 L143.4655,21.2 L142.0515,21.2 L142.0515,24.756 C141.4075,24.098 140.5115,23.706 139.5315,23.706 C137.4315,23.706 135.7655,25.372 135.7655,27.444 C135.7655,29.502 137.4175,31.168 139.5315,31.168 C140.5255,31.168 141.4215,30.762 142.0655,30.104 L142.0655,31 L143.4655,31 Z M142.0795,27.444 C142.0795,28.816 140.9875,29.922 139.6295,29.922 C138.2715,29.922 137.1795,28.816 137.1795,27.444 C137.1795,26.058 138.2715,24.966 139.6295,24.966 C140.9875,24.966 142.0795,26.058 142.0795,27.444 Z M143.7945,25.106 L145.1665,25.106 L145.1665,31 L146.5805,31 L146.5805,25.106 L148.0925,25.106 L148.0925,23.874 L146.5805,23.874 L146.5805,22.67 C146.5805,22.278 146.7905,22.082 147.1265,22.082 L148.0925,22.082 L148.0925,20.836 L146.8885,20.836 C145.7685,20.836 145.1665,21.536 145.1665,22.502 L145.1665,23.874 L143.7945,23.874 L143.7945,25.106 Z M18.3930001,51.602 L20.1990001,51.602 L20.1990001,52.232 L21.4310001,52.232 L21.4310001,47.332 L17.1610001,47.332 L17.1610001,52.414 L18.3930001,52.414 L18.3930001,51.602 Z M20.1990001,50.426 L18.3930001,50.426 L18.3930001,48.508 L20.1990001,48.508 L20.1990001,50.426 Z M16.7690001,41.228 L16.7690001,42.404 L21.8370001,42.404 L21.8370001,41.228 L20.1010001,41.228 C19.9470001,40.696 19.7230001,40.122 19.4430001,39.478 L18.1690001,39.828 C18.4210001,40.276 18.6310001,40.738 18.8270001,41.228 L16.7690001,41.228 Z M17.2870001,43.3 L17.2870001,44.448 L21.3190001,44.448 L21.3190001,43.3 L17.2870001,43.3 Z M17.2870001,45.232 L17.2870001,46.394 L21.3190001,46.394 L21.3190001,45.232 L17.2870001,45.232 Z M22.2850001,40.346 L22.2850001,41.424 L25.1270001,41.424 L25.1270001,42.096 L22.7610001,42.096 L22.7610001,43.174 L25.1270001,43.174 L25.1270001,43.874 L21.9350001,43.874 L21.9350001,44.952 L29.4950001,44.952 L29.4950001,43.874 L26.2890001,43.874 L26.2890001,43.174 L28.7530001,43.174 L28.7530001,42.096 L26.2890001,42.096 L26.2890001,41.424 L29.1870001,41.424 L29.1870001,40.346 L26.2890001,40.346 L26.2890001,39.534 L25.1270001,39.534 L25.1270001,40.346 L22.2850001,40.346 Z M27.5070001,52.372 C28.3190001,52.372 28.7390001,51.924 28.7390001,51.056 L28.7390001,45.596 L22.7050001,45.596 L22.7050001,52.456 L23.8810001,52.456 L23.8810001,50.272 L27.5770001,50.272 L27.5770001,50.804 C27.5770001,51.154 27.4370001,51.336 27.1570001,51.336 L26.1210001,51.294 L26.4010001,52.372 L27.5070001,52.372 Z M23.8810001,49.236 L23.8810001,48.48 L27.5770001,48.48 L27.5770001,49.236 L23.8810001,49.236 Z M23.8810001,47.416 L23.8810001,46.674 L27.5770001,46.674 L27.5770001,47.416 L23.8810001,47.416 Z M42.6200001,41.004 L39.4140001,41.004 C39.2460001,40.416 39.0640001,39.87 38.8820001,39.38 L37.5240001,39.604 C37.7340001,40.024 37.9160001,40.5 38.0840001,41.004 L35.0180001,41.004 L35.0180001,43.972 L36.2780001,43.972 L36.2780001,42.222 L41.3460001,42.222 L41.3460001,43.916 L42.6200001,43.916 L42.6200001,41.004 Z M37.4960001,42.936 C37.3280001,43.664 37.1320001,44.364 36.9220001,45.05 L34.7240001,45.05 L34.7240001,46.324 L36.4740001,46.324 C36.1800001,47.066 35.8580001,47.78 35.5080001,48.452 C36.3760001,48.914 37.1880001,49.362 37.9580001,49.81 C37.0480001,50.426 35.7600001,50.916 34.1080001,51.28 L34.6400001,52.54 C36.7120001,52.036 38.2520001,51.378 39.2320001,50.552 C40.4220001,51.252 41.4160001,51.896 42.2000001,52.484 L43.0960001,51.434 C42.3260001,50.902 41.3320001,50.286 40.1000001,49.614 C40.7720001,48.718 41.2200001,47.626 41.4440001,46.324 L43.0260001,46.324 L43.0260001,45.05 L38.2660001,45.05 C38.4480001,44.448 38.6300001,43.776 38.8120001,43.048 L37.4960001,42.936 Z M40.1700001,46.324 C39.9460001,47.388 39.5260001,48.27 38.9240001,48.97 C38.3500001,48.662 37.7340001,48.354 37.0760001,48.032 C37.3280001,47.556 37.5800001,46.982 37.8320001,46.324 L40.1700001,46.324 Z M31.8400001,52.316 C32.7360001,52.316 33.1840001,51.854 33.1840001,50.944 L33.1840001,47.08 C33.5620001,46.912 33.9540001,46.716 34.3460001,46.52 L34.3460001,45.176 C33.9540001,45.372 33.5760001,45.568 33.1840001,45.75 L33.1840001,43.37 L34.3880001,43.37 L34.3880001,42.096 L33.1840001,42.096 L33.1840001,39.562 L31.8400001,39.562 L31.8400001,42.096 L30.3140001,42.096 L30.3140001,43.37 L31.8400001,43.37 L31.8400001,46.296 C31.2380001,46.506 30.6360001,46.674 30.0200001,46.814 L30.3560001,48.144 C30.8460001,47.99 31.3360001,47.822 31.8400001,47.64 L31.8400001,50.608 C31.8400001,50.93 31.6860001,51.098 31.3780001,51.098 C31.0420001,51.098 30.7060001,51.07 30.3560001,51.028 L30.6500001,52.316 L31.8400001,52.316 Z M47.3730001,39.926 L47.3730001,49.95 L46.4127038,50.1501481 C46.249889,50.1848889 46.0850001,50.2206667 45.9170001,50.258 L45.9170001,42.278 L44.6150001,42.278 L44.6150001,50.482 L43.8787038,50.6043704 C43.7532223,50.6251111 43.6256667,50.6453333 43.4950001,50.664 L43.6770001,52.022 C46.3090001,51.602 48.6470001,51.056 50.7050001,50.384 L50.7050001,49.04 C50.0610001,49.25 49.3890001,49.446 48.6750001,49.628 L48.6750001,45.204 L50.6770001,45.204 L50.6770001,43.916 L48.6750001,43.916 L48.6750001,39.926 L47.3730001,39.926 Z M55.7170001,42.082 C54.7650001,42.908 53.7290001,43.594 52.5810001,44.14 L52.5810001,39.688 L51.2370001,39.688 L51.2370001,50.342 C51.2370001,51.42 51.7550001,51.966 52.8050001,51.966 L54.4010001,51.966 C55.0450001,51.966 55.5210001,51.798 55.8290001,51.49 C56.1650001,51.126 56.3890001,50.048 56.5290001,48.256 L55.2690001,47.85 L55.2380134,48.36968 C55.1644045,49.43256 55.0487334,50.0853333 54.8910001,50.328 C54.7230001,50.566 54.4850001,50.692 54.1490001,50.692 L53.2390001,50.692 C52.7910001,50.692 52.5810001,50.482 52.5810001,50.062 L52.5810001,45.456 C54.0510001,44.84 55.3530001,44.07 56.5010001,43.174 L55.7170001,42.082 Z M57.278,40.164 L57.278,41.466 L62.514,41.466 L62.514,52.442 L63.844,52.442 L63.844,44.714 C65.02,45.316 66.49,46.198 68.254,47.346 L69.052,46.142 C67.288,45.078 65.552,44.126 63.844,43.3 L63.844,41.466 L69.808,41.466 L69.808,40.164 L57.278,40.164 Z M71.607,40.29 L71.607,41.34 L74.029,41.34 L74.029,42.096 L70.753,42.096 L70.753,43.188 L78.677,43.188 C78.7526,44.6244 78.89624,45.84534 79.097714,46.871232 L79.167,47.206 C79.307,47.892 79.461,48.508 79.643,49.068 C79.223,49.712 78.747,50.258 78.215,50.692 L78.215,50.118 L75.261,50.118 L75.261,49.544 L77.781,49.544 L77.781,45.456 L75.261,45.456 L75.261,44.896 L78.229,44.896 L78.229,43.916 L75.261,43.916 L75.261,43.384 L74.029,43.384 L74.029,43.916 L71.047,43.916 L71.047,44.896 L74.029,44.896 L74.029,45.456 L71.565,45.456 L71.565,49.544 L74.029,49.544 L74.029,50.118 L70.879,50.118 L70.879,51.196 L74.029,51.196 L74.029,52.386 L75.261,52.386 L75.261,51.196 L77.865,51.196 L78.439,52.064 C79.083,51.672 79.657,51.126 80.189,50.454 C80.273,50.643 80.364875,50.81625 80.464625,50.97375 L80.567,51.126 C81.127,51.966 81.645,52.4 82.135,52.4 C82.737,52.4 83.199,51.378 83.521,49.348 L82.443,48.76 L82.387,49.2100357 C82.2376667,50.3407901 82.0883334,50.916 81.939,50.916 C81.771,50.916 81.519,50.594 81.211,49.95 C81.113,49.768 81.029,49.558 80.945,49.306 C81.659,48.032 82.233,46.394 82.667,44.406 L81.533,43.916 C81.253,45.288 80.903,46.492 80.455,47.542 C80.4176667,47.3926667 80.3803334,47.2371111 80.3471482,47.0753333 L80.301,46.828 C80.133,45.946 80.007,44.728 79.937,43.188 L83.283,43.188 L83.283,42.096 L79.895,42.096 L79.863192,41.126528 C79.84908,40.62656 79.839,40.1024 79.839,39.548 L78.579,39.548 C78.579,40.444 78.593,41.298 78.621,42.096 L75.317,42.096 L75.317,41.34 L77.655,41.34 L77.655,40.29 L75.317,40.29 L75.317,39.548 L74.029,39.548 L74.029,40.29 L71.607,40.29 Z M81.323,39.576 L80.371,40.178 C80.987,40.864 81.463,41.494 81.827,42.068 L82.779,41.396 C82.443,40.864 81.953,40.262 81.323,39.576 Z M76.647,48.606 L75.191,48.606 L75.191,47.878 L76.647,47.878 L76.647,48.606 Z M74.127,48.606 L72.685,48.606 L72.685,47.878 L74.127,47.878 L74.127,48.606 Z M72.685,47.052 L72.685,46.366 L74.127,46.366 L74.127,47.052 L72.685,47.052 Z M75.191,46.366 L76.647,46.366 L76.647,47.052 L75.191,47.052 L75.191,46.366 Z M85.46,45.932 L85.46,50.328 L89.828,50.328 L89.828,51.056 C89.828,51.84 90.262,52.232 91.13,52.232 L96.688,52.232 L96.688,51.098 L91.508,51.098 C91.242,51.098 91.116,50.986 91.116,50.762 L91.116,50.328 L95.47,50.328 L95.47,45.932 L91.116,45.932 L91.116,45.288 L89.828,45.288 L89.828,45.932 L85.46,45.932 Z M94.238,49.32 L91.116,49.32 L91.116,48.536 L94.238,48.536 L94.238,49.32 Z M89.828,49.32 L86.706,49.32 L86.706,48.536 L89.828,48.536 L89.828,49.32 Z M86.706,47.654 L86.706,46.912 L89.828,46.912 L89.828,47.654 L86.706,47.654 Z M91.116,46.912 L94.238,46.912 L94.238,47.654 L91.116,47.654 L91.116,46.912 Z M85.026,39.828 L85.026,40.906 L89.856,40.906 L89.856,41.508 L84.48,41.508 L84.48,44.406 L85.698,44.406 L85.698,42.502 L89.856,42.502 L89.856,44.966 L91.144,44.966 L91.144,42.502 L95.302,42.502 L95.302,44.406 L96.52,44.406 L96.52,41.508 L91.144,41.508 L91.144,40.906 L95.974,40.906 L95.974,39.828 L85.026,39.828 Z M92.096,44.308 L91.732,45.022 C92.684,45.134 93.594,45.288 94.49,45.498 L94.84,44.658 C93.958,44.504 93.048,44.392 92.096,44.308 Z M86.678,42.894 L86.272,43.678 C87.196,43.748 88.092,43.846 88.946,43.986 L89.268,43.216 C88.442,43.076 87.574,42.964 86.678,42.894 Z M88.988,44.294 C88.414,44.434 87.476,44.518 86.16,44.574 L86.412,45.414 L86.9980628,45.3667811 C88.0216686,45.276568 88.7661538,45.1663077 89.24,45.036 L88.988,44.294 Z M91.942,44.028 C92.978,43.944 93.874,43.832 94.644,43.678 L94.322,42.824 C93.58,43.034 92.74,43.174 91.802,43.244 L91.942,44.028 Z M97.815,45.386 L97.815,46.688 L103.597,46.688 L103.597,50.552 C103.597,50.916 103.401,51.098 103.023,51.098 C102.211,51.098 101.441,51.084 100.741,51.056 L101.105,52.344 L103.555,52.344 C104.465,52.344 104.927,51.882 104.927,50.972 L104.927,46.688 L110.135,46.688 L110.135,45.386 L104.927,45.386 L104.927,44.266 C106.299,43.342 107.517,42.348 108.581,41.298 L108.581,40.052 L99.285,40.052 L99.285,41.298 L106.789,41.298 C105.767,42.194 104.703,42.95 103.597,43.594 L103.597,45.386 L97.815,45.386 Z M113.908,39.52 C113.278,41.648 112.298,43.51 110.954,45.106 L111.346,46.422 C111.85,45.862 112.326,45.288 112.76,44.686 L112.76,52.47 L114.048,52.47 L114.048,42.572 C114.454,41.774 114.79,40.934 115.07,40.052 L113.908,39.52 Z M115.294,39.982 L115.294,41.102 L117.604,41.102 L117.604,41.844 L115.364,41.844 L115.364,44.7 L123.33,44.7 L123.33,41.844 L121.16,41.844 L121.16,41.102 L123.806,41.102 L123.806,39.982 L115.294,39.982 Z M120.012,41.844 L118.766,41.844 L118.766,41.102 L120.012,41.102 L120.012,41.844 Z M122.182,43.776 L120.992,43.776 L120.992,42.81 L122.182,42.81 L122.182,43.776 Z M120.012,43.776 L118.752,43.776 L118.752,42.81 L120.012,42.81 L120.012,43.776 Z M117.772,43.776 L116.512,43.776 L116.512,42.81 L117.772,42.81 L117.772,43.776 Z M115.812,45.218 L115.812,50.664 L117.674,50.664 C116.946,50.972 115.952,51.252 114.678,51.476 L115.238,52.442 C116.708,52.162 117.828,51.784 118.612,51.336 L118.108,50.664 L120.558,50.664 L120.222,51.336 C121.37,51.602 122.49,51.98 123.568,52.456 L123.974,51.448 C123.12,51.126 122.224,50.86 121.3,50.664 L122.938,50.664 L122.938,45.218 L115.812,45.218 Z M121.734,49.712 L117.016,49.712 L117.016,49.04 L121.734,49.04 L121.734,49.712 Z M117.016,48.242 L117.016,47.584 L121.734,47.584 L121.734,48.242 L117.016,48.242 Z M117.016,46.8 L117.016,46.114 L121.734,46.114 L121.734,46.8 L117.016,46.8 Z M135.811,40.094 L126.053,40.094 L126.053,52.456 L127.411,52.456 L127.411,51.602 L134.467,51.602 L134.467,52.428 L135.811,52.428 L135.811,40.094 Z M127.411,50.314 L127.411,47.99 L134.467,47.99 L134.467,50.314 L127.411,50.314 Z M127.411,46.786 L127.411,44.63 L134.467,44.63 L134.467,46.786 L127.411,46.786 Z M127.411,43.398 L127.411,41.382 L134.467,41.382 L134.467,43.398 L127.411,43.398 Z M138.786,40.626 L138.786,41.858 L143.728,41.858 L143.728,42.88 L139.598,42.88 L139.598,44.112 L143.728,44.112 L143.728,45.162 L138.464,45.162 L138.464,46.38 L142.566,46.38 C141.558,47.444 140.018,48.34 137.918,49.04 L138.632,50.202 C139.472,49.852 140.228,49.474 140.914,49.068 L140.914,50.832 C140.914,51.042 140.802,51.21 140.592,51.322 L141.026,52.456 C142.496,52.078 143.938,51.602 145.366,51.014 L145.114,49.796 C144.148,50.202 143.182,50.552 142.216,50.86 L142.216,48.186 C142.916,47.626 143.504,47.024 143.98,46.38 L150.336,46.38 L150.336,45.162 L145.072,45.162 L145.072,44.112 L149.202,44.112 L149.202,42.88 L145.072,42.88 L145.072,41.858 L150.014,41.858 L150.014,40.626 L145.072,40.626 L145.072,39.548 L143.728,39.548 L143.728,40.626 L138.786,40.626 Z M148.95,46.87 L149.874,47.766 C149.174,48.466 148.376,49.012 147.494,49.404 C148.404,50.244 149.538,50.874 150.882,51.294 L150.084,52.442 C147.606,51.56 145.842,49.922 144.778,47.528 L145.786,46.954 C146.038,47.542 146.36,48.088 146.724,48.564 C147.508,48.2 148.25,47.626 148.95,46.87 Z" id="如瀏覽器不能顯示pdf請按此下載電子價目表" fill="#FFFFFF"></path>
        </g>
    </g>
</svg>