<?xml version="1.0" encoding="UTF-8"?>
<svg width="166px" height="75px" viewBox="0 0 166 75" version="1.1" xmlns="http://www.w3.org/2000/svg" xmlns:xlink="http://www.w3.org/1999/xlink">
    <!-- Generator: Sketch 59.1 (86144) - https://sketch.com -->
    <title>Group 29</title>
    <desc>Created with Sketch.</desc>
    <defs>
        <linearGradient x1="100%" y1="100%" x2="100%" y2="0%" id="linearGradient-1">
            <stop stop-color="#F55F05" offset="0%"></stop>
            <stop stop-color="#F3B05B" offset="100%"></stop>
        </linearGradient>
    </defs>
    <g id="Amazon-Browser" stroke="none" stroke-width="1" fill="none" fill-rule="evenodd">
        <g id="Group-29" fill-rule="nonzero">
            <g id="whatsAppLogotype-Copy" fill="url(#linearGradient-1)">
                <rect id="Rectangle" x="0" y="0.330935252" width="166" height="74" rx="23.1"></rect>
            </g>
            <path d="M45.592,32.688 L47.656,32.688 L47.656,33.408 L49.064,33.408 L49.064,27.808 L44.184,27.808 L44.184,33.616 L45.592,33.616 L45.592,32.688 Z M47.656,31.344 L45.592,31.344 L45.592,29.152 L47.656,29.152 L47.656,31.344 Z M43.736,20.832 L43.736,22.176 L49.528,22.176 L49.528,20.832 L47.544,20.832 C47.368,20.224 47.112,19.568 46.792,18.832 L45.336,19.232 C45.624,19.744 45.864,20.272 46.088,20.832 L43.736,20.832 Z M44.328,23.2 L44.328,24.512 L48.936,24.512 L48.936,23.2 L44.328,23.2 Z M44.328,25.408 L44.328,26.736 L48.936,26.736 L48.936,25.408 L44.328,25.408 Z M50.04,19.824 L50.04,21.056 L53.288,21.056 L53.288,21.824 L50.584,21.824 L50.584,23.056 L53.288,23.056 L53.288,23.856 L49.64,23.856 L49.64,25.088 L58.28,25.088 L58.28,23.856 L54.616,23.856 L54.616,23.056 L57.432,23.056 L57.432,21.824 L54.616,21.824 L54.616,21.056 L57.928,21.056 L57.928,19.824 L54.616,19.824 L54.616,18.896 L53.288,18.896 L53.288,19.824 L50.04,19.824 Z M56.008,33.568 C56.936,33.568 57.416,33.056 57.416,32.064 L57.416,25.824 L50.52,25.824 L50.52,33.664 L51.864,33.664 L51.864,31.168 L56.088,31.168 L56.088,31.776 C56.088,32.176 55.928,32.384 55.608,32.384 L54.424,32.336 L54.744,33.568 L56.008,33.568 Z M51.864,29.984 L51.864,29.12 L56.088,29.12 L56.088,29.984 L51.864,29.984 Z M51.864,27.904 L51.864,27.056 L56.088,27.056 L56.088,27.904 L51.864,27.904 Z M74.08,20.576 L70.416,20.576 C70.224,19.904 70.016,19.28 69.808,18.72 L68.256,18.976 C68.496,19.456 68.704,20 68.896,20.576 L65.392,20.576 L65.392,23.968 L66.832,23.968 L66.832,21.968 L72.624,21.968 L72.624,23.904 L74.08,23.904 L74.08,20.576 Z M68.224,22.784 C68.032,23.616 67.808,24.416 67.568,25.2 L65.056,25.2 L65.056,26.656 L67.056,26.656 C66.72,27.504 66.352,28.32 65.952,29.088 L67.112704,29.714944 C67.67872,30.0256 68.224,30.3328 68.752,30.64 C67.712,31.344 66.24,31.904 64.352,32.32 L64.96,33.76 C67.328,33.184 69.088,32.432 70.208,31.488 C71.568,32.288 72.704,33.024 73.6,33.696 L74.624,32.496 C73.744,31.888 72.608,31.184 71.2,30.416 C71.968,29.392 72.48,28.144 72.736,26.656 L74.544,26.656 L74.544,25.2 L69.104,25.2 C69.312,24.512 69.52,23.744 69.728,22.912 L68.224,22.784 Z M71.28,26.656 C71.024,27.872 70.544,28.88 69.856,29.68 C69.2,29.328 68.496,28.976 67.744,28.608 C68.032,28.064 68.32,27.408 68.608,26.656 L71.28,26.656 Z M61.76,33.504 C62.784,33.504 63.296,32.976 63.296,31.936 L63.296,27.52 C63.728,27.328 64.176,27.104 64.624,26.88 L64.624,25.344 L63.7398519,25.7872593 C63.5928889,25.8595556 63.4453333,25.9306667 63.296,26 L63.296,23.28 L64.672,23.28 L64.672,21.824 L63.296,21.824 L63.296,18.928 L61.76,18.928 L61.76,21.824 L60.016,21.824 L60.016,23.28 L61.76,23.28 L61.76,26.624 C61.072,26.864 60.384,27.056 59.68,27.216 L60.064,28.736 C60.624,28.56 61.184,28.368 61.76,28.16 L61.76,31.552 C61.76,31.92 61.584,32.112 61.232,32.112 C60.848,32.112 60.464,32.08 60.064,32.032 L60.4,33.504 L61.76,33.504 Z M80.312,19.344 L80.312,30.8 L79.2145185,31.0287407 C79.0284444,31.0684444 78.84,31.1093333 78.648,31.152 L78.648,22.032 L77.16,22.032 L77.16,31.408 L76.3185185,31.5478519 C76.1751111,31.5715556 76.0293333,31.5946667 75.88,31.616 L76.088,33.168 C79.096,32.688 81.768,32.064 84.12,31.296 L84.12,29.76 C83.384,30 82.616,30.224 81.8,30.432 L81.8,25.376 L84.088,25.376 L84.088,23.904 L81.8,23.904 L81.8,19.344 L80.312,19.344 Z M89.848,21.808 C88.76,22.752 87.576,23.536 86.264,24.16 L86.264,19.072 L84.728,19.072 L84.728,31.248 C84.728,32.48 85.32,33.104 86.52,33.104 L88.344,33.104 C89.08,33.104 89.624,32.912 89.976,32.56 C90.36,32.144 90.616,30.912 90.776,28.864 L89.336,28.4 L89.3051073,28.9275017 C89.2212318,30.181481 89.0875294,30.9496471 88.904,31.232 C88.712,31.504 88.44,31.648 88.056,31.648 L87.016,31.648 C86.504,31.648 86.264,31.408 86.264,30.928 L86.264,25.664 C87.944,24.96 89.432,24.08 90.744,23.056 L89.848,21.808 Z M92.432,19.616 L92.432,21.104 L98.416,21.104 L98.416,33.648 L99.936,33.648 L99.936,24.816 C101.28,25.504 102.96,26.512 104.976,27.824 L105.888,26.448 C103.872,25.232 101.888,24.144 99.936,23.2 L99.936,21.104 L106.752,21.104 L106.752,19.616 L92.432,19.616 Z M109.608,19.76 L109.608,20.96 L112.376,20.96 L112.376,21.824 L108.632,21.824 L108.632,23.072 L117.688,23.072 C117.775273,24.7301818 117.941884,26.137124 118.175814,27.3168685 L118.248,27.664 C118.408,28.448 118.584,29.152 118.792,29.792 C118.312,30.528 117.768,31.152 117.16,31.648 L117.16,30.992 L113.784,30.992 L113.784,30.336 L116.664,30.336 L116.664,25.664 L113.784,25.664 L113.784,25.024 L117.176,25.024 L117.176,23.904 L113.784,23.904 L113.784,23.296 L112.376,23.296 L112.376,23.904 L108.968,23.904 L108.968,25.024 L112.376,25.024 L112.376,25.664 L109.56,25.664 L109.56,30.336 L112.376,30.336 L112.376,30.992 L108.776,30.992 L108.776,32.224 L112.376,32.224 L112.376,33.584 L113.784,33.584 L113.784,32.224 L116.76,32.224 L117.416,33.216 C118.152,32.768 118.808,32.144 119.416,31.376 C119.512,31.592 119.617,31.79 119.731,31.97 L119.848,32.144 C120.488,33.104 121.08,33.6 121.64,33.6 C122.328,33.6 122.856,32.432 123.224,30.112 L121.992,29.44 L121.9344,29.905568 C121.7616,31.23008 121.5888,31.904 121.416,31.904 C121.238769,31.904 120.97974,31.5904379 120.66408,30.9633136 L120.584,30.8 C120.472,30.592 120.376,30.352 120.28,30.064 C121.096,28.608 121.752,26.736 122.248,24.464 L120.952,23.904 C120.632,25.472 120.232,26.848 119.72,28.048 C119.677333,27.8773333 119.634667,27.6995556 119.596741,27.5146667 L119.544,27.232 C119.352,26.224 119.208,24.832 119.128,23.072 L122.952,23.072 L122.952,21.824 L119.08,21.824 L119.043648,20.716032 C119.02752,20.14464 119.016,19.5456 119.016,18.912 L117.576,18.912 C117.576,19.936 117.592,20.912 117.624,21.824 L113.848,21.824 L113.848,20.96 L116.52,20.96 L116.52,19.76 L113.848,19.76 L113.848,18.912 L112.376,18.912 L112.376,19.76 L109.608,19.76 Z M120.712,18.944 L119.624,19.632 C120.328,20.416 120.872,21.136 121.288,21.792 L122.376,21.024 C121.992,20.416 121.432,19.728 120.712,18.944 Z M115.368,29.264 L113.704,29.264 L113.704,28.432 L115.368,28.432 L115.368,29.264 Z M112.488,29.264 L110.84,29.264 L110.84,28.432 L112.488,28.432 L112.488,29.264 Z M110.84,27.488 L110.84,26.704 L112.488,26.704 L112.488,27.488 L110.84,27.488 Z M113.704,26.704 L115.368,26.704 L115.368,27.488 L113.704,27.488 L113.704,26.704 Z M43.436,45.504 C42.22,45.504 41.244,45.92 40.54,46.768 C39.804,47.6 39.452,48.624 39.452,49.856 C39.452,51.216 39.836,52.288 40.604,53.088 C41.308,53.84 42.284,54.224 43.5,54.224 C44.604,54.224 45.516,53.904 46.236,53.28 C46.812,52.768 47.18,52.112 47.372,51.344 L45.676,51.344 C45.452,51.824 45.212,52.192 44.924,52.416 C44.556,52.688 44.076,52.832 43.484,52.832 C42.812,52.832 42.284,52.608 41.9,52.192 C41.516,51.76 41.308,51.136 41.244,50.336 L47.516,50.336 C47.5,48.864 47.164,47.712 46.524,46.88 C45.82,45.952 44.78,45.504 43.436,45.504 Z M43.484,46.896 C44.828,46.896 45.58,47.616 45.74,49.056 L41.276,49.056 C41.372,48.352 41.612,47.824 41.964,47.456 C42.348,47.072 42.844,46.896 43.484,46.896 Z M48.644,45.728 L51.508,49.6 L48.276,54 L50.276,54 L52.452,50.848 L54.612,54 L56.596,54 L53.38,49.6 L56.244,45.728 L54.26,45.728 L52.452,48.352 L50.628,45.728 L48.644,45.728 Z M61.516,45.504 C60.236,45.504 59.244,45.936 58.524,46.8 C57.852,47.6 57.516,48.624 57.516,49.872 C57.516,51.152 57.852,52.176 58.54,52.976 C59.244,53.808 60.22,54.224 61.484,54.224 C62.54,54.224 63.404,53.952 64.044,53.424 C64.684,52.88 65.116,52.048 65.308,50.944 L63.628,50.944 C63.468,52.192 62.764,52.832 61.5,52.832 C60.764,52.832 60.22,52.56 59.852,52.048 C59.452,51.52 59.26,50.784 59.26,49.856 C59.26,48.928 59.452,48.192 59.868,47.68 C60.268,47.152 60.812,46.896 61.516,46.896 C62.092,46.896 62.556,47.024 62.908,47.296 C63.26,47.552 63.484,47.968 63.596,48.528 L65.276,48.528 C65.116,47.504 64.7,46.736 64.06,46.224 C63.42,45.744 62.572,45.504 61.516,45.504 Z M70.468,45.504 C69.252,45.504 68.276,45.92 67.572,46.768 C66.836,47.6 66.484,48.624 66.484,49.856 C66.484,51.216 66.868,52.288 67.636,53.088 C68.34,53.84 69.316,54.224 70.532,54.224 C71.636,54.224 72.548,53.904 73.268,53.28 C73.844,52.768 74.212,52.112 74.404,51.344 L72.708,51.344 C72.484,51.824 72.244,52.192 71.956,52.416 C71.588,52.688 71.108,52.832 70.516,52.832 C69.844,52.832 69.316,52.608 68.932,52.192 C68.548,51.76 68.34,51.136 68.276,50.336 L74.548,50.336 C74.532,48.864 74.196,47.712 73.556,46.88 C72.852,45.952 71.812,45.504 70.468,45.504 Z M70.516,46.896 C71.86,46.896 72.612,47.616 72.772,49.056 L68.308,49.056 C68.404,48.352 68.644,47.824 68.996,47.456 C69.38,47.072 69.876,46.896 70.516,46.896 Z M76.38,42.352 L76.38,54 L78.076,54 L78.076,42.352 L76.38,42.352 Z M86.5,41.792 L86.5,43.216 L90.372,43.216 L90.372,53.248 C90.372,53.808 90.148,54.096 89.732,54.096 C89.06,54.096 88.356,54.064 87.62,54 L87.94,55.456 L90.26,55.456 C91.316,55.456 91.844,54.832 91.844,53.616 L91.844,43.216 L94.708,43.216 L94.708,41.792 L86.5,41.792 Z M82.084,54.72 L84.212,54.72 L84.212,55.408 L85.668,55.408 L85.668,49.776 L80.628,49.776 L80.628,55.696 L82.084,55.696 L82.084,54.72 Z M84.212,53.328 L82.084,53.328 L82.084,51.168 L84.212,51.168 L84.212,53.328 Z M80.244,42.8 L80.244,44.208 L86.132,44.208 L86.132,42.8 L84.052,42.8 C83.892,42.208 83.636,41.552 83.316,40.832 L81.844,41.232 C82.132,41.728 82.372,42.256 82.596,42.8 L80.244,42.8 Z M80.756,45.184 L80.756,46.512 L85.492,46.512 L85.492,45.184 L80.756,45.184 Z M80.756,47.392 L80.756,48.752 L85.492,48.752 L85.492,47.392 L80.756,47.392 Z M96.748,41.408 L96.748,51.376 L101.292,51.376 L101.292,41.408 L96.748,41.408 Z M99.932,50.112 L98.124,50.112 L98.124,48.32 L99.932,48.32 L99.932,50.112 Z M98.124,47.104 L98.124,45.424 L99.932,45.424 L99.932,47.104 L98.124,47.104 Z M98.124,44.224 L98.124,42.672 L99.932,42.672 L99.932,44.224 L98.124,44.224 Z M100.332,51.728 L99.276,52.384 C99.884,53.408 100.38,54.352 100.748,55.216 L101.836,54.464 C101.484,53.664 100.972,52.752 100.332,51.728 Z M97.596,51.76 C97.244,52.784 96.78,53.808 96.172,54.848 L97.34,55.456 C97.916,54.432 98.38,53.376 98.732,52.304 L97.596,51.76 Z M103.868,40.88 L103.868,41.968 L102.06,41.968 L102.06,43.152 L103.868,43.152 L103.868,43.984 L102.38,43.984 L102.38,45.12 L103.868,45.12 L103.868,45.968 L101.74,45.968 L101.74,47.152 L105.596,47.152 L105.596,47.92 L102.476,47.92 L102.476,51.904 L101.58,51.904 L101.58,53.136 L102.476,53.136 L102.476,55.6 L103.852,55.6 L103.852,53.136 L108.78,53.136 L108.78,54.048 C108.78,54.272 108.62,54.4 108.316,54.4 L107.132,54.352 L107.452,55.584 L108.716,55.584 C109.676,55.584 110.156,55.168 110.156,54.352 L110.156,53.136 L110.972,53.136 L110.972,51.904 L110.156,51.904 L110.156,47.92 L107.004,47.92 L107.004,47.152 L110.924,47.152 L110.924,45.968 L108.812,45.968 L108.812,45.12 L110.3,45.12 L110.3,43.984 L108.812,43.984 L108.812,43.152 L110.604,43.152 L110.604,41.968 L108.812,41.968 L108.812,40.88 L107.404,40.88 L107.404,41.968 L105.26,41.968 L105.26,40.88 L103.868,40.88 Z M103.852,51.904 L103.852,50.976 L105.596,50.976 L105.596,51.904 L103.852,51.904 Z M107.004,51.904 L107.004,50.976 L108.78,50.976 L108.78,51.904 L107.004,51.904 Z M105.26,45.968 L105.26,45.12 L107.404,45.12 L107.404,45.968 L105.26,45.968 Z M105.26,43.984 L105.26,43.152 L107.404,43.152 L107.404,43.984 L105.26,43.984 Z M108.78,49.952 L107.004,49.952 L107.004,49.04 L108.78,49.04 L108.78,49.952 Z M105.596,49.04 L105.596,49.952 L103.852,49.952 L103.852,49.04 L105.596,49.04 Z M113.412,42.144 L113.412,43.552 L119.06,43.552 L119.06,44.72 L114.34,44.72 L114.34,46.128 L119.06,46.128 L119.06,47.328 L113.044,47.328 L113.044,48.72 L117.732,48.72 C116.58,49.936 114.82,50.96 112.42,51.76 L113.236,53.088 C114.196,52.688 115.06,52.256 115.844,51.792 L115.844,53.808 C115.844,54.048 115.716,54.24 115.476,54.368 L115.972,55.664 C117.652,55.232 119.3,54.688 120.932,54.016 L120.644,52.624 C119.54,53.088 118.436,53.488 117.332,53.84 L117.332,50.784 C118.132,50.144 118.804,49.456 119.348,48.72 L126.612,48.72 L126.612,47.328 L120.596,47.328 L120.596,46.128 L125.316,46.128 L125.316,44.72 L120.596,44.72 L120.596,43.552 L126.244,43.552 L126.244,42.144 L120.596,42.144 L120.596,40.912 L119.06,40.912 L119.06,42.144 L113.412,42.144 Z M125.028,49.28 L126.084,50.304 C125.284,51.104 124.372,51.728 123.364,52.176 C124.404,53.136 125.7,53.856 127.236,54.336 L126.324,55.648 C123.492,54.64 121.476,52.768 120.26,50.032 L121.412,49.376 C121.7,50.048 122.068,50.672 122.484,51.216 C123.38,50.8 124.228,50.144 125.028,49.28 Z" id="請按此下載excel訂購表" fill="#FFFFFF"></path>
        </g>
    </g>
</svg>