<?xml version="1.0" encoding="UTF-8"?>
<svg xmlns="http://www.w3.org/2000/svg" xmlns:xlink="http://www.w3.org/1999/xlink" width="2000" height="2000" viewBox="0 0 2000 2000">
<defs>
<clipPath id="clip-0">
<path clip-rule="nonzero" d="M 350 661 L 1114 661 L 1114 1486 L 350 1486 Z M 350 661 "/>
</clipPath>
<clipPath id="clip-1">
<path clip-rule="nonzero" d="M 1113.621094 813.441406 C 1089.511719 833.609375 1059.949219 848.808594 1027.261719 856 C 1010.960938 860.101562 994.054688 860.921875 977.074219 861.140625 L 964.425781 860.46875 L 958.066406 860.070312 L 951.8125 859.269531 L 939.246094 857.601562 C 935.09375 856.929688 931.023438 856.039062 926.890625 855.261719 C 910.359375 852.03125 894.53125 847.140625 878.863281 842.078125 C 863.390625 836.800781 848.222656 830.800781 833.5625 824.648438 C 818.726562 818.578125 804.519531 812.070312 790.359375 805.730469 C 776.328125 799.429688 762.328125 793.339844 748.765625 787.511719 C 721.511719 775.949219 694.789062 766.160156 669.335938 761.03125 C 656.546875 758.058594 644.183594 757.441406 632.105469 756.710938 L 623.175781 757 L 618.726562 757.101562 C 617.25 757.160156 615.804688 757.449219 614.34375 757.609375 L 605.625 758.570312 C 602.722656 758.878906 599.898438 759.761719 597.035156 760.28125 C 594.195312 760.980469 591.304688 761.21875 588.503906 762.21875 C 585.699219 763.140625 582.890625 764.011719 580.074219 764.839844 L 575.847656 766.070312 L 571.691406 767.820312 L 563.363281 771.21875 C 560.496094 772.179688 558.050781 773.859375 555.390625 775.160156 L 547.492188 779.140625 L 540.113281 783.921875 C 537.703125 785.570312 535.027344 786.828125 532.847656 788.808594 C 514.070312 802.660156 498.214844 820.421875 485.699219 841.359375 C 473.042969 862.199219 464.113281 886.378906 458.242188 911.960938 C 452.308594 937.558594 449.597656 964.671875 449.328125 992.300781 C 449.328125 1047.691406 458.8125 1104.828125 475.402344 1160.839844 L 478.464844 1171.378906 L 481.898438 1181.828125 C 484.214844 1188.800781 486.34375 1195.859375 488.8125 1202.808594 C 494.003906 1216.621094 498.992188 1230.578125 504.769531 1244.308594 C 515.847656 1271.96875 528.75 1299.109375 542.417969 1326.128906 C 549.429688 1339.539062 556.3125 1353.128906 563.96875 1366.320312 C 567.699219 1372.96875 571.339844 1379.71875 575.183594 1386.359375 C 579.179688 1392.871094 583.0625 1399.511719 586.980469 1406.148438 L 592.863281 1416.109375 C 594.855469 1419.421875 597 1422.621094 599.011719 1425.921875 L 611.335938 1445.660156 C 619.550781 1458.890625 628.421875 1471.671875 636.644531 1485.191406 C 535.984375 1410.160156 451.839844 1308.980469 399.085938 1188.75 C 395.960938 1181.171875 392.480469 1173.71875 389.652344 1165.980469 L 381.007812 1142.78125 C 375.921875 1127.03125 370.832031 1111.230469 366.945312 1094.960938 C 358.664062 1062.601562 353.097656 1029.140625 351.253906 994.890625 C 349.519531 960.640625 351.457031 925.601562 358.410156 890.621094 C 359.046875 886.238281 360.359375 881.898438 361.386719 877.539062 L 364.6875 864.480469 C 367.101562 855.800781 370.199219 847.191406 373.007812 838.558594 C 376.398438 830.050781 379.980469 821.558594 383.730469 813.148438 L 390.128906 800.738281 C 392.347656 796.640625 394.257812 792.421875 396.914062 788.5 L 404.488281 776.589844 C 405.78125 774.621094 406.992188 772.609375 408.359375 770.679688 L 412.664062 765.011719 L 421.355469 753.710938 C 424.257812 749.949219 427.695312 746.550781 430.894531 743 C 434.199219 739.53125 437.335938 735.921875 440.824219 732.621094 L 451.570312 722.96875 L 456.980469 718.199219 C 458.796875 716.621094 460.808594 715.269531 462.71875 713.800781 L 474.402344 705.269531 C 478.214844 702.308594 482.535156 700.121094 486.621094 697.578125 L 499.082031 690.289062 C 507.753906 686.261719 516.320312 681.800781 525.222656 678.488281 L 538.632812 673.730469 L 545.34375 671.410156 L 552.324219 669.601562 L 566.304688 666.160156 C 570.941406 664.980469 575.820312 664.570312 580.566406 663.78125 C 599.632812 660.519531 619.074219 660.800781 637.988281 662.058594 C 656.707031 664.171875 675.164062 667.601562 692.199219 673.101562 C 709.503906 678.210938 725.617188 684.769531 741.097656 691.878906 C 756.324219 699.25 771.109375 706.96875 785.027344 715.101562 C 799.183594 723.058594 812.449219 731.628906 825.722656 739.921875 L 864.550781 764.539062 C 890.148438 780.511719 915.363281 795.691406 941.710938 806.949219 C 954.816406 813.101562 968.296875 817.191406 982.0625 821.199219 C 995.839844 824.390625 1010.039062 827.089844 1024.519531 827.480469 C 1053.53125 828.890625 1083.820312 823.648438 1113.621094 813.441406 Z M 1113.621094 813.441406 "/>
</clipPath>
<clipPath id="clip-2">
<path clip-rule="nonzero" d="M 1113.621094 813.441406 C 1089.511719 833.609375 1059.949219 848.808594 1027.261719 856 C 1010.960938 860.101562 994.054688 860.921875 977.074219 861.140625 L 964.425781 860.46875 L 958.066406 860.070312 L 951.8125 859.269531 L 939.246094 857.601562 C 935.09375 856.929688 931.023438 856.039062 926.890625 855.261719 C 910.359375 852.03125 894.53125 847.140625 878.863281 842.078125 C 863.390625 836.800781 848.222656 830.800781 833.5625 824.648438 C 818.726562 818.578125 804.519531 812.070312 790.359375 805.730469 C 776.328125 799.429688 762.328125 793.339844 748.765625 787.511719 C 721.511719 775.949219 694.789062 766.160156 669.335938 761.03125 C 656.546875 758.058594 644.183594 757.441406 632.105469 756.710938 L 623.175781 757 L 618.726562 757.101562 C 617.25 757.160156 615.804688 757.449219 614.34375 757.609375 L 605.625 758.570312 C 602.722656 758.878906 599.898438 759.761719 597.035156 760.28125 C 594.195312 760.980469 591.304688 761.21875 588.503906 762.21875 C 585.699219 763.140625 582.890625 764.011719 580.074219 764.839844 L 575.847656 766.070312 L 571.691406 767.820312 L 563.363281 771.21875 C 560.496094 772.179688 558.050781 773.859375 555.390625 775.160156 L 547.492188 779.140625 L 540.113281 783.921875 C 537.703125 785.570312 535.027344 786.828125 532.847656 788.808594 C 514.070312 802.660156 498.214844 820.421875 485.699219 841.359375 C 473.042969 862.199219 464.113281 886.378906 458.242188 911.960938 C 452.308594 937.558594 449.597656 964.671875 449.328125 992.300781 C 449.328125 1047.691406 458.8125 1104.828125 475.402344 1160.839844 L 478.464844 1171.378906 L 481.898438 1181.828125 C 484.214844 1188.800781 486.34375 1195.859375 488.8125 1202.808594 C 494.003906 1216.621094 498.992188 1230.578125 504.769531 1244.308594 C 515.847656 1271.96875 528.75 1299.109375 542.417969 1326.128906 C 549.429688 1339.539062 556.3125 1353.128906 563.96875 1366.320312 C 567.699219 1372.96875 571.339844 1379.71875 575.183594 1386.359375 C 579.179688 1392.871094 583.0625 1399.511719 586.980469 1406.148438 L 592.863281 1416.109375 C 594.855469 1419.421875 597 1422.621094 599.011719 1425.921875 L 611.335938 1445.660156 C 619.550781 1458.890625 628.421875 1471.671875 636.644531 1485.191406 C 535.984375 1410.160156 451.839844 1308.980469 399.085938 1188.75 C 395.960938 1181.171875 392.480469 1173.71875 389.652344 1165.980469 L 381.007812 1142.78125 C 375.921875 1127.03125 370.832031 1111.230469 366.945312 1094.960938 C 358.664062 1062.601562 353.097656 1029.140625 351.253906 994.890625 C 349.519531 960.640625 351.457031 925.601562 358.410156 890.621094 C 359.046875 886.238281 360.359375 881.898438 361.386719 877.539062 L 364.6875 864.480469 C 367.101562 855.800781 370.199219 847.191406 373.007812 838.558594 C 376.398438 830.050781 379.980469 821.558594 383.730469 813.148438 L 390.128906 800.738281 C 392.347656 796.640625 394.257812 792.421875 396.914062 788.5 L 404.488281 776.589844 C 405.78125 774.621094 406.992188 772.609375 408.359375 770.679688 L 412.664062 765.011719 L 421.355469 753.710938 C 424.257812 749.949219 427.695312 746.550781 430.894531 743 C 434.199219 739.53125 437.335938 735.921875 440.824219 732.621094 L 451.570312 722.96875 L 456.980469 718.199219 C 458.796875 716.621094 460.808594 715.269531 462.71875 713.800781 L 474.402344 705.269531 C 478.214844 702.308594 482.535156 700.121094 486.621094 697.578125 L 499.082031 690.289062 C 507.753906 686.261719 516.320312 681.800781 525.222656 678.488281 L 538.632812 673.730469 L 545.34375 671.410156 L 552.324219 669.601562 L 566.304688 666.160156 C 570.941406 664.980469 575.820312 664.570312 580.566406 663.78125 C 599.632812 660.519531 619.074219 660.800781 637.988281 662.058594 C 656.707031 664.171875 675.164062 667.601562 692.199219 673.101562 C 709.503906 678.210938 725.617188 684.769531 741.097656 691.878906 C 756.324219 699.25 771.109375 706.96875 785.027344 715.101562 C 799.183594 723.058594 812.449219 731.628906 825.722656 739.921875 L 864.550781 764.539062 C 890.148438 780.511719 915.363281 795.691406 941.710938 806.949219 C 954.816406 813.101562 968.296875 817.191406 982.0625 821.199219 C 995.839844 824.390625 1010.039062 827.089844 1024.519531 827.480469 C 1053.53125 828.890625 1083.820312 823.648438 1113.621094 813.441406 "/>
</clipPath>
<linearGradient id="linear-pattern-0" gradientUnits="userSpaceOnUse" x1="-0.361639" y1="0" x2="1.390618" y2="0" gradientTransform="matrix(172.046, -552.803, 552.803, 172.046, 583.558, 1338.75)">
<stop offset="0" stop-color="rgb(71.37146%, 0%, 17.64679%)" stop-opacity="1"/>
<stop offset="0.125" stop-color="rgb(71.37146%, 0%, 17.64679%)" stop-opacity="1"/>
<stop offset="0.1875" stop-color="rgb(71.37146%, 0%, 17.64679%)" stop-opacity="1"/>
<stop offset="0.203125" stop-color="rgb(71.37146%, 0%, 17.64679%)" stop-opacity="1"/>
<stop offset="0.210938" stop-color="rgb(71.452332%, 0.050354%, 17.666626%)" stop-opacity="1"/>
<stop offset="0.21875" stop-color="rgb(71.673584%, 0.190735%, 17.721558%)" stop-opacity="1"/>
<stop offset="0.226562" stop-color="rgb(71.95282%, 0.367737%, 17.791748%)" stop-opacity="1"/>
<stop offset="0.234375" stop-color="rgb(72.232056%, 0.544739%, 17.861938%)" stop-opacity="1"/>
<stop offset="0.242188" stop-color="rgb(72.511292%, 0.721741%, 17.930603%)" stop-opacity="1"/>
<stop offset="0.25" stop-color="rgb(72.790527%, 0.900269%, 18.000793%)" stop-opacity="1"/>
<stop offset="0.257812" stop-color="rgb(73.069763%, 1.077271%, 18.070984%)" stop-opacity="1"/>
<stop offset="0.265625" stop-color="rgb(73.348999%, 1.254272%, 18.141174%)" stop-opacity="1"/>
<stop offset="0.273438" stop-color="rgb(73.628235%, 1.431274%, 18.209839%)" stop-opacity="1"/>
<stop offset="0.28125" stop-color="rgb(73.905945%, 1.608276%, 18.280029%)" stop-opacity="1"/>
<stop offset="0.289063" stop-color="rgb(74.185181%, 1.785278%, 18.35022%)" stop-opacity="1"/>
<stop offset="0.296875" stop-color="rgb(74.464417%, 1.96228%, 18.418884%)" stop-opacity="1"/>
<stop offset="0.304688" stop-color="rgb(74.743652%, 2.139282%, 18.489075%)" stop-opacity="1"/>
<stop offset="0.3125" stop-color="rgb(75.022888%, 2.316284%, 18.559265%)" stop-opacity="1"/>
<stop offset="0.320312" stop-color="rgb(75.302124%, 2.493286%, 18.629456%)" stop-opacity="1"/>
<stop offset="0.328125" stop-color="rgb(75.58136%, 2.671814%, 18.69812%)" stop-opacity="1"/>
<stop offset="0.335938" stop-color="rgb(75.860596%, 2.848816%, 18.768311%)" stop-opacity="1"/>
<stop offset="0.34375" stop-color="rgb(76.139832%, 3.025818%, 18.838501%)" stop-opacity="1"/>
<stop offset="0.351562" stop-color="rgb(76.419067%, 3.20282%, 18.908691%)" stop-opacity="1"/>
<stop offset="0.359375" stop-color="rgb(76.698303%, 3.379822%, 18.977356%)" stop-opacity="1"/>
<stop offset="0.367188" stop-color="rgb(76.977539%, 3.556824%, 19.047546%)" stop-opacity="1"/>
<stop offset="0.375" stop-color="rgb(77.256775%, 3.733826%, 19.117737%)" stop-opacity="1"/>
<stop offset="0.382812" stop-color="rgb(77.536011%, 3.910828%, 19.187927%)" stop-opacity="1"/>
<stop offset="0.390625" stop-color="rgb(77.815247%, 4.08783%, 19.256592%)" stop-opacity="1"/>
<stop offset="0.398438" stop-color="rgb(78.094482%, 4.266357%, 19.326782%)" stop-opacity="1"/>
<stop offset="0.40625" stop-color="rgb(78.373718%, 4.443359%, 19.396973%)" stop-opacity="1"/>
<stop offset="0.414062" stop-color="rgb(78.652954%, 4.620361%, 19.467163%)" stop-opacity="1"/>
<stop offset="0.421875" stop-color="rgb(78.93219%, 4.797363%, 19.535828%)" stop-opacity="1"/>
<stop offset="0.429687" stop-color="rgb(79.2099%, 4.974365%, 19.606018%)" stop-opacity="1"/>
<stop offset="0.4375" stop-color="rgb(79.489136%, 5.151367%, 19.676208%)" stop-opacity="1"/>
<stop offset="0.445313" stop-color="rgb(79.768372%, 5.328369%, 19.744873%)" stop-opacity="1"/>
<stop offset="0.453125" stop-color="rgb(80.047607%, 5.505371%, 19.815063%)" stop-opacity="1"/>
<stop offset="0.460938" stop-color="rgb(80.326843%, 5.682373%, 19.885254%)" stop-opacity="1"/>
<stop offset="0.46875" stop-color="rgb(80.606079%, 5.859375%, 19.955444%)" stop-opacity="1"/>
<stop offset="0.476562" stop-color="rgb(80.885315%, 6.037903%, 20.024109%)" stop-opacity="1"/>
<stop offset="0.484375" stop-color="rgb(81.164551%, 6.214905%, 20.094299%)" stop-opacity="1"/>
<stop offset="0.492188" stop-color="rgb(81.443787%, 6.391907%, 20.16449%)" stop-opacity="1"/>
<stop offset="0.5" stop-color="rgb(81.723022%, 6.568909%, 20.23468%)" stop-opacity="1"/>
<stop offset="0.507812" stop-color="rgb(82.002258%, 6.745911%, 20.303345%)" stop-opacity="1"/>
<stop offset="0.515625" stop-color="rgb(82.281494%, 6.922913%, 20.373535%)" stop-opacity="1"/>
<stop offset="0.523438" stop-color="rgb(82.56073%, 7.099915%, 20.443726%)" stop-opacity="1"/>
<stop offset="0.53125" stop-color="rgb(82.839966%, 7.276917%, 20.513916%)" stop-opacity="1"/>
<stop offset="0.539062" stop-color="rgb(83.119202%, 7.453918%, 20.582581%)" stop-opacity="1"/>
<stop offset="0.546875" stop-color="rgb(83.398438%, 7.63092%, 20.652771%)" stop-opacity="1"/>
<stop offset="0.554688" stop-color="rgb(83.677673%, 7.809448%, 20.722961%)" stop-opacity="1"/>
<stop offset="0.5625" stop-color="rgb(83.956909%, 7.98645%, 20.793152%)" stop-opacity="1"/>
<stop offset="0.570312" stop-color="rgb(84.236145%, 8.163452%, 20.861816%)" stop-opacity="1"/>
<stop offset="0.578125" stop-color="rgb(84.515381%, 8.340454%, 20.932007%)" stop-opacity="1"/>
<stop offset="0.585938" stop-color="rgb(84.793091%, 8.517456%, 21.002197%)" stop-opacity="1"/>
<stop offset="0.59375" stop-color="rgb(85.072327%, 8.694458%, 21.070862%)" stop-opacity="1"/>
<stop offset="0.601563" stop-color="rgb(85.351562%, 8.87146%, 21.141052%)" stop-opacity="1"/>
<stop offset="0.609375" stop-color="rgb(85.630798%, 9.048462%, 21.211243%)" stop-opacity="1"/>
<stop offset="0.617188" stop-color="rgb(85.910034%, 9.225464%, 21.281433%)" stop-opacity="1"/>
<stop offset="0.625" stop-color="rgb(86.18927%, 9.403992%, 21.350098%)" stop-opacity="1"/>
<stop offset="0.632813" stop-color="rgb(86.468506%, 9.580994%, 21.420288%)" stop-opacity="1"/>
<stop offset="0.640625" stop-color="rgb(86.747742%, 9.757996%, 21.490479%)" stop-opacity="1"/>
<stop offset="0.648438" stop-color="rgb(87.026978%, 9.934998%, 21.560669%)" stop-opacity="1"/>
<stop offset="0.65625" stop-color="rgb(87.306213%, 10.112%, 21.629333%)" stop-opacity="1"/>
<stop offset="0.664062" stop-color="rgb(87.585449%, 10.289001%, 21.699524%)" stop-opacity="1"/>
<stop offset="0.671875" stop-color="rgb(87.864685%, 10.466003%, 21.769714%)" stop-opacity="1"/>
<stop offset="0.679688" stop-color="rgb(88.143921%, 10.643005%, 21.839905%)" stop-opacity="1"/>
<stop offset="0.6875" stop-color="rgb(88.423157%, 10.820007%, 21.908569%)" stop-opacity="1"/>
<stop offset="0.695312" stop-color="rgb(88.702393%, 10.997009%, 21.97876%)" stop-opacity="1"/>
<stop offset="0.703125" stop-color="rgb(88.981628%, 11.175537%, 22.04895%)" stop-opacity="1"/>
<stop offset="0.710938" stop-color="rgb(89.260864%, 11.352539%, 22.119141%)" stop-opacity="1"/>
<stop offset="0.71875" stop-color="rgb(89.5401%, 11.529541%, 22.187805%)" stop-opacity="1"/>
<stop offset="0.726562" stop-color="rgb(89.819336%, 11.706543%, 22.257996%)" stop-opacity="1"/>
<stop offset="0.734375" stop-color="rgb(90.097046%, 11.883545%, 22.328186%)" stop-opacity="1"/>
<stop offset="0.742188" stop-color="rgb(90.376282%, 12.060547%, 22.396851%)" stop-opacity="1"/>
<stop offset="0.75" stop-color="rgb(90.655518%, 12.237549%, 22.467041%)" stop-opacity="1"/>
<stop offset="0.757813" stop-color="rgb(90.934753%, 12.414551%, 22.537231%)" stop-opacity="1"/>
<stop offset="0.765625" stop-color="rgb(91.213989%, 12.591553%, 22.607422%)" stop-opacity="1"/>
<stop offset="0.773438" stop-color="rgb(91.493225%, 12.768555%, 22.676086%)" stop-opacity="1"/>
<stop offset="0.78125" stop-color="rgb(91.697693%, 12.89978%, 22.727966%)" stop-opacity="1"/>
<stop offset="0.8125" stop-color="rgb(91.763306%, 12.940979%, 22.744751%)" stop-opacity="1"/>
<stop offset="0.875" stop-color="rgb(91.763306%, 12.940979%, 22.744751%)" stop-opacity="1"/>
<stop offset="1" stop-color="rgb(91.763306%, 12.940979%, 22.744751%)" stop-opacity="1"/>
</linearGradient>
<clipPath id="clip-3">
<path clip-rule="nonzero" d="M 447 550 L 1651 550 L 1651 1750 L 447 1750 Z M 447 550 "/>
</clipPath>
<clipPath id="clip-4">
<path clip-rule="nonzero" d="M 1650.421875 930.980469 C 1649.589844 998.75 1638.421875 1064.179688 1621.960938 1127.261719 C 1605.230469 1190.300781 1583.210938 1251.148438 1557.488281 1310.101562 C 1531.5 1368.96875 1501.71875 1425.878906 1468.421875 1480.820312 C 1451.800781 1508.28125 1433.921875 1535.070312 1415.070312 1561.308594 C 1396.148438 1587.5 1376.28125 1613.140625 1354.539062 1637.820312 C 1332.789062 1662.511719 1309.339844 1686.160156 1281.71875 1707.859375 C 1267.769531 1718.628906 1252.820312 1729 1234.300781 1737.628906 L 1227.058594 1740.730469 C 1224.640625 1741.71875 1222.25 1742.71875 1219.46875 1743.550781 L 1211.359375 1746.101562 C 1208.660156 1746.890625 1205.441406 1747.449219 1202.5 1748.039062 C 1196.820312 1749.398438 1189.378906 1749.671875 1182.980469 1749.910156 L 1169.550781 1749.320312 C 1151.578125 1748.121094 1133.261719 1745.140625 1115.171875 1739.820312 C 1097.128906 1734.449219 1079.480469 1726.460938 1063.460938 1716.398438 C 1047.441406 1706.308594 1033.210938 1694.230469 1021.089844 1681.980469 C 1008.851562 1669.820312 998.394531 1657.460938 989.132812 1647.878906 C 984.519531 1643.109375 980.226562 1639.171875 976.648438 1636.589844 C 972.992188 1633.96875 970.410156 1632.699219 967.828125 1631.980469 C 967.191406 1631.78125 966.554688 1631.578125 965.800781 1631.539062 C 965.441406 1631.5 965.085938 1631.460938 964.726562 1631.378906 C 964.328125 1631.300781 963.730469 1631.339844 963.253906 1631.339844 C 962.222656 1631.300781 961.1875 1631.261719 960.113281 1631.378906 C 959.082031 1631.421875 958.007812 1631.460938 956.9375 1631.699219 C 952.5625 1632.339844 947.792969 1633.769531 942.546875 1636.03125 C 932.09375 1640.601562 920.40625 1648.46875 907.964844 1657.21875 C 895.484375 1665.960938 882.25 1675.660156 867.304688 1684.53125 C 859.871094 1688.898438 852.039062 1693.109375 843.773438 1696.808594 C 835.464844 1700.46875 826.71875 1703.609375 817.695312 1706.03125 C 808.714844 1708.5 799.332031 1709.96875 790.03125 1710.679688 L 783.035156 1711.078125 L 776.082031 1711.039062 C 773.855469 1711.078125 771.152344 1710.839844 768.609375 1710.679688 C 766.023438 1710.558594 763.558594 1710.128906 761.054688 1709.769531 C 741.261719 1706.550781 724.488281 1698.921875 709.582031 1690.210938 C 694.558594 1681.46875 681.242188 1671.371094 668.761719 1660.761719 C 619.355469 1617.710938 580.835938 1567.589844 544.746094 1516.269531 C 526.9375 1490.480469 509.886719 1464.238281 493.828125 1437.449219 C 477.730469 1410.699219 462.109375 1383.710938 447.839844 1356.011719 C 484.171875 1406.570312 522.527344 1455.460938 562.988281 1502.121094 C 583.183594 1525.410156 604.050781 1548.070312 625.871094 1569.421875 C 647.574219 1590.800781 670.269531 1611.070312 694.277344 1628.039062 C 706.28125 1636.46875 718.566406 1644.261719 731.007812 1650.101562 C 743.367188 1656.070312 756.007812 1660.039062 767.097656 1660.761719 C 768.449219 1660.800781 769.839844 1660.960938 771.152344 1660.839844 C 772.503906 1660.800781 773.65625 1660.878906 775.324219 1660.679688 L 779.976562 1660.28125 L 784.585938 1659.601562 C 790.707031 1658.570312 796.710938 1657.261719 802.554688 1655.109375 C 814.277344 1651.019531 825.566406 1644.738281 836.816406 1636.789062 C 848.105469 1628.960938 859.355469 1619.421875 871.597656 1609.398438 C 883.839844 1599.390625 897.234375 1588.53125 914.644531 1579.269531 C 923.308594 1574.699219 933.207031 1570.648438 944.097656 1568.179688 C 946.761719 1567.511719 949.542969 1567.070312 952.363281 1566.671875 C 955.144531 1566.199219 958.007812 1566 960.871094 1565.839844 C 962.300781 1565.761719 963.652344 1565.601562 965.203125 1565.640625 L 969.933594 1565.761719 C 973.074219 1565.800781 976.253906 1566.199219 979.433594 1566.710938 C 992.191406 1568.621094 1004.078125 1573.789062 1013.460938 1579.589844 C 1022.921875 1585.429688 1030.390625 1591.75 1036.988281 1597.71875 C 1050.148438 1609.679688 1060.359375 1620.570312 1070.730469 1629.710938 C 1081.03125 1638.941406 1091.171875 1646.410156 1101.820312 1652.328125 C 1112.511719 1658.128906 1123.640625 1662.46875 1135.558594 1665.289062 C 1147.488281 1668.070312 1160.089844 1669.378906 1173.171875 1669.621094 L 1183.019531 1669.621094 C 1184.328125 1669.140625 1184.769531 1669.5 1186.640625 1668.789062 C 1187.441406 1668.511719 1188.070312 1668.550781 1189.070312 1668.148438 C 1190.058594 1667.710938 1191.050781 1667.359375 1192.050781 1666.960938 C 1193 1666.71875 1194.109375 1666.121094 1195.269531 1665.570312 L 1198.679688 1663.941406 C 1208.140625 1658.96875 1218.761719 1651.300781 1228.929688 1642.550781 C 1239.148438 1633.769531 1249.199219 1623.910156 1258.980469 1613.578125 C 1268.679688 1603 1278.21875 1592.109375 1287.519531 1580.78125 C 1324.570312 1535.351562 1357.320312 1484.789062 1387.171875 1432.800781 C 1416.980469 1380.691406 1443.449219 1326.511719 1466.429688 1271.140625 C 1489.558594 1215.890625 1509 1159.210938 1523.269531 1101.898438 C 1537.578125 1044.699219 1547.121094 986.671875 1547.359375 930.058594 C 1547.511719 901.839844 1545.289062 874.058594 1540.558594 847.46875 C 1535.710938 820.839844 1527.519531 795.71875 1516.230469 772.738281 C 1505.261719 749.648438 1490.238281 729.300781 1472.351562 711.488281 C 1470.238281 709.140625 1467.699219 707.199219 1465.359375 705.050781 L 1458.238281 698.769531 L 1450.648438 692.890625 C 1448.101562 690.898438 1445.761719 688.871094 1442.820312 686.960938 C 1431.769531 678.941406 1420.28125 672.058594 1408.628906 665.820312 C 1397.03125 659.5 1385.058594 654.570312 1373.058594 650.398438 C 1361.019531 646.21875 1348.769531 643.160156 1336.410156 641.371094 C 1324.050781 639.578125 1311.488281 639.070312 1298.890625 639.820312 C 1286.25 640.5 1273.488281 642.371094 1260.730469 645.511719 C 1247.96875 648.648438 1235.210938 652.941406 1222.570312 658.269531 C 1209.929688 663.511719 1197.289062 669.628906 1184.890625 676.628906 C 1172.488281 683.589844 1160.289062 691.300781 1148.238281 699.609375 C 1136.121094 707.789062 1124.199219 716.539062 1112.46875 725.800781 C 1087.871094 745.160156 1063.941406 766.058594 1040.289062 787.851562 C 1038.140625 787.929688 1035.988281 787.960938 1033.890625 787.960938 C 1031.378906 787.960938 1028.921875 787.890625 1026.460938 787.769531 L 1025.578125 787.769531 C 1014.210938 787.449219 1002.328125 785.058594 992.113281 782.71875 C 988.136719 781.570312 984.320312 780.449219 980.625 779.261719 C 1007.96875 744.160156 1036.828125 709.660156 1069.300781 677.269531 C 1080.75 665.820312 1092.679688 654.648438 1105.160156 643.878906 C 1117.679688 633.148438 1130.828125 622.890625 1144.628906 613.148438 C 1158.460938 603.488281 1172.929688 594.351562 1188.308594 586.238281 C 1203.730469 578.171875 1219.949219 571.101562 1237 565.371094 C 1254.011719 559.648438 1271.820312 555.320312 1290.109375 552.890625 C 1308.390625 550.550781 1327.070312 550.03125 1345.589844 551.460938 C 1382.71875 554.25 1418.769531 564.621094 1451.011719 580 C 1467.101562 587.710938 1482.71875 596.179688 1497.308594 605.71875 C 1500.96875 607.910156 1504.75 610.691406 1508.480469 613.269531 L 1519.648438 621.21875 L 1530.261719 630.011719 C 1533.761719 632.988281 1537.378906 635.808594 1540.640625 639.070312 C 1567.628906 664.148438 1590.71875 694.078125 1607.378906 726.589844 C 1623.910156 759.230469 1635.121094 793.730469 1641.761719 828.148438 C 1648.480469 862.609375 1650.738281 897.109375 1650.421875 930.980469 Z M 1650.421875 930.980469 "/>
</clipPath>
<clipPath id="clip-5">
<path clip-rule="nonzero" d="M 1650.421875 930.980469 C 1649.589844 998.75 1638.421875 1064.179688 1621.960938 1127.261719 C 1605.230469 1190.300781 1583.210938 1251.148438 1557.488281 1310.101562 C 1531.5 1368.96875 1501.71875 1425.878906 1468.421875 1480.820312 C 1451.800781 1508.28125 1433.921875 1535.070312 1415.070312 1561.308594 C 1396.148438 1587.5 1376.28125 1613.140625 1354.539062 1637.820312 C 1332.789062 1662.511719 1309.339844 1686.160156 1281.71875 1707.859375 C 1267.769531 1718.628906 1252.820312 1729 1234.300781 1737.628906 L 1227.058594 1740.730469 C 1224.640625 1741.71875 1222.25 1742.71875 1219.46875 1743.550781 L 1211.359375 1746.101562 C 1208.660156 1746.890625 1205.441406 1747.449219 1202.5 1748.039062 C 1196.820312 1749.398438 1189.378906 1749.671875 1182.980469 1749.910156 L 1169.550781 1749.320312 C 1151.578125 1748.121094 1133.261719 1745.140625 1115.171875 1739.820312 C 1097.128906 1734.449219 1079.480469 1726.460938 1063.460938 1716.398438 C 1047.441406 1706.308594 1033.210938 1694.230469 1021.089844 1681.980469 C 1008.851562 1669.820312 998.394531 1657.460938 989.132812 1647.878906 C 984.519531 1643.109375 980.226562 1639.171875 976.648438 1636.589844 C 972.992188 1633.96875 970.410156 1632.699219 967.828125 1631.980469 C 967.191406 1631.78125 966.554688 1631.578125 965.800781 1631.539062 C 965.441406 1631.5 965.085938 1631.460938 964.726562 1631.378906 C 964.328125 1631.300781 963.730469 1631.339844 963.253906 1631.339844 C 962.222656 1631.300781 961.1875 1631.261719 960.113281 1631.378906 C 959.082031 1631.421875 958.007812 1631.460938 956.9375 1631.699219 C 952.5625 1632.339844 947.792969 1633.769531 942.546875 1636.03125 C 932.09375 1640.601562 920.40625 1648.46875 907.964844 1657.21875 C 895.484375 1665.960938 882.25 1675.660156 867.304688 1684.53125 C 859.871094 1688.898438 852.039062 1693.109375 843.773438 1696.808594 C 835.464844 1700.46875 826.71875 1703.609375 817.695312 1706.03125 C 808.714844 1708.5 799.332031 1709.96875 790.03125 1710.679688 L 783.035156 1711.078125 L 776.082031 1711.039062 C 773.855469 1711.078125 771.152344 1710.839844 768.609375 1710.679688 C 766.023438 1710.558594 763.558594 1710.128906 761.054688 1709.769531 C 741.261719 1706.550781 724.488281 1698.921875 709.582031 1690.210938 C 694.558594 1681.46875 681.242188 1671.371094 668.761719 1660.761719 C 619.355469 1617.710938 580.835938 1567.589844 544.746094 1516.269531 C 526.9375 1490.480469 509.886719 1464.238281 493.828125 1437.449219 C 477.730469 1410.699219 462.109375 1383.710938 447.839844 1356.011719 C 484.171875 1406.570312 522.527344 1455.460938 562.988281 1502.121094 C 583.183594 1525.410156 604.050781 1548.070312 625.871094 1569.421875 C 647.574219 1590.800781 670.269531 1611.070312 694.277344 1628.039062 C 706.28125 1636.46875 718.566406 1644.261719 731.007812 1650.101562 C 743.367188 1656.070312 756.007812 1660.039062 767.097656 1660.761719 C 768.449219 1660.800781 769.839844 1660.960938 771.152344 1660.839844 C 772.503906 1660.800781 773.65625 1660.878906 775.324219 1660.679688 L 779.976562 1660.28125 L 784.585938 1659.601562 C 790.707031 1658.570312 796.710938 1657.261719 802.554688 1655.109375 C 814.277344 1651.019531 825.566406 1644.738281 836.816406 1636.789062 C 848.105469 1628.960938 859.355469 1619.421875 871.597656 1609.398438 C 883.839844 1599.390625 897.234375 1588.53125 914.644531 1579.269531 C 923.308594 1574.699219 933.207031 1570.648438 944.097656 1568.179688 C 946.761719 1567.511719 949.542969 1567.070312 952.363281 1566.671875 C 955.144531 1566.199219 958.007812 1566 960.871094 1565.839844 C 962.300781 1565.761719 963.652344 1565.601562 965.203125 1565.640625 L 969.933594 1565.761719 C 973.074219 1565.800781 976.253906 1566.199219 979.433594 1566.710938 C 992.191406 1568.621094 1004.078125 1573.789062 1013.460938 1579.589844 C 1022.921875 1585.429688 1030.390625 1591.75 1036.988281 1597.71875 C 1050.148438 1609.679688 1060.359375 1620.570312 1070.730469 1629.710938 C 1081.03125 1638.941406 1091.171875 1646.410156 1101.820312 1652.328125 C 1112.511719 1658.128906 1123.640625 1662.46875 1135.558594 1665.289062 C 1147.488281 1668.070312 1160.089844 1669.378906 1173.171875 1669.621094 L 1183.019531 1669.621094 C 1184.328125 1669.140625 1184.769531 1669.5 1186.640625 1668.789062 C 1187.441406 1668.511719 1188.070312 1668.550781 1189.070312 1668.148438 C 1190.058594 1667.710938 1191.050781 1667.359375 1192.050781 1666.960938 C 1193 1666.71875 1194.109375 1666.121094 1195.269531 1665.570312 L 1198.679688 1663.941406 C 1208.140625 1658.96875 1218.761719 1651.300781 1228.929688 1642.550781 C 1239.148438 1633.769531 1249.199219 1623.910156 1258.980469 1613.578125 C 1268.679688 1603 1278.21875 1592.109375 1287.519531 1580.78125 C 1324.570312 1535.351562 1357.320312 1484.789062 1387.171875 1432.800781 C 1416.980469 1380.691406 1443.449219 1326.511719 1466.429688 1271.140625 C 1489.558594 1215.890625 1509 1159.210938 1523.269531 1101.898438 C 1537.578125 1044.699219 1547.121094 986.671875 1547.359375 930.058594 C 1547.511719 901.839844 1545.289062 874.058594 1540.558594 847.46875 C 1535.710938 820.839844 1527.519531 795.71875 1516.230469 772.738281 C 1505.261719 749.648438 1490.238281 729.300781 1472.351562 711.488281 C 1470.238281 709.140625 1467.699219 707.199219 1465.359375 705.050781 L 1458.238281 698.769531 L 1450.648438 692.890625 C 1448.101562 690.898438 1445.761719 688.871094 1442.820312 686.960938 C 1431.769531 678.941406 1420.28125 672.058594 1408.628906 665.820312 C 1397.03125 659.5 1385.058594 654.570312 1373.058594 650.398438 C 1361.019531 646.21875 1348.769531 643.160156 1336.410156 641.371094 C 1324.050781 639.578125 1311.488281 639.070312 1298.890625 639.820312 C 1286.25 640.5 1273.488281 642.371094 1260.730469 645.511719 C 1247.96875 648.648438 1235.210938 652.941406 1222.570312 658.269531 C 1209.929688 663.511719 1197.289062 669.628906 1184.890625 676.628906 C 1172.488281 683.589844 1160.289062 691.300781 1148.238281 699.609375 C 1136.121094 707.789062 1124.199219 716.539062 1112.46875 725.800781 C 1087.871094 745.160156 1063.941406 766.058594 1040.289062 787.851562 C 1038.140625 787.929688 1035.988281 787.960938 1033.890625 787.960938 C 1031.378906 787.960938 1028.921875 787.890625 1026.460938 787.769531 L 1025.578125 787.769531 C 1014.210938 787.449219 1002.328125 785.058594 992.113281 782.71875 C 988.136719 781.570312 984.320312 780.449219 980.625 779.261719 C 1007.96875 744.160156 1036.828125 709.660156 1069.300781 677.269531 C 1080.75 665.820312 1092.679688 654.648438 1105.160156 643.878906 C 1117.679688 633.148438 1130.828125 622.890625 1144.628906 613.148438 C 1158.460938 603.488281 1172.929688 594.351562 1188.308594 586.238281 C 1203.730469 578.171875 1219.949219 571.101562 1237 565.371094 C 1254.011719 559.648438 1271.820312 555.320312 1290.109375 552.890625 C 1308.390625 550.550781 1327.070312 550.03125 1345.589844 551.460938 C 1382.71875 554.25 1418.769531 564.621094 1451.011719 580 C 1467.101562 587.710938 1482.71875 596.179688 1497.308594 605.71875 C 1500.96875 607.910156 1504.75 610.691406 1508.480469 613.269531 L 1519.648438 621.21875 L 1530.261719 630.011719 C 1533.761719 632.988281 1537.378906 635.808594 1540.640625 639.070312 C 1567.628906 664.148438 1590.71875 694.078125 1607.378906 726.589844 C 1623.910156 759.230469 1635.121094 793.730469 1641.761719 828.148438 C 1648.480469 862.609375 1650.738281 897.109375 1650.421875 930.980469 "/>
</clipPath>
<linearGradient id="linear-pattern-1" gradientUnits="userSpaceOnUse" x1="-0.177513" y1="0" x2="1.139865" y2="0" gradientTransform="matrix(276.402, -1074.58, 1074.58, 276.402, 924.914, 1669.25)">
<stop offset="0" stop-color="rgb(71.37146%, 0%, 17.64679%)" stop-opacity="1"/>
<stop offset="0.125" stop-color="rgb(71.37146%, 0%, 17.64679%)" stop-opacity="1"/>
<stop offset="0.140625" stop-color="rgb(71.450806%, 0.0488281%, 17.666626%)" stop-opacity="1"/>
<stop offset="0.148438" stop-color="rgb(71.633911%, 0.164795%, 17.712402%)" stop-opacity="1"/>
<stop offset="0.15625" stop-color="rgb(71.844482%, 0.299072%, 17.764282%)" stop-opacity="1"/>
<stop offset="0.164062" stop-color="rgb(72.053528%, 0.431824%, 17.816162%)" stop-opacity="1"/>
<stop offset="0.171875" stop-color="rgb(72.264099%, 0.564575%, 17.869568%)" stop-opacity="1"/>
<stop offset="0.179688" stop-color="rgb(72.473145%, 0.698853%, 17.921448%)" stop-opacity="1"/>
<stop offset="0.1875" stop-color="rgb(72.683716%, 0.831604%, 17.974854%)" stop-opacity="1"/>
<stop offset="0.195312" stop-color="rgb(72.894287%, 0.964355%, 18.026733%)" stop-opacity="1"/>
<stop offset="0.203125" stop-color="rgb(73.103333%, 1.097107%, 18.078613%)" stop-opacity="1"/>
<stop offset="0.210938" stop-color="rgb(73.313904%, 1.231384%, 18.132019%)" stop-opacity="1"/>
<stop offset="0.21875" stop-color="rgb(73.522949%, 1.364136%, 18.183899%)" stop-opacity="1"/>
<stop offset="0.226562" stop-color="rgb(73.733521%, 1.496887%, 18.235779%)" stop-opacity="1"/>
<stop offset="0.234375" stop-color="rgb(73.942566%, 1.631165%, 18.289185%)" stop-opacity="1"/>
<stop offset="0.242188" stop-color="rgb(74.153137%, 1.763916%, 18.341064%)" stop-opacity="1"/>
<stop offset="0.25" stop-color="rgb(74.362183%, 1.896667%, 18.39447%)" stop-opacity="1"/>
<stop offset="0.257812" stop-color="rgb(74.572754%, 2.029419%, 18.44635%)" stop-opacity="1"/>
<stop offset="0.265625" stop-color="rgb(74.781799%, 2.163696%, 18.49823%)" stop-opacity="1"/>
<stop offset="0.273438" stop-color="rgb(74.992371%, 2.296448%, 18.551636%)" stop-opacity="1"/>
<stop offset="0.28125" stop-color="rgb(75.202942%, 2.429199%, 18.603516%)" stop-opacity="1"/>
<stop offset="0.289062" stop-color="rgb(75.411987%, 2.563477%, 18.656921%)" stop-opacity="1"/>
<stop offset="0.296875" stop-color="rgb(75.622559%, 2.696228%, 18.708801%)" stop-opacity="1"/>
<stop offset="0.304688" stop-color="rgb(75.831604%, 2.828979%, 18.760681%)" stop-opacity="1"/>
<stop offset="0.3125" stop-color="rgb(76.042175%, 2.963257%, 18.814087%)" stop-opacity="1"/>
<stop offset="0.320312" stop-color="rgb(76.251221%, 3.096008%, 18.865967%)" stop-opacity="1"/>
<stop offset="0.328125" stop-color="rgb(76.461792%, 3.22876%, 18.917847%)" stop-opacity="1"/>
<stop offset="0.335938" stop-color="rgb(76.670837%, 3.361511%, 18.971252%)" stop-opacity="1"/>
<stop offset="0.34375" stop-color="rgb(76.881409%, 3.495789%, 19.023132%)" stop-opacity="1"/>
<stop offset="0.351562" stop-color="rgb(77.090454%, 3.62854%, 19.076538%)" stop-opacity="1"/>
<stop offset="0.359375" stop-color="rgb(77.301025%, 3.761292%, 19.128418%)" stop-opacity="1"/>
<stop offset="0.367188" stop-color="rgb(77.511597%, 3.895569%, 19.180298%)" stop-opacity="1"/>
<stop offset="0.375" stop-color="rgb(77.720642%, 4.02832%, 19.233704%)" stop-opacity="1"/>
<stop offset="0.382812" stop-color="rgb(77.931213%, 4.161072%, 19.285583%)" stop-opacity="1"/>
<stop offset="0.390625" stop-color="rgb(78.140259%, 4.293823%, 19.338989%)" stop-opacity="1"/>
<stop offset="0.398438" stop-color="rgb(78.35083%, 4.428101%, 19.390869%)" stop-opacity="1"/>
<stop offset="0.40625" stop-color="rgb(78.559875%, 4.560852%, 19.442749%)" stop-opacity="1"/>
<stop offset="0.414062" stop-color="rgb(78.770447%, 4.693604%, 19.496155%)" stop-opacity="1"/>
<stop offset="0.421875" stop-color="rgb(78.979492%, 4.827881%, 19.548035%)" stop-opacity="1"/>
<stop offset="0.429688" stop-color="rgb(79.190063%, 4.960632%, 19.599915%)" stop-opacity="1"/>
<stop offset="0.4375" stop-color="rgb(79.399109%, 5.093384%, 19.65332%)" stop-opacity="1"/>
<stop offset="0.445312" stop-color="rgb(79.60968%, 5.226135%, 19.7052%)" stop-opacity="1"/>
<stop offset="0.453125" stop-color="rgb(79.818726%, 5.360413%, 19.758606%)" stop-opacity="1"/>
<stop offset="0.460938" stop-color="rgb(80.029297%, 5.493164%, 19.810486%)" stop-opacity="1"/>
<stop offset="0.46875" stop-color="rgb(80.239868%, 5.625916%, 19.862366%)" stop-opacity="1"/>
<stop offset="0.476562" stop-color="rgb(80.448914%, 5.760193%, 19.915771%)" stop-opacity="1"/>
<stop offset="0.484375" stop-color="rgb(80.659485%, 5.892944%, 19.967651%)" stop-opacity="1"/>
<stop offset="0.492188" stop-color="rgb(80.86853%, 6.025696%, 20.021057%)" stop-opacity="1"/>
<stop offset="0.5" stop-color="rgb(81.079102%, 6.158447%, 20.072937%)" stop-opacity="1"/>
<stop offset="0.507812" stop-color="rgb(81.288147%, 6.292725%, 20.124817%)" stop-opacity="1"/>
<stop offset="0.515625" stop-color="rgb(81.498718%, 6.425476%, 20.178223%)" stop-opacity="1"/>
<stop offset="0.523437" stop-color="rgb(81.707764%, 6.558228%, 20.230103%)" stop-opacity="1"/>
<stop offset="0.53125" stop-color="rgb(81.918335%, 6.692505%, 20.281982%)" stop-opacity="1"/>
<stop offset="0.539062" stop-color="rgb(82.12738%, 6.825256%, 20.335388%)" stop-opacity="1"/>
<stop offset="0.546875" stop-color="rgb(82.337952%, 6.958008%, 20.387268%)" stop-opacity="1"/>
<stop offset="0.554687" stop-color="rgb(82.548523%, 7.090759%, 20.440674%)" stop-opacity="1"/>
<stop offset="0.5625" stop-color="rgb(82.757568%, 7.225037%, 20.492554%)" stop-opacity="1"/>
<stop offset="0.570312" stop-color="rgb(82.96814%, 7.357788%, 20.544434%)" stop-opacity="1"/>
<stop offset="0.578125" stop-color="rgb(83.177185%, 7.49054%, 20.597839%)" stop-opacity="1"/>
<stop offset="0.585937" stop-color="rgb(83.387756%, 7.624817%, 20.649719%)" stop-opacity="1"/>
<stop offset="0.59375" stop-color="rgb(83.596802%, 7.757568%, 20.703125%)" stop-opacity="1"/>
<stop offset="0.601562" stop-color="rgb(83.807373%, 7.89032%, 20.755005%)" stop-opacity="1"/>
<stop offset="0.609375" stop-color="rgb(84.016418%, 8.023071%, 20.806885%)" stop-opacity="1"/>
<stop offset="0.617187" stop-color="rgb(84.22699%, 8.157349%, 20.860291%)" stop-opacity="1"/>
<stop offset="0.625" stop-color="rgb(84.436035%, 8.2901%, 20.91217%)" stop-opacity="1"/>
<stop offset="0.632812" stop-color="rgb(84.646606%, 8.422852%, 20.96405%)" stop-opacity="1"/>
<stop offset="0.640625" stop-color="rgb(84.857178%, 8.557129%, 21.017456%)" stop-opacity="1"/>
<stop offset="0.648437" stop-color="rgb(85.066223%, 8.68988%, 21.069336%)" stop-opacity="1"/>
<stop offset="0.65625" stop-color="rgb(85.276794%, 8.822632%, 21.122742%)" stop-opacity="1"/>
<stop offset="0.664062" stop-color="rgb(85.48584%, 8.955383%, 21.174622%)" stop-opacity="1"/>
<stop offset="0.671875" stop-color="rgb(85.696411%, 9.089661%, 21.226501%)" stop-opacity="1"/>
<stop offset="0.679688" stop-color="rgb(85.905457%, 9.222412%, 21.279907%)" stop-opacity="1"/>
<stop offset="0.6875" stop-color="rgb(86.116028%, 9.355164%, 21.331787%)" stop-opacity="1"/>
<stop offset="0.695312" stop-color="rgb(86.325073%, 9.489441%, 21.385193%)" stop-opacity="1"/>
<stop offset="0.703125" stop-color="rgb(86.535645%, 9.622192%, 21.437073%)" stop-opacity="1"/>
<stop offset="0.710938" stop-color="rgb(86.74469%, 9.754944%, 21.488953%)" stop-opacity="1"/>
<stop offset="0.71875" stop-color="rgb(86.955261%, 9.887695%, 21.542358%)" stop-opacity="1"/>
<stop offset="0.726562" stop-color="rgb(87.165833%, 10.021973%, 21.594238%)" stop-opacity="1"/>
<stop offset="0.734375" stop-color="rgb(87.374878%, 10.154724%, 21.647644%)" stop-opacity="1"/>
<stop offset="0.742188" stop-color="rgb(87.585449%, 10.287476%, 21.699524%)" stop-opacity="1"/>
<stop offset="0.75" stop-color="rgb(87.794495%, 10.421753%, 21.751404%)" stop-opacity="1"/>
<stop offset="0.757812" stop-color="rgb(88.005066%, 10.554504%, 21.80481%)" stop-opacity="1"/>
<stop offset="0.765625" stop-color="rgb(88.214111%, 10.687256%, 21.856689%)" stop-opacity="1"/>
<stop offset="0.773438" stop-color="rgb(88.424683%, 10.821533%, 21.908569%)" stop-opacity="1"/>
<stop offset="0.78125" stop-color="rgb(88.633728%, 10.954285%, 21.961975%)" stop-opacity="1"/>
<stop offset="0.789062" stop-color="rgb(88.844299%, 11.087036%, 22.013855%)" stop-opacity="1"/>
<stop offset="0.796875" stop-color="rgb(89.053345%, 11.219788%, 22.067261%)" stop-opacity="1"/>
<stop offset="0.804688" stop-color="rgb(89.263916%, 11.354065%, 22.119141%)" stop-opacity="1"/>
<stop offset="0.8125" stop-color="rgb(89.474487%, 11.486816%, 22.171021%)" stop-opacity="1"/>
<stop offset="0.820312" stop-color="rgb(89.683533%, 11.619568%, 22.224426%)" stop-opacity="1"/>
<stop offset="0.828125" stop-color="rgb(89.894104%, 11.753845%, 22.276306%)" stop-opacity="1"/>
<stop offset="0.835938" stop-color="rgb(90.103149%, 11.886597%, 22.329712%)" stop-opacity="1"/>
<stop offset="0.84375" stop-color="rgb(90.313721%, 12.019348%, 22.381592%)" stop-opacity="1"/>
<stop offset="0.851562" stop-color="rgb(90.522766%, 12.1521%, 22.433472%)" stop-opacity="1"/>
<stop offset="0.859375" stop-color="rgb(90.733337%, 12.286377%, 22.486877%)" stop-opacity="1"/>
<stop offset="0.867188" stop-color="rgb(90.942383%, 12.419128%, 22.538757%)" stop-opacity="1"/>
<stop offset="0.875" stop-color="rgb(91.152954%, 12.55188%, 22.590637%)" stop-opacity="1"/>
<stop offset="0.882812" stop-color="rgb(91.362%, 12.686157%, 22.644043%)" stop-opacity="1"/>
<stop offset="0.890625" stop-color="rgb(91.572571%, 12.818909%, 22.695923%)" stop-opacity="1"/>
<stop offset="0.90625" stop-color="rgb(91.720581%, 12.913513%, 22.73407%)" stop-opacity="1"/>
<stop offset="0.9375" stop-color="rgb(91.763306%, 12.940979%, 22.744751%)" stop-opacity="1"/>
<stop offset="1" stop-color="rgb(91.763306%, 12.940979%, 22.744751%)" stop-opacity="1"/>
</linearGradient>
<clipPath id="clip-6">
<path clip-rule="nonzero" d="M 753 389 L 995 389 L 995 746 L 753 746 Z M 753 389 "/>
</clipPath>
<clipPath id="clip-7">
<path clip-rule="nonzero" d="M 994.457031 699.558594 C 981.183594 714.871094 968.542969 730.328125 956.339844 745.75 L 954.390625 740.539062 L 950.21875 729.96875 C 947.355469 722.941406 944.296875 715.898438 941.234375 708.949219 C 935.035156 694.988281 928.394531 681.28125 921.398438 667.808594 C 907.449219 640.820312 891.867188 614.898438 874.855469 590.570312 C 866.269531 578.488281 857.285156 566.808594 847.984375 555.640625 C 838.605469 544.511719 828.828125 534.050781 818.730469 524.160156 C 808.515625 514.421875 797.941406 505.46875 787.089844 497.289062 C 776.160156 489.339844 764.953125 482.339844 753.582031 476.339844 L 808.992188 389.089844 C 824.058594 400.261719 838.007812 412.339844 850.808594 425.101562 C 863.449219 437.980469 875.09375 451.421875 885.746094 465.25 C 896.28125 479.199219 906.019531 493.429688 914.960938 507.980469 C 923.824219 522.570312 931.972656 537.351562 939.523438 552.300781 C 954.429688 582.308594 967.070312 612.871094 977.644531 643.960938 C 982.929688 659.460938 987.742188 675.078125 992.113281 690.820312 C 992.90625 693.71875 993.703125 696.660156 994.457031 699.558594 Z M 994.457031 699.558594 "/>
</clipPath>
<clipPath id="clip-8">
<path clip-rule="nonzero" d="M 994.457031 699.558594 C 981.183594 714.871094 968.542969 730.328125 956.339844 745.75 L 954.390625 740.539062 L 950.21875 729.96875 C 947.355469 722.941406 944.296875 715.898438 941.234375 708.949219 C 935.035156 694.988281 928.394531 681.28125 921.398438 667.808594 C 907.449219 640.820312 891.867188 614.898438 874.855469 590.570312 C 866.269531 578.488281 857.285156 566.808594 847.984375 555.640625 C 838.605469 544.511719 828.828125 534.050781 818.730469 524.160156 C 808.515625 514.421875 797.941406 505.46875 787.089844 497.289062 C 776.160156 489.339844 764.953125 482.339844 753.582031 476.339844 L 808.992188 389.089844 C 824.058594 400.261719 838.007812 412.339844 850.808594 425.101562 C 863.449219 437.980469 875.09375 451.421875 885.746094 465.25 C 896.28125 479.199219 906.019531 493.429688 914.960938 507.980469 C 923.824219 522.570312 931.972656 537.351562 939.523438 552.300781 C 954.429688 582.308594 967.070312 612.871094 977.644531 643.960938 C 982.929688 659.460938 987.742188 675.078125 992.113281 690.820312 C 992.90625 693.71875 993.703125 696.660156 994.457031 699.558594 "/>
</clipPath>
<linearGradient id="linear-pattern-2" gradientUnits="userSpaceOnUse" x1="-0.12371" y1="0" x2="1.301578" y2="0" gradientTransform="matrix(-141.021, -265.12, 265.12, -141.021, 957.746, 723.2)">
<stop offset="0" stop-color="rgb(71.37146%, 0%, 17.64679%)" stop-opacity="1"/>
<stop offset="0.0625" stop-color="rgb(71.37146%, 0%, 17.64679%)" stop-opacity="1"/>
<stop offset="0.09375" stop-color="rgb(71.472168%, 0.0640869%, 17.671204%)" stop-opacity="1"/>
<stop offset="0.101562" stop-color="rgb(71.687317%, 0.19989%, 17.724609%)" stop-opacity="1"/>
<stop offset="0.109375" stop-color="rgb(71.914673%, 0.343323%, 17.781067%)" stop-opacity="1"/>
<stop offset="0.117188" stop-color="rgb(72.140503%, 0.486755%, 17.837524%)" stop-opacity="1"/>
<stop offset="0.125" stop-color="rgb(72.367859%, 0.631714%, 17.895508%)" stop-opacity="1"/>
<stop offset="0.132812" stop-color="rgb(72.595215%, 0.775146%, 17.951965%)" stop-opacity="1"/>
<stop offset="0.140625" stop-color="rgb(72.822571%, 0.920105%, 18.008423%)" stop-opacity="1"/>
<stop offset="0.148438" stop-color="rgb(73.049927%, 1.063538%, 18.06488%)" stop-opacity="1"/>
<stop offset="0.15625" stop-color="rgb(73.275757%, 1.208496%, 18.121338%)" stop-opacity="1"/>
<stop offset="0.164062" stop-color="rgb(73.503113%, 1.351929%, 18.179321%)" stop-opacity="1"/>
<stop offset="0.171875" stop-color="rgb(73.730469%, 1.495361%, 18.235779%)" stop-opacity="1"/>
<stop offset="0.179688" stop-color="rgb(73.957825%, 1.64032%, 18.292236%)" stop-opacity="1"/>
<stop offset="0.1875" stop-color="rgb(74.185181%, 1.783752%, 18.348694%)" stop-opacity="1"/>
<stop offset="0.195312" stop-color="rgb(74.411011%, 1.928711%, 18.405151%)" stop-opacity="1"/>
<stop offset="0.203125" stop-color="rgb(74.638367%, 2.072144%, 18.463135%)" stop-opacity="1"/>
<stop offset="0.210937" stop-color="rgb(74.865723%, 2.217102%, 18.519592%)" stop-opacity="1"/>
<stop offset="0.21875" stop-color="rgb(75.093079%, 2.360535%, 18.57605%)" stop-opacity="1"/>
<stop offset="0.226563" stop-color="rgb(75.320435%, 2.505493%, 18.632507%)" stop-opacity="1"/>
<stop offset="0.234375" stop-color="rgb(75.546265%, 2.648926%, 18.688965%)" stop-opacity="1"/>
<stop offset="0.242188" stop-color="rgb(75.773621%, 2.792358%, 18.746948%)" stop-opacity="1"/>
<stop offset="0.25" stop-color="rgb(76.000977%, 2.937317%, 18.803406%)" stop-opacity="1"/>
<stop offset="0.257812" stop-color="rgb(76.228333%, 3.08075%, 18.859863%)" stop-opacity="1"/>
<stop offset="0.265625" stop-color="rgb(76.455688%, 3.225708%, 18.916321%)" stop-opacity="1"/>
<stop offset="0.273438" stop-color="rgb(76.683044%, 3.369141%, 18.972778%)" stop-opacity="1"/>
<stop offset="0.28125" stop-color="rgb(76.908875%, 3.514099%, 19.030762%)" stop-opacity="1"/>
<stop offset="0.289062" stop-color="rgb(77.13623%, 3.657532%, 19.087219%)" stop-opacity="1"/>
<stop offset="0.296875" stop-color="rgb(77.363586%, 3.80249%, 19.143677%)" stop-opacity="1"/>
<stop offset="0.304687" stop-color="rgb(77.590942%, 3.945923%, 19.200134%)" stop-opacity="1"/>
<stop offset="0.3125" stop-color="rgb(77.818298%, 4.089355%, 19.256592%)" stop-opacity="1"/>
<stop offset="0.320313" stop-color="rgb(78.044128%, 4.234314%, 19.314575%)" stop-opacity="1"/>
<stop offset="0.328125" stop-color="rgb(78.271484%, 4.377747%, 19.371033%)" stop-opacity="1"/>
<stop offset="0.335938" stop-color="rgb(78.49884%, 4.522705%, 19.42749%)" stop-opacity="1"/>
<stop offset="0.34375" stop-color="rgb(78.726196%, 4.666138%, 19.483948%)" stop-opacity="1"/>
<stop offset="0.351562" stop-color="rgb(78.953552%, 4.811096%, 19.540405%)" stop-opacity="1"/>
<stop offset="0.359375" stop-color="rgb(79.179382%, 4.954529%, 19.598389%)" stop-opacity="1"/>
<stop offset="0.367188" stop-color="rgb(79.406738%, 5.097961%, 19.654846%)" stop-opacity="1"/>
<stop offset="0.375" stop-color="rgb(79.634094%, 5.24292%, 19.711304%)" stop-opacity="1"/>
<stop offset="0.382812" stop-color="rgb(79.86145%, 5.386353%, 19.767761%)" stop-opacity="1"/>
<stop offset="0.390625" stop-color="rgb(80.088806%, 5.531311%, 19.825745%)" stop-opacity="1"/>
<stop offset="0.398438" stop-color="rgb(80.316162%, 5.674744%, 19.882202%)" stop-opacity="1"/>
<stop offset="0.40625" stop-color="rgb(80.541992%, 5.819702%, 19.93866%)" stop-opacity="1"/>
<stop offset="0.414062" stop-color="rgb(80.769348%, 5.963135%, 19.995117%)" stop-opacity="1"/>
<stop offset="0.421875" stop-color="rgb(80.996704%, 6.108093%, 20.051575%)" stop-opacity="1"/>
<stop offset="0.429687" stop-color="rgb(81.22406%, 6.251526%, 20.109558%)" stop-opacity="1"/>
<stop offset="0.4375" stop-color="rgb(81.451416%, 6.394958%, 20.166016%)" stop-opacity="1"/>
<stop offset="0.445313" stop-color="rgb(81.677246%, 6.539917%, 20.222473%)" stop-opacity="1"/>
<stop offset="0.453125" stop-color="rgb(81.904602%, 6.68335%, 20.278931%)" stop-opacity="1"/>
<stop offset="0.460938" stop-color="rgb(82.131958%, 6.828308%, 20.335388%)" stop-opacity="1"/>
<stop offset="0.46875" stop-color="rgb(82.359314%, 6.971741%, 20.393372%)" stop-opacity="1"/>
<stop offset="0.476562" stop-color="rgb(82.58667%, 7.116699%, 20.449829%)" stop-opacity="1"/>
<stop offset="0.484375" stop-color="rgb(82.8125%, 7.260132%, 20.506287%)" stop-opacity="1"/>
<stop offset="0.492188" stop-color="rgb(83.039856%, 7.403564%, 20.562744%)" stop-opacity="1"/>
<stop offset="0.5" stop-color="rgb(83.267212%, 7.548523%, 20.619202%)" stop-opacity="1"/>
<stop offset="0.507812" stop-color="rgb(83.494568%, 7.691956%, 20.677185%)" stop-opacity="1"/>
<stop offset="0.515625" stop-color="rgb(83.721924%, 7.836914%, 20.733643%)" stop-opacity="1"/>
<stop offset="0.523438" stop-color="rgb(83.947754%, 7.980347%, 20.7901%)" stop-opacity="1"/>
<stop offset="0.53125" stop-color="rgb(84.17511%, 8.125305%, 20.846558%)" stop-opacity="1"/>
<stop offset="0.539062" stop-color="rgb(84.402466%, 8.268738%, 20.903015%)" stop-opacity="1"/>
<stop offset="0.546875" stop-color="rgb(84.629822%, 8.413696%, 20.960999%)" stop-opacity="1"/>
<stop offset="0.554688" stop-color="rgb(84.857178%, 8.557129%, 21.017456%)" stop-opacity="1"/>
<stop offset="0.5625" stop-color="rgb(85.084534%, 8.700562%, 21.073914%)" stop-opacity="1"/>
<stop offset="0.570312" stop-color="rgb(85.310364%, 8.84552%, 21.130371%)" stop-opacity="1"/>
<stop offset="0.578125" stop-color="rgb(85.53772%, 8.988953%, 21.186829%)" stop-opacity="1"/>
<stop offset="0.585938" stop-color="rgb(85.765076%, 9.133911%, 21.244812%)" stop-opacity="1"/>
<stop offset="0.59375" stop-color="rgb(85.992432%, 9.277344%, 21.30127%)" stop-opacity="1"/>
<stop offset="0.601562" stop-color="rgb(86.219788%, 9.422302%, 21.357727%)" stop-opacity="1"/>
<stop offset="0.609375" stop-color="rgb(86.445618%, 9.565735%, 21.414185%)" stop-opacity="1"/>
<stop offset="0.617188" stop-color="rgb(86.672974%, 9.709167%, 21.470642%)" stop-opacity="1"/>
<stop offset="0.625" stop-color="rgb(86.90033%, 9.854126%, 21.528625%)" stop-opacity="1"/>
<stop offset="0.632812" stop-color="rgb(87.127686%, 9.997559%, 21.585083%)" stop-opacity="1"/>
<stop offset="0.640625" stop-color="rgb(87.355042%, 10.142517%, 21.641541%)" stop-opacity="1"/>
<stop offset="0.648438" stop-color="rgb(87.580872%, 10.28595%, 21.697998%)" stop-opacity="1"/>
<stop offset="0.65625" stop-color="rgb(87.808228%, 10.430908%, 21.754456%)" stop-opacity="1"/>
<stop offset="0.664062" stop-color="rgb(88.035583%, 10.574341%, 21.812439%)" stop-opacity="1"/>
<stop offset="0.671875" stop-color="rgb(88.262939%, 10.719299%, 21.868896%)" stop-opacity="1"/>
<stop offset="0.679688" stop-color="rgb(88.490295%, 10.862732%, 21.925354%)" stop-opacity="1"/>
<stop offset="0.6875" stop-color="rgb(88.717651%, 11.006165%, 21.981812%)" stop-opacity="1"/>
<stop offset="0.695312" stop-color="rgb(88.943481%, 11.151123%, 22.038269%)" stop-opacity="1"/>
<stop offset="0.703125" stop-color="rgb(89.170837%, 11.294556%, 22.096252%)" stop-opacity="1"/>
<stop offset="0.710938" stop-color="rgb(89.398193%, 11.439514%, 22.15271%)" stop-opacity="1"/>
<stop offset="0.71875" stop-color="rgb(89.625549%, 11.582947%, 22.209167%)" stop-opacity="1"/>
<stop offset="0.726562" stop-color="rgb(89.852905%, 11.727905%, 22.265625%)" stop-opacity="1"/>
<stop offset="0.734375" stop-color="rgb(90.078735%, 11.871338%, 22.322083%)" stop-opacity="1"/>
<stop offset="0.742188" stop-color="rgb(90.306091%, 12.014771%, 22.380066%)" stop-opacity="1"/>
<stop offset="0.75" stop-color="rgb(90.533447%, 12.159729%, 22.436523%)" stop-opacity="1"/>
<stop offset="0.757812" stop-color="rgb(90.760803%, 12.303162%, 22.492981%)" stop-opacity="1"/>
<stop offset="0.765625" stop-color="rgb(90.988159%, 12.44812%, 22.549438%)" stop-opacity="1"/>
<stop offset="0.773438" stop-color="rgb(91.213989%, 12.591553%, 22.605896%)" stop-opacity="1"/>
<stop offset="0.78125" stop-color="rgb(91.441345%, 12.736511%, 22.663879%)" stop-opacity="1"/>
<stop offset="0.8125" stop-color="rgb(91.659546%, 12.87384%, 22.718811%)" stop-opacity="1"/>
<stop offset="0.875" stop-color="rgb(91.763306%, 12.940979%, 22.744751%)" stop-opacity="1"/>
<stop offset="1" stop-color="rgb(91.763306%, 12.940979%, 22.744751%)" stop-opacity="1"/>
</linearGradient>
<clipPath id="clip-9">
<path clip-rule="nonzero" d="M 1016 249 L 1319 249 L 1319 614 L 1016 614 Z M 1016 249 "/>
</clipPath>
<clipPath id="clip-10">
<path clip-rule="nonzero" d="M 1265.601562 462.160156 C 1191.269531 531.851562 1086.578125 553.269531 1035.058594 613.578125 C 1036.871094 607.640625 1038.941406 601.828125 1040.878906 595.960938 L 1047.621094 577.96875 C 1057.089844 554.089844 1068.601562 530.980469 1081.800781 508.839844 C 1088.199219 497.601562 1095.699219 487.128906 1102.96875 476.410156 C 1106.800781 471.210938 1110.859375 466.171875 1114.789062 461.03125 L 1120.78125 453.371094 L 1127.28125 446.171875 C 1131.601562 441.339844 1135.871094 436.398438 1140.339844 431.710938 L 1154.371094 418.160156 C 1156.71875 415.960938 1159.011719 413.570312 1161.449219 411.441406 L 1169 405.261719 L 1184.148438 392.851562 L 1168.089844 404.101562 L 1160.019531 409.75 C 1157.390625 411.660156 1154.960938 413.871094 1152.421875 415.898438 L 1137.21875 428.480469 C 1132.359375 432.898438 1127.71875 437.53125 1122.960938 442.058594 L 1115.808594 448.910156 L 1109.160156 456.171875 C 1104.769531 461.089844 1100.238281 465.910156 1095.929688 470.898438 C 1087.730469 481.21875 1079.21875 491.378906 1071.828125 502.351562 C 1056.550781 523.960938 1042.929688 546.800781 1031.289062 570.691406 L 1022.839844 588.828125 C 1020.601562 594.21875 1018.191406 599.640625 1016.039062 605.101562 C 1020.988281 542.558594 1037.078125 427.839844 1088.789062 369.511719 C 1165.449219 283.058594 1262.640625 290.109375 1293.351562 249.910156 C 1293.351562 249.910156 1365.371094 368.609375 1265.601562 462.160156 Z M 1265.601562 462.160156 "/>
</clipPath>
<clipPath id="clip-11">
<path clip-rule="nonzero" d="M 1265.601562 462.160156 C 1191.269531 531.851562 1086.578125 553.269531 1035.058594 613.578125 C 1036.871094 607.640625 1038.941406 601.828125 1040.878906 595.960938 L 1047.621094 577.96875 C 1057.089844 554.089844 1068.601562 530.980469 1081.800781 508.839844 C 1088.199219 497.601562 1095.699219 487.128906 1102.96875 476.410156 C 1106.800781 471.210938 1110.859375 466.171875 1114.789062 461.03125 L 1120.78125 453.371094 L 1127.28125 446.171875 C 1131.601562 441.339844 1135.871094 436.398438 1140.339844 431.710938 L 1154.371094 418.160156 C 1156.71875 415.960938 1159.011719 413.570312 1161.449219 411.441406 L 1169 405.261719 L 1184.148438 392.851562 L 1168.089844 404.101562 L 1160.019531 409.75 C 1157.390625 411.660156 1154.960938 413.871094 1152.421875 415.898438 L 1137.21875 428.480469 C 1132.359375 432.898438 1127.71875 437.53125 1122.960938 442.058594 L 1115.808594 448.910156 L 1109.160156 456.171875 C 1104.769531 461.089844 1100.238281 465.910156 1095.929688 470.898438 C 1087.730469 481.21875 1079.21875 491.378906 1071.828125 502.351562 C 1056.550781 523.960938 1042.929688 546.800781 1031.289062 570.691406 L 1022.839844 588.828125 C 1020.601562 594.21875 1018.191406 599.640625 1016.039062 605.101562 C 1020.988281 542.558594 1037.078125 427.839844 1088.789062 369.511719 C 1165.449219 283.058594 1262.640625 290.109375 1293.351562 249.910156 C 1293.351562 249.910156 1365.371094 368.609375 1265.601562 462.160156 "/>
</clipPath>
<linearGradient id="linear-pattern-3" gradientUnits="userSpaceOnUse" x1="-0.378934" y1="0" x2="1.151804" y2="0" gradientTransform="matrix(-245.857, 217.644, -217.644, -245.857, 1271.31, 331.37)">
<stop offset="0" stop-color="rgb(41.960144%, 78.822327%, 0%)" stop-opacity="1"/>
<stop offset="0.25" stop-color="rgb(41.928101%, 78.796387%, 0%)" stop-opacity="1"/>
<stop offset="0.257812" stop-color="rgb(41.795349%, 78.692627%, 0%)" stop-opacity="1"/>
<stop offset="0.265625" stop-color="rgb(41.593933%, 78.53241%, 0%)" stop-opacity="1"/>
<stop offset="0.273438" stop-color="rgb(41.392517%, 78.373718%, 0%)" stop-opacity="1"/>
<stop offset="0.28125" stop-color="rgb(41.191101%, 78.215027%, 0%)" stop-opacity="1"/>
<stop offset="0.289062" stop-color="rgb(40.989685%, 78.05481%, 0%)" stop-opacity="1"/>
<stop offset="0.296875" stop-color="rgb(40.788269%, 77.896118%, 0%)" stop-opacity="1"/>
<stop offset="0.304688" stop-color="rgb(40.585327%, 77.735901%, 0%)" stop-opacity="1"/>
<stop offset="0.3125" stop-color="rgb(40.383911%, 77.577209%, 0%)" stop-opacity="1"/>
<stop offset="0.320312" stop-color="rgb(40.182495%, 77.416992%, 0%)" stop-opacity="1"/>
<stop offset="0.328125" stop-color="rgb(39.981079%, 77.258301%, 0%)" stop-opacity="1"/>
<stop offset="0.335938" stop-color="rgb(39.779663%, 77.098083%, 0%)" stop-opacity="1"/>
<stop offset="0.34375" stop-color="rgb(39.578247%, 76.939392%, 0%)" stop-opacity="1"/>
<stop offset="0.351562" stop-color="rgb(39.375305%, 76.779175%, 0%)" stop-opacity="1"/>
<stop offset="0.359375" stop-color="rgb(39.173889%, 76.620483%, 0%)" stop-opacity="1"/>
<stop offset="0.367188" stop-color="rgb(38.972473%, 76.460266%, 0%)" stop-opacity="1"/>
<stop offset="0.375" stop-color="rgb(38.771057%, 76.301575%, 0%)" stop-opacity="1"/>
<stop offset="0.382812" stop-color="rgb(38.569641%, 76.141357%, 0%)" stop-opacity="1"/>
<stop offset="0.390625" stop-color="rgb(38.368225%, 75.982666%, 0%)" stop-opacity="1"/>
<stop offset="0.398438" stop-color="rgb(38.165283%, 75.822449%, 0%)" stop-opacity="1"/>
<stop offset="0.40625" stop-color="rgb(37.963867%, 75.663757%, 0%)" stop-opacity="1"/>
<stop offset="0.414062" stop-color="rgb(37.762451%, 75.50354%, 0%)" stop-opacity="1"/>
<stop offset="0.421875" stop-color="rgb(37.561035%, 75.344849%, 0%)" stop-opacity="1"/>
<stop offset="0.429687" stop-color="rgb(37.359619%, 75.184631%, 0%)" stop-opacity="1"/>
<stop offset="0.4375" stop-color="rgb(37.158203%, 75.02594%, 0%)" stop-opacity="1"/>
<stop offset="0.445312" stop-color="rgb(36.955261%, 74.865723%, 0%)" stop-opacity="1"/>
<stop offset="0.453125" stop-color="rgb(36.753845%, 74.707031%, 0%)" stop-opacity="1"/>
<stop offset="0.460938" stop-color="rgb(36.552429%, 74.546814%, 0%)" stop-opacity="1"/>
<stop offset="0.46875" stop-color="rgb(36.351013%, 74.388123%, 0%)" stop-opacity="1"/>
<stop offset="0.476562" stop-color="rgb(36.149597%, 74.227905%, 0%)" stop-opacity="1"/>
<stop offset="0.484375" stop-color="rgb(35.948181%, 74.069214%, 0%)" stop-opacity="1"/>
<stop offset="0.492188" stop-color="rgb(35.746765%, 73.908997%, 0%)" stop-opacity="1"/>
<stop offset="0.5" stop-color="rgb(35.543823%, 73.750305%, 0%)" stop-opacity="1"/>
<stop offset="0.507812" stop-color="rgb(35.342407%, 73.590088%, 0%)" stop-opacity="1"/>
<stop offset="0.515625" stop-color="rgb(35.140991%, 73.431396%, 0%)" stop-opacity="1"/>
<stop offset="0.523438" stop-color="rgb(34.939575%, 73.271179%, 0%)" stop-opacity="1"/>
<stop offset="0.53125" stop-color="rgb(34.738159%, 73.112488%, 0%)" stop-opacity="1"/>
<stop offset="0.539062" stop-color="rgb(34.536743%, 72.952271%, 0%)" stop-opacity="1"/>
<stop offset="0.546875" stop-color="rgb(34.333801%, 72.793579%, 0%)" stop-opacity="1"/>
<stop offset="0.554688" stop-color="rgb(34.132385%, 72.633362%, 0%)" stop-opacity="1"/>
<stop offset="0.5625" stop-color="rgb(33.930969%, 72.47467%, 0%)" stop-opacity="1"/>
<stop offset="0.570312" stop-color="rgb(33.729553%, 72.314453%, 0%)" stop-opacity="1"/>
<stop offset="0.578125" stop-color="rgb(33.528137%, 72.155762%, 0%)" stop-opacity="1"/>
<stop offset="0.585938" stop-color="rgb(33.326721%, 71.995544%, 0%)" stop-opacity="1"/>
<stop offset="0.59375" stop-color="rgb(33.123779%, 71.836853%, 0%)" stop-opacity="1"/>
<stop offset="0.601563" stop-color="rgb(32.922363%, 71.676636%, 0%)" stop-opacity="1"/>
<stop offset="0.609375" stop-color="rgb(32.720947%, 71.517944%, 0%)" stop-opacity="1"/>
<stop offset="0.617188" stop-color="rgb(32.519531%, 71.357727%, 0%)" stop-opacity="1"/>
<stop offset="0.625" stop-color="rgb(32.318115%, 71.199036%, 0%)" stop-opacity="1"/>
<stop offset="0.632812" stop-color="rgb(32.116699%, 71.038818%, 0%)" stop-opacity="1"/>
<stop offset="0.640625" stop-color="rgb(31.913757%, 70.880127%, 0%)" stop-opacity="1"/>
<stop offset="0.648438" stop-color="rgb(31.712341%, 70.71991%, 0%)" stop-opacity="1"/>
<stop offset="0.65625" stop-color="rgb(31.510925%, 70.561218%, 0%)" stop-opacity="1"/>
<stop offset="0.664062" stop-color="rgb(31.309509%, 70.401001%, 0%)" stop-opacity="1"/>
<stop offset="0.671875" stop-color="rgb(31.108093%, 70.24231%, 0%)" stop-opacity="1"/>
<stop offset="0.679687" stop-color="rgb(30.906677%, 70.082092%, 0%)" stop-opacity="1"/>
<stop offset="0.6875" stop-color="rgb(30.705261%, 69.923401%, 0%)" stop-opacity="1"/>
<stop offset="0.695312" stop-color="rgb(30.502319%, 69.763184%, 0%)" stop-opacity="1"/>
<stop offset="0.703125" stop-color="rgb(30.300903%, 69.604492%, 0%)" stop-opacity="1"/>
<stop offset="0.710938" stop-color="rgb(30.099487%, 69.444275%, 0%)" stop-opacity="1"/>
<stop offset="0.71875" stop-color="rgb(29.898071%, 69.285583%, 0%)" stop-opacity="1"/>
<stop offset="0.726562" stop-color="rgb(29.696655%, 69.125366%, 0%)" stop-opacity="1"/>
<stop offset="0.734375" stop-color="rgb(29.495239%, 68.966675%, 0%)" stop-opacity="1"/>
<stop offset="0.742188" stop-color="rgb(29.292297%, 68.806458%, 0%)" stop-opacity="1"/>
<stop offset="0.75" stop-color="rgb(29.090881%, 68.647766%, 0%)" stop-opacity="1"/>
<stop offset="0.757812" stop-color="rgb(28.889465%, 68.487549%, 0%)" stop-opacity="1"/>
<stop offset="0.765625" stop-color="rgb(28.688049%, 68.328857%, 0%)" stop-opacity="1"/>
<stop offset="0.773437" stop-color="rgb(28.486633%, 68.16864%, 0%)" stop-opacity="1"/>
<stop offset="0.78125" stop-color="rgb(28.285217%, 68.009949%, 0%)" stop-opacity="1"/>
<stop offset="0.789062" stop-color="rgb(28.082275%, 67.849731%, 0%)" stop-opacity="1"/>
<stop offset="0.796875" stop-color="rgb(27.880859%, 67.69104%, 0%)" stop-opacity="1"/>
<stop offset="0.804688" stop-color="rgb(27.679443%, 67.530823%, 0%)" stop-opacity="1"/>
<stop offset="0.8125" stop-color="rgb(27.478027%, 67.372131%, 0%)" stop-opacity="1"/>
<stop offset="0.820312" stop-color="rgb(27.276611%, 67.211914%, 0%)" stop-opacity="1"/>
<stop offset="0.828125" stop-color="rgb(27.075195%, 67.053223%, 0%)" stop-opacity="1"/>
<stop offset="0.835938" stop-color="rgb(26.872253%, 66.893005%, 0%)" stop-opacity="1"/>
<stop offset="0.84375" stop-color="rgb(26.670837%, 66.734314%, 0%)" stop-opacity="1"/>
<stop offset="0.851562" stop-color="rgb(26.469421%, 66.574097%, 0%)" stop-opacity="1"/>
<stop offset="0.859375" stop-color="rgb(26.268005%, 66.415405%, 0%)" stop-opacity="1"/>
<stop offset="0.867187" stop-color="rgb(26.066589%, 66.255188%, 0%)" stop-opacity="1"/>
<stop offset="0.875" stop-color="rgb(25.865173%, 66.096497%, 0%)" stop-opacity="1"/>
<stop offset="0.882812" stop-color="rgb(25.663757%, 65.936279%, 0%)" stop-opacity="1"/>
<stop offset="0.890625" stop-color="rgb(25.460815%, 65.777588%, 0%)" stop-opacity="1"/>
<stop offset="0.90625" stop-color="rgb(25.228882%, 65.592957%, 0%)" stop-opacity="1"/>
<stop offset="0.9375" stop-color="rgb(25.097656%, 65.489197%, 0%)" stop-opacity="1"/>
<stop offset="1" stop-color="rgb(25.097656%, 65.489197%, 0%)" stop-opacity="1"/>
</linearGradient>
</defs>
<rect x="-200" y="-200" width="2400" height="2400" fill="rgb(100%, 100%, 100%)" fill-opacity="1"/>
<g clip-path="url(#clip-0)">
<g clip-path="url(#clip-1)">
<g clip-path="url(#clip-2)">
<path fill-rule="nonzero" fill="url(#linear-pattern-0)" d="M 115.523438 1412.367188 L 1046.144531 1701.996094 L 1347.613281 733.34375 L 416.992188 443.710938 Z M 115.523438 1412.367188 "/>
</g>
</g>
</g>
<g clip-path="url(#clip-3)">
<g clip-path="url(#clip-4)">
<g clip-path="url(#clip-5)">
<path fill-rule="nonzero" fill="url(#linear-pattern-1)" d="M 158.359375 1675.449219 L 1576.09375 2040.117188 L 1940.21875 624.488281 L 522.488281 259.820312 Z M 158.359375 1675.449219 "/>
</g>
</g>
</g>
<g clip-path="url(#clip-6)">
<g clip-path="url(#clip-7)">
<g clip-path="url(#clip-8)">
<path fill-rule="nonzero" fill="url(#linear-pattern-2)" d="M 806.703125 845.617188 L 1142.332031 667.09375 L 941.335938 289.222656 L 605.707031 467.746094 Z M 806.703125 845.617188 "/>
</g>
</g>
</g>
<g clip-path="url(#clip-9)">
<g clip-path="url(#clip-10)">
<g clip-path="url(#clip-11)">
<path fill-rule="nonzero" fill="url(#linear-pattern-3)" d="M 1545.863281 453.800781 L 1211.890625 76.535156 L 835.546875 409.691406 L 1169.519531 786.957031 Z M 1545.863281 453.800781 "/>
</g>
</g>
</g>
</svg>
