<?xml version="1.0" encoding="UTF-8"?>
<svg width="281px" height="54px" viewBox="0 0 281 54" version="1.1" xmlns="http://www.w3.org/2000/svg" xmlns:xlink="http://www.w3.org/1999/xlink">
    <!-- Generator: Sketch 59.1 (86144) - https://sketch.com -->
    <title>Group 5</title>
    <desc>Created with Sketch.</desc>
    <g id="Amazon-Browser" stroke="none" stroke-width="1" fill="none" fill-rule="evenodd">
        <g id="Group-5" transform="translate(0.664000, 0.868000)" fill="#FFFFFF" fill-rule="nonzero">
            <path d="M5.859,37.264 L11.172,37.264 L16.968,52.132 L11.529,52.132 L10.752,49.948 L6.027,49.948 L5.292,52.132 L0,52.132 L5.859,37.264 Z M8.442,42.451 L7.224,46.126 L9.639,46.126 L8.442,42.451 Z M22.2075,47.344 L22.2075,52.132 L17.2305,52.132 L17.2305,37.264 L23.6145,37.264 C24.3705037,37.264 25.1124963,37.3444992 25.8405,37.5055 C26.5685036,37.6665008 27.2194971,37.9394981 27.7935,38.3245 C28.3675028,38.7095019 28.8294982,39.2204968 29.1795,39.8575 C29.5295017,40.4945032 29.7045,41.2959952 29.7045,42.262 C29.7045,43.1860046 29.5330017,43.9699968 29.19,44.614 C28.8469983,45.2580032 28.3920028,45.782998 27.825,46.189 C27.2579971,46.595002 26.6070036,46.8889991 25.872,47.071 C25.1369963,47.2530009 24.3845038,47.344 23.6145,47.344 L22.2075,47.344 Z M22.2075,41.149 L22.2075,43.543 L23.2575,43.543 C23.6355019,43.543 23.9819984,43.4485009 24.297,43.2595 C24.6120015,43.0704991 24.7695,42.7520022 24.7695,42.304 C24.7695,42.0659988 24.7275004,41.8735007 24.6435,41.7265 C24.5594995,41.5794993 24.4440007,41.4640004 24.297,41.38 C24.1499992,41.2959996 23.9855009,41.2365002 23.8035,41.2015 C23.6214991,41.1664998 23.4395009,41.149 23.2575,41.149 L22.2075,41.149 Z M35.7839999,47.344 L35.7839999,52.132 L30.8069999,52.132 L30.8069999,37.264 L37.1909999,37.264 C37.9470037,37.264 38.6889963,37.3444992 39.4169999,37.5055 C40.1450036,37.6665008 40.7959971,37.9394981 41.3699999,38.3245 C41.9440028,38.7095019 42.4059982,39.2204968 42.7559999,39.8575 C43.1060017,40.4945032 43.2809999,41.2959952 43.2809999,42.262 C43.2809999,43.1860046 43.1095017,43.9699968 42.7664999,44.614 C42.4234982,45.2580032 41.9685028,45.782998 41.4014999,46.189 C40.8344971,46.595002 40.1835036,46.8889991 39.4484999,47.071 C38.7134963,47.2530009 37.9610038,47.344 37.1909999,47.344 L35.7839999,47.344 Z M35.7839999,41.149 L35.7839999,43.543 L36.8339999,43.543 C37.2120018,43.543 37.5584984,43.4485009 37.8734999,43.2595 C38.1885015,43.0704991 38.3459999,42.7520022 38.3459999,42.304 C38.3459999,42.0659988 38.3040004,41.8735007 38.2199999,41.7265 C38.1359995,41.5794993 38.0205007,41.4640004 37.8734999,41.38 C37.7264992,41.2959996 37.5620008,41.2365002 37.3799999,41.2015 C37.197999,41.1664998 37.0160008,41.149 36.8339999,41.149 L35.7839999,41.149 Z M44.3834999,37.264 L49.4234999,37.264 L49.4234999,47.848 L54.3584999,47.848 L54.3584999,52.132 L44.3834999,52.132 L44.3834999,37.264 Z M55.1249999,37.264 L65.3519999,37.264 L65.3519999,41.422 L59.8289999,41.422 L59.8289999,42.703 L65.0159999,42.703 L65.0159999,46.588 L59.8289999,46.588 L59.8289999,47.974 L65.7089999,47.974 L65.7089999,52.132 L55.1249999,52.132 L55.1249999,37.264 Z M75.2219998,37.264 L80.5349998,37.264 L86.3309998,52.132 L80.8919998,52.132 L80.1149998,49.948 L75.3899998,49.948 L74.6549998,52.132 L69.3629998,52.132 L75.2219998,37.264 Z M77.8049998,42.451 L76.5869998,46.126 L79.0019998,46.126 L77.8049998,42.451 Z M86.5934998,37.264 L92.9984998,37.264 C93.7265034,37.264 94.4509962,37.3374993 95.1719998,37.4845 C95.8930034,37.6315007 96.5369969,37.8904981 97.1039998,38.2615 C97.6710026,38.6325019 98.129498,39.1294969 98.4794998,39.7525 C98.8295015,40.3755031 99.0044998,41.1559953 99.0044998,42.094 C99.0044998,43.0040045 98.780502,43.8054965 98.3324998,44.4985 C97.8844975,45.1915035 97.240504,45.7269981 96.4004998,46.105 L100.1805,52.132 L94.4264998,52.132 L91.5704998,46.819 L91.4234998,46.819 L91.4234998,52.132 L86.5934998,52.132 L86.5934998,37.264 Z M91.3814998,43.543 L92.3684998,43.543 C92.5365006,43.543 92.7219988,43.5290001 92.9249998,43.501 C93.1280008,43.4729999 93.3169989,43.4135005 93.4919998,43.3225 C93.6670007,43.2314995 93.8139992,43.1055008 93.9329998,42.9445 C94.0520004,42.7834992 94.1114998,42.5700013 94.1114998,42.304 C94.1114998,42.0379987 94.0625003,41.8280008 93.9644998,41.674 C93.8664993,41.5199992 93.7405006,41.4045004 93.5864998,41.3275 C93.432499,41.2504996 93.2645007,41.2015001 93.0824998,41.1805 C92.9004989,41.1594999 92.7325006,41.149 92.5784998,41.149 L91.3814998,41.149 L91.3814998,43.543 Z M107.961,52.132 L102.963,52.132 L102.963,41.485 L99.3089997,41.485 L99.3089997,37.264 L111.615,37.264 L111.615,41.485 L107.961,41.485 L107.961,52.132 Z M125.853,51.061 C125.404997,51.453002 124.834503,51.7784987 124.1415,52.0375 C123.448496,52.2965013 122.619005,52.426 121.653,52.426 C120.938996,52.426 120.232003,52.3420008 119.532,52.174 C118.831996,52.0059992 118.205502,51.7400018 117.6525,51.376 C117.099497,51.0119982 116.648001,50.5360029 116.298,49.948 C115.947998,49.3599971 115.773,48.6530041 115.773,47.827 C115.773,47.3509976 115.849999,46.9065021 116.004,46.4935 C116.158,46.0804979 116.364498,45.7095016 116.6235,45.3805 C116.882501,45.0514984 117.190498,44.7575013 117.5475,44.4985 C117.904501,44.2394987 118.285998,44.0260008 118.692,43.858 C118.285998,43.4939982 117.943001,43.0565026 117.663,42.5455 C117.382998,42.0344974 117.243,41.4570032 117.243,40.813 C117.243,40.0849964 117.407498,39.4690025 117.7365,38.965 C118.065501,38.4609975 118.488997,38.0515016 119.007,37.7365 C119.525002,37.4214984 120.098997,37.1940007 120.729,37.054 C121.359003,36.9139993 121.974997,36.844 122.577,36.844 C123.193003,36.844 123.805497,36.9174993 124.4145,37.0645 C125.023503,37.2115007 125.572997,37.4459984 126.063,37.768 C126.553002,38.0900016 126.951998,38.5064974 127.26,39.0175 C127.568001,39.5285026 127.722,40.1479964 127.722,40.876 C127.722,41.3380023 127.645,41.7544981 127.491,42.1255 C127.336999,42.4965019 127.127001,42.8324985 126.861,43.1335 C126.594998,43.4345015 126.290501,43.7074988 125.9475,43.9525 C125.604498,44.1975012 125.237002,44.424999 124.845,44.635 L125.874,45.601 L127.029,43.942 L132.258,43.942 L128.688,48.289 L132.72,52.132 L126.882,52.132 L125.853,51.061 Z M122.619,40.057 C122.296998,40.057 122.0555,40.154999 121.8945,40.351 C121.733499,40.547001 121.653,40.7709987 121.653,41.023 C121.653,41.2610012 121.722999,41.484999 121.863,41.695 C122.003,41.9050011 122.191998,42.1009991 122.43,42.283 C122.752001,42.1569994 123.017999,41.9855011 123.228,41.7685 C123.438001,41.5514989 123.543,41.3030014 123.543,41.023 C123.543,40.7429986 123.466,40.5120009 123.312,40.33 C123.157999,40.1479991 122.927001,40.057 122.619,40.057 Z M121.317,46.399 C121.120999,46.4690003 120.935501,46.5949991 120.7605,46.777 C120.585499,46.9590009 120.498,47.2179983 120.498,47.554 C120.498,47.7640011 120.539999,47.9389993 120.624,48.079 C120.708,48.2190007 120.819999,48.3379995 120.96,48.436 C121.1,48.5340005 121.253999,48.6039998 121.422,48.646 C121.590001,48.6880002 121.750999,48.709 121.905,48.709 C122.171001,48.709 122.419499,48.6670004 122.6505,48.583 C122.881501,48.4989996 123.052999,48.3940006 123.165,48.268 L121.317,46.399 Z M144.543,52.132 L139.545,52.132 L139.545,41.485 L135.891,41.485 L135.891,37.264 L148.197,37.264 L148.197,41.485 L144.543,41.485 L144.543,52.132 Z M148.9425,37.264 L159.1695,37.264 L159.1695,41.422 L153.6465,41.422 L153.6465,42.703 L158.8335,42.703 L158.8335,46.588 L153.6465,46.588 L153.6465,47.974 L159.5265,47.974 L159.5265,52.132 L148.9425,52.132 L148.9425,37.264 Z M160.146,44.698 C160.146,43.507994 160.355997,42.4300048 160.776,41.464 C161.196002,40.4979952 161.769996,39.6720034 162.498,38.986 C163.226003,38.2999966 164.083495,37.7715019 165.0705,37.4005 C166.057504,37.0294981 167.110994,36.844 168.231,36.844 C169.379005,36.844 170.463994,37.0294981 171.486,37.4005 C172.508005,37.7715019 173.361996,38.2719969 174.048,38.902 L170.982,42.598 C170.701998,42.2339982 170.352002,41.9575009 169.932,41.7685 C169.511997,41.5794991 169.043002,41.485 168.525,41.485 C168.104997,41.485 167.713001,41.5584993 167.349,41.7055 C166.984998,41.8525007 166.666501,42.0659986 166.3935,42.346 C166.120498,42.6260014 165.907,42.965498 165.753,43.3645 C165.598999,43.763502 165.522,44.2079976 165.522,44.698 C165.522,45.1880025 165.602499,45.6254981 165.7635,46.0105 C165.9245,46.3955019 166.141498,46.7279986 166.4145,47.008 C166.687501,47.2880014 167.005998,47.5014993 167.37,47.6485 C167.734001,47.7955007 168.118998,47.869 168.525,47.869 C169.099002,47.869 169.592497,47.7500012 170.0055,47.512 C170.418502,47.2739988 170.743998,46.9940016 170.982,46.672 L174.048,50.347 C173.375996,51.0190034 172.550004,51.554498 171.57,51.9535 C170.589995,52.352502 169.477006,52.552 168.231,52.552 C167.110994,52.552 166.057504,52.3630019 165.0705,51.985 C164.083495,51.6069981 163.226003,51.0715035 162.498,50.3785 C161.769996,49.6854965 161.196002,48.8595048 160.776,47.9005 C160.355997,46.9414952 160.146,45.8740059 160.146,44.698 Z M183.7185,46.483 L179.6445,46.483 L179.6445,52.132 L174.6465,52.132 L174.6465,37.264 L179.6235,37.264 L179.6235,42.304 L183.6975,42.304 L183.6975,37.264 L188.7165,37.264 L188.7165,52.132 L183.7185,52.132 L183.7185,46.483 Z M190.700999,37.264 L195.677999,37.264 L199.919999,44.803 L200.003999,44.803 L199.793999,37.264 L204.539999,37.264 L204.539999,52.132 L199.436999,52.132 L195.320999,45.034 L195.236999,45.034 L195.446999,52.132 L190.700999,52.132 L190.700999,37.264 Z M205.852499,44.614 C205.852499,43.4239941 206.062497,42.3495048 206.482499,41.3905 C206.902502,40.4314952 207.479996,39.6160034 208.214999,38.944 C208.950003,38.2719966 209.821494,37.7540018 210.829499,37.39 C211.837505,37.0259982 212.929494,36.844 214.105499,36.844 C215.281505,36.844 216.373494,37.0259982 217.381499,37.39 C218.389505,37.7540018 219.264496,38.2719966 220.006499,38.944 C220.748503,39.6160034 221.329497,40.4314952 221.749499,41.3905 C222.169502,42.3495048 222.379499,43.4239941 222.379499,44.614 C222.379499,45.804006 222.169502,46.8889951 221.749499,47.869 C221.329497,48.8490049 220.748503,49.6854965 220.006499,50.3785 C219.264496,51.0715035 218.389505,51.6069981 217.381499,51.985 C216.373494,52.3630019 215.281505,52.552 214.105499,52.552 C212.929494,52.552 211.837505,52.3630019 210.829499,51.985 C209.821494,51.6069981 208.950003,51.0715035 208.214999,50.3785 C207.479996,49.6854965 206.902502,48.8490049 206.482499,47.869 C206.062497,46.8889951 205.852499,45.804006 205.852499,44.614 Z M211.165499,44.614 C211.165499,45.1040025 211.238999,45.551998 211.385999,45.958 C211.533,46.364002 211.735998,46.7139985 211.994999,47.008 C212.254001,47.3020015 212.565498,47.5294992 212.929499,47.6905 C213.293501,47.8515008 213.685497,47.932 214.105499,47.932 C214.525502,47.932 214.913998,47.8515008 215.270999,47.6905 C215.628001,47.5294992 215.939498,47.3020015 216.205499,47.008 C216.471501,46.7139985 216.677999,46.364002 216.824999,45.958 C216.972,45.551998 217.045499,45.1040025 217.045499,44.614 C217.045499,44.1379976 216.972,43.700502 216.824999,43.3015 C216.677999,42.902498 216.471501,42.5665014 216.205499,42.2935 C215.939498,42.0204986 215.628001,41.8070008 215.270999,41.653 C214.913998,41.4989992 214.525502,41.422 214.105499,41.422 C213.685497,41.422 213.293501,41.4989992 212.929499,41.653 C212.565498,41.8070008 212.254001,42.0204986 211.994999,42.2935 C211.735998,42.5665014 211.533,42.902498 211.385999,43.3015 C211.238999,43.700502 211.165499,44.1379976 211.165499,44.614 Z M223.691999,37.264 L228.731999,37.264 L228.731999,47.848 L233.666999,47.848 L233.666999,52.132 L223.691999,52.132 L223.691999,37.264 Z M233.131499,44.614 C233.131499,43.4239941 233.341497,42.3495048 233.761499,41.3905 C234.181502,40.4314952 234.758996,39.6160034 235.493999,38.944 C236.229003,38.2719966 237.100494,37.7540018 238.108499,37.39 C239.116504,37.0259982 240.208494,36.844 241.384499,36.844 C242.560505,36.844 243.652494,37.0259982 244.660499,37.39 C245.668504,37.7540018 246.543496,38.2719966 247.285499,38.944 C248.027503,39.6160034 248.608497,40.4314952 249.028499,41.3905 C249.448502,42.3495048 249.658499,43.4239941 249.658499,44.614 C249.658499,45.804006 249.448502,46.8889951 249.028499,47.869 C248.608497,48.8490049 248.027503,49.6854965 247.285499,50.3785 C246.543496,51.0715035 245.668504,51.6069981 244.660499,51.985 C243.652494,52.3630019 242.560505,52.552 241.384499,52.552 C240.208494,52.552 239.116504,52.3630019 238.108499,51.985 C237.100494,51.6069981 236.229003,51.0715035 235.493999,50.3785 C234.758996,49.6854965 234.181502,48.8490049 233.761499,47.869 C233.341497,46.8889951 233.131499,45.804006 233.131499,44.614 Z M238.444499,44.614 C238.444499,45.1040025 238.517999,45.551998 238.664999,45.958 C238.812,46.364002 239.014998,46.7139985 239.273999,47.008 C239.533001,47.3020015 239.844498,47.5294992 240.208499,47.6905 C240.572501,47.8515008 240.964497,47.932 241.384499,47.932 C241.804502,47.932 242.192998,47.8515008 242.549999,47.6905 C242.907001,47.5294992 243.218498,47.3020015 243.484499,47.008 C243.750501,46.7139985 243.956999,46.364002 244.103999,45.958 C244.251,45.551998 244.324499,45.1040025 244.324499,44.614 C244.324499,44.1379976 244.251,43.700502 244.103999,43.3015 C243.956999,42.902498 243.750501,42.5665014 243.484499,42.2935 C243.218498,42.0204986 242.907001,41.8070008 242.549999,41.653 C242.192998,41.4989992 241.804502,41.422 241.384499,41.422 C240.964497,41.422 240.572501,41.4989992 240.208499,41.653 C239.844498,41.8070008 239.533001,42.0204986 239.273999,42.2935 C239.014998,42.5665014 238.812,42.902498 238.664999,43.3015 C238.517999,43.700502 238.444499,44.1379976 238.444499,44.614 Z M258.530999,52.51 C257.354993,52.51 256.266504,52.3280018 255.265499,51.964 C254.264494,51.5999982 253.396503,51.0785034 252.661499,50.3995 C251.926496,49.7204966 251.349001,48.8980048 250.928999,47.932 C250.508997,46.9659952 250.298999,45.8880059 250.298999,44.698 C250.298999,43.507994 250.508997,42.4300048 250.928999,41.464 C251.349001,40.4979952 251.922996,39.6720034 252.650999,38.986 C253.379003,38.2999966 254.232994,37.7715019 255.212999,37.4005 C256.193004,37.0294981 257.242994,36.844 258.362999,36.844 C259.525005,36.844 260.627494,37.0329981 261.670499,37.411 C262.713505,37.7890019 263.563996,38.3069967 264.221999,38.965 L261.302999,42.472 C260.994998,42.1079982 260.631001,41.8175011 260.210999,41.6005 C259.790997,41.3834989 259.273002,41.275 258.656999,41.275 C258.250997,41.275 257.855501,41.3554992 257.470499,41.5165 C257.085497,41.6775008 256.746001,41.9084985 256.451999,42.2095 C256.157998,42.5105015 255.92,42.8709979 255.737999,43.291 C255.555998,43.7110021 255.464999,44.1799974 255.464999,44.698 C255.464999,45.7340052 255.734497,46.5774967 256.273499,47.2285 C256.812502,47.8795033 257.676993,48.205 258.866999,48.205 C259.077,48.205 259.293998,48.1875002 259.517999,48.1525 C259.742,48.1174998 259.916999,48.0650003 260.042999,47.995 L260.042999,46.861 L257.648999,46.861 L257.648999,42.934 L264.473999,42.934 L264.473999,51.061 C264.123998,51.271001 263.721502,51.4634991 263.266499,51.6385 C262.811497,51.8135009 262.328502,51.9639994 261.817499,52.09 C261.306497,52.2160006 260.771002,52.3174996 260.210999,52.3945 C259.650997,52.4715004 259.091002,52.51 258.530999,52.51 Z M273.892499,52.132 L268.894499,52.132 L268.894499,46.042 L263.287499,37.264 L269.314499,37.264 L271.666499,41.632 L273.913499,37.264 L279.793499,37.264 L273.892499,46.042 L273.892499,52.132 Z" id="APPLEART&amp;TECHNOLOGY"></path>
            <path d="M35.148,17.712 L33.06,17.712 L33.06,8.1 L26.076,8.1 L26.076,6.552 L28.452,6.552 L28.452,5.004 L34.428,5.004 L34.428,1.836 L28.452,1.836 L28.452,0.216 L21.756,0.216 L21.756,1.836 L15.312,1.836 L15.312,0.216 L8.544,0.216 L8.544,1.836 L2.604,1.836 L2.604,5.004 L8.544,5.004 L8.544,5.94 L7.428,5.94 L7.428,7.38 L3.576,7.38 L3.576,9.144 L7.428,9.144 L7.428,10.188 L2.496,10.188 L2.496,12.42 L4.908,12.42 L2.244,15.372 L7.428,15.372 L7.428,16.128 L3.72,16.128 L3.72,17.892 L7.428,17.892 L7.428,18.936 L2.568,19.008 L2.568,21.168 L18.48,20.844 L18.336,21.096 L24.276,21.096 L25.392,18.972 L27.552,18.972 L27.552,21.096 L33.492,21.096 L35.148,17.712 Z M32.952,24.192 L32.952,21.996 L3.972,21.996 L3.972,24.192 L32.952,24.192 Z M34.536,27.756 L34.536,25.164 L2.496,25.164 L2.496,27.756 L6.996,27.756 L4.008,29.592 L4.008,31.968 L23.52,31.968 L24.816,30.096 L26.508,31.968 L34.14,31.968 L30.396,27.756 L34.536,27.756 Z M27.552,16.956 L26.076,15.336 L26.076,11.376 L27.552,11.376 L27.552,16.956 Z M21.756,5.94 L20.712,5.94 L20.712,8.1 L19.344,8.1 L19.344,11.376 L20.712,11.376 L20.712,12.96 L18.696,12.96 L19.128,13.464 L16.572,13.464 L16.572,12.42 L18.732,12.42 L18.732,10.188 L13.908,10.188 L13.908,9.144 L17.94,9.144 L17.94,7.38 L13.908,7.38 L13.908,6.552 L15.312,6.552 L15.312,5.004 L21.756,5.004 L21.756,5.94 Z M20.712,16.704 L18.948,19.98 L18.948,18.684 L13.908,18.792 L13.908,17.892 L18.084,17.892 L18.084,16.128 L13.908,16.128 L13.908,15.372 L18.408,15.372 L19.38,13.788 L20.712,15.372 L20.712,16.704 Z M11.28,14.688 L8.688,14.688 L10.74,12.42 L11.28,12.42 L11.28,14.688 Z M23.952,29.16 L13.836,29.16 L16.068,27.756 L22.692,27.756 L23.952,29.16 Z M68.2859999,7.812 L62.8499999,7.812 L61.4819999,12.852 L66.8819999,12.852 L68.2859999,7.812 Z M68.9339999,17.136 L68.9339999,13.824 L60.6179999,13.824 L60.6179999,6.876 L68.4299999,6.876 L68.4299999,3.456 L63.5699999,3.456 L65.3699999,0.324 L57.5579999,0.324 L55.8299999,3.456 L50.2859999,3.456 L48.6659999,0.324 L41.2139999,0.324 L42.7979999,3.456 L37.9379999,3.456 L37.9379999,6.876 L45.7139999,6.876 L45.7139999,13.824 L37.4699999,13.824 L37.4699999,17.136 L68.9339999,17.136 Z M45.0299999,12.852 L43.6619999,7.812 L38.3339999,7.812 L39.5579999,12.852 L45.0299999,12.852 Z M67.2779999,32.076 L67.2779999,18.792 L39.1259999,18.792 L39.1259999,32.076 L67.2779999,32.076 Z M54.3899999,13.824 L51.9779999,13.824 L51.9779999,6.876 L54.3899999,6.876 L54.3899999,13.824 Z M60.4739999,23.832 L45.8579999,23.832 L45.8579999,22.068 L60.4739999,22.068 L60.4739999,23.832 Z M60.4739999,28.8 L45.8579999,28.8 L45.8579999,26.892 L60.4739999,26.892 L60.4739999,28.8 Z M103.368,31.86 L103.368,0.072 L97.4279999,0.072 L97.4279999,28.44 L92.3879999,28.44 L94.0799999,31.86 L103.368,31.86 Z M96.2039999,25.236 L96.2039999,2.808 L92.3159999,2.808 L92.3159999,8.82 L89.4359999,0.54 L74.9639999,0.54 L71.4719999,9.216 L73.0919999,9.216 L73.0919999,27.54 L71.5439999,31.86 L78.0599999,31.86 L79.2119999,28.62 L79.2119999,21.132 L91.0919999,21.132 L91.0919999,9.216 L92.3159999,9.216 L92.3159999,25.236 L96.2039999,25.236 Z M91.1279999,31.86 L91.1279999,22.536 L80.3279999,22.536 L80.3279999,31.86 L91.1279999,31.86 Z M85.8719999,8.316 L84.7919999,8.316 L84.1439999,5.436 L79.5359999,5.436 L79.9319999,8.316 L78.0239999,8.316 L79.8239999,3.96 L84.3599999,3.96 L85.8719999,8.316 Z M84.7919999,13.14 L79.2119999,13.14 L79.2119999,11.484 L84.7919999,11.484 L84.7919999,13.14 Z M84.7919999,17.856 L79.2119999,17.856 L79.2119999,16.2 L84.7919999,16.2 L84.7919999,17.856 Z M86.2679999,28.656 L85.1159999,28.656 L85.1159999,25.704 L86.2679999,25.704 L86.2679999,28.656 Z M138.342,8.316 L138.342,4.752 L124.266,4.752 L125.922,0.288 L119.838,0.288 L115.338,12.708 L113.898,12.708 L118.398,0.288 L111.126,0.288 L106.086,14.436 L108.354,14.436 L108.354,32.004 L115.086,32.004 L115.086,13.644 L121.026,13.644 L122.358,10.044 L122.358,32.004 L129.162,32.004 L129.162,24.912 L137.55,24.912 L137.55,21.348 L129.162,21.348 L129.162,16.632 L137.586,16.632 L137.586,13.068 L129.162,13.068 L129.162,8.316 L138.342,8.316 Z M164.244,9.612 L162.444,1.296 L156.036,1.296 L157.836,9.612 L164.244,9.612 Z M173.208,23.868 L173.208,20.412 L171.264,20.736 L171.264,0.252 L164.892,0.252 L164.892,21.78 L156,23.184 L156,26.64 L164.892,25.2 L164.892,31.896 L171.264,31.896 L171.264,24.156 L173.208,23.868 Z M164.352,20.412 L162.336,11.268 L156.072,11.268 L157.98,20.412 L164.352,20.412 Z M155.928,0.252 L148.728,0.252 L148.188,1.836 L141.456,1.836 L141.456,5.148 L145.344,5.148 L145.344,9.18 L140.988,9.18 L140.988,12.492 L145.344,12.492 L145.344,31.896 L151.104,31.896 L151.104,12.492 L155.46,12.492 L155.46,9.18 L151.104,9.18 L151.104,5.148 L154.272,5.148 L155.928,0.252 Z M155.712,29.808 L154.956,14.112 L151.896,14.112 L152.58,29.808 L155.712,29.808 Z M144.552,14.112 L141.636,14.112 L140.916,29.772 L143.94,29.772 L144.552,14.112 Z M208.362,31.86 L201.018,23.58 L206.922,16.884 L206.922,12.42 L200.838,12.42 L200.838,7.704 L207.75,7.704 L207.75,4.32 L200.838,4.32 L200.838,0 L194.142,0 L194.142,4.32 L187.374,4.32 L187.374,7.704 L194.142,7.704 L194.142,12.42 L187.986,12.42 L187.986,15.84 L199.938,15.84 L197.166,19.188 L195.438,17.352 L187.77,17.352 L193.314,23.58 L186.114,31.86 L193.854,31.86 L197.202,28.044 L200.514,31.86 L208.362,31.86 Z M186.834,16.632 L186.834,12.636 L184.782,13.824 L184.782,8.46 L186.654,8.46 L186.654,5.004 L184.782,5.004 L184.782,0 L178.194,0 L178.194,5.004 L175.602,5.004 L175.602,8.46 L178.194,8.46 L178.194,17.712 L175.602,19.224 L175.602,23.292 L178.194,21.78 L178.194,28.44 L175.602,28.44 L177.078,31.86 L184.782,31.86 L184.782,17.892 L186.834,16.632 Z M242.904,16.308 L235.992,0.288 L228.504,0.288 L235.452,16.308 L242.904,16.308 Z M223.896,0.288 L216.408,0.288 L210.036,16.308 L217.632,16.308 L223.896,0.288 Z M242.58,31.752 L236.424,18.468 L229.044,18.468 L233.436,28.224 L220.044,28.224 L230.448,10.8 L222.564,10.8 L211.836,28.512 L211.836,31.752 L232.464,31.752 L233.868,29.196 L235.164,31.752 L242.58,31.752 Z M268.41,9.936 L268.41,6.516 L245.046,6.516 L245.046,9.936 L268.41,9.936 Z M276.078,31.788 L276.078,0.576 L246.126,0.576 L246.126,4.104 L269.382,4.104 L269.382,28.332 L261.318,28.332 L263.154,31.788 L276.078,31.788 Z M267.186,26.964 L267.186,12.564 L246.666,12.564 L246.666,26.964 L267.186,26.964 Z M260.526,23.472 L253.398,23.472 L253.398,15.948 L260.526,15.948 L260.526,23.472 Z" id="藝普創作科技公司"></path>
        </g>
    </g>
</svg>