<?xml version="1.0" encoding="UTF-8"?>
<svg width="273px" height="51px" viewBox="0 0 273 51" version="1.1" xmlns="http://www.w3.org/2000/svg" xmlns:xlink="http://www.w3.org/1999/xlink">
    <!-- Generator: Sketch 59.1 (86144) - https://sketch.com -->
    <title>Group 6</title>
    <desc>Created with Sketch.</desc>
    <g id="Amazon-Browser" stroke="none" stroke-width="1" fill="none" fill-rule="evenodd">
        <g id="Group-6" fill-rule="nonzero">
            <g id="paint1-copy-2">
                <path d="M160.934375,2.985 C160.97375,3.005 161.013125,3.025 161.065625,3.035 C161.02625,3.015 161,2.985 160.960625,2.965 L160.934375,2.985 Z" id="Path" fill="#C2C4C6"></path>
                <path d="M272.8596,9.55223027 C273.11387,9.40186682 273.000183,8.98494996 272.699504,8.92343764 C271.927278,8.77307418 271.117382,8.5611984 270.345156,8.90293353 C270.100303,9.01228877 269.949625,9.12164401 269.808364,8.88242942 C269.695355,8.69105775 269.817781,8.54069429 270.109721,8.49968608 C270.36399,8.45867786 270.674764,8.49968608 270.750103,8.22629798 C269.940208,8.00075279 269.149146,7.94607517 268.386337,8.2878103 C268.59352,8.64321483 269.036138,8.30147971 269.299825,8.50652078 C269.092642,8.84825591 268.706529,8.80041299 268.348668,8.74573537 C266.766545,8.49285138 265.165588,8.46551257 263.545796,8.52019019 C262.566387,8.5543637 261.577561,8.51335548 260.598152,8.51335548 C260.3533,8.51335548 260.051943,8.48601667 260.004856,8.30147971 C259.929517,8.04859571 260.306213,8.0075875 260.53223,7.91873636 C260.720578,7.84355463 260.927761,7.87772815 261.134943,7.91873636 C262.12377,8.10327333 263.150266,7.82305053 264.14851,8.0280916 C264.261518,8.04859571 264.402779,7.98708339 264.591127,7.95290988 C264.449866,7.77520761 264.374527,7.61117475 264.092005,7.58383594 C263.790649,7.55649713 263.63997,7.42663778 263.734144,7.2284314 C263.818901,7.05072914 263.969579,6.77050633 264.261518,6.84568806 C264.911319,7.00288622 265.598788,6.58596936 266.210919,6.961878 C266.333345,7.03705973 266.531111,6.961878 266.700624,6.9550433 C267.567024,6.92086979 268.226242,6.55179585 268.989051,6.31258126 C268.734781,5.96401143 268.367503,5.881995 267.934302,5.8888297 C267.425763,5.89566441 266.917224,5.89566441 266.399267,5.8888297 C266.201502,5.8888297 265.956649,5.92983792 265.871893,5.75213565 C265.777719,5.54709458 265.975484,5.40356582 266.17325,5.32838409 C266.832467,5.06183069 267.538772,4.89096313 268.310998,4.97981426 C268.715946,5.02765718 269.111477,5.09600421 269.572929,4.98664897 C269.469338,4.74059967 269.337494,4.49455038 269.610599,4.24166639 C269.789529,4.07079882 269.601181,3.7495678 269.959042,3.69489018 C268.263911,3.33265095 266.484024,3.40099797 264.722971,3.32581624 C263.611718,3.27797333 262.481631,3.26430392 261.389213,3.10710576 C259.420977,2.81321355 257.42449,2.70385831 255.446837,2.46464372 C254.947715,2.4031314 254.439176,2.30061086 253.940054,2.31428027 C252.160166,2.36895789 250.417948,2.12290859 248.666312,2.01355335 C248.195443,1.98621454 247.799912,1.98621454 247.394964,2.15024741 C246.90526,2.34161908 246.359051,2.49198253 245.841094,2.42363551 C244.466154,2.23909854 243.053545,2.36895789 241.678605,2.16391681 C241.235988,2.09556978 240.718031,2.05456157 240.058813,2.19809032 C240.539101,2.28694146 240.859292,2.30061086 241.113562,2.4099661 C241.923458,2.74486653 242.789858,2.74486653 243.684511,2.75170123 C244.645085,2.75853593 245.633911,2.79270945 246.406138,3.33265095 C246.509729,3.40783268 246.65099,3.40783268 246.792251,3.38732857 C247.696321,3.27797333 248.383791,3.77007191 249.231356,3.83841894 C249.560965,3.86575775 249.560965,4.11864174 249.259608,4.2690052 C249.07126,4.36469103 248.741652,4.35102163 248.656895,4.52188919 C248.412043,5.01398778 247.875251,4.91830194 247.376129,4.88412843 C244.814598,4.69959146 242.253067,4.69275676 239.682118,4.69959146 C238.429604,4.70642616 237.205343,4.63124443 236.047003,4.26217049 C235.924577,4.22116228 235.783316,4.19382347 235.651473,4.20749287 C234.408377,4.29634401 233.20295,3.98878239 231.922184,4.13914585 C230.613166,4.28950931 229.247644,3.9956171 227.891539,4.04346001 C226.639026,4.08446823 225.386512,3.92043537 224.133999,3.89309656 C222.966242,3.87259245 221.770233,4.09130293 220.62131,3.77690661 C220.508302,3.7427331 220.357623,3.78374132 220.216362,3.79057602 C218.992101,3.83158423 217.76784,3.78374132 216.552996,3.72222899 C215.432326,3.66755137 214.311656,3.59236964 213.190986,3.57186554 C211.703037,3.54452673 210.196254,3.56503083 208.717723,3.51718792 C206.353957,3.44200619 203.980774,3.4625103 201.617007,3.38049387 C200.034885,3.32581624 198.452763,3.31214684 196.861223,3.25063452 C195.401527,3.1959569 193.951248,3.09343636 192.491552,3.01825463 C190.156038,2.90206469 187.811107,2.87472588 185.466175,2.86789117 C185.315497,2.86789117 185.155401,2.84055236 185.004723,2.82004826 C185.117732,3.01141993 185.362584,3.03192403 185.588601,3.00458522 C186.407915,2.90206469 187.151889,3.30531214 187.98062,3.15494868 C188.150133,3.12077517 188.41382,3.2027916 188.41382,3.39416327 C188.41382,3.58553494 188.187802,3.59920435 187.98062,3.62654316 C187.782854,3.64704726 187.538002,3.4830144 187.359072,3.68805548 C187.669846,4.02295591 188.121881,3.81791483 188.489159,3.85208834 C188.715176,3.87259245 188.903524,3.89993126 188.922359,4.08446823 C188.941194,4.26217049 188.771681,4.34418693 188.555081,4.37836044 C188.423237,4.39886455 188.281976,4.42620336 188.150133,4.42620336 C186.549176,4.42620336 184.919966,4.38519514 183.394348,4.09130293 C182.518531,3.92727007 181.6898,3.87942715 180.832817,3.87259245 C179.147103,3.85892304 177.46139,3.80424542 175.785093,3.66071667 C174.268893,3.53085732 172.76211,3.26430392 171.227074,3.31214684 C170.44543,3.33948565 169.710874,3.37365916 168.92923,3.14127928 C168.373603,2.97724641 167.610795,2.90889939 167.036333,3.09343636 C166.386533,3.29847743 165.887411,3.52402262 165.482463,2.90889939 C165.463628,2.88156058 165.35062,2.86105647 165.294115,2.86789117 C164.493637,3.01141993 163.683741,2.97724641 162.873845,2.92256879 C162.647827,2.90889939 162.534819,3.05242814 162.412393,3.17545279 C162.299384,3.29164273 162.158123,3.34632035 161.979192,3.29164273 C162.092201,3.36682446 162.186375,3.45567559 162.402975,3.43517149 C162.911514,3.39416327 163.269375,3.59920435 163.777915,3.97511299 C163.090445,3.9956171 162.67608,4.18698877 162.129871,4.04346001 C161.329392,3.83158423 160.547748,3.57870024 159.662513,3.58553494 C159.502417,3.58553494 159.31407,3.51718792 159.31407,3.36682446 C159.31407,3.16861809 159.53067,3.14811398 159.737852,3.13444457 C159.982705,3.11394047 160.246392,3.33948565 160.557166,3.01141993 C159.201061,2.75170123 157.920295,2.48514783 156.488851,2.98408112 C156.81846,3.13444457 157.119817,3.2096263 157.326999,3.10027106 C157.863791,2.81321355 158.108643,3.09343636 158.447669,3.35998976 C158.15573,3.51718792 157.920295,3.96144358 157.618939,3.79057602 C156.969138,3.41466738 156.309921,3.79057602 155.678955,3.62654316 C155.405851,3.55819613 155.057407,3.58553494 154.812555,3.75640251 C154.511198,3.96827828 154.14392,3.94777418 153.767224,3.94093947 C152.034423,3.92043537 150.31104,3.91360066 148.578239,3.91360066 C148.003778,3.91360066 147.438735,3.98194769 146.854856,3.93410477 C145.479916,3.83158423 144.095559,3.70172489 142.72062,3.68805548 C140.855976,3.66755137 139.000749,3.79057602 137.136105,3.78374132 C135.280878,3.77690661 133.435068,3.89309656 131.579842,3.80424542 C129.216075,3.68805548 126.833475,3.76323721 124.460291,3.7495678 C122.586229,3.7358984 120.721585,3.7358984 118.866358,3.52402262 C117.519671,3.37365916 116.154149,3.27797333 114.798044,3.33265095 C112.048165,3.44200619 109.31712,3.23696511 106.576658,3.216461 C105.493658,3.2096263 104.40124,3.16178338 103.318239,3.16861809 C100.897969,3.17545279 98.4871159,3.26430392 96.0668454,3.2027916 C94.268123,3.16178338 92.4694006,3.22329571 90.6706781,3.15494868 C89.2863211,3.10027106 87.901964,3.2096263 86.517607,3.216461 C85.8960589,3.216461 85.3310152,3.02508933 84.7000498,3.08660166 C82.6470577,3.29847743 80.5752308,3.37365916 78.5034039,3.33948565 C75.9512899,3.29847743 73.4462629,3.66755137 70.9035662,3.72222899 C69.3779483,3.75640251 67.8523303,3.98194769 66.3361297,3.93410477 C64.2548854,3.86575775 62.2018933,4.09130293 60.1300665,4.08446823 C58.8022138,4.07763353 57.4837785,4.25533579 56.1559258,4.20065817 C55.7886474,4.18698877 55.374282,4.25533579 55.4119516,3.80424542 C55.4307864,3.61970845 55.1765167,3.70172489 55.0258384,3.70172489 C54.2441946,3.68122078 53.4625509,3.69489018 52.6809071,3.7427331 C51.0140282,3.85208834 49.3377319,3.45567559 47.6520182,3.81108013 C47.0963919,3.92727007 46.4465917,3.94093947 45.834461,3.96827828 C44.1393299,4.02979061 42.425364,3.97511299 40.7773199,4.37152574 C40.683146,4.39202984 40.5701372,4.39886455 40.4759633,4.39202984 C38.8185018,4.30317871 37.1704577,4.36469103 35.5224136,4.44670746 C35.1645526,4.46721157 34.8349437,4.43987276 34.7031002,4.13914585 C34.6560132,4.03662531 34.5618393,3.96144358 34.4205784,3.94093947 C33.4034997,3.79741072 32.3581689,3.45567559 31.3881772,3.55136143 C29.4481939,3.7427331 27.5176279,3.64021256 25.587062,3.71539429 C24.8901747,3.7427331 24.0991136,3.36682446 24.0896962,3.01825463 C24.0802788,2.60133777 23.8165917,2.58766837 23.3833915,2.60133777 C21.5564169,2.6765195 19.7200249,2.74486653 17.9213025,3.03875874 C17.5634415,3.10027106 17.2055805,3.12760987 16.8194673,3.08660166 C16.0566583,3.01141993 15.3032667,2.88839528 14.5122055,2.99091582 C14.0601706,3.05242814 13.5704661,3.02508933 13.1749355,2.75853593 C12.996005,2.64234599 12.7134831,2.49198253 12.4592135,2.71752772 C12.1672742,2.98408112 11.8094132,2.9430729 11.4421348,2.84055236 C11.0277694,2.72436242 10.7829172,2.73803182 10.6134041,3.11394047 C10.4344736,3.51035321 10.1331169,3.54452673 9.53040364,3.36682446 C9.04069911,3.22329571 8.58866415,3.27113862 8.21196836,3.53769202 C7.88235953,3.77007191 7.55275071,3.96144358 7.07246357,3.97511299 C6.82761131,3.98194769 6.70518517,4.07763353 6.75227215,4.26217049 C6.77110694,4.35785633 6.78994173,4.48771568 6.62984601,4.52188919 C5.83878484,4.69959146 5.20781938,5.02082248 4.73694964,5.51975577 C4.68986266,5.56759868 4.54860174,5.56759868 4.45442779,5.59493749 C3.85171452,5.76580506 3.84229712,5.77263976 4.17190594,6.18955662 C4.39792342,6.48344883 4.76520182,6.75000223 4.96296711,7.00972092 C5.1795672,7.28994373 5.33024552,7.67268707 5.52801081,8.00075279 C5.79169787,8.45184316 5.75402829,8.51335548 5.11364543,8.48601667 C4.83112359,8.47234727 4.58627132,8.45867786 4.41675821,8.65004954 C4.49209737,8.77990888 4.63335829,8.75940478 4.76520182,8.75257007 C5.1701498,8.72523126 5.58451518,8.69105775 5.98004576,8.80041299 C6.30965459,8.89609883 6.62984601,9.05329699 6.56392425,9.33351979 C6.49800248,9.64108141 6.11188929,9.55906498 5.81053266,9.55906498 C5.74461089,9.55906498 5.65985434,9.52489146 5.61276736,9.53856087 C5.06655846,9.70259373 4.33200166,9.59323849 4.09656678,10.201527 C3.96472325,10.5432621 3.48443611,10.7004603 2.98531418,10.7688073 C2.5897836,10.8234849 2.19425301,10.891832 1.80813982,10.9806831 C1.16775697,11.1310466 1.1112526,11.1993936 1.28076571,11.6846575 C1.52561797,12.3749624 1.76105285,13.0721021 2.31667915,13.6803906 C2.62745318,14.015291 2.44852268,14.2818444 1.98707032,14.2203321 C1.15833957,14.1109769 0.734556803,14.5483978 0,14.7671083 C0.51795672,14.9174718 0.932322095,14.9243065 1.25251352,15.143017 C2.11891385,15.7376361 1.8552268,16.5304616 2.0341573,17.2481054 C2.06240948,17.3642953 1.87406159,17.4463117 1.74221806,17.5351629 C0.922904701,18.0682697 0.951156885,19.1959956 1.83639201,19.6265818 C2.27900957,19.8452923 2.53327923,20.1596886 2.90055763,20.4125726 C3.18307948,20.6039443 3.12657511,20.7679772 2.957062,21.0003571 C2.60861839,21.4719515 2.74987931,21.8683643 3.40909696,22.0870748 C3.82346233,22.2237688 4.03064502,22.4356446 4.22841031,22.702198 C5.01005409,23.713734 5.57509778,24.793617 6.20606324,25.8598306 C6.52625467,26.3997721 7.18547231,26.7893501 7.392655,27.3908039 C7.54333332,27.8350596 7.90119432,28.217803 8.43798583,28.539034 C8.8617686,28.791918 9.29496877,29.0994796 9.49273406,29.5163964 C10.0295256,30.6441224 10.7358302,31.7035013 11.9412567,32.537335 C12.3179525,32.7970537 12.3838743,32.9679212 11.9695089,33.2549787 C11.3856304,33.6582262 11.0842738,34.1844983 10.9995172,34.765448 C10.9712651,34.9431503 10.9524303,35.1140178 10.8205867,35.2643813 C10.4533083,35.6676287 10.3214648,36.0435374 10.8582563,36.4536195 C11.0842738,36.6313218 11.159613,36.8705364 10.6981606,37.0482387 C10.1236995,37.2737838 9.85059507,37.7112048 9.92593423,38.1691299 C10.0106908,38.6202202 9.73758633,38.8731042 9.40797751,39.2080047 C8.8617686,39.7616156 8.35322928,40.3699041 8.25905533,41.0738785 C8.22138575,41.3677707 8.3249771,41.6479935 7.95769869,41.8803734 C7.79760298,41.9828939 7.77876819,42.1811003 7.92944651,42.2904555 C8.3155597,42.5706783 8.52274239,42.9397523 8.84293381,43.2473139 C8.90885558,43.3088262 9.45506448,44.279354 9.43622969,44.3545357 C9.25729919,44.921816 9.69049936,45.5027657 9.27613398,46.0837154 C9.03128171,46.4254506 9.73758633,46.9312186 10.2743778,46.828698 C11.2443695,46.6509957 12.2708656,46.7125081 13.1937703,46.3434341 C13.5233791,46.2135748 13.9848314,46.2409136 14.3709446,46.1383931 C14.6911361,46.0563766 14.8700666,46.1725666 14.9359883,46.4117812 C15.0489971,46.8150286 15.3409363,47.1430943 15.7364669,47.5053336 C15.811806,47.3618048 15.858893,47.3002925 15.8871452,47.2319455 C16.2073366,46.3844423 16.4898585,46.2204095 17.7047024,46.2477483 C17.9495547,46.254583 18.0719808,46.1657319 18.1755722,46.0290378 C18.2697461,45.8991785 18.3356679,45.7351456 18.6087723,45.7829885 C18.9007116,45.8376661 18.9195464,46.0222031 18.9666333,46.1930707 C19.0325551,46.4117812 19.0137203,46.6304916 18.9383812,46.8492021 C18.8253724,47.1909372 18.9007116,47.5326724 19.0702247,47.8675728 C19.2020682,48.1272915 19.3809987,48.2229773 19.7953641,48.2639856 C20.8595297,48.3733408 21.8766084,48.2981591 22.893687,48.0589445 C23.2421306,47.976928 23.5999916,48.0452751 23.7130004,48.3391673 C23.8071743,48.5920513 23.609409,48.7765882 23.251548,48.8107618 C22.6959217,48.8654394 22.7712609,49.1183234 22.8371826,49.5147361 C23.1762089,49.104654 23.5529047,48.8927782 24.0802788,49.0021334 C24.7677486,49.1456622 24.3628006,49.6445955 24.6359051,50 C25.0973574,49.6582649 25.6247315,49.6035873 26.20861,49.7607854 C26.5476362,49.8496365 26.8772451,49.7949589 27.2068539,49.7129425 C28.1015064,49.494232 29.0338285,49.3165297 29.8060549,48.9064476 C30.0320723,48.7902576 30.239255,48.8244312 30.4841073,48.8449353 C31.3316728,48.9064476 31.3975946,48.8654394 31.5953599,48.2093079 C31.6801165,47.9290851 31.859047,47.8744075 32.1604036,48.0179363 C32.4900124,48.1751344 32.7913691,48.3870102 33.2622388,48.3118285 C32.8572908,47.8470687 32.8949604,47.724044 33.4317519,47.724044 C34.816109,47.7172093 36.1251269,48.0111016 37.6978318,48.2434814 C36.4453183,48.7424147 35.3434831,48.3186632 34.0721348,48.4280184 C34.6089263,48.6125554 34.9479525,48.667233 35.2775613,48.6193901 C36.0686225,48.5032001 36.8502663,48.6535636 37.6036579,48.7424147 C38.1027798,48.8039271 38.6019017,48.8449353 39.1010236,48.8381006 C39.4871368,48.8312659 39.8355804,48.8791088 40.2028588,48.9406211 C41.803816,49.2003398 43.3953557,49.3643727 44.9115563,48.7014065 C45.0904868,48.6193901 45.3165043,48.6877371 45.5048522,48.667233 C46.2299916,48.5852166 46.9928006,48.7765882 47.6896878,48.5510431 C48.2641489,48.3596714 48.8762796,48.3596714 49.4884102,48.3254979 C51.9651851,48.1682997 54.4419599,48.4211837 56.9187348,48.4006796 C58.3407614,48.3870102 59.7722055,48.3254979 61.1848147,48.5032001 C61.5144235,48.5442084 61.740441,48.4211837 62.1171368,48.2161426 C60.3466665,48.1067874 58.7645442,47.8470687 57.1353349,47.9359198 C56.6267956,47.9632586 55.9864127,47.8265646 55.6379691,48.0042669 C55.0729254,48.2844897 54.5926383,48.0794486 54.0840989,48.0794486 C53.9145858,48.0794486 53.7356553,48.0521098 53.6697336,47.9154157 C53.5943944,47.7377135 53.7639075,47.6351929 53.9334206,47.5600112 C54.0746815,47.4984989 54.2441946,47.4643254 54.4137078,47.4438212 C55.2141863,47.3549701 56.0052475,47.2729537 56.8245609,47.3071272 C57.6721264,47.3481354 58.5385267,47.3686395 59.3672575,47.266119 C61.2978234,47.0337391 63.2283894,47.0679126 65.1683727,47.0405738 C65.3755554,47.0405738 65.6109903,47.0337391 65.7428338,47.1567637 C66.0724426,47.4574906 66.5150602,47.4096477 66.9576778,47.4301518 C67.7299041,47.4574906 68.4832957,47.3481354 69.2743569,47.402813 C69.7169745,47.4301518 70.1784268,47.6010194 70.6210444,47.5258377 C71.7888014,47.3276313 72.9753931,47.3207966 74.1619849,47.3002925 C74.7270286,47.2934578 75.2261505,47.2182761 75.7252724,46.8013592 C74.4068371,47.1635984 73.2014106,46.897045 71.9865666,46.9312186 C70.7905575,46.9653921 69.5662962,47.2114414 68.1442695,46.8492021 C68.7846524,46.6509957 69.0671742,46.2409136 69.5945483,46.3844423 C70.159592,46.5348058 70.5362878,46.5689793 70.658714,46.0427072 C70.6681314,45.9948643 70.8188097,45.9265173 70.9035662,45.9265173 C71.5251143,45.933352 72.2408363,45.6052863 72.7211234,46.1930707 C72.8623844,46.3639382 73.1354888,46.3160953 73.3803411,46.2955912 C74.1902371,46.2340789 75.0095504,46.254583 75.810029,46.2067401 C77.8441863,46.0837154 79.9536827,46.507467 81.9125009,45.817162 C83.5699624,45.7351456 85.1897543,45.3934105 86.875468,45.4617575 C87.1768246,45.4754269 87.6759466,45.5096004 87.7512857,45.4070799 C88.1373989,44.9149813 88.7495296,45.1200224 89.2769037,45.0516753 C89.8419474,44.9833283 90.4352433,45.0311712 91.000287,44.990163 C93.6842445,44.7987914 96.3682021,44.8192955 99.0521596,44.7919567 C100.069238,44.7851219 101.095734,44.7714525 102.112813,44.737279 C102.508344,44.7236096 103.016883,44.8056261 103.092222,44.3066928 C103.120474,44.1289905 103.572509,44.0469741 103.798527,44.1289905 C104.608423,44.4092133 105.427736,44.0743129 106.265884,44.2041722 C107.160537,44.347701 108.139946,44.1836681 109.081685,44.1563293 C109.57139,44.1426599 110.023425,44.0811476 110.409538,43.8487677 C110.710894,43.6642307 111.097008,43.6232225 111.473703,43.6779001 C111.888069,43.7394125 112.283599,43.7052389 112.688547,43.6847348 C113.809217,43.6300572 114.929887,43.5958837 116.050557,43.5412061 C118.084715,43.4455202 120.118872,43.5412061 122.162447,43.3703385 C123.123021,43.2883221 124.130682,42.8782399 125.138343,43.267818 C125.194848,43.2883221 125.336109,43.2336445 125.420865,43.199471 C125.8729,42.9670911 126.400274,43.014934 126.908814,43.0012646 C129.395006,42.946587 131.871781,42.9534217 134.348556,43.1584627 C134.753504,43.1926363 135.139617,43.2814874 135.5634,43.2541486 C137.211444,43.1311239 138.868905,43.1311239 140.516949,43.2746527 C141.402184,43.3498344 142.268585,43.3293303 143.15382,43.2541486 C144.152064,43.1652974 145.187977,43.0764463 146.157969,43.4386855 C146.327482,43.5001979 146.553499,43.520702 146.751265,43.5138673 C147.693004,43.4865285 148.625326,43.4250161 149.567066,43.4250161 C150.621814,43.4250161 151.695397,43.3908426 152.712476,43.5343714 C153.964989,43.7120736 155.208085,43.657396 156.451182,43.6505613 C157.157486,43.6505613 157.863791,43.5753796 158.570095,43.7120736 C158.758443,43.7462472 158.975043,43.7462472 159.172809,43.7257431 C159.982705,43.6437266 160.802018,43.6779001 161.602497,43.7257431 C163.372967,43.8350983 165.13402,43.8145942 166.895072,43.7599166 C168.317099,43.7189084 169.748543,43.6642307 171.17057,43.7052389 C173.647345,43.7804207 176.105285,43.9512882 178.591477,43.7804207 C180.540878,43.6437266 182.509113,43.5958837 184.467931,43.5070326 C184.844627,43.4933632 185.193071,43.4181814 185.550932,43.3635038 C186.257236,43.2609833 186.935289,43.1037851 187.698098,43.1106198 C189.148377,43.1311239 190.645742,43.1379586 192.039517,42.8919093 C193.216691,42.6800336 194.337361,42.4271496 195.57104,42.4613231 C196.616371,42.4886619 197.708789,42.2836208 198.71645,42.4203149 C199.761781,42.5638436 200.797694,42.64586 201.843025,42.6663642 C202.671756,42.6868683 203.330973,43.0969504 204.159704,43.1037851 C204.734165,43.1106198 205.336878,43.0764463 205.883087,43.1858016 C207.088514,43.4386855 208.312775,43.5070326 209.546454,43.5343714 C211.00615,43.5617102 212.494099,43.4386855 213.878456,43.8692718 C214.867282,44.1768334 215.856109,44.1973375 216.892022,44.1289905 C217.438231,44.094817 217.956188,44.2656846 218.483562,44.3408663 C219.632484,44.4980644 220.83791,44.3135275 221.920911,44.5937503 C223.776138,45.0653448 225.725538,44.9628242 227.618435,45.2362123 C228.899201,45.4207493 230.245888,45.4412534 231.573741,45.4890963 C232.863924,45.5369392 234.144689,45.5711127 235.44429,45.5437739 C236.357777,45.5232698 237.280682,45.5847821 238.184752,45.7009721 C239.512605,45.865005 239.842213,45.8581703 240.953466,45.3182287 C241.170066,45.2157082 241.405501,45.2088735 241.640936,45.243047 C242.592093,45.3934105 243.524415,45.0790142 244.475572,45.2088735 C244.673337,45.2362123 244.955859,45.1883694 244.927607,45.0038324 C244.84285,44.5595768 245.153624,44.4980644 245.643329,44.532238 C245.803424,44.5459074 245.972937,44.4980644 245.991772,44.3340316 C245.662163,44.0811476 245.181876,44.2930234 244.833433,44.1563293 C243.825771,43.773586 242.723936,43.8761065 241.659771,43.8145942 C241.367831,43.7940901 241.094727,43.841933 241.08531,43.5548755 C241.075892,43.3156609 241.160649,43.1037851 241.556179,43.0696116 C241.857536,43.0422728 242.16831,43.0217687 242.469667,43.0217687 C244.758094,43.014934 247.055938,43.2063057 249.344365,43.0627769 C249.344365,42.2699514 249.32553,42.2289432 248.308451,42.1469268 C247.639816,42.0990838 247.018268,41.8735387 246.311964,41.9555551 C246.048277,41.9897286 245.671581,41.866704 245.53032,41.565977 C246.038859,41.3814401 246.509729,41.4907953 246.971181,41.5112994 C247.234868,41.5181341 247.33846,41.4224483 247.413799,41.2789195 C247.51739,41.0807132 247.30079,41.0123661 247.112442,40.9645232 C246.415555,40.7799863 245.690416,40.670631 244.955859,40.5749452 C244.729841,40.5476064 244.466154,40.5476064 244.475572,40.2468795 C245.210129,40.0896813 246.085946,40.1922018 246.698077,39.7411115 C246.726329,39.7206074 246.820503,39.7547809 246.886425,39.7684503 C247.055938,39.8094585 247.244286,39.8231279 247.291373,39.6659297 C247.33846,39.5155663 247.150112,39.454054 246.980599,39.4335498 C246.848755,39.4130457 246.707494,39.4267151 246.575651,39.4130457 C246.39672,39.3925416 246.264877,39.3173599 246.246042,39.1738312 C246.21779,38.9892942 246.283712,38.8184266 246.500312,38.7159061 C246.65099,38.6407244 246.848755,38.6680632 246.961764,38.7774184 C247.347877,39.1669964 247.865834,39.0508065 248.214277,38.8457654 C248.713399,38.5518732 249.240774,38.5928814 249.626887,38.7842531 C250.182513,39.0576412 250.606296,38.8799389 251.048913,38.7227408 C251.491531,38.5655426 251.510366,38.3878404 251.105418,38.1144523 C250.954739,38.0119317 250.766392,37.9230806 250.738139,37.7727171 C250.6628,37.4173126 250.40853,37.2669491 249.899991,37.3079574 C249.749313,37.3216268 249.570382,37.2532797 249.419704,37.1986021 C249.156017,37.0960816 249.203104,36.9115446 249.212521,36.740677 C249.221939,36.5698095 249.391452,36.5971483 249.560965,36.5629748 C250.135426,36.4399501 250.70047,36.2759173 251.265513,36.1255538 C251.482114,36.0640415 251.548035,35.9273474 251.5292,35.7633146 C251.482114,35.4215794 251.425609,35.0798443 251.38794,34.7312745 C251.35027,34.4305476 251.143087,34.2528453 250.719305,34.3211923 C250.352026,34.3827047 250.078922,34.3143576 249.994165,34.075143 C249.899991,33.8290938 249.532713,33.8017549 249.400869,33.6035486 C249.683391,33.2686481 250.248435,33.2139705 250.549791,32.8859048 C251.38794,31.9700547 252.913558,31.8812035 253.996558,32.6603596 C254.439176,32.9747559 255.023054,33.1319541 255.559846,33.0567724 C256.030715,32.9884253 256.416828,32.9132436 256.850029,33.11145 C257.000707,33.179797 257.273811,33.2344746 257.367985,33.043103 C257.471577,32.8243925 257.245559,32.7697149 256.99129,32.7013678 C256.30382,32.5031615 255.823533,32.1545916 255.672854,31.6419889 C255.814115,31.4984602 255.945959,31.5326337 256.08722,31.5326337 C256.91595,31.5394684 257.019542,31.4642867 257.000707,30.8491634 C256.99129,30.4185772 257.584585,30.0905115 258.196716,30.2272055 C258.450986,30.2818831 258.695838,30.4322466 258.968942,30.3570649 C259.364473,30.2477096 259.684664,30.3092219 259.995439,30.5005936 C260.193204,30.6236183 260.419221,30.6988 260.588734,30.4869242 C260.767665,30.2682137 260.513395,30.1793626 260.306213,30.0973462 C260.193204,30.0495032 260.070778,29.9948256 259.938934,29.9811562 C259.279716,29.8991398 259.063116,29.5847435 259.053699,29.1473225 C259.986021,28.9627855 260.871256,28.8260915 261.351543,29.9196439 C261.624648,29.113149 262.0861,28.7987527 262.961918,28.9696202 C263.037257,28.9832896 263.187935,28.9491161 263.235022,28.8944385 C263.630553,28.4706869 264.242684,28.6483892 265.005493,28.6347198 C264.299188,28.4091746 264.073171,28.0537701 263.715309,27.7940514 C263.46104,27.6026797 263.592883,27.4113081 263.960162,27.4113081 C264.299188,27.4113081 264.628797,27.459151 264.920736,27.274614 C265.363354,26.9943912 265.871893,26.9328789 266.446354,26.9807218 C266.757128,27.0080606 267.067902,26.9738871 267.425763,26.9670524 C267.284502,26.7961848 267.124406,26.7620113 266.964311,26.7210031 C266.634702,26.6389867 266.088493,26.7073337 266.210919,26.2972515 C266.31451,25.9486817 265.645875,25.8529959 265.843641,25.5112607 C266.13558,25.0054928 266.229754,24.4313777 266.917224,24.0759732 C267.397511,23.8299239 267.51052,23.3036518 267.077319,23.091776 C266.728876,22.9209085 266.738293,22.7158674 266.597032,22.5039916 C266.342763,22.0939095 266.276841,21.622315 265.730632,21.2805799 C266.003736,21.2190675 266.182667,21.1712246 266.380432,21.1302164 C265.862476,20.8841671 265.127919,21.116547 264.609962,20.6927954 C265.240927,20.5629361 265.787136,20.4535809 266.342763,20.3373909 C265.805971,19.7974494 266.079076,19.5582348 267.331589,18.8815993 C266.879554,18.7859134 266.465189,18.6765582 266.031989,18.7312358 C265.476362,18.8064175 265.184423,18.5672029 264.996075,18.2733107 C264.817145,17.9862532 265.316267,17.9520797 265.457528,17.7812122 C265.824806,17.3506259 266.465189,17.4189729 266.992563,17.2891136 C267.124406,17.2549401 267.265667,17.2002624 267.246833,17.0909072 C267.209163,16.9200396 267.011398,16.9200396 266.851302,16.9747172 C266.144997,17.2002624 265.410441,17.2617748 264.657049,17.1455848 C264.073171,17.0567337 263.498709,16.9063702 262.933666,17.2070971 C262.858327,17.2481054 262.669979,17.1592542 262.547553,17.1729236 C261.794161,17.2686095 261.125526,16.8858661 260.3533,16.9678825 C260.070778,17.0020561 259.807091,16.7423374 259.769421,16.5372963 C259.722334,16.2844123 260.089612,16.2023959 260.343882,16.2365694 C260.918343,16.3117511 261.502222,16.1477182 262.057848,16.3254205 C262.3027,16.4074369 262.575805,16.4074369 262.77357,16.2570735 C262.745318,16.10671 262.632309,16.0520324 262.509883,16.0041895 C262.359205,15.9495119 262.170857,15.9085037 262.217944,15.7513055 C262.255613,15.5941073 262.453379,15.600942 262.613474,15.5736032 C262.858327,15.5257603 263.169101,15.6077767 263.366866,15.3207192 C262.943083,15.2660416 262.717066,15.0063229 262.34037,14.890133 C261.568143,14.6440837 261.568143,14.637249 261.935422,14.0699687 C262.293283,13.5163578 262.453379,13.4753495 263.263275,13.6598865 C263.875405,13.8034153 264.496953,13.9127705 265.203258,13.9332746 C265.061997,13.7419029 264.704136,13.6872253 264.770058,13.5026884 C264.854814,13.2703085 265.165588,13.3933331 265.382188,13.3796637 C266.088493,13.3181514 266.82305,13.3249861 267.491685,13.1814573 C268.791285,12.9012345 270.109721,12.682524 271.456408,12.5800035 C271.682426,12.5594994 271.927278,12.5389953 272.021452,12.3339542 C271.418739,12.2519378 270.844277,12.1152437 270.232147,12.108409 C269.902538,12.108409 269.610599,11.9922191 269.582347,11.7325004 C269.554094,11.5137899 269.864868,11.5001205 270.062634,11.4112694 C270.65593,11.144716 271.258643,10.9396749 271.974365,10.9943525 C272.087374,11.0011872 272.256887,11.0148566 272.266304,10.8166502 C271.494078,10.570601 270.505251,11.0080219 269.695355,10.4749151 C270.36399,10.1878576 271.032625,10.1673535 271.654173,10.1400147 C272.190965,10.0785024 272.482904,9.77777546 272.8596,9.55223027 Z M247.978843,36.7816853 C247.875251,36.9662222 247.658651,36.925214 247.376129,36.9320487 C247.103025,36.8910405 246.745164,36.856867 246.39672,36.7816853 C246.227207,36.7475117 246.133033,36.6176524 246.161285,36.4946277 C246.189538,36.3647684 246.359051,36.2690826 246.528564,36.2964214 C246.980599,36.3579337 247.432634,36.4467848 247.865834,36.5424707 C247.997677,36.5698095 248.035347,36.67233 247.978843,36.7816853 Z M248.816991,37.7795518 C248.713399,37.7658824 248.647478,37.7112048 248.685147,37.6360231 C248.703982,37.6018496 248.788739,37.5745108 248.845243,37.5745108 C248.939417,37.5676761 249.024173,37.5950149 249.033591,37.683866 C249.005339,37.7590477 248.920582,37.7932212 248.816991,37.7795518 Z" id="Shape" fill="#499CEE"></path>
                <path d="M178.995078,3 C178.995078,3 178.995078,3 178.995078,3 L178.995078,3 C179.008203,3 179.008203,3 178.995078,3 Z" id="Path" fill="#C2C4C6"></path>
                <path d="M178.788171,2.77931034 C178.017882,2.83448276 177.26685,2.66896552 176.50619,2.64137931 C174.291609,2.55862069 172.0674,2.66206897 169.862448,2.45517241 C169.554333,2.42758621 169.236589,2.44827586 168.918845,2.45517241 C167.667125,2.47586207 166.405777,2.46206897 165.173315,2.39310345 C163.237964,2.28275862 161.292985,2.13103448 159.357634,2.11724138 C156.594223,2.08965517 153.821183,2.07586207 151,2 C151.259972,2.20689655 151.548831,2.17241379 151.808803,2.16551724 C152.887208,2.14482759 153.955983,2.23448276 155.024759,2.28965517 C157.9326,2.44137931 160.859697,2.42068966 163.767538,2.57931034 C165.808803,2.68965517 167.859697,2.66206897 169.910591,2.70344828 C172.259972,2.75172414 174.609354,2.8137931 176.949106,2.88275862 C177.632737,2.90344828 178.345254,2.75172414 179,3 C178.971114,2.90344828 178.951857,2.76551724 178.788171,2.77931034 Z" id="Path" fill="#C2C4C6"></path>
                <path d="M83.7475728,2.63870181 C84.4368932,2.66093554 85.1359223,2.62758494 85.815534,2.74987048 C87.0097087,2.9833247 88.1941748,3.28348012 89.3106796,2.44971506 C89.5533981,2.26072832 89.8349515,2.27184518 90.1165049,2.27184518 C90.368932,2.27184518 90.6504854,2.42748133 91,2.08285844 C90.4563107,2.0606247 90.0485437,1.94945603 89.592233,2.0272741 C88.3300971,2.24961145 87.0873786,2.70540301 85.776699,2.36078012 C85.5145631,2.29407892 85.223301,2.38301386 84.9417476,2.4385982 C84.2912621,2.56088374 83.6407767,2.54976687 83,2.38301386 C83.2038835,2.67205241 83.4757282,2.62758494 83.7475728,2.63870181 Z" id="Path" fill="#C2C4C6"></path>
                <path d="M84.02625,2.01 C84.013125,2 84.013125,2 84,1.99 L83.97375,2.01 C83.986875,2.01 84.013125,2.01 84.02625,2.01 Z" id="Path" fill="#C2C4C6"></path>
                <path d="M55.4315789,1.71506929 C57.5894737,1.601097 59.7473684,1.43013857 62,1.07397518 C59.3894737,0.81753754 56.9157895,1.28767322 54.4210526,1.57260393 C54.2,1.601097 54.1052632,1.8005485 54,2 C54.4421053,1.64383661 54.9473684,1.74356236 55.4315789,1.71506929 Z" id="Path" fill="#C2C4C6"></path>
                <path d="M55.0049219,1.99777778 C54.9917969,1.99777778 54.9917969,1.99777778 55.0049219,1.99777778 L55.0049219,1.99777778 C54.9917969,2.00777778 54.9917969,1.99777778 55.0049219,1.99777778 Z" id="Path" fill="#C2C4C6"></path>
                <path d="M184.934375,3.005 C184.960625,3.005 184.986875,3.005 185.013125,3.005 C185.013125,3.005 185.013125,3.005 185.013125,3.005 C185.02625,3.005 185.039375,3.005 185.065625,3.015 C185.065625,3.005 185.0525,2.995 185.0525,2.985 C185.013125,2.995 184.97375,2.995 184.934375,3.005 Z" id="Path" fill="#C2C4C6"></path>
                <path d="M178,2.40798939 C178.958599,2.37134745 179.906051,2.32249151 180.853503,2.32249151 C181.388535,2.32249151 181.979299,2.20035169 182.35828,2.84769278 C182.469745,3.0431165 182.714968,3.03090252 182.904459,2.92097667 C183.562102,2.5423432 184.308917,2.59119914 185,2.40798939 C183.071656,2.28584957 181.143312,2.16370974 179.214968,2.00492796 C178.757962,1.96828601 178.367834,2.13928177 178,2.40798939 Z" id="Path" fill="#C2C4C6"></path>
                <path d="M124.567407,1.03535098 C125.168889,1.03535098 125.77037,1.06263452 126.361481,1.03535098 C126.900741,1.01488833 127.481481,1.16494777 128,0.960321264 C125.645926,1.05581364 123.302222,0.878470659 121,0.946679496 C121.591111,0.980783915 122.182222,1.03535098 122.773333,1.05581364 C123.374815,1.0694554 123.965926,1.04217187 124.567407,1.03535098 Z" id="Path" fill="#C2C4C6"></path>
                <path d="M14.5832332,47.5434653 C13.9530005,47.3878284 13.3126027,47.2218158 12.68237,47.0661789 C12.4790691,47.0143 12.2351081,46.9105421 12.0927975,47.1595611 C11.9708169,47.3567011 11.9708169,47.5953442 12.0826324,47.80286 C12.224943,48.0622547 12.4892342,47.9688726 12.672205,47.9066179 C13.4650784,47.6160958 14.2376217,47.7613568 15,48 C14.9593398,47.7509811 14.8170292,47.60572 14.5832332,47.5434653 Z" id="Path" fill="#C2C4C6"></path>
                <path d="M13.9970833,48 C13.9970833,48 13.9970833,48 13.9970833,48 C13.9970833,48 13.9970833,48 13.9970833,48 C13.9970833,48 14.0102083,48 13.9970833,48 C13.9970833,48 13.9970833,48 13.9970833,48 C13.9970833,48 13.9970833,48 13.9970833,48 Z" id="Path" fill="#C2C4C6"></path>
                <path d="M151,2.05736207 C149.333333,2.0437203 147.687371,1.79134761 146,1.95504881 C147.666667,2.02325765 149.322981,2.17331709 151,2.05736207 Z" id="Path" fill="#C2C4C6"></path>
                <path d="M265,15.1388425 C263.641791,14.7530465 262.820896,15.2259578 262,15.8855445 C263.179104,16.1842253 264.059701,15.8855445 265,15.1388425 Z" id="Path" fill="#C2C4C6"></path>
                <path d="M101.806794,1.08322984 C103.208068,1.05594631 104.598726,1.03548365 106,1.00820012 C104.333333,0.994558352 102.656051,1.02184189 101,0.912707748 C101.201699,1.11051338 101.509554,1.09005072 101.806794,1.08322984 Z" id="Path" fill="#C2C4C6"></path>
                <path d="M52,2.08616408 C52.7926421,2.07252231 53.8862876,2.05205966 55,2.03159701 C53.8762542,1.76558254 52.7826087,2.02477612 52,2.08616408 Z" id="Path" fill="#C2C4C6"></path>
                <path d="M51.2071749,1.99292893 C51.0565022,1.99292893 50.9152466,2.00292893 50.7928251,2.00292893 C50.9152466,2.01292893 51.0565022,2.00292893 51.2071749,1.99292893 Z" id="Path" fill="#C2C4C6"></path>
                <path d="M265,14.0089321 C266.018349,14.2272004 267.022936,14.1930959 268,13.9270815 C266.96789,13.6951714 266.018349,14.0498574 265,14.0089321 Z" id="Path" fill="#C2C4C6"></path>
                <path d="M63,48.0002204 C63.9680851,48.0752501 64.9468085,48.136638 66,47.9933995 C64.9574468,47.9592951 63.9787234,47.84334 63,48.0002204 Z" id="Path" fill="#C2C4C6"></path>
                <path d="M38,49.8869586 C39.4926108,50.2007193 39.6995074,50.214361 41,50.0370181 C39.9655172,49.8869586 39.0935961,49.7914663 38,49.8869586 Z" id="Path" fill="#C2C4C6"></path>
                <path d="M138,0.942022489 C137,0.96248514 136,0.982947791 135,1.00341044 C135,1.02387309 135,1.03751486 135,1.05797751 C136,1.03751486 137,1.01705221 138,0.996589558 C138,0.976126907 138,0.955664256 138,0.942022489 Z" id="Path" fill="#C2C4C6"></path>
                <path d="M41,2.90141103 C39.88,2.82638131 38.9733333,3.11285843 38,3.05147047 C38.9866667,3.20152991 39.92,3.0378287 41,2.90141103 Z" id="Path" fill="#C2C4C6"></path>
                <path d="M74.1836323,1.99136595 C74.0612108,1.97136595 73.9387892,1.97136595 73.8163677,2.01136595 C73.9387892,2.03136595 74.0612108,2.02136595 74.1836323,1.99136595 Z" id="Path" fill="#C2C4C6"></path>
                <path d="M76,3.06990079 C75.6285714,2.79024456 75.3071429,2.92666223 75,2.9812293 C75.3,3.00851284 75.6142857,3.16539316 76,3.06990079 Z" id="Path" fill="#C2C4C6"></path>
                <path d="M114,0.959212556 C113,0.979212556 112,0.999212556 111,1.01921256 C112.0125,1.07921256 113.0125,0.999212556 114,0.959212556 Z" id="Path" fill="#C2C4C6"></path>
                <path d="M15,48.0112489 C15.3221477,48.0317116 15.6510067,48.2158754 16,48.0521742 C15.6442953,47.7247718 15.3221477,47.9566819 15,48.0112489 Z" id="Path" fill="#C2C4C6"></path>
                <path d="M13.8634529,48.0062132 C13.9576233,48.0162132 14.0423767,48.0062132 14.1365471,47.9962132 C14.0423767,47.9862132 13.9482063,47.9862132 13.8634529,48.0062132 Z" id="Path" fill="#C2C4C6"></path>
                <path d="M131,0.95 C130.666667,0.965803212 130.333333,0.981606425 130,0.989508031 C130.333333,1.04481927 130.666667,1.10803212 131,0.95 Z" id="Path" fill="#C2C4C6"></path>
                <path d="M101,0.95 C100.663212,0.968703635 100.331606,0.987407269 100,0.996759086 C100.336788,1.0061109 100.673575,1.13703635 101,0.95 Z" id="Path" fill="#C2C4C6"></path>
                <path d="M99.8446188,1.005 C99.9482063,1.005 100.051794,0.995 100.155381,0.995 C100.051794,0.995 99.9482063,0.995 99.8446188,1.005 Z" id="Path" fill="#C2C4C6"></path>
                <path d="M102.013125,1.005 C102.02625,1.005 102.039375,1.005 102.039375,1.005 C102.039375,1.005 102.02625,0.995 102.02625,0.995 C102,1.005 101.97375,1.005 101.960625,1.005 C101.97375,1.005 102,1.005 102.013125,1.005 C102.013125,1.005 102.013125,1.005 102.013125,1.005 Z" id="Path" fill="#C2C4C6"></path>
                <path d="M106,1.93416308 C105.648936,1.87959601 105.329787,1.91370043 105,1.94780484 C105.606383,2.14561047 105.606383,2.14561047 106,1.93416308 Z" id="Path" fill="#C2C4C6"></path>
                <path d="M140,1.9388547 C139.666667,1.94567558 139.333333,1.95249646 139,1.95931735 C139.00813,1.97978 139.02439,2.00024265 139.04065,2.03434707 C139.349593,2.08891414 139.666667,2.0616306 140,1.9388547 Z" id="Path" fill="#C2C4C6"></path>
                <path d="M43,2.95 C42.6940299,2.95823379 42.3880597,2.96646757 42,2.98293515 C42.3955224,3.14761089 42.6940299,2.95823379 43,2.95 Z" id="Path" fill="#C2C4C6"></path>
                <path d="M37,3.90065068 C36.6666667,3.85972538 36.4102564,3.96885952 36,4.09163542 C36.4444444,4.08481454 36.7606838,4.20076956 37,3.90065068 Z" id="Path" fill="#C2C4C6"></path>
                <path d="M134,1.005 C134,0.995 134,0.985 134,0.965 C133.67,0.975 133.33,0.985 133,0.995 C133,1.005 133,1.015 133,1.035 C133.33,1.025 133.66,1.015 134,1.005 Z" id="Path" fill="#C2C4C6"></path>
                <path d="M161,3.01 C161,3.01 161.02625,2.99 161.02625,2.99 C161.013125,2.99 160.986875,3 160.97375,3 C160.97375,3.01 160.986875,3.01 161,3.01 Z" id="Path" fill="#C2C4C6"></path>
                <path d="M160.744592,2.98294779 C160.744592,2.87381365 160.653375,2.79878393 160.324993,2.79878393 C160.106072,2.79878393 159.996611,2.853351 160.014854,2.9352016 C160.051341,3.03751486 159.83242,3.20121607 160.36148,3.20121607 C160.580401,3.20121607 160.781079,3.16029077 161,3.13300723 C160.799322,3.1057237 160.744592,3.05115663 160.744592,2.98294779 Z" id="Path" fill="#C2C4C6"></path>
                <path d="M119,0.965 C118.670213,0.975 118.340426,0.985 118,0.995 C118,1.005 118,1.015 118,1.035 C118.329787,1.025 118.659574,1.015 119,1.005 C119,0.985 119,0.975 119,0.965 Z" id="Path" fill="#C2C4C6"></path>
                <path d="M83,2.05 C83,2.01923077 83,1.98846154 83,1.95 C82.6696429,1.95769231 82.3303571,1.96538462 82,1.97307692 C82,1.98846154 82,2.01153846 82,2.02692308 C82.3303571,2.03461538 82.6607143,2.04230769 83,2.05 Z" id="Path" fill="#C2C4C6"></path>
                <path d="M65,1.98 C64.6712329,1.99 64.3287671,1.99 64,2 C64,2.01 64,2.01 64,2.02 C64.3150685,2.01 64.630137,2.01 64.9589041,2 C64.9726027,1.99 64.9863014,1.98 65,1.98 Z" id="Path" fill="#C2C4C6"></path>
                <path d="M19.916843,48.8190306 C19.8038385,48.8190306 19.7379192,48.8872395 19.7567533,48.9622692 C19.7850044,49.091866 19.9074259,49.1737166 20.0863497,49.1805375 C20.1899372,49.1873584 20.2464394,49.1123286 20.2464394,49.030478 C20.1993542,48.914523 20.1146008,48.8190306 19.916843,48.8190306 Z" id="Path" fill="#C2C4C6"></path>
                <path d="M45.9901562,3.01010767 C46.0164063,3.00010767 46.0164063,2.97010767 45.9901562,3.01010767 L45.9901562,3.01010767 Z" id="Path" fill="#C2C4C6"></path>
                <path d="M45.8876404,3.03571429 C45.9213483,3.03571429 45.9775281,3.02142857 45.988764,3.00714286 C45.988764,2.99285714 46,2.98571429 46,2.97857143 C45.988764,2.98571429 45.9550562,2.97857143 45.9101124,2.95 C45.6179775,2.97142857 45.3146067,2.98571429 45,3.00714286 C45,3.02142857 45,3.03571429 45,3.05 C45.3033708,3.05 45.5955056,3.04285714 45.8876404,3.03571429 Z" id="Path" fill="#C2C4C6"></path>
                <path d="M144,1.975 C143.672131,1.985 143.327869,1.985 143,1.995 C143,2.005 143,2.015 143,2.025 C143.327869,2.015 143.672131,2.015 144,2.005 C144,1.995 144,1.985 144,1.975 Z" id="Path" fill="#C2C4C6"></path>
                <path d="M57.3950617,2.96107235 C57.2716049,2.95425146 57.1481481,2.981535 57,2.99517677 C57.0617284,3.0224603 57.0987654,3.04292295 57.1358025,3.04292295 C57.3950617,3.04974384 57.654321,3.05656472 57.9135802,3.05656472 C57.9382716,3.05656472 58,3.01563942 58,3.00881853 C57.8271605,2.89286351 57.5925926,2.96789323 57.3950617,2.96107235 Z" id="Path" fill="#C2C4C6"></path>
                <path d="M50.2024664,1.97 C50.0800448,1.97 49.9576233,1.98 49.8257848,1.98 C49.8163677,1.98 49.8069507,2.01 49.7975336,2.03 C49.9293722,2.03 50.0612108,2.02 50.1930493,2.02 C50.2024664,2 50.2024664,1.99 50.2024664,1.97 Z" id="Path" fill="#C2C4C6"></path>
                <path d="M143.984678,2.07883584 C144.144768,2.09929849 144.229521,2.05837319 144.20127,2.03108966 C144.154185,1.98334347 144.060014,1.94241817 143.975261,1.92195552 C143.899925,1.90831375 143.749252,1.90831375 143.805754,2.010627 C143.824588,2.05837319 143.965844,2.07201496 143.984678,2.07883584 Z" id="Path" fill="#C2C4C6"></path>
                <path d="M154.954393,3.11193038 C155.05798,3.12557215 155.152151,3.1051095 155.199236,3.03007978 C155.21807,2.94140829 155.161568,2.8936621 155.048563,2.88684122 C154.954393,2.88002034 154.831971,2.88002034 154.80372,2.96187094 C154.775469,3.03007978 154.841388,3.09828861 154.954393,3.11193038 Z" id="Path" fill="#C2C4C6"></path>
                <path d="M41.7598655,50.0197589 C41.9199552,50.0283101 42.0800448,50.0967192 42.2401345,49.9941055 C42.1836323,49.9770033 42.12713,49.9427987 42.0800448,49.9513499 C41.9670404,49.959901 41.8634529,49.9941055 41.7598655,50.0197589 Z" id="Path" fill="#C2C4C6"></path>
                <path d="M29.1520819,1.98212453 C29.1238307,1.95 29.0390774,1.95 28.9731581,1.95 C28.9260729,1.95 28.8884047,1.98212453 28.8413195,2.00621793 C28.9072388,2.0222802 28.9637411,2.03834247 29.0202433,2.0463736 C29.1144137,2.06243587 29.180333,2.0222802 29.1520819,1.98212453 Z" id="Path" fill="#C2C4C6"></path>
                <path d="M88.9171431,1.02792893 C88.9736454,1.03792893 89.0489817,1.02792893 89.1054839,1.01792893 C89.114901,1.01792893 89.124318,0.987928932 89.1431521,0.977928932 C89.0772328,0.977928932 89.0207306,0.967928932 88.9548113,0.967928932 C88.8418068,0.977928932 88.8229727,1.00792893 88.9171431,1.02792893 Z" id="Path" fill="#C2C4C6"></path>
                <path d="M96.0196875,0.995 C96.0065625,0.995 96.0065625,0.995 95.9803125,1.005 L95.9803125,1.005 C95.9934375,1.005 96.0196875,0.995 96.0196875,0.995 Z" id="Path" fill="#C2C4C6"></path>
                <path d="M84,1.97167196 C83.7126437,1.95120931 83.4252874,1.87617959 83,2.01941814 C83.4597701,2.11491051 83.7356322,2.04670168 84,1.97167196 Z" id="Path" fill="#C2C4C6"></path>
                <path d="M84.02625,1.99 C84.013125,2 83.986875,2 83.97375,2.01 C83.986875,2.01 83.986875,2.01 84,2.01 C84,2 84.02625,1.99 84.02625,1.99 Z" id="Path" fill="#C2C4C6"></path>
                <path d="M135.164798,1.00883143 C135.108296,0.989220955 135.051794,0.969610477 135.004709,0.95 C134.948206,0.969610477 134.891704,0.989220955 134.835202,0.999026194 C134.891704,1.01863667 134.948206,1.04805239 135.004709,1.04805239 C135.051794,1.05785763 135.108296,1.02844191 135.164798,1.00883143 Z" id="Path" fill="#C2C4C6"></path>
                <path d="M139.95815,3.05663422 C140.005235,3.07027598 140.089988,3.07027598 140.118239,3.04981333 C140.202993,2.96796273 140.127656,2.93385831 140.024069,2.93385831 C139.967567,2.93385831 139.901647,2.95432096 139.845145,2.96796273 C139.873396,2.99524626 139.911064,3.04299245 139.95815,3.05663422 Z" id="Path" fill="#C2C4C6"></path>
                <path d="M265.971749,18.035 C266.028251,18.035 266.09417,18.015 266.16009,18.015 C266.150673,17.995 266.131839,17.965 266.122422,17.965 C266.028251,17.975 265.934081,17.995 265.83991,18.015 C265.877578,18.015 265.924664,18.035 265.971749,18.035 Z" id="Path" fill="#C2C4C6"></path>
                <path d="M16.8361702,46.9852214 C16.8173362,47.0943556 16.9397577,47.0807138 17.0339281,47.067072 C17.0810133,47.0602511 17.1186815,47.0193258 17.1657667,46.9920423 C17.1092644,46.9647588 17.0527622,46.9238335 16.9962599,46.9238335 C16.9397577,46.9238335 16.8455873,46.9579379 16.8361702,46.9852214 Z" id="Path" fill="#C2C4C6"></path>
            </g>
            <path d="M108.417,14.41 L108.417,16.636 L92.079,17.77 L92.079,15.544 L95.523,15.313 C95.4109994,14.7669973 95.257001,14.2770022 95.061,13.843 L97.581,13.234 C97.7070006,13.4580011 97.8399993,13.7589981 97.98,14.137 C98.0920006,14.4730017 98.1759997,14.7739987 98.232,15.04 L97.434,15.166 L102.033,14.851 C102.341002,14.2629971 102.585999,13.6190035 102.768,12.919 L105.498,13.129 L104.658,14.662 L108.417,14.41 Z M106.149,25.372 C105.854999,25.5120007 105.470002,25.6169997 104.994,25.687 L104.238,25.771 L103.335,25.834 L103.251,24.049 C103.575802,24.0602001 103.8782,24.0445202 104.1582,24.0019601 L104.364,23.965 C104.560001,23.9509999 104.658,23.8390011 104.658,23.629 L104.658,17.623 L106.989,17.455 L106.989,23.524 C106.989,24.4620047 106.709003,25.0779985 106.149,25.372 Z M95.334,24.238 L95.334,26.317 L93.171,26.464 L93.171,18.505 L100.101,18.022 L100.101,24.091 C100.101,24.9310042 99.8630024,25.4839987 99.387,25.75 C99.2003324,25.8433338 98.9504733,25.9172222 98.6374173,25.9716666 L98.442,26.002 C98.1899987,26.0440002 97.7280034,26.0859998 97.056,26.128 L97.014,24.595 L97.728,24.532 C97.8680007,24.5179999 97.938,24.4200009 97.938,24.238 L97.938,24.049 L95.334,24.238 Z M103.461,18.169 L103.461,23.398 L101.235,23.545 L101.235,18.316 L103.461,18.169 Z M95.334,20.689 L97.938,20.5 L97.938,19.828 L95.334,20.017 L95.334,20.689 Z M95.334,22.768 L97.938,22.579 L97.938,21.97 L95.334,22.159 L95.334,22.768 Z M100.185,28.69 C99.8769985,29.9220062 99.1910053,30.9159962 98.127,31.672 C96.9369941,32.5260043 95.1100123,33.2119974 92.646,33.73 L92.121,31.273 C93.6750078,31.0209987 94.8719958,30.692002 95.712,30.286 C96.510004,29.9219982 97.0559985,29.4530029 97.35,28.879 L92.457,29.236 L92.457,26.968 L107.493,25.918 L107.388,26.947 L107.323091,27.6257714 C107.094,29.8090845 106.737639,31.1998152 106.254,31.798 C105.833998,32.2600023 105.246004,32.5539994 104.49,32.68 C103.789996,32.7920006 102.810006,32.8619999 101.55,32.89 L101.487,30.496 C101.697001,30.5100001 102.018998,30.5030001 102.453,30.475 L103.356,30.412 C103.706002,30.3979999 103.950999,30.3210007 104.091,30.181 C104.301001,29.970999 104.482999,29.369005 104.637,28.375 L100.185,28.69 Z M127.8525,22.999 L127.8525,31.924 L119.4315,32.512 L119.4315,23.587 L122.1195,23.398 L122.1195,13.108 L124.7655,12.919 L124.7655,17.518 L128.5245,17.266 L128.5245,19.912 L124.7655,20.164 L124.7655,23.209 L127.8525,22.999 Z M117.1635,32.575 C116.827498,31.4969946 116.225504,30.356006 115.3575,29.152 L117.3525,28.039 L112.0185,28.417 L112.0185,14.62 L118.5915,14.158 L118.5915,27.955 L117.5205,28.018 C118.374504,29.0960054 118.997498,30.1669947 119.3895,31.231 L117.1635,32.575 Z M114.4335,18.421 L116.0505,18.295 L116.0505,16.636 L114.4335,16.762 L114.4335,18.421 Z M114.4335,22.201 L116.0505,22.075 L116.0505,20.458 L114.4335,20.584 L114.4335,22.201 Z M114.4335,25.918 L116.0505,25.792 L116.0505,24.196 L114.4335,24.322 L114.4335,25.918 Z M121.8885,29.698 L125.2695,29.467 L125.2695,25.771 L121.8885,26.002 L121.8885,29.698 Z M115.4625,28.837 C114.860497,30.7410095 113.985506,32.3579934 112.8375,33.688 L110.9265,32.029 C111.822504,31.1189955 112.508498,29.8940077 112.9845,28.354 L115.4625,28.837 Z M138.195,27.514 L137.38757,27.9785723 C137.000142,28.2031435 136.637143,28.4161427 136.298572,28.617571 L135.056666,29.3666672 C134.680222,29.5968891 134.347335,29.8053324 134.058,29.992 C133.693998,30.2300012 133.407001,30.4259992 133.197,30.58 L133.02228,30.7144002 C132.94836,30.7732001 132.8946,30.8193998 132.861,30.853 L131.286,28.732 C131.622002,28.4939988 131.901999,28.2000018 132.126,27.85 C132.378001,27.457998 132.504,27.0520021 132.504,26.632 L132.504,22.537 L130.845,22.999 L130.425,20.248 L132.504,19.66 L132.504,14.62 L135.066,14.431 L135.066,18.988 L137.838,18.211 L138.258,20.899 L135.066,21.844 L135.066,26.359 L137.796,24.91 C137.866,25.8340046 137.998999,26.7019959 138.195,27.514 Z M142.668,17.266 L142.668,17.476 L142.605,19.639 L142.521,21.067 L142.311,23.293 C142.170999,24.3710054 141.989001,25.3579955 141.765,26.254 C141.526999,27.2340049 141.233002,28.1369959 140.883,28.963 C140.098996,30.769009 139.007007,32.2319944 137.607,33.352 L135.822,31.042 C136.704004,30.3699966 137.431997,29.537005 138.006,28.543 C138.524003,27.6469955 138.936998,26.597006 139.245,25.393 C139.497001,24.3569948 139.685999,23.1460069 139.812,21.76 C139.8456,21.2895976 139.87472,20.7788813 139.89936,20.2278411 L139.942667,19.2026662 C139.958222,18.779556 139.970667,18.3160025 139.98,17.812 L139.98,17.455 L137.628,17.623 L137.628,14.83 L147.729,14.116 L147.54,21.886 L147.466354,24.0210021 C147.430285,24.935667 147.391833,25.7359966 147.351,26.422 L147.304524,27.0774313 C147.149508,29.0751521 146.920001,30.3336641 146.616,30.853 C146.167998,31.6230039 145.566004,32.1339987 144.81,32.386 C144.515998,32.4700004 144.089003,32.5329998 143.529,32.575 C143.304999,32.6030001 143.032002,32.6239999 142.71,32.638 L141.765,32.701 L141.681,29.74 L143.403,29.677 C143.660251,29.6647499 143.879984,29.5399543 144.062203,29.3026098 L144.138,29.194 C144.544002,28.6199971 144.816999,24.5880375 144.957,17.098 L142.668,17.266 Z M160.1295,26.359 L160.1295,32.386 L151.6035,32.974 L151.6035,26.947 L154.6905,26.737 L154.6905,25.666 L150.7215,25.939 L150.7215,23.944 L154.6905,23.671 L154.6905,23.125 L152.1285,23.293 L152.1285,21.361 L154.6905,21.193 L154.6905,20.626 L151.5405,20.836 L151.5405,19.492 L150.5745,19.576 L150.5745,15.67 L154.5645,15.376 C154.466499,14.8439973 154.347501,14.375002 154.2075,13.969 L156.7695,13.234 C156.979501,13.7660027 157.175499,14.4169962 157.3575,15.187 L160.9905,14.935 L160.9905,18.841 L159.9615,18.904 L159.9615,20.248 L157.0635,20.458 L157.0635,21.025 L159.3525,20.857 L159.3525,22.789 L157.0635,22.957 L157.0635,23.503 L160.6335,23.251 L160.6335,25.246 L157.0635,25.498 L157.0635,26.569 L160.1295,26.359 Z M166.4925,31.924 C165.890497,32.3440021 164.700509,32.6029995 162.9225,32.701 L162.7755,29.971 L163.001833,29.9663334 C163.087389,29.9632223 163.183055,29.9585556 163.288833,29.9523334 L164.5605,29.866 C164.840501,29.8519999 164.9805,29.7050014 164.9805,29.425 L164.9805,12.877 L167.4165,12.709 L167.4165,29.257 C167.4165,30.6010067 167.108503,31.4899978 166.4925,31.924 Z M164.0775,15.712 L164.0775,27.577 L161.7465,27.724 L161.7465,15.859 L164.0775,15.712 Z M152.8635,18.715 L154.6905,18.589 L154.6905,17.686 L157.0635,17.518 L157.0635,18.421 L158.5965,18.316 L158.5965,17.098 L152.8635,17.497 L152.8635,18.715 Z M153.7665,30.685 L153.7665,29.278 L157.8195,28.984 L157.8195,30.391 L153.7665,30.685 Z" id="" fill="#FFFFFF"></path>
        </g>
    </g>
</svg>