<?xml version="1.0" encoding="UTF-8"?>
<svg width="273px" height="74px" viewBox="0 0 273 74" version="1.1" xmlns="http://www.w3.org/2000/svg" xmlns:xlink="http://www.w3.org/1999/xlink">
    <!-- Generator: Sketch 59.1 (86144) - https://sketch.com -->
    <title>Group 16</title>
    <desc>Created with Sketch.</desc>
    <g id="Amazon-Browser" stroke="none" stroke-width="1" fill="none" fill-rule="evenodd">
        <g id="Group-16" fill-rule="nonzero">
            <g id="paint3-copy-4" transform="translate(136.500000, 37.000000) scale(1, -1) translate(-136.500000, -37.000000) ">
                <path d="M272.976915,31.7470022 C272.701903,30.3039762 271.725139,29.1641949 271.573409,27.6793422 C271.563926,27.5643184 271.412195,27.4597513 271.307881,27.3760976 C271.080285,27.1878768 270.975971,26.9055457 270.919072,26.6336712 C270.776825,25.8598747 270.587162,25.1697319 269.762128,24.9815111 C269.667296,24.9605977 269.581948,24.7723769 269.525049,24.6468964 C269.278487,24.0613207 268.851746,23.8208164 268.29224,23.7162493 C267.524105,23.5803121 267.372375,23.329351 267.362892,22.4823576 C267.353408,21.7190178 267.552555,20.9765914 267.656869,20.234165 C267.694802,19.9936607 267.789633,19.7217863 267.581004,19.5231088 C267.049948,19.0421002 266.793903,18.2369335 265.902487,18.2055634 C265.295566,18.1741933 265.210217,17.8291219 265.437813,17.1180656 C265.551611,16.7729942 265.58006,16.4174661 265.617993,16.061938 C265.674891,15.4972756 265.134352,15.2254012 265.06797,14.7130224 C265.058487,14.6711956 264.574846,14.6607389 264.328285,14.7130224 C263.854127,14.8175895 263.569633,14.6607389 263.446352,14.1379034 C263.417902,14.0019662 263.389453,13.8032887 263.294622,13.7510052 C262.583385,13.3327368 262.02388,12.7053342 261.388509,12.1929555 C261.094531,11.9524511 260.677273,11.7224035 260.297947,11.5446395 C259.558262,11.1995681 258.97979,10.3421179 258.012509,10.6453625 C257.784913,10.7185594 257.6237,10.4257716 257.434037,10.300291 C256.808149,9.87156596 256.182261,9.42192745 255.461542,9.22324997 C254.693407,9.01411578 254.418396,8.61676082 254.532194,7.78022407 C254.579609,7.41423923 254.627025,7.06916782 254.560643,6.70318299 C254.446845,6.14897739 254.361497,6.08623713 253.830441,6.2744579 C253.451115,6.39993842 253.081272,6.54633235 252.673497,6.41039513 C251.013946,5.87710294 249.335429,5.40655102 247.732777,4.65366794 C247.25862,4.43407704 246.860328,3.96352511 246.338755,3.96352511 C246.025811,3.96352511 245.817182,3.8380446 245.551653,3.70210738 C244.821451,3.34657925 244.0059,2.97013771 243.218799,3.33612254 C242.517046,3.66028054 241.862709,3.78576105 241.132507,3.60799699 C240.724732,3.5034299 240.288507,3.5034299 239.861765,3.47205977 C237.415113,3.30475242 234.968461,3.12698836 232.521809,2.92831088 C230.340686,2.75054682 228.150079,2.69826327 225.978438,2.45775895 C222.981764,2.14405767 219.966123,1.99766373 216.950482,1.86172651 C212.787381,1.66304903 208.624279,1.52711181 204.461177,1.39117459 C202.137806,1.31797762 199.804952,1.30752091 197.481581,1.24478065 C194.503873,1.15067027 191.526165,1.01473304 188.548457,1.24478065 C187.761356,1.30752091 186.983738,1.35980446 186.196636,1.2970642 C184.138793,1.14021356 182.080951,1.1820404 180.023108,1.20295381 C177.965265,1.23432394 175.897939,1.12975685 173.840096,1.15067027 C171.289129,1.17158369 168.738163,1.08793001 166.196679,1.16112698 C163.475016,1.23432394 160.762836,1.12975685 158.050656,1.10884343 C155.338476,1.08793001 152.616813,1.03564646 149.904633,0.983362916 C148.501127,0.962449497 147.088138,1.12975685 145.694115,1.06701659 C141.796542,0.878795822 137.898969,0.889252531 134.001395,0.983362916 C133.157395,1.00427634 132.313395,1.0774733 131.469395,1.06701659 C130.160721,1.04610317 128.852046,0.920622659 127.543372,0.941536078 C125.419147,0.983362916 123.285439,0.931079369 121.161214,0.920622659 C117.65245,0.89970924 114.143685,0.91016595 110.644404,0.889252531 C108.880539,0.878795822 107.097707,0.617378085 105.352808,0.816055565 C103.55101,1.02518975 101.787145,0.554637828 99.9853469,0.763772017 C98.249931,0.962449497 96.4765825,0.565094538 94.7222003,0.669661632 C93.802335,0.72194518 92.8824698,0.429157315 91.9910539,0.51281099 C91.0711887,0.606921376 90.1513234,0.51281099 89.2599076,0.470984153 C87.2020647,0.397787186 85.1442218,0.33504693 83.0863789,0.240936544 C82.4320417,0.209566416 81.7777046,0.376873767 81.1328506,0.303676801 C78.4965357,-0.0100244826 75.8507377,0.355960348 73.2144229,0.104999321 C71.8393665,-0.0204811921 70.4737934,0.230479835 69.0987371,0.178196288 C68.2452538,0.146826159 67.4107369,0 66.5572537,0 C63.2476353,0.0318023552 59.9285339,-0.0518513205 56.6283987,0.0631724836 C54.3050277,0.146826159 51.9816567,0.209566416 49.6582857,0.240936544 C47.2969821,0.272306673 44.9356785,0.376873767 42.583858,0.491897571 C39.5113184,0.638291504 36.4482619,0.931079369 33.3852054,1.28660749 C30.7868231,1.58985206 28.1789577,1.86172651 25.5710923,2.10223083 C25.1064181,2.14405767 24.6986428,2.52049921 24.2339686,2.34273515 C23.7029123,2.15451438 23.1908224,2.2904516 22.6787324,2.34273515 C21.1424626,2.48912908 19.5967097,2.91785417 18.0794061,2.20679792 C17.9466421,2.14405767 17.7285297,2.15451438 17.5957656,2.22771134 C16.8276307,2.67734985 16.0215632,2.52049921 15.2154957,2.54141263 C14.7318552,2.55186934 14.1913159,2.35319186 13.7740574,2.56232604 C12.7878101,3.05379139 11.5644841,3.03287797 10.8247987,4.09946234 C10.7868661,4.15174588 10.7110009,4.18311601 10.654102,4.18311601 C10.0376975,4.1726593 9.75320307,4.70595148 9.39284348,5.10330644 C9.18421425,5.33335405 8.95661872,5.54248824 8.7100569,5.7202523 C8.48246137,5.88755965 8.33073102,6.10715055 7.97037143,6.13852068 C7.69536017,6.1594341 7.93243884,6.78683667 7.70484331,7.07962453 C7.61949499,7.18419163 7.61001184,7.3724124 7.51518037,7.45606607 C6.82291064,8.05209851 6.67118029,8.93046211 6.46255105,9.78791228 C6.29185441,10.4885118 6.03580944,11.1681979 5.23922509,11.2518516 C4.92628124,11.2832217 4.84093292,11.5132693 4.90731494,11.7851438 C5.02111271,12.2347823 5.040079,12.6112238 4.65126998,12.9458385 C4.40470815,13.1549727 4.47109018,13.5523277 4.49005648,13.866029 C4.51850592,14.4202346 4.39522501,14.8907865 4.16762948,15.4031653 C3.82623619,16.1769618 3.42794401,16.9403016 3.19086534,17.7559249 C2.94430351,18.6029184 2.73567428,19.5231088 3.0012024,20.4119291 C3.22879792,21.1857256 3.17189904,21.9176953 2.94430351,22.6392082 C2.75464057,23.2352406 2.69774169,23.8208164 2.75464057,24.4482189 C2.83050575,25.2847557 3.02016869,26.173576 2.22358434,26.8009786 C2.07185399,26.9264591 1.98650567,27.2506171 1.97702252,27.4911214 C1.95805622,28.4217685 1.70201126,29.3628724 2.01495511,30.2830628 C2.15720231,30.6804178 2.08133714,30.9732056 1.74942699,31.2032533 C1.27526964,31.537868 0.952842642,32.0293333 0.630415644,32.5521688 C0.307988645,33.0645475 0.099359411,33.5246428 0.402820115,34.1206752 C0.535584173,34.3820929 0.402820115,34.6225973 0.326954939,34.8526449 C0.184707734,35.3022834 0.032977382,35.7310085 0.251089763,36.2120171 C0.326954939,36.3793244 0.317471792,36.609372 0.203674028,36.7243959 C-0.175651852,37.1217508 0.080393117,37.5400192 0.137291999,37.9478309 C0.184707734,38.303359 0.336438086,38.6379737 0.279539204,39.0144152 C0.080393117,40.1332831 0.535584173,41.1266705 0.829561731,42.1409714 C0.952842642,42.5592397 1.01922467,42.9565947 1.06664041,43.3853198 C1.20888761,44.5355578 1.22785391,45.7067093 1.98650567,46.7105534 C2.85895519,47.8712481 3.64605639,49.1155966 4.34780927,50.4122285 C4.65126998,50.9664341 5.040079,51.4683562 5.43837118,51.9389081 C6.10219147,52.733618 6.76601176,53.5596981 7.12637135,54.5635422 C7.44879834,55.4628192 7.98933772,56.1738755 8.5298771,56.8953884 C8.81437151,57.2822867 9.10834907,57.6587282 9.38336033,58.0560832 C10.1135627,59.1017541 10.9575627,60.042858 12.3421022,59.6768731 C12.6740123,59.5932194 12.8636753,59.7605268 13.1102371,60.0010311 C13.878372,60.7539142 14.5421923,61.6636479 15.5094733,62.16557 C15.6232711,62.2283102 15.7370688,62.3119639 15.8224172,62.4269877 C16.8845296,63.8177301 18.458732,63.9745807 19.8906872,64.3301088 C21.10453,64.6333534 22.3847549,64.6960937 23.6460134,64.7065504 C24.3572495,64.7170071 25.0779686,64.8843144 25.7702384,64.685637 C26.4625081,64.4869595 26.9271823,64.8320309 27.3349576,65.3130395 C28.2548229,66.4214507 29.1367556,67.5612321 30.0376545,68.6905567 C30.1609354,68.8474073 30.3600815,69.0251714 30.3790478,69.2029354 C30.4169804,69.757141 30.7204411,69.9244484 31.1471827,70.0185588 C31.4032277,70.0708423 31.6403064,70.1963228 31.8963513,70.2904332 C32.4084413,70.478654 33.0058795,70.551851 33.100711,71.3465609 C33.1291604,71.5870652 33.3946886,71.5975219 33.5748684,71.6707189 C34.6938797,72.099444 35.8792731,72.1621842 37.0172507,72.4549721 C37.614689,72.6118227 38.2500598,72.5699959 38.8380149,72.8209569 C39.0087116,72.8941539 39.2552734,72.9359807 39.4164869,72.8627838 C40.0234083,72.601366 40.5734308,72.852327 41.1329365,73.0091777 C41.3889815,73.0823746 41.6355433,73.249682 41.8915883,73.1137448 C42.2140153,72.9464374 42.4605771,73.0928314 42.7261052,73.2392253 C42.9916333,73.3856192 43.2761277,73.4169894 43.5795884,73.4588162 C44.7080829,73.6052101 45.8650269,73.4797296 46.9745551,73.8143443 C47.4581956,73.9607382 47.9228698,74.0234785 48.4254766,73.9921084 C49.8574318,73.8875413 51.289387,74.0966755 52.7403085,73.9084547 C53.4705108,73.8143443 54.2196794,73.7829742 54.9498817,73.6052101 C55.5283537,73.4692729 56.0973425,73.2810521 56.6852976,73.2287686 C57.1215224,73.1869417 57.5292977,73.1032881 57.9086236,72.8836972 C58.4207135,72.5804526 58.9517698,72.4967989 59.5207586,72.4758855 C60.7630508,72.4445154 61.9958599,72.4654288 63.2381522,72.2876647 C64.7175231,72.0785305 66.2158604,72.0053336 67.7047144,71.9739634 C68.7383775,71.95305 69.7910068,72.0157903 70.7962204,71.7648293 C72.1048947,71.4302146 73.4515015,71.6184353 74.769659,71.2524505 C75.6515916,71.0119462 76.6473221,71.4406713 77.5577042,71.0014895 C77.6335694,70.9596626 77.7473671,71.0119462 77.8421986,71.0328596 C78.7146481,71.2419938 79.5965808,71.0642297 80.4690303,71.0328596 C82.0053001,70.980576 83.5320868,70.6877882 85.0683566,70.6773315 C87.7805367,70.6773315 90.445301,70.1231259 93.1479979,70.1022125 C94.3428744,70.0917557 95.5567172,69.903535 96.7515937,70.0185588 C97.4533466,70.081299 98.1171669,70.0708423 98.7904703,69.8826216 C99.0085827,69.8198813 99.2551445,69.7780545 99.4732569,69.8198813 C100.639684,70.0290155 101.806111,69.7780545 102.972538,69.7989679 C105.504538,69.8407947 108.046022,69.5270934 110.587505,69.6525739 C111.35564,69.6944008 112.152224,69.7257709 112.89191,69.6002904 C113.802292,69.4538965 114.703191,69.5480069 115.60409,69.4852666 C116.893798,69.4016129 118.192989,69.5898337 119.482697,69.4434398 C120.193933,69.3597861 120.905169,69.2656757 121.616405,69.2761324 C123.181124,69.2970458 124.793259,69.7362276 126.244181,68.6905567 C126.320046,68.6382731 126.433844,68.6173597 126.528675,68.606903 C127.249395,68.533706 127.98908,68.3141151 128.671867,68.4395956 C130.21762,68.7114701 131.611642,67.7599095 133.119463,67.9063035 C133.185845,67.9167602 133.280676,67.9063035 133.309125,67.8644766 C133.878114,66.9129161 134.826429,66.7560654 135.689395,66.3900806 C136.002339,66.2541434 136.267867,66.1182061 136.609261,66.1704897 C136.903238,66.2123165 137.197216,66.2018598 137.491193,66.1495763 C138.164497,66.0345525 138.847283,65.8567884 139.482654,66.3482538 C139.624901,66.4528209 139.86198,66.410994 140.061126,66.410994 C141.796542,66.410994 143.531958,66.337797 145.257891,66.3587105 C147.382116,66.3796239 149.506341,66.2436867 151.621082,66.1809464 C151.91506,66.1704897 152.190071,66.0345525 152.465082,65.9718122 C153.403914,65.762678 154.342746,65.3548664 155.338476,65.6894811 C155.841083,65.8567884 156.353173,66.0240958 156.865263,66.0659226 C157.908409,66.160033 158.951555,66.1914031 159.975735,66.4423641 C160.791285,66.6410416 161.606836,66.4005373 162.40342,66.4528209 C163.797443,66.5469312 165.181983,66.7769788 166.585488,66.8188057 C166.822567,66.8292624 167.021713,66.9233728 167.230342,67.0488533 C168.226073,67.6657991 169.278702,68.1049809 170.445129,68.1258944 C170.644275,68.1258944 170.833938,68.1781779 171.033084,68.209548 C171.194298,68.2409182 171.393444,68.2932017 171.450343,68.4605091 C171.753803,69.4434398 172.569354,69.2761324 173.185759,69.2970458 C174.295287,69.3388727 175.347916,69.6734874 176.419512,69.8617081 C177.216096,69.9976454 178.003197,70.154496 178.818748,70.227693 C179.387737,70.2799765 179.975692,70.0917557 180.506748,70.3008899 C181.009355,70.4995674 181.511962,70.6355046 182.024052,70.7087016 C183.057715,70.8655522 184.081895,71.053773 185.115558,71.1478834 C185.931108,71.2210804 186.737176,71.4302146 187.543243,71.5243249 C188.624322,71.6393487 189.686434,71.7543725 190.720097,72.1517275 C190.985626,72.2562946 191.327019,72.3190349 191.592547,72.2353812 C192.284817,72.026247 192.95812,72.2458379 193.631424,72.277208 C194.740952,72.3399483 195.85048,72.8732405 196.960008,72.277208 C197.02639,72.2353812 197.159154,72.277208 197.235019,72.3190349 C197.56693,72.5595392 197.936772,72.423602 198.287649,72.4549721 C200.013582,72.6431929 201.701582,71.8693964 203.436998,72.1517275 C203.588728,72.1726409 203.749941,72.0680738 203.911155,72.0367037 C204.67929,71.8798531 205.466391,71.5556951 206.21556,71.6393487 C206.775065,71.702089 207.457852,71.4197578 207.808728,71.702089 C208.453582,72.2249245 208.937223,71.628892 209.487245,71.6916323 C209.961403,71.7439158 210.445043,71.6184353 210.928684,71.6184353 C211.895965,71.6184353 212.853763,71.9007665 213.830527,71.6498055 C214.048639,71.5975219 214.314167,71.5975219 214.513313,71.6811756 C215.395246,72.0680738 216.324594,71.9635067 217.234976,72.0367037 C217.927246,72.0889873 218.60055,72.1935543 219.283336,72.2981214 C220.298033,72.4549721 221.350662,72.3190349 222.317943,72.8418703 C222.469674,72.925524 222.697269,72.8105002 222.896415,72.8105002 C223.086078,72.8105002 223.313674,72.7582167 223.474887,72.852327 C224.271472,73.2810521 225.068056,73.0405478 225.883607,73.0091777 C226.500011,72.9778076 227.239697,72.7686734 227.73282,73.500643 C227.894034,73.7411473 228.150079,73.6052101 228.368191,73.5320132 C229.240641,73.2287686 230.11309,72.925524 231.042439,72.925524 C231.80109,72.925524 232.531293,72.8000435 233.270978,72.5595392 C233.564956,72.4654288 233.868416,72.2562946 234.20981,72.3399483 C235.05381,72.5699959 235.907293,72.4758855 236.808192,72.4131452 C238.059967,72.5490825 239.359158,72.3190349 240.65835,72.2458379 C241.17044,72.2249245 241.454934,71.7857427 241.881676,71.6079786 C242.204103,71.4824981 241.98599,71.1687968 242.01444,70.9492059 C242.071339,70.5832211 242.308417,70.5204808 242.583428,70.4577406 C243.029136,70.3531735 243.465361,70.2486064 243.901586,70.0394722 C244.906799,69.5480069 245.930979,69.1088251 246.964642,68.6801 C247.419833,68.4918792 247.827609,68.282745 248.235384,67.9376736 C248.927654,67.3520979 249.572508,66.6933252 250.340643,66.2018598 C251.241542,65.6267408 252.246755,65.2084724 253.024373,64.4137625 C253.602845,63.8177301 254.276149,63.4099184 254.987385,63.0543903 C255.537407,62.7825158 256.163295,62.4688145 256.514171,61.9668925 C256.90298,61.4126869 257.291789,60.8375679 257.690082,60.2729056 C258.25907,59.4572822 258.989273,58.7671394 259.785857,58.422068 C260.933318,57.9201459 261.625588,56.9790421 262.384239,56.0483949 C262.602352,55.7869772 262.782532,55.4732759 262.792015,55.0863777 C262.792015,54.6681093 262.991161,54.4485184 263.370487,54.3439513 C263.749813,54.2393842 264.167071,54.0929903 264.309318,53.6433518 C264.55588,52.8277284 265.011071,52.1898691 265.551611,51.6042934 C265.788689,51.3533324 265.921453,50.9978043 265.997318,50.6422761 C266.329229,49.0319429 267.192195,47.7771378 268.244824,46.6582698 C268.671566,46.2086313 268.95606,45.7485361 268.965543,45.06885 C268.975027,44.7551487 269.050892,44.3682505 269.231072,44.1591163 C269.724195,43.594454 269.80006,42.8311142 270.113004,42.1827982 C270.511296,41.3671749 270.890622,40.5620082 271.478577,39.8927788 C271.895836,39.4222269 272.426892,38.9725884 272.113948,38.156965 C272.0286,37.9164607 272.170847,37.7596101 272.303611,37.581846 C272.474308,37.3622551 272.597589,37.1008374 272.626038,36.8080495 C272.758802,35.532331 272.938982,34.2566124 272.901049,32.9704372 C272.882083,32.5939956 273.062263,32.1861839 272.976915,31.7470022 Z" id="Path" fill="#D9558B"></path>
                <path d="M153,69.8150001 C153.647541,70.1277483 153.647541,70.1277483 155,69.1468563 C154.245902,68.8341081 153.631148,69.004698 153,69.8150001 Z" id="Path" fill="#FCE5EF"></path>
                <path d="M156,69.6094132 C156.661765,70.1750089 156.661765,70.1750089 157,69.2862156 C156.343137,68.8620188 156.343137,68.8620188 156,69.6094132 Z" id="Path" fill="#FCE5EF"></path>
                <path d="M160.32914,69.7909605 C160.08725,69.8014124 159.957002,69.8745763 160.012823,70 C160.08725,70.1567797 160.32914,70.2090395 160.589637,70.2090395 C160.775706,70.2090395 161.017595,70.1776836 160.998988,70.0627119 C160.980381,69.8327684 160.608244,69.8223164 160.32914,69.7909605 Z" id="Path" fill="#FCE5EF"></path>
                <path d="M161,70.0861146 C161.269231,70.0861146 161.512821,70.0861146 162,70.0861146 C161.487179,69.7934592 161.24359,69.9293349 161,70.0861146 Z" id="Path" fill="#FCE5EF"></path>
                <path d="M171.910559,69.9424859 C171.677082,69.9106516 171.431932,69.921263 171.198455,69.921263 C171.163434,69.921263 171.128412,69.9424859 171,69.9955432 C171.105065,70.0486004 171.140086,70.0804348 171.175108,70.0804348 C171.408584,70.0804348 171.653735,70.0698233 171.887211,70.0592119 C172.027298,70.037989 172.038971,69.9637088 171.910559,69.9424859 Z" id="Path" fill="#FCE5EF"></path>
                <path d="M152.966823,70.0708465 C153.052135,70.0163833 153.203802,70.1933886 153.213281,69.9210728 C153.071094,69.9210728 152.919427,69.8938413 152.786719,70.0708465 C152.853073,70.0572307 152.919427,70.0980781 152.966823,70.0708465 Z" id="Path" fill="#FCE5EF"></path>
                <path d="M153.000027,69.8028579 C152.952632,69.8133099 152.914715,69.8969257 152.895757,69.9596376 C152.85784,70.0641574 152.886277,70.1895811 152.990548,70.2000331 C153.104298,70.220937 153.08534,70.0746093 153.113777,69.9909935 C153.113777,69.8969257 153.161173,69.771502 153.000027,69.8028579 Z" id="Path" fill="#FCE5EF"></path>
            </g>
            <path d="M56.9165,32.575 C56.512248,32.7342508 55.9847369,32.8291876 55.3339542,32.8598125 L55.0475,32.869 C54.3754966,32.8970001 53.437506,32.8620005 52.2335,32.764 L52.0235,29.845 C52.8635042,29.9290004 53.6964959,29.9989997 54.5225,30.055 L54.8585,30.097 C55.250502,30.1250001 55.4465,29.9570018 55.4465,29.593 L55.4465,26.947 L48.2855,26.443 L48.2855,23.566 L55.4465,24.07 L55.4465,22.012 L49.5665,21.592 L49.5665,18.778 L55.4465,19.198 L55.4465,16.972 L52.8425,16.993 C51.8764952,16.9789999 50.9245047,16.9510002 49.9865,16.909 C49.8884995,16.0549957 49.6645017,15.1660046 49.3145,14.242 L50.3645,14.263 L52.1915,14.284 L55.0265,14.2 L55.2365,14.179 C57.8825132,14.0529994 60.0944911,13.8150017 61.8725,13.465 L63.8045,16.132 C62.6704943,16.342001 61.5645054,16.5029994 60.4865,16.615 L58.2605,16.825 L58.2605,19.387 L64.2665,19.807 L64.2665,22.621 L58.2605,22.201 L58.2605,24.259 L65.3795,24.763 L65.3795,27.64 L58.2605,27.136 L58.2605,29.845 C58.2605,31.3150073 57.8125045,32.2249982 56.9165,32.575 Z M83.62,29.383 L83.62,32.365 L66.631,31.168 L66.631,28.186 L73.456,28.669 L73.456,18.379 L67.681,17.959 L67.681,14.872 L82.507,15.922 L82.507,19.009 L76.543,18.589 L76.543,28.879 L83.62,29.383 Z M25.266,36.255 C24.2999952,37.7250073 23.614002,39.1809928 23.208,40.623 C22.7879979,42.1210075 22.578,43.9409893 22.578,46.083 C22.578,48.2250107 22.7879979,50.0799922 23.208,51.648 C23.614002,53.1600076 24.2999952,54.7069921 25.266,56.289 L23.019,57.654 L22.263,56.457 C21.9969987,56.0229978 21.759001,55.6170019 21.549,55.239 C21.0309974,54.3149954 20.6040017,53.4330042 20.268,52.593 C19.875998,51.598995 19.582001,50.5770052 19.386,49.527 C19.1619989,48.3649942 19.05,47.1400064 19.05,45.852 C19.05,44.5639936 19.1619989,43.3530057 19.386,42.219 C19.582001,41.1969949 19.875998,40.2170047 20.268,39.279 C20.5480014,38.6023299 20.8911931,37.9159462 21.2975826,37.2198345 L21.549,36.801 C21.759001,36.4509982 21.9969987,36.073002 22.263,35.667 L23.019,34.596 L25.266,36.255 Z M34.8755,47.217 L34.8755,55.197 L26.1815,55.806 L26.1815,47.826 L29.1425,47.616 L29.1425,45.201 L25.6145,45.453 L25.6145,42.681 L29.1425,42.429 L29.1425,40.455 C28.2744957,40.6790011 27.3155052,40.8749992 26.2655,41.043 C26.1674995,40.3009963 25.922502,39.531004 25.5305,38.733 C26.8745067,38.4949988 28.2114933,38.1660021 29.5415,37.746 C30.941507,37.3119978 32.0614958,36.8710022 32.9015,36.423 L34.8545,38.46 C34.0284959,38.8940022 32.9995062,39.313998 31.7675,39.72 L31.7675,42.261 L35.3165,42.009 L35.3165,44.781 L31.7675,45.033 L31.7675,47.448 L34.8755,47.217 Z M41.2805,54.987 C40.888498,55.2250012 40.3285036,55.4139993 39.6005,55.554 C38.9844969,55.6800006 38.1375054,55.7779996 37.0595,55.848 L36.8915,52.824 L39.2645,52.698 C39.6005017,52.6699999 39.7685,52.4880017 39.7685,52.152 L39.7685,36.255 L42.4145,36.066 L42.4145,51.984 C42.4145,53.5100076 42.0365038,54.5109976 41.2805,54.987 Z M38.5505,38.208 L38.5505,50.178 L35.9675,50.367 L35.9675,38.397 L38.5505,38.208 Z M28.6805,52.992 L32.2295,52.74 L32.2295,50.052 L28.6805,50.304 L28.6805,52.992 Z M61.18,45.18 L61.18,46.944 L44.191,48.141 L44.191,46.377 L51.142,45.894 L51.142,45.327 L45.451,45.726 L45.451,44.214 L51.142,43.815 L51.142,43.269 L46.081,43.626 L46.081,42.114 L51.142,41.757 L51.142,41.169 L44.254,41.652 L44.254,40.119 L51.142,39.636 L51.142,39.048 L46.186,39.384 L46.186,37.914 L51.142,37.578 L51.142,36.36 L53.872,36.171 L53.872,37.389 L59.248,37.011 L59.248,39.069 L61.012,38.943 L61.012,40.476 L59.248,40.602 L59.248,42.702 L53.872,43.08 L53.872,43.626 L59.962,43.185 L59.962,44.697 L53.872,45.138 L53.872,45.705 L61.18,45.18 Z M53.872,39.447 L56.539,39.258 L56.539,38.67 L53.872,38.859 L53.872,39.447 Z M53.872,41.568 L56.539,41.379 L56.539,40.791 L53.872,40.98 L53.872,41.568 Z M59.269,47.658 L59.269,52.74 L46.291,53.643 L46.291,48.561 L59.269,47.658 Z M48.895,50.262 L51.331,50.094 L51.331,49.527 L48.895,49.695 L48.895,50.262 Z M53.809,49.926 L56.518,49.737 L56.518,49.17 L53.809,49.359 L53.809,49.926 Z M48.895,52.11 L51.331,51.942 L51.331,51.375 L48.895,51.543 L48.895,52.11 Z M53.809,51.774 L56.518,51.585 L56.518,51.018 L53.809,51.207 L53.809,51.774 Z M61.138,53.097 L61.138,54.966 L44.149,56.142 L44.149,54.273 L61.138,53.097 Z M66.5685,55.89 C65.2524934,54.3779924 63.7685083,52.9500067 62.1165,51.606 L64.7835,49.128 C66.5335087,50.4580066 68.0314938,51.8719925 69.2775,53.37 L66.5685,55.89 Z M96.59,56.793 C94.0139871,56.0649964 91.9910073,55.1200058 90.521,53.958 C89.0929929,54.7700041 87.2730111,55.3859979 85.061,55.806 L84.158,52.845 C85.558007,52.6909992 86.9369932,52.313003 88.295,51.711 C87.3149951,50.4089935 86.4610036,48.8480091 85.733,47.028 L84.767,46.944 C84.7109997,47.7140038 84.6270006,48.4699963 84.515,49.212 C84.3889994,50.0380041 84.2350009,50.8079964 84.053,51.522 C83.8429989,52.3340041 83.6120013,53.0619968 83.36,53.706 C83.0659985,54.4200036 82.7440017,55.0289975 82.394,55.533 C81.7219966,54.6789957 80.987004,53.9860027 80.189,53.454 C80.6090021,52.851997 80.9589986,52.1100044 81.239,51.228 C81.4910013,50.4579961 81.6939992,49.5830049 81.848,48.603 C81.9600006,47.7769959 82.0439997,46.8810048 82.1,45.915 C82.1420002,45.1869964 82.163,44.3960043 82.163,43.542 L82.163,38.313 L88.316,38.733 L88.316,36.15 L91.088,36.36 L91.088,38.943 L94.994,39.216 L95.456,39.132 L97.577,39.783 C97.1149977,41.7150097 96.5970029,43.3389934 96.023,44.655 L93.503,43.731 C93.7270011,43.1429971 93.9019994,42.5620029 94.028,41.988 L91.088,41.799 L91.088,44.634 L94.154,44.844 L94.637,44.655 L96.443,45.936 C95.7149964,48.4420125 94.5600079,50.492992 92.978,52.089 C94.4480073,52.9570043 95.9319925,53.5589983 97.43,53.895 L96.59,56.793 Z M84.872,44.193 L88.316,44.424 L88.316,41.589 L84.872,41.358 L84.872,44.193 Z M88.589,47.217 C89.1490028,48.3650057 89.8419959,49.3729957 90.668,50.241 C91.5640045,49.4709961 92.2639975,48.5610052 92.768,47.511 L88.589,47.217 Z M105.6745,39.153 L105.6745,39.615 L103.0705,39.447 L103.0705,38.985 L99.1645,38.712 L99.1645,36.654 L103.0705,36.927 L103.0705,35.961 L105.6745,36.129 L105.6745,37.095 L109.1185,37.347 L109.1185,36.381 L111.7435,36.549 L111.7435,37.515 L115.7755,37.809 L115.7755,39.867 L111.7435,39.573 L111.7435,40.035 L109.1185,39.867 L109.1185,39.405 L105.6745,39.153 Z M110.4415,47.112 C109.923497,48.0640048 109.209505,48.8339971 108.2995,49.422 C108.145499,49.1699987 107.844502,48.8200022 107.3965,48.372 L107.3965,48.813 L107.1277,48.8230801 C107.0101,48.8247601 106.9177,48.8214 106.8505,48.813 L105.1495,48.834 L102.829326,48.8152969 C101.581359,48.8032657 100.401756,48.7885001 99.2905,48.771 L99.2275,47.154 C99.9135034,47.1960002 100.676496,47.2239999 101.5165,47.238 L102.2725,47.28 L102.2725,46.65 L100.0675,46.503 L100.0675,45.579 L99.7315,45.684 L98.8705,44.466 L99.1785001,44.3213333 C99.4024996,44.2124447 99.6638318,44.0786675 99.9625,43.92 C100.298502,43.7379991 100.669498,43.5210013 101.0755,43.269 L99.3325,43.143 L99.3325,41.694 L102.2725,41.904 L102.2725,41.379 L100.1515,41.232 L100.1515,39.888 L102.2725,40.035 L102.2725,39.552 L104.4985,39.699 L104.4985,40.182 L106.6195,40.329 L106.6195,41.673 L104.4985,41.526 L104.4985,42.051 L107.4805,42.261 L107.4805,43.71 L105.7585,43.605 L106.6615,44.151 C106.913501,44.3190008 107.165499,44.4939991 107.4175,44.676 L108.2785,43.416 L107.7325,43.374 L107.7325,41.337 L109.4965,41.463 L109.4965,40.245 L111.4285,40.371 L111.4285,41.589 L114.2005,41.799 L114.202833,44.0366675 C114.205944,44.3882226 114.212167,44.699332 114.2215,44.97 C114.2215,45.4600024 114.2355,45.8729983 114.2635,46.209 C114.2915,46.5730018 114.3265,46.852999 114.3685,47.049 C114.4105,47.245001 114.4665,47.3499999 114.5365,47.364 C114.59775,47.364 114.648281,47.2353763 114.688094,46.9781255 L114.7045,46.86 C114.7465,46.5799986 114.7675,46.3000014 114.7675,46.02 L116.0695,46.524 C115.859499,48.6100104 115.285505,49.6180003 114.3475,49.548 C113.311495,49.4779996 112.646501,48.4910095 112.3525,46.587 L111.4075,47.994 C111.057498,47.6299982 110.735501,47.3360011 110.4415,47.112 Z M111.1765,45.138 C111.554502,45.3760012 111.918498,45.6559984 112.2685,45.978 C112.1845,45.1379958 112.1355,44.3750034 112.1215,43.689 L111.4075,43.626 C111.3515,44.1580027 111.2745,44.6619976 111.1765,45.138 Z M108.4045,43.416 C108.4745,43.4580002 108.5515,43.4999998 108.6355,43.542 L109.0975,43.857 C109.1815,43.9130003 109.2585,43.9549999 109.3285,43.983 L109.4125,43.5 L108.4045,43.416 Z M102.6715,44.361 L104.4565,44.487 L104.0995,44.319 L104.6455,43.521 L102.1675,43.353 L102.8605,44.277 L102.6715,44.361 Z M104.4985,45.39 L106.0525,45.516 L105.4855,45.117 L105.2755,44.991 L104.91934,44.7490797 C104.75638,44.6415599 104.616101,44.5542003 104.4985,44.487 L104.4985,45.39 Z M101.1175,45.159 L102.2725,45.243 L102.2725,44.613 L101.1175,45.159 Z M104.4985,46.797 L104.4985,47.322 L107.3545,47.406 C107.942503,46.8599973 108.376499,46.3420024 108.6565,45.852 C108.222498,45.5579985 107.823502,45.306001 107.4595,45.096 L106.8295,46.104 L106.7245,46.02 L106.7245,46.965 L104.4985,46.797 Z M113.5915,49.863 L113.5915,51.459 L101.3905,50.598 L101.3905,49.002 L113.5915,49.863 Z M113.2555,56.562 L112.8985,56.163 L112.4995,55.764 L104.288749,55.4888875 L104.288749,55.4888875 L102.934231,55.4617866 C101.785606,55.450462 101.005035,55.4811996 100.5925,55.554 L100.0885,53.622 C100.246001,53.6009999 100.486186,53.528813 100.809062,53.4054379 L101.1595,53.265 C101.2015,53.2509999 101.2295,53.2370001 101.2435,53.223 L101.6425,53.055 L102.099833,52.8310001 C102.172944,52.7936669 102.2445,52.7563335 102.3145,52.719 L99.0595,52.488 L99.0595,50.892 L115.7335,52.068 L115.7335,53.664 L112.7095,53.454 C113.745505,54.1960037 114.536497,54.867997 115.0825,55.47 L113.2555,56.562 Z M109.9375,53.244 L105.8215,52.971 L105.340833,53.2463338 C105.035944,53.4174447 104.762168,53.5636661 104.5195,53.685 L110.2945,54 C110.056499,53.8319992 109.790501,53.6640008 109.4965,53.496 L109.9375,53.244 Z M121.353,55.89 C120.036993,54.3779924 118.553008,52.9500067 116.901,51.606 L119.568,49.128 C121.318009,50.4580066 122.815994,51.8719925 124.062,53.37 L121.353,55.89 Z M138.8165,41.253 L142.0085,41.484 L141.75398,41.2471203 C141.68566,41.1810404 141.6095,41.1060004 141.5255,41.022 L141.0005,40.539 C140.566498,40.146998 140.202501,39.853001 139.9085,39.657 L139.3625,40.476 L139.1525,40.7956673 C139.021833,40.988556 138.909834,41.1409994 138.8165,41.253 Z M136.9055,51.837 C136.8935,51.4649981 136.840358,50.9952878 136.746072,50.4278581 L136.6955,50.136 C136.5975,49.533997 136.478501,48.9390029 136.3385,48.351 L138.0185,47.973 C138.354502,49.177006 138.585499,50.3179946 138.7115,51.396 L136.9055,51.837 Z M141.0425,51.333 L141.0425,51.879 L142.1345,51.732 L141.0425,51.333 Z M137.4515,42.702 C137.3955,42.7440002 137.3395,42.7929997 137.2835,42.849 L136.8845,43.206 L135.2255,40.518 C137.031509,39.2999939 138.431495,37.7040099 139.4255,35.73 L141.4835,36.927 L141.27938,37.3453201 C141.23906,37.4248398 141.2021,37.4953997 141.1685,37.557 C141.635169,37.8486681 142.13586,38.2083875 142.670582,38.6361658 L142.9955,38.901 C143.527503,39.3210021 144.010498,39.7409979 144.4445,40.161 L143.0165,42.45 L142.6805,42.114 L142.6805,43.983 L141.0425,43.857 L141.0425,45.033 L143.4785,45.222 L143.4785,42.723 L146.6915,42.933 L146.6915,36.612 L149.4425,36.801 L149.4425,43.122 L152.6975,43.353 L152.6975,46.314 L149.4425,46.083 L149.4425,56.436 L146.6915,56.247 L146.6915,45.894 L143.5625,45.684 L143.5625,47.721 L141.0425,47.532 L141.0425,51.144 C141.294501,50.149995 141.4695,49.1210053 141.5675,48.057 L143.5415,48.708 L143.2265,49.737 L142.858352,50.9995932 C142.774006,51.2809751 142.700723,51.5181101 142.6385,51.711 L143.7305,51.606 L143.8775,53.916 L136.1705,55.008 L135.6665,52.32 L136.046834,52.299 C136.320611,52.2803334 136.634832,52.2523335 136.9895,52.215 L138.7325,52.089 L138.7325,47.385 L135.9185,47.175 L135.9185,44.676 L138.7325,44.886 L138.7325,43.71 L137.4515,43.605 L137.4515,42.702 Z M166.255,55.974 C165.736997,56.2400013 164.729007,56.3170006 163.231,56.205 L163.126,53.559 L164.323,53.643 C164.519001,53.6570001 164.617,53.566001 164.617,53.37 L164.617,48.687 C164.014997,51.697015 162.811009,53.803994 161.005,55.008 L159.514,52.866 C159.864002,52.6419989 160.143999,52.4110012 160.354,52.173 L158.695,52.698 C158.653,52.3759984 158.576001,51.9490027 158.464,51.417 C158.351999,50.9409976 158.233001,50.4790022 158.107,50.031 L159.808,49.506 C159.948001,49.9680023 160.067,50.4089979 160.165,50.829 L160.291,51.3120008 C160.365667,51.6106671 160.421666,51.8626656 160.459,52.068 C161.005003,51.4519969 161.445998,50.7100043 161.782,49.842 L160.564,49.758 L160.564,48.834 L158.569,49.401 C158.555,49.2189991 158.52,48.9740015 158.464,48.666 L157.508498,48.7500002 C156.615997,48.8340001 155.912503,48.9179996 155.398,49.002 L154.726,49.128 C154.585999,49.1560001 154.481,49.1839999 154.411,49.212 L153.382,46.566 C153.774002,46.4819996 154.291997,46.0620038 154.936,45.306 L155.104,45.096 L155.818,44.088 C155.448398,44.1104001 155.13256,44.1372799 154.87048,44.1686399 L154.684,44.193 C154.459999,44.2210001 154.313,44.2489999 154.243,44.277 L153.319,41.694 C153.596201,41.6561998 153.890409,41.3916024 154.20163,40.9002007 L154.306,40.728 C154.502001,40.4199985 154.795998,39.762005 155.188,38.754 C155.384001,38.2359974 155.565999,37.7250025 155.734,37.221 C155.916001,36.6609972 156.069999,36.1430024 156.196,35.667 L158.611,36.969 C158.302998,37.767004 157.974002,38.5509961 157.624,39.321 C157.203998,40.2170045 156.812002,40.965997 156.448,41.568 L157.288,41.631 C157.463001,41.3393319 157.647722,40.9747515 157.842166,40.5372509 L158.275,39.531 L158.4115,39.2212502 C158.4605,39.1057505 158.513,38.9780007 158.569,38.838 L160.816,40.602 C160.689999,40.8750014 160.544313,41.1637495 160.378938,41.4682494 L159.8164,42.4861195 C159.7212,42.6552392 159.620401,42.8321991 159.514,43.017 L158.905,43.983 C158.722999,44.2630014 158.555001,44.500999 158.401,44.697 L159.64,44.445 C160.074002,45.9290074 160.381999,47.3429933 160.564,48.687 L160.564,47.385 L162.748,47.532 L163.147,47.49 L164.617,48.12 L164.617,46.566 L161.215,46.335 L161.215,38.418 L163.714,38.586 C163.980001,37.7599959 164.168999,36.9970035 164.281,36.297 L167.347,37.095 C167.319,37.1603337 167.294111,37.2132223 167.272333,37.2536667 L167.242,37.305 C167.2,37.3750003 167.165,37.4379997 167.137,37.494 L166.528,38.775 L170.329,39.048 L170.329,46.965 L167.158,46.755 L167.158,47.427 C167.256,47.8050019 167.395999,48.2319976 167.578,48.708 L168.334,47.826 L168.62632,47.4496796 C168.75904,47.2749599 168.8716,47.1204007 168.964,46.986 L170.938,49.023 L170.329,49.485 L170.329,49.485 L168.586,50.829 C168.936002,51.4170029 169.306998,51.9419977 169.699,52.404 C170.147002,52.9360027 170.580998,53.3419986 171.001,53.622 L169.321,55.89 C168.466996,55.1339962 167.746003,54.1820057 167.158,53.034 L167.158,53.622 C167.158,54.8400061 166.857003,55.6239982 166.255,55.974 Z M163.672,41.547 L167.746,41.841 L167.746,41.085 L163.672,40.791 L163.672,41.547 Z M163.672,44.319 L167.746,44.613 L167.746,43.857 L163.672,43.563 L163.672,44.319 Z M158.065,46.293 L157.876,45.411 L157.69708,45.6478797 C157.64556,45.7139596 157.5862,45.7889996 157.519,45.873 L157.162,46.356 L158.065,46.293 Z M156.448,54.672 C156.46025,54.2187477 156.445703,53.6261591 156.404359,52.8942199 L156.385,52.572 C156.343,51.8859966 156.28,51.1370041 156.196,50.325 L158.023,50.073 C158.065,50.3390013 158.1,50.6469982 158.128,50.997 L158.254,52.194 L158.338,53.37 C158.366,53.7900021 158.38,54.1329987 158.38,54.399 L156.448,54.672 Z M156.112,50.325 C156.056,51.2910048 155.965001,52.2289954 155.839,53.139 L155.743592,53.7539646 C155.629864,54.4375451 155.507667,55.0025533 155.377,55.449 L153.403,54.651 C153.599001,54.1049973 153.759999,53.3630047 153.886,52.425 C153.998001,51.626996 154.068,50.7590047 154.096,49.821 L156.112,50.325 Z M189.4305,53.706 C189.304499,54.7420052 189.017502,55.4209984 188.5695,55.743 C188.140498,56.0810017 187.367469,56.2198221 186.250394,56.1594644 L184.9785,56.079 C183.522493,55.9809995 182.549502,55.6800025 182.0595,55.176 C181.597498,54.7139977 181.3595,53.8530063 181.3455,52.593 L178.4055,52.383 L178.481625,52.8581262 C178.549875,53.3043762 178.5945,53.6639986 178.6155,53.937 L176.9355,54.378 C176.8935,53.7339968 176.795501,52.9990041 176.6415,52.173 L176.5785,51.69 L176.2425,50.052 L177.8595,49.611 L178.2795,51.669 L178.2795,48.939 L176.5155,49.443 L176.4105,48.687 L175.458209,48.7786365 C174.868126,48.8397274 174.3676,48.900818 173.956625,48.9619089 L172.9455,49.128 L172.730833,49.2026667 C172.701278,49.2135555 172.674833,49.2236666 172.6515,49.233 L171.7695,46.923 C172.066732,46.8583843 172.477285,46.4836187 173.001168,45.7986931 L173.1345,45.621 C173.2185,45.5089994 173.351499,45.3060015 173.5335,45.012 C173.5755,44.9559997 173.6175,44.8860004 173.6595,44.802 L174.0795,44.109 L173.636166,44.1276667 C173.430833,44.1393333 173.25,44.1544999 173.093667,44.1731666 L172.9455,44.193 C172.707499,44.2210001 172.5535,44.2489999 172.4835,44.277 L171.6435,42.051 C171.760167,42.0276665 171.886555,41.9362785 172.022666,41.7768337 L172.1055,41.673 C172.245501,41.5049992 172.399499,41.2600016 172.5675,40.938 L172.6655,40.7355831 C172.8405,40.352528 173.073832,39.7410042 173.3655,38.901 C173.547501,38.3829974 173.708499,37.8650026 173.8485,37.347 C174.030501,36.7729971 174.1705,36.2410024 174.2685,35.751 L176.4105,36.864 C176.144499,37.6900041 175.850502,38.501996 175.5285,39.3 C175.150498,40.2380047 174.793502,41.007997 174.4575,41.61 L175.2765,41.715 C175.422101,41.4125985 175.57666,41.0564411 175.74018,40.6465209 L175.8645,40.329 C176.046501,39.8809978 176.221499,39.4050025 176.3895,38.901 L178.3635,40.413 C178.041498,41.1690038 177.691502,41.9179963 177.3135,42.66 C176.907498,43.4720041 176.508502,44.1929968 176.1165,44.823 L177.3765,44.55 C177.782502,45.9640071 178.083499,47.3779929 178.2795,48.792 L178.2795,43.311 L181.3455,43.521 L181.3455,42.555 L178.7205,42.366 L178.7205,36.885 L188.4435,37.578 L188.4435,43.08 L185.8185,42.891 L185.8185,43.815 L188.7795,44.025 L188.7795,53.034 L185.8185,52.824 L185.8185,54.084 L186.7215,54.147 C187.253503,54.1890002 187.5545,53.8740034 187.6245,53.202 L189.4305,53.706 Z M185.8185,40.917 L186.4485,40.959 L186.4485,39.405 L185.8185,39.363 L185.8185,40.917 Z M180.6525,40.539 L181.3455,40.581 L181.3455,39.048 L180.6525,39.006 L180.6525,40.539 Z M183.3615,52.614 C183.3615,53.3840038 183.522498,53.8109996 183.8445,53.895 L183.8445,39.216 L183.3615,39.174 L183.3615,52.614 Z M175.7805,45.306 C175.7385,45.3900004 175.6755,45.4879994 175.5915,45.6 C175.5915,45.6093334 175.585278,45.6248888 175.572833,45.6466666 L175.0245,46.503 L176.0325,46.419 L175.9275,45.852 L175.7805,45.306 Z M185.8185,47.259 L186.7635,47.322 L186.7635,46.083 L185.8185,46.02 L185.8185,47.259 Z M180.4215,46.881 L181.3455,46.944 L181.3455,45.768 L180.4215,45.705 L180.4215,46.881 Z M185.8185,50.598 L186.7635,50.661 L186.7635,49.422 L185.8185,49.359 L185.8185,50.598 Z M180.4215,50.304 L181.3455,50.367 L181.3455,49.044 L180.4215,48.981 L180.4215,50.304 Z M174.4155,50.325 C174.3175,52.3970104 174.065502,54.1049933 173.6595,55.449 L171.6645,54.651 C171.860501,54.1049973 172.021499,53.3630047 172.1475,52.425 C172.259501,51.626996 172.3295,50.7590047 172.3575,49.821 L174.4155,50.325 Z M174.7305,55.05 C174.7305,53.6779931 174.639501,52.1030089 174.4575,50.325 L176.2005,50.115 C176.382501,51.7530082 176.5015,53.3209925 176.5575,54.819 L174.7305,55.05 Z M194.399,55.89 C193.082993,54.3779924 191.599008,52.9500067 189.947,51.606 L192.614,49.128 C194.364009,50.4580066 195.861994,51.8719925 197.108,53.37 L194.399,55.89 Z M219.3595,47.595 L219.3595,55.89 L216.6715,56.079 L216.6715,47.784 L214.2985,47.952 L214.2985,54.504 L211.6105,54.693 L211.6105,49.17 C210.854496,50.0800045 210.182503,50.7729976 209.5945,51.249 L207.8725,48.876 C208.810505,48.1479964 209.699496,47.1680062 210.5395,45.936 C211.281504,44.8579946 211.946497,43.6610066 212.5345,42.345 L208.6915,42.618 L208.6915,39.741 L213.6475,39.384 C213.787501,38.977998 213.927499,38.4670031 214.0675,37.851 L214.4035,36.318 L217.1965,36.822 L216.7345,38.565 C216.7065,38.7330008 216.6505,38.9359988 216.5665,39.174 L225.3445,38.565 L225.3445,41.442 L215.5375,42.135 L214.9747,43.5075598 C214.9579,43.5501198 214.9425,43.5895998 214.9285,43.626 L214.709071,44.1368582 C214.533357,44.5382865 214.375501,44.8789986 214.2355,45.159 L216.6715,44.991 L216.6715,42.639 L219.3595,42.45 L219.3595,44.802 L224.5465,44.445 L224.5465,50.766 C224.5465,52.0400064 224.196503,52.8869979 223.4965,53.307 C223.132498,53.517001 222.663503,53.6779994 222.0895,53.79 C221.655498,53.8600003 220.997504,53.9229997 220.1155,53.979 L219.9685,51.354 L221.4595,51.27 C221.697501,51.2559999 221.8165,51.1370011 221.8165,50.913 L221.8165,47.427 L219.3595,47.595 Z M242.052,50.157 L242.052,55.575 L239.553,55.764 L239.553,50.85 L234.723,52.152 L234.345,49.611 L232.833,51.879 C232.580999,51.276997 232.238002,50.577004 231.804,49.779 L231.804,56.247 L229.347,56.436 L229.347,49.821 L229.134529,50.5055009 C228.615704,52.1491732 228.189531,53.2859968 227.856,53.916 L225.882,52.152 C226.442003,51.353996 226.959998,50.4090055 227.436,49.317 C227.828002,48.4489957 228.170999,47.5390048 228.465,46.587 L226.659,46.713 L226.659,43.899 L229.347,43.71 L229.347,36.78 L231.804,36.591 L231.804,42.534 L232.056,41.4 L232.153714,40.9204288 C232.200571,40.6781437 232.252,40.3970016 232.308,40.077 L232.686,37.536 L234.891,37.872 L233.883,41.694 L233.722,42.2190009 C233.619333,42.5456671 233.526,42.8256655 233.442,43.059 L231.804,42.702 L231.804,43.521 L234.366,43.353 L234.366,46.167 L231.804,46.335 L231.804,46.398 C232.028001,46.594001 232.461997,47.0769961 233.106,47.847 L234.366,49.359 L239.553,47.973 L239.553,35.919 L242.052,35.73 L242.052,47.301 L243.774,46.839 L244.173,49.569 L242.052,50.157 Z M238.02,41.82 C237.249996,41.0499961 236.298006,40.1890048 235.164,39.237 L236.445,37.095 C237.551006,37.893004 238.537996,38.6699962 239.406,39.426 L238.02,41.82 Z M227.268,43.647 C227.113999,42.1069923 226.869002,40.434009 226.533,38.628 L228.381,37.935 L228.843,40.434 L229.05663,41.6763715 C229.133543,42.1439013 229.195333,42.5487761 229.242,42.891 L227.268,43.647 Z M237.411,47.154 C236.710996,46.3279959 235.703007,45.5090041 234.387,44.697 L235.647,42.45 C236.072602,42.6740011 236.516119,42.9427991 236.977559,43.2563993 L237.327,43.5 C237.971003,43.9480022 238.446998,44.3329984 238.755,44.655 L237.411,47.154 Z M244.3115,35.835 L246.5375,34.47 L247.211214,35.5705711 C247.240071,35.6188568 247.2675,35.6649998 247.2935,35.709 C247.573501,36.1430022 247.818499,36.5489981 248.0285,36.927 C248.546503,37.8510046 248.973498,38.7329958 249.3095,39.573 C249.701502,40.567005 249.995499,41.5819948 250.1915,42.618 C250.415501,43.7660057 250.5275,44.9839936 250.5275,46.272 C250.5275,47.5600064 250.415501,48.7639944 250.1915,49.884 C249.995499,50.892005 249.701502,51.8649953 249.3095,52.803 C248.973498,53.6150041 248.546503,54.4409958 248.0285,55.281 C247.870999,55.5435013 247.693813,55.8217495 247.496938,56.1157494 L246.796358,57.1542849 C246.715786,57.2714277 246.6295,57.3959993 246.5375,57.528 L244.3115,55.869 C245.263505,54.3989926 245.949498,52.9290073 246.3695,51.459 C246.789502,49.9469924 246.9995,48.1410105 246.9995,46.041 C246.9995,43.9269894 246.789502,42.0790079 246.3695,40.497 C245.963498,38.9709924 245.277505,37.4170079 244.3115,35.835 Z" id="手工(刮畫、皮藝、針線繩、布料)" fill="#FFFFFF"></path>
        </g>
    </g>
</svg>