<?xml version="1.0" encoding="UTF-8"?>
<svg width="273px" height="51px" viewBox="0 0 273 51" version="1.1" xmlns="http://www.w3.org/2000/svg" xmlns:xlink="http://www.w3.org/1999/xlink">
    <!-- Generator: Sketch 59.1 (86144) - https://sketch.com -->
    <title>Group 18</title>
    <desc>Created with Sketch.</desc>
    <g id="Amazon-Browser" stroke="none" stroke-width="1" fill="none" fill-rule="evenodd">
        <g id="Group-18" fill-rule="nonzero">
            <g id="paint1-copy-3" transform="translate(136.500000, 25.500000) scale(1, -1) rotate(180.000000) translate(-136.500000, -25.500000) ">
                <path d="M161.934689,2.9837234 C161.973876,3.00542553 162.013062,3.02712766 162.065311,3.03797872 C162.026124,3.0162766 162,2.9837234 161.960813,2.96202128 L161.934689,2.9837234 Z" id="Path" fill="#C2C4C6"></path>
                <path d="M272.8596,9.55223027 C273.11387,9.40186682 273.000183,8.98494996 272.699504,8.92343764 C271.927278,8.77307418 271.117382,8.5611984 270.345156,8.90293353 C270.100303,9.01228877 269.949625,9.12164401 269.808364,8.88242942 C269.695355,8.69105775 269.817781,8.54069429 270.109721,8.49968608 C270.36399,8.45867786 270.674764,8.49968608 270.750103,8.22629798 C269.940208,8.00075279 269.149146,7.94607517 268.386337,8.2878103 C268.59352,8.64321483 269.036138,8.30147971 269.299825,8.50652078 C269.092642,8.84825591 268.706529,8.80041299 268.348668,8.74573537 C266.766545,8.49285138 265.165588,8.46551257 263.545796,8.52019019 C262.566387,8.5543637 261.577561,8.51335548 260.598152,8.51335548 C260.3533,8.51335548 260.051943,8.48601667 260.004856,8.30147971 C259.929517,8.04859571 260.306213,8.0075875 260.53223,7.91873636 C260.720578,7.84355463 260.927761,7.87772815 261.134943,7.91873636 C262.12377,8.10327333 263.150266,7.82305053 264.14851,8.0280916 C264.261518,8.04859571 264.402779,7.98708339 264.591127,7.95290988 C264.449866,7.77520761 264.374527,7.61117475 264.092005,7.58383594 C263.790649,7.55649713 263.63997,7.42663778 263.734144,7.2284314 C263.818901,7.05072914 263.969579,6.77050633 264.261518,6.84568806 C264.911319,7.00288622 265.598788,6.58596936 266.210919,6.961878 C266.333345,7.03705973 266.531111,6.961878 266.700624,6.9550433 C267.567024,6.92086979 268.226242,6.55179585 268.989051,6.31258126 C268.734781,5.96401143 268.367503,5.881995 267.934302,5.8888297 C267.425763,5.89566441 266.917224,5.89566441 266.399267,5.8888297 C266.201502,5.8888297 265.956649,5.92983792 265.871893,5.75213565 C265.777719,5.54709458 265.975484,5.40356582 266.17325,5.32838409 C266.832467,5.06183069 267.538772,4.89096313 268.310998,4.97981426 C268.715946,5.02765718 269.111477,5.09600421 269.572929,4.98664897 C269.469338,4.74059967 269.337494,4.49455038 269.610599,4.24166639 C269.789529,4.07079882 269.601181,3.7495678 269.959042,3.69489018 C268.263911,3.33265095 266.484024,3.40099797 264.722971,3.32581624 C263.611718,3.27797333 262.481631,3.26430392 261.389213,3.10710576 C259.420977,2.81321355 257.42449,2.70385831 255.446837,2.46464372 C254.947715,2.4031314 254.439176,2.30061086 253.940054,2.31428027 C252.160166,2.36895789 250.417948,2.12290859 248.666312,2.01355335 C248.195443,1.98621454 247.799912,1.98621454 247.394964,2.15024741 C246.90526,2.34161908 246.359051,2.49198253 245.841094,2.42363551 C244.466154,2.23909854 243.053545,2.36895789 241.678605,2.16391681 C241.235988,2.09556978 240.718031,2.05456157 240.058813,2.19809032 C240.539101,2.28694146 240.859292,2.30061086 241.113562,2.4099661 C241.923458,2.74486653 242.789858,2.74486653 243.684511,2.75170123 C244.645085,2.75853593 245.633911,2.79270945 246.406138,3.33265095 C246.509729,3.40783268 246.65099,3.40783268 246.792251,3.38732857 C247.696321,3.27797333 248.383791,3.77007191 249.231356,3.83841894 C249.560965,3.86575775 249.560965,4.11864174 249.259608,4.2690052 C249.07126,4.36469103 248.741652,4.35102163 248.656895,4.52188919 C248.412043,5.01398778 247.875251,4.91830194 247.376129,4.88412843 C244.814598,4.69959146 242.253067,4.69275676 239.682118,4.69959146 C238.429604,4.70642616 237.205343,4.63124443 236.047003,4.26217049 C235.924577,4.22116228 235.783316,4.19382347 235.651473,4.20749287 C234.408377,4.29634401 233.20295,3.98878239 231.922184,4.13914585 C230.613166,4.28950931 229.247644,3.9956171 227.891539,4.04346001 C226.639026,4.08446823 225.386512,3.92043537 224.133999,3.89309656 C222.966242,3.87259245 221.770233,4.09130293 220.62131,3.77690661 C220.508302,3.7427331 220.357623,3.78374132 220.216362,3.79057602 C218.992101,3.83158423 217.76784,3.78374132 216.552996,3.72222899 C215.432326,3.66755137 214.311656,3.59236964 213.190986,3.57186554 C211.703037,3.54452673 210.196254,3.56503083 208.717723,3.51718792 C206.353957,3.44200619 203.980774,3.4625103 201.617007,3.38049387 C200.034885,3.32581624 198.452763,3.31214684 196.861223,3.25063452 C195.401527,3.1959569 193.951248,3.09343636 192.491552,3.01825463 C190.156038,2.90206469 187.811107,2.87472588 185.466175,2.86789117 C185.315497,2.86789117 185.155401,2.84055236 185.004723,2.82004826 C185.117732,3.01141993 185.362584,3.03192403 185.588601,3.00458522 C186.407915,2.90206469 187.151889,3.30531214 187.98062,3.15494868 C188.150133,3.12077517 188.41382,3.2027916 188.41382,3.39416327 C188.41382,3.58553494 188.187802,3.59920435 187.98062,3.62654316 C187.782854,3.64704726 187.538002,3.4830144 187.359072,3.68805548 C187.669846,4.02295591 188.121881,3.81791483 188.489159,3.85208834 C188.715176,3.87259245 188.903524,3.89993126 188.922359,4.08446823 C188.941194,4.26217049 188.771681,4.34418693 188.555081,4.37836044 C188.423237,4.39886455 188.281976,4.42620336 188.150133,4.42620336 C186.549176,4.42620336 184.919966,4.38519514 183.394348,4.09130293 C182.518531,3.92727007 181.6898,3.87942715 180.832817,3.87259245 C179.147103,3.85892304 177.46139,3.80424542 175.785093,3.66071667 C174.268893,3.53085732 172.76211,3.26430392 171.227074,3.31214684 C170.44543,3.33948565 169.710874,3.37365916 168.92923,3.14127928 C168.373603,2.97724641 167.610795,2.90889939 167.036333,3.09343636 C166.386533,3.29847743 165.887411,3.52402262 165.482463,2.90889939 C165.463628,2.88156058 165.35062,2.86105647 165.294115,2.86789117 C164.493637,3.01141993 163.683741,2.97724641 162.873845,2.92256879 C162.647827,2.90889939 162.534819,3.05242814 162.412393,3.17545279 C162.299384,3.29164273 162.158123,3.34632035 161.979192,3.29164273 C162.092201,3.36682446 162.186375,3.45567559 162.402975,3.43517149 C162.911514,3.39416327 163.269375,3.59920435 163.777915,3.97511299 C163.090445,3.9956171 162.67608,4.18698877 162.129871,4.04346001 C161.329392,3.83158423 160.547748,3.57870024 159.662513,3.58553494 C159.502417,3.58553494 159.31407,3.51718792 159.31407,3.36682446 C159.31407,3.16861809 159.53067,3.14811398 159.737852,3.13444457 C159.982705,3.11394047 160.246392,3.33948565 160.557166,3.01141993 C159.201061,2.75170123 157.920295,2.48514783 156.488851,2.98408112 C156.81846,3.13444457 157.119817,3.2096263 157.326999,3.10027106 C157.863791,2.81321355 158.108643,3.09343636 158.447669,3.35998976 C158.15573,3.51718792 157.920295,3.96144358 157.618939,3.79057602 C156.969138,3.41466738 156.309921,3.79057602 155.678955,3.62654316 C155.405851,3.55819613 155.057407,3.58553494 154.812555,3.75640251 C154.511198,3.96827828 154.14392,3.94777418 153.767224,3.94093947 C152.034423,3.92043537 150.31104,3.91360066 148.578239,3.91360066 C148.003778,3.91360066 147.438735,3.98194769 146.854856,3.93410477 C145.479916,3.83158423 144.095559,3.70172489 142.72062,3.68805548 C140.855976,3.66755137 139.000749,3.79057602 137.136105,3.78374132 C135.280878,3.77690661 133.435068,3.89309656 131.579842,3.80424542 C129.216075,3.68805548 126.833475,3.76323721 124.460291,3.7495678 C122.586229,3.7358984 120.721585,3.7358984 118.866358,3.52402262 C117.519671,3.37365916 116.154149,3.27797333 114.798044,3.33265095 C112.048165,3.44200619 109.31712,3.23696511 106.576658,3.216461 C105.493658,3.2096263 104.40124,3.16178338 103.318239,3.16861809 C100.897969,3.17545279 98.4871159,3.26430392 96.0668454,3.2027916 C94.268123,3.16178338 92.4694006,3.22329571 90.6706781,3.15494868 C89.2863211,3.10027106 87.901964,3.2096263 86.517607,3.216461 C85.8960589,3.216461 85.3310152,3.02508933 84.7000498,3.08660166 C82.6470577,3.29847743 80.5752308,3.37365916 78.5034039,3.33948565 C75.9512899,3.29847743 73.4462629,3.66755137 70.9035662,3.72222899 C69.3779483,3.75640251 67.8523303,3.98194769 66.3361297,3.93410477 C64.2548854,3.86575775 62.2018933,4.09130293 60.1300665,4.08446823 C58.8022138,4.07763353 57.4837785,4.25533579 56.1559258,4.20065817 C55.7886474,4.18698877 55.374282,4.25533579 55.4119516,3.80424542 C55.4307864,3.61970845 55.1765167,3.70172489 55.0258384,3.70172489 C54.2441946,3.68122078 53.4625509,3.69489018 52.6809071,3.7427331 C51.0140282,3.85208834 49.3377319,3.45567559 47.6520182,3.81108013 C47.0963919,3.92727007 46.4465917,3.94093947 45.834461,3.96827828 C44.1393299,4.02979061 42.425364,3.97511299 40.7773199,4.37152574 C40.683146,4.39202984 40.5701372,4.39886455 40.4759633,4.39202984 C38.8185018,4.30317871 37.1704577,4.36469103 35.5224136,4.44670746 C35.1645526,4.46721157 34.8349437,4.43987276 34.7031002,4.13914585 C34.6560132,4.03662531 34.5618393,3.96144358 34.4205784,3.94093947 C33.4034997,3.79741072 32.3581689,3.45567559 31.3881772,3.55136143 C29.4481939,3.7427331 27.5176279,3.64021256 25.587062,3.71539429 C24.8901747,3.7427331 24.0991136,3.36682446 24.0896962,3.01825463 C24.0802788,2.60133777 23.8165917,2.58766837 23.3833915,2.60133777 C21.5564169,2.6765195 19.7200249,2.74486653 17.9213025,3.03875874 C17.5634415,3.10027106 17.2055805,3.12760987 16.8194673,3.08660166 C16.0566583,3.01141993 15.3032667,2.88839528 14.5122055,2.99091582 C14.0601706,3.05242814 13.5704661,3.02508933 13.1749355,2.75853593 C12.996005,2.64234599 12.7134831,2.49198253 12.4592135,2.71752772 C12.1672742,2.98408112 11.8094132,2.9430729 11.4421348,2.84055236 C11.0277694,2.72436242 10.7829172,2.73803182 10.6134041,3.11394047 C10.4344736,3.51035321 10.1331169,3.54452673 9.53040364,3.36682446 C9.04069911,3.22329571 8.58866415,3.27113862 8.21196836,3.53769202 C7.88235953,3.77007191 7.55275071,3.96144358 7.07246357,3.97511299 C6.82761131,3.98194769 6.70518517,4.07763353 6.75227215,4.26217049 C6.77110694,4.35785633 6.78994173,4.48771568 6.62984601,4.52188919 C5.83878484,4.69959146 5.20781938,5.02082248 4.73694964,5.51975577 C4.68986266,5.56759868 4.54860174,5.56759868 4.45442779,5.59493749 C3.85171452,5.76580506 3.84229712,5.77263976 4.17190594,6.18955662 C4.39792342,6.48344883 4.76520182,6.75000223 4.96296711,7.00972092 C5.1795672,7.28994373 5.33024552,7.67268707 5.52801081,8.00075279 C5.79169787,8.45184316 5.75402829,8.51335548 5.11364543,8.48601667 C4.83112359,8.47234727 4.58627132,8.45867786 4.41675821,8.65004954 C4.49209737,8.77990888 4.63335829,8.75940478 4.76520182,8.75257007 C5.1701498,8.72523126 5.58451518,8.69105775 5.98004576,8.80041299 C6.30965459,8.89609883 6.62984601,9.05329699 6.56392425,9.33351979 C6.49800248,9.64108141 6.11188929,9.55906498 5.81053266,9.55906498 C5.74461089,9.55906498 5.65985434,9.52489146 5.61276736,9.53856087 C5.06655846,9.70259373 4.33200166,9.59323849 4.09656678,10.201527 C3.96472325,10.5432621 3.48443611,10.7004603 2.98531418,10.7688073 C2.5897836,10.8234849 2.19425301,10.891832 1.80813982,10.9806831 C1.16775697,11.1310466 1.1112526,11.1993936 1.28076571,11.6846575 C1.52561797,12.3749624 1.76105285,13.0721021 2.31667915,13.6803906 C2.62745318,14.015291 2.44852268,14.2818444 1.98707032,14.2203321 C1.15833957,14.1109769 0.734556803,14.5483978 0,14.7671083 C0.51795672,14.9174718 0.932322095,14.9243065 1.25251352,15.143017 C2.11891385,15.7376361 1.8552268,16.5304616 2.0341573,17.2481054 C2.06240948,17.3642953 1.87406159,17.4463117 1.74221806,17.5351629 C0.922904701,18.0682697 0.951156885,19.1959956 1.83639201,19.6265818 C2.27900957,19.8452923 2.53327923,20.1596886 2.90055763,20.4125726 C3.18307948,20.6039443 3.12657511,20.7679772 2.957062,21.0003571 C2.60861839,21.4719515 2.74987931,21.8683643 3.40909696,22.0870748 C3.82346233,22.2237688 4.03064502,22.4356446 4.22841031,22.702198 C5.01005409,23.713734 5.57509778,24.793617 6.20606324,25.8598306 C6.52625467,26.3997721 7.18547231,26.7893501 7.392655,27.3908039 C7.54333332,27.8350596 7.90119432,28.217803 8.43798583,28.539034 C8.8617686,28.791918 9.29496877,29.0994796 9.49273406,29.5163964 C10.0295256,30.6441224 10.7358302,31.7035013 11.9412567,32.537335 C12.3179525,32.7970537 12.3838743,32.9679212 11.9695089,33.2549787 C11.3856304,33.6582262 11.0842738,34.1844983 10.9995172,34.765448 C10.9712651,34.9431503 10.9524303,35.1140178 10.8205867,35.2643813 C10.4533083,35.6676287 10.3214648,36.0435374 10.8582563,36.4536195 C11.0842738,36.6313218 11.159613,36.8705364 10.6981606,37.0482387 C10.1236995,37.2737838 9.85059507,37.7112048 9.92593423,38.1691299 C10.0106908,38.6202202 9.73758633,38.8731042 9.40797751,39.2080047 C8.8617686,39.7616156 8.35322928,40.3699041 8.25905533,41.0738785 C8.22138575,41.3677707 8.3249771,41.6479935 7.95769869,41.8803734 C7.79760298,41.9828939 7.77876819,42.1811003 7.92944651,42.2904555 C8.3155597,42.5706783 8.52274239,42.9397523 8.84293381,43.2473139 C8.90885558,43.3088262 9.45506448,44.279354 9.43622969,44.3545357 C9.25729919,44.921816 9.69049936,45.5027657 9.27613398,46.0837154 C9.03128171,46.4254506 9.73758633,46.9312186 10.2743778,46.828698 C11.2443695,46.6509957 12.2708656,46.7125081 13.1937703,46.3434341 C13.5233791,46.2135748 13.9848314,46.2409136 14.3709446,46.1383931 C14.6911361,46.0563766 14.8700666,46.1725666 14.9359883,46.4117812 C15.0489971,46.8150286 15.3409363,47.1430943 15.7364669,47.5053336 C15.811806,47.3618048 15.858893,47.3002925 15.8871452,47.2319455 C16.2073366,46.3844423 16.4898585,46.2204095 17.7047024,46.2477483 C17.9495547,46.254583 18.0719808,46.1657319 18.1755722,46.0290378 C18.2697461,45.8991785 18.3356679,45.7351456 18.6087723,45.7829885 C18.9007116,45.8376661 18.9195464,46.0222031 18.9666333,46.1930707 C19.0325551,46.4117812 19.0137203,46.6304916 18.9383812,46.8492021 C18.8253724,47.1909372 18.9007116,47.5326724 19.0702247,47.8675728 C19.2020682,48.1272915 19.3809987,48.2229773 19.7953641,48.2639856 C20.8595297,48.3733408 21.8766084,48.2981591 22.893687,48.0589445 C23.2421306,47.976928 23.5999916,48.0452751 23.7130004,48.3391673 C23.8071743,48.5920513 23.609409,48.7765882 23.251548,48.8107618 C22.6959217,48.8654394 22.7712609,49.1183234 22.8371826,49.5147361 C23.1762089,49.104654 23.5529047,48.8927782 24.0802788,49.0021334 C24.7677486,49.1456622 24.3628006,49.6445955 24.6359051,50 C25.0973574,49.6582649 25.6247315,49.6035873 26.20861,49.7607854 C26.5476362,49.8496365 26.8772451,49.7949589 27.2068539,49.7129425 C28.1015064,49.494232 29.0338285,49.3165297 29.8060549,48.9064476 C30.0320723,48.7902576 30.239255,48.8244312 30.4841073,48.8449353 C31.3316728,48.9064476 31.3975946,48.8654394 31.5953599,48.2093079 C31.6801165,47.9290851 31.859047,47.8744075 32.1604036,48.0179363 C32.4900124,48.1751344 32.7913691,48.3870102 33.2622388,48.3118285 C32.8572908,47.8470687 32.8949604,47.724044 33.4317519,47.724044 C34.816109,47.7172093 36.1251269,48.0111016 37.6978318,48.2434814 C36.4453183,48.7424147 35.3434831,48.3186632 34.0721348,48.4280184 C34.6089263,48.6125554 34.9479525,48.667233 35.2775613,48.6193901 C36.0686225,48.5032001 36.8502663,48.6535636 37.6036579,48.7424147 C38.1027798,48.8039271 38.6019017,48.8449353 39.1010236,48.8381006 C39.4871368,48.8312659 39.8355804,48.8791088 40.2028588,48.9406211 C41.803816,49.2003398 43.3953557,49.3643727 44.9115563,48.7014065 C45.0904868,48.6193901 45.3165043,48.6877371 45.5048522,48.667233 C46.2299916,48.5852166 46.9928006,48.7765882 47.6896878,48.5510431 C48.2641489,48.3596714 48.8762796,48.3596714 49.4884102,48.3254979 C51.9651851,48.1682997 54.4419599,48.4211837 56.9187348,48.4006796 C58.3407614,48.3870102 59.7722055,48.3254979 61.1848147,48.5032001 C61.5144235,48.5442084 61.740441,48.4211837 62.1171368,48.2161426 C60.3466665,48.1067874 58.7645442,47.8470687 57.1353349,47.9359198 C56.6267956,47.9632586 55.9864127,47.8265646 55.6379691,48.0042669 C55.0729254,48.2844897 54.5926383,48.0794486 54.0840989,48.0794486 C53.9145858,48.0794486 53.7356553,48.0521098 53.6697336,47.9154157 C53.5943944,47.7377135 53.7639075,47.6351929 53.9334206,47.5600112 C54.0746815,47.4984989 54.2441946,47.4643254 54.4137078,47.4438212 C55.2141863,47.3549701 56.0052475,47.2729537 56.8245609,47.3071272 C57.6721264,47.3481354 58.5385267,47.3686395 59.3672575,47.266119 C61.2978234,47.0337391 63.2283894,47.0679126 65.1683727,47.0405738 C65.3755554,47.0405738 65.6109903,47.0337391 65.7428338,47.1567637 C66.0724426,47.4574906 66.5150602,47.4096477 66.9576778,47.4301518 C67.7299041,47.4574906 68.4832957,47.3481354 69.2743569,47.402813 C69.7169745,47.4301518 70.1784268,47.6010194 70.6210444,47.5258377 C71.7888014,47.3276313 72.9753931,47.3207966 74.1619849,47.3002925 C74.7270286,47.2934578 75.2261505,47.2182761 75.7252724,46.8013592 C74.4068371,47.1635984 73.2014106,46.897045 71.9865666,46.9312186 C70.7905575,46.9653921 69.5662962,47.2114414 68.1442695,46.8492021 C68.7846524,46.6509957 69.0671742,46.2409136 69.5945483,46.3844423 C70.159592,46.5348058 70.5362878,46.5689793 70.658714,46.0427072 C70.6681314,45.9948643 70.8188097,45.9265173 70.9035662,45.9265173 C71.5251143,45.933352 72.2408363,45.6052863 72.7211234,46.1930707 C72.8623844,46.3639382 73.1354888,46.3160953 73.3803411,46.2955912 C74.1902371,46.2340789 75.0095504,46.254583 75.810029,46.2067401 C77.8441863,46.0837154 79.9536827,46.507467 81.9125009,45.817162 C83.5699624,45.7351456 85.1897543,45.3934105 86.875468,45.4617575 C87.1768246,45.4754269 87.6759466,45.5096004 87.7512857,45.4070799 C88.1373989,44.9149813 88.7495296,45.1200224 89.2769037,45.0516753 C89.8419474,44.9833283 90.4352433,45.0311712 91.000287,44.990163 C93.6842445,44.7987914 96.3682021,44.8192955 99.0521596,44.7919567 C100.069238,44.7851219 101.095734,44.7714525 102.112813,44.737279 C102.508344,44.7236096 103.016883,44.8056261 103.092222,44.3066928 C103.120474,44.1289905 103.572509,44.0469741 103.798527,44.1289905 C104.608423,44.4092133 105.427736,44.0743129 106.265884,44.2041722 C107.160537,44.347701 108.139946,44.1836681 109.081685,44.1563293 C109.57139,44.1426599 110.023425,44.0811476 110.409538,43.8487677 C110.710894,43.6642307 111.097008,43.6232225 111.473703,43.6779001 C111.888069,43.7394125 112.283599,43.7052389 112.688547,43.6847348 C113.809217,43.6300572 114.929887,43.5958837 116.050557,43.5412061 C118.084715,43.4455202 120.118872,43.5412061 122.162447,43.3703385 C123.123021,43.2883221 124.130682,42.8782399 125.138343,43.267818 C125.194848,43.2883221 125.336109,43.2336445 125.420865,43.199471 C125.8729,42.9670911 126.400274,43.014934 126.908814,43.0012646 C129.395006,42.946587 131.871781,42.9534217 134.348556,43.1584627 C134.753504,43.1926363 135.139617,43.2814874 135.5634,43.2541486 C137.211444,43.1311239 138.868905,43.1311239 140.516949,43.2746527 C141.402184,43.3498344 142.268585,43.3293303 143.15382,43.2541486 C144.152064,43.1652974 145.187977,43.0764463 146.157969,43.4386855 C146.327482,43.5001979 146.553499,43.520702 146.751265,43.5138673 C147.693004,43.4865285 148.625326,43.4250161 149.567066,43.4250161 C150.621814,43.4250161 151.695397,43.3908426 152.712476,43.5343714 C153.964989,43.7120736 155.208085,43.657396 156.451182,43.6505613 C157.157486,43.6505613 157.863791,43.5753796 158.570095,43.7120736 C158.758443,43.7462472 158.975043,43.7462472 159.172809,43.7257431 C159.982705,43.6437266 160.802018,43.6779001 161.602497,43.7257431 C163.372967,43.8350983 165.13402,43.8145942 166.895072,43.7599166 C168.317099,43.7189084 169.748543,43.6642307 171.17057,43.7052389 C173.647345,43.7804207 176.105285,43.9512882 178.591477,43.7804207 C180.540878,43.6437266 182.509113,43.5958837 184.467931,43.5070326 C184.844627,43.4933632 185.193071,43.4181814 185.550932,43.3635038 C186.257236,43.2609833 186.935289,43.1037851 187.698098,43.1106198 C189.148377,43.1311239 190.645742,43.1379586 192.039517,42.8919093 C193.216691,42.6800336 194.337361,42.4271496 195.57104,42.4613231 C196.616371,42.4886619 197.708789,42.2836208 198.71645,42.4203149 C199.761781,42.5638436 200.797694,42.64586 201.843025,42.6663642 C202.671756,42.6868683 203.330973,43.0969504 204.159704,43.1037851 C204.734165,43.1106198 205.336878,43.0764463 205.883087,43.1858016 C207.088514,43.4386855 208.312775,43.5070326 209.546454,43.5343714 C211.00615,43.5617102 212.494099,43.4386855 213.878456,43.8692718 C214.867282,44.1768334 215.856109,44.1973375 216.892022,44.1289905 C217.438231,44.094817 217.956188,44.2656846 218.483562,44.3408663 C219.632484,44.4980644 220.83791,44.3135275 221.920911,44.5937503 C223.776138,45.0653448 225.725538,44.9628242 227.618435,45.2362123 C228.899201,45.4207493 230.245888,45.4412534 231.573741,45.4890963 C232.863924,45.5369392 234.144689,45.5711127 235.44429,45.5437739 C236.357777,45.5232698 237.280682,45.5847821 238.184752,45.7009721 C239.512605,45.865005 239.842213,45.8581703 240.953466,45.3182287 C241.170066,45.2157082 241.405501,45.2088735 241.640936,45.243047 C242.592093,45.3934105 243.524415,45.0790142 244.475572,45.2088735 C244.673337,45.2362123 244.955859,45.1883694 244.927607,45.0038324 C244.84285,44.5595768 245.153624,44.4980644 245.643329,44.532238 C245.803424,44.5459074 245.972937,44.4980644 245.991772,44.3340316 C245.662163,44.0811476 245.181876,44.2930234 244.833433,44.1563293 C243.825771,43.773586 242.723936,43.8761065 241.659771,43.8145942 C241.367831,43.7940901 241.094727,43.841933 241.08531,43.5548755 C241.075892,43.3156609 241.160649,43.1037851 241.556179,43.0696116 C241.857536,43.0422728 242.16831,43.0217687 242.469667,43.0217687 C244.758094,43.014934 247.055938,43.2063057 249.344365,43.0627769 C249.344365,42.2699514 249.32553,42.2289432 248.308451,42.1469268 C247.639816,42.0990838 247.018268,41.8735387 246.311964,41.9555551 C246.048277,41.9897286 245.671581,41.866704 245.53032,41.565977 C246.038859,41.3814401 246.509729,41.4907953 246.971181,41.5112994 C247.234868,41.5181341 247.33846,41.4224483 247.413799,41.2789195 C247.51739,41.0807132 247.30079,41.0123661 247.112442,40.9645232 C246.415555,40.7799863 245.690416,40.670631 244.955859,40.5749452 C244.729841,40.5476064 244.466154,40.5476064 244.475572,40.2468795 C245.210129,40.0896813 246.085946,40.1922018 246.698077,39.7411115 C246.726329,39.7206074 246.820503,39.7547809 246.886425,39.7684503 C247.055938,39.8094585 247.244286,39.8231279 247.291373,39.6659297 C247.33846,39.5155663 247.150112,39.454054 246.980599,39.4335498 C246.848755,39.4130457 246.707494,39.4267151 246.575651,39.4130457 C246.39672,39.3925416 246.264877,39.3173599 246.246042,39.1738312 C246.21779,38.9892942 246.283712,38.8184266 246.500312,38.7159061 C246.65099,38.6407244 246.848755,38.6680632 246.961764,38.7774184 C247.347877,39.1669964 247.865834,39.0508065 248.214277,38.8457654 C248.713399,38.5518732 249.240774,38.5928814 249.626887,38.7842531 C250.182513,39.0576412 250.606296,38.8799389 251.048913,38.7227408 C251.491531,38.5655426 251.510366,38.3878404 251.105418,38.1144523 C250.954739,38.0119317 250.766392,37.9230806 250.738139,37.7727171 C250.6628,37.4173126 250.40853,37.2669491 249.899991,37.3079574 C249.749313,37.3216268 249.570382,37.2532797 249.419704,37.1986021 C249.156017,37.0960816 249.203104,36.9115446 249.212521,36.740677 C249.221939,36.5698095 249.391452,36.5971483 249.560965,36.5629748 C250.135426,36.4399501 250.70047,36.2759173 251.265513,36.1255538 C251.482114,36.0640415 251.548035,35.9273474 251.5292,35.7633146 C251.482114,35.4215794 251.425609,35.0798443 251.38794,34.7312745 C251.35027,34.4305476 251.143087,34.2528453 250.719305,34.3211923 C250.352026,34.3827047 250.078922,34.3143576 249.994165,34.075143 C249.899991,33.8290938 249.532713,33.8017549 249.400869,33.6035486 C249.683391,33.2686481 250.248435,33.2139705 250.549791,32.8859048 C251.38794,31.9700547 252.913558,31.8812035 253.996558,32.6603596 C254.439176,32.9747559 255.023054,33.1319541 255.559846,33.0567724 C256.030715,32.9884253 256.416828,32.9132436 256.850029,33.11145 C257.000707,33.179797 257.273811,33.2344746 257.367985,33.043103 C257.471577,32.8243925 257.245559,32.7697149 256.99129,32.7013678 C256.30382,32.5031615 255.823533,32.1545916 255.672854,31.6419889 C255.814115,31.4984602 255.945959,31.5326337 256.08722,31.5326337 C256.91595,31.5394684 257.019542,31.4642867 257.000707,30.8491634 C256.99129,30.4185772 257.584585,30.0905115 258.196716,30.2272055 C258.450986,30.2818831 258.695838,30.4322466 258.968942,30.3570649 C259.364473,30.2477096 259.684664,30.3092219 259.995439,30.5005936 C260.193204,30.6236183 260.419221,30.6988 260.588734,30.4869242 C260.767665,30.2682137 260.513395,30.1793626 260.306213,30.0973462 C260.193204,30.0495032 260.070778,29.9948256 259.938934,29.9811562 C259.279716,29.8991398 259.063116,29.5847435 259.053699,29.1473225 C259.986021,28.9627855 260.871256,28.8260915 261.351543,29.9196439 C261.624648,29.113149 262.0861,28.7987527 262.961918,28.9696202 C263.037257,28.9832896 263.187935,28.9491161 263.235022,28.8944385 C263.630553,28.4706869 264.242684,28.6483892 265.005493,28.6347198 C264.299188,28.4091746 264.073171,28.0537701 263.715309,27.7940514 C263.46104,27.6026797 263.592883,27.4113081 263.960162,27.4113081 C264.299188,27.4113081 264.628797,27.459151 264.920736,27.274614 C265.363354,26.9943912 265.871893,26.9328789 266.446354,26.9807218 C266.757128,27.0080606 267.067902,26.9738871 267.425763,26.9670524 C267.284502,26.7961848 267.124406,26.7620113 266.964311,26.7210031 C266.634702,26.6389867 266.088493,26.7073337 266.210919,26.2972515 C266.31451,25.9486817 265.645875,25.8529959 265.843641,25.5112607 C266.13558,25.0054928 266.229754,24.4313777 266.917224,24.0759732 C267.397511,23.8299239 267.51052,23.3036518 267.077319,23.091776 C266.728876,22.9209085 266.738293,22.7158674 266.597032,22.5039916 C266.342763,22.0939095 266.276841,21.622315 265.730632,21.2805799 C266.003736,21.2190675 266.182667,21.1712246 266.380432,21.1302164 C265.862476,20.8841671 265.127919,21.116547 264.609962,20.6927954 C265.240927,20.5629361 265.787136,20.4535809 266.342763,20.3373909 C265.805971,19.7974494 266.079076,19.5582348 267.331589,18.8815993 C266.879554,18.7859134 266.465189,18.6765582 266.031989,18.7312358 C265.476362,18.8064175 265.184423,18.5672029 264.996075,18.2733107 C264.817145,17.9862532 265.316267,17.9520797 265.457528,17.7812122 C265.824806,17.3506259 266.465189,17.4189729 266.992563,17.2891136 C267.124406,17.2549401 267.265667,17.2002624 267.246833,17.0909072 C267.209163,16.9200396 267.011398,16.9200396 266.851302,16.9747172 C266.144997,17.2002624 265.410441,17.2617748 264.657049,17.1455848 C264.073171,17.0567337 263.498709,16.9063702 262.933666,17.2070971 C262.858327,17.2481054 262.669979,17.1592542 262.547553,17.1729236 C261.794161,17.2686095 261.125526,16.8858661 260.3533,16.9678825 C260.070778,17.0020561 259.807091,16.7423374 259.769421,16.5372963 C259.722334,16.2844123 260.089612,16.2023959 260.343882,16.2365694 C260.918343,16.3117511 261.502222,16.1477182 262.057848,16.3254205 C262.3027,16.4074369 262.575805,16.4074369 262.77357,16.2570735 C262.745318,16.10671 262.632309,16.0520324 262.509883,16.0041895 C262.359205,15.9495119 262.170857,15.9085037 262.217944,15.7513055 C262.255613,15.5941073 262.453379,15.600942 262.613474,15.5736032 C262.858327,15.5257603 263.169101,15.6077767 263.366866,15.3207192 C262.943083,15.2660416 262.717066,15.0063229 262.34037,14.890133 C261.568143,14.6440837 261.568143,14.637249 261.935422,14.0699687 C262.293283,13.5163578 262.453379,13.4753495 263.263275,13.6598865 C263.875405,13.8034153 264.496953,13.9127705 265.203258,13.9332746 C265.061997,13.7419029 264.704136,13.6872253 264.770058,13.5026884 C264.854814,13.2703085 265.165588,13.3933331 265.382188,13.3796637 C266.088493,13.3181514 266.82305,13.3249861 267.491685,13.1814573 C268.791285,12.9012345 270.109721,12.682524 271.456408,12.5800035 C271.682426,12.5594994 271.927278,12.5389953 272.021452,12.3339542 C271.418739,12.2519378 270.844277,12.1152437 270.232147,12.108409 C269.902538,12.108409 269.610599,11.9922191 269.582347,11.7325004 C269.554094,11.5137899 269.864868,11.5001205 270.062634,11.4112694 C270.65593,11.144716 271.258643,10.9396749 271.974365,10.9943525 C272.087374,11.0011872 272.256887,11.0148566 272.266304,10.8166502 C271.494078,10.570601 270.505251,11.0080219 269.695355,10.4749151 C270.36399,10.1878576 271.032625,10.1673535 271.654173,10.1400147 C272.190965,10.0785024 272.482904,9.77777546 272.8596,9.55223027 Z M247.978843,36.7816853 C247.875251,36.9662222 247.658651,36.925214 247.376129,36.9320487 C247.103025,36.8910405 246.745164,36.856867 246.39672,36.7816853 C246.227207,36.7475117 246.133033,36.6176524 246.161285,36.4946277 C246.189538,36.3647684 246.359051,36.2690826 246.528564,36.2964214 C246.980599,36.3579337 247.432634,36.4467848 247.865834,36.5424707 C247.997677,36.5698095 248.035347,36.67233 247.978843,36.7816853 Z M248.816991,37.7795518 C248.713399,37.7658824 248.647478,37.7112048 248.685147,37.6360231 C248.703982,37.6018496 248.788739,37.5745108 248.845243,37.5745108 C248.939417,37.5676761 249.024173,37.5950149 249.033591,37.683866 C249.005339,37.7590477 248.920582,37.7932212 248.816991,37.7795518 Z" id="Shape" fill="#27C1DE"></path>
                <path d="M177.995102,3 C177.995102,3 177.995102,3 177.995102,3 L177.995102,3 C178.008164,3 178.008164,3 177.995102,3 Z" id="Path" fill="#C2C4C6"></path>
                <path d="M178.788171,2.77931034 C178.017882,2.83448276 177.26685,2.66896552 176.50619,2.64137931 C174.291609,2.55862069 172.0674,2.66206897 169.862448,2.45517241 C169.554333,2.42758621 169.236589,2.44827586 168.918845,2.45517241 C167.667125,2.47586207 166.405777,2.46206897 165.173315,2.39310345 C163.237964,2.28275862 161.292985,2.13103448 159.357634,2.11724138 C156.594223,2.08965517 153.821183,2.07586207 151,2 C151.259972,2.20689655 151.548831,2.17241379 151.808803,2.16551724 C152.887208,2.14482759 153.955983,2.23448276 155.024759,2.28965517 C157.9326,2.44137931 160.859697,2.42068966 163.767538,2.57931034 C165.808803,2.68965517 167.859697,2.66206897 169.910591,2.70344828 C172.259972,2.75172414 174.609354,2.8137931 176.949106,2.88275862 C177.632737,2.90344828 178.345254,2.75172414 179,3 C178.971114,2.90344828 178.951857,2.76551724 178.788171,2.77931034 Z" id="Path" fill="#C2C4C6"></path>
                <path d="M82.7475728,2.63870181 C83.4368932,2.66093554 84.1359223,2.62758494 84.815534,2.74987048 C86.0097087,2.9833247 87.1941748,3.28348012 88.3106796,2.44971506 C88.5533981,2.26072832 88.8349515,2.27184518 89.1165049,2.27184518 C89.368932,2.27184518 89.6504854,2.42748133 90,2.08285844 C89.4563107,2.0606247 89.0485437,1.94945603 88.592233,2.0272741 C87.3300971,2.24961145 86.0873786,2.70540301 84.776699,2.36078012 C84.5145631,2.29407892 84.223301,2.38301386 83.9417476,2.4385982 C83.2912621,2.56088374 82.6407767,2.54976687 82,2.38301386 C82.2038835,2.67205241 82.4757282,2.62758494 82.7475728,2.63870181 Z" id="Path" fill="#C2C4C6"></path>
                <path d="M84.0261244,2.01085106 C84.0130622,2 84.0130622,2 84,1.98914894 L83.9738756,2.01085106 C83.9869378,2.01085106 84.0130622,2.01085106 84.0261244,2.01085106 Z" id="Path" fill="#C2C4C6"></path>
                <path d="M54.4315789,1.71506929 C56.5894737,1.601097 58.7473684,1.43013857 61,1.07397518 C58.3894737,0.81753754 55.9157895,1.28767322 53.4210526,1.57260393 C53.2,1.601097 53.1052632,1.8005485 53,2 C53.4421053,1.64383661 53.9473684,1.74356236 54.4315789,1.71506929 Z" id="Path" fill="#C2C4C6"></path>
                <path d="M55.0048983,1.99758865 C54.9918361,1.99758865 54.9918361,1.99758865 55.0048983,1.99758865 L55.0048983,1.99758865 C54.9918361,2.00843972 54.9918361,1.99758865 55.0048983,1.99758865 Z" id="Path" fill="#C2C4C6"></path>
                <path d="M185.934689,3.00542553 C185.960813,3.00542553 185.986938,3.00542553 186.013062,3.00542553 C186.013062,3.00542553 186.013062,3.00542553 186.013062,3.00542553 C186.026124,3.00542553 186.039187,3.00542553 186.065311,3.0162766 C186.065311,3.00542553 186.052249,2.99457447 186.052249,2.9837234 C186.013062,2.99457447 185.973876,2.99457447 185.934689,3.00542553 Z" id="Path" fill="#C2C4C6"></path>
                <path d="M180,2.40798939 C180.821656,2.37134745 181.633758,2.32249151 182.44586,2.32249151 C182.904459,2.32249151 183.410828,2.20035169 183.735669,2.84769278 C183.83121,3.0431165 184.041401,3.03090252 184.203822,2.92097667 C184.767516,2.5423432 185.407643,2.59119914 186,2.40798939 C184.347134,2.28584957 182.694268,2.16370974 181.041401,2.00492796 C180.649682,1.96828601 180.315287,2.13928177 180,2.40798939 Z" id="Path" fill="#C2C4C6"></path>
                <path d="M124.057778,1.03535098 C124.573333,1.03535098 125.088889,1.06263452 125.595556,1.03535098 C126.057778,1.01488833 126.555556,1.16494777 127,0.960321264 C124.982222,1.05581364 122.973333,0.878470659 121,0.946679496 C121.506667,0.980783915 122.013333,1.03535098 122.52,1.05581364 C123.035556,1.0694554 123.542222,1.04217187 124.057778,1.03535098 Z" id="Path" fill="#C2C4C6"></path>
                <path d="M13.7221555,47.5434653 C13.3020003,47.3878284 12.8750685,47.2218158 12.4549133,47.0661789 C12.3193794,47.0143 12.1567387,46.9105421 12.061865,47.1595611 C11.9805446,47.3567011 11.9805446,47.5953442 12.0550883,47.80286 C12.149962,48.0622547 12.3261561,47.9688726 12.4481366,47.9066179 C12.9767189,47.6160958 13.4917478,47.7613568 14,48 C13.9728932,47.7509811 13.8780195,47.60572 13.7221555,47.5434653 Z" id="Path" fill="#C2C4C6"></path>
                <path d="M13.9970973,48 C13.9970973,48 13.9970973,48 13.9970973,48 C13.9970973,48 13.9970973,48 13.9970973,48 C13.9970973,48 14.0101595,48 13.9970973,48 C13.9970973,48 13.9970973,48 13.9970973,48 C13.9970973,48 13.9970973,48 13.9970973,48 Z" id="Path" fill="#C2C4C6"></path>
                <path d="M151,2.05736207 C149.333333,2.0437203 147.687371,1.79134761 146,1.95504881 C147.666667,2.02325765 149.322981,2.17331709 151,2.05736207 Z" id="Path" fill="#C2C4C6"></path>
                <path d="M264,15.1388425 C263.094527,14.7530465 262.547264,15.2259578 262,15.8855445 C262.78607,16.1842253 263.373134,15.8855445 264,15.1388425 Z" id="Path" fill="#C2C4C6"></path>
                <path d="M100.806794,1.08322984 C102.208068,1.05594631 103.598726,1.03548365 105,1.00820012 C103.333333,0.994558352 101.656051,1.02184189 100,0.912707748 C100.201699,1.11051338 100.509554,1.09005072 100.806794,1.08322984 Z" id="Path" fill="#C2C4C6"></path>
                <path d="M53,2.08616408 C53.5284281,2.07252231 54.2575251,2.05205966 55,2.03159701 C54.2508361,1.76558254 53.5217391,2.02477612 53,2.08616408 Z" id="Path" fill="#C2C4C6"></path>
                <path d="M51.2071749,1.99232714 C51.0565022,1.99232714 50.9152466,2.0031782 50.7928251,2.0031782 C50.9152466,2.01402927 51.0565022,2.0031782 51.2071749,1.99232714 Z" id="Path" fill="#C2C4C6"></path>
                <path d="M266,14.0089321 C266.678899,14.2272004 267.348624,14.1930959 268,13.9270815 C267.311927,13.6951714 266.678899,14.0498574 266,14.0089321 Z" id="Path" fill="#C2C4C6"></path>
                <path d="M62,48.0002204 C62.6453901,48.0752501 63.2978723,48.136638 64,47.9933995 C63.3049645,47.9592951 62.6524823,47.84334 62,48.0002204 Z" id="Path" fill="#C2C4C6"></path>
                <path d="M39,49.8869586 C39.9950739,50.2007193 40.1330049,50.214361 41,50.0370181 C40.3103448,49.8869586 39.729064,49.7914663 39,49.8869586 Z" id="Path" fill="#C2C4C6"></path>
                <path d="M139,0.942022489 C138.333333,0.96248514 137.666667,0.982947791 137,1.00341044 C137,1.02387309 137,1.03751486 137,1.05797751 C137.666667,1.03751486 138.333333,1.01705221 139,0.996589558 C139,0.976126907 139,0.955664256 139,0.942022489 Z" id="Path" fill="#C2C4C6"></path>
                <path d="M41,2.90141103 C40.2533333,2.82638131 39.6488889,3.11285843 39,3.05147047 C39.6577778,3.20152991 40.28,3.0378287 41,2.90141103 Z" id="Path" fill="#C2C4C6"></path>
                <path d="M73.1836323,1.99063114 C73.0612108,1.96892901 72.9387892,1.96892901 72.8163677,2.01233327 C72.9387892,2.03403539 73.0612108,2.02318433 73.1836323,1.99063114 Z" id="Path" fill="#C2C4C6"></path>
                <path d="M75,3.06990079 C74.6285714,2.79024456 74.3071429,2.92666223 74,2.9812293 C74.3,3.00851284 74.6142857,3.16539316 75,3.06990079 Z" id="Path" fill="#C2C4C6"></path>
                <path d="M114,0.955741285 C113.333333,0.977443412 112.666667,0.99914554 112,1.02084767 C112.675,1.08595405 113.341667,0.99914554 114,0.955741285 Z" id="Path" fill="#C2C4C6"></path>
                <path d="M14,48.0112489 C14.3221477,48.0317116 14.6510067,48.2158754 15,48.0521742 C14.6442953,47.7247718 14.3221477,47.9566819 14,48.0112489 Z" id="Path" fill="#C2C4C6"></path>
                <path d="M13.8634529,48.006742 C13.9576233,48.0175931 14.0423767,48.006742 14.1365471,47.9958909 C14.0423767,47.9850399 13.9482063,47.9850399 13.8634529,48.006742 Z" id="Path" fill="#C2C4C6"></path>
                <path d="M130,0.945744681 C129.666667,0.962892848 129.333333,0.980041014 129,0.988615098 C129.333333,1.04863368 129.666667,1.11722635 130,0.945744681 Z" id="Path" fill="#C2C4C6"></path>
                <path d="M100,0.945744681 C99.6632124,0.966040114 99.3316062,0.986335547 99,0.996483264 C99.3367876,1.00663098 99.6735751,1.14869901 100,0.945744681 Z" id="Path" fill="#C2C4C6"></path>
                <path d="M98.8446188,1.00542553 C98.9482063,1.00542553 99.0517937,0.994574468 99.1553812,0.994574468 C99.0517937,0.994574468 98.9482063,0.994574468 98.8446188,1.00542553 Z" id="Path" fill="#C2C4C6"></path>
                <path d="M102.013062,1.00542553 C102.026124,1.00542553 102.039187,1.00542553 102.039187,1.00542553 C102.039187,1.00542553 102.026124,0.994574468 102.026124,0.994574468 C102,1.00542553 101.973876,1.00542553 101.960813,1.00542553 C101.973876,1.00542553 102,1.00542553 102.013062,1.00542553 C102.013062,1.00542553 102.013062,1.00542553 102.013062,1.00542553 Z" id="Path" fill="#C2C4C6"></path>
                <path d="M105,1.93416308 C104.648936,1.87959601 104.329787,1.91370043 104,1.94780484 C104.606383,2.14561047 104.606383,2.14561047 105,1.93416308 Z" id="Path" fill="#C2C4C6"></path>
                <path d="M141,1.9388547 C140.666667,1.94567558 140.333333,1.95249646 140,1.95931735 C140.00813,1.97978 140.02439,2.00024265 140.04065,2.03434707 C140.349593,2.08891414 140.666667,2.0616306 141,1.9388547 Z" id="Path" fill="#C2C4C6"></path>
                <path d="M43,2.94574468 C42.6940299,2.95467922 42.3880597,2.96361375 42,2.98148282 C42.3955224,3.16017352 42.6940299,2.95467922 43,2.94574468 Z" id="Path" fill="#C2C4C6"></path>
                <path d="M36,3.90065068 C35.6666667,3.85972538 35.4102564,3.96885952 35,4.09163542 C35.4444444,4.08481454 35.7606838,4.20076956 36,3.90065068 Z" id="Path" fill="#C2C4C6"></path>
                <path d="M133,1.00542553 C133,0.994574468 133,0.983723404 133,0.962021277 C132.67,0.97287234 132.33,0.983723404 132,0.994574468 C132,1.00542553 132,1.0162766 132,1.03797872 C132.33,1.02712766 132.66,1.0162766 133,1.00542553 Z" id="Path" fill="#C2C4C6"></path>
                <path d="M162,3.01085106 C162,3.01085106 162.026124,2.98914894 162.026124,2.98914894 C162.013062,2.98914894 161.986938,3 161.973876,3 C161.973876,3.01085106 161.986938,3.01085106 162,3.01085106 Z" id="Path" fill="#C2C4C6"></path>
                <path d="M160.744592,2.98294779 C160.744592,2.87381365 160.653375,2.79878393 160.324993,2.79878393 C160.106072,2.79878393 159.996611,2.853351 160.014854,2.9352016 C160.051341,3.03751486 159.83242,3.20121607 160.36148,3.20121607 C160.580401,3.20121607 160.781079,3.16029077 161,3.13300723 C160.799322,3.1057237 160.744592,3.05115663 160.744592,2.98294779 Z" id="Path" fill="#C2C4C6"></path>
                <path d="M118,0.962021277 C117.670213,0.97287234 117.340426,0.983723404 117,0.994574468 C117,1.00542553 117,1.0162766 117,1.03797872 C117.329787,1.02712766 117.659574,1.0162766 118,1.00542553 C118,0.983723404 118,0.97287234 118,0.962021277 Z" id="Path" fill="#C2C4C6"></path>
                <path d="M83,2.05425532 C83,2.02086743 83,1.98747954 83,1.94574468 C82.6696429,1.95409165 82.3303571,1.96243863 82,1.9707856 C82,1.98747954 82,2.01252046 82,2.0292144 C82.3303571,2.03756137 82.6607143,2.04590835 83,2.05425532 Z" id="Path" fill="#C2C4C6"></path>
                <path d="M65,1.97829787 C64.6712329,1.98914894 64.3287671,1.98914894 64,2 C64,2.01085106 64,2.01085106 64,2.02170213 C64.3150685,2.01085106 64.630137,2.01085106 64.9589041,2 C64.9726027,1.98914894 64.9863014,1.97829787 65,1.97829787 Z" id="Path" fill="#C2C4C6"></path>
                <path d="M18.916843,48.8190306 C18.8038385,48.8190306 18.7379192,48.8872395 18.7567533,48.9622692 C18.7850044,49.091866 18.9074259,49.1737166 19.0863497,49.1805375 C19.1899372,49.1873584 19.2464394,49.1123286 19.2464394,49.030478 C19.1993542,48.914523 19.1146008,48.8190306 18.916843,48.8190306 Z" id="Path" fill="#C2C4C6"></path>
                <path d="M44.9902033,3.0109679 C45.0163278,3.00011684 45.0163278,2.96756365 44.9902033,3.0109679 L44.9902033,3.0109679 Z" id="Path" fill="#C2C4C6"></path>
                <path d="M44.8876404,3.0387538 C44.9213483,3.0387538 44.9775281,3.02325228 44.988764,3.00775076 C44.988764,2.99224924 45,2.98449848 45,2.97674772 C44.988764,2.98449848 44.9550562,2.97674772 44.9101124,2.94574468 C44.6179775,2.96899696 44.3146067,2.98449848 44,3.00775076 C44,3.02325228 44,3.0387538 44,3.05425532 C44.3033708,3.05425532 44.5955056,3.04650456 44.8876404,3.0387538 Z" id="Path" fill="#C2C4C6"></path>
                <path d="M144,1.97287234 C143.672131,1.9837234 143.327869,1.9837234 143,1.99457447 C143,2.00542553 143,2.0162766 143,2.02712766 C143.327869,2.0162766 143.672131,2.0162766 144,2.00542553 C144,1.99457447 144,1.9837234 144,1.97287234 Z" id="Path" fill="#C2C4C6"></path>
                <path d="M56.3950617,2.96107235 C56.2716049,2.95425146 56.1481481,2.981535 56,2.99517677 C56.0617284,3.0224603 56.0987654,3.04292295 56.1358025,3.04292295 C56.3950617,3.04974384 56.654321,3.05656472 56.9135802,3.05656472 C56.9382716,3.05656472 57,3.01563942 57,3.00881853 C56.8271605,2.89286351 56.5925926,2.96789323 56.3950617,2.96107235 Z" id="Path" fill="#C2C4C6"></path>
                <path d="M49.2024664,1.96744681 C49.0800448,1.96744681 48.9576233,1.97829787 48.8257848,1.97829787 C48.8163677,1.97829787 48.8069507,2.01085106 48.7975336,2.03255319 C48.9293722,2.03255319 49.0612108,2.02170213 49.1930493,2.02170213 C49.2024664,2 49.2024664,1.98914894 49.2024664,1.96744681 Z" id="Path" fill="#C2C4C6"></path>
                <path d="M144.984678,2.07883584 C145.144768,2.09929849 145.229521,2.05837319 145.20127,2.03108966 C145.154185,1.98334347 145.060014,1.94241817 144.975261,1.92195552 C144.899925,1.90831375 144.749252,1.90831375 144.805754,2.010627 C144.824588,2.05837319 144.965844,2.07201496 144.984678,2.07883584 Z" id="Path" fill="#C2C4C6"></path>
                <path d="M155.954393,3.11193038 C156.05798,3.12557215 156.152151,3.1051095 156.199236,3.03007978 C156.21807,2.94140829 156.161568,2.8936621 156.048563,2.88684122 C155.954393,2.88002034 155.831971,2.88002034 155.80372,2.96187094 C155.775469,3.03007978 155.841388,3.09828861 155.954393,3.11193038 Z" id="Path" fill="#C2C4C6"></path>
                <path d="M41.7598655,50.0214406 C41.9199552,50.0307195 42.0800448,50.1049506 42.2401345,49.9936039 C42.1836323,49.9750461 42.12713,49.9379305 42.0800448,49.9472094 C41.9670404,49.9564883 41.8634529,49.9936039 41.7598655,50.0214406 Z" id="Path" fill="#C2C4C6"></path>
                <path d="M29.1520819,1.98060322 C29.1238307,1.94574468 29.0390774,1.94574468 28.9731581,1.94574468 C28.9260729,1.94574468 28.8884047,1.98060322 28.8413195,2.00674712 C28.9072388,2.02417639 28.9637411,2.04160566 29.0202433,2.05032029 C29.1144137,2.06774956 29.180333,2.02417639 29.1520819,1.98060322 Z" id="Path" fill="#C2C4C6"></path>
                <path d="M88.9171431,1.03030586 C88.9736454,1.04115693 89.0489817,1.03030586 89.1054839,1.0194548 C89.114901,1.0194548 89.124318,0.986901607 89.1431521,0.976050543 C89.0772328,0.976050543 89.0207306,0.96519948 88.9548113,0.96519948 C88.8418068,0.976050543 88.8229727,1.00860373 88.9171431,1.03030586 Z" id="Path" fill="#C2C4C6"></path>
                <path d="M96.0195933,0.994574468 C96.0065311,0.994574468 96.0065311,0.994574468 95.9804067,1.00542553 L95.9804067,1.00542553 C95.9934689,1.00542553 96.0195933,0.994574468 96.0195933,0.994574468 Z" id="Path" fill="#C2C4C6"></path>
                <path d="M84,1.97167196 C83.7126437,1.95120931 83.4252874,1.87617959 83,2.01941814 C83.4597701,2.11491051 83.7356322,2.04670168 84,1.97167196 Z" id="Path" fill="#C2C4C6"></path>
                <path d="M84.0261244,1.98914894 C84.0130622,2 83.9869378,2 83.9738756,2.01085106 C83.9869378,2.01085106 83.9869378,2.01085106 84,2.01085106 C84,2 84.0261244,1.98914894 84.0261244,1.98914894 Z" id="Path" fill="#C2C4C6"></path>
                <path d="M134.164798,1.00958304 C134.108296,0.988303589 134.051794,0.967024135 134.004709,0.945744681 C133.948206,0.967024135 133.891704,0.988303589 133.835202,0.998943316 C133.891704,1.02022277 133.948206,1.05214195 134.004709,1.05214195 C134.051794,1.06278168 134.108296,1.0308625 134.164798,1.00958304 Z" id="Path" fill="#C2C4C6"></path>
                <path d="M140.95815,3.05663422 C141.005235,3.07027598 141.089988,3.07027598 141.118239,3.04981333 C141.202993,2.96796273 141.127656,2.93385831 141.024069,2.93385831 C140.967567,2.93385831 140.901647,2.95432096 140.845145,2.96796273 C140.873396,2.99524626 140.911064,3.04299245 140.95815,3.05663422 Z" id="Path" fill="#C2C4C6"></path>
                <path d="M266.971749,18.0379787 C267.028251,18.0379787 267.09417,18.0162766 267.16009,18.0162766 C267.150673,17.9945745 267.131839,17.9620213 267.122422,17.9620213 C267.028251,17.9728723 266.934081,17.9945745 266.83991,18.0162766 C266.877578,18.0162766 266.924664,18.0379787 266.971749,18.0379787 Z" id="Path" fill="#C2C4C6"></path>
                <path d="M16.8361702,46.9852214 C16.8173362,47.0943556 16.9397577,47.0807138 17.0339281,47.067072 C17.0810133,47.0602511 17.1186815,47.0193258 17.1657667,46.9920423 C17.1092644,46.9647588 17.0527622,46.9238335 16.9962599,46.9238335 C16.9397577,46.9238335 16.8455873,46.9579379 16.8361702,46.9852214 Z" id="Path" fill="#C2C4C6"></path>
            </g>
            <path d="M105.967,17.615 L105.967,19.988 L98.617,19.463 L98.617,17.09 L101.452,17.3 L101.19475,16.649 L101.19475,16.649 L100.402,14.717 L102.46,13.73 C102.684001,14.136002 102.928999,14.6539969 103.195,15.284 C103.405001,15.7740024 103.600999,16.2639976 103.783,16.754 L102.67,17.384 L105.967,17.615 Z M109.453,17.867 C109.411,19.0010057 109.187002,19.9949957 108.781,20.849 C108.276997,21.9130053 107.528005,22.7039974 106.534,23.222 C106.421999,22.9839988 106.226001,22.669002 105.946,22.277 L105.19,21.269 L105.19,22.865 L99.394,22.466 L99.394,20.261 L105.19,20.66 L105.19,20.681 C105.918004,20.2189977 106.428999,19.6450034 106.723,18.959 C106.933001,18.4549975 107.038,17.8390036 107.038,17.111 L107.038,14.885 L113.611,15.326 L113.611,19.841 C113.611,20.443003 113.750999,20.7579999 114.031,20.786 L114.22,20.786 C114.724003,20.8280002 115.101999,20.8000005 115.354,20.702 L115.417,21.962 C115.445,22.4800026 115.48,22.8789986 115.522,23.159 C115.395999,23.2290003 115.214001,23.2709999 114.976,23.285 L114.708572,23.2772858 C114.558858,23.2704286 114.368001,23.2590001 114.136,23.243 L113.863,23.222 C112.812995,23.1519997 112.085002,22.8090031 111.679,22.193 C111.342998,21.6749974 111.175,20.8070061 111.175,19.589 L111.175,17.972 L109.453,17.867 Z M114.787,34.562 C113.008991,33.9739971 111.525006,33.2320045 110.335,32.336 C109.214994,33.0360035 107.829008,33.5749981 106.177,33.953 C105.966999,33.2529965 105.645002,32.5110039 105.211,31.727 L105.211,32.861 L101.683,32.63 L101.683,33.428 L99.436,33.26 L99.436,26.099 L105.211,26.498 L105.211,31.181 C106.317006,30.9989991 107.303996,30.6910022 108.172,30.257 C107.765998,29.7949977 107.367002,29.2420032 106.975,28.598 C106.624998,28.0239971 106.289002,27.3940034 105.967,26.708 L107.458,26.225 L105.589,26.099 L105.589,23.306 L113.212,23.831 L113.653,23.726 L115.333,24.629 C114.758997,27.1350125 113.842006,29.0809931 112.582,30.467 C113.758006,31.1250033 114.786996,31.5589989 115.669,31.769 L114.787,34.562 Z M105.232,23.579 L105.232,25.763 L99.394,25.364 L99.394,23.18 L105.232,23.579 Z M108.403,26.288 C108.949003,27.282005 109.578996,28.1219966 110.293,28.808 C110.881003,28.2619973 111.433997,27.5060048 111.952,26.54 L108.403,26.288 Z M101.683,30.299 L102.922,30.383 L102.922,28.682 L101.683,28.598 L101.683,30.299 Z M126.4105,17.72 L126.4105,20.051 L118.5355,19.505 L118.5355,17.174 L121.5385,17.384 L121.3985,16.9919998 C121.295833,16.7120004 121.174501,16.3946684 121.0345,16.04 L120.4885,14.759 L122.5465,13.793 C122.733168,14.131335 122.934416,14.5425818 123.15025,15.0267491 L123.2815,15.326 C123.519501,15.8720027 123.715499,16.3549979 123.8695,16.775 L122.7775,17.468 L126.4105,17.72 Z M132.1435,24.503 L132.1435,34.457 L129.3505,34.268 L129.3505,24.314 L126.3265,24.104 L126.3265,21.206 L129.3505,21.416 L129.3505,14.843 L132.1435,15.032 L132.1435,21.605 L135.3775,21.836 L135.3775,24.734 L132.1435,24.503 Z M125.6545,20.723 L125.6545,22.928 L119.3335,22.487 L119.3335,20.282 L125.6545,20.723 Z M125.6335,23.642 L125.6335,25.826 L119.3335,25.385 L119.3335,23.201 L125.6335,23.642 Z M125.6755,26.582 L125.6755,33.134 L119.3755,32.693 L119.3755,26.141 L125.6755,26.582 Z M121.6015,30.509 L123.4075,30.635 L123.4075,28.745 L121.6015,28.619 L121.6015,30.509 Z M153.112,29.501 L153.112,34.541 L150.487,34.352 L150.487,29.816 L145.153,30.551 L144.733,27.674 L150.487,26.897 L150.487,14.507 L153.112,14.696 L153.112,26.603 L154.771,26.372 L155.17,29.228 L153.112,29.501 Z M142.822,33.827 L140.239,33.659 L140.239,27.359 L140.021452,27.8636582 C139.532982,28.9814738 139.178501,29.6812486 138.958,29.963 L137.047,27.947 C137.635003,27.2329964 138.194997,26.3510053 138.727,25.301 C138.937001,24.8529978 139.146999,24.3840025 139.357,23.894 C139.539001,23.4599978 139.713999,23.0190022 139.882,22.571 L137.614,22.403 L137.614,19.673 L140.239,19.862 L140.239,17.72 L139.336,17.825 L138.73876,17.88548 C138.62452,17.89556 138.5226,17.9034 138.433,17.909 C138.391,17.6149985 138.300001,17.2160025 138.16,16.712 C138.019999,16.2779978 137.880001,15.8720019 137.74,15.494 C138.720005,15.4099996 139.776994,15.2350013 140.911,14.969 C141.975005,14.7169987 142.912996,14.4370015 143.725,14.129 L145.174,16.733 C144.851998,16.8450006 144.474002,16.9499995 144.04,17.048 C143.731998,17.1320004 143.326002,17.2159996 142.822,17.3 L142.822,20.03 L145.09,20.198 L145.09,22.928 L142.822,22.76 L142.822,22.823 L143.03725,23.0697497 C143.124749,23.1712495 143.227999,23.2919993 143.347,23.432 L145.132,25.784 L143.599,28.01 C143.374999,27.4219971 143.116001,26.8340029 142.822,26.246 L142.822,33.827 Z M148.408,20.555 C147.693996,19.5329949 146.812005,18.3640066 145.762,17.048 L147.505,15.536 C148.527005,16.6840057 149.450996,17.7759948 150.277,18.812 L148.408,20.555 Z M170.2795,13.919 L170.2795,16.838 L174.2485,16.565 L174.2485,19.274 L170.2795,19.547 L170.2795,21.857 L172.1065,21.731 L172.5475,21.605 L174.2695,22.235 C173.611497,25.1610146 172.519508,27.5619906 170.9935,29.438 C172.183506,30.1380035 173.394494,30.6139987 174.6265,30.866 L173.5975,33.638 C171.66549,33.1619976 170.083506,32.4550047 168.8515,31.517 C168.235497,32.0210025 167.507504,32.5039977 166.6675,32.966 C165.897496,33.4000022 165.022505,33.812998 164.0425,34.205 L163.0765,31.496 C164.392506,31.089998 165.666494,30.4530043 166.8985,29.585 C165.946495,28.3669939 165.148503,26.9180084 164.5045,25.238 L165.3445,24.923 L164.1685,25.007 L164.1685,22.298 L167.6335,22.046 L167.6335,19.736 L163.8745,20.009 L163.8745,17.3 L167.6335,17.027 L167.6335,14.108 L170.2795,13.919 Z M146.833,21.122 C147.247402,21.4916018 147.670759,21.9104788 148.103079,22.378639 L148.429,22.739 C149.017003,23.3970033 149.450999,23.9359979 149.731,24.356 L147.883,26.141 C147.280997,25.1049948 146.364006,23.9500064 145.132,22.676 L146.833,21.122 Z M161.9425,14.507 L161.9425,18.476 L163.6435,18.35 L163.6435,21.08 L161.9425,21.206 L161.9425,23.873 L163.4545,23.39 L163.7905,26.099 L161.9425,26.792 L161.9425,31.181 C161.9425,32.4550064 161.641503,33.3089978 161.0395,33.743 C160.507497,34.135002 159.422508,34.3869994 157.7845,34.499 L157.6375,31.832 L158.9605,31.769 C159.198501,31.7549999 159.3175,31.6150013 159.3175,31.349 L159.3175,27.674 L157.7425,28.199 L157.0915,25.385 L159.3175,24.713 L159.3175,21.395 L157.3225,21.521 L157.3225,18.791 L159.3175,18.665 L159.3175,14.696 L161.9425,14.507 Z M168.980682,27.7865976 C169.506321,27.0979413 169.887204,26.5539395 170.12333,26.1545922 C170.359457,25.755245 170.621889,25.2112432 170.910628,24.5225869 L167.050736,24.7710587 C167.42951,25.5566424 167.733448,26.1284199 167.96255,26.4863912 C168.191652,26.8443625 168.531029,27.2777646 168.980682,27.7865976 Z" id="" fill="#FFFFFF"></path>
        </g>
    </g>
</svg>