<?xml version="1.0" encoding="UTF-8"?>
<svg width="273px" height="56px" viewBox="0 0 273 56" version="1.1" xmlns="http://www.w3.org/2000/svg" xmlns:xlink="http://www.w3.org/1999/xlink">
    <!-- Generator: Sketch 59.1 (86144) - https://sketch.com -->
    <title>Group 23</title>
    <desc>Created with Sketch.</desc>
    <g id="Amazon-Browser" stroke="none" stroke-width="1" fill="none" fill-rule="evenodd">
        <g id="Group-23" fill-rule="nonzero">
            <g id="paint1-copy-6" transform="translate(136.500000, 28.000000) scale(-1, 1) rotate(-180.000000) translate(-136.500000, -28.000000) ">
                <path d="M161.937097,2.985 C161.974839,3.005 162.012581,3.025 162.062903,3.035 C162.025161,3.015 162,2.985 161.962258,2.965 L161.937097,2.985 Z" id="Path" fill="#C2C4C6"></path>
                <path d="M272.8596,10.3389209 C273.11387,10.1728946 273.000183,9.71254892 272.699504,9.64462906 C271.927278,9.47860274 271.117382,9.24465657 270.345156,9.62198911 C270.100303,9.74273552 269.949625,9.86348193 269.808364,9.59934915 C269.695355,9.38804293 269.817781,9.22201662 270.109721,9.17673671 C270.36399,9.13145681 270.674764,9.17673671 270.750103,8.87487068 C269.940208,8.62583121 269.149146,8.565458 268.386337,8.94279054 C268.59352,9.33521638 269.036138,8.95788384 269.299825,9.18428336 C269.092642,9.5616159 268.706529,9.50878935 268.348668,9.44841614 C266.766545,9.16919006 265.165588,9.13900346 263.545796,9.19937667 C262.566387,9.23710992 261.577561,9.19183001 260.598152,9.19183001 C260.3533,9.19183001 260.051943,9.16164341 260.004856,8.95788384 C259.929517,8.67865776 260.306213,8.63337786 260.53223,8.5352714 C260.720578,8.45225824 260.927761,8.4899915 261.134943,8.5352714 C262.12377,8.73903097 263.150266,8.42961829 264.14851,8.65601781 C264.261518,8.67865776 264.402779,8.61073791 264.591127,8.57300465 C264.449866,8.37679173 264.374527,8.19567212 264.092005,8.16548551 C263.790649,8.13529891 263.63997,7.99191255 263.734144,7.77305968 C263.818901,7.57684676 263.969579,7.26743408 264.261518,7.35044723 C264.911319,7.5240202 265.598788,7.06367451 266.210919,7.4787403 C266.333345,7.56175345 266.531111,7.4787403 266.700624,7.47119365 C267.567024,7.43346039 268.226242,7.02594125 268.989051,6.76180848 C268.734781,6.37692929 268.367503,6.28636948 267.934302,6.29391613 C267.425763,6.30146278 266.917224,6.30146278 266.399267,6.29391613 C266.201502,6.29391613 265.956649,6.33919604 265.871893,6.14298312 C265.777719,5.91658359 265.975484,5.75810393 266.17325,5.67509077 C266.832467,5.38077139 267.538772,5.19210512 268.310998,5.29021158 C268.715946,5.34303814 269.111477,5.41850464 269.572929,5.29775823 C269.469338,5.02607881 269.337494,4.75439938 269.610599,4.4751733 C269.789529,4.28650703 269.601181,3.93181445 269.959042,3.87144124 C268.263911,3.47146875 266.484024,3.54693526 264.722971,3.4639221 C263.611718,3.41109555 262.481631,3.39600225 261.389213,3.22242928 C259.420977,2.8979233 257.42449,2.77717689 255.446837,2.51304411 C254.947715,2.44512425 254.439176,2.33192449 253.940054,2.34701779 C252.160166,2.407391 250.417948,2.13571157 248.666312,2.01496516 C248.195443,1.98477856 247.799912,1.98477856 247.394964,2.16589818 C246.90526,2.3772044 246.359051,2.54323071 245.841094,2.46776421 C244.466154,2.26400464 243.053545,2.407391 241.678605,2.18099148 C241.235988,2.10552497 240.718031,2.06024507 240.058813,2.21872473 C240.539101,2.31683119 240.859292,2.33192449 241.113562,2.4526709 C241.923458,2.82245679 242.789858,2.82245679 243.684511,2.83000344 C244.645085,2.83755009 245.633911,2.87528335 246.406138,3.47146875 C246.509729,3.55448191 246.65099,3.55448191 246.792251,3.53184196 C247.696321,3.41109555 248.383791,3.9544544 249.231356,4.02992091 C249.560965,4.06010751 249.560965,4.33933359 249.259608,4.50535991 C249.07126,4.61101302 248.741652,4.59591971 248.656895,4.78458598 C248.412043,5.32794484 247.875251,5.22229173 247.376129,5.18455847 C244.814598,4.9807989 242.253067,4.97325225 239.682118,4.9807989 C238.429604,4.98834555 237.205343,4.90533239 236.047003,4.49781325 C235.924577,4.45253335 235.783316,4.42234675 235.651473,4.43744005 C234.408377,4.53554651 233.20295,4.19594723 231.922184,4.36197354 C230.613166,4.52799986 229.247644,4.20349388 227.891539,4.25632043 C226.639026,4.30160034 225.386512,4.12048072 224.133999,4.09029411 C222.966242,4.06765416 221.770233,4.30914699 220.62131,3.96200105 C220.508302,3.9242678 220.357623,3.9695477 220.216362,3.97709435 C218.992101,4.02237426 217.76784,3.9695477 216.552996,3.90162785 C215.432326,3.84125464 214.311656,3.75824148 213.190986,3.73560153 C211.703037,3.70541493 210.196254,3.72805488 208.717723,3.67522832 C206.353957,3.59221517 203.980774,3.61485512 201.617007,3.52429531 C200.034885,3.4639221 198.452763,3.4488288 196.861223,3.38090895 C195.401527,3.32053574 193.951248,3.20733598 192.491552,3.12432282 C190.156038,2.99602976 187.811107,2.96584315 185.466175,2.9582965 C185.315497,2.9582965 185.155401,2.9281099 185.004723,2.90546995 C185.117732,3.11677617 185.362584,3.13941612 185.588601,3.10922952 C186.407915,2.99602976 187.151889,3.44128215 187.98062,3.27525584 C188.150133,3.23752258 188.41382,3.32808239 188.41382,3.53938861 C188.41382,3.75069483 188.187802,3.76578813 187.98062,3.79597474 C187.782854,3.81861469 187.538002,3.63749507 187.359072,3.86389459 C187.669846,4.23368048 188.121881,4.00728096 188.489159,4.04501421 C188.715176,4.06765416 188.903524,4.09784077 188.922359,4.30160034 C188.941194,4.49781325 188.771681,4.58837306 188.555081,4.62610632 C188.423237,4.64874627 188.281976,4.67893287 188.150133,4.67893287 C186.549176,4.67893287 184.919966,4.63365297 183.394348,4.30914699 C182.518531,4.12802737 181.6898,4.07520081 180.832817,4.06765416 C179.147103,4.05256086 177.46139,3.99218766 175.785093,3.83370799 C174.268893,3.69032163 172.76211,3.39600225 171.227074,3.4488288 C170.44543,3.47901541 169.710874,3.51674866 168.92923,3.26016253 C168.373603,3.07904292 167.610795,3.00357641 167.036333,3.20733598 C166.386533,3.4337355 165.887411,3.68277497 165.482463,3.00357641 C165.463628,2.97338981 165.35062,2.95074985 165.294115,2.9582965 C164.493637,3.11677617 163.683741,3.07904292 162.873845,3.01866971 C162.647827,3.00357641 162.534819,3.16205607 162.412393,3.29789579 C162.299384,3.42618885 162.158123,3.48656206 161.979192,3.42618885 C162.092201,3.50920201 162.186375,3.60730847 162.402975,3.58466852 C162.911514,3.53938861 163.269375,3.76578813 163.777915,4.18085392 C163.090445,4.20349388 162.67608,4.4148001 162.129871,4.25632043 C161.329392,4.02237426 160.547748,3.74314818 159.662513,3.75069483 C159.502417,3.75069483 159.31407,3.67522832 159.31407,3.50920201 C159.31407,3.29034914 159.53067,3.26770918 159.737852,3.25261588 C159.982705,3.22997593 160.246392,3.47901541 160.557166,3.11677617 C159.201061,2.83000344 157.920295,2.53568406 156.488851,3.08658957 C156.81846,3.25261588 157.119817,3.33562904 157.326999,3.21488263 C157.863791,2.8979233 158.108643,3.20733598 158.447669,3.50165536 C158.15573,3.67522832 157.920295,4.16576062 157.618939,3.97709435 C156.969138,3.56202856 156.309921,3.97709435 155.678955,3.79597474 C155.405851,3.72050823 155.057407,3.75069483 154.812555,3.9393611 C154.511198,4.17330727 154.14392,4.15066732 153.767224,4.14312067 C152.034423,4.12048072 150.31104,4.11293407 148.578239,4.11293407 C148.003778,4.11293407 147.438735,4.18840057 146.854856,4.13557402 C145.479916,4.02237426 144.095559,3.87898789 142.72062,3.86389459 C140.855976,3.84125464 139.000749,3.97709435 137.136105,3.9695477 C135.280878,3.96200105 133.435068,4.09029411 131.579842,3.99218766 C129.216075,3.86389459 126.833475,3.94690775 124.460291,3.93181445 C122.586229,3.91672115 120.721585,3.91672115 118.866358,3.68277497 C117.519671,3.51674866 116.154149,3.41109555 114.798044,3.47146875 C112.048165,3.59221517 109.31712,3.36581564 106.576658,3.34317569 C105.493658,3.33562904 104.40124,3.28280249 103.318239,3.29034914 C100.897969,3.29789579 98.4871159,3.39600225 96.0668454,3.32808239 C94.268123,3.28280249 92.4694006,3.35072234 90.6706781,3.27525584 C89.2863211,3.21488263 87.901964,3.33562904 86.517607,3.34317569 C85.8960589,3.34317569 85.3310152,3.13186947 84.7000498,3.19978933 C82.6470577,3.4337355 80.5752308,3.51674866 78.5034039,3.47901541 C75.9512899,3.4337355 73.4462629,3.84125464 70.9035662,3.90162785 C69.3779483,3.9393611 67.8523303,4.18840057 66.3361297,4.13557402 C64.2548854,4.06010751 62.2018933,4.30914699 60.1300665,4.30160034 C58.8022138,4.29405368 57.4837785,4.4902666 56.1559258,4.4298934 C55.7886474,4.4148001 55.374282,4.4902666 55.4119516,3.99218766 C55.4307864,3.78842809 55.1765167,3.87898789 55.0258384,3.87898789 C54.2441946,3.85634794 53.4625509,3.87144124 52.6809071,3.9242678 C51.0140282,4.04501421 49.3377319,3.60730847 47.6520182,3.99973431 C47.0963919,4.12802737 46.4465917,4.14312067 45.834461,4.17330727 C44.1393299,4.24122713 42.425364,4.18085392 40.7773199,4.61855967 C40.683146,4.64119962 40.5701372,4.64874627 40.4759633,4.64119962 C38.8185018,4.54309316 37.1704577,4.61101302 35.5224136,4.70157282 C35.1645526,4.72421278 34.8349437,4.69402617 34.7031002,4.36197354 C34.6560132,4.24877378 34.5618393,4.16576062 34.4205784,4.14312067 C33.4034997,3.984641 32.3581689,3.60730847 31.3881772,3.71296158 C29.4481939,3.9242678 27.5176279,3.81106804 25.587062,3.8940812 C24.8901747,3.9242678 24.0991136,3.50920201 24.0896962,3.12432282 C24.0802788,2.66397713 23.8165917,2.64888382 23.3833915,2.66397713 C21.5564169,2.74699028 19.7200249,2.82245679 17.9213025,3.14696277 C17.5634415,3.21488263 17.2055805,3.24506923 16.8194673,3.19978933 C16.0566583,3.11677617 15.3032667,2.98093646 14.5122055,3.09413622 C14.0601706,3.16205607 13.5704661,3.13186947 13.1749355,2.83755009 C12.996005,2.70925703 12.7134831,2.54323071 12.4592135,2.79227019 C12.1672742,3.08658957 11.8094132,3.04130966 11.4421348,2.9281099 C11.0277694,2.79981684 10.7829172,2.81491014 10.6134041,3.22997593 C10.4344736,3.66768167 10.1331169,3.70541493 9.53040364,3.50920201 C9.04069911,3.35072234 8.58866415,3.4035489 8.21196836,3.69786828 C7.88235953,3.9544544 7.55275071,4.16576062 7.07246357,4.18085392 C6.82761131,4.18840057 6.70518517,4.29405368 6.75227215,4.49781325 C6.77110694,4.60346637 6.78994173,4.74685273 6.62984601,4.78458598 C5.83878484,4.9807989 5.20781938,5.33549149 4.73694964,5.88639699 C4.68986266,5.93922355 4.54860174,5.93922355 4.45442779,5.96941015 C3.85171452,6.15807642 3.84229712,6.16562307 4.17190594,6.62596876 C4.39792342,6.95047474 4.76520182,7.24479412 4.96296711,7.53156685 C5.1795672,7.84097953 5.33024552,8.26359197 5.52801081,8.62583121 C5.79169787,9.12391016 5.75402829,9.19183001 5.11364543,9.16164341 C4.83112359,9.14655011 4.58627132,9.13145681 4.41675821,9.34276303 C4.49209737,9.48614939 4.63335829,9.46350944 4.76520182,9.45596279 C5.1701498,9.42577619 5.58451518,9.38804293 5.98004576,9.50878935 C6.30965459,9.61444246 6.62984601,9.78801542 6.56392425,10.0974281 C6.49800248,10.4370274 6.11188929,10.3464676 5.81053266,10.3464676 C5.74461089,10.3464676 5.65985434,10.3087343 5.61276736,10.3238276 C5.06655846,10.5049472 4.33200166,10.3842008 4.09656678,11.0558527 C3.96472325,11.4331853 3.48443611,11.6067583 2.98531418,11.6822248 C2.5897836,11.742598 2.19425301,11.8180645 1.80813982,11.9161709 C1.16775697,12.0821972 1.1112526,12.1576638 1.28076571,12.693476 C1.52561797,13.4556877 1.76105285,14.2254461 2.31667915,14.897098 C2.62745318,15.2668839 2.44852268,15.5612032 1.98707032,15.4932834 C1.15833957,15.372537 0.734556803,15.8555226 0,16.0970154 C0.51795672,16.2630418 0.932322095,16.2705884 1.25251352,16.5120812 C2.11891385,17.1686398 1.8552268,18.0440513 2.0341573,18.8364497 C2.06240948,18.9647427 1.87406159,19.0553025 1.74221806,19.153409 C0.922904701,19.7420477 0.951156885,20.9872451 1.83639201,21.4626841 C2.27900957,21.7041769 2.53327923,22.0513229 2.90055763,22.330549 C3.18307948,22.5418552 3.12657511,22.7229748 2.957062,22.9795609 C2.60861839,23.5002798 2.74987931,23.9379856 3.40909696,24.1794784 C3.82346233,24.3304114 4.03064502,24.5643576 4.22841031,24.8586769 C5.01005409,25.9755813 5.57509778,27.1679521 6.20606324,28.3452296 C6.52625467,28.941415 7.18547231,29.3715741 7.392655,30.0356794 C7.54333332,30.5262117 7.90119432,30.9488241 8.43798583,31.3035167 C8.8617686,31.5827428 9.29496877,31.922342 9.49273406,32.3826877 C10.0295256,33.6278851 10.7358302,34.797616 11.9412567,35.7183074 C12.3179525,36.0050801 12.3838743,36.1937464 11.9695089,36.5107057 C11.3856304,36.9559581 11.0842738,37.5370502 10.9995172,38.1785155 C10.9712651,38.3747284 10.9524303,38.5633947 10.8205867,38.729421 C10.4533083,39.1746734 10.3214648,39.5897392 10.8582563,40.0425382 C11.0842738,40.2387512 11.159613,40.5028839 10.6981606,40.6990968 C10.1236995,40.9481363 9.85059507,41.431122 9.92593423,41.9367476 C10.0106908,42.4348265 9.73758633,42.7140526 9.40797751,43.0838385 C8.8617686,43.6951172 8.35322928,44.3667691 8.25905533,45.1440741 C8.22138575,45.4685801 8.3249771,45.7779928 7.95769869,46.0345789 C7.79760298,46.1477787 7.77876819,46.3666316 7.92944651,46.487378 C8.3155597,46.7967906 8.52274239,47.2043098 8.84293381,47.5439091 C8.90885558,47.6118289 9.45506448,48.6834533 9.43622969,48.7664665 C9.25729919,49.3928385 9.69049936,50.0343038 9.27613398,50.6757691 C9.03128171,51.0531017 9.73758633,51.6115538 10.2743778,51.4983541 C11.2443695,51.3021411 12.2708656,51.370061 13.1937703,50.9625419 C13.5233791,50.8191555 13.9848314,50.8493421 14.3709446,50.7361423 C14.6911361,50.6455825 14.8700666,50.7738756 14.9359883,51.0380084 C15.0489971,51.4832608 15.3409363,51.8455 15.7364669,52.2454725 C15.811806,52.0869928 15.858893,52.019073 15.8871452,51.9436065 C16.2073366,51.0078218 16.4898585,50.8267021 17.7047024,50.8568887 C17.9495547,50.8644354 18.0719808,50.7663289 18.1755722,50.6153959 C18.2697461,50.4720096 18.3356679,50.2908899 18.6087723,50.3437165 C18.9007116,50.4040897 18.9195464,50.6078493 18.9666333,50.7965155 C19.0325551,51.0380084 19.0137203,51.2795012 18.9383812,51.520994 C18.8253724,51.8983265 18.9007116,52.2756591 19.0702247,52.645445 C19.2020682,52.9322177 19.3809987,53.0378708 19.7953641,53.0831507 C20.8595297,53.2038971 21.8766084,53.120884 22.893687,52.8567512 C23.2421306,52.7661914 23.5999916,52.8416579 23.7130004,53.1661639 C23.8071743,53.4453899 23.609409,53.6491495 23.251548,53.6868828 C22.6959217,53.747256 22.7712609,54.0264821 22.8371826,54.4641878 C23.1762089,54.0113888 23.5529047,53.7774426 24.0802788,53.898189 C24.7677486,54.0566687 24.3628006,54.6075742 24.6359051,55 C25.0973574,54.6226675 25.6247315,54.5622943 26.20861,54.7358672 C26.5476362,54.8339737 26.8772451,54.7736005 27.2068539,54.6830407 C28.1015064,54.4415478 29.0338285,54.2453349 29.8060549,53.7925359 C30.0320723,53.6642428 30.239255,53.7019761 30.4841073,53.724616 C31.3316728,53.7925359 31.3975946,53.747256 31.5953599,53.0227775 C31.6801165,52.7133648 31.859047,52.6529916 32.1604036,52.8114713 C32.4900124,52.9850443 32.7913691,53.2189904 33.2622388,53.1359773 C32.8572908,52.622805 32.8949604,52.4869653 33.4317519,52.4869653 C34.816109,52.4794187 36.1251269,52.8039246 37.6978318,53.0605108 C36.4453183,53.6114163 35.3434831,53.1435239 34.0721348,53.2642703 C34.6089263,53.4680299 34.9479525,53.5284031 35.2775613,53.4755766 C36.0686225,53.3472835 36.8502663,53.5133098 37.6036579,53.6114163 C38.1027798,53.6793361 38.6019017,53.724616 39.1010236,53.7170694 C39.4871368,53.7095227 39.8355804,53.7623493 40.2028588,53.8302691 C41.803816,54.1170419 43.3953557,54.2981615 44.9115563,53.5661364 C45.0904868,53.4755766 45.3165043,53.5510431 45.5048522,53.5284031 C46.2299916,53.4378433 46.9928006,53.6491495 47.6896878,53.40011 C48.2641489,53.1888038 48.8762796,53.1888038 49.4884102,53.1510706 C51.9651851,52.9774976 54.4419599,53.2567237 56.9187348,53.2340837 C58.3407614,53.2189904 59.7722055,53.1510706 61.1848147,53.3472835 C61.5144235,53.3925634 61.740441,53.2567237 62.1171368,53.0303242 C60.3466665,52.9095777 58.7645442,52.622805 57.1353349,52.7209115 C56.6267956,52.7510981 55.9864127,52.6001651 55.6379691,52.796378 C55.0729254,53.1057907 54.5926383,52.8793911 54.0840989,52.8793911 C53.9145858,52.8793911 53.7356553,52.8492045 53.6697336,52.6982715 C53.5943944,52.5020586 53.7639075,52.3888588 53.9334206,52.3058457 C54.0746815,52.2379258 54.2441946,52.2001926 54.4137078,52.1775526 C55.2141863,52.0794462 56.0052475,51.9888864 56.8245609,52.0266196 C57.6721264,52.0718995 58.5385267,52.0945395 59.3672575,51.9813397 C61.2978234,51.7247536 63.2283894,51.7624868 65.1683727,51.7323002 C65.3755554,51.7323002 65.6109903,51.7247536 65.7428338,51.8605933 C66.0724426,52.1926459 66.5150602,52.1398194 66.9576778,52.1624593 C67.7299041,52.1926459 68.4832957,52.0718995 69.2743569,52.1322727 C69.7169745,52.1624593 70.1784268,52.3511256 70.6210444,52.2681124 C71.7888014,52.0492596 72.9753931,52.0417129 74.1619849,52.019073 C74.7270286,52.0115263 75.2261505,51.9285131 75.7252724,51.4681675 C74.4068371,51.8681399 73.2014106,51.5738206 71.9865666,51.6115538 C70.7905575,51.6492871 69.5662962,51.9209665 68.1442695,51.520994 C68.7846524,51.3021411 69.0671742,50.8493421 69.5945483,51.0078218 C70.159592,51.1738481 70.5362878,51.2115813 70.658714,50.6304892 C70.6681314,50.5776627 70.8188097,50.5021962 70.9035662,50.5021962 C71.5251143,50.5097428 72.2408363,50.1475036 72.7211234,50.7965155 C72.8623844,50.9851818 73.1354888,50.9323553 73.3803411,50.9097153 C74.1902371,50.8417954 75.0095504,50.8644354 75.810029,50.8116088 C77.8441863,50.6757691 79.9536827,51.1436615 81.9125009,50.3814497 C83.5699624,50.2908899 85.1897543,49.9135574 86.875468,49.9890239 C87.1768246,50.0041172 87.6759466,50.0418505 87.7512857,49.9286507 C88.1373989,49.3852919 88.7495296,49.6116914 89.2769037,49.5362249 C89.8419474,49.4607584 90.4352433,49.5135849 91.000287,49.468305 C93.6842445,49.2569988 96.3682021,49.2796387 99.0521596,49.2494521 C100.069238,49.2419055 101.095734,49.2268122 102.112813,49.1890789 C102.508344,49.1739856 103.016883,49.2645454 103.092222,48.7136399 C103.120474,48.517427 103.572509,48.4268672 103.798527,48.517427 C104.608423,48.8268397 105.427736,48.4570538 106.265884,48.6004402 C107.160537,48.7589198 108.139946,48.5778002 109.081685,48.5476136 C109.57139,48.5325203 110.023425,48.4646005 110.409538,48.2080143 C110.710894,48.0042548 111.097008,47.9589749 111.473703,48.0193481 C111.888069,48.0872679 112.283599,48.0495347 112.688547,48.0268947 C113.809217,47.9665215 114.929887,47.9287883 116.050557,47.8684151 C118.084715,47.7627619 120.118872,47.8684151 122.162447,47.6797488 C123.123021,47.589189 124.130682,47.1363899 125.138343,47.566549 C125.194848,47.589189 125.336109,47.5288158 125.420865,47.4910825 C125.8729,47.2344964 126.400274,47.2873229 126.908814,47.2722296 C129.395006,47.2118564 131.871781,47.2194031 134.348556,47.4458026 C134.753504,47.4835359 135.139617,47.5816423 135.5634,47.5514557 C137.211444,47.415616 138.868905,47.415616 140.516949,47.5740957 C141.402184,47.6571088 142.268585,47.6344689 143.15382,47.5514557 C144.152064,47.4533493 145.187977,47.3552428 146.157969,47.7552153 C146.327482,47.8231351 146.553499,47.8457751 146.751265,47.8382284 C147.693004,47.8080418 148.625326,47.740122 149.567066,47.740122 C150.621814,47.740122 151.695397,47.7023887 152.712476,47.8608684 C153.964989,48.0570813 155.208085,47.9967081 156.451182,47.9891615 C157.157486,47.9891615 157.863791,47.9061483 158.570095,48.0570813 C158.758443,48.0948146 158.975043,48.0948146 159.172809,48.0721746 C159.982705,47.9816148 160.802018,48.0193481 161.602497,48.0721746 C163.372967,48.192921 165.13402,48.1702811 166.895072,48.1099079 C168.317099,48.064628 169.748543,48.0042548 171.17057,48.0495347 C173.647345,48.1325478 176.105285,48.3212141 178.591477,48.1325478 C180.540878,47.9816148 182.509113,47.9287883 184.467931,47.8306818 C184.844627,47.8155885 185.193071,47.7325753 185.550932,47.6722021 C186.257236,47.5590024 186.935289,47.3854294 187.698098,47.3929761 C189.148377,47.415616 190.645742,47.4231627 192.039517,47.1514832 C193.216691,46.9175371 194.337361,46.638311 195.57104,46.6760442 C196.616371,46.7062308 197.708789,46.4798313 198.71645,46.6307643 C199.761781,46.789244 200.797694,46.8798038 201.843025,46.9024438 C202.671756,46.9250837 203.330973,47.3778828 204.159704,47.3854294 C204.734165,47.3929761 205.336878,47.3552428 205.883087,47.4759892 C207.088514,47.7552153 208.312775,47.8306818 209.546454,47.8608684 C211.00615,47.891055 212.494099,47.7552153 213.878456,48.2306543 C214.867282,48.5702536 215.856109,48.5928935 216.892022,48.517427 C217.438231,48.4796938 217.956188,48.66836 218.483562,48.7513732 C219.632484,48.9249462 220.83791,48.7211866 221.920911,49.0305993 C223.776138,49.5513182 225.725538,49.4381184 227.618435,49.7399844 C228.899201,49.943744 230.245888,49.966384 231.573741,50.0192105 C232.863924,50.0720371 234.144689,50.1097703 235.44429,50.0795837 C236.357777,50.0569438 237.280682,50.1248636 238.184752,50.2531567 C239.512605,50.4342763 239.842213,50.4267297 240.953466,49.8305442 C241.170066,49.7173445 241.405501,49.7097978 241.640936,49.7475311 C242.592093,49.9135574 243.524415,49.5664115 244.475572,49.7097978 C244.673337,49.7399844 244.955859,49.6871579 244.927607,49.4833983 C244.84285,48.992866 245.153624,48.9249462 245.643329,48.9626794 C245.803424,48.9777727 245.972937,48.9249462 245.991772,48.7438265 C245.662163,48.4646005 245.181876,48.6985466 244.833433,48.5476136 C243.825771,48.1250012 242.723936,48.2382009 241.659771,48.1702811 C241.367831,48.1476411 241.094727,48.2004677 241.08531,47.8835084 C241.075892,47.6193756 241.160649,47.3854294 241.556179,47.3476962 C241.857536,47.3175095 242.16831,47.2948696 242.469667,47.2948696 C244.758094,47.2873229 247.055938,47.4986292 249.344365,47.3401495 C249.344365,46.464738 249.32553,46.4194581 248.308451,46.3288983 C247.639816,46.2760717 247.018268,46.0270323 246.311964,46.1175921 C246.048277,46.1553253 245.671581,46.0194856 245.53032,45.687433 C246.038859,45.4836734 246.509729,45.6044198 246.971181,45.6270598 C247.234868,45.6346064 247.33846,45.5289533 247.413799,45.3704737 C247.51739,45.1516208 247.30079,45.0761543 247.112442,45.0233277 C246.415555,44.8195682 245.690416,44.6988217 244.955859,44.5931686 C244.729841,44.562982 244.466154,44.562982 244.475572,44.2309294 C245.210129,44.0573564 246.085946,44.1705562 246.698077,43.6724772 C246.726329,43.6498373 246.820503,43.6875705 246.886425,43.7026638 C247.055938,43.7479437 247.244286,43.763037 247.291373,43.5894641 C247.33846,43.4234378 247.150112,43.3555179 246.980599,43.332878 C246.848755,43.310238 246.707494,43.3253313 246.575651,43.310238 C246.39672,43.2875981 246.264877,43.2045849 246.246042,43.0461052 C246.21779,42.8423457 246.283712,42.6536794 246.500312,42.5404796 C246.65099,42.4574665 246.848755,42.4876531 246.961764,42.6083995 C247.347877,43.0385586 247.865834,42.9102655 248.214277,42.683866 C248.713399,42.35936 249.240774,42.4046399 249.626887,42.6159461 C250.182513,42.9178122 250.606296,42.7215992 251.048913,42.5480263 C251.491531,42.3744533 251.510366,42.1782404 251.105418,41.8763744 C250.954739,41.7631746 250.766392,41.6650681 250.738139,41.4990418 C250.6628,41.106616 250.40853,40.9405897 249.899991,40.9858696 C249.749313,41.0009629 249.570382,40.9254964 249.419704,40.8651232 C249.156017,40.7519234 249.203104,40.5481638 249.212521,40.3594976 C249.221939,40.1708313 249.391452,40.2010179 249.560965,40.1632846 C250.135426,40.0274449 250.70047,39.8463253 251.265513,39.680299 C251.482114,39.6123791 251.548035,39.4614461 251.5292,39.2803265 C251.482114,38.902994 251.425609,38.5256614 251.38794,38.1407822 C251.35027,37.8087296 251.143087,37.6125167 250.719305,37.6879832 C250.352026,37.7559031 250.078922,37.6804366 249.994165,37.4163038 C249.899991,37.1446244 249.532713,37.1144377 249.400869,36.8955849 C249.683391,36.525799 250.248435,36.4654258 250.549791,36.1031865 C251.38794,35.0919354 252.913558,34.9938289 253.996558,35.8541471 C254.439176,36.201293 255.023054,36.374866 255.559846,36.2918528 C256.030715,36.2163863 256.416828,36.1333732 256.850029,36.352226 C257.000707,36.4276925 257.273811,36.4880657 257.367985,36.2767595 C257.471577,36.0352667 257.245559,35.9748935 256.99129,35.899427 C256.30382,35.6805741 255.823533,35.2956949 255.672854,34.7296961 C255.814115,34.5712164 255.945959,34.6089497 256.08722,34.6089497 C256.91595,34.6164964 257.019542,34.5334832 257.000707,33.8542846 C256.99129,33.3788456 257.584585,33.0166064 258.196716,33.1675394 C258.450986,33.2279126 258.695838,33.3939389 258.968942,33.3109258 C259.364473,33.1901794 259.684664,33.2580992 259.995439,33.4694054 C260.193204,33.6052452 260.419221,33.6882583 260.588734,33.4543121 C260.767665,33.2128193 260.513395,33.1147129 260.306213,33.024153 C260.193204,32.9713265 260.070778,32.9109533 259.938934,32.89586 C259.279716,32.8053002 259.063116,32.4581542 259.053699,31.9751686 C259.986021,31.771409 260.871256,31.620476 261.351543,32.8279401 C261.624648,31.9374353 262.0861,31.5902894 262.961918,31.7789557 C263.037257,31.794049 263.187935,31.7563157 263.235022,31.6959425 C263.630553,31.2280502 264.242684,31.4242631 265.005493,31.4091698 C264.299188,31.1601303 264.073171,30.7677045 263.715309,30.4809317 C263.46104,30.2696255 263.592883,30.0583193 263.960162,30.0583193 C264.299188,30.0583193 264.628797,30.1111459 264.920736,29.9073863 C265.363354,29.5979736 265.871893,29.5300538 266.446354,29.5828803 C266.757128,29.6130669 267.067902,29.5753337 267.425763,29.567787 C267.284502,29.3791207 267.124406,29.3413875 266.964311,29.2961076 C266.634702,29.2055478 266.088493,29.2810143 266.210919,28.8282152 C266.31451,28.443336 265.645875,28.3376829 265.843641,27.9603504 C266.13558,27.4018982 266.229754,26.7679796 266.917224,26.3755537 C267.397511,26.1038743 267.51052,25.5227822 267.077319,25.288836 C266.728876,25.1001698 266.738293,24.8737703 266.597032,24.6398241 C266.342763,24.187025 266.276841,23.6663061 265.730632,23.2889736 C266.003736,23.2210537 266.182667,23.1682272 266.380432,23.1229473 C265.862476,22.8512679 265.127919,23.107854 264.609962,22.6399616 C265.240927,22.4965753 265.787136,22.3758289 266.342763,22.2475358 C265.805971,21.6513504 266.079076,21.3872176 267.331589,20.6400992 C266.879554,20.5344461 266.465189,20.4136997 266.031989,20.4740729 C265.476362,20.557086 265.184423,20.2929533 264.996075,19.9684473 C264.817145,19.6514879 265.316267,19.6137547 265.457528,19.4250884 C265.824806,18.9496494 266.465189,19.0251159 266.992563,18.8817296 C267.124406,18.8439963 267.265667,18.7836231 267.246833,18.6628767 C267.209163,18.4742104 267.011398,18.4742104 266.851302,18.5345836 C266.144997,18.7836231 265.410441,18.851543 264.657049,18.7232499 C264.073171,18.6251434 263.498709,18.4591171 262.933666,18.7911698 C262.858327,18.8364497 262.669979,18.7383432 262.547553,18.7534365 C261.794161,18.8590896 261.125526,18.4364772 260.3533,18.527037 C260.070778,18.5647702 259.807091,18.2779975 259.769421,18.051598 C259.722334,17.7723719 260.089612,17.6818121 260.343882,17.7195453 C260.918343,17.8025585 261.502222,17.6214389 262.057848,17.8176518 C262.3027,17.9082116 262.575805,17.9082116 262.77357,17.7421853 C262.745318,17.576159 262.632309,17.5157858 262.509883,17.4629592 C262.359205,17.402586 262.170857,17.3573061 262.217944,17.1837331 C262.255613,17.0101602 262.453379,17.0177068 262.613474,16.9875202 C262.858327,16.9346937 263.169101,17.0252535 263.366866,16.7082942 C262.943083,16.6479209 262.717066,16.3611482 262.34037,16.2328552 C261.568143,15.9611757 261.568143,15.9536291 261.935422,15.3272571 C262.293283,14.7159784 262.453379,14.6706985 263.263275,14.874458 C263.875405,15.0329377 264.496953,15.1536841 265.203258,15.1763241 C265.061997,14.9650178 264.704136,14.9046446 264.770058,14.7008851 C264.854814,14.4442989 265.165588,14.5801386 265.382188,14.5650453 C266.088493,14.4971255 266.82305,14.5046721 267.491685,14.3461925 C268.791285,14.0367798 270.109721,13.795287 271.456408,13.6820872 C271.682426,13.6594473 271.927278,13.6368073 272.021452,13.4104078 C271.418739,13.319848 270.844277,13.168915 270.232147,13.1613683 C269.902538,13.1613683 269.610599,13.0330752 269.582347,12.7463025 C269.554094,12.5048097 269.864868,12.4897164 270.062634,12.3916099 C270.65593,12.0972905 271.258643,11.870891 271.974365,11.9312642 C272.087374,11.9388109 272.256887,11.9539042 272.266304,11.7350513 C271.494078,11.4633719 270.505251,11.9463575 269.695355,11.3577188 C270.36399,11.0407594 271.032625,11.0181195 271.654173,10.9879329 C272.190965,10.920013 272.482904,10.5879604 272.8596,10.3389209 Z M247.978843,40.4047775 C247.875251,40.608537 247.658651,40.5632571 247.376129,40.5708038 C247.103025,40.5255239 246.745164,40.4877906 246.39672,40.4047775 C246.227207,40.3670442 246.133033,40.2236579 246.161285,40.0878181 C246.189538,39.9444318 246.359051,39.8387787 246.528564,39.8689653 C246.980599,39.9368851 247.432634,40.0349916 247.865834,40.1406447 C247.997677,40.1708313 248.035347,40.2840311 247.978843,40.4047775 Z M248.816991,41.5065885 C248.713399,41.4914952 248.647478,41.431122 248.685147,41.3481088 C248.703982,41.3103756 248.788739,41.280189 248.845243,41.280189 C248.939417,41.2726423 249.024173,41.3028289 249.033591,41.4009354 C249.005339,41.4839485 248.920582,41.5216818 248.816991,41.5065885 Z" id="Shape" fill="#7E66D3"></path>
                <path d="M178.995282,3 C178.995282,3 178.995282,3 178.995282,3 L178.995282,3 C179.007863,3 179.007863,3 178.995282,3 Z" id="Path" fill="#C2C4C6"></path>
                <path d="M178.788171,2.77931034 C178.017882,2.83448276 177.26685,2.66896552 176.50619,2.64137931 C174.291609,2.55862069 172.0674,2.66206897 169.862448,2.45517241 C169.554333,2.42758621 169.236589,2.44827586 168.918845,2.45517241 C167.667125,2.47586207 166.405777,2.46206897 165.173315,2.39310345 C163.237964,2.28275862 161.292985,2.13103448 159.357634,2.11724138 C156.594223,2.08965517 153.821183,2.07586207 151,2 C151.259972,2.20689655 151.548831,2.17241379 151.808803,2.16551724 C152.887208,2.14482759 153.955983,2.23448276 155.024759,2.28965517 C157.9326,2.44137931 160.859697,2.42068966 163.767538,2.57931034 C165.808803,2.68965517 167.859697,2.66206897 169.910591,2.70344828 C172.259972,2.75172414 174.609354,2.8137931 176.949106,2.88275862 C177.632737,2.90344828 178.345254,2.75172414 179,3 C178.971114,2.90344828 178.951857,2.76551724 178.788171,2.77931034 Z" id="Path" fill="#C2C4C6"></path>
                <path d="M83.7475728,2.63870181 C84.4368932,2.66093554 85.1359223,2.62758494 85.815534,2.74987048 C87.0097087,2.9833247 88.1941748,3.28348012 89.3106796,2.44971506 C89.5533981,2.26072832 89.8349515,2.27184518 90.1165049,2.27184518 C90.368932,2.27184518 90.6504854,2.42748133 91,2.08285844 C90.4563107,2.0606247 90.0485437,1.94945603 89.592233,2.0272741 C88.3300971,2.24961145 87.0873786,2.70540301 85.776699,2.36078012 C85.5145631,2.29407892 85.223301,2.38301386 84.9417476,2.4385982 C84.2912621,2.56088374 83.6407767,2.54976687 83,2.38301386 C83.2038835,2.67205241 83.4757282,2.62758494 83.7475728,2.63870181 Z" id="Path" fill="#C2C4C6"></path>
                <path d="M83.0251613,2.01 C83.0125806,2 83.0125806,2 83,1.99 L82.9748387,2.01 C82.9874194,2.01 83.0125806,2.01 83.0251613,2.01 Z" id="Path" fill="#C2C4C6"></path>
                <path d="M55.4315789,1.71506929 C57.5894737,1.601097 59.7473684,1.43013857 62,1.07397518 C59.3894737,0.81753754 56.9157895,1.28767322 54.4210526,1.57260393 C54.2,1.601097 54.1052632,1.8005485 54,2 C54.4421053,1.64383661 54.9473684,1.74356236 55.4315789,1.71506929 Z" id="Path" fill="#C2C4C6"></path>
                <path d="M55.0047177,1.99777778 C54.9921371,1.99777778 54.9921371,1.99777778 55.0047177,1.99777778 L55.0047177,1.99777778 C54.9921371,2.00777778 54.9921371,1.99777778 55.0047177,1.99777778 Z" id="Path" fill="#C2C4C6"></path>
                <path d="M184.937097,3.005 C184.962258,3.005 184.987419,3.005 185.012581,3.005 C185.012581,3.005 185.012581,3.005 185.012581,3.005 C185.025161,3.005 185.037742,3.005 185.062903,3.015 C185.062903,3.005 185.050323,2.995 185.050323,2.985 C185.012581,2.995 184.974839,2.995 184.937097,3.005 Z" id="Path" fill="#C2C4C6"></path>
                <path d="M178,2.40798939 C178.958599,2.37134745 179.906051,2.32249151 180.853503,2.32249151 C181.388535,2.32249151 181.979299,2.20035169 182.35828,2.84769278 C182.469745,3.0431165 182.714968,3.03090252 182.904459,2.92097667 C183.562102,2.5423432 184.308917,2.59119914 185,2.40798939 C183.071656,2.28584957 181.143312,2.16370974 179.214968,2.00492796 C178.757962,1.96828601 178.367834,2.13928177 178,2.40798939 Z" id="Path" fill="#C2C4C6"></path>
                <path d="M123.567407,1.03881677 C124.168889,1.03881677 124.77037,1.06877516 125.361481,1.03881677 C125.900741,1.01634797 126.481481,1.18111912 127,0.956431191 C124.645926,1.06128556 122.302222,0.866556018 120,0.941451996 C120.591111,0.978899985 121.182222,1.03881677 121.773333,1.06128556 C122.374815,1.07626476 122.965926,1.04630636 123.567407,1.03881677 Z" id="Path" fill="#C2C4C6"></path>
                <path d="M12.7221555,52.5434653 C12.3020003,52.3878284 11.8750685,52.2218158 11.4549133,52.0661789 C11.3193794,52.0143 11.1567387,51.9105421 11.061865,52.1595611 C10.9805446,52.3567011 10.9805446,52.5953442 11.0550883,52.80286 C11.149962,53.0622547 11.3261561,52.9688726 11.4481366,52.9066179 C11.9767189,52.6160958 12.4917478,52.7613568 13,53 C12.9728932,52.7509811 12.8780195,52.60572 12.7221555,52.5434653 Z" id="Path" fill="#C2C4C6"></path>
                <path d="M13.9972043,53 C13.9972043,53 13.9972043,53 13.9972043,53 C13.9972043,53 13.9972043,53 13.9972043,53 C13.9972043,53 14.0097849,53 13.9972043,53 C13.9972043,53 13.9972043,53 13.9972043,53 C13.9972043,53 13.9972043,53 13.9972043,53 Z" id="Path" fill="#C2C4C6"></path>
                <path d="M152,2.0629858 C150,2.04800661 148.024845,1.77089149 146,1.95064184 C148,2.02553781 149.987578,2.19030896 152,2.0629858 Z" id="Path" fill="#C2C4C6"></path>
                <path d="M265,17.1388425 C264.094527,16.7530465 263.547264,17.2259578 263,17.8855445 C263.78607,18.1842253 264.373134,17.8855445 265,17.1388425 Z" id="Path" fill="#C2C4C6"></path>
                <path d="M100.968153,1.09138963 C102.649682,1.06143124 104.318471,1.03896244 106,1.00900405 C104,0.994024858 101.987261,1.02398325 100,0.904149684 C100.242038,1.12134802 100.611465,1.09887923 100.968153,1.09138963 Z" id="Path" fill="#C2C4C6"></path>
                <path d="M53,2.09461153 C53.5284281,2.07963234 54.2575251,2.05716355 55,2.03469475 C54.2508361,1.74260044 53.5217391,2.02720515 53,2.09461153 Z" id="Path" fill="#C2C4C6"></path>
                <path d="M52.2071749,1.99292893 C52.0565022,1.99292893 51.9152466,2.00292893 51.7928251,2.00292893 C51.9152466,2.01292893 52.0565022,2.00292893 52.2071749,1.99292893 Z" id="Path" fill="#C2C4C6"></path>
                <path d="M265,15.0098078 C265.678899,15.2494749 266.348624,15.2120269 267,14.9199326 C266.311927,14.6652863 265.678899,15.0547454 265,15.0098078 Z" id="Path" fill="#C2C4C6"></path>
                <path d="M63,53.000242 C63.6453901,53.0826275 64.2978723,53.1500339 65,52.9927524 C64.3049645,52.9553044 63.6524823,52.8279812 63,53.000242 Z" id="Path" fill="#C2C4C6"></path>
                <path d="M38,54.8758761 C38.9950739,55.2203976 39.1330049,55.2353768 40,55.0406473 C39.3103448,54.8758761 38.729064,54.7710218 38,54.8758761 Z" id="Path" fill="#C2C4C6"></path>
                <path d="M138,0.936338419 C137.333333,0.958807212 136.666667,0.981276006 136,1.0037448 C136,1.02621359 136,1.04119279 136,1.06366158 C136.666667,1.04119279 137.333333,1.01872399 138,0.996255201 C138,0.973786408 138,0.951317614 138,0.936338419 Z" id="Path" fill="#C2C4C6"></path>
                <path d="M40,2.89174545 C39.2533333,2.80935987 38.6488889,3.12392298 38,3.0565166 C38.6577778,3.22128775 39.28,3.0415374 40,2.89174545 Z" id="Path" fill="#C2C4C6"></path>
                <path d="M73.1836323,1.99136595 C73.0612108,1.97136595 72.9387892,1.97136595 72.8163677,2.01136595 C72.9387892,2.03136595 73.0612108,2.02136595 73.1836323,1.99136595 Z" id="Path" fill="#C2C4C6"></path>
                <path d="M75,3.07675381 C74.6285714,2.7696803 74.3071429,2.91947226 74,2.97938904 C74.3,3.00934743 74.6142857,3.18160818 75,3.07675381 Z" id="Path" fill="#C2C4C6"></path>
                <path d="M113,0.959212556 C112.333333,0.979212556 111.666667,0.999212556 111,1.01921256 C111.675,1.07921256 112.341667,0.999212556 113,0.959212556 Z" id="Path" fill="#C2C4C6"></path>
                <path d="M14,53.0123518 C14.3221477,53.0348206 14.6510067,53.2370397 15,53.0572894 C14.6442953,52.6977887 14.3221477,52.952435 14,53.0123518 Z" id="Path" fill="#C2C4C6"></path>
                <path d="M13.8634529,53.0062132 C13.9576233,53.0162132 14.0423767,53.0062132 14.1365471,52.9962132 C14.0423767,52.9862132 13.9482063,52.9862132 13.8634529,53.0062132 Z" id="Path" fill="#C2C4C6"></path>
                <path d="M130,0.95 C129.666667,0.965803212 129.333333,0.981606425 129,0.989508031 C129.333333,1.04481927 129.666667,1.10803212 130,0.95 Z" id="Path" fill="#C2C4C6"></path>
                <path d="M101,0.95 C100.663212,0.968703635 100.331606,0.987407269 100,0.996759086 C100.336788,1.0061109 100.673575,1.13703635 101,0.95 Z" id="Path" fill="#C2C4C6"></path>
                <path d="M98.8446188,1.005 C98.9482063,1.005 99.0517937,0.995 99.1553812,0.995 C99.0517937,0.995 98.9482063,0.995 98.8446188,1.005 Z" id="Path" fill="#C2C4C6"></path>
                <path d="M102.012581,1.005 C102.025161,1.005 102.037742,1.005 102.037742,1.005 C102.037742,1.005 102.025161,0.995 102.025161,0.995 C102,1.005 101.974839,1.005 101.962258,1.005 C101.974839,1.005 102,1.005 102.012581,1.005 C102.012581,1.005 102.012581,1.005 102.012581,1.005 Z" id="Path" fill="#C2C4C6"></path>
                <path d="M106,1.92770848 C105.648936,1.86779169 105.329787,1.90523968 105,1.94268767 C105.606383,2.15988601 105.606383,2.15988601 106,1.92770848 Z" id="Path" fill="#C2C4C6"></path>
                <path d="M140,1.93286006 C139.666667,1.94034966 139.333333,1.94783925 139,1.95532885 C139.00813,1.97779764 139.02439,2.00026644 139.04065,2.03771443 C139.349593,2.09763121 139.666667,2.06767282 140,1.93286006 Z" id="Path" fill="#C2C4C6"></path>
                <path d="M43,2.95 C42.6940299,2.95823379 42.3880597,2.96646757 42,2.98293515 C42.3955224,3.14761089 42.6940299,2.95823379 43,2.95 Z" id="Path" fill="#C2C4C6"></path>
                <path d="M36,3.89091055 C35.6666667,3.84597296 35.4102564,3.96580653 35,4.10061929 C35.4444444,4.09312969 35.7606838,4.22045285 36,3.89091055 Z" id="Path" fill="#C2C4C6"></path>
                <path d="M134,1.005 C134,0.995 134,0.985 134,0.965 C133.67,0.975 133.33,0.985 133,0.995 C133,1.005 133,1.015 133,1.035 C133.33,1.025 133.66,1.015 134,1.005 Z" id="Path" fill="#C2C4C6"></path>
                <path d="M162,3.01 C162,3.01 162.025161,2.99 162.025161,2.99 C162.012581,2.99 161.987419,3 161.974839,3 C161.974839,3.01 161.987419,3.01 162,3.01 Z" id="Path" fill="#C2C4C6"></path>
                <path d="M161.744592,2.98127601 C161.744592,2.86144244 161.653375,2.77905687 161.324993,2.77905687 C161.106072,2.77905687 160.996611,2.83897365 161.014854,2.92884882 C161.051341,3.04119279 160.83242,3.22094313 161.36148,3.22094313 C161.580401,3.22094313 161.781079,3.17600555 162,3.14604716 C161.799322,3.11608877 161.744592,3.05617198 161.744592,2.98127601 Z" id="Path" fill="#C2C4C6"></path>
                <path d="M118,0.965 C117.670213,0.975 117.340426,0.985 117,0.995 C117,1.005 117,1.015 117,1.035 C117.329787,1.025 117.659574,1.015 118,1.005 C118,0.985 118,0.975 118,0.965 Z" id="Path" fill="#C2C4C6"></path>
                <path d="M82,2.05 C82,2.01923077 82,1.98846154 82,1.95 C81.6696429,1.95769231 81.3303571,1.96538462 81,1.97307692 C81,1.98846154 81,2.01153846 81,2.02692308 C81.3303571,2.03461538 81.6607143,2.04230769 82,2.05 Z" id="Path" fill="#C2C4C6"></path>
                <path d="M65,1.98 C64.6712329,1.99 64.3287671,1.99 64,2 C64,2.01 64,2.01 64,2.02 C64.3150685,2.01 64.630137,2.01 64.9589041,2 C64.9726027,1.99 64.9863014,1.98 65,1.98 Z" id="Path" fill="#C2C4C6"></path>
                <path d="M19.916843,53.8012885 C19.8038385,53.8012885 19.7379192,53.8761845 19.7567533,53.9585701 C19.7850044,54.1008725 19.9074259,54.1907476 20.0863497,54.1982372 C20.1899372,54.2057268 20.2464394,54.1233412 20.2464394,54.0334661 C20.1993542,53.9061429 20.1146008,53.8012885 19.916843,53.8012885 Z" id="Path" fill="#C2C4C6"></path>
                <path d="M44.9905645,3.01010767 C45.0157258,3.00010767 45.0157258,2.97010767 44.9905645,3.01010767 L44.9905645,3.01010767 Z" id="Path" fill="#C2C4C6"></path>
                <path d="M44.8876404,3.03744799 C44.9213483,3.03744799 44.9775281,3.02246879 44.988764,3.0074896 C44.988764,2.9925104 45,2.9850208 45,2.97753121 C44.988764,2.9850208 44.9550562,2.97753121 44.9101124,2.94757282 C44.6179775,2.97004161 44.3146067,2.9850208 44,3.0074896 C44,3.02246879 44,3.03744799 44,3.05242718 C44.3033708,3.05242718 44.5955056,3.04493759 44.8876404,3.03744799 Z" id="Path" fill="#C2C4C6"></path>
                <path d="M144,1.975 C143.672131,1.985 143.327869,1.985 143,1.995 C143,2.005 143,2.015 143,2.025 C143.327869,2.015 143.672131,2.015 144,2.005 C144,1.995 144,1.985 144,1.975 Z" id="Path" fill="#C2C4C6"></path>
                <path d="M56.3950617,2.95725591 C56.2716049,2.94976631 56.1481481,2.9797247 56,2.9947039 C56.0617284,3.02466229 56.0987654,3.04713108 56.1358025,3.04713108 C56.3950617,3.05462068 56.654321,3.06211028 56.9135802,3.06211028 C56.9382716,3.06211028 57,3.01717269 57,3.0096831 C56.8271605,2.88235993 56.5925926,2.96474551 56.3950617,2.95725591 Z" id="Path" fill="#C2C4C6"></path>
                <path d="M49.2024664,1.97 C49.0800448,1.97 48.9576233,1.98 48.8257848,1.98 C48.8163677,1.98 48.8069507,2.01 48.7975336,2.03 C48.9293722,2.03 49.0612108,2.02 49.1930493,2.02 C49.2024664,2 49.2024664,1.99 49.2024664,1.97 Z" id="Path" fill="#C2C4C6"></path>
                <path d="M144.984678,2.08656485 C145.144768,2.10903364 145.229521,2.06409605 145.20127,2.03413766 C145.154185,1.98171048 145.060014,1.93677289 144.975261,1.9143041 C144.899925,1.8993249 144.749252,1.8993249 144.805754,2.01166887 C144.824588,2.06409605 144.965844,2.07907525 144.984678,2.08656485 Z" id="Path" fill="#C2C4C6"></path>
                <path d="M155.954393,3.12290395 C156.05798,3.13788314 156.152151,3.11541435 156.199236,3.03302877 C156.21807,2.935664 156.161568,2.88323682 156.048563,2.87574722 C155.954393,2.86825762 155.831971,2.86825762 155.80372,2.9581328 C155.775469,3.03302877 155.841388,3.10792475 155.954393,3.12290395 Z" id="Path" fill="#C2C4C6"></path>
                <path d="M41.7598655,55.0197589 C41.9199552,55.0283101 42.0800448,55.0967192 42.2401345,54.9941055 C42.1836323,54.9770033 42.12713,54.9427987 42.0800448,54.9513499 C41.9670404,54.959901 41.8634529,54.9941055 41.7598655,55.0197589 Z" id="Path" fill="#C2C4C6"></path>
                <path d="M29.1520819,1.98212453 C29.1238307,1.95 29.0390774,1.95 28.9731581,1.95 C28.9260729,1.95 28.8884047,1.98212453 28.8413195,2.00621793 C28.9072388,2.0222802 28.9637411,2.03834247 29.0202433,2.0463736 C29.1144137,2.06243587 29.180333,2.0222802 29.1520819,1.98212453 Z" id="Path" fill="#C2C4C6"></path>
                <path d="M89.9171431,1.02792893 C89.9736454,1.03792893 90.0489817,1.02792893 90.1054839,1.01792893 C90.114901,1.01792893 90.124318,0.987928932 90.1431521,0.977928932 C90.0772328,0.977928932 90.0207306,0.967928932 89.9548113,0.967928932 C89.8418068,0.977928932 89.8229727,1.00792893 89.9171431,1.02792893 Z" id="Path" fill="#C2C4C6"></path>
                <path d="M96.018871,0.995 C96.0062903,0.995 96.0062903,0.995 95.981129,1.005 L95.981129,1.005 C95.9937097,1.005 96.018871,0.995 96.018871,0.995 Z" id="Path" fill="#C2C4C6"></path>
                <path d="M83,1.9688947 C82.7126437,1.9464259 82.4252874,1.86404033 82,2.02132188 C82.4597701,2.12617625 82.7356322,2.05128027 83,1.9688947 Z" id="Path" fill="#C2C4C6"></path>
                <path d="M83.0251613,1.99 C83.0125806,2 82.9874194,2 82.9748387,2.01 C82.9874194,2.01 82.9874194,2.01 83,2.01 C83,2 83.0251613,1.99 83.0251613,1.99 Z" id="Path" fill="#C2C4C6"></path>
                <path d="M135.164798,1.00883143 C135.108296,0.989220955 135.051794,0.969610477 135.004709,0.95 C134.948206,0.969610477 134.891704,0.989220955 134.835202,0.999026194 C134.891704,1.01863667 134.948206,1.04805239 135.004709,1.04805239 C135.051794,1.05785763 135.108296,1.02844191 135.164798,1.00883143 Z" id="Path" fill="#C2C4C6"></path>
                <path d="M139.95815,3.06218659 C140.005235,3.07716579 140.089988,3.07716579 140.118239,3.05469699 C140.202993,2.96482182 140.127656,2.92737383 140.024069,2.92737383 C139.967567,2.92737383 139.901647,2.94984262 139.845145,2.96482182 C139.873396,2.99478021 139.911064,3.0472074 139.95815,3.06218659 Z" id="Path" fill="#C2C4C6"></path>
                <path d="M265.971749,20.035 C266.028251,20.035 266.09417,20.015 266.16009,20.015 C266.150673,19.995 266.131839,19.965 266.122422,19.965 C266.028251,19.975 265.934081,19.995 265.83991,20.015 C265.877578,20.015 265.924664,20.035 265.971749,20.035 Z" id="Path" fill="#C2C4C6"></path>
                <path d="M17.8361702,51.9837725 C17.8173362,52.1036061 17.9397577,52.0886269 18.0339281,52.0736477 C18.0810133,52.0661581 18.1186815,52.0212205 18.1657667,51.9912621 C18.1092644,51.9613037 18.0527622,51.9163662 17.9962599,51.9163662 C17.9397577,51.9163662 17.8455873,51.9538141 17.8361702,51.9837725 Z" id="Path" fill="#C2C4C6"></path>
            </g>
            <path d="M130.275,39.352 C130.008999,39.4080003 129.638002,39.4290001 129.162,39.415 L128.703281,39.3903907 C128.412345,39.371797 128.061252,39.3450002 127.65,39.31 L127.608,36.874 L128.175,36.958 L128.973,37.021 C129.239001,37.0350001 129.448999,36.9160013 129.603,36.664 L129.632736,36.5969343 C129.866593,35.9270857 130.00368,32.0574753 130.044,24.988 L124.038,24.568 L123.67512,25.1795205 C123.49704,25.4718399 123.324001,25.7439987 123.156,25.996 C122.805998,26.5000025 122.484001,26.8989985 122.19,27.193 C122.077999,27.0669994 121.882001,26.899001 121.602,26.689 L120.888,26.101 L120.783,26.458 C121.217002,27.1720036 121.531999,27.9559957 121.728,28.81 C121.882001,29.4680033 121.959,30.1469965 121.959,30.847 C121.959,32.2890072 121.665003,33.2339978 121.077,33.682 C120.782999,33.9060011 120.412002,34.0389998 119.964,34.081 C119.837999,34.0950001 119.663001,34.102 119.439,34.102 L118.788,34.06 C118.788,33.2339959 118.634002,32.4430038 118.326,31.687 L118.326,38.596 L116.016,38.449 L116.016,19.507 L120.132,19.78 L120.51,19.738 L122.253,20.935 L121.539,23.833 C121.931002,23.2449971 122.301998,22.5030045 122.652,21.607 C122.988002,20.7809959 123.253999,19.9480042 123.45,19.108 L125.865,19.864 L125.55,20.998 L125.172,22.132 L132.417,22.636 L132.414047,25.3394235 C132.410766,26.0536409 132.40475,26.6994971 132.396,27.277 L132.389143,28.9604285 C132.385714,29.3521418 132.381,29.7219983 132.375,30.07 L132.336354,32.0927105 C132.316618,32.9515699 132.2945,33.6913302 132.27,34.312 L132.229286,35.1944319 C132.138429,36.8521503 131.991001,37.8669981 131.787,38.239 C131.422998,38.8690031 130.919003,39.2399994 130.275,39.352 Z M118.326,31.498 C118.606001,31.5540003 118.795,31.5750001 118.893,31.561 C119.089001,31.5750001 119.242999,31.5400004 119.355,31.456 C119.537001,31.3019992 119.628,30.924003 119.628,30.322 C119.628,29.7619972 119.558001,29.2020028 119.418,28.642 C119.235999,27.8859962 118.949002,27.207003 118.557,26.605 L119.04,24.379 L119.397,22.405 L118.326,22.321 L118.326,31.498 Z M129.393,32.443 L129.393,36.391 L122.505,35.908 L122.505,31.96 L124.395,32.107 L124.395,33.997 L124.92,34.018 L124.92,31.414 L122.379,31.246 L122.379,29.209 L123.198,29.272 C122.749998,28.7399973 122.337002,28.3620011 121.959,28.138 C122.435002,27.7179979 122.868998,27.2000031 123.261,26.584 C123.611002,26.0379973 123.890999,25.4850028 124.101,24.925 L126.096,25.429 C126.068,25.5270005 126.019,25.6529992 125.949,25.807 L125.781,26.164 L129.183,26.416 L129.183,28.411 L126.957,28.243 L126.957,29.524 L129.519,29.713 L129.519,31.75 L126.957,31.561 L126.957,34.165 L127.398,34.207 L127.398,32.317 L129.393,32.443 Z M123.864309,29.2942007 L124.92,29.377 L124.92,28.096 L124.71,28.096 C124.522497,28.3937985 124.304584,28.7089718 124.056257,29.0415261 L123.864309,29.2942007 L123.864309,29.2942007 Z M142.0245,22.153 L142.0245,22.615 L139.4205,22.447 L139.4205,21.985 L135.5145,21.712 L135.5145,19.654 L139.4205,19.927 L139.4205,18.961 L142.0245,19.129 L142.0245,20.095 L145.4685,20.347 L145.4685,19.381 L148.0935,19.549 L148.0935,20.515 L152.1255,20.809 L152.1255,22.867 L148.0935,22.573 L148.0935,23.035 L145.4685,22.867 L145.4685,22.405 L142.0245,22.153 Z M146.7915,30.112 C146.273497,31.0640048 145.559505,31.8339971 144.6495,32.422 C144.495499,32.1699987 144.194502,31.8200022 143.7465,31.372 L143.7465,31.813 L143.4777,31.8230801 C143.3601,31.8247601 143.2677,31.8214 143.2005,31.813 L141.4995,31.834 L139.179326,31.8152969 C137.931359,31.8032657 136.751756,31.7885001 135.6405,31.771 L135.5775,30.154 C136.263503,30.1960002 137.026496,30.2239999 137.8665,30.238 L138.6225,30.28 L138.6225,29.65 L136.4175,29.503 L136.4175,28.579 L136.0815,28.684 L135.2205,27.466 L135.5285,27.3213333 C135.7525,27.2124447 136.013832,27.0786675 136.3125,26.92 C136.648502,26.7379991 137.019498,26.5210013 137.4255,26.269 L135.6825,26.143 L135.6825,24.694 L138.6225,24.904 L138.6225,24.379 L136.5015,24.232 L136.5015,22.888 L138.6225,23.035 L138.6225,22.552 L140.8485,22.699 L140.8485,23.182 L142.9695,23.329 L142.9695,24.673 L140.8485,24.526 L140.8485,25.051 L143.8305,25.261 L143.8305,26.71 L142.1085,26.605 L143.0115,27.151 C143.263501,27.3190008 143.515499,27.4939991 143.7675,27.676 L144.6285,26.416 L144.0825,26.374 L144.0825,24.337 L145.8465,24.463 L145.8465,23.245 L147.7785,23.371 L147.7785,24.589 L150.5505,24.799 L150.552833,27.0366675 C150.555944,27.3882226 150.562167,27.699332 150.5715,27.97 C150.5715,28.4600024 150.5855,28.8729983 150.6135,29.209 C150.6415,29.5730018 150.6765,29.852999 150.7185,30.049 C150.7605,30.245001 150.8165,30.3499999 150.8865,30.364 C150.94775,30.364 150.998281,30.2353763 151.038094,29.9781255 L151.0545,29.86 C151.0965,29.5799986 151.1175,29.3000014 151.1175,29.02 L152.4195,29.524 C152.209499,31.6100104 151.635505,32.6180003 150.6975,32.548 C149.661495,32.4779996 148.996501,31.4910095 148.7025,29.587 L147.7575,30.994 C147.407498,30.6299982 147.085501,30.3360011 146.7915,30.112 Z M147.5265,28.138 C147.904502,28.3760012 148.268498,28.6559984 148.6185,28.978 C148.5345,28.1379958 148.4855,27.3750034 148.4715,26.689 L147.7575,26.626 C147.7015,27.1580027 147.6245,27.6619976 147.5265,28.138 Z M144.7545,26.416 C144.8245,26.4580002 144.9015,26.4999998 144.9855,26.542 L145.4475,26.857 C145.5315,26.9130003 145.6085,26.9549999 145.6785,26.983 L145.7625,26.5 L144.7545,26.416 Z M139.0215,27.361 L140.8065,27.487 L140.4495,27.319 L140.9955,26.521 L138.5175,26.353 L139.2105,27.277 L139.0215,27.361 Z M140.8485,28.39 L142.4025,28.516 L141.8355,28.117 L141.6255,27.991 L141.26934,27.7490797 C141.10638,27.6415599 140.966101,27.5542003 140.8485,27.487 L140.8485,28.39 Z M137.4675,28.159 L138.6225,28.243 L138.6225,27.613 L137.4675,28.159 Z M140.8485,29.797 L140.8485,30.322 L143.7045,30.406 C144.292503,29.8599973 144.726499,29.3420024 145.0065,28.852 C144.572498,28.5579985 144.173502,28.306001 143.8095,28.096 L143.1795,29.104 L143.0745,29.02 L143.0745,29.965 L140.8485,29.797 Z M149.9415,32.863 L149.9415,34.459 L137.7405,33.598 L137.7405,32.002 L149.9415,32.863 Z M135.4095,33.892 L152.0835,35.068 L152.0835,36.664 L149.0595,36.454 C150.095505,37.1960037 150.886497,37.867997 151.4325,38.47 L149.6055,39.562 L149.2485,39.163 L148.8495,38.764 L140.638749,38.4888875 L139.284231,38.4617866 C138.135606,38.450462 137.355035,38.4811996 136.9425,38.554 L136.4385,36.622 C136.596001,36.6009999 136.836186,36.528813 137.159062,36.4054379 L137.5095,36.265 C137.5515,36.2509999 137.5795,36.2370001 137.5935,36.223 L137.9925,36.055 L138.449833,35.8310001 C138.522944,35.7936669 138.5945,35.7563335 138.6645,35.719 L135.4095,35.488 L135.4095,33.892 Z M142.1715,35.971 C141.667497,36.2650015 141.233502,36.5029991 140.8695,36.685 L140.8695,36.685 L146.6445,37 C146.406499,36.8319992 146.140501,36.6640008 145.8465,36.496 L145.8465,36.496 L146.2875,36.244 Z" id="" fill="#FFFFFF"></path>
        </g>
    </g>
</svg>