<?xml version="1.0" encoding="UTF-8"?>
<svg width="273px" height="47px" viewBox="0 0 273 47" version="1.1" xmlns="http://www.w3.org/2000/svg" xmlns:xlink="http://www.w3.org/1999/xlink">
    <!-- Generator: Sketch 59.1 (86144) - https://sketch.com -->
    <title>Group 24</title>
    <desc>Created with Sketch.</desc>
    <g id="Amazon-Browser" stroke="none" stroke-width="1" fill="none" fill-rule="evenodd">
        <g id="Group-24" fill-rule="nonzero">
            <g id="paint3-copy-5" transform="translate(136.500000, 23.500000) scale(-1, 1) translate(-136.500000, -23.500000) ">
                <path d="M272.976915,20.1636365 C272.701903,19.24712 271.725139,18.5232049 271.573409,17.5801227 C271.563926,17.5070671 271.412195,17.4406528 271.307881,17.3875214 C271.080285,17.2679758 270.975971,17.0886574 270.919072,16.9159804 C270.776825,16.424515 270.587162,15.9861811 269.762128,15.8666354 C269.667296,15.8533526 269.581948,15.733807 269.525049,15.6541099 C269.278487,15.2821902 268.851746,15.1294374 268.29224,15.0630232 C267.524105,14.9766847 267.372375,14.8172905 267.362892,14.2793352 C267.353408,13.7945113 267.552555,13.3229702 267.656869,12.8514291 C267.694802,12.6986764 267.789633,12.5259994 267.581004,12.3998123 C267.049948,12.0943069 266.793903,11.5829172 265.902487,11.562993 C265.295566,11.5430687 265.210217,11.3239017 265.437813,10.8722849 C265.551611,10.6531179 265.58006,10.4273095 265.617993,10.2015011 C265.674891,9.84286426 265.134352,9.67018725 265.06797,9.34475749 C265.058487,9.3181918 264.574846,9.31155038 264.328285,9.34475749 C263.854127,9.41117173 263.569633,9.31155038 263.446352,8.9794792 C263.417902,8.89314069 263.389453,8.76695364 263.294622,8.73374653 C262.583385,8.46808958 262.02388,8.06960417 261.388509,7.74417441 C261.094531,7.59142167 260.677273,7.44531035 260.297947,7.33240615 C259.558262,7.11323917 258.97979,6.56864244 258.012509,6.76124372 C257.784913,6.80773369 257.6237,6.62177383 257.434037,6.54207675 C256.808149,6.26977838 256.182261,5.98419716 255.461542,5.85801012 C254.693407,5.72518165 254.418396,5.47280755 254.532194,4.94149366 C254.579609,4.70904384 254.627025,4.48987686 254.560643,4.25742703 C254.446845,3.90543159 254.361497,3.86558304 253.830441,3.98512867 C253.451115,4.06482575 253.081272,4.15780568 252.673497,4.07146717 C251.013946,3.73275457 249.335429,3.43389051 247.732777,2.95570801 C247.25862,2.81623812 246.860328,2.51737406 246.338755,2.51737406 C246.025811,2.51737406 245.817182,2.43767698 245.551653,2.35133847 C244.821451,2.12553007 244.0059,1.88643882 243.218799,2.11888864 C242.517046,2.32477277 241.862709,2.40446986 241.132507,2.29156566 C240.724732,2.22515142 240.288507,2.22515142 239.861765,2.20522715 C237.415113,2.09896437 234.968461,1.98606017 232.521809,1.85987312 C230.340686,1.74696892 228.150079,1.71376181 225.978438,1.56100906 C222.981764,1.36176636 219.966123,1.26878643 216.950482,1.18244792 C212.787381,1.05626087 208.624279,0.969922365 204.461177,0.883583858 C202.137806,0.837093893 199.804952,0.830452469 197.481581,0.790603928 C194.503873,0.730831116 191.526165,0.644492609 188.548457,0.790603928 C187.761356,0.830452469 186.983738,0.863659587 186.196636,0.823811046 C184.138793,0.724189692 182.080951,0.750755387 180.023108,0.764038234 C177.965265,0.783962504 175.897939,0.717548269 173.840096,0.730831116 C171.289129,0.744113963 168.738163,0.690982574 166.196679,0.737472539 C163.475016,0.783962504 160.762836,0.717548269 158.050656,0.704265422 C155.338476,0.690982574 152.616813,0.657775457 149.904633,0.624568339 C148.501127,0.611285491 147.088138,0.717548269 145.694115,0.677699727 C141.796542,0.558154103 137.898969,0.564795526 134.001395,0.624568339 C133.157395,0.637851186 132.313395,0.684341151 131.469395,0.677699727 C130.160721,0.66441688 128.852046,0.584719797 127.543372,0.598002644 C125.419147,0.624568339 123.285439,0.591361221 121.161214,0.584719797 C117.65245,0.57143695 114.143685,0.578078374 110.644404,0.564795526 C108.880539,0.558154103 107.097707,0.392118513 105.352808,0.518305561 C103.55101,0.651134033 101.787145,0.352269972 99.9853469,0.485098444 C98.249931,0.611285491 96.4765825,0.358911396 94.7222003,0.425325631 C93.802335,0.458532749 92.8824698,0.272572889 91.9910539,0.325704278 C91.0711887,0.38547709 90.1513234,0.325704278 89.2599076,0.299138583 C87.2020647,0.252648618 85.1442218,0.212800077 83.0863789,0.153027265 C82.4320417,0.133102994 81.7777046,0.239365771 81.1328506,0.192875806 C78.4965357,-0.00636690114 75.8507377,0.226082924 73.2144229,0.0666887582 C71.8393665,-0.0130083247 70.4737934,0.146385841 69.0987371,0.113178723 C68.2452538,0.0932544525 67.4107369,0 66.5572537,0 C63.2476353,0.0201987932 59.9285339,-0.0329325954 56.6283987,0.0401230639 C54.3050277,0.0932544525 51.9816567,0.133102994 49.6582857,0.153027265 C47.2969821,0.172951535 44.9356785,0.239365771 42.583858,0.312421431 C39.5113184,0.405401361 36.4482619,0.591361221 33.3852054,0.817169622 C30.7868231,1.00977091 28.1789577,1.18244792 25.5710923,1.33520066 C25.1064181,1.36176636 24.6986428,1.6008576 24.2339686,1.4879534 C23.7029123,1.36840778 23.1908224,1.45474629 22.6787324,1.4879534 C21.1424626,1.58093333 19.5967097,1.8532317 18.0794061,1.4016149 C17.9466421,1.36176636 17.7285297,1.36840778 17.5957656,1.41489774 C16.8276307,1.70047896 16.0215632,1.6008576 15.2154957,1.61414045 C14.7318552,1.62078188 14.1913159,1.49459483 13.7740574,1.6274233 C12.7878101,1.93957021 11.5644841,1.92628736 10.8247987,2.60371256 C10.7868661,2.63691968 10.7110009,2.65684395 10.654102,2.65684395 C10.0376975,2.65020253 9.75320307,2.98891513 9.39284348,3.24128923 C9.18421425,3.38740055 8.95661872,3.52022902 8.7100569,3.63313322 C8.48246137,3.739396 8.33073102,3.87886589 7.97037143,3.89879016 C7.69536017,3.91207301 7.93243884,4.31055842 7.70484331,4.49651828 C7.61949499,4.56293252 7.61001184,4.68247814 7.51518037,4.73560953 C6.82291064,5.11417068 6.67118029,5.67205026 6.46255105,6.21664699 C6.29185441,6.66162237 6.03580944,7.0933149 5.23922509,7.14644629 C4.92628124,7.16637056 4.84093292,7.31248188 4.90731494,7.48515889 C5.02111271,7.77074011 5.040079,8.00983136 4.65126998,8.22235691 C4.40470815,8.35518538 4.47109018,8.60755948 4.49005648,8.80680218 C4.51850592,9.15879763 4.39522501,9.4576617 4.16762948,9.78309145 C3.82623619,10.2745568 3.42794401,10.7593807 3.19086534,11.2774118 C2.94430351,11.8153671 2.73567428,12.3998123 3.0012024,12.9643333 C3.22879792,13.4557987 3.17189904,13.9206983 2.94430351,14.3789566 C2.75464057,14.7575177 2.69774169,15.1294374 2.75464057,15.5279228 C2.83050575,16.0592367 3.02016869,16.6237577 2.22358434,17.0222431 C2.07185399,17.1019402 1.98650567,17.3078244 1.97702252,17.4605771 C1.95805622,18.0516638 1.70201126,18.6493919 2.01495511,19.2338372 C2.15720231,19.4862113 2.08133714,19.6721712 1.74942699,19.8182825 C1.27526964,20.030808 0.952842642,20.3429549 0.630415644,20.6750261 C0.307988645,21.0004559 0.099359411,21.2926785 0.402820115,21.6712397 C0.535584173,21.8372752 0.402820115,21.990028 0.326954939,22.1361393 C0.184707734,22.4217205 0.032977382,22.6940189 0.251089763,22.9995244 C0.326954939,23.1057871 0.317471792,23.2518985 0.203674028,23.3249541 C-0.175651852,23.5773282 0.080393117,23.8429852 0.137291999,24.1020007 C0.184707734,24.3278091 0.336438086,24.5403346 0.279539204,24.7794259 C0.080393117,25.4900582 0.535584173,26.1209934 0.829561731,26.7652115 C0.952842642,27.0308685 1.01922467,27.2832426 1.06664041,27.5555409 C1.20888761,28.2860975 1.22785391,29.029937 1.98650567,29.6675136 C2.85895519,30.4047117 3.64605639,31.1950411 4.34780927,32.0185776 C4.65126998,32.370573 5.040079,32.6893614 5.43837118,32.9882254 C6.10219147,33.4929736 6.76601176,34.0176461 7.12637135,34.6552227 C7.44879834,35.2263852 7.98933772,35.678002 8.5298771,36.1362602 C8.81437151,36.3819929 9.10834907,36.6210841 9.38336033,36.8734582 C10.1135627,37.5376006 10.9575627,38.1353287 12.3421022,37.9028789 C12.6740123,37.8497475 12.8636753,37.9560103 13.1102371,38.108763 C13.878372,38.5869455 14.5421923,39.1647494 15.5094733,39.4835377 C15.6232711,39.5233862 15.7370688,39.5765176 15.8224172,39.6495733 C16.8845296,40.5328826 18.458732,40.632504 19.8906872,40.8583124 C21.10453,41.0509136 22.3847549,41.0907622 23.6460134,41.0974036 C24.3572495,41.104045 25.0779686,41.2103078 25.7702384,41.0841208 C26.4625081,40.9579337 26.9271823,41.1771007 27.3349576,41.4826062 C28.2548229,42.1865971 29.1367556,42.9105123 30.0376545,43.627786 C30.1609354,43.7274074 30.3600815,43.8403116 30.3790478,43.9532158 C30.4169804,44.3052112 30.7204411,44.411474 31.1471827,44.4712468 C31.4032277,44.5044539 31.6403064,44.584151 31.8963513,44.6439238 C32.4084413,44.7634694 33.0058795,44.8099594 33.100711,45.3147076 C33.1291604,45.4674603 33.3946886,45.4741018 33.5748684,45.5205917 C34.6938797,45.7928901 35.8792731,45.8327386 37.0172507,46.0186985 C37.614689,46.1183198 38.2500598,46.0917541 38.8380149,46.2511483 C39.0087116,46.2976383 39.2552734,46.324204 39.4164869,46.277714 C40.0234083,46.1116784 40.5734308,46.2710726 41.1329365,46.3706939 C41.3889815,46.4171839 41.6355433,46.5234467 41.8915883,46.4371082 C42.2140153,46.3308454 42.4605771,46.4238253 42.7261052,46.5168053 C42.9916333,46.6097852 43.2761277,46.6297095 43.5795884,46.6562751 C44.7080829,46.7492551 45.8650269,46.669558 46.9745551,46.8820835 C47.4581956,46.9750635 47.9228698,47.014912 48.4254766,46.9949877 C49.8574318,46.9285735 51.289387,47.061402 52.7403085,46.9418564 C53.4705108,46.8820835 54.2196794,46.8621593 54.9498817,46.7492551 C55.5283537,46.6629166 56.0973425,46.5433709 56.6852976,46.5101638 C57.1215224,46.4835981 57.5292977,46.4304667 57.9086236,46.2909969 C58.4207135,46.0983956 58.9517698,46.0452642 59.5207586,46.0319813 C60.7630508,46.0120571 61.9958599,46.0253399 63.2381522,45.9124357 C64.7175231,45.7796072 66.2158604,45.7331173 67.7047144,45.713193 C68.7383775,45.6999102 69.7910068,45.7397587 70.7962204,45.5803645 C72.1048947,45.367839 73.4515015,45.4873846 74.769659,45.2549348 C75.6515916,45.102182 76.6473221,45.3744804 77.5577042,45.0955406 C77.6335694,45.0689749 77.7473671,45.102182 77.8421986,45.1154649 C78.7146481,45.2482933 79.5965808,45.1353891 80.4690303,45.1154649 C82.0053001,45.0822578 83.5320868,44.8962979 85.0683566,44.8896565 C87.7805367,44.8896565 90.445301,44.537661 93.1479979,44.5243782 C94.3428744,44.5177368 95.5567172,44.3981911 96.7515937,44.4712468 C97.4533466,44.5110953 98.1171669,44.5044539 98.7904703,44.3849083 C99.0085827,44.3450597 99.2551445,44.318494 99.4732569,44.3450597 C100.639684,44.4778882 101.806111,44.318494 102.972538,44.3317769 C105.504538,44.3583426 108.046022,44.1590999 110.587505,44.238797 C111.35564,44.2653627 112.152224,44.2852869 112.89191,44.2055898 C113.802292,44.1126099 114.703191,44.1723827 115.60409,44.1325342 C116.893798,44.0794028 118.192989,44.1989484 119.482697,44.1059685 C120.193933,44.0528371 120.905169,43.9930643 121.616405,43.9997057 C123.181124,44.0129886 124.793259,44.2919284 126.244181,43.627786 C126.320046,43.5945789 126.433844,43.581296 126.528675,43.5746546 C127.249395,43.5281646 127.98908,43.3886947 128.671867,43.4683918 C130.21762,43.6410688 131.611642,43.0366993 133.119463,43.1296792 C133.185845,43.1363207 133.280676,43.1296792 133.309125,43.1031135 C133.878114,42.498744 134.826429,42.3991226 135.689395,42.1666728 C136.002339,42.0803343 136.267867,41.9939958 136.609261,42.0272029 C136.903238,42.0537686 137.197216,42.0471272 137.491193,42.0139201 C138.164497,41.9408644 138.847283,41.8279602 139.482654,42.1401071 C139.624901,42.2065214 139.86198,42.1799557 140.061126,42.1799557 C141.796542,42.1799557 143.531958,42.1334657 145.257891,42.1467485 C147.382116,42.1600314 149.506341,42.0736929 151.621082,42.0338443 C151.91506,42.0272029 152.190071,41.9408644 152.465082,41.9010159 C153.403914,41.7681874 154.342746,41.5091719 155.338476,41.7216974 C155.841083,41.8279602 156.353173,41.934223 156.865263,41.9607887 C157.908409,42.0205615 158.951555,42.0404858 159.975735,42.1998799 C160.791285,42.326067 161.606836,42.1733142 162.40342,42.2065214 C163.797443,42.2662942 165.181983,42.4124055 166.585488,42.4389712 C166.822567,42.4456126 167.021713,42.5053854 167.230342,42.5850825 C168.226073,42.9769265 169.278702,43.2558663 170.445129,43.2691491 C170.644275,43.2691491 170.833938,43.3023562 171.033084,43.3222805 C171.194298,43.3422048 171.393444,43.3754119 171.450343,43.4816747 C171.753803,44.1059685 172.569354,43.9997057 173.185759,44.0129886 C174.295287,44.0395543 175.347916,44.2520798 176.419512,44.3716254 C177.216096,44.4579639 178.003197,44.5575853 178.818748,44.6040753 C179.387737,44.6372824 179.975692,44.5177368 180.506748,44.6505652 C181.009355,44.7767523 181.511962,44.8630908 182.024052,44.9095807 C183.057715,45.0092021 184.081895,45.1287477 185.115558,45.1885205 C185.931108,45.2350105 186.737176,45.367839 187.543243,45.4276118 C188.624322,45.5006674 189.686434,45.5737231 190.720097,45.8260972 C190.985626,45.8925114 191.327019,45.93236 191.592547,45.8792286 C192.284817,45.7464001 192.95812,45.88587 193.631424,45.9057943 C194.740952,45.9456428 195.85048,46.2843554 196.960008,45.9057943 C197.02639,45.8792286 197.159154,45.9057943 197.235019,45.93236 C197.56693,46.0851127 197.936772,45.9987742 198.287649,46.0186985 C200.013582,46.1382441 201.701582,45.6467788 203.436998,45.8260972 C203.588728,45.83938 203.749941,45.7729658 203.911155,45.7530415 C204.67929,45.6534202 205.466391,45.4475361 206.21556,45.5006674 C206.775065,45.540516 207.457852,45.3611976 207.808728,45.540516 C208.453582,45.8725872 208.937223,45.494026 209.487245,45.5338746 C209.961403,45.5670817 210.445043,45.4873846 210.928684,45.4873846 C211.895965,45.4873846 212.853763,45.666703 213.830527,45.5073089 C214.048639,45.4741018 214.314167,45.4741018 214.513313,45.5272331 C215.395246,45.7729658 216.324594,45.7065516 217.234976,45.7530415 C217.927246,45.7862487 218.60055,45.8526629 219.283336,45.9190771 C220.298033,46.0186985 221.350662,45.93236 222.317943,46.2644312 C222.469674,46.3175625 222.697269,46.2445069 222.896415,46.2445069 C223.086078,46.2445069 223.313674,46.2112998 223.474887,46.2710726 C224.271472,46.5433709 225.068056,46.3906182 225.883607,46.3706939 C226.500011,46.3507697 227.239697,46.2179412 227.73282,46.6828408 C227.894034,46.8355936 228.150079,46.7492551 228.368191,46.7027651 C229.240641,46.5101638 230.11309,46.3175625 231.042439,46.3175625 C231.80109,46.3175625 232.531293,46.2378655 233.270978,46.0851127 C233.564956,46.0253399 233.868416,45.8925114 234.20981,45.9456428 C235.05381,46.0917541 235.907293,46.0319813 236.808192,45.9921328 C238.059967,46.0784713 239.359158,45.93236 240.65835,45.88587 C241.17044,45.8725872 241.454934,45.5936474 241.881676,45.4807432 C242.204103,45.4010461 241.98599,45.2018034 242.01444,45.0623335 C242.071339,44.8298837 242.308417,44.7900351 242.583428,44.7501866 C243.029136,44.6837723 243.465361,44.6173581 243.901586,44.4845296 C244.906799,44.1723827 245.930979,43.8934429 246.964642,43.6211446 C247.419833,43.5015989 247.827609,43.3687705 248.235384,43.1496035 C248.927654,42.7776838 249.572508,42.3592741 250.340643,42.0471272 C251.241542,41.6818489 252.246755,41.4161919 253.024373,40.9114438 C253.602845,40.5328826 254.276149,40.2738671 254.987385,40.0480587 C255.537407,39.8753817 256.163295,39.676139 256.514171,39.3573506 C256.90298,39.0053552 257.291789,38.6400769 257.690082,38.28144 C258.25907,37.763409 258.989273,37.325075 259.785857,37.105908 C260.933318,36.7871197 261.625588,36.1893916 262.384239,35.5983049 C262.602352,35.4322693 262.782532,35.2330266 262.792015,34.9872939 C262.792015,34.721637 262.991161,34.5821671 263.370487,34.5157528 C263.749813,34.4493386 264.167071,34.3563587 264.309318,34.0707775 C264.55588,33.5527464 265.011071,33.1476196 265.551611,32.7756999 C265.788689,32.6163057 265.921453,32.3904973 265.997318,32.1646889 C266.329229,31.1419097 267.192195,30.3449388 268.244824,29.6343065 C268.671566,29.3487253 268.95606,29.0565027 268.965543,28.6248101 C268.975027,28.4255674 269.050892,28.1798348 269.231072,28.0470063 C269.724195,27.6883694 269.80006,27.2035455 270.113004,26.7917772 C270.511296,26.2737462 270.890622,25.7623566 271.478577,25.3373055 C271.895836,25.0384414 272.426892,24.7528602 272.113948,24.2348292 C272.0286,24.0820764 272.170847,23.9824551 272.303611,23.8695509 C272.474308,23.730081 272.597589,23.5640454 272.626038,23.3780855 C272.758802,22.5678318 272.938982,21.7575782 272.901049,20.9406831 C272.882083,20.7015918 273.062263,20.4425763 272.976915,20.1636365 Z" id="Path" fill="#0AC558"></path>
                <path d="M153,43.8150001 C153.971311,44.1277483 153.971311,44.1277483 156,43.1468563 C154.868852,42.8341081 153.946721,43.004698 153,43.8150001 Z" id="Path" fill="#FCE5EF"></path>
                <path d="M154,44.0359572 C155.985294,44.2218329 155.985294,44.2218329 157,43.9297425 C155.029412,43.7903357 155.029412,43.7903357 154,44.0359572 Z" id="Path" fill="#FCE5EF"></path>
                <path d="M160.32914,43.8672316 C160.08725,43.8738701 159.957002,43.920339 160.012823,44 C160.08725,44.0995763 160.32914,44.1327684 160.589637,44.1327684 C160.775706,44.1327684 161.017595,44.1128531 160.998988,44.0398305 C160.980381,43.8937853 160.608244,43.8871469 160.32914,43.8672316 Z" id="Path" fill="#FCE5EF"></path>
                <path d="M160,44.0546944 C160.807692,44.0546944 161.538462,44.0546944 163,44.0546944 C161.461538,43.8688187 160.730769,43.9551181 160,44.0546944 Z" id="Path" fill="#FCE5EF"></path>
                <path d="M171.731677,43.9634708 C171.031247,43.9432517 170.295796,43.9499914 169.595366,43.9499914 C169.490301,43.9499914 169.385237,43.9634708 169,43.9971693 C169.315194,44.0308678 169.420258,44.051087 169.525323,44.051087 C170.225753,44.051087 170.961204,44.0443473 171.661634,44.0376075 C172.081893,44.0241281 172.116914,43.9769502 171.731677,43.9634708 Z" id="Path" fill="#FCE5EF"></path>
                <path d="M152.966823,44.0449971 C153.052135,44.0104056 153.203802,44.1228279 153.213281,43.9498706 C153.071094,43.9498706 152.919427,43.9325749 152.786719,44.0449971 C152.853073,44.0363492 152.919427,44.0622928 152.966823,44.0449971 Z" id="Path" fill="#FCE5EF"></path>
                <path d="M153.000028,43.8747881 C152.951571,43.8814266 152.912805,43.9345339 152.893422,43.9743644 C152.854656,44.0407486 152.88373,44.1204096 152.990337,44.127048 C153.106634,44.1403249 153.087251,44.047387 153.116326,43.9942797 C153.116326,43.9345339 153.164783,43.8548729 153.000028,43.8747881 Z" id="Path" fill="#FCE5EF"></path>
            </g>
            <path d="M100.678,13.893 C102.66601,13.7529993 104.331993,14.3059938 105.676,15.552 L104.038,17.589 C103.057995,16.8189962 102.050005,16.4689997 101.014,16.539 C99.7819938,16.6230004 99.166,17.1969947 99.166,18.261 C99.166,18.7510025 99.3479982,19.1289987 99.712,19.395 C100.003668,19.6166678 100.548108,19.8626381 101.345332,20.1329162 L101.854,20.298 C103.310007,20.7600023 104.345997,21.3059969 104.962,21.936 C105.690004,22.6640036 106.054,23.6999933 106.054,25.044 C106.054,26.5140074 105.543005,27.7319952 104.521,28.698 C103.470995,29.706005 102.071009,30.2729994 100.321,30.399 C99.130994,30.4830004 98.0530048,30.3500018 97.087,30 C96.2609959,29.6919985 95.5120034,29.2160032 94.84,28.572 L96.625,26.472 C97.7590057,27.3960046 98.927994,27.8160004 100.132,27.732 C101.574007,27.6199994 102.295,26.8990067 102.295,25.569 C102.295,24.9949971 102.120002,24.5470016 101.77,24.225 C101.419998,23.9029984 100.762005,23.6020014 99.796,23.322 C96.8839854,22.4399956 95.428,20.9280107 95.428,18.786 C95.428,17.4279932 95.924995,16.2940045 96.919,15.384 C97.8990049,14.4879955 99.1519924,13.9910005 100.678,13.893 Z M117.5095,16.686 L114.1285,16.917 L114.1285,29.874 L110.4955,30.126 L110.4955,17.169 L106.9255,17.421 L106.9255,14.67 L117.8875,13.893 L117.5095,16.686 Z M128.272,16.56 L123.4,16.917 L123.4,20.781 L127.663,20.466 L127.663,23.007 L123.4,23.322 L123.4,27.417 L128.629,27.039 L128.629,29.664 L119.767,30.294 L119.767,14.586 L128.671,13.956 L128.272,16.56 Z M138.0685,26.43 L134.0785,26.724 L133.3645,30.189 L129.6895,30.441 L133.9315,14.439 L138.2785,14.145 L142.4995,29.559 L138.7615,29.811 L138.0685,26.43 Z M137.5225,23.868 L136.0735,16.938 L134.6035,24.078 L137.5225,23.868 Z M158.554,29.475 L155.089,29.727 L154.879,23.511 C154.837,22.306994 154.809,21.2220048 154.795,20.256 C154.781,19.1219943 154.795,18.0930046 154.837,17.169 L152.779,28.215 L149.377,28.467 L147.193,17.715 C147.305,19.7590102 147.319,21.8939889 147.235,24.12 L147.046,30.273 L143.581,30.525 L144.631,14.733 L149.167,14.418 L151.141,24.981 L152.947,14.166 L157.525,13.851 L158.554,29.475 Z M161.1475,13.956 L165.6415,14.271 C169.813521,14.5510014 171.8995,16.391983 171.8995,19.794 C171.8995,21.5580088 171.360505,22.8599958 170.2825,23.7 C169.260495,24.5120041 167.825509,24.8550006 165.9775,24.729 L164.7805,24.645 L164.7805,29.916 L161.1475,29.664 L161.1475,13.956 Z M164.7805,16.791 L164.7805,22.02 L165.6835,22.083 C167.335508,22.1950006 168.1615,21.355009 168.1615,19.563 C168.1615,17.8689915 167.335508,16.9660006 165.6835,16.854 L165.6835,16.854 L164.7805,16.791 Z" id="STEAMP" fill="#FFFFFF"></path>
        </g>
    </g>
</svg>