<?xml version="1.0" encoding="UTF-8"?>
<svg width="273px" height="47px" viewBox="0 0 273 47" version="1.1" xmlns="http://www.w3.org/2000/svg" xmlns:xlink="http://www.w3.org/1999/xlink">
    <!-- Generator: Sketch 59.1 (86144) - https://sketch.com -->
    <title>Group 8</title>
    <desc>Created with Sketch.</desc>
    <g id="Amazon-Browser" stroke="none" stroke-width="1" fill="none" fill-rule="evenodd">
        <g id="Group-8" fill-rule="nonzero">
            <g id="paint3-copy-2">
                <path d="M272.976915,20.1636365 C272.701903,19.24712 271.725139,18.5232049 271.573409,17.5801227 C271.563926,17.5070671 271.412195,17.4406528 271.307881,17.3875214 C271.080285,17.2679758 270.975971,17.0886574 270.919072,16.9159804 C270.776825,16.424515 270.587162,15.9861811 269.762128,15.8666354 C269.667296,15.8533526 269.581948,15.733807 269.525049,15.6541099 C269.278487,15.2821902 268.851746,15.1294374 268.29224,15.0630232 C267.524105,14.9766847 267.372375,14.8172905 267.362892,14.2793352 C267.353408,13.7945113 267.552555,13.3229702 267.656869,12.8514291 C267.694802,12.6986764 267.789633,12.5259994 267.581004,12.3998123 C267.049948,12.0943069 266.793903,11.5829172 265.902487,11.562993 C265.295566,11.5430687 265.210217,11.3239017 265.437813,10.8722849 C265.551611,10.6531179 265.58006,10.4273095 265.617993,10.2015011 C265.674891,9.84286426 265.134352,9.67018725 265.06797,9.34475749 C265.058487,9.3181918 264.574846,9.31155038 264.328285,9.34475749 C263.854127,9.41117173 263.569633,9.31155038 263.446352,8.9794792 C263.417902,8.89314069 263.389453,8.76695364 263.294622,8.73374653 C262.583385,8.46808958 262.02388,8.06960417 261.388509,7.74417441 C261.094531,7.59142167 260.677273,7.44531035 260.297947,7.33240615 C259.558262,7.11323917 258.97979,6.56864244 258.012509,6.76124372 C257.784913,6.80773369 257.6237,6.62177383 257.434037,6.54207675 C256.808149,6.26977838 256.182261,5.98419716 255.461542,5.85801012 C254.693407,5.72518165 254.418396,5.47280755 254.532194,4.94149366 C254.579609,4.70904384 254.627025,4.48987686 254.560643,4.25742703 C254.446845,3.90543159 254.361497,3.86558304 253.830441,3.98512867 C253.451115,4.06482575 253.081272,4.15780568 252.673497,4.07146717 C251.013946,3.73275457 249.335429,3.43389051 247.732777,2.95570801 C247.25862,2.81623812 246.860328,2.51737406 246.338755,2.51737406 C246.025811,2.51737406 245.817182,2.43767698 245.551653,2.35133847 C244.821451,2.12553007 244.0059,1.88643882 243.218799,2.11888864 C242.517046,2.32477277 241.862709,2.40446986 241.132507,2.29156566 C240.724732,2.22515142 240.288507,2.22515142 239.861765,2.20522715 C237.415113,2.09896437 234.968461,1.98606017 232.521809,1.85987312 C230.340686,1.74696892 228.150079,1.71376181 225.978438,1.56100906 C222.981764,1.36176636 219.966123,1.26878643 216.950482,1.18244792 C212.787381,1.05626087 208.624279,0.969922365 204.461177,0.883583858 C202.137806,0.837093893 199.804952,0.830452469 197.481581,0.790603928 C194.503873,0.730831116 191.526165,0.644492609 188.548457,0.790603928 C187.761356,0.830452469 186.983738,0.863659587 186.196636,0.823811046 C184.138793,0.724189692 182.080951,0.750755387 180.023108,0.764038234 C177.965265,0.783962504 175.897939,0.717548269 173.840096,0.730831116 C171.289129,0.744113963 168.738163,0.690982574 166.196679,0.737472539 C163.475016,0.783962504 160.762836,0.717548269 158.050656,0.704265422 C155.338476,0.690982574 152.616813,0.657775457 149.904633,0.624568339 C148.501127,0.611285491 147.088138,0.717548269 145.694115,0.677699727 C141.796542,0.558154103 137.898969,0.564795526 134.001395,0.624568339 C133.157395,0.637851186 132.313395,0.684341151 131.469395,0.677699727 C130.160721,0.66441688 128.852046,0.584719797 127.543372,0.598002644 C125.419147,0.624568339 123.285439,0.591361221 121.161214,0.584719797 C117.65245,0.57143695 114.143685,0.578078374 110.644404,0.564795526 C108.880539,0.558154103 107.097707,0.392118513 105.352808,0.518305561 C103.55101,0.651134033 101.787145,0.352269972 99.9853469,0.485098444 C98.249931,0.611285491 96.4765825,0.358911396 94.7222003,0.425325631 C93.802335,0.458532749 92.8824698,0.272572889 91.9910539,0.325704278 C91.0711887,0.38547709 90.1513234,0.325704278 89.2599076,0.299138583 C87.2020647,0.252648618 85.1442218,0.212800077 83.0863789,0.153027265 C82.4320417,0.133102994 81.7777046,0.239365771 81.1328506,0.192875806 C78.4965357,-0.00636690114 75.8507377,0.226082924 73.2144229,0.0666887582 C71.8393665,-0.0130083247 70.4737934,0.146385841 69.0987371,0.113178723 C68.2452538,0.0932544525 67.4107369,0 66.5572537,0 C63.2476353,0.0201987932 59.9285339,-0.0329325954 56.6283987,0.0401230639 C54.3050277,0.0932544525 51.9816567,0.133102994 49.6582857,0.153027265 C47.2969821,0.172951535 44.9356785,0.239365771 42.583858,0.312421431 C39.5113184,0.405401361 36.4482619,0.591361221 33.3852054,0.817169622 C30.7868231,1.00977091 28.1789577,1.18244792 25.5710923,1.33520066 C25.1064181,1.36176636 24.6986428,1.6008576 24.2339686,1.4879534 C23.7029123,1.36840778 23.1908224,1.45474629 22.6787324,1.4879534 C21.1424626,1.58093333 19.5967097,1.8532317 18.0794061,1.4016149 C17.9466421,1.36176636 17.7285297,1.36840778 17.5957656,1.41489774 C16.8276307,1.70047896 16.0215632,1.6008576 15.2154957,1.61414045 C14.7318552,1.62078188 14.1913159,1.49459483 13.7740574,1.6274233 C12.7878101,1.93957021 11.5644841,1.92628736 10.8247987,2.60371256 C10.7868661,2.63691968 10.7110009,2.65684395 10.654102,2.65684395 C10.0376975,2.65020253 9.75320307,2.98891513 9.39284348,3.24128923 C9.18421425,3.38740055 8.95661872,3.52022902 8.7100569,3.63313322 C8.48246137,3.739396 8.33073102,3.87886589 7.97037143,3.89879016 C7.69536017,3.91207301 7.93243884,4.31055842 7.70484331,4.49651828 C7.61949499,4.56293252 7.61001184,4.68247814 7.51518037,4.73560953 C6.82291064,5.11417068 6.67118029,5.67205026 6.46255105,6.21664699 C6.29185441,6.66162237 6.03580944,7.0933149 5.23922509,7.14644629 C4.92628124,7.16637056 4.84093292,7.31248188 4.90731494,7.48515889 C5.02111271,7.77074011 5.040079,8.00983136 4.65126998,8.22235691 C4.40470815,8.35518538 4.47109018,8.60755948 4.49005648,8.80680218 C4.51850592,9.15879763 4.39522501,9.4576617 4.16762948,9.78309145 C3.82623619,10.2745568 3.42794401,10.7593807 3.19086534,11.2774118 C2.94430351,11.8153671 2.73567428,12.3998123 3.0012024,12.9643333 C3.22879792,13.4557987 3.17189904,13.9206983 2.94430351,14.3789566 C2.75464057,14.7575177 2.69774169,15.1294374 2.75464057,15.5279228 C2.83050575,16.0592367 3.02016869,16.6237577 2.22358434,17.0222431 C2.07185399,17.1019402 1.98650567,17.3078244 1.97702252,17.4605771 C1.95805622,18.0516638 1.70201126,18.6493919 2.01495511,19.2338372 C2.15720231,19.4862113 2.08133714,19.6721712 1.74942699,19.8182825 C1.27526964,20.030808 0.952842642,20.3429549 0.630415644,20.6750261 C0.307988645,21.0004559 0.099359411,21.2926785 0.402820115,21.6712397 C0.535584173,21.8372752 0.402820115,21.990028 0.326954939,22.1361393 C0.184707734,22.4217205 0.032977382,22.6940189 0.251089763,22.9995244 C0.326954939,23.1057871 0.317471792,23.2518985 0.203674028,23.3249541 C-0.175651852,23.5773282 0.080393117,23.8429852 0.137291999,24.1020007 C0.184707734,24.3278091 0.336438086,24.5403346 0.279539204,24.7794259 C0.080393117,25.4900582 0.535584173,26.1209934 0.829561731,26.7652115 C0.952842642,27.0308685 1.01922467,27.2832426 1.06664041,27.5555409 C1.20888761,28.2860975 1.22785391,29.029937 1.98650567,29.6675136 C2.85895519,30.4047117 3.64605639,31.1950411 4.34780927,32.0185776 C4.65126998,32.370573 5.040079,32.6893614 5.43837118,32.9882254 C6.10219147,33.4929736 6.76601176,34.0176461 7.12637135,34.6552227 C7.44879834,35.2263852 7.98933772,35.678002 8.5298771,36.1362602 C8.81437151,36.3819929 9.10834907,36.6210841 9.38336033,36.8734582 C10.1135627,37.5376006 10.9575627,38.1353287 12.3421022,37.9028789 C12.6740123,37.8497475 12.8636753,37.9560103 13.1102371,38.108763 C13.878372,38.5869455 14.5421923,39.1647494 15.5094733,39.4835377 C15.6232711,39.5233862 15.7370688,39.5765176 15.8224172,39.6495733 C16.8845296,40.5328826 18.458732,40.632504 19.8906872,40.8583124 C21.10453,41.0509136 22.3847549,41.0907622 23.6460134,41.0974036 C24.3572495,41.104045 25.0779686,41.2103078 25.7702384,41.0841208 C26.4625081,40.9579337 26.9271823,41.1771007 27.3349576,41.4826062 C28.2548229,42.1865971 29.1367556,42.9105123 30.0376545,43.627786 C30.1609354,43.7274074 30.3600815,43.8403116 30.3790478,43.9532158 C30.4169804,44.3052112 30.7204411,44.411474 31.1471827,44.4712468 C31.4032277,44.5044539 31.6403064,44.584151 31.8963513,44.6439238 C32.4084413,44.7634694 33.0058795,44.8099594 33.100711,45.3147076 C33.1291604,45.4674603 33.3946886,45.4741018 33.5748684,45.5205917 C34.6938797,45.7928901 35.8792731,45.8327386 37.0172507,46.0186985 C37.614689,46.1183198 38.2500598,46.0917541 38.8380149,46.2511483 C39.0087116,46.2976383 39.2552734,46.324204 39.4164869,46.277714 C40.0234083,46.1116784 40.5734308,46.2710726 41.1329365,46.3706939 C41.3889815,46.4171839 41.6355433,46.5234467 41.8915883,46.4371082 C42.2140153,46.3308454 42.4605771,46.4238253 42.7261052,46.5168053 C42.9916333,46.6097852 43.2761277,46.6297095 43.5795884,46.6562751 C44.7080829,46.7492551 45.8650269,46.669558 46.9745551,46.8820835 C47.4581956,46.9750635 47.9228698,47.014912 48.4254766,46.9949877 C49.8574318,46.9285735 51.289387,47.061402 52.7403085,46.9418564 C53.4705108,46.8820835 54.2196794,46.8621593 54.9498817,46.7492551 C55.5283537,46.6629166 56.0973425,46.5433709 56.6852976,46.5101638 C57.1215224,46.4835981 57.5292977,46.4304667 57.9086236,46.2909969 C58.4207135,46.0983956 58.9517698,46.0452642 59.5207586,46.0319813 C60.7630508,46.0120571 61.9958599,46.0253399 63.2381522,45.9124357 C64.7175231,45.7796072 66.2158604,45.7331173 67.7047144,45.713193 C68.7383775,45.6999102 69.7910068,45.7397587 70.7962204,45.5803645 C72.1048947,45.367839 73.4515015,45.4873846 74.769659,45.2549348 C75.6515916,45.102182 76.6473221,45.3744804 77.5577042,45.0955406 C77.6335694,45.0689749 77.7473671,45.102182 77.8421986,45.1154649 C78.7146481,45.2482933 79.5965808,45.1353891 80.4690303,45.1154649 C82.0053001,45.0822578 83.5320868,44.8962979 85.0683566,44.8896565 C87.7805367,44.8896565 90.445301,44.537661 93.1479979,44.5243782 C94.3428744,44.5177368 95.5567172,44.3981911 96.7515937,44.4712468 C97.4533466,44.5110953 98.1171669,44.5044539 98.7904703,44.3849083 C99.0085827,44.3450597 99.2551445,44.318494 99.4732569,44.3450597 C100.639684,44.4778882 101.806111,44.318494 102.972538,44.3317769 C105.504538,44.3583426 108.046022,44.1590999 110.587505,44.238797 C111.35564,44.2653627 112.152224,44.2852869 112.89191,44.2055898 C113.802292,44.1126099 114.703191,44.1723827 115.60409,44.1325342 C116.893798,44.0794028 118.192989,44.1989484 119.482697,44.1059685 C120.193933,44.0528371 120.905169,43.9930643 121.616405,43.9997057 C123.181124,44.0129886 124.793259,44.2919284 126.244181,43.627786 C126.320046,43.5945789 126.433844,43.581296 126.528675,43.5746546 C127.249395,43.5281646 127.98908,43.3886947 128.671867,43.4683918 C130.21762,43.6410688 131.611642,43.0366993 133.119463,43.1296792 C133.185845,43.1363207 133.280676,43.1296792 133.309125,43.1031135 C133.878114,42.498744 134.826429,42.3991226 135.689395,42.1666728 C136.002339,42.0803343 136.267867,41.9939958 136.609261,42.0272029 C136.903238,42.0537686 137.197216,42.0471272 137.491193,42.0139201 C138.164497,41.9408644 138.847283,41.8279602 139.482654,42.1401071 C139.624901,42.2065214 139.86198,42.1799557 140.061126,42.1799557 C141.796542,42.1799557 143.531958,42.1334657 145.257891,42.1467485 C147.382116,42.1600314 149.506341,42.0736929 151.621082,42.0338443 C151.91506,42.0272029 152.190071,41.9408644 152.465082,41.9010159 C153.403914,41.7681874 154.342746,41.5091719 155.338476,41.7216974 C155.841083,41.8279602 156.353173,41.934223 156.865263,41.9607887 C157.908409,42.0205615 158.951555,42.0404858 159.975735,42.1998799 C160.791285,42.326067 161.606836,42.1733142 162.40342,42.2065214 C163.797443,42.2662942 165.181983,42.4124055 166.585488,42.4389712 C166.822567,42.4456126 167.021713,42.5053854 167.230342,42.5850825 C168.226073,42.9769265 169.278702,43.2558663 170.445129,43.2691491 C170.644275,43.2691491 170.833938,43.3023562 171.033084,43.3222805 C171.194298,43.3422048 171.393444,43.3754119 171.450343,43.4816747 C171.753803,44.1059685 172.569354,43.9997057 173.185759,44.0129886 C174.295287,44.0395543 175.347916,44.2520798 176.419512,44.3716254 C177.216096,44.4579639 178.003197,44.5575853 178.818748,44.6040753 C179.387737,44.6372824 179.975692,44.5177368 180.506748,44.6505652 C181.009355,44.7767523 181.511962,44.8630908 182.024052,44.9095807 C183.057715,45.0092021 184.081895,45.1287477 185.115558,45.1885205 C185.931108,45.2350105 186.737176,45.367839 187.543243,45.4276118 C188.624322,45.5006674 189.686434,45.5737231 190.720097,45.8260972 C190.985626,45.8925114 191.327019,45.93236 191.592547,45.8792286 C192.284817,45.7464001 192.95812,45.88587 193.631424,45.9057943 C194.740952,45.9456428 195.85048,46.2843554 196.960008,45.9057943 C197.02639,45.8792286 197.159154,45.9057943 197.235019,45.93236 C197.56693,46.0851127 197.936772,45.9987742 198.287649,46.0186985 C200.013582,46.1382441 201.701582,45.6467788 203.436998,45.8260972 C203.588728,45.83938 203.749941,45.7729658 203.911155,45.7530415 C204.67929,45.6534202 205.466391,45.4475361 206.21556,45.5006674 C206.775065,45.540516 207.457852,45.3611976 207.808728,45.540516 C208.453582,45.8725872 208.937223,45.494026 209.487245,45.5338746 C209.961403,45.5670817 210.445043,45.4873846 210.928684,45.4873846 C211.895965,45.4873846 212.853763,45.666703 213.830527,45.5073089 C214.048639,45.4741018 214.314167,45.4741018 214.513313,45.5272331 C215.395246,45.7729658 216.324594,45.7065516 217.234976,45.7530415 C217.927246,45.7862487 218.60055,45.8526629 219.283336,45.9190771 C220.298033,46.0186985 221.350662,45.93236 222.317943,46.2644312 C222.469674,46.3175625 222.697269,46.2445069 222.896415,46.2445069 C223.086078,46.2445069 223.313674,46.2112998 223.474887,46.2710726 C224.271472,46.5433709 225.068056,46.3906182 225.883607,46.3706939 C226.500011,46.3507697 227.239697,46.2179412 227.73282,46.6828408 C227.894034,46.8355936 228.150079,46.7492551 228.368191,46.7027651 C229.240641,46.5101638 230.11309,46.3175625 231.042439,46.3175625 C231.80109,46.3175625 232.531293,46.2378655 233.270978,46.0851127 C233.564956,46.0253399 233.868416,45.8925114 234.20981,45.9456428 C235.05381,46.0917541 235.907293,46.0319813 236.808192,45.9921328 C238.059967,46.0784713 239.359158,45.93236 240.65835,45.88587 C241.17044,45.8725872 241.454934,45.5936474 241.881676,45.4807432 C242.204103,45.4010461 241.98599,45.2018034 242.01444,45.0623335 C242.071339,44.8298837 242.308417,44.7900351 242.583428,44.7501866 C243.029136,44.6837723 243.465361,44.6173581 243.901586,44.4845296 C244.906799,44.1723827 245.930979,43.8934429 246.964642,43.6211446 C247.419833,43.5015989 247.827609,43.3687705 248.235384,43.1496035 C248.927654,42.7776838 249.572508,42.3592741 250.340643,42.0471272 C251.241542,41.6818489 252.246755,41.4161919 253.024373,40.9114438 C253.602845,40.5328826 254.276149,40.2738671 254.987385,40.0480587 C255.537407,39.8753817 256.163295,39.676139 256.514171,39.3573506 C256.90298,39.0053552 257.291789,38.6400769 257.690082,38.28144 C258.25907,37.763409 258.989273,37.325075 259.785857,37.105908 C260.933318,36.7871197 261.625588,36.1893916 262.384239,35.5983049 C262.602352,35.4322693 262.782532,35.2330266 262.792015,34.9872939 C262.792015,34.721637 262.991161,34.5821671 263.370487,34.5157528 C263.749813,34.4493386 264.167071,34.3563587 264.309318,34.0707775 C264.55588,33.5527464 265.011071,33.1476196 265.551611,32.7756999 C265.788689,32.6163057 265.921453,32.3904973 265.997318,32.1646889 C266.329229,31.1419097 267.192195,30.3449388 268.244824,29.6343065 C268.671566,29.3487253 268.95606,29.0565027 268.965543,28.6248101 C268.975027,28.4255674 269.050892,28.1798348 269.231072,28.0470063 C269.724195,27.6883694 269.80006,27.2035455 270.113004,26.7917772 C270.511296,26.2737462 270.890622,25.7623566 271.478577,25.3373055 C271.895836,25.0384414 272.426892,24.7528602 272.113948,24.2348292 C272.0286,24.0820764 272.170847,23.9824551 272.303611,23.8695509 C272.474308,23.730081 272.597589,23.5640454 272.626038,23.3780855 C272.758802,22.5678318 272.938982,21.7575782 272.901049,20.9406831 C272.882083,20.7015918 273.062263,20.4425763 272.976915,20.1636365 Z" id="Path" fill="#65B601"></path>
                <path d="M153,43.1470968 C153.971311,43.293142 153.971311,43.293142 156,42.8350911 C154.868852,42.6890459 153.946721,42.7687069 153,43.1470968 Z" id="Path" fill="#FCE5EF"></path>
                <path d="M156,44.0359572 C156.661765,44.2218329 156.661765,44.2218329 157,43.9297425 C156.343137,43.7903357 156.343137,43.7903357 156,44.0359572 Z" id="Path" fill="#FCE5EF"></path>
                <path d="M159.32914,43.8672316 C159.08725,43.8738701 158.957002,43.920339 159.012823,44 C159.08725,44.0995763 159.32914,44.1327684 159.589637,44.1327684 C159.775706,44.1327684 160.017595,44.1128531 159.998988,44.0398305 C159.980381,43.8937853 159.608244,43.8871469 159.32914,43.8672316 Z" id="Path" fill="#FCE5EF"></path>
                <path d="M161,44.0546944 C161.269231,44.0546944 161.512821,44.0546944 162,44.0546944 C161.487179,43.8688187 161.24359,43.9551181 161,44.0546944 Z" id="Path" fill="#FCE5EF"></path>
                <path d="M169.910559,43.9634708 C169.677082,43.9432517 169.431932,43.9499914 169.198455,43.9499914 C169.163434,43.9499914 169.128412,43.9634708 169,43.9971693 C169.105065,44.0308678 169.140086,44.051087 169.175108,44.051087 C169.408584,44.051087 169.653735,44.0443473 169.887211,44.0376075 C170.027298,44.0241281 170.038971,43.9769502 169.910559,43.9634708 Z" id="Path" fill="#FCE5EF"></path>
                <path d="M152.966823,44.0449971 C153.052135,44.0104056 153.203802,44.1228279 153.213281,43.9498706 C153.071094,43.9498706 152.919427,43.9325749 152.786719,44.0449971 C152.853073,44.0363492 152.919427,44.0622928 152.966823,44.0449971 Z" id="Path" fill="#FCE5EF"></path>
                <path d="M153.000027,43.8747881 C152.952632,43.8814266 152.914715,43.9345339 152.895757,43.9743644 C152.85784,44.0407486 152.886277,44.1204096 152.990548,44.127048 C153.104298,44.1403249 153.08534,44.047387 153.113777,43.9942797 C153.113777,43.9345339 153.161173,43.8548729 153.000027,43.8747881 Z" id="Path" fill="#FCE5EF"></path>
            </g>
            <path d="M72.655,32.184 L69.778,31.974 L69.778,23.553 C69.0079961,24.8690066 68.1540047,26.0589947 67.216,27.123 C66.1939949,28.2710057 65.1580053,29.1809966 64.108,29.853 L62.281,27.06 C63.471006,26.4299969 64.667994,25.4220069 65.872,24.036 C67.0060057,22.7339935 67.9299964,21.3410074 68.644,19.857 L63.058,19.458 L63.058,16.539 L69.778,17.001 L69.778,12.15 L72.655,12.36 L72.655,17.211 L79.396,17.673 L79.396,20.592 L73.663,20.193 C74.3101143,21.5618957 75.1397368,22.8975884 76.1518874,24.2001094 L76.54,24.687 C77.7580061,26.2270077 78.961994,27.395996 80.152,28.194 L78.304,30.735 C77.2679948,29.9229959 76.246005,28.8660065 75.238,27.564 C74.2859952,26.3459939 73.4250039,25.0300071 72.655,23.616 L72.655,32.184 Z M84.9925,27.27 C84.8804994,28.278005 84.719501,29.2019958 84.5095,30.042 C84.2574987,31.036005 83.9495018,31.8549968 83.5855,32.499 C83.0254972,31.7429962 82.4095033,31.1760019 81.7375,30.798 C82.1295019,30.0419962 82.4094991,29.0480062 82.5775,27.816 C82.6195002,27.4484982 82.653625,27.0613132 82.6798749,26.6544383 L82.7035,26.241 C82.7315001,25.7929978 82.7455,25.3100026 82.7455,24.792 L82.7455,20.487 L83.5645,20.424 C83.1024977,19.8919973 82.7105016,19.5070012 82.3885,19.269 C82.6545013,19.1709995 82.9904979,19.024001 83.3965,18.828 C83.4665003,18.7999999 83.5504995,18.7580003 83.6485,18.702 L84.3835,18.345 L82.7875,17.799 L84.1315,16.476 L82.4305,16.602 L82.4305,14.292 L85.4335,14.082 C85.3634996,13.7459983 85.2445008,13.3680021 85.0765,12.948 L87.4915,12.255 C87.5699004,12.4006007 87.6527798,12.5999592 87.7401398,12.8530794 L87.9535,13.494 C87.9815001,13.5640004 88.0024999,13.6339997 88.0165,13.704 L88.0795,13.893 L90.6415,13.704 L90.6415,16.014 L89.2135,16.119 L90.0325,16.35 L89.3815,17.127 C89.1014986,17.4350015 88.856501,17.6799991 88.6465,17.862 L90.3265,18.618 L88.9825,20.046 L90.7465,19.92 L90.7465,22.251 L88.7725,22.398 L89.7805,22.734 C89.3464978,23.2800027 88.7795035,23.8189973 88.0795,24.351 C87.4494968,24.8270024 86.8055033,25.2259984 86.1475,25.548 L85.6645,24.981 C85.4544989,24.7429988 85.2655008,24.5470008 85.0975,24.393 L85.0975,24.645 C85.0975,24.915668 85.0943889,25.1770001 85.0881667,25.4289996 L85.0765,25.8 C85.0624999,26.2480022 85.0345002,26.6539982 84.9925,27.018 C85.6505033,26.7099985 86.2874969,26.3320022 86.9035,25.884 C87.5895034,25.4079976 88.1004983,24.9530022 88.4365,24.519 L90.3895,25.212 C89.8994975,25.8840034 89.2625039,26.5349969 88.4785,27.165 C87.7504963,27.7530029 86.987504,28.249998 86.1895,28.656 C85.8254981,28.0959972 85.4265021,27.6340018 84.9925,27.27 Z M94.8835,28.971 C93.9174951,30.1330058 92.5945084,31.217995 90.9145,32.226 L89.6755,30.231 C90.6275047,29.7129974 91.5654953,28.9290053 92.4895,27.879 L91.2295,27.963 L91.2295,16.791 L93.6025,16.623 L93.7285,15.258 L90.8305,15.468 L90.8305,13.011 L99.4615,12.402 L99.4615,14.859 L96.3745,15.069 L96.2065,15.783 L96.1411665,16.0723339 C96.1007221,16.2434449 96.0665001,16.3709996 96.0385,16.455 L98.9575,16.266 L98.9575,27.438 L97.2985,27.543 L98.6635,28.761 C99.1955026,29.2510025 99.5734988,29.6359986 99.7975,29.916 L97.7395,31.638 C97.4874987,31.2879983 97.1025026,30.8470027 96.5845,30.315 C96.1084976,29.8249976 95.6395023,29.377002 95.1775,28.971 L96.9205,27.564 L93.1825,27.837 L94.8835,28.971 Z M84.9295,16.413 C85.0415005,16.4550002 85.1744992,16.5109997 85.3285,16.581 L86.5885,17.106 C86.8965015,16.895999 87.2114984,16.6090018 87.5335,16.245 L84.9295,16.413 Z M93.5185,19.794 L96.5635,19.584 L96.5635,18.597 L93.5185,18.807 L93.5185,19.794 Z M88.3105,20.088 L87.9115,19.878 L87.8648332,19.8593333 C87.8632777,19.8577778 87.8648333,19.857 87.8695,19.857 L87.5545,19.689 L87.1781796,19.5041998 C87.0034599,19.4201999 86.8489006,19.3488003 86.7145,19.29 L85.9585,19.773 C85.9585,19.7870001 85.9375002,19.8009999 85.8955,19.815 L85.6015,20.025 L85.3494999,20.1930001 C85.2725001,20.242 85.2025003,20.2839998 85.1395,20.319 L88.3105,20.088 Z M93.5185,22.734 L96.5635,22.524 L96.5635,21.579 L93.5185,21.789 L93.5185,22.734 Z M85.0975,22.65 L85.0975,23.91 C85.9935044,23.503998 86.7564968,23.0280027 87.3865,22.482 L85.0975,22.65 Z M93.5185,25.674 L96.5635,25.464 L96.5635,24.54 L93.5185,24.75 L93.5185,25.674 Z M90.9565,27.984 C90.4104972,28.9500048 89.6685047,29.831996 88.7305,30.63 C87.8484956,31.3860038 86.8125059,32.0509971 85.6225,32.625 L84.6775,30.609 C85.489504,30.3149985 86.2664963,29.8810029 87.0085,29.307 C87.820504,28.6909969 88.4154981,28.0470034 88.7935,27.375 L90.9565,27.984 Z M119.044,27.816 C118.819999,29.5520087 118.316004,30.6859973 117.532,31.218 C116.649996,31.8060029 114.977012,32.0090009 112.513,31.827 L110.455,31.68 C107.724986,31.4979991 105.905004,31.0920032 104.995,30.462 C104.112996,29.859997 103.672,28.7540081 103.672,27.144 L103.672,20.193 L103.084,20.634 L101.341,17.862 C102.419005,17.259997 103.496995,16.3710059 104.575,15.195 C105.611005,14.0749944 106.443997,12.9270059 107.074,11.751 L109.489,13.095 C109.376999,13.3190011 109.258001,13.528999 109.132,13.725 L113.059,13.998 L113.584,13.872 L115.285,15.426 L114.84484,16.0543206 C114.7026,16.2548001 114.56484,16.4463195 114.43156,16.6288794 L114.235,16.896 C113.800998,17.4840029 113.409002,17.980998 113.059,18.387 L117.238,18.681 L117.238,26.766 L116.755,26.724 C117.497004,27.2420026 118.259996,27.605999 119.044,27.816 Z M109.846,18.156 C110.009334,18.0159993 110.19211,17.8176676 110.394333,17.5610005 L110.875,16.938 C110.889,16.9099999 110.91,16.8750002 110.938,16.833 L111.19,16.497 L107.431,16.224 L106.108,17.904 L109.846,18.156 Z M111.841,22.986 L114.613,23.175 L114.613,21.222 L111.841,21.033 L111.841,22.986 Z M106.234,22.587 L109.237,22.797 L109.237,20.844 L106.234,20.634 L106.234,22.587 Z M109.763596,28.9667853 L112.387,29.16 L112.968898,29.1951698 C114.358972,29.2598417 115.263998,29.1501191 115.684,28.866 C116.118002,28.5999987 116.397999,27.8860058 116.524,26.724 L114.613,26.577 L114.613,25.989 L106.234,25.401 L106.234,27.291 C106.234,27.9210032 106.450998,28.3269991 106.885,28.509 C107.305002,28.694295 108.264526,28.846889 109.763596,28.9667853 L109.763596,28.9667853 Z M126.9295,28.698 L126.9295,31.869 L124.3255,31.701 L124.3255,28.53 L121.2175,28.299 L121.2175,25.674 L124.3255,25.905 L124.3255,25.002 L121.7635,24.813 L121.7635,17.106 L124.3255,17.295 L124.3255,16.245 L121.4485,16.035 L121.4485,13.494 L124.3255,13.704 L124.3255,11.856 L126.9295,12.024 L126.9295,13.872 L129.8275,14.082 L129.8275,16.623 L126.9295,16.413 L126.9295,17.463 L129.7015,17.652 L129.7015,17.799 C130.121502,17.1829969 130.506498,16.3500053 130.8565,15.3 C131.178502,14.3479952 131.430499,13.3610051 131.6125,12.339 L134.2585,13.137 L133.9855,14.334 C133.873499,14.8100024 133.7685,15.2089984 133.6705,15.531 L138.4795,15.867 L138.4795,18.618 L132.6625,18.198 L132.2005,19.143 L132.027833,19.502334 C131.918944,19.7201115 131.8225,19.8943327 131.7385,20.025 L135.5605,20.298 L136.1485,20.319 L137.8495,21.18 C137.7935,21.4180012 137.7165,21.6069993 137.6185,21.747 L136.979683,22.5258167 C136.262226,23.4066071 135.642169,24.1899966 135.1195,24.876 L134.700811,25.4495638 C134.304436,25.9981887 133.975001,26.471998 133.7125,26.871 C133.460499,27.279002 133.275357,27.630428 133.157071,27.9252853 L133.1035,28.068 C133.005499,28.3060012 132.9565,28.522999 132.9565,28.719 C132.9565,29.058735 133.389438,29.2704133 134.255326,29.35404 L135.1615,29.433 C135.735503,29.4750002 136.113499,29.3630013 136.2955,29.097 C136.463501,28.8449987 136.5615,28.2360048 136.5895,27.27 L138.8365,27.732 C138.724499,29.6080094 138.388503,30.8679968 137.8285,31.512 C137.345031,32.0608027 136.520096,32.3108097 135.353674,32.2620268 L134.3845,32.205 C132.956493,32.1069995 131.892503,31.757003 131.1925,31.155 C130.562497,30.6229973 130.2475,29.9090045 130.2475,29.013 C130.2475,28.7049985 130.2755,28.4180013 130.3315,28.152 C130.4015,27.7879982 130.534499,27.3890022 130.7305,26.955 C130.940501,26.4649976 131.241498,25.8980032 131.6335,25.254 C132.067502,24.5399964 132.613497,23.7210046 133.2715,22.797 L131.0035,22.65 L131.0035,20.991 C130.611498,20.4729974 130.177502,19.9690025 129.7015,19.479 L129.7015,25.359 L126.9295,25.17 L126.9295,26.073 L129.9325,26.283 L129.9325,28.908 L126.9295,28.698 Z M124.1155,20.172 L127.2235,20.382 L127.2235,19.542 L124.1155,19.332 L124.1155,20.172 Z M124.1155,22.902 L127.2235,23.112 L127.2235,22.293 L124.1155,22.083 L124.1155,22.902 Z M157.642,16.098 L157.642,30.462 L146.68,31.218 L146.68,16.854 L150.796,16.56 L150.796,12.234 L153.4,12.066 L153.4,16.392 L157.642,16.098 Z M145.504,17.463 L143.803,16.392 L141.892,15.237 L141.892,15.237 L143.404,12.885 L143.64928,13.0026 C143.785359,13.0697998 143.941599,13.1495995 144.118,13.242 L146.47168,14.5238401 C146.71696,14.6604798 146.926399,14.7791995 147.1,14.88 L145.504,17.463 Z M145.945,20.718 L144.454,23.322 L140.821,21.243 L142.249,18.912 C142.669002,19.0986676 143.147332,19.3242214 143.683999,19.5886662 L145.945,20.718 Z M153.4,22.02 L155.017,21.894 L155.017,19.101 L153.4,19.227 L153.4,22.02 Z M149.179,22.314 L150.796,22.188 L150.796,19.395 L149.179,19.521 L149.179,22.314 Z M144.433,24.435 L146.47,26.199 L146.320375,26.5287654 C146.224125,26.7464211 146.106001,27.0214983 145.966,27.354 L145.798,27.732 C145.699999,27.9980013 145.581001,28.2639987 145.441,28.53 L143.845,32.142 L141.493,30.42 C142.053003,29.3559947 142.640997,28.1730065 143.257,26.871 L143.362,26.64 C143.530001,26.3179984 143.683999,26.0030015 143.824,25.695 L144.433,24.435 Z M149.179,28.215 L150.796,28.089 L150.796,25.023 L149.179,25.149 L149.179,28.215 Z M153.4,27.921 L155.017,27.795 L155.017,24.729 L153.4,24.855 L153.4,27.921 Z M172.2055,22.734 C172.009499,24.8900108 171.596503,26.7239924 170.9665,28.236 C170.294496,29.8740082 169.349506,31.1759952 168.1315,32.142 L166.5775,30.021 C167.501504,29.3909969 168.229497,28.4390064 168.7615,27.165 C169.251502,26.0029942 169.559499,24.5890083 169.6855,22.923 L168.4045,23.007 L168.4045,21.663 L167.7535,22.251 C167.683499,21.6629971 167.508501,20.9140046 167.2285,20.004 L167.2285,22.377 L165.3595,22.503 L165.3595,22.671 L165.697179,23.0162396 C165.785659,23.1080795 165.883099,23.2099994 165.9895,23.322 L167.8375,25.464 L166.2625,27.984 L166.0735,27.627 C166.026833,27.5243328 165.980167,27.4309999 165.9335,27.3470001 L165.477625,26.5625628 C165.437375,26.4951879 165.398,26.4300003 165.3595,26.367 L165.3595,32.31 L162.9025,32.478 L162.9025,27.312 L162.711353,27.840642 C162.307716,28.9302181 161.972435,29.6569982 161.7055,30.021 L159.6895,28.173 C160.263503,27.374996 160.795497,26.4510053 161.2855,25.401 C161.691502,24.5469957 162.041498,23.6510047 162.3355,22.713 L160.4245,22.86 L160.4245,20.067 L162.9025,19.878 L162.9025,18.849 L161.0335,19.5 C160.9915,18.8139966 160.879501,17.9460053 160.6975,16.896 L160.2985,14.691 L162.1675,14.082 L162.5875,16.077 L162.6715,16.5652499 C162.6995,16.7367494 162.7275,16.9169991 162.7555,17.106 L162.9025,18.009 L162.9025,12.633 L165.3595,12.465 L165.3595,16.938 C165.4715,16.4619976 165.576499,15.8950033 165.6745,15.237 C165.7585,14.7189974 165.8285,14.1940027 165.8845,13.662 L168.1735,13.998 L167.1235,17.673 L166.919071,18.3454292 C166.833357,18.615143 166.7545,18.845999 166.6825,19.038 L165.3595,18.744 L165.3595,19.71 L167.0815,19.584 L166.9765,19.29 C166.9485,19.1639994 166.9135,19.0730003 166.8715,19.017 C167.585503,18.3589967 168.180497,17.4210061 168.6565,16.203 C169.076502,15.1109945 169.370499,13.8790069 169.5385,12.507 L172.0375,12.78 C171.799499,14.2360073 171.498502,15.5589941 171.1345,16.749 C170.700498,18.1630071 170.196503,19.3039957 169.6225,20.172 L174.8935,19.794 C174.389497,18.995996 173.941502,17.9460065 173.5495,16.644 C173.213498,15.5379945 172.905501,14.2150077 172.6255,12.675 L174.9985,11.982 C175.292501,13.5640079 175.670498,14.8939946 176.1325,15.972 C176.622502,17.162006 177.231496,18.0929966 177.9595,18.765 C177.357497,19.3810031 176.853502,20.0669962 176.4475,20.823 L176.410369,22.0478435 C176.247523,26.912853 175.958902,29.6755467 175.5445,30.336 C175.220943,30.8462248 174.803366,31.1905185 174.29176,31.3688888 L174.0955,31.428 C173.703498,31.5680007 172.919506,31.6659997 171.7435,31.722 L171.7435,29.118 L172.1425,29.097 L172.1425,29.097 L172.6675,29.076 C172.905501,29.0619999 173.101499,28.9360012 173.2555,28.698 C173.493501,28.291998 173.675499,26.2690182 173.8015,22.629 L172.2055,22.734 Z M190.213,15.069 C189.526996,15.2090007 188.743004,15.3349994 187.861,15.447 L186.873159,15.5612401 C186.364121,15.61668 185.832403,15.6695997 185.278,15.72 L182.674,15.867 L182.464,15.867 L180.427,15.888 C180.328999,15.0339957 180.098002,14.1870042 179.734,13.347 C180.462003,13.3329999 181.182996,13.2980003 181.897,13.242 L184.207,13.053 C185.831008,12.8709991 187.314993,12.6400014 188.659,12.36 L190.213,15.069 Z M190.234,17.295 L189.604,18.66 C189.155998,19.6400049 188.778001,20.3819975 188.47,20.886 L186.433,20.109 C186.965002,18.9189941 187.384998,17.6170071 187.693,16.203 L189.898,16.98 L189.793,16.875 C191.683009,15.9509954 193.145995,14.6280086 194.182,12.906 L196.87,14.355 C196.197996,15.3350049 195.421004,16.2589957 194.539,17.127 C193.600995,18.0370046 192.684004,18.7509974 191.788,19.269 C191.563999,18.9189983 191.333001,18.5900015 191.095,18.282 C190.786998,17.875998 190.500001,17.5470013 190.234,17.295 Z M186.643,19.101 L184.48,19.773 L184.088,18.5876673 C184.022667,18.3932232 183.957333,18.2003343 183.892,18.009 L183.808,17.799 C183.667999,17.392998 183.514001,16.994002 183.346,16.602 L185.404,16.014 L186.118,17.715 L186.643,19.101 Z M181.54,20.529 C181.273998,19.4089944 180.763004,18.2890056 180.007,17.169 L181.96,16.308 C182.730004,17.3720053 183.261998,18.4429946 183.556,19.521 L181.54,20.529 Z M197.101,20.277 C195.686993,22.2650099 193.91601,23.8889937 191.788,25.149 L190.15,22.587 C190.864003,22.2369983 191.633996,21.7190034 192.46,21.033 C193.356004,20.2769962 194.027998,19.5560034 194.476,18.87 L197.101,20.277 Z M186.454,31.848 L183.871,31.659 L183.871,27.648 C183.512598,28.1184024 183.15868,28.5484795 182.80924,28.9382394 L182.548,29.223 C182.071997,29.7410026 181.652002,30.1399986 181.288,30.42 L179.524,27.837 C180.084003,27.4869983 180.699996,26.9690034 181.372,26.283 C181.960003,25.6669969 182.512997,25.0020036 183.031,24.288 L180.301,24.078 L180.301,21.432 L183.871,21.684 L183.871,19.983 L186.454,20.172 L186.454,21.873 L189.667,22.104 L189.667,24.75 L187.756,24.603 C188.708005,25.5830049 189.456997,26.5839949 190.003,27.606 L188.239,29.433 C187.888998,28.6769962 187.294004,27.7810052 186.454,26.745 L186.454,31.848 Z M197.584,26.01 C196.827996,27.3680068 195.827006,28.5929945 194.581,29.685 C193.432994,30.7070051 192.131007,31.5749964 190.675,32.289 L189.142,29.433 C190.234005,29.026998 191.290995,28.4110041 192.313,27.585 C193.433005,26.6889955 194.286997,25.7090053 194.875,24.645 L197.584,26.01 Z" id="木顏色乾油粉彩" fill="#FFFFFF"></path>
        </g>
    </g>
</svg>