<?xml version="1.0" encoding="UTF-8"?>
<svg width="273px" height="64px" viewBox="0 0 273 64" version="1.1" xmlns="http://www.w3.org/2000/svg" xmlns:xlink="http://www.w3.org/1999/xlink">
    <!-- Generator: Sketch 59.1 (86144) - https://sketch.com -->
    <title>Group 9</title>
    <desc>Created with Sketch.</desc>
    <g id="Amazon-Browser" stroke="none" stroke-width="1" fill="none" fill-rule="evenodd">
        <g id="Group-9" fill-rule="nonzero">
            <path d="M267.831397,38.0417913 C267.394599,38.2218205 267.032377,37.9994315 266.915188,37.5122936 C266.521005,37.6181932 266.489044,38.3171301 265.881789,38.0841511 C265.210612,37.8299922 264.507475,37.7029128 263.793684,37.9994315 C263.761723,38.0100214 263.729762,37.9147118 263.761723,37.8511721 C263.282311,37.8511721 262.781592,38.0629712 262.344795,37.6711429 C262.227605,37.5652434 262.121069,37.6711429 262.00388,37.7452726 C261.332703,38.1582808 261.162246,38.1371009 260.64022,37.6181932 C260.554991,37.5334735 260.554991,37.2687247 260.427148,37.3746242 C260.022311,37.7135027 259.638782,37.4169841 259.361788,37.3534443 C259.564206,37.3110845 259.819893,37.1734151 260.086233,36.982796 C260.512377,36.6650974 260.970481,36.3473988 261.556429,36.5803778 C261.556429,36.5803778 261.556429,36.5697878 261.545775,36.5697878 C261.833422,36.6545074 262.121069,36.7180471 262.334141,36.9616161 C262.259566,36.6333275 261.88669,36.3368088 262.461985,36.1250098 C262.68571,36.0402901 262.866821,35.849671 262.866821,35.5849222 C262.866821,35.394303 262.856168,35.0871944 262.557867,35.2884035 C261.982573,35.6696418 261.428586,35.404893 260.810677,35.3307633 C260.810677,35.6378719 260.810677,35.9343906 260.810677,36.1991394 C260.235383,36.3368088 259.915775,36.1567796 259.830546,35.6061021 C259.787932,35.3731231 259.69205,35.161324 259.606821,34.938935 C259.510939,34.6847761 259.361788,34.6424163 259.15937,34.8330355 C259.052834,34.938935 258.999566,35.1507341 258.690612,34.9707049 C258.914337,34.6741862 258.818455,34.3458976 258.530808,33.7952201 C259.180677,34.1764584 259.638782,33.9964292 260.10754,34.1340986 C260.565644,34.261178 260.725448,34.8753953 261.385971,34.7694958 C261.045056,34.5682867 261.034403,34.3141278 261.077017,34.038789 C261.694926,34.5365168 262.014534,34.4412072 262.504599,33.594011 C262.312834,33.4351617 261.939958,33.8799397 261.918651,33.5304713 C261.897344,33.0751033 261.673618,32.693865 261.567082,32.2808568 C261.385971,31.5395601 261.662965,30.8512131 261.705579,30.1416863 C261.268782,30.1628662 260.90656,29.9934269 260.533684,30.3640753 C260.288651,30.6076442 259.798586,30.6288241 259.713357,30.0463767 C259.670742,29.7710379 259.212638,29.6545484 259.287213,29.5380589 C259.553553,29.1356407 258.221853,29.0085613 259.148716,28.5531933 C259.233945,28.5108335 259.063487,28.2672646 258.935644,28.2990344 C258.488193,28.4155239 258.179239,27.8542564 257.699827,28.0872353 C257.56133,28.1507751 257.433487,27.949566 257.476102,27.7377669 C257.540023,27.4306583 257.753095,27.2929889 258.040742,27.2400391 C258.307082,27.1870893 258.339043,27.3459386 258.445579,27.5471477 C258.679958,27.9919258 259.755971,28.1825449 260.150154,27.8966162 C260.320612,27.7801267 260.192769,27.6742272 260.150154,27.5577377 C260.022311,27.1447295 260.416494,27.2823989 260.576298,27.1870893 C260.736102,27.0917798 260.991788,27.1659094 260.959828,27.3459386 C260.874599,27.8436664 261.066363,27.9813358 261.535122,28.0025157 C261.865383,28.0236956 261.918651,28.2566746 261.694926,28.5002435 C261.354011,28.8708919 261.4712,29.29449 261.481854,29.739268 C261.641658,29.7074982 261.758847,29.7074982 261.833422,29.6545484 C262.099762,29.4745192 262.334141,29.1568206 262.589828,29.6969082 C262.675056,29.8769374 262.930743,29.8133977 263.069239,29.5804187 C263.410155,29.0509211 263.36754,28.3731641 263.761723,27.8436664 C263.846952,27.7271769 263.878913,27.5789176 264.038717,27.494198 C264.560743,27.1976793 264.69924,26.5199223 264.550089,26.1810438 C264.187867,25.3338475 264.656625,25.1961781 265.253227,25.0373288 C265.349109,25.0161489 265.444991,24.9631992 265.519567,24.8996595 C265.615449,24.8043499 265.711331,24.6560905 265.604795,24.550191 C265.53022,24.4654714 265.327802,24.3807518 265.253227,24.4231116 C264.827083,24.6455006 264.251789,24.6137307 264.038717,25.1749982 C263.985449,25.3338475 263.921527,25.4926968 263.836298,25.6303662 C263.719109,25.7998055 263.506037,25.7468557 263.388847,25.6939059 C263.250351,25.6409562 263.324926,25.460927 263.378194,25.3444375 C263.442115,25.2067681 263.90022,25.1749982 263.580612,24.9526092 C263.346233,24.7937599 263.420808,24.4337015 263.111854,24.3595718 C262.83486,24.6984503 263.026625,25.1644083 262.781592,25.5032868 C262.56852,25.5244667 262.355449,25.3550274 262.376756,25.2597179 C262.483292,24.8467097 262.398063,24.4760613 262.280873,24.094823 C262.238259,23.9677436 262.387409,23.883024 262.515253,23.8300742 C262.334141,23.1311373 261.662965,23.1417272 261.215514,23.1840871 C260.682834,23.2370368 260.37388,22.8452086 259.894468,22.8134387 C259.57486,22.7922588 259.628128,22.3474808 260.032965,22.1462716 C260.160808,22.0827319 260.160808,22.0297822 260.160808,21.9450625 C260.160808,21.6485438 260.160808,21.3520252 260.160808,21.0872763 C259.979697,20.9178371 259.809239,20.9707868 259.638782,20.9601969 C258.935644,20.9072471 258.807801,21.0131467 258.818455,21.6909037 C258.829108,21.9980123 258.871723,22.2627611 259.170023,22.4745602 C259.532246,22.739309 259.447017,23.0675976 259.191331,23.3852962 C258.882376,23.2582167 259.127409,22.961698 258.914337,22.8452086 C258.189893,23.0358277 258.786494,24.0206933 258.083357,24.2748522 C257.966167,23.0887775 257.763749,22.8769784 256.954076,23.0675976 C256.84754,23.3747062 257.028651,23.7241747 256.815579,24.0736431 C256.570546,23.9042039 256.080481,24.1160029 256.101788,23.5970952 C256.133749,22.9299282 256.229631,22.2733511 256.31486,21.616774 C256.357474,21.3202553 256.61316,21.2037658 256.8795,21.1190462 C256.655775,21.1508161 256.432049,21.171996 256.19767,21.2037658 C256.069827,21.7756233 255.93133,22.3474808 255.814141,22.9193382 C255.78218,23.0570076 255.760873,23.194677 255.601069,23.2158569 C255.409304,23.2370368 255.260154,23.1205473 255.238847,22.9299282 C255.142964,22.1568616 254.407866,22.0403721 253.907147,21.7332635 C253.76865,21.6485438 253.257278,21.8285731 253.118781,21.5850041 C252.958977,21.3202553 252.980284,20.939017 253.150742,20.6107284 C253.193356,20.5154189 253.267931,20.3671595 253.022899,20.3247997 C252.905709,20.6848581 252.767212,21.0237366 252.67133,21.3732051 C252.543487,21.839163 252.266493,21.9556525 251.84035,21.7862132 C251.680546,21.7226735 251.531395,21.6485438 251.371591,21.5744142 C251.755121,21.5532343 251.9895,21.4049749 252.032114,21.0343266 C252.064075,20.7483978 252.170611,20.5154189 252.40499,20.3353897 C252.532833,20.2400801 252.607408,20.1341806 252.447605,20.0176911 C252.277147,19.9012016 252.127997,19.9329714 252.032114,20.1235906 C251.882964,20.4201093 251.72316,20.706038 251.563356,21.0025567 C251.126559,20.8860672 250.721722,20.7695777 250.24231,20.6424983 C250.295578,21.1296361 250.561918,21.4049749 250.743029,21.7226735 C250.849565,21.9027027 250.785644,22.0509621 250.583225,22.1145018 C250.455382,22.1462716 250.252964,22.1568616 250.24231,21.9980123 C250.210349,21.5320544 249.762898,21.2567156 249.70963,20.8225275 C249.645709,20.2824399 249.262179,20.2400801 248.804075,20.2083102 C248.857343,20.5577787 248.857343,20.8966572 248.953225,21.2037658 C249.0278,21.4473347 249.070415,21.5532343 248.899957,21.5955941 C248.441853,21.6909037 247.962441,21.1508161 248.026362,20.6424983 C248.058323,20.3883394 248.46316,20.2718499 248.260741,19.9329714 C247.557604,19.9753313 247.898519,20.7272179 247.54695,20.9707868 C247.24865,20.9707868 247.152767,20.5577787 246.801199,20.706038 C246.56682,20.8013476 246.513552,20.5577787 246.524205,20.3989294 C246.556166,19.9117915 247.067539,20.2189002 247.227343,20.0071011 C247.365839,19.816482 246.641395,19.4246537 247.355186,19.2869843 C247.419107,19.2763943 247.493683,19.2658044 247.557604,19.2446245 C247.728062,19.2022647 247.898519,19.1704948 247.877212,18.9375158 C247.738715,18.7574866 247.51499,18.8316163 247.344532,18.7468967 C247.504336,18.5139177 247.66414,18.2809388 247.834598,18.0479598 C247.600218,18.2068091 247.365839,17.8891105 247.13146,18.0267799 C247.046231,17.7620311 247.195382,17.5184621 247.206035,17.2643033 C247.216689,17.1266339 247.163421,16.9783745 247.003617,16.9889645 C246.939696,16.9889645 246.854467,17.105454 246.811852,17.1901736 C246.694663,17.3913827 247.024924,17.8255708 246.56682,17.8043909 C246.236558,17.783211 246.364401,17.3596128 246.247212,17.1372238 C246.18329,17.0207343 246.161983,16.872475 245.948911,16.861885 C245.725186,17.1478138 245.607996,17.6561315 245.043356,17.5184621 C244.872898,17.2960731 245.000741,16.9783745 244.787669,16.7665755 C244.67048,16.650086 244.55329,16.5018266 244.361525,16.5441864 C244.116493,16.5865463 244.169761,16.7665755 244.201721,16.9360147 C244.297604,17.4019726 243.903421,17.4019726 243.669042,17.6031818 C243.594466,17.4549224 243.551852,17.3913827 243.541199,17.3384329 C243.530545,17.2431233 243.519891,17.1372238 243.541199,17.0419142 C243.690349,16.4488769 243.690349,16.4912367 243.125708,16.5335965 C242.891329,16.5547764 242.401264,16.9254248 242.39061,16.2582577 C242.379957,15.9405591 242.262767,16.1523582 242.188192,16.2264878 C242.017734,16.3959271 241.847277,16.3429773 241.634205,16.2900276 C240.462309,16.0040988 240.441002,16.0252787 240.749956,17.1584037 C240.771264,17.2537133 240.781917,17.3490229 240.792571,17.4443325 C240.472963,17.6455416 240.22793,17.4866923 239.993551,17.2960731 C240.483617,16.3853371 240.366427,16.1311783 239.364989,15.8664294 C238.853616,15.73935 238.608584,15.3475217 238.779041,14.7968442 C238.86427,14.5215054 239.002767,14.3202963 238.640544,14.1084972 C238.352897,14.4897355 238.576623,15.0827729 238.118518,15.4322414 C237.905446,15.1674925 237.820218,14.9345136 237.873486,14.6379949 C237.980022,14.0767274 237.788257,13.5048699 237.926754,12.9330124 C237.990675,12.6470837 237.894793,12.4035148 237.521917,12.4352846 C237.415381,12.8377028 237.681721,13.3460206 237.38342,13.6425393 C236.96793,14.0661374 236.914662,14.4791456 237.053159,14.9980533 C237.106427,15.2098523 237.021198,15.4428313 236.989237,15.7817098 C236.627015,15.3687016 236.637668,14.9451035 236.318061,14.6485848 C236.073028,14.4261958 236.275446,13.8755183 235.891917,13.6001795 C235.63623,13.8861082 235.998453,14.1402671 235.849302,14.394426 C235.774727,14.5109154 235.700152,14.6379949 235.561655,14.6379949 C235.476427,14.6379949 235.33793,14.5638652 235.316623,14.4897355 C235.060936,13.6425393 234.368453,12.9647823 234.38976,12.0116865 C234.38976,11.8422473 234.357799,11.7575276 234.155381,11.7469377 C234.102113,11.7998874 234.00623,11.8528372 233.963616,11.9375568 C233.899694,12.0540463 233.867734,12.1811258 233.835773,12.3187951 C233.697276,13.0071421 233.686622,13.017732 233.0261,12.7847531 C233.079367,12.7106234 233.132635,12.6047239 233.207211,12.572954 C233.644008,12.4141047 233.516165,12.1069961 233.388322,11.8316573 C233.249825,11.5245487 232.994139,11.6939879 232.770413,11.7363477 C232.120544,11.8422473 232.195119,12.3717449 232.141851,12.8165229 C231.982047,12.795343 231.854204,12.795343 231.726361,12.7741631 C231.001916,12.6576736 230.916688,12.5411842 231.023224,11.7787075 C231.055184,11.5774984 231.001916,11.4186491 230.831459,11.3762893 C230.170936,11.1962601 229.691524,10.8362017 229.403877,10.2113945 C229.361263,10.1160849 229.244073,10.084315 229.137537,10.1372648 C229.031001,10.1902146 229.009694,10.2749342 229.041655,10.3914237 C229.073615,10.5079132 229.180151,10.6349926 228.99904,10.7514821 C228.636818,10.6455825 228.626164,10.1160849 228.221328,10.0737251 C228.061524,10.1796246 228.093485,10.306704 228.157406,10.4337835 C228.253289,10.6349926 228.189367,10.8256118 227.986949,10.7303022 C227.347733,10.4337835 227.305119,10.8256118 227.283811,11.2703898 C227.273158,11.5033688 227.347733,11.7998874 226.95355,11.7151678 C226.729824,11.662218 226.506099,11.6092683 226.665903,11.2386199 C226.761785,11.0268209 226.708517,10.6561725 226.463485,10.5290931 C226.197145,10.4020136 225.973419,10.6773524 225.760347,10.8256118 C225.632504,10.9103314 225.653811,11.1539003 225.355511,11.1539003 C224.950674,10.6667625 224.236883,10.3702438 224.204922,9.53363747 C223.906622,9.66071691 224.055772,10.0525452 223.72551,10.0525452 C223.523092,9.86192602 223.587014,9.55481738 223.320674,9.36419822 C223.01172,9.15239916 223.04368,9.02531972 223.416556,9.01472977 C223.778778,9.00413981 223.821393,8.7817508 223.800086,8.58054169 C223.778778,8.34756272 223.555053,8.37933258 223.405903,8.47464216 C223.192831,8.61231155 223.033027,8.31579286 222.787994,8.45346225 C222.766687,8.68644122 222.724072,8.95119005 222.713419,9.20534892 C222.713419,9.29006855 222.766687,9.36419822 222.798648,9.44891785 C222.532308,9.38537813 222.255314,9.42773794 222.031589,9.15239916 C221.807863,8.86647042 221.658713,8.69703117 222.106164,8.52759192 C222.148778,8.50641202 222.09551,8.37933258 222.010282,8.37933258 C221.477602,8.37933258 221.115379,7.93455455 220.604007,7.84983492 C219.836948,7.72275549 219.762373,7.72275549 219.357536,8.37933258 C219.069889,8.24166319 219.176425,7.78629521 218.824856,7.71216553 C218.728974,7.69098563 218.633092,7.69098563 218.537209,7.68039567 C218.537209,8.54877183 217.897994,8.11458375 217.589039,8.05104403 C216.800673,7.89219474 216.012307,7.71216553 215.202634,7.69098563 C214.92564,7.68039567 214.765836,7.606266 214.733876,7.28856741 C214.712568,7.12971811 214.552765,7.12971811 214.446229,7.2673875 C214.286425,7.46859661 214.147928,7.61685596 214.147928,7.19325783 C214.147928,7.04499849 214.115967,6.85437933 213.988124,6.87555924 C213.391523,6.96027886 213.476751,6.51550083 213.380869,6.18721228 C213.263679,5.78479406 212.933418,5.47768542 212.592503,5.60476486 C212.059823,5.79538402 211.793483,5.53063519 211.452568,5.27647631 C211.356686,5.20234664 211.196882,5.2129366 211.069039,5.18116674 C210.98381,5.30824617 211.015771,5.53063519 210.824006,5.5518151 C210.504398,5.58358495 210.216751,5.45650552 209.865182,5.67889453 C209.662764,5.80597397 209.247274,5.66830458 208.917012,5.85892374 C208.725248,5.96482327 208.352372,5.93305341 208.086032,5.68948449 C207.681195,5.32942608 207.07394,5.60476486 206.615836,5.32942608 C206.338842,5.83774383 206.115117,5.42473566 205.795509,5.37178589 C204.847339,5.22352655 203.888515,5.20234664 202.940345,4.93759781 C202.567469,4.83169828 202.013482,4.77874852 201.576685,4.8740581 C200.980084,4.99054758 201.171848,4.54576955 201.033352,4.25984081 C200.735051,4.42928006 200.394136,4.74697866 200.127796,4.48222983 C199.87211,4.22807095 199.712306,3.99509199 199.328776,4.16453124 C199.350083,4.3975102 199.701652,4.47163988 199.60577,4.77874852 C199.520541,4.78933847 199.403351,4.86346814 199.33943,4.82110833 C198.870672,4.52458964 198.455181,3.97391208 197.805312,4.50340974 C197.773351,4.52458964 197.666815,4.49281978 197.613547,4.45045997 C197.091521,4.11158147 196.49492,4.1963011 195.930279,4.1963011 C194.63054,4.20689105 193.330802,4.14335133 192.031063,4.07981161 C190.475638,4.00568194 188.90956,3.96332213 187.364788,3.80447283 C186.182239,3.67739339 185.010344,3.6985733 183.827794,3.67739339 C182.805049,3.65621349 181.760997,3.65621349 180.759559,3.46559433 C180.194918,3.3596948 179.640931,3.21143545 179.065637,3.2008455 C177.371715,3.14789574 175.66714,3.37028475 173.994526,2.94668663 C173.930604,2.92550672 173.845375,2.91491677 173.792107,2.94668663 C173.152891,3.3596948 172.55629,2.89373686 171.949035,2.87255695 C171.586813,2.861967 171.490931,2.63957799 171.60812,2.31128944 C171.672042,2.13126024 171.895767,2.0041808 171.778578,1.77120183 C171.086094,1.47468314 170.382957,1.3264238 169.605244,1.44291328 C169.189754,1.506453 168.731649,1.51704295 168.305505,1.31583385 C168.103087,1.22052427 167.804786,1.15698455 167.613022,1.24170417 C166.654198,1.6653023 165.674067,1.26288408 164.725897,1.28406399 C163.830995,1.31583385 162.968054,1.26288408 162.12642,1.62294249 C161.97727,1.3264238 161.838773,1.10403478 161.391322,1.13580464 C160.507073,1.19934436 159.612171,1.17816445 158.727923,1.11462474 C158.078054,1.07226492 157.279034,1.31583385 156.927465,0.415687829 C156.70374,0.775746236 156.661125,1.26288408 156.096485,0.849875907 C155.851452,0.669846704 155.467923,0.691026611 155.361387,0.288608392 C155.329426,0.161528954 155.190929,0.203888767 155.1057,0.278018439 C155.07374,0.309788298 155.063086,0.405097876 155.07374,0.458047642 C155.1057,0.627486892 155.446615,0.72279647 155.169622,0.987545298 C154.892628,0.966365392 154.594328,0.945185486 154.285373,0.913415626 C153.582236,0.849875907 152.815177,1.11462474 152.186615,0.55335722 C152.101386,0.479227548 151.952236,0.510997407 151.813739,0.585127079 C151.227791,0.89223572 151.195831,0.902825673 150.822955,0.394507923 C150.599229,0.0873992824 150.439425,0.0662193761 150.226353,0.38391797 C150.141125,0.521587361 149.917399,0.341558157 149.821517,0.479227548 C149.864131,0.733386423 150.2157,0.510997407 150.226353,0.754566329 C149.714981,1.13580464 149.182301,1.17816445 148.607007,0.976955345 C148.457857,0.924005579 148.276745,0.966365392 148.106288,0.945185486 C147.392497,0.881645767 146.518902,1.31583385 146.082105,0.330968204 C146.071451,0.299198345 145.954262,0.299198345 145.900994,0.309788298 C145.144588,0.479227548 144.40949,0.246248579 143.535895,0.193298814 C143.706353,0.309788298 143.748967,0.362738064 143.802235,0.373328017 C144.036614,0.394507923 144.228379,0.500407454 144.207072,0.733386423 C144.185765,0.976955345 143.951386,1.05108502 143.738314,0.987545298 C143.397399,0.89223572 142.992562,1.14639459 142.715568,0.72279647 C142.598379,0.542767267 142.438575,0.616896939 142.395961,0.849875907 C142.364,1.05108502 142.225503,1.08285488 142.023085,1.09344483 C140.861843,1.15698455 139.721908,0.775746236 138.550013,0.934595532 C138.443477,0.945185486 138.251712,0.849875907 138.209097,0.754566329 C138.081254,0.500407454 137.974718,0.415687829 137.676418,0.542767267 C137.473999,0.627486892 137.228967,0.55335722 136.994588,0.447457689 C136.376679,0.18270886 136.355372,0.193298814 136.216875,0.807516095 C136.174261,1.0087252 136.195568,1.26288408 135.950535,1.29465394 C135.694849,1.3264238 135.673542,1.06167497 135.620274,0.871055814 C135.598967,0.807516095 135.598967,0.733386423 135.588313,0.669846704 C135.385895,0.0132696105 134.863868,-0.230299311 134.437725,0.256838532 C134.043542,0.712206517 133.681319,0.563947173 133.255175,0.489817501 C132.711842,0.38391797 132.179162,0.119169142 131.582561,0.256838532 C131.753018,1.01931516 131.710404,1.09344483 131.145763,0.976955345 C130.815502,0.913415626 130.485241,0.828696001 130.18694,0.648666798 C130.016482,0.542767267 129.760796,0.415687829 129.611646,0.55335722 C129.153541,0.955775439 128.780665,0.754566329 128.333214,0.299198345 C128.407789,0.743976376 128.450404,0.998135251 128.493018,1.25229413 C128.524979,1.47468314 128.461057,1.70766211 128.226678,1.71825206 C127.949685,1.73943197 127.981646,1.47468314 127.949685,1.28406399 C127.843149,0.627486892 127.60877,0.436867736 126.969554,0.500407454 C126.468835,0.55335722 125.968116,0.648666798 125.44609,0.595717032 C125.137136,0.563947173 124.817528,0.595717032 124.583149,0.818106048 C124.284848,1.09344483 123.986547,0.998135251 123.645632,0.934595532 C122.963802,0.818106048 122.250011,0.627486892 121.578835,1.04049506 C121.461645,1.11462474 121.216612,1.06167497 121.280534,1.33701375 C121.472299,2.11008033 120.683932,1.3264238 120.566743,1.77120183 C120.513475,1.96182099 120.406939,1.63353244 120.32171,1.52763291 C120.129946,1.27347403 119.959488,0.796926142 119.575959,1.15698455 C119.000664,1.69707216 118.446677,1.64412239 117.839422,1.30524389 C117.637004,1.18875441 117.455893,1.27347403 117.253475,1.31583385 C116.571645,1.44291328 115.879161,1.37937356 115.229291,1.81356164 C114.973605,1.98300089 114.345043,1.78179178 113.972167,1.62294249 C113.567331,1.45350324 113.098572,2.18421 112.810925,1.49586305 C112.778964,1.43232333 112.672428,1.42173338 112.651121,1.49586305 C112.352821,2.43836888 111.596415,2.01477075 111.042428,1.97241094 C110.477788,1.91946117 109.987722,1.8241516 109.668114,2.43836888 C109.604193,2.56544831 109.369814,2.71370766 109.156742,2.5019086 C108.570794,1.88769131 108.464258,1.87710136 108.016807,2.5019086 C107.87831,2.7031177 107.697199,2.73488756 107.505435,2.73488756 C106.972755,2.73488756 106.461382,2.55485836 105.918049,2.7031177 C105.396023,2.8407871 104.905957,2.49131864 104.320009,2.57603827 C103.904519,2.62898803 103.435761,2.35364925 103.020271,2.74547752 C102.903081,2.85137705 102.711316,2.85137705 102.562166,2.69252775 C102.231905,2.33246935 101.912297,2.35364925 101.582035,2.7031177 C101.443539,2.8407871 101.187852,2.96786653 101.123931,2.66075789 C101.070663,2.37482916 101.134584,2.38541911 100.814976,2.5019086 C100.218375,2.72429761 99.5152378,2.71370766 98.9186364,2.53367845 C98.4072638,2.37482916 98.0770023,2.3642392 97.8106624,2.81960719 C97.6508585,3.10553592 97.533669,3.07376606 97.4164794,2.79842728 C97.373865,2.69252775 97.3951722,2.5019086 97.2034075,2.55485836 C97.0649107,2.59721817 97.03295,2.71370766 97.0649107,2.87255695 C97.1181787,3.19025555 96.9370676,3.24320531 96.7239957,3.06317611 C96.0528191,2.5019086 96.0208584,2.53367845 95.3390282,2.94668663 C94.9341916,3.19025555 94.4547798,3.48677424 93.9860216,2.99963639 C93.868832,2.87255695 93.6664137,2.79842728 93.5172634,2.89373686 C93.1017731,3.14789574 92.6436685,2.92550672 92.2281783,3.0208163 C91.6209233,3.14789574 90.9071324,2.90432681 90.4277206,3.49736419 C90.310531,3.63503358 90.1294199,3.59267377 89.9909232,3.43382447 C89.8950408,3.31733499 89.7458905,3.26438522 89.6393545,3.3808747 C89.2558251,3.80447283 88.6911845,3.3596948 88.307655,3.66680344 C87.96674,3.94214222 87.4766746,3.5185441 87.1144523,4.0374518 C86.912034,4.32338053 86.2941255,3.91037236 85.8253672,4.02686185 C85.516413,4.10099152 85.1648443,4.07981161 84.8345828,4.17512119 C84.1634063,4.36574035 83.5348442,4.76815856 82.7784389,4.50340974 C82.6399421,4.45045997 82.4481774,4.56694945 82.2883735,4.59871931 C81.0845171,4.79992842 79.8913144,5.04349735 78.6874581,5.18116674 C77.1746475,5.35060599 75.6618369,5.52004524 74.1490263,5.76361416 C72.444451,6.03895294 70.7398757,6.31429172 69.0139932,6.45196111 C67.1283067,6.60022046 65.2426203,6.76965971 63.3675874,6.97086881 C60.4591558,7.28856741 57.5400706,7.34151717 54.6422925,7.70157558 C53.0335996,7.89219474 51.414253,8.01927417 49.7842529,8.13576366 C49.1024227,8.17812347 48.3673246,8.12517371 47.7068017,8.36874263 C47.0995467,8.59113164 46.4390238,8.43228235 45.8424224,8.80293071 C45.4162786,9.06767953 44.7983701,8.99354986 44.2656903,9.11003935 C43.008566,9.37478817 41.7194809,9.51245756 40.4623566,9.75602649 C38.2677159,10.1796246 35.9771928,10.0631351 33.8677808,10.9315113 C33.548173,11.0585907 33.1752971,11.1539003 32.7704605,11.0691807 C32.4828134,11.0162309 32.1738591,11.1327204 31.8649048,11.1644903 C31.6624865,11.1856702 31.5133362,11.2809797 31.6518329,11.4821888 C31.8755584,11.7998874 31.6944473,11.9905066 31.4600682,12.128176 C31.2363427,12.2552554 30.9806564,12.3929248 30.7356237,12.4035148 C30.5758198,12.4141047 30.4053622,12.1493559 30.1922903,12.2023057 C29.8513752,12.2870253 30.3307871,12.5411842 30.1177151,12.6576736 C29.8939896,12.7847531 29.6489569,12.7000335 29.4145778,12.6894435 C29.0310484,12.6788535 28.8605908,12.8800627 28.8286301,13.2401211 C28.7966693,13.5895895 28.9032052,13.8013886 29.2867347,13.8966982 C29.4571922,13.939058 29.6915713,13.8119785 29.8620288,14.150857 C29.1801987,14.0131876 28.6155581,14.383836 27.9763424,14.2991164 C27.7206561,14.2673465 27.4223554,14.4367858 27.1453619,14.5426853 C26.5487606,14.7650743 26.1652311,15.4746012 25.3981722,15.294572 C25.0998716,15.2204423 25.0785644,15.2733921 25.0572572,15.74994 C25.0572572,15.8664294 25.0039892,15.961739 24.8974532,15.961739 C24.4180414,16.0040988 23.8640544,15.9087893 23.7468649,16.6077262 C23.7362113,16.650086 23.5018322,16.6712659 23.373989,16.6818558 C23.1289563,16.7030357 22.9904596,16.7771654 23.0756884,17.0630941 C23.1396099,17.2748932 23.0011132,17.3596128 22.8093485,17.4019726 C22.3938582,17.5078722 22.1381719,17.9208803 21.6374529,17.8997004 C21.7439889,18.0797296 21.7759497,18.1962191 21.8505249,18.2385789 C21.9570608,18.3127086 22.0955576,18.3656584 22.2234007,18.3868383 C23.5657538,18.5986373 24.8974532,18.7786666 26.2717671,18.6939469 C26.7192181,18.6621771 27.2945123,18.4821479 27.6354273,18.8104364 C27.9124208,19.0751852 28.0083032,19.0857752 28.2746431,18.8845661 C28.5516366,18.672767 28.9245124,18.6939469 29.2547739,18.6621771 C30.5332054,18.5245077 31.8116369,18.4397881 33.1007219,18.3444785 C33.1433363,18.3444785 33.1966043,18.4186081 33.3137939,18.5033278 C33.1433363,18.7892565 33.0048396,19.0010556 32.5573886,18.9692857 C30.7462773,18.8316163 30.7462773,18.8527962 29.1056235,19.7953021 C30.04314,19.8482518 30.9806564,19.9859212 31.9181728,19.6999925 C32.1632055,19.6258628 32.5360814,19.4881934 32.6106565,19.9647413 C32.4082382,20.0494609 32.386931,20.4201093 32.0779768,20.3036198 C30.8208525,19.8482518 29.6489569,20.5365988 28.4451006,20.6424983 C27.3690874,20.7378079 26.3037279,20.7483978 25.2490219,20.6636782 C24.3115055,20.5895485 23.373989,20.3671595 22.425819,20.4412892 C21.9996752,20.4730591 21.371113,20.2400801 21.2432699,20.7272179 C21.083466,21.3414352 21.7759497,21.3520252 22.1807863,21.5426443 C22.4684334,21.6803137 22.979806,21.9132927 22.8839236,22.1356817 C22.6921589,22.5698698 22.926538,22.6863593 23.1715707,22.6969492 C23.6829433,22.7287191 23.9066688,23.1417272 23.8320937,23.427656 C23.6403289,24.1795426 23.981244,24.8784796 23.8640544,25.5985964 C23.8214401,25.8527552 23.6616361,26.0963242 23.533793,26.3293031 C23.4485642,26.4987424 23.2461459,26.583462 23.0969956,26.4881524 C22.8306557,26.3187132 23.0650348,26.1492739 23.1609171,26.0010146 C23.2141851,25.9268849 23.3313747,25.8951151 23.2887603,25.7786256 C22.7347733,25.7468557 22.7347733,25.7468557 22.3618974,25.9480648 C22.2873223,25.9904246 22.2447079,26.1069141 22.1275183,26.0539643 C21.7759497,25.9268849 21.3391523,25.0585088 21.5415706,24.6772704 C21.8398713,24.094823 21.6054922,23.5759153 21.477649,23.0464177 C21.3817666,22.6228195 20.8490869,22.7710789 20.6253613,22.4322004 C20.5401326,22.8557985 20.1779103,23.1523172 20.4122894,23.6076852 C20.582747,23.9359737 20.3909822,24.1689527 20.082028,24.3383919 C19.4001978,24.7090403 19.4001978,24.7196303 19.6345769,25.4185672 C19.3362763,25.460927 18.8888252,25.2067681 18.867518,25.8209854 C18.8568645,26.0433744 18.6970605,26.350483 18.4626814,26.350483 C17.8234657,26.350483 17.7382369,26.6999515 17.9513088,27.3247587 C17.3014395,27.0070601 16.8007205,26.7740812 16.1295439,26.4457926 C16.9818316,26.350483 17.3866682,25.7362658 17.4079754,25.2808978 C17.4292826,24.7302202 17.6636617,24.550191 18.0045768,24.6455006 C18.4626814,24.7619901 18.4946422,24.5290111 18.4520278,24.2642623 C18.4094134,24.0206933 18.5479102,23.7453546 18.3561455,23.5123756 C18.2815703,23.5547354 18.1856879,23.5865053 18.1856879,23.6288651 C18.1643807,23.8194842 18.2709167,24.0842331 17.9513088,24.0842331 C17.7488905,24.0842331 17.5358186,23.9571536 17.4932042,23.7453546 C17.4505898,23.4911957 17.7275833,23.4064761 17.8767336,23.3429363 C18.3241847,23.1734971 18.6970605,22.9828779 18.7077141,22.4322004 C18.3348383,22.4004305 18.3987598,22.8346186 18.1217663,22.8452086 C18.025884,22.6863593 18.1643807,22.5380999 18.1643807,22.3898406 C18.1643807,22.2415812 18.2815703,22.1780415 18.420067,22.1250917 C18.8035965,21.9662424 18.7609821,21.6591338 18.4839886,21.5214644 C17.8447729,21.2037658 18.5372566,20.928427 18.4946422,20.6742682 C18.2389559,20.4730591 17.9619624,20.4624691 17.6849689,20.4518791 C17.1949035,20.4306992 17.1096748,20.5789586 17.3440539,21.0449165 C17.6317009,21.6273639 17.6317009,21.6273639 16.9392172,22.0509621 C16.8326813,21.839163 16.6196093,21.6273639 16.6515701,21.4367448 C16.7367989,20.7378079 16.3213087,20.7801677 15.916472,20.9601969 C15.5968642,21.0978663 15.415753,21.0766864 15.2346419,20.8013476 C15.0854916,20.5789586 14.8830732,20.5789586 14.7445765,20.7907576 C14.6167333,20.9813768 14.6806549,21.171996 14.915034,21.2884854 C15.1281059,21.4049749 15.5009818,21.3308453 15.4903282,21.8179831 C14.8191517,21.7332635 14.1266679,21.5955941 13.5300666,22.061552 C13.7431385,22.1886315 14.020132,22.2521712 13.913596,22.5698698 C13.8070601,22.8981583 13.8390209,23.2370368 13.8283673,23.5653254 C13.8070601,24.6243207 13.8070601,24.6243207 14.8830732,24.8467097 C14.915034,24.8572996 14.9256876,24.9526092 14.9469948,25.0161489 C14.7978445,25.3126676 14.4995438,25.005559 14.3184327,25.1855882 C14.1905895,25.3126676 13.8603281,25.238538 13.9349032,25.5456466 C13.9881712,25.7680356 14.1053608,25.9904246 14.1799359,26.2022237 C14.1905895,26.2339936 14.1905895,26.2657634 14.1799359,26.3081232 C14.1586287,26.4563826 14.0947072,26.5622821 13.9349032,26.583462 C13.7644457,26.6152319 13.6366025,26.5093323 13.6579097,26.3716629 C13.7537921,25.8527552 13.3596091,25.4926968 13.2743803,25.0690987 C13.1571907,24.4972412 12.6671253,23.8618441 13.2317659,23.2476268 C13.3383019,23.1417272 13.3809162,23.0146478 13.2424195,22.8981583 C13.1358835,22.8134387 12.9867332,22.749899 12.8801972,22.8769784 C12.5073214,23.2899866 12.0598704,23.2370368 11.569805,23.1629071 C11.0051644,23.0781875 10.461831,23.0358277 9.87588325,23.1629071 C9.07686357,23.3323464 8.25653669,23.3641163 7.40424904,23.4594258 C7.65993533,23.9465637 8.03281118,23.5865053 8.26719029,23.7241747 C8.71464131,23.9783335 8.08607916,24.3489819 8.32045827,24.6137307 C8.76790929,25.1008686 8.40568703,25.3762073 8.05411838,25.6091863 C7.81973927,25.7574457 7.57470657,25.8633452 7.57470657,26.1916337 C7.57470657,26.3716629 7.42555623,26.3822529 7.28705948,26.3716629 C6.83960846,26.350483 6.61588295,26.5305122 6.55196138,26.9964702 C6.47738621,27.5047879 5.96601361,27.5047879 5.59313776,27.5895076 C5.28418348,27.6636372 5.19895472,27.4306583 5.15634034,27.1764994 C5.11372595,26.9435204 4.94326842,26.8376209 4.70888931,26.8905706 C4.36797425,26.9647003 4.35732066,27.2294491 4.31470627,27.5153779 C4.27209189,27.8330765 4.4958174,27.7907167 4.66627493,27.8754363 C5.06045797,28.0554655 5.47594821,27.938976 5.87013125,27.9919258 C6.08320316,28.0236956 6.33888946,27.9283861 6.55196138,28.2884445 C5.97666721,28.2884445 5.4972554,28.2990344 5.01784359,28.2884445 C4.87934685,28.2884445 4.7408501,28.2672646 4.67692853,28.4155239 C4.59169976,28.616733 4.71954291,28.7332225 4.87934685,28.8179421 C5.02849719,28.8920718 5.18830112,28.9450216 5.33745146,29.0297412 C5.62509855,29.1674106 5.7422881,29.29449 5.47594821,29.6333685 C5.22026191,29.9616571 5.42268023,30.2475858 5.81686327,30.3852552 C6.30692868,30.5652844 6.86091565,30.7135437 7.29771308,30.5758743 C7.77712489,30.417025 8.16065433,30.650004 8.57614457,30.5970542 C9.01294199,30.5441045 9.10882435,30.8088533 9.16209233,31.1159619 C9.21536031,31.4442505 9.0022884,31.6136897 8.71464131,31.6878194 C8.42699423,31.7619491 8.07542557,31.8996185 8.09673276,31.3595309 C8.10738635,31.2006816 7.96888961,31.1265519 7.81973927,31.1265519 C7.65993533,31.1265519 7.58536016,31.2324514 7.57470657,31.3807108 C7.56405297,31.5395601 7.56405297,31.6878194 7.56405297,31.8466687 C6.7543797,31.4654304 5.92339923,31.3913007 5.06045797,31.56074 C5.03915078,32.0796477 5.23091551,32.2914467 5.7529417,32.3655764 C6.53065419,32.4714759 6.94614442,33.2445425 6.61588295,33.8269899 C6.57326857,33.9011196 6.47738621,33.9858392 6.39215744,33.9964292 C6.29627508,34.0176091 6.18973912,33.9328895 6.16843193,33.8269899 C6.00862799,32.9586138 5.01784359,32.9903836 4.61300695,32.3126266 C4.73019651,32.8209444 4.11228795,33.0433334 4.27209189,33.4669315 C4.46385661,33.9752493 4.13359515,34.3564876 4.05901998,34.7906757 C3.72875851,34.7483159 3.64352974,34.3776675 3.35588266,34.3882575 C3.05758198,34.7059561 3.08954276,35.1507341 2.85516366,35.5213824 C2.56751657,35.9979303 2.20529432,36.0191102 1.82176487,36.1673696 C1.7365361,36.3262189 2.08810476,36.7921768 1.51281059,36.6015577 C1.2464707,36.516838 1.05470598,36.6545074 1.12928115,36.8768964 C1.26777789,37.3216745 0.980130808,37.3428544 0.703137319,37.4805238 C0.479411808,37.5970133 0.170457532,37.5864233 0,37.8405822 C0.138496745,38.115921 0.330261468,38.2641803 0.639215744,38.1794607 C1.07601317,38.0735611 1.42758183,37.8617621 1.66196093,37.4487539 C2.19464072,36.4956581 2.98300681,36.08265 4.09098076,36.4427084 C4.15490234,36.4638883 4.21882391,36.4744782 4.27209189,36.4850682 C4.27209189,36.4850682 4.27209189,36.4850682 4.27209189,36.4956581 C4.005752,36.5380179 3.95248402,36.9298462 3.60091536,36.8768964 C3.41980423,36.8451266 3.34522906,36.982796 3.35588266,37.205185 C3.41980423,37.9358918 3.35588266,37.9888415 2.65274534,37.7982224 C2.38640544,37.7240927 2.14137274,37.5864233 1.94960802,37.9041219 C1.98156881,37.9676616 2.01352959,38.0312013 2.04549038,38.0735611 C2.19464072,38.2853602 2.66339893,38.0629712 2.64209174,38.4759794 C2.63143815,38.7513181 2.40771264,38.9525273 2.2479087,39.1643263 C2.01352959,39.4820249 1.85372566,39.238456 1.66196093,39.1219665 C1.44888902,38.9948871 1.23581711,39.0690167 1.13993474,39.2596359 C1.02274519,39.5137948 1.28908508,39.5985144 1.44888902,39.6726441 C1.96026162,39.916213 2.48228781,39.8526733 3.02562119,39.7361838 C3.26000029,39.683234 3.55830098,39.8950331 3.505033,39.3761254 C3.47307221,39.0690167 3.83529446,39.1219665 4.05901998,39.1749163 C4.21882391,39.2066861 4.43189583,39.3549455 4.30405268,39.5137948 C3.96313761,39.9585728 4.36797425,40.3821709 4.27209189,40.8057691 C4.97522921,40.6998695 5.63575214,40.9540284 6.33888946,41.0281581 C6.17908553,41.3882165 5.71032731,41.2505471 5.64640574,41.5894256 C5.82751687,41.938894 6.21104631,42.0024338 6.41346463,42.2777725 C6.54130778,42.4578017 6.79699408,42.616651 6.65849733,42.8813999 C6.54130778,43.0931989 6.30692868,43.0402492 6.11516395,42.9978894 C5.94470642,42.9555295 5.71032731,42.9237597 5.63575214,43.0402492 C5.22026191,43.7391861 5.07111157,43.2626382 4.89000044,42.9131697 C4.68758212,42.9661195 4.54908538,43.2520482 4.26143829,43.0614291 C3.86725525,42.7966802 3.71810491,42.9661195 3.70745132,43.3897176 C3.69679772,43.760366 3.64352974,44.1204244 3.26000029,44.3322234 C3.14281074,44.3957632 3.19607872,44.3957632 3.31326827,44.5016627 C3.62222255,44.7558216 3.82464087,44.5334326 4.02705919,44.3745833 C4.32535987,44.1416043 4.68758212,43.972165 4.86869325,44.1310143 C5.14568674,44.3639933 5.46529461,44.3745833 5.78490248,44.427533 C5.9979744,44.4698928 6.32823587,44.5228426 6.16843193,44.8617211 C6.07254957,45.0629302 5.92339923,45.1900096 5.60379136,45.0099804 C5.20960831,44.7875914 4.11228795,45.327679 4.08032717,45.7195073 C3.9950984,46.5137538 4.09098076,47.3185902 3.87790885,48.1657865 C4.35732066,48.0598869 4.13359515,47.5303893 4.52777819,47.4880295 C4.76215729,47.593929 4.58104617,48.0281171 4.96457561,48.049297 C4.9858828,47.9222176 4.96457561,47.7527783 5.03915078,47.6786486 C5.43333382,47.2868204 5.88078485,47.7845482 6.44542542,47.6574687 C6.02993519,47.3291802 6.16843193,46.9585318 6.2536607,46.5349337 C5.68902012,46.9373519 5.13503314,46.5561136 4.62366055,46.7573227 C4.45320302,46.8208624 4.21882391,46.5243437 4.43189583,46.249005 C4.51712459,46.1431054 4.61300695,46.0583858 4.70888931,45.9630762 C5.18830112,45.4865283 5.18830112,45.4865283 5.62509855,46.0795657 C5.7422881,46.249005 5.81686327,46.2172351 5.91274563,46.0901557 C6.27496789,45.6453776 6.55196138,45.7089174 6.81830127,46.1960552 C6.89287644,46.3337246 7.08464116,46.5031638 7.35098106,46.4819839 C7.4894778,46.1113356 7.67058893,45.7406872 7.7558177,45.3488589 C7.80908567,45.10529 7.92627523,45.0629302 8.08607916,45.1370599 C8.54418378,45.338269 9.05555637,45.2217795 9.51366099,45.571248 C9.89719044,45.8677666 10.4831382,45.7406872 11.1756219,45.5924279 C10.4724846,45.2429594 9.89719044,45.1582398 9.34320346,45.11588 C9.0022884,45.0841101 8.71464131,44.9888005 8.42699423,44.8511311 C8.19261512,43.7285961 8.30980467,43.5909267 9.4923538,43.5697468 C9.52431459,43.5697468 9.55627537,43.5591569 9.58823616,43.5485669 C9.7373865,43.5167971 9.86522965,43.537977 9.89719044,43.7074162 C9.92915123,43.8874454 9.84392246,44.0251148 9.69477212,44.1416043 C9.43908582,44.3428134 9.13013154,43.9403952 8.76790929,44.2580938 C9.55627537,44.8087713 10.4831382,44.7346417 11.2288899,45.11588 C11.6443801,44.8299512 11.9959488,45.0629302 12.3688246,45.2323695 C12.2196743,45.3488589 12.0598704,45.4335786 11.9533344,45.560658 C11.6230729,45.9524863 11.6869945,46.2066451 12.1877135,46.1960552 C12.6138574,46.1854652 12.5286286,46.3760844 12.6245109,46.6196533 C12.7417005,46.9373519 13.2530731,46.6514232 13.4874522,47.0114816 C13.5620274,47.1173811 13.7005241,46.7467328 13.7857529,46.5878835 C13.8816352,46.4078543 14.0414392,46.3866744 14.2118967,46.4184442 C14.5101974,46.471394 14.8191517,46.5031638 15.1174523,46.5772935 C15.4903282,46.6726031 15.8099361,46.7679127 16.0549688,47.1915108 C16.4278446,47.8480879 17.0883676,48.1551965 17.8873872,48.2081463 C18.1430735,48.2187362 18.3135311,47.7739582 18.579871,48.1128367 C18.6224853,48.4305353 18.3241847,48.494075 18.1856879,48.6741042 C18.0365376,48.8859033 17.8873872,49.0977024 18.0578448,49.3095014 C18.3881062,49.7119196 18.1430735,50.1143379 18.0152304,50.4426264 C17.8767336,50.8132748 17.9406552,50.982714 18.2709167,51.1415633 C18.420067,51.215693 18.5585638,51.3321825 18.7077141,51.3957222 C19.0912436,51.5651614 19.1764723,51.8405002 19.0592828,52.2217385 C18.9314396,52.6771065 18.8355573,53.1430644 18.7077141,53.5984324 C18.6544461,53.8102315 18.4413742,54.0432105 18.2815703,53.9373109 C17.4932042,53.3972233 17.3014395,54.3397291 16.5983022,54.4032689 C17.6317009,54.816277 17.6317009,54.816277 18.2283023,54.5091684 C18.3135311,54.4668086 18.4307206,54.3503191 18.473335,54.371499 C18.9847076,54.6786076 19.4428122,55.1022058 20.1139887,55.0068962 C20.1779103,55.7481929 21.0195444,55.737603 21.2965379,56.2671006 C21.5415706,56.1188413 21.7333353,55.9917618 21.9464072,55.8858623 C22.0742504,55.8223226 22.2553615,55.8329125 22.3192831,55.949402 C22.479087,56.2565107 22.5536622,56.5953892 22.3832046,56.9236777 C22.2553615,57.1672466 22.031636,57.4319955 21.7439889,57.2731462 C21.3391523,57.0613471 21.0408516,57.2307864 20.8810476,57.4955352 C20.7318973,57.7391041 21.0195444,57.9614931 21.1473875,58.1309324 C21.4989562,58.1097525 21.4883026,57.5484849 21.8398713,57.770874 C22.1062112,57.9403132 22.1168647,58.2368319 22.0529432,58.5863004 C21.9464072,59.0734382 21.8505249,59.5393961 21.3924202,59.8782746 C21.871832,59.8147349 22.3192831,59.9524043 22.8200021,59.6135258 C22.6708517,60.248923 22.4151654,60.5772115 21.9996752,60.8631403 C21.6054922,61.1278891 21.6800673,61.4138178 22.1488255,61.4773576 C22.6708517,61.5514872 22.8519629,61.9856753 22.7347733,62.2398342 C22.3299367,63.0870304 22.9158844,63.18234 23.4485642,63.3517793 C23.6616361,63.415319 23.8214401,63.5529884 23.9066688,63.7224276 C24.0771264,64.0507162 24.3434663,64.0507162 24.588499,63.9130468 C25.0998716,63.627118 25.6432049,63.6694779 26.1758847,63.7224276 C27.1879763,63.8177372 28.1254927,63.637708 29.0310484,63.2141099 C30.2668655,62.6316624 31.5026826,62.0703949 32.88765,61.8480059 C33.2924867,61.7844662 33.6973233,61.6891566 34.1128135,61.6467968 C34.549611,61.604437 34.9651012,61.3185083 35.444513,61.1172991 C35.3166699,61.6467968 34.7307221,61.7950561 34.6881077,62.3033739 C35.3699378,62.4622232 35.8280425,62.1551146 36.3181079,61.8162361 C37.3195459,61.1172991 38.1824871,60.1536134 39.5248402,60.0583038 C39.8657552,60.0371239 40.1001343,59.4970363 40.5262782,59.8676847 C40.6115069,59.9418144 40.7073893,59.8570947 40.7393501,59.7406052 C40.8885004,59.1793377 41.2400691,58.9993085 41.8047097,59.1369779 C41.900592,59.1581578 42.0817032,59.0734382 42.1562783,58.9781286 C42.7954941,58.0779826 43.8182393,57.9614931 44.7770629,57.7179242 C45.1712459,57.6226146 45.5441218,57.5061251 45.9169976,57.315506 C46.5775206,56.9872174 47.2806579,56.7436485 47.9731416,56.4471298 C49.6883705,55.7164231 51.5527498,55.4834441 53.3105931,54.8904067 C55.1217043,54.2867794 57.0073908,53.916131 58.87177,53.460763 C61.6843193,52.7724161 64.4968686,52.0628892 67.330725,51.438082 C68.6730781,51.1415633 69.9834704,50.6861953 71.3471306,50.4743963 C72.1354967,50.3579068 72.9345164,50.2731871 73.7122289,50.0507981 C75.6192225,49.5107105 77.6007913,49.3412713 79.5290922,48.8647234 C81.2230139,48.4411253 82.9488964,48.1234267 84.6854325,47.8374979 C85.80406,47.6574687 86.912034,47.37154 88.0519687,47.2338706 C88.8296812,47.138561 89.5434722,47.4138998 90.3318382,47.2868204 C91.5356946,47.0856113 92.7715117,47.0750213 93.9966752,47.0856113 C94.6678517,47.0962012 95.3390282,47.138561 95.9995512,47.0432514 C96.1700087,47.0220715 96.2765447,47.0008916 96.4470022,47.0750213 C97.0862179,47.3185902 97.5869369,47.138561 97.98112,46.5772935 C98.1941919,46.7467328 97.9598128,47.2762304 98.4498782,47.1915108 C98.822754,47.1279711 98.9399436,46.8102725 98.8653684,46.4925739 C98.7907933,46.1748753 99.0890939,45.8677666 98.8973292,45.5077082 C98.4605318,46.1007456 98.1089631,46.2278251 97.533669,46.0372059 C97.3632114,45.9842561 97.3312506,45.8677666 97.3632114,45.7300973 C97.3951722,45.5924279 97.4377866,45.4653484 97.6188977,45.5924279 C97.9171984,45.8042269 98.0237344,45.6453776 98.1089631,45.3700389 C98.1835383,45.1476498 98.3859566,45.0311604 98.5883749,45.1264699 C98.9719044,45.3064991 99.3341266,45.10529 99.6643881,45.0311604 C100.015957,44.9570307 100.356872,44.8299512 100.729748,44.8193613 C100.94282,44.8087713 101.230467,45.2641393 101.368963,44.7240517 C101.816414,45.0947001 102.338441,44.5440225 102.796545,44.8193613 C102.977656,44.9252608 103.190728,45.0205704 103.350532,44.8193613 C103.584911,44.5228426 103.883212,44.6922819 104.160206,44.649922 C105.332101,44.4593029 106.493343,44.9358508 107.654585,44.6287421 C107.825042,44.5863823 107.910271,44.8299512 107.963539,44.9782106 C108.038114,45.2005996 107.867657,45.2535494 107.697199,45.3064991 C107.366938,45.4123987 107.036676,45.4653484 106.706415,45.3170891 C105.822166,44.9146709 104.916611,45.2959092 104.021709,45.2217795 C103.925826,45.2111896 103.797983,45.2429594 103.81929,45.3912188 C103.829944,45.5394781 103.915173,45.6453776 104.08563,45.6241977 C104.181513,45.6136078 104.277395,45.571248 104.373277,45.5288881 C104.820728,45.3170891 104.991186,45.5182982 105.044454,45.9418963 C105.076415,46.1748753 105.119029,46.4078543 105.161644,46.6302433 C105.214911,46.8420423 105.342755,46.9797117 105.577134,47.0220715 C106.216349,47.1173811 106.887526,47.0432514 107.494781,47.3503601 C107.526742,47.37154 107.654585,47.2550505 107.707853,47.1809208 C107.793082,47.0432514 107.750467,46.916172 107.590663,46.8738122 C107.398899,46.8208624 107.19648,46.7467328 106.994062,46.7679127 C106.621186,46.7890926 106.258964,46.8949921 105.896742,46.926762 C105.68367,46.9479419 105.56648,46.7996825 105.470598,46.5878835 C105.236219,46.0583858 105.854127,46.0372059 105.939356,45.7195073 C105.98197,45.5818379 106.067199,45.4759384 106.237657,45.5818379 C106.269617,45.6030178 106.301578,45.6241977 106.312232,45.6559676 C106.386807,46.0689758 106.706415,45.9207164 106.940794,45.9207164 C108.080729,45.9207164 109.21001,45.9207164 110.349945,45.9207164 C109.817265,45.6453776 109.263278,45.5288881 108.709291,45.4441685 C108.485565,45.4123987 108.304454,45.3488589 108.272493,45.10529 C108.251186,44.9040809 108.379029,44.7770015 108.570794,44.7664115 C108.975631,44.7452316 109.124781,44.2686837 109.518964,44.2475038 C109.753343,45.0523403 109.753343,44.882901 110.605631,44.9040809 C111.234193,44.9146709 111.553801,44.438123 112.182363,44.3534034 C111.990598,44.882901 112.224977,45.3064991 112.086481,45.8783566 C112.299553,45.6983274 112.416742,45.6453776 112.438049,45.571248 C112.501971,45.3064991 112.448703,44.9146709 112.864193,45.4018087 C113.00269,45.571248 113.11988,45.2959092 113.173147,45.1582398 C113.237069,44.9993905 113.15184,44.9040809 112.992036,44.882901 C112.789618,44.8511311 112.416742,45.0311604 112.501971,44.6181522 C112.565893,44.3004536 112.917461,44.5652024 113.11988,44.4804828 C113.428834,44.3428134 113.620599,44.6287421 113.876285,44.6711019 C114.259814,44.7346417 114.153278,44.8511311 113.929553,45.0205704 C113.854978,45.0735202 113.897592,45.2111896 113.982821,45.2853192 C114.06805,45.3594489 114.163932,45.327679 114.259814,45.2853192 C114.48354,45.1794197 114.472886,44.9570307 114.536808,44.7664115 C114.590076,44.6075622 114.707265,44.5652024 114.856416,44.6287421 C114.952298,44.660512 115.058834,44.7240517 115.037527,44.8405412 C114.973605,45.0947001 114.78184,45.3700389 115.04818,45.5818379 C115.303867,45.783047 115.538246,45.4018087 115.804586,45.4759384 C115.921775,45.5077082 116.049618,45.5394781 116.177461,45.571248 L116.177461,45.571248 C116.731448,45.6665575 117.285435,45.8042269 117.89269,45.3700389 C116.997788,44.9040809 117.317396,43.972165 116.987135,43.294408 C116.94452,43.1990985 117.029749,43.1037889 117.136285,43.072019 C117.274782,43.0190693 117.413279,43.0402492 117.509161,43.1461487 C117.637004,43.2838181 117.647658,43.4426674 117.573083,43.6121066 C117.360011,44.1521942 117.796808,44.4593029 118.063148,44.8087713 C118.169684,44.9464407 118.521253,44.9993905 118.54256,44.7240517 C118.606481,44.1945541 119.213736,43.9615751 119.203083,43.4108975 C119.192429,43.2202784 119.267004,43.0614291 119.480076,43.0931989 C119.682494,43.1249688 119.682494,43.3261779 119.703802,43.4956171 C119.746416,43.7815459 119.533344,43.9086253 119.384194,44.0886545 C118.947396,44.6075622 118.95805,44.6075622 119.49073,45.0629302 C119.618573,45.1688297 119.810338,45.2853192 119.831645,45.4123987 C119.895566,45.9736662 120.32171,45.8359968 120.662625,45.8995365 C120.992887,45.9524863 121.323148,46.1642853 121.68537,45.8254068 C121.259227,45.6983274 120.865044,45.793637 120.524129,45.5500681 C120.822429,45.4547585 121.067462,45.2853192 121.397723,45.3488589 C121.546874,45.3806288 121.962364,44.7028718 121.898442,44.5546125 C121.855828,44.4804828 121.738638,44.427533 121.65341,44.3957632 C121.504259,44.3428134 121.355109,44.3957632 121.376416,44.5652024 C121.408377,44.9464407 121.227266,45.1370599 120.875697,45.1900096 C120.758508,45.2005996 120.7372,45.0947001 120.779815,44.9993905 C120.513475,44.8723111 120.236481,44.8193613 119.948834,44.893491 C119.895566,44.3110435 120.32171,43.8027258 120.140599,43.2202784 C120.076678,43.0190693 120.225828,42.9025798 120.406939,42.8708099 C120.534782,42.84963 120.694586,42.8708099 120.801122,42.9343496 C121.046155,43.082609 120.843736,43.1990985 120.747854,43.3261779 C120.662625,43.4320774 120.630665,43.6756464 120.7372,43.6226966 C121.12073,43.4426674 121.26988,44.0145249 121.53622,43.8662655 C122.239357,43.4850272 122.86792,44.0568847 123.54975,43.9615751 C123.304717,44.2792737 122.953148,44.205144 122.654848,44.2686837 C122.271318,44.3534034 122.33524,44.649922 122.271318,44.893491 C122.186089,45.2111896 122.356547,45.3064991 122.644194,45.327679 C122.803998,45.338269 122.963802,45.4335786 122.953148,45.5182982 C122.803998,46.0372059 122.292625,45.7195073 122.036939,46.1113356 C122.388508,46.1642853 122.654848,46.2701849 122.910534,46.238415 C123.54975,46.1536954 124.178312,46.2807748 124.817528,46.2807748 C125.211711,46.2807748 125.531319,46.4502141 125.882887,46.5137538 C126.01073,46.5349337 126.159881,46.5031638 125.968116,46.7255529 C125.776351,46.9373519 125.818966,46.9797117 125.925502,46.9691218 C126.415567,46.9585318 126.777789,46.7996825 126.767136,46.238415 C126.159881,45.9101265 125.424783,46.249005 124.679031,45.7724571 C125.296939,45.5182982 125.765698,45.4547585 126.266417,45.5500681 C126.426221,45.5818379 126.617985,45.7512772 126.724521,45.6030178 C127.129358,45.0417503 127.768574,45.338269 128.258639,45.1476498 C128.620861,44.9993905 128.801972,45.2323695 128.919162,45.5182982 C129.281384,45.2217795 129.632953,44.9570307 130.154979,45.0841101 C130.623737,45.1900096 131.241646,44.9993905 131.305567,45.7724571 C131.316221,45.9313064 131.422757,45.8465867 131.507986,45.8042269 C131.753018,45.6665575 131.859554,45.793637 131.93413,46.0372059 C132.019358,46.3125447 132.147201,46.5667036 132.264391,46.8526323 C132.413541,46.683193 132.296352,46.5667036 132.285698,46.4502141 C132.264391,46.249005 132.200469,45.9948461 132.402888,45.8889466 C132.637267,45.7724571 132.91426,45.7724571 133.137986,45.9736662 C133.201907,46.0372059 133.265829,46.2172351 133.287136,46.2066451 C133.86243,46.0583858 133.83047,46.3125447 133.532169,46.6196533 C133.255175,46.916172 133.500208,47.0220715 133.660012,47.1703309 C133.819816,47.3185902 134.032888,47.2974103 134.235306,47.3185902 C135.705502,47.4456697 137.197006,47.1703309 138.667202,47.604519 C139.104,47.7315984 139.25315,47.3291802 139.210535,46.9691218 C139.178575,46.7361428 139.13596,46.5455236 139.444915,46.5772935 C139.66864,46.5984734 139.657986,46.7573227 139.594065,46.9479419 C139.434261,47.4244898 139.604719,47.5833391 140.08413,47.4033099 C140.659424,47.1809208 141.277333,47.2444606 141.873934,47.2338706 C142.087006,47.2338706 142.342693,47.2762304 142.470536,47.5409792 C142.672954,47.9645774 142.683608,47.9539874 142.907333,47.7104185 C143.290863,47.2656405 143.738314,47.2338706 143.780928,47.6574687 C143.812889,47.9857573 144.057922,47.9539874 144.132497,48.1340166 C144.185765,48.2505061 144.345569,48.3564056 144.473412,48.2505061 C144.686484,48.0704769 144.516026,47.9857573 144.356222,47.9116276 C144.228379,47.8480879 144.239033,47.6998285 144.324261,47.6786486 C144.729098,47.593929 145.133935,47.1173811 145.528118,47.4668496 C145.954262,47.8480879 146.412366,47.7527783 146.870471,47.7633683 C147.477726,47.7633683 148.074327,47.7739582 148.681582,47.9433975 C149.054458,48.049297 149.469948,48.049297 149.874785,48.049297 C150.790994,48.049297 151.739164,47.7845482 152.623412,48.3140458 C152.772563,48.3987654 153.028249,48.3987654 153.092171,48.0916568 C153.028249,48.0281171 152.974981,47.9328075 152.889752,47.8798577 C152.186615,47.4668496 151.408903,47.593929 150.652497,47.6256989 C150.183739,47.6468788 149.68302,47.7633683 149.26753,47.5621591 C148.947922,47.4138998 148.724196,47.0326615 148.330013,47.4350797 C148.266092,47.4986194 148.148902,47.4880295 148.180863,47.3291802 C148.266092,46.7467328 147.78668,46.8420423 147.509687,46.8526323 C146.881124,46.8949921 146.263216,46.7467328 145.634654,46.7467328 C145.293739,46.7467328 144.931516,46.7785026 144.622562,46.5878835 C144.270993,47.0750213 143.898118,46.7467328 143.57851,46.5772935 C143.386745,46.471394 143.237595,46.4184442 143.024523,46.471394 C141.799359,46.7679127 140.61681,46.2595949 139.423607,46.1325155 C138.550013,46.0372059 137.644457,45.8889466 136.760208,45.7089174 C136.355372,45.6241977 135.971842,45.5182982 135.673542,45.2217795 C135.641581,45.1900096 135.641581,45.10529 135.630927,45.0523403 C135.790731,44.7346417 136.131646,45.11588 136.323411,44.9040809 C136.323411,44.7028718 136.216875,44.5652024 136.120993,44.427533 C135.929228,44.1310143 136.248836,44.0251148 136.366025,43.8556756 C136.504522,43.6544664 136.621712,43.7285961 136.749555,43.8768555 C136.94132,44.0886545 137.250274,43.9403952 137.197006,43.7921358 C137.047856,43.3367679 137.676418,42.84963 137.207659,42.5319314 C136.951973,42.3624922 136.685633,42.4366218 136.834784,41.9706639 C136.97328,41.5258859 137.154391,41.3458567 137.612496,41.4517562 C137.985372,41.5364758 138.262365,41.494116 138.858967,41.3140868 C139.082692,41.2505471 139.359686,41.2187772 139.540797,41.3988064 C139.881712,41.7376849 140.222627,41.7482749 140.638117,41.5364758 C140.840536,41.4411662 141.085568,41.5788356 141.309294,41.6635553 C141.671516,41.8012246 142.214849,42.0553835 142.427921,41.9071242 C142.886026,41.5788356 143.173673,41.8012246 143.535895,41.9600739 C143.940732,42.1295132 144.505373,42.5001616 144.739752,42.3624922 C145.240471,42.0659735 145.496157,42.2565926 145.762497,42.5954711 C145.879686,42.4260319 145.869033,42.3307223 145.837072,42.2354127 C145.762497,42.0024338 145.837072,41.8118146 146.092758,41.7906347 C146.42302,41.7588648 146.380405,42.0024338 146.30583,42.2036429 C146.177987,42.5742912 146.369752,42.8178601 146.646745,42.9555295 C147.168771,43.2096884 147.839948,43.1355587 148.266092,43.6332865 C148.692236,43.2838181 149.075765,43.7391861 149.491255,43.6862363 C149.768249,43.6544664 150.077203,43.3579478 150.322236,43.7074162 C150.492693,43.9509851 150.599229,44.2369139 150.705765,44.5228426 C150.759033,44.6711019 150.684458,44.893491 150.759033,45.0099804 C150.844262,45.1476498 150.929491,45.4123987 151.217138,45.2747293 C151.43021,45.1688297 151.547399,45.0523403 151.344981,44.8087713 C151.238445,44.6816919 151.153216,44.5334326 151.185177,44.3428134 C151.792432,44.4910727 152.452955,44.3534034 153.049556,44.6287421 C153.102824,44.649922 153.20936,44.6393321 153.241321,44.5969723 C153.731386,44.0357048 154.338641,44.427533 154.732824,44.5863823 C155.521191,44.9040809 156.373478,45.0099804 157.151191,45.3170891 C157.65191,45.5182982 158.173936,45.6665575 158.653348,45.9101265 C158.887727,46.0266159 159.186027,46.1431054 159.217988,46.5455236 C159.249949,47.0962012 159.622825,47.36095 160.198119,47.2974103 C160.49642,47.2656405 160.816028,47.2021007 161.071714,47.0644314 C161.391322,46.8949921 161.647008,46.926762 161.924002,47.1067912 C161.966616,47.138561 161.97727,47.2126907 161.998577,47.2550505 C161.86008,47.3927199 161.668315,47.1597409 161.540472,47.3397701 C161.561779,47.4033099 161.561779,47.4774395 161.59374,47.5092094 C161.796158,47.6786486 162.137073,47.6468788 162.243609,47.9539874 C162.414067,48.4728951 161.881387,48.3140458 161.71093,48.504665 C161.647008,48.5787946 161.604394,48.6846942 161.604394,48.7800038 C161.604394,48.9706229 161.774851,48.9388531 161.902694,48.949443 C162.12642,48.960033 162.39276,48.8964932 162.350145,49.2989115 C162.339492,49.404811 163.287662,49.3095014 163.266355,49.1930119 C163.213087,48.7905937 163.383544,48.7376439 163.724459,48.7588239 C164.054721,48.7800038 164.353021,48.7694138 164.512825,48.3458157 C164.598054,48.1234267 165.002891,48.1234267 165.173348,47.7951381 C165.354459,47.4456697 165.716682,47.5409792 165.833871,47.9751673 C165.897793,48.2187362 165.961714,48.4093554 166.196093,48.282276 C166.877924,47.8904477 167.389296,48.1869664 167.868708,48.6211545 C167.996551,48.7376439 168.124394,48.8435435 168.305505,48.8541334 C169.317597,48.9176731 170.223153,49.3730411 171.150015,49.7013297 C171.554852,49.849589 171.895767,50.2202374 172.311257,50.304957 C172.662826,50.3684967 172.97178,50.9615341 173.408578,50.4849862 C173.792107,50.6967853 174.175637,50.9191743 174.56982,51.1203834 C174.687009,51.1839231 174.86812,51.2580528 174.953349,51.205103 C175.422107,50.9085843 175.794983,51.2580528 176.19982,51.3533624 C176.99884,51.5439815 177.723284,52.3064581 178.650147,51.7557806 C178.692761,51.7346007 178.77799,51.7875504 178.841912,51.8087304 C180.226879,52.338228 181.633154,52.8147759 182.996814,53.3972233 C184.062174,53.8525913 185.138187,54.2973693 186.246161,54.6574277 C187.364788,55.0174861 188.536684,55.1339756 189.644658,55.5363939 C190.646096,55.8964523 191.604919,56.41536 192.670279,56.6059791 C192.819429,56.627159 192.925965,56.8177782 193.064462,56.9130878 C193.756946,57.4108156 193.79956,57.3896356 194.886227,57.3260959 C195.28041,57.304916 195.738514,57.3578658 196.068776,57.5484849 C196.878449,58.0038529 197.85858,57.9297233 198.6576,58.5121707 C199.083743,58.8192793 199.786881,58.8192793 200.255639,59.2216975 C200.351521,59.2958272 200.596554,59.1687478 200.745704,59.2216975 C201.129234,59.3699569 201.544724,59.1475679 201.885639,59.3170071 C202.567469,59.6558856 203.515639,59.9841742 204.069626,59.8994545 C204.463809,59.8359148 204.804724,59.9206344 205.166947,60.015944 C207.382895,60.5878015 209.598842,61.159659 211.825444,61.7315164 C212.315509,61.8585959 212.837536,61.8480059 213.274333,62.1339346 C213.306294,61.8056461 213.071915,61.7632863 212.826882,61.7103365 C212.059823,61.5408973 211.282111,61.4138178 210.589627,61.0537594 C209.492307,60.481902 208.28845,60.2277431 207.105901,59.9947641 C205.571783,59.6982454 204.112241,59.1793377 202.610084,58.7980994 C200.298253,58.205062 198.00773,57.4955352 195.685246,56.8919079 C195.141913,56.7542385 195.227142,56.7118786 194.939495,56.0553016 C194.673155,55.4622642 194.86492,55.504624 195.28041,55.6740632 C196.654724,56.2459207 198.252763,56.2565107 199.467273,57.2625562 C199.520541,57.304916 199.680345,57.2943261 199.75492,57.2519663 C199.893417,57.1672466 199.840149,57.0083973 199.797534,56.8813179 C199.722959,56.6695188 199.531195,56.5742093 199.328776,56.5318494 C199.137011,56.4894896 198.92394,56.5106695 198.732175,56.4788997 C198.433874,56.4365399 198.337992,56.2141509 198.412567,55.959992 C198.497796,55.6528833 198.700214,55.8223226 198.891979,55.8646824 C199.275508,55.949402 199.627077,56.0976614 200.074528,56.0553016 C200.479365,56.0129417 201.022698,56.1929709 201.289038,56.6695188 C201.406227,56.8707279 201.214463,57.082527 201.310345,57.2519663 C201.512763,57.6226146 201.683221,56.9978074 201.864332,57.2096064 C202.03479,57.4002256 202.162633,57.6332046 202.311783,57.8555936 C203.046881,57.9614931 203.760672,58.1732922 204.527731,58.1627022 C204.421195,57.4108156 204.421195,57.3896356 203.824594,57.6014347 C203.654136,57.6649744 203.558254,57.6120247 203.483679,57.5167151 C203.174724,57.1037069 202.684659,57.0613471 202.258515,56.9130878 C201.864332,56.7754184 201.566031,56.5636193 201.438188,56.171791 C201.075966,56.1188413 200.916162,55.7481929 200.511325,55.6846532 C199.403351,55.504624 198.348645,55.059846 197.219364,54.9221766 C196.697338,54.8586369 196.22858,54.4456287 195.717207,54.3503191 C195.259103,54.2655995 194.832959,54.0749803 194.406815,53.9796707 C193.852828,53.8420014 193.778253,53.2807338 193.298841,53.1218845 C193.075116,53.0477549 192.979233,53.1324745 192.883351,53.2171941 C192.744854,53.3442736 192.872697,53.4395831 192.989887,53.5348927 C193.064462,53.5984324 193.128383,53.6725621 193.053808,53.8525913 C192.531782,53.5984324 191.839298,53.5984324 191.764723,52.793596 C191.732762,52.4970773 191.48773,52.4547175 191.327926,52.4970773 C191.008318,52.5923869 190.720671,52.4653074 190.42237,52.4653074 C190.15603,52.4653074 189.932305,52.2217385 189.644658,52.3699979 C189.378318,52.4970773 189.59139,52.8783156 189.282435,53.0477549 C188.813677,52.3276381 188.270344,51.9040399 187.503285,52.6135668 C187.396749,52.7088764 187.31152,52.6135668 187.247599,52.5500271 C187.01322,52.2852782 186.619036,52.3276381 186.374004,52.0628892 C185.990474,51.6392911 185.255376,51.8087304 184.925115,51.215693 C184.786618,50.982714 184.328513,51.3427724 184.179363,51.1521533 C183.550801,50.3579068 182.517402,50.5697058 181.750343,50.1037479 C181.08982,49.7013297 180.333415,49.3095014 179.470474,49.5318904 C179.001716,48.9388531 178.181389,49.0023928 177.627402,48.5576147 C177.56348,48.504665 177.446291,48.504665 177.339755,48.4834851 C177.222565,48.7376439 177.116029,48.9706229 177.009493,49.2036019 C176.721846,49.1294722 176.508774,48.9176731 176.562042,48.6952841 C176.7325,48.0069372 176.34897,48.0704769 175.858905,47.9963472 C175.358186,47.9222176 175.123807,48.2187362 174.86812,48.4834851 C174.56982,48.271686 174.665702,47.9963472 174.601781,47.7845482 C174.559166,47.6468788 174.601781,47.4562596 174.772238,47.4986194 C175.677794,47.7527783 175.198382,47.1279711 175.13446,46.6726031 C176.253088,47.0962012 177.361062,46.9055821 178.330539,47.4986194 C178.6608,47.6998285 179.097598,47.7633683 179.491781,47.816318 C179.758121,47.8480879 180.035114,47.8480879 180.280147,47.9539874 C180.482565,48.038707 180.67433,48.2505061 180.386683,48.3775855 C179.885964,48.5999746 180.024461,48.8117736 180.365376,48.960033 C181.015245,49.2459617 181.686422,49.4789407 182.357598,49.7330995 C182.442827,49.7648694 182.560017,49.7860493 182.645245,49.7542794 C182.805049,49.7013297 182.964853,49.5954301 182.9542,49.404811 C182.943546,49.2459617 182.773088,49.2141918 182.645245,49.2353717 C182.410866,49.2565516 182.165833,49.2883215 181.942108,49.1930119 C181.675768,49.0871124 181.292239,49.0977024 181.324199,48.6635143 C181.334853,48.5470248 181.260278,48.3564056 181.420082,48.3246358 C181.782304,48.2399161 182.091258,48.3458157 182.261716,48.716464 C182.314984,48.8329535 182.464134,49.0447526 182.496095,48.9706229 C182.868971,48.1869664 183.263154,49.2883215 183.625376,48.949443 C184.392435,49.4471708 185.511063,49.2353717 186.09701,50.1249278 C186.171585,50.2308273 186.288775,50.1778776 186.352697,50.1037479 C186.587076,49.860179 186.768187,49.9237187 186.89603,50.1990575 C186.981259,50.3790867 187.141063,50.3790867 187.300867,50.4426264 C188.536684,50.9509441 189.921651,51.0144839 191.082893,51.7451906 C191.157468,51.7981404 191.274658,51.8087304 191.37054,51.7981404 C192.638318,51.6498811 193.629102,52.4864874 194.790344,52.7512362 C194.982109,52.793596 195.173874,52.8889056 195.291063,53.0689348 C195.514789,53.4184032 195.738514,53.7784616 196.004854,53.1007046 C196.047469,52.9948051 196.175312,52.9842151 196.260541,53.0371649 C196.995639,53.5137128 197.847926,53.6619721 198.668253,53.916131 C199.254201,54.0961602 199.818842,54.2232397 200.415443,54.2655995 C200.767012,54.2867794 201.150541,54.2867794 201.320999,54.6680177 C201.459495,54.9963062 201.821718,54.9327665 201.906946,54.8374569 C202.269169,54.4456287 202.343744,54.6574277 202.471587,54.9963062 C202.578123,55.271645 202.737927,55.271645 202.823156,54.9539464 C202.86577,54.7950971 202.993613,54.7845072 203.142763,54.826867 C203.824594,54.9963062 204.538385,55.1127957 205.134986,55.4728541 C205.44394,55.6634733 205.625051,55.7587829 206.019234,55.6211135 C206.850215,55.3245948 207.564006,55.9705819 208.363025,56.0764815 C208.426947,56.0870714 208.522829,56.2247408 208.522829,56.3094604 C208.533483,56.849548 208.853091,56.8707279 209.300542,56.8707279 C209.588189,56.8707279 209.907797,56.9024978 210.206097,56.9448576 C210.951849,57.0507571 211.729562,57.1142969 212.411392,57.4425854 C213.189104,57.8132338 213.998778,57.8132338 214.872372,57.9085434 C214.361,57.1672466 214.126621,57.0719371 213.572634,57.4108156 C213.284987,57.5908448 212.976032,57.3684557 212.99734,57.2943261 C213.103875,56.9024978 212.826882,56.9342677 212.61381,56.8813179 C212.368777,56.8283681 212.08113,56.860138 211.878712,56.5742093 C212.187666,56.41536 212.443353,56.5636193 212.667078,56.6483389 C213.061261,56.7860083 213.487405,56.8919079 213.849627,56.8177782 C214.361,56.7224686 214.797797,56.8813179 215.234595,57.0295772 C215.84185,57.2307864 216.427797,57.5061251 217.067013,57.6226146 C217.333353,57.6649744 217.578386,57.770874 217.514464,58.0991625 C217.88734,57.8661835 218.249562,57.4955352 218.665052,58.0462127 C218.590477,58.3109616 218.100412,58.2262419 218.196294,58.6180702 C218.622438,58.2791917 218.665052,58.2580118 218.878124,58.6074803 C219.069889,58.9251789 219.229693,58.8404592 219.549301,58.8510492 C220.19917,58.8722291 220.944922,58.6921999 221.53087,59.348777 C221.765249,59.6135258 222.340543,59.7406052 222.915837,59.6876555 C222.042242,59.0310784 221.179301,58.6286602 220.188517,58.5227606 C219.986098,58.5015807 219.794334,58.4168611 219.602569,58.3850912 C219.357536,58.3321415 219.282961,58.1838821 219.336229,57.8132338 C219.66649,58.4062711 220.156556,57.982673 220.604007,58.1521123 C221.53087,58.5121707 222.564268,58.67102 223.565706,58.6921999 C224.52453,58.7027898 225.451393,58.8722291 226.367602,59.0840281 C227.401001,59.3170071 228.4344,59.3805468 229.467799,59.4652665 C229.584988,59.4758564 229.787406,59.6241158 229.79806,59.4229066 C229.830021,58.8192793 230.128321,58.9569487 230.458583,59.1369779 C230.74623,59.2958272 230.927341,59.1369779 231.044531,58.9251789 C231.225642,58.5863004 231.300217,58.5333506 231.470675,58.7345597 C232.067276,59.4229066 232.067276,59.4123167 232.951524,59.5499861 C233.132635,59.5817559 233.356361,59.5182162 233.505511,59.7406052 C233.686622,60.0053541 233.984923,59.9524043 234.251263,59.9841742 C234.837211,60.0583038 235.444466,59.9100445 236.030414,60.1747933 C236.2861,60.2912828 236.595054,60.1112536 236.808126,59.9524043 C236.744204,59.6982454 236.477865,59.6982454 236.488518,59.3911368 C236.765512,59.5288062 237.23427,59.1052081 237.202309,59.8570947 C237.191655,60.1642034 237.521917,60.2595129 237.820218,60.1853833 C238.03329,60.1324335 238.310283,60.2277431 238.416819,59.9100445 C238.555316,59.4970363 237.905446,59.804145 237.990675,59.4440866 C238.683159,59.2852373 239.386296,59.4440866 240.291852,59.3170071 C239.887015,59.2322875 239.375643,58.8192793 239.237146,58.5651204 C239.151917,58.4062711 239.024074,58.3956812 238.896231,58.4062711 C238.150479,58.4698109 237.287538,58.1415223 236.733551,58.9781286 C236.669629,59.0628482 236.488518,59.0734382 236.360675,59.1052081 C235.849302,59.2111076 234.901132,58.9569487 234.357799,58.5545305 C234.251263,58.4804008 234.176688,58.4698109 234.12342,58.5651204 C234.027538,58.7239697 234.027538,59.0310784 233.750544,58.882819 C233.548126,58.7663296 233.675969,58.5227606 233.718583,58.3215515 C233.750544,58.1944721 233.889041,58.0568027 233.73989,57.8979534 C233.420283,58.4062711 233.132635,58.5227606 233.004792,58.2262419 C232.90891,58.0038529 233.004792,57.6755644 232.64257,57.6014347 C232.056622,57.4743553 232.536034,58.1203424 232.205773,58.215652 C232.088583,58.2474219 232.003354,58.3850912 231.854204,58.3639113 C231.662439,58.3321415 231.683746,58.215652 231.737014,58.0673926 C231.84355,57.7179242 231.673093,57.7496941 231.449367,57.8661835 C230.959302,58.1309324 230.405315,58.0885726 229.776753,57.7285141 C230.000478,57.4214055 230.437276,57.7496941 230.661001,57.4531754 C230.62904,57.093117 230.096361,57.3896356 230.032439,56.9872174 C230.501197,56.9554476 230.927341,57.0189873 231.406753,56.849548 C230.266818,56.40477 231.289563,55.7799628 231.225642,55.2398752 C231.16172,54.7739172 231.673093,54.8798168 232.003354,54.9327665 C232.248387,54.9751263 232.504073,54.9751263 232.64257,54.7421474 C232.802374,54.4879885 232.312309,54.4456287 232.408191,54.1808799 C232.685184,54.0432105 232.951524,54.2338296 233.217864,54.1808799 C233.484204,54.1279301 233.750544,54.0855703 233.984923,53.9373109 C234.134073,53.8420014 234.304531,53.9690808 234.464335,53.9796707 C235.092897,54.0538004 235.732113,54.1279301 236.360675,54.1173401 C236.882701,54.1067502 237.053159,53.8843612 236.840087,53.4078133 C236.5844,52.8465458 236.829433,52.4335376 237.042505,51.9887596 C237.212963,52.7512362 237.479303,53.5031229 237.266231,54.2126497 C238.342244,54.5621182 239.364989,54.3185492 240.387734,54.2761894 C241.090871,54.2444196 241.762048,54.2550095 242.422571,54.4562186 C242.646296,54.5197584 242.848715,54.7103775 243.083094,54.6468378 C243.381395,54.5621182 243.147015,54.13852 243.381395,54.0114406 C243.637081,54.0326205 243.562506,54.4032689 243.839499,54.3397291 C243.999303,53.9690808 243.701002,53.5666626 243.850153,53.2595539 C244.084532,52.7512362 244.468061,53.238374 244.755708,53.1854243 C244.840937,53.3442736 244.81963,53.4289932 244.777016,53.5348927 C244.649172,53.916131 244.478715,54.382089 244.990088,54.5515282 C245.61865,54.7527373 245.373617,54.1067502 245.533421,53.8525913 C245.586689,53.7678717 245.661264,53.6831521 245.682571,53.5878425 C245.7678,53.2595539 245.991526,53.2701439 246.236558,53.3548635 C246.588127,53.471353 246.843813,53.6090224 246.577473,54.0749803 C246.375055,54.4244488 246.790545,55.0916158 247.206035,55.1339756 C247.365839,55.1445656 247.600218,54.9009967 247.461722,54.826867 C246.875774,54.5091684 247.333879,54.14911 247.365839,53.8102315 C247.376493,53.7466918 247.493683,53.6513822 247.578911,53.6302023 C247.749369,53.5984324 247.834598,53.7361018 247.81329,53.8737712 C247.717408,54.3926789 247.887866,54.6468378 248.452506,54.604478 C248.622964,54.593888 248.772114,54.6997876 248.867996,54.8586369 C249.081068,55.2186953 249.400676,55.282235 249.741591,55.1127957 C250.061199,54.9539464 250.252964,54.6680177 250.189042,54.2761894 C250.157081,54.1173401 250.050545,53.9584908 250.252964,53.8314114 C250.700415,53.7149219 251.105251,53.9584908 251.542049,53.9373109 C252.064075,53.916131 252.053421,54.2444196 252.000154,54.6150679 C251.968193,54.826867 251.627278,54.9327665 251.755121,55.2186953 C252.319761,55.0916158 252.884402,55.0068962 252.990938,54.2338296 C253.172049,54.8586369 253.491657,55.0386661 253.992376,54.7421474 C254.15218,54.6468378 254.311984,54.604478 254.471788,54.6362478 C254.993814,54.7527373 255.313422,54.6786076 255.270807,54.0220306 C255.2495,53.7149219 255.569108,53.460763 255.824794,53.6407922 C256.187017,53.9055411 256.495971,53.8102315 256.858193,53.7678717 C257.081919,53.7466918 257.390873,53.8208214 257.124533,54.1808799 C257.017997,54.3185492 256.932768,54.5091684 257.081919,54.6362478 C257.241723,54.7633273 257.454795,54.7633273 257.657213,54.6680177 C257.880938,54.5727081 257.998128,54.4032689 258.104664,54.2020598 C258.168585,54.5621182 258.253814,54.9221766 258.168585,55.2928249 C257.763749,55.4093144 257.56133,55.049256 257.252376,55.0704359 C257.081919,55.0810259 257.017997,55.1869254 256.986036,55.3245948 C256.943422,55.4834441 257.039304,55.5893436 257.177801,55.6211135 C257.689174,55.737603 258.36035,55.3987245 258.562768,54.8692268 C258.647997,54.6468378 258.754533,54.4350387 258.903684,54.2550095 C259.223291,53.8737712 259.72401,53.8525913 260.150154,53.693742 C260.501723,53.5666626 260.512377,54.0220306 260.736102,54.14911 C260.991788,53.4395831 261.002442,53.4395831 261.599043,53.7572817 C261.758847,53.8420014 261.907998,53.8631813 262.078455,53.8102315 C262.451331,53.6725621 262.728324,53.7149219 263.058586,54.0114406 C263.207736,54.14911 263.442115,53.5031229 263.90022,53.5243028 C264.198521,53.5348927 264.496821,53.471353 264.752508,53.6513822 C264.84839,53.7255119 264.891004,53.8949511 265.061462,53.7996415 C265.690024,53.4395831 266.467737,53.7361018 267.085645,53.3442736 C267.330678,53.1854243 267.42656,53.4184032 267.586364,53.4819429 C267.948586,53.6302023 268.310809,53.8631813 268.726299,53.7466918 C268.90741,53.693742 269.035253,53.5031229 269.269632,53.5560726 C269.44009,53.5878425 269.354861,53.9584908 269.58924,53.7996415 C269.73839,53.693742 269.727737,53.4184032 269.951462,53.3548635 C270.00473,53.3336836 270.089959,53.3548635 270.143227,53.3866334 C270.590678,53.5984324 271.112704,53.3336836 271.581462,53.7149219 C271.304469,51.9463997 271.464273,51.9781696 272.380482,52.1687888 L272.380482,52.1793787 L272.380482,52.1793787 L272.380482,52.1899687 L272.380482,52.1899687 L272.380482,52.1899687 C272.518979,52.1264289 272.668129,52.0628892 272.806626,51.9887596 C272.977084,51.6498811 273.264731,51.3215925 272.465711,51.3851322 C272.071528,51.4169021 271.687998,51.438082 271.304469,51.5545715 C271.091397,51.6181112 270.814404,51.8193203 270.6546,51.5545715 C270.12192,50.6967853 270.398913,52.0311194 270.089959,51.7451906 C269.887541,52.1370189 270.324338,52.0417093 270.441528,52.1899687 C270.611985,52.4229476 270.697214,52.0946591 270.846364,52.105249 C271.091397,52.115839 271.229894,52.2217385 271.272508,52.4547175 C271.304469,52.6453366 271.229894,52.7618261 271.027475,52.8147759 C270.80375,52.8677257 270.611985,53.026575 270.345645,52.9418553 C269.834273,52.793596 269.205711,53.1960142 268.79022,52.5817969 C268.747606,52.5182572 268.523881,52.4864874 268.513227,52.5182572 C268.204273,53.026575 267.714207,52.6453366 267.320024,52.7618261 C266.190743,53.1007046 264.99754,52.9948051 263.825645,53.1112946 C263.474076,53.1430644 263.335579,52.9842151 263.324926,52.6559266 C263.719109,52.338228 264.04937,51.9463997 264.645972,52.0099395 C265.157344,52.0628892 265.700678,51.8087304 266.073553,52.4441275 C266.180089,52.6241567 266.606233,52.6241567 266.840612,52.4229476 C266.808652,52.105249 266.403815,52.3805878 266.425122,51.9781696 C266.904534,52.0311194 267.362639,51.9781696 267.234795,51.3215925 C267.138913,51.205103 267.043031,51.2792327 266.947148,51.2686427 C266.648848,51.2580528 266.265318,51.3427724 266.180089,50.9721241 C266.084207,50.527346 266.616887,50.8450446 266.74473,50.6014757 C266.829959,50.4426264 267.298717,50.537936 267.043031,50.1461077 C266.915188,49.9448986 266.925841,49.5636603 266.510351,49.7648694 C266.084207,49.9766685 266.137475,49.6907397 266.233357,49.4577608 C266.297279,49.3095014 266.435776,49.2036019 266.552965,49.0765224 C266.670155,48.9706229 266.787344,48.8541334 266.925841,48.7800038 C267.16022,48.6635143 267.511789,48.6952841 267.650286,48.4411253 C267.905972,47.9539874 267.309371,48.1022468 267.16022,47.8798577 C266.670155,47.149151 266.659501,47.1703309 265.860482,47.3927199 C265.359763,47.5303893 264.880351,47.4774395 264.390285,47.1173811 C265.295841,46.460804 266.350547,46.8844021 267.234795,46.5137538 C266.819305,46.1325155 266.819305,46.1325155 266.222704,46.2172351 C266.137475,46.2278251 266.020286,46.2172351 265.94571,46.1748753 C265.167998,45.6877374 264.251789,45.8465867 263.463423,45.8995365 C262.259566,45.9736662 261.077017,45.7512772 259.883814,45.8677666 C258.573422,45.9948461 257.305644,45.5077082 256.005906,45.6453776 C255.686298,45.2853192 255.089696,45.571248 254.759435,45.1794197 C254.961853,44.9252608 255.174925,45.0099804 255.36669,45.0205704 C256.336167,45.0523403 257.305644,45.3806288 258.275121,45.0629302 C258.850416,45.4441685 259.57486,44.7028718 260.160808,45.3064991 C260.288651,45.4441685 260.512377,45.2217795 260.554991,44.9782106 C260.67218,44.3322234 260.661527,44.3534034 261.236821,44.5228426 C261.758847,44.6816919 262.184991,45.0947001 262.792246,45.0311604 C263.378194,44.9676206 263.974795,44.9888005 264.571396,44.9252608 C264.912312,44.893491 265.167998,44.9570307 265.359763,45.2429594 C265.370416,45.2641393 265.466299,45.2217795 265.413031,45.2323695 C265.807214,44.9888005 265.253227,44.7134618 265.551527,44.4910727 C265.924403,44.5122526 265.583488,45.1582398 266.137475,45.0417503 C266.158782,44.5228426 266.169436,43.9933449 266.0629,43.4214875 C266.584926,43.3367679 267.021724,43.0508391 267.554403,43.1037889 C267.927279,43.1355587 268.214926,43.2414583 268.204273,43.6968263 C268.438652,43.6544664 268.470613,43.7921358 268.438652,43.972165 C268.396037,44.1733741 268.353423,44.3639933 268.310809,44.5652024 C268.747606,44.1521942 268.534534,43.4744372 268.928717,43.0084793 C269.131135,43.4214875 269.493358,43.6862363 269.354861,44.2475038 C269.301593,44.4804828 269.365515,45.0311604 269.85558,45.1582398 C269.770351,44.6711019 269.866234,44.6181522 270.484142,44.7664115 C270.505449,44.7028718 270.53741,44.6287421 270.516103,44.5969723 C270.281724,44.2263239 269.85558,43.9509851 270.057998,43.4003076 C270.100613,43.2838181 269.962116,43.1990985 269.802312,43.1885085 C269.024599,43.1037889 269.514665,42.4472118 269.3229,42.0871534 C269.258979,41.9706639 269.354861,41.8224046 269.525318,41.8224046 C269.962116,41.8118146 269.802312,42.3095424 270.057998,42.4578017 C270.079305,42.4683917 270.12192,42.4578017 270.153881,42.4578017 C270.175188,42.404852 270.239109,42.3413123 270.228456,42.2989524 C270.111266,41.8541744 269.70643,41.4199863 270.228456,40.9540284 C270.345645,40.8481289 270.228456,40.6575097 270.026037,40.58338 C269.876887,40.5304303 269.823619,40.3080413 269.908848,40.2550915 C270.494796,39.905623 269.887541,39.4290751 270.068652,39.0266569 C270.12192,38.8995775 269.685122,38.9842971 269.823619,38.7619081 C269.898194,38.6454186 270.132573,38.6560086 270.303031,38.7301382 L271.741266,38.8148579 C271.911724,38.7513181 272.060874,38.6560086 272.071528,38.4653894 C272.082181,38.2535903 271.90107,38.1582808 271.730613,38.1900506 C271.389698,38.2535903 271.059436,38.0735611 270.729175,38.2006406 C270.249763,38.3912597 270.164534,38.0417913 270.079305,37.7135027 C269.812966,37.9570717 269.546626,38.115921 269.141789,38.115921 C268.651724,37.9147118 268.246887,37.882942 267.831397,38.0417913 Z" id="Path-Copy" fill="#E79E2C"></path>
            <path d="M111.144,28.073 C110.933999,27.9889996 110.696001,27.8840006 110.43,27.758 C110.079998,27.5759991 109.716002,27.3660012 109.338,27.128 C108.861998,26.8339985 108.372003,26.5050018 107.868,26.141 C107.279997,25.7069978 106.678003,25.2240027 106.062,24.692 C105.361996,25.2800029 104.557005,25.8119976 103.647,26.288 C102.792996,26.7360022 101.953004,27.0859987 101.127,27.338 L100.329,24.86 C101.967008,24.5379984 103.464993,23.9150046 104.823,22.991 L103.563,22.907 L103.563,21.563 L103.017,21.878 L101.991609,22.5063599 C101.756453,22.6474534 101.573251,22.7529996 101.442,22.823 L100.791,20.534 C100.959001,20.4919998 101.189999,20.4010007 101.484,20.261 L102.282,19.904 L101.589,19.106 L101.299666,18.7816661 C101.119222,18.5825552 100.963667,18.4176673 100.833,18.287 L102.009,16.838 L102.183857,17.0077143 C102.345285,17.1705711 102.545999,17.3869986 102.786,17.657 L103.521,18.497 L102.345,19.862 L102.954,19.631 C103.192001,19.5469996 103.394999,19.4560005 103.563,19.358 L103.563,16.817 L100.707,16.628 L100.707,14.528 L105.747,14.885 L105.747,22.277 C105.845,22.1929996 105.943,22.0950006 106.041,21.983 L106.293,21.647 L106.545,22.004 L106.23,20.912 L106.395667,20.8536667 C106.427555,20.8412223 106.461583,20.8274168 106.49775,20.8122502 L106.881,20.639 C106.909,20.6249999 106.944,20.6110001 106.986,20.597 L107.658,20.282 C107.209998,19.7219972 106.734003,19.1690027 106.23,18.623 L107.385,17.195 C107.581001,17.3630008 107.839998,17.642998 108.162,18.035 L108.876,18.854 L107.7,20.261 L109.107,19.715 L109.17,20.303 L109.17,17.216 L106.23,17.006 L106.23,14.906 L111.375,15.263 L111.375,23.558 L109.17,23.411 L109.17,21.857 C108.917999,21.9830006 108.603002,22.1649988 108.225,22.403 L107.301,22.97 L107.469,23.18 L107.364,23.306 C107.896003,23.6420017 108.427997,23.9499986 108.96,24.23 C109.408002,24.4540011 109.848998,24.6569991 110.283,24.839 L111.249,25.217 L111.56925,25.3062501 C111.66375,25.33075 111.746,25.3499999 111.816,25.364 L111.144,28.073 Z M97.074,26.96 L97.074,27.065 L97.011,27.716 L97.011,28.031 C96.9269996,29.1090054 96.8220006,30.0889956 96.696,30.971 C96.5419992,31.979005 96.3600011,32.8329965 96.15,33.533 C95.6599976,32.9729972 95.0580036,32.5180017 94.344,32.168 C94.5260009,31.5239968 94.6799994,30.7540045 94.806,29.858 C94.9180006,29.0739961 95.0019997,28.1920049 95.058,27.212 L95.142,25.532 C95.1840002,24.3559941 95.205,23.264005 95.205,22.256 L95.205,14.402 L100.098,14.759 L100.098,30.719 C100.098,31.9370061 99.8810022,32.7139983 99.447,33.05 C99.054998,33.3860017 98.2920057,33.5120004 97.158,33.428 L97.074,30.761 L97.809,30.803 C97.9490007,30.8170001 98.019,30.726001 98.019,30.53 L98.019,27.023 L97.074,26.96 Z M97.179,19.316 L98.019,19.379 L98.019,17.363 L97.179,17.3 L97.179,19.316 Z M98.019,24.23 L98.019,22.172 L97.179,22.109 L97.179,23.369 L97.17375,23.7995002 C97.17025,23.9324998 97.165,24.0549994 97.158,24.167 L98.019,24.23 Z M107.511,26.645 C107.062998,27.0930022 106.454004,27.5269979 105.684,27.947 C105.053997,28.2970017 104.333004,28.6189985 103.521,28.913 L102.66,27.233 C103.122002,27.1069994 103.639997,26.9110013 104.214,26.645 C104.858003,26.3369985 105.347998,26.0290015 105.684,25.721 L107.511,26.645 Z M109.485,28.43 C108.812997,29.0740032 107.903006,29.6689973 106.755,30.215 C105.676995,30.7050024 104.508006,31.1039985 103.248,31.412 L102.534,29.627 C103.416004,29.4589992 104.325995,29.1930018 105.264,28.829 C106.314005,28.3949978 107.104997,27.9400024 107.637,27.464 L109.485,28.43 Z M111.312,30.383 C110.415996,31.3630049 109.163008,32.1749968 107.553,32.819 C106.110993,33.4070029 104.38901,33.8549985 102.387,34.163 L101.778,32.147 C103.234007,31.9929992 104.605994,31.6850023 105.894,31.223 C107.336007,30.6909973 108.406996,30.0610036 109.107,29.333 L111.312,30.383 Z M124.4055,17.069 C123.719497,17.2090007 122.935504,17.3349994 122.0535,17.447 L121.06566,17.5612401 C120.556621,17.61668 120.024903,17.6695997 119.4705,17.72 L116.8665,17.867 L116.6565,17.867 L114.6195,17.888 C114.521499,17.0339957 114.290502,16.1870042 113.9265,15.347 C114.654504,15.3329999 115.375496,15.2980003 116.0895,15.242 L118.3995,15.053 C120.023508,14.8709991 121.507493,14.6400014 122.8515,14.36 L124.4055,17.069 Z M124.4265,19.295 L123.7965,20.66 L123.508203,21.2780758 C123.183956,21.9580268 122.902057,22.493998 122.6625,22.886 L120.6255,22.109 C121.157503,20.9189941 121.577498,19.6170071 121.8855,18.203 L124.0905,18.98 L123.9855,18.875 C125.875509,17.9509954 127.338495,16.6280086 128.3745,14.906 L131.0625,16.355 C130.390497,17.3350049 129.613504,18.2589957 128.7315,19.127 C127.793495,20.0370045 126.876504,20.7509974 125.9805,21.269 C125.756499,20.9189982 125.525501,20.5900015 125.2875,20.282 C124.979498,19.875998 124.692501,19.5470013 124.4265,19.295 Z M120.8355,21.101 L118.6725,21.773 C118.476499,21.170997 118.280501,20.5830029 118.0845,20.009 L118.0005,19.799 C117.860499,19.392998 117.706501,18.994002 117.5385,18.602 L119.5965,18.014 L120.3105,19.715 L120.8355,21.101 Z M115.7325,22.529 C115.466499,21.4089944 114.955504,20.2890056 114.1995,19.169 L116.1525,18.308 C116.922504,19.3720053 117.454498,20.4429946 117.7485,21.521 L115.7325,22.529 Z M131.2935,22.277 C129.879493,24.2650099 128.108511,25.8889937 125.9805,27.149 L124.3425,24.587 C125.056504,24.2369982 125.826496,23.7190034 126.6525,23.033 C127.548504,22.2769962 128.220498,21.5560034 128.6685,20.87 L131.2935,22.277 Z M120.6465,33.848 L118.0635,33.659 L118.0635,29.648 C117.615498,30.2360029 117.174502,30.7609977 116.7405,31.223 C116.264498,31.7410026 115.844502,32.1399986 115.4805,32.42 L113.7165,29.837 C114.276503,29.4869982 114.892497,28.9690034 115.5645,28.283 C116.152503,27.6669969 116.705497,27.0020036 117.2235,26.288 L114.4935,26.078 L114.4935,23.432 L118.0635,23.684 L118.0635,21.983 L120.6465,22.172 L120.6465,23.873 L123.8595,24.104 L123.8595,26.75 L121.9485,26.603 C122.900505,27.5830049 123.649497,28.5839949 124.1955,29.606 L122.4315,31.433 C122.081498,30.6769962 121.486504,29.7810052 120.6465,28.745 L120.6465,33.848 Z M131.7765,28.01 C131.020496,29.3680068 130.019506,30.5929945 128.7735,31.685 C127.625494,32.7070051 126.323507,33.5749964 124.8675,34.289 L123.3345,31.433 C124.426505,31.026998 125.483495,30.4110041 126.5055,29.585 C127.625506,28.6889955 128.479497,27.7090053 129.0675,26.645 L131.7765,28.01 Z M150.519,18.098 L150.519,32.462 L139.557,33.218 L139.557,18.854 L143.673,18.56 L143.673,14.234 L146.277,14.066 L146.277,18.392 L150.519,18.098 Z M138.381,19.463 L136.68,18.392 L134.769,17.237 L134.769,17.237 L136.281,14.885 L136.52628,15.0026 C136.66236,15.0697998 136.818599,15.1495995 136.995,15.242 L139.34868,16.5238401 C139.59396,16.6604798 139.803399,16.7791995 139.977,16.88 L138.381,19.463 Z M138.822,22.718 L137.331,25.322 L133.698,23.243 L135.126,20.912 C135.546002,21.0986676 136.024332,21.3242214 136.560999,21.5886662 L138.822,22.718 Z M146.277,24.02 L147.894,23.894 L147.894,21.101 L146.277,21.227 L146.277,24.02 Z M142.056,24.314 L143.673,24.188 L143.673,21.395 L142.056,21.521 L142.056,24.314 Z M137.31,26.435 L139.347,28.199 L139.197375,28.5287654 C139.101125,28.7464211 138.983001,29.0214983 138.843,29.354 L138.675,29.732 C138.576999,29.9980013 138.458001,30.2639987 138.318,30.53 L136.722,34.142 L134.37,32.42 C134.930003,31.3559947 135.517997,30.1730065 136.134,28.871 L136.239,28.64 C136.407001,28.3179984 136.560999,28.0030015 136.701,27.695 L137.31,26.435 Z M142.056,30.215 L143.673,30.089 L143.673,27.023 L142.056,27.149 L142.056,30.215 Z M146.277,29.921 L147.894,29.795 L147.894,26.729 L146.277,26.855 L146.277,29.921 Z M163.5285,17.069 C162.842496,17.2090007 162.058504,17.3349994 161.1765,17.447 L160.18866,17.5612401 C159.679621,17.61668 159.147903,17.6695997 158.5935,17.72 L155.9895,17.867 L155.7795,17.867 L153.7425,17.888 C153.644499,17.0339957 153.413502,16.1870042 153.0495,15.347 C153.777504,15.3329999 154.498496,15.2980003 155.2125,15.242 L157.5225,15.053 C159.146508,14.8709991 160.630493,14.6400014 161.9745,14.36 L163.5285,17.069 Z M163.5495,19.295 L162.9195,20.66 L162.631203,21.2780758 C162.306956,21.9580268 162.025057,22.493998 161.7855,22.886 L159.7485,22.109 C160.280503,20.9189941 160.700498,19.6170071 161.0085,18.203 L163.2135,18.98 L163.1085,18.875 C164.998509,17.9509954 166.461495,16.6280086 167.4975,14.906 L170.1855,16.355 C169.513497,17.3350049 168.736504,18.2589957 167.8545,19.127 C166.916495,20.0370045 165.999504,20.7509974 165.1035,21.269 C164.879499,20.9189982 164.648501,20.5900015 164.4105,20.282 C164.102498,19.875998 163.815501,19.5470013 163.5495,19.295 Z M159.9585,21.101 L157.7955,21.773 C157.599499,21.170997 157.403501,20.5830029 157.2075,20.009 L157.1235,19.799 C156.983499,19.392998 156.829501,18.994002 156.6615,18.602 L158.7195,18.014 L159.4335,19.715 L159.9585,21.101 Z M154.8555,22.529 C154.589499,21.4089944 154.078504,20.2890056 153.3225,19.169 L155.2755,18.308 C156.045504,19.3720053 156.577498,20.4429946 156.8715,21.521 L154.8555,22.529 Z M170.4165,22.277 C169.002493,24.2650099 167.231511,25.8889937 165.1035,27.149 L163.4655,24.587 C164.179503,24.2369982 164.949496,23.7190034 165.7755,23.033 C166.671504,22.2769962 167.343498,21.5560034 167.7915,20.87 L170.4165,22.277 Z M159.7695,33.848 L157.1865,33.659 L157.1865,29.648 C156.738498,30.2360029 156.297502,30.7609977 155.8635,31.223 C155.387498,31.7410026 154.967502,32.1399986 154.6035,32.42 L152.8395,29.837 C153.399503,29.4869982 154.015497,28.9690034 154.6875,28.283 C155.275503,27.6669969 155.828497,27.0020036 156.3465,26.288 L153.6165,26.078 L153.6165,23.432 L157.1865,23.684 L157.1865,21.983 L159.7695,22.172 L159.7695,23.873 L162.9825,24.104 L162.9825,26.75 L161.0715,26.603 C162.023505,27.5830049 162.772497,28.5839949 163.3185,29.606 L161.5545,31.433 C161.204498,30.6769962 160.609504,29.7810052 159.7695,28.745 L159.7695,33.848 Z M170.8995,28.01 C170.143496,29.3680068 169.142506,30.5929945 167.8965,31.685 C166.748494,32.7070051 165.446507,33.5749964 163.9905,34.289 L162.4575,31.433 C163.549505,31.026998 164.606495,30.4110041 165.6285,29.585 C166.748506,28.6889955 167.602497,27.7090053 168.1905,26.645 L170.8995,28.01 Z" id="" fill="#FFFFFF"></path>
        </g>
    </g>
</svg>