<?xml version="1.0" encoding="UTF-8"?>
<svg width="273px" height="56px" viewBox="0 0 273 56" version="1.1" xmlns="http://www.w3.org/2000/svg" xmlns:xlink="http://www.w3.org/1999/xlink">
    <!-- Generator: Sketch 59.1 (86144) - https://sketch.com -->
    <title>Group 10</title>
    <desc>Created with Sketch.</desc>
    <g id="Amazon-Browser" stroke="none" stroke-width="1" fill="none" fill-rule="evenodd">
        <g id="Group-10" fill-rule="nonzero">
            <g id="Group-11">
                <g id="paint1-copy-5" transform="translate(136.500000, 28.000000) scale(-1, 1) translate(-136.500000, -28.000000) ">
                    <path d="M161.935613,2.985 C161.974245,3.005 162.012877,3.025 162.064387,3.035 C162.025755,3.015 162,2.985 161.961368,2.965 L161.935613,2.985 Z" id="Path" fill="#C2C4C6"></path>
                    <path d="M272.8596,10.3389209 C273.11387,10.1728946 273.000183,9.71254892 272.699504,9.64462906 C271.927278,9.47860274 271.117382,9.24465657 270.345156,9.62198911 C270.100303,9.74273552 269.949625,9.86348193 269.808364,9.59934915 C269.695355,9.38804293 269.817781,9.22201662 270.109721,9.17673671 C270.36399,9.13145681 270.674764,9.17673671 270.750103,8.87487068 C269.940208,8.62583121 269.149146,8.565458 268.386337,8.94279054 C268.59352,9.33521638 269.036138,8.95788384 269.299825,9.18428336 C269.092642,9.5616159 268.706529,9.50878935 268.348668,9.44841614 C266.766545,9.16919006 265.165588,9.13900346 263.545796,9.19937667 C262.566387,9.23710992 261.577561,9.19183001 260.598152,9.19183001 C260.3533,9.19183001 260.051943,9.16164341 260.004856,8.95788384 C259.929517,8.67865776 260.306213,8.63337786 260.53223,8.5352714 C260.720578,8.45225824 260.927761,8.4899915 261.134943,8.5352714 C262.12377,8.73903097 263.150266,8.42961829 264.14851,8.65601781 C264.261518,8.67865776 264.402779,8.61073791 264.591127,8.57300465 C264.449866,8.37679173 264.374527,8.19567212 264.092005,8.16548551 C263.790649,8.13529891 263.63997,7.99191255 263.734144,7.77305968 C263.818901,7.57684676 263.969579,7.26743408 264.261518,7.35044723 C264.911319,7.5240202 265.598788,7.06367451 266.210919,7.4787403 C266.333345,7.56175345 266.531111,7.4787403 266.700624,7.47119365 C267.567024,7.43346039 268.226242,7.02594125 268.989051,6.76180848 C268.734781,6.37692929 268.367503,6.28636948 267.934302,6.29391613 C267.425763,6.30146278 266.917224,6.30146278 266.399267,6.29391613 C266.201502,6.29391613 265.956649,6.33919604 265.871893,6.14298312 C265.777719,5.91658359 265.975484,5.75810393 266.17325,5.67509077 C266.832467,5.38077139 267.538772,5.19210512 268.310998,5.29021158 C268.715946,5.34303814 269.111477,5.41850464 269.572929,5.29775823 C269.469338,5.02607881 269.337494,4.75439938 269.610599,4.4751733 C269.789529,4.28650703 269.601181,3.93181445 269.959042,3.87144124 C268.263911,3.47146875 266.484024,3.54693526 264.722971,3.4639221 C263.611718,3.41109555 262.481631,3.39600225 261.389213,3.22242928 C259.420977,2.8979233 257.42449,2.77717689 255.446837,2.51304411 C254.947715,2.44512425 254.439176,2.33192449 253.940054,2.34701779 C252.160166,2.407391 250.417948,2.13571157 248.666312,2.01496516 C248.195443,1.98477856 247.799912,1.98477856 247.394964,2.16589818 C246.90526,2.3772044 246.359051,2.54323071 245.841094,2.46776421 C244.466154,2.26400464 243.053545,2.407391 241.678605,2.18099148 C241.235988,2.10552497 240.718031,2.06024507 240.058813,2.21872473 C240.539101,2.31683119 240.859292,2.33192449 241.113562,2.4526709 C241.923458,2.82245679 242.789858,2.82245679 243.684511,2.83000344 C244.645085,2.83755009 245.633911,2.87528335 246.406138,3.47146875 C246.509729,3.55448191 246.65099,3.55448191 246.792251,3.53184196 C247.696321,3.41109555 248.383791,3.9544544 249.231356,4.02992091 C249.560965,4.06010751 249.560965,4.33933359 249.259608,4.50535991 C249.07126,4.61101302 248.741652,4.59591971 248.656895,4.78458598 C248.412043,5.32794484 247.875251,5.22229173 247.376129,5.18455847 C244.814598,4.9807989 242.253067,4.97325225 239.682118,4.9807989 C238.429604,4.98834555 237.205343,4.90533239 236.047003,4.49781325 C235.924577,4.45253335 235.783316,4.42234675 235.651473,4.43744005 C234.408377,4.53554651 233.20295,4.19594723 231.922184,4.36197354 C230.613166,4.52799986 229.247644,4.20349388 227.891539,4.25632043 C226.639026,4.30160034 225.386512,4.12048072 224.133999,4.09029411 C222.966242,4.06765416 221.770233,4.30914699 220.62131,3.96200105 C220.508302,3.9242678 220.357623,3.9695477 220.216362,3.97709435 C218.992101,4.02237426 217.76784,3.9695477 216.552996,3.90162785 C215.432326,3.84125464 214.311656,3.75824148 213.190986,3.73560153 C211.703037,3.70541493 210.196254,3.72805488 208.717723,3.67522832 C206.353957,3.59221517 203.980774,3.61485512 201.617007,3.52429531 C200.034885,3.4639221 198.452763,3.4488288 196.861223,3.38090895 C195.401527,3.32053574 193.951248,3.20733598 192.491552,3.12432282 C190.156038,2.99602976 187.811107,2.96584315 185.466175,2.9582965 C185.315497,2.9582965 185.155401,2.9281099 185.004723,2.90546995 C185.117732,3.11677617 185.362584,3.13941612 185.588601,3.10922952 C186.407915,2.99602976 187.151889,3.44128215 187.98062,3.27525584 C188.150133,3.23752258 188.41382,3.32808239 188.41382,3.53938861 C188.41382,3.75069483 188.187802,3.76578813 187.98062,3.79597474 C187.782854,3.81861469 187.538002,3.63749507 187.359072,3.86389459 C187.669846,4.23368048 188.121881,4.00728096 188.489159,4.04501421 C188.715176,4.06765416 188.903524,4.09784077 188.922359,4.30160034 C188.941194,4.49781325 188.771681,4.58837306 188.555081,4.62610632 C188.423237,4.64874627 188.281976,4.67893287 188.150133,4.67893287 C186.549176,4.67893287 184.919966,4.63365297 183.394348,4.30914699 C182.518531,4.12802737 181.6898,4.07520081 180.832817,4.06765416 C179.147103,4.05256086 177.46139,3.99218766 175.785093,3.83370799 C174.268893,3.69032163 172.76211,3.39600225 171.227074,3.4488288 C170.44543,3.47901541 169.710874,3.51674866 168.92923,3.26016253 C168.373603,3.07904292 167.610795,3.00357641 167.036333,3.20733598 C166.386533,3.4337355 165.887411,3.68277497 165.482463,3.00357641 C165.463628,2.97338981 165.35062,2.95074985 165.294115,2.9582965 C164.493637,3.11677617 163.683741,3.07904292 162.873845,3.01866971 C162.647827,3.00357641 162.534819,3.16205607 162.412393,3.29789579 C162.299384,3.42618885 162.158123,3.48656206 161.979192,3.42618885 C162.092201,3.50920201 162.186375,3.60730847 162.402975,3.58466852 C162.911514,3.53938861 163.269375,3.76578813 163.777915,4.18085392 C163.090445,4.20349388 162.67608,4.4148001 162.129871,4.25632043 C161.329392,4.02237426 160.547748,3.74314818 159.662513,3.75069483 C159.502417,3.75069483 159.31407,3.67522832 159.31407,3.50920201 C159.31407,3.29034914 159.53067,3.26770918 159.737852,3.25261588 C159.982705,3.22997593 160.246392,3.47901541 160.557166,3.11677617 C159.201061,2.83000344 157.920295,2.53568406 156.488851,3.08658957 C156.81846,3.25261588 157.119817,3.33562904 157.326999,3.21488263 C157.863791,2.8979233 158.108643,3.20733598 158.447669,3.50165536 C158.15573,3.67522832 157.920295,4.16576062 157.618939,3.97709435 C156.969138,3.56202856 156.309921,3.97709435 155.678955,3.79597474 C155.405851,3.72050823 155.057407,3.75069483 154.812555,3.9393611 C154.511198,4.17330727 154.14392,4.15066732 153.767224,4.14312067 C152.034423,4.12048072 150.31104,4.11293407 148.578239,4.11293407 C148.003778,4.11293407 147.438735,4.18840057 146.854856,4.13557402 C145.479916,4.02237426 144.095559,3.87898789 142.72062,3.86389459 C140.855976,3.84125464 139.000749,3.97709435 137.136105,3.9695477 C135.280878,3.96200105 133.435068,4.09029411 131.579842,3.99218766 C129.216075,3.86389459 126.833475,3.94690775 124.460291,3.93181445 C122.586229,3.91672115 120.721585,3.91672115 118.866358,3.68277497 C117.519671,3.51674866 116.154149,3.41109555 114.798044,3.47146875 C112.048165,3.59221517 109.31712,3.36581564 106.576658,3.34317569 C105.493658,3.33562904 104.40124,3.28280249 103.318239,3.29034914 C100.897969,3.29789579 98.4871159,3.39600225 96.0668454,3.32808239 C94.268123,3.28280249 92.4694006,3.35072234 90.6706781,3.27525584 C89.2863211,3.21488263 87.901964,3.33562904 86.517607,3.34317569 C85.8960589,3.34317569 85.3310152,3.13186947 84.7000498,3.19978933 C82.6470577,3.4337355 80.5752308,3.51674866 78.5034039,3.47901541 C75.9512899,3.4337355 73.4462629,3.84125464 70.9035662,3.90162785 C69.3779483,3.9393611 67.8523303,4.18840057 66.3361297,4.13557402 C64.2548854,4.06010751 62.2018933,4.30914699 60.1300665,4.30160034 C58.8022138,4.29405368 57.4837785,4.4902666 56.1559258,4.4298934 C55.7886474,4.4148001 55.374282,4.4902666 55.4119516,3.99218766 C55.4307864,3.78842809 55.1765167,3.87898789 55.0258384,3.87898789 C54.2441946,3.85634794 53.4625509,3.87144124 52.6809071,3.9242678 C51.0140282,4.04501421 49.3377319,3.60730847 47.6520182,3.99973431 C47.0963919,4.12802737 46.4465917,4.14312067 45.834461,4.17330727 C44.1393299,4.24122713 42.425364,4.18085392 40.7773199,4.61855967 C40.683146,4.64119962 40.5701372,4.64874627 40.4759633,4.64119962 C38.8185018,4.54309316 37.1704577,4.61101302 35.5224136,4.70157282 C35.1645526,4.72421278 34.8349437,4.69402617 34.7031002,4.36197354 C34.6560132,4.24877378 34.5618393,4.16576062 34.4205784,4.14312067 C33.4034997,3.984641 32.3581689,3.60730847 31.3881772,3.71296158 C29.4481939,3.9242678 27.5176279,3.81106804 25.587062,3.8940812 C24.8901747,3.9242678 24.0991136,3.50920201 24.0896962,3.12432282 C24.0802788,2.66397713 23.8165917,2.64888382 23.3833915,2.66397713 C21.5564169,2.74699028 19.7200249,2.82245679 17.9213025,3.14696277 C17.5634415,3.21488263 17.2055805,3.24506923 16.8194673,3.19978933 C16.0566583,3.11677617 15.3032667,2.98093646 14.5122055,3.09413622 C14.0601706,3.16205607 13.5704661,3.13186947 13.1749355,2.83755009 C12.996005,2.70925703 12.7134831,2.54323071 12.4592135,2.79227019 C12.1672742,3.08658957 11.8094132,3.04130966 11.4421348,2.9281099 C11.0277694,2.79981684 10.7829172,2.81491014 10.6134041,3.22997593 C10.4344736,3.66768167 10.1331169,3.70541493 9.53040364,3.50920201 C9.04069911,3.35072234 8.58866415,3.4035489 8.21196836,3.69786828 C7.88235953,3.9544544 7.55275071,4.16576062 7.07246357,4.18085392 C6.82761131,4.18840057 6.70518517,4.29405368 6.75227215,4.49781325 C6.77110694,4.60346637 6.78994173,4.74685273 6.62984601,4.78458598 C5.83878484,4.9807989 5.20781938,5.33549149 4.73694964,5.88639699 C4.68986266,5.93922355 4.54860174,5.93922355 4.45442779,5.96941015 C3.85171452,6.15807642 3.84229712,6.16562307 4.17190594,6.62596876 C4.39792342,6.95047474 4.76520182,7.24479412 4.96296711,7.53156685 C5.1795672,7.84097953 5.33024552,8.26359197 5.52801081,8.62583121 C5.79169787,9.12391016 5.75402829,9.19183001 5.11364543,9.16164341 C4.83112359,9.14655011 4.58627132,9.13145681 4.41675821,9.34276303 C4.49209737,9.48614939 4.63335829,9.46350944 4.76520182,9.45596279 C5.1701498,9.42577619 5.58451518,9.38804293 5.98004576,9.50878935 C6.30965459,9.61444246 6.62984601,9.78801542 6.56392425,10.0974281 C6.49800248,10.4370274 6.11188929,10.3464676 5.81053266,10.3464676 C5.74461089,10.3464676 5.65985434,10.3087343 5.61276736,10.3238276 C5.06655846,10.5049472 4.33200166,10.3842008 4.09656678,11.0558527 C3.96472325,11.4331853 3.48443611,11.6067583 2.98531418,11.6822248 C2.5897836,11.742598 2.19425301,11.8180645 1.80813982,11.9161709 C1.16775697,12.0821972 1.1112526,12.1576638 1.28076571,12.693476 C1.52561797,13.4556877 1.76105285,14.2254461 2.31667915,14.897098 C2.62745318,15.2668839 2.44852268,15.5612032 1.98707032,15.4932834 C1.15833957,15.372537 0.734556803,15.8555226 0,16.0970154 C0.51795672,16.2630418 0.932322095,16.2705884 1.25251352,16.5120812 C2.11891385,17.1686398 1.8552268,18.0440513 2.0341573,18.8364497 C2.06240948,18.9647427 1.87406159,19.0553025 1.74221806,19.153409 C0.922904701,19.7420477 0.951156885,20.9872451 1.83639201,21.4626841 C2.27900957,21.7041769 2.53327923,22.0513229 2.90055763,22.330549 C3.18307948,22.5418552 3.12657511,22.7229748 2.957062,22.9795609 C2.60861839,23.5002798 2.74987931,23.9379856 3.40909696,24.1794784 C3.82346233,24.3304114 4.03064502,24.5643576 4.22841031,24.8586769 C5.01005409,25.9755813 5.57509778,27.1679521 6.20606324,28.3452296 C6.52625467,28.941415 7.18547231,29.3715741 7.392655,30.0356794 C7.54333332,30.5262117 7.90119432,30.9488241 8.43798583,31.3035167 C8.8617686,31.5827428 9.29496877,31.922342 9.49273406,32.3826877 C10.0295256,33.6278851 10.7358302,34.797616 11.9412567,35.7183074 C12.3179525,36.0050801 12.3838743,36.1937464 11.9695089,36.5107057 C11.3856304,36.9559581 11.0842738,37.5370502 10.9995172,38.1785155 C10.9712651,38.3747284 10.9524303,38.5633947 10.8205867,38.729421 C10.4533083,39.1746734 10.3214648,39.5897392 10.8582563,40.0425382 C11.0842738,40.2387512 11.159613,40.5028839 10.6981606,40.6990968 C10.1236995,40.9481363 9.85059507,41.431122 9.92593423,41.9367476 C10.0106908,42.4348265 9.73758633,42.7140526 9.40797751,43.0838385 C8.8617686,43.6951172 8.35322928,44.3667691 8.25905533,45.1440741 C8.22138575,45.4685801 8.3249771,45.7779928 7.95769869,46.0345789 C7.79760298,46.1477787 7.77876819,46.3666316 7.92944651,46.487378 C8.3155597,46.7967906 8.52274239,47.2043098 8.84293381,47.5439091 C8.90885558,47.6118289 9.45506448,48.6834533 9.43622969,48.7664665 C9.25729919,49.3928385 9.69049936,50.0343038 9.27613398,50.6757691 C9.03128171,51.0531017 9.73758633,51.6115538 10.2743778,51.4983541 C11.2443695,51.3021411 12.2708656,51.370061 13.1937703,50.9625419 C13.5233791,50.8191555 13.9848314,50.8493421 14.3709446,50.7361423 C14.6911361,50.6455825 14.8700666,50.7738756 14.9359883,51.0380084 C15.0489971,51.4832608 15.3409363,51.8455 15.7364669,52.2454725 C15.811806,52.0869928 15.858893,52.019073 15.8871452,51.9436065 C16.2073366,51.0078218 16.4898585,50.8267021 17.7047024,50.8568887 C17.9495547,50.8644354 18.0719808,50.7663289 18.1755722,50.6153959 C18.2697461,50.4720096 18.3356679,50.2908899 18.6087723,50.3437165 C18.9007116,50.4040897 18.9195464,50.6078493 18.9666333,50.7965155 C19.0325551,51.0380084 19.0137203,51.2795012 18.9383812,51.520994 C18.8253724,51.8983265 18.9007116,52.2756591 19.0702247,52.645445 C19.2020682,52.9322177 19.3809987,53.0378708 19.7953641,53.0831507 C20.8595297,53.2038971 21.8766084,53.120884 22.893687,52.8567512 C23.2421306,52.7661914 23.5999916,52.8416579 23.7130004,53.1661639 C23.8071743,53.4453899 23.609409,53.6491495 23.251548,53.6868828 C22.6959217,53.747256 22.7712609,54.0264821 22.8371826,54.4641878 C23.1762089,54.0113888 23.5529047,53.7774426 24.0802788,53.898189 C24.7677486,54.0566687 24.3628006,54.6075742 24.6359051,55 C25.0973574,54.6226675 25.6247315,54.5622943 26.20861,54.7358672 C26.5476362,54.8339737 26.8772451,54.7736005 27.2068539,54.6830407 C28.1015064,54.4415478 29.0338285,54.2453349 29.8060549,53.7925359 C30.0320723,53.6642428 30.239255,53.7019761 30.4841073,53.724616 C31.3316728,53.7925359 31.3975946,53.747256 31.5953599,53.0227775 C31.6801165,52.7133648 31.859047,52.6529916 32.1604036,52.8114713 C32.4900124,52.9850443 32.7913691,53.2189904 33.2622388,53.1359773 C32.8572908,52.622805 32.8949604,52.4869653 33.4317519,52.4869653 C34.816109,52.4794187 36.1251269,52.8039246 37.6978318,53.0605108 C36.4453183,53.6114163 35.3434831,53.1435239 34.0721348,53.2642703 C34.6089263,53.4680299 34.9479525,53.5284031 35.2775613,53.4755766 C36.0686225,53.3472835 36.8502663,53.5133098 37.6036579,53.6114163 C38.1027798,53.6793361 38.6019017,53.724616 39.1010236,53.7170694 C39.4871368,53.7095227 39.8355804,53.7623493 40.2028588,53.8302691 C41.803816,54.1170419 43.3953557,54.2981615 44.9115563,53.5661364 C45.0904868,53.4755766 45.3165043,53.5510431 45.5048522,53.5284031 C46.2299916,53.4378433 46.9928006,53.6491495 47.6896878,53.40011 C48.2641489,53.1888038 48.8762796,53.1888038 49.4884102,53.1510706 C51.9651851,52.9774976 54.4419599,53.2567237 56.9187348,53.2340837 C58.3407614,53.2189904 59.7722055,53.1510706 61.1848147,53.3472835 C61.5144235,53.3925634 61.740441,53.2567237 62.1171368,53.0303242 C60.3466665,52.9095777 58.7645442,52.622805 57.1353349,52.7209115 C56.6267956,52.7510981 55.9864127,52.6001651 55.6379691,52.796378 C55.0729254,53.1057907 54.5926383,52.8793911 54.0840989,52.8793911 C53.9145858,52.8793911 53.7356553,52.8492045 53.6697336,52.6982715 C53.5943944,52.5020586 53.7639075,52.3888588 53.9334206,52.3058457 C54.0746815,52.2379258 54.2441946,52.2001926 54.4137078,52.1775526 C55.2141863,52.0794462 56.0052475,51.9888864 56.8245609,52.0266196 C57.6721264,52.0718995 58.5385267,52.0945395 59.3672575,51.9813397 C61.2978234,51.7247536 63.2283894,51.7624868 65.1683727,51.7323002 C65.3755554,51.7323002 65.6109903,51.7247536 65.7428338,51.8605933 C66.0724426,52.1926459 66.5150602,52.1398194 66.9576778,52.1624593 C67.7299041,52.1926459 68.4832957,52.0718995 69.2743569,52.1322727 C69.7169745,52.1624593 70.1784268,52.3511256 70.6210444,52.2681124 C71.7888014,52.0492596 72.9753931,52.0417129 74.1619849,52.019073 C74.7270286,52.0115263 75.2261505,51.9285131 75.7252724,51.4681675 C74.4068371,51.8681399 73.2014106,51.5738206 71.9865666,51.6115538 C70.7905575,51.6492871 69.5662962,51.9209665 68.1442695,51.520994 C68.7846524,51.3021411 69.0671742,50.8493421 69.5945483,51.0078218 C70.159592,51.1738481 70.5362878,51.2115813 70.658714,50.6304892 C70.6681314,50.5776627 70.8188097,50.5021962 70.9035662,50.5021962 C71.5251143,50.5097428 72.2408363,50.1475036 72.7211234,50.7965155 C72.8623844,50.9851818 73.1354888,50.9323553 73.3803411,50.9097153 C74.1902371,50.8417954 75.0095504,50.8644354 75.810029,50.8116088 C77.8441863,50.6757691 79.9536827,51.1436615 81.9125009,50.3814497 C83.5699624,50.2908899 85.1897543,49.9135574 86.875468,49.9890239 C87.1768246,50.0041172 87.6759466,50.0418505 87.7512857,49.9286507 C88.1373989,49.3852919 88.7495296,49.6116914 89.2769037,49.5362249 C89.8419474,49.4607584 90.4352433,49.5135849 91.000287,49.468305 C93.6842445,49.2569988 96.3682021,49.2796387 99.0521596,49.2494521 C100.069238,49.2419055 101.095734,49.2268122 102.112813,49.1890789 C102.508344,49.1739856 103.016883,49.2645454 103.092222,48.7136399 C103.120474,48.517427 103.572509,48.4268672 103.798527,48.517427 C104.608423,48.8268397 105.427736,48.4570538 106.265884,48.6004402 C107.160537,48.7589198 108.139946,48.5778002 109.081685,48.5476136 C109.57139,48.5325203 110.023425,48.4646005 110.409538,48.2080143 C110.710894,48.0042548 111.097008,47.9589749 111.473703,48.0193481 C111.888069,48.0872679 112.283599,48.0495347 112.688547,48.0268947 C113.809217,47.9665215 114.929887,47.9287883 116.050557,47.8684151 C118.084715,47.7627619 120.118872,47.8684151 122.162447,47.6797488 C123.123021,47.589189 124.130682,47.1363899 125.138343,47.566549 C125.194848,47.589189 125.336109,47.5288158 125.420865,47.4910825 C125.8729,47.2344964 126.400274,47.2873229 126.908814,47.2722296 C129.395006,47.2118564 131.871781,47.2194031 134.348556,47.4458026 C134.753504,47.4835359 135.139617,47.5816423 135.5634,47.5514557 C137.211444,47.415616 138.868905,47.415616 140.516949,47.5740957 C141.402184,47.6571088 142.268585,47.6344689 143.15382,47.5514557 C144.152064,47.4533493 145.187977,47.3552428 146.157969,47.7552153 C146.327482,47.8231351 146.553499,47.8457751 146.751265,47.8382284 C147.693004,47.8080418 148.625326,47.740122 149.567066,47.740122 C150.621814,47.740122 151.695397,47.7023887 152.712476,47.8608684 C153.964989,48.0570813 155.208085,47.9967081 156.451182,47.9891615 C157.157486,47.9891615 157.863791,47.9061483 158.570095,48.0570813 C158.758443,48.0948146 158.975043,48.0948146 159.172809,48.0721746 C159.982705,47.9816148 160.802018,48.0193481 161.602497,48.0721746 C163.372967,48.192921 165.13402,48.1702811 166.895072,48.1099079 C168.317099,48.064628 169.748543,48.0042548 171.17057,48.0495347 C173.647345,48.1325478 176.105285,48.3212141 178.591477,48.1325478 C180.540878,47.9816148 182.509113,47.9287883 184.467931,47.8306818 C184.844627,47.8155885 185.193071,47.7325753 185.550932,47.6722021 C186.257236,47.5590024 186.935289,47.3854294 187.698098,47.3929761 C189.148377,47.415616 190.645742,47.4231627 192.039517,47.1514832 C193.216691,46.9175371 194.337361,46.638311 195.57104,46.6760442 C196.616371,46.7062308 197.708789,46.4798313 198.71645,46.6307643 C199.761781,46.789244 200.797694,46.8798038 201.843025,46.9024438 C202.671756,46.9250837 203.330973,47.3778828 204.159704,47.3854294 C204.734165,47.3929761 205.336878,47.3552428 205.883087,47.4759892 C207.088514,47.7552153 208.312775,47.8306818 209.546454,47.8608684 C211.00615,47.891055 212.494099,47.7552153 213.878456,48.2306543 C214.867282,48.5702536 215.856109,48.5928935 216.892022,48.517427 C217.438231,48.4796938 217.956188,48.66836 218.483562,48.7513732 C219.632484,48.9249462 220.83791,48.7211866 221.920911,49.0305993 C223.776138,49.5513182 225.725538,49.4381184 227.618435,49.7399844 C228.899201,49.943744 230.245888,49.966384 231.573741,50.0192105 C232.863924,50.0720371 234.144689,50.1097703 235.44429,50.0795837 C236.357777,50.0569438 237.280682,50.1248636 238.184752,50.2531567 C239.512605,50.4342763 239.842213,50.4267297 240.953466,49.8305442 C241.170066,49.7173445 241.405501,49.7097978 241.640936,49.7475311 C242.592093,49.9135574 243.524415,49.5664115 244.475572,49.7097978 C244.673337,49.7399844 244.955859,49.6871579 244.927607,49.4833983 C244.84285,48.992866 245.153624,48.9249462 245.643329,48.9626794 C245.803424,48.9777727 245.972937,48.9249462 245.991772,48.7438265 C245.662163,48.4646005 245.181876,48.6985466 244.833433,48.5476136 C243.825771,48.1250012 242.723936,48.2382009 241.659771,48.1702811 C241.367831,48.1476411 241.094727,48.2004677 241.08531,47.8835084 C241.075892,47.6193756 241.160649,47.3854294 241.556179,47.3476962 C241.857536,47.3175095 242.16831,47.2948696 242.469667,47.2948696 C244.758094,47.2873229 247.055938,47.4986292 249.344365,47.3401495 C249.344365,46.464738 249.32553,46.4194581 248.308451,46.3288983 C247.639816,46.2760717 247.018268,46.0270323 246.311964,46.1175921 C246.048277,46.1553253 245.671581,46.0194856 245.53032,45.687433 C246.038859,45.4836734 246.509729,45.6044198 246.971181,45.6270598 C247.234868,45.6346064 247.33846,45.5289533 247.413799,45.3704737 C247.51739,45.1516208 247.30079,45.0761543 247.112442,45.0233277 C246.415555,44.8195682 245.690416,44.6988217 244.955859,44.5931686 C244.729841,44.562982 244.466154,44.562982 244.475572,44.2309294 C245.210129,44.0573564 246.085946,44.1705562 246.698077,43.6724772 C246.726329,43.6498373 246.820503,43.6875705 246.886425,43.7026638 C247.055938,43.7479437 247.244286,43.763037 247.291373,43.5894641 C247.33846,43.4234378 247.150112,43.3555179 246.980599,43.332878 C246.848755,43.310238 246.707494,43.3253313 246.575651,43.310238 C246.39672,43.2875981 246.264877,43.2045849 246.246042,43.0461052 C246.21779,42.8423457 246.283712,42.6536794 246.500312,42.5404796 C246.65099,42.4574665 246.848755,42.4876531 246.961764,42.6083995 C247.347877,43.0385586 247.865834,42.9102655 248.214277,42.683866 C248.713399,42.35936 249.240774,42.4046399 249.626887,42.6159461 C250.182513,42.9178122 250.606296,42.7215992 251.048913,42.5480263 C251.491531,42.3744533 251.510366,42.1782404 251.105418,41.8763744 C250.954739,41.7631746 250.766392,41.6650681 250.738139,41.4990418 C250.6628,41.106616 250.40853,40.9405897 249.899991,40.9858696 C249.749313,41.0009629 249.570382,40.9254964 249.419704,40.8651232 C249.156017,40.7519234 249.203104,40.5481638 249.212521,40.3594976 C249.221939,40.1708313 249.391452,40.2010179 249.560965,40.1632846 C250.135426,40.0274449 250.70047,39.8463253 251.265513,39.680299 C251.482114,39.6123791 251.548035,39.4614461 251.5292,39.2803265 C251.482114,38.902994 251.425609,38.5256614 251.38794,38.1407822 C251.35027,37.8087296 251.143087,37.6125167 250.719305,37.6879832 C250.352026,37.7559031 250.078922,37.6804366 249.994165,37.4163038 C249.899991,37.1446244 249.532713,37.1144377 249.400869,36.8955849 C249.683391,36.525799 250.248435,36.4654258 250.549791,36.1031865 C251.38794,35.0919354 252.913558,34.9938289 253.996558,35.8541471 C254.439176,36.201293 255.023054,36.374866 255.559846,36.2918528 C256.030715,36.2163863 256.416828,36.1333732 256.850029,36.352226 C257.000707,36.4276925 257.273811,36.4880657 257.367985,36.2767595 C257.471577,36.0352667 257.245559,35.9748935 256.99129,35.899427 C256.30382,35.6805741 255.823533,35.2956949 255.672854,34.7296961 C255.814115,34.5712164 255.945959,34.6089497 256.08722,34.6089497 C256.91595,34.6164964 257.019542,34.5334832 257.000707,33.8542846 C256.99129,33.3788456 257.584585,33.0166064 258.196716,33.1675394 C258.450986,33.2279126 258.695838,33.3939389 258.968942,33.3109258 C259.364473,33.1901794 259.684664,33.2580992 259.995439,33.4694054 C260.193204,33.6052452 260.419221,33.6882583 260.588734,33.4543121 C260.767665,33.2128193 260.513395,33.1147129 260.306213,33.024153 C260.193204,32.9713265 260.070778,32.9109533 259.938934,32.89586 C259.279716,32.8053002 259.063116,32.4581542 259.053699,31.9751686 C259.986021,31.771409 260.871256,31.620476 261.351543,32.8279401 C261.624648,31.9374353 262.0861,31.5902894 262.961918,31.7789557 C263.037257,31.794049 263.187935,31.7563157 263.235022,31.6959425 C263.630553,31.2280502 264.242684,31.4242631 265.005493,31.4091698 C264.299188,31.1601303 264.073171,30.7677045 263.715309,30.4809317 C263.46104,30.2696255 263.592883,30.0583193 263.960162,30.0583193 C264.299188,30.0583193 264.628797,30.1111459 264.920736,29.9073863 C265.363354,29.5979736 265.871893,29.5300538 266.446354,29.5828803 C266.757128,29.6130669 267.067902,29.5753337 267.425763,29.567787 C267.284502,29.3791207 267.124406,29.3413875 266.964311,29.2961076 C266.634702,29.2055478 266.088493,29.2810143 266.210919,28.8282152 C266.31451,28.443336 265.645875,28.3376829 265.843641,27.9603504 C266.13558,27.4018982 266.229754,26.7679796 266.917224,26.3755537 C267.397511,26.1038743 267.51052,25.5227822 267.077319,25.288836 C266.728876,25.1001698 266.738293,24.8737703 266.597032,24.6398241 C266.342763,24.187025 266.276841,23.6663061 265.730632,23.2889736 C266.003736,23.2210537 266.182667,23.1682272 266.380432,23.1229473 C265.862476,22.8512679 265.127919,23.107854 264.609962,22.6399616 C265.240927,22.4965753 265.787136,22.3758289 266.342763,22.2475358 C265.805971,21.6513504 266.079076,21.3872176 267.331589,20.6400992 C266.879554,20.5344461 266.465189,20.4136997 266.031989,20.4740729 C265.476362,20.557086 265.184423,20.2929533 264.996075,19.9684473 C264.817145,19.6514879 265.316267,19.6137547 265.457528,19.4250884 C265.824806,18.9496494 266.465189,19.0251159 266.992563,18.8817296 C267.124406,18.8439963 267.265667,18.7836231 267.246833,18.6628767 C267.209163,18.4742104 267.011398,18.4742104 266.851302,18.5345836 C266.144997,18.7836231 265.410441,18.851543 264.657049,18.7232499 C264.073171,18.6251434 263.498709,18.4591171 262.933666,18.7911698 C262.858327,18.8364497 262.669979,18.7383432 262.547553,18.7534365 C261.794161,18.8590896 261.125526,18.4364772 260.3533,18.527037 C260.070778,18.5647702 259.807091,18.2779975 259.769421,18.051598 C259.722334,17.7723719 260.089612,17.6818121 260.343882,17.7195453 C260.918343,17.8025585 261.502222,17.6214389 262.057848,17.8176518 C262.3027,17.9082116 262.575805,17.9082116 262.77357,17.7421853 C262.745318,17.576159 262.632309,17.5157858 262.509883,17.4629592 C262.359205,17.402586 262.170857,17.3573061 262.217944,17.1837331 C262.255613,17.0101602 262.453379,17.0177068 262.613474,16.9875202 C262.858327,16.9346937 263.169101,17.0252535 263.366866,16.7082942 C262.943083,16.6479209 262.717066,16.3611482 262.34037,16.2328552 C261.568143,15.9611757 261.568143,15.9536291 261.935422,15.3272571 C262.293283,14.7159784 262.453379,14.6706985 263.263275,14.874458 C263.875405,15.0329377 264.496953,15.1536841 265.203258,15.1763241 C265.061997,14.9650178 264.704136,14.9046446 264.770058,14.7008851 C264.854814,14.4442989 265.165588,14.5801386 265.382188,14.5650453 C266.088493,14.4971255 266.82305,14.5046721 267.491685,14.3461925 C268.791285,14.0367798 270.109721,13.795287 271.456408,13.6820872 C271.682426,13.6594473 271.927278,13.6368073 272.021452,13.4104078 C271.418739,13.319848 270.844277,13.168915 270.232147,13.1613683 C269.902538,13.1613683 269.610599,13.0330752 269.582347,12.7463025 C269.554094,12.5048097 269.864868,12.4897164 270.062634,12.3916099 C270.65593,12.0972905 271.258643,11.870891 271.974365,11.9312642 C272.087374,11.9388109 272.256887,11.9539042 272.266304,11.7350513 C271.494078,11.4633719 270.505251,11.9463575 269.695355,11.3577188 C270.36399,11.0407594 271.032625,11.0181195 271.654173,10.9879329 C272.190965,10.920013 272.482904,10.5879604 272.8596,10.3389209 Z M247.978843,40.4047775 C247.875251,40.608537 247.658651,40.5632571 247.376129,40.5708038 C247.103025,40.5255239 246.745164,40.4877906 246.39672,40.4047775 C246.227207,40.3670442 246.133033,40.2236579 246.161285,40.0878181 C246.189538,39.9444318 246.359051,39.8387787 246.528564,39.8689653 C246.980599,39.9368851 247.432634,40.0349916 247.865834,40.1406447 C247.997677,40.1708313 248.035347,40.2840311 247.978843,40.4047775 Z M248.816991,41.5065885 C248.713399,41.4914952 248.647478,41.431122 248.685147,41.3481088 C248.703982,41.3103756 248.788739,41.280189 248.845243,41.280189 C248.939417,41.2726423 249.024173,41.3028289 249.033591,41.4009354 C249.005339,41.4839485 248.920582,41.5216818 248.816991,41.5065885 Z" id="Shape" fill="#EA842F"></path>
                    <path d="M178.995171,3 C178.995171,3 178.995171,3 178.995171,3 L178.995171,3 C179.008048,3 179.008048,3 178.995171,3 Z" id="Path" fill="#C2C4C6"></path>
                    <path d="M177.795736,2.77931034 C177.052957,2.83448276 176.328748,2.66896552 175.595254,2.64137931 C173.459766,2.55862069 171.314993,2.66206897 169.18879,2.45517241 C168.891678,2.42758621 168.585282,2.44827586 168.278886,2.45517241 C167.071871,2.47586207 165.855571,2.46206897 164.667125,2.39310345 C162.800894,2.28275862 160.925378,2.13103448 159.059147,2.11724138 C156.394429,2.08965517 153.720426,2.07586207 151,2 C151.250688,2.20689655 151.52923,2.17241379 151.779917,2.16551724 C152.819807,2.14482759 153.850413,2.23448276 154.881018,2.28965517 C157.685007,2.44137931 160.507565,2.42068966 163.311554,2.57931034 C165.279917,2.68965517 167.257565,2.66206897 169.235213,2.70344828 C171.500688,2.75172414 173.766162,2.8137931 176.022352,2.88275862 C176.681568,2.90344828 177.368638,2.75172414 178,3 C177.972146,2.90344828 177.953576,2.76551724 177.795736,2.77931034 Z" id="Path" fill="#C2C4C6"></path>
                    <path d="M82.7475728,2.63870181 C83.4368932,2.66093554 84.1359223,2.62758494 84.815534,2.74987048 C86.0097087,2.9833247 87.1941748,3.28348012 88.3106796,2.44971506 C88.5533981,2.26072832 88.8349515,2.27184518 89.1165049,2.27184518 C89.368932,2.27184518 89.6504854,2.42748133 90,2.08285844 C89.4563107,2.0606247 89.0485437,1.94945603 88.592233,2.0272741 C87.3300971,2.24961145 86.0873786,2.70540301 84.776699,2.36078012 C84.5145631,2.29407892 84.223301,2.38301386 83.9417476,2.4385982 C83.2912621,2.56088374 82.6407767,2.54976687 82,2.38301386 C82.2038835,2.67205241 82.4757282,2.62758494 82.7475728,2.63870181 Z" id="Path" fill="#C2C4C6"></path>
                    <path d="M82.0257547,2.01 C82.0128774,2 82.0128774,2 82,1.99 L81.9742453,2.01 C81.9871226,2.01 82.0128774,2.01 82.0257547,2.01 Z" id="Path" fill="#C2C4C6"></path>
                    <path d="M55.4315789,1.71506929 C57.5894737,1.601097 59.7473684,1.43013857 62,1.07397518 C59.3894737,0.81753754 56.9157895,1.28767322 54.4210526,1.57260393 C54.2,1.601097 54.1052632,1.8005485 54,2 C54.4421053,1.64383661 54.9473684,1.74356236 55.4315789,1.71506929 Z" id="Path" fill="#C2C4C6"></path>
                    <path d="M55.004829,1.99777778 C54.9919517,1.99777778 54.9919517,1.99777778 55.004829,1.99777778 L55.004829,1.99777778 C54.9919517,2.00777778 54.9919517,1.99777778 55.004829,1.99777778 Z" id="Path" fill="#C2C4C6"></path>
                    <path d="M184.935613,3.005 C184.961368,3.005 184.987123,3.005 185.012877,3.005 C185.012877,3.005 185.012877,3.005 185.012877,3.005 C185.025755,3.005 185.038632,3.005 185.064387,3.015 C185.064387,3.005 185.051509,2.995 185.051509,2.985 C185.012877,2.995 184.974245,2.995 184.935613,3.005 Z" id="Path" fill="#C2C4C6"></path>
                    <path d="M179,2.40798939 C179.821656,2.37134745 180.633758,2.32249151 181.44586,2.32249151 C181.904459,2.32249151 182.410828,2.20035169 182.735669,2.84769278 C182.83121,3.0431165 183.041401,3.03090252 183.203822,2.92097667 C183.767516,2.5423432 184.407643,2.59119914 185,2.40798939 C183.347134,2.28584957 181.694268,2.16370974 180.041401,2.00492796 C179.649682,1.96828601 179.315287,2.13928177 179,2.40798939 Z" id="Path" fill="#C2C4C6"></path>
                    <path d="M124.057778,1.03881677 C124.573333,1.03881677 125.088889,1.06877516 125.595556,1.03881677 C126.057778,1.01634797 126.555556,1.18111912 127,0.956431191 C124.982222,1.06128556 122.973333,0.866556018 121,0.941451996 C121.506667,0.978899985 122.013333,1.03881677 122.52,1.06128556 C123.035556,1.07626476 123.542222,1.04630636 124.057778,1.03881677 Z" id="Path" fill="#C2C4C6"></path>
                    <path d="M13.5832332,52.5434653 C12.9530005,52.3878284 12.3126027,52.2218158 11.68237,52.0661789 C11.4790691,52.0143 11.2351081,51.9105421 11.0927975,52.1595611 C10.9708169,52.3567011 10.9708169,52.5953442 11.0826324,52.80286 C11.224943,53.0622547 11.4892342,52.9688726 11.672205,52.9066179 C12.4650784,52.6160958 13.2376217,52.7613568 14,53 C13.9593398,52.7509811 13.8170292,52.60572 13.5832332,52.5434653 Z" id="Path" fill="#C2C4C6"></path>
                    <path d="M13.9971384,53 C13.9971384,53 13.9971384,53 13.9971384,53 C13.9971384,53 13.9971384,53 13.9971384,53 C13.9971384,53 14.0100157,53 13.9971384,53 C13.9971384,53 13.9971384,53 13.9971384,53 C13.9971384,53 13.9971384,53 13.9971384,53 Z" id="Path" fill="#C2C4C6"></path>
                    <path d="M151,2.0629858 C149.333333,2.04800661 147.687371,1.77089149 146,1.95064184 C147.666667,2.02553781 149.322981,2.19030896 151,2.0629858 Z" id="Path" fill="#C2C4C6"></path>
                    <path d="M265,17.1388425 C263.641791,16.7530465 262.820896,17.2259578 262,17.8855445 C263.179104,18.1842253 264.059701,17.8855445 265,17.1388425 Z" id="Path" fill="#C2C4C6"></path>
                    <path d="M101.806794,1.09138963 C103.208068,1.06143124 104.598726,1.03896244 106,1.00900405 C104.333333,0.994024858 102.656051,1.02398325 101,0.904149684 C101.201699,1.12134802 101.509554,1.09887923 101.806794,1.09138963 Z" id="Path" fill="#C2C4C6"></path>
                    <path d="M53,2.09461153 C53.7926421,2.07963234 54.8862876,2.05716355 56,2.03469475 C54.8762542,1.74260044 53.7826087,2.02720515 53,2.09461153 Z" id="Path" fill="#C2C4C6"></path>
                    <path d="M52.2071749,1.99292893 C52.0565022,1.99292893 51.9152466,2.00292893 51.7928251,2.00292893 C51.9152466,2.01292893 52.0565022,2.00292893 52.2071749,1.99292893 Z" id="Path" fill="#C2C4C6"></path>
                    <path d="M265,15.0098078 C266.018349,15.2494749 267.022936,15.2120269 268,14.9199326 C266.96789,14.6652863 266.018349,15.0547454 265,15.0098078 Z" id="Path" fill="#C2C4C6"></path>
                    <path d="M63,53.000242 C63.9680851,53.0826275 64.9468085,53.1500339 66,52.9927524 C64.9574468,52.9553044 63.9787234,52.8279812 63,53.000242 Z" id="Path" fill="#C2C4C6"></path>
                    <path d="M37,54.8758761 C38.4926108,55.2203976 38.6995074,55.2353768 40,55.0406473 C38.9655172,54.8758761 38.0935961,54.7710218 37,54.8758761 Z" id="Path" fill="#C2C4C6"></path>
                    <path d="M138,0.936338419 C137,0.958807212 136,0.981276006 135,1.0037448 C135,1.02621359 135,1.04119279 135,1.06366158 C136,1.04119279 137,1.01872399 138,0.996255201 C138,0.973786408 138,0.951317614 138,0.936338419 Z" id="Path" fill="#C2C4C6"></path>
                    <path d="M40,2.89174545 C38.88,2.80935987 37.9733333,3.12392298 37,3.0565166 C37.9866667,3.22128775 38.92,3.0415374 40,2.89174545 Z" id="Path" fill="#C2C4C6"></path>
                    <path d="M73.1836323,1.99136595 C73.0612108,1.97136595 72.9387892,1.97136595 72.8163677,2.01136595 C72.9387892,2.03136595 73.0612108,2.02136595 73.1836323,1.99136595 Z" id="Path" fill="#C2C4C6"></path>
                    <path d="M76,3.07675381 C75.6285714,2.7696803 75.3071429,2.91947226 75,2.97938904 C75.3,3.00934743 75.6142857,3.18160818 76,3.07675381 Z" id="Path" fill="#C2C4C6"></path>
                    <path d="M114,0.959212556 C113,0.979212556 112,0.999212556 111,1.01921256 C112.0125,1.07921256 113.0125,0.999212556 114,0.959212556 Z" id="Path" fill="#C2C4C6"></path>
                    <path d="M14,53.0123518 C14.3221477,53.0348206 14.6510067,53.2370397 15,53.0572894 C14.6442953,52.6977887 14.3221477,52.952435 14,53.0123518 Z" id="Path" fill="#C2C4C6"></path>
                    <path d="M13.8634529,53.0062132 C13.9576233,53.0162132 14.0423767,53.0062132 14.1365471,52.9962132 C14.0423767,52.9862132 13.9482063,52.9862132 13.8634529,53.0062132 Z" id="Path" fill="#C2C4C6"></path>
                    <path d="M131,0.95 C130.666667,0.965803212 130.333333,0.981606425 130,0.989508031 C130.333333,1.04481927 130.666667,1.10803212 131,0.95 Z" id="Path" fill="#C2C4C6"></path>
                    <path d="M100,0.95 C99.6632124,0.968703635 99.3316062,0.987407269 99,0.996759086 C99.3367876,1.0061109 99.6735751,1.13703635 100,0.95 Z" id="Path" fill="#C2C4C6"></path>
                    <path d="M98.8446188,1.005 C98.9482063,1.005 99.0517937,0.995 99.1553812,0.995 C99.0517937,0.995 98.9482063,0.995 98.8446188,1.005 Z" id="Path" fill="#C2C4C6"></path>
                    <path d="M102.012877,1.005 C102.025755,1.005 102.038632,1.005 102.038632,1.005 C102.038632,1.005 102.025755,0.995 102.025755,0.995 C102,1.005 101.974245,1.005 101.961368,1.005 C101.974245,1.005 102,1.005 102.012877,1.005 C102.012877,1.005 102.012877,1.005 102.012877,1.005 Z" id="Path" fill="#C2C4C6"></path>
                    <path d="M105,1.92770848 C104.648936,1.86779169 104.329787,1.90523968 104,1.94268767 C104.606383,2.15988601 104.606383,2.15988601 105,1.92770848 Z" id="Path" fill="#C2C4C6"></path>
                    <path d="M140,1.93286006 C139.666667,1.94034966 139.333333,1.94783925 139,1.95532885 C139.00813,1.97779764 139.02439,2.00026644 139.04065,2.03771443 C139.349593,2.09763121 139.666667,2.06767282 140,1.93286006 Z" id="Path" fill="#C2C4C6"></path>
                    <path d="M42,2.95 C41.6940299,2.95823379 41.3880597,2.96646757 41,2.98293515 C41.3955224,3.14761089 41.6940299,2.95823379 42,2.95 Z" id="Path" fill="#C2C4C6"></path>
                    <path d="M36,3.89091055 C35.6666667,3.84597296 35.4102564,3.96580653 35,4.10061929 C35.4444444,4.09312969 35.7606838,4.22045285 36,3.89091055 Z" id="Path" fill="#C2C4C6"></path>
                    <path d="M134,1.005 C134,0.995 134,0.985 134,0.965 C133.67,0.975 133.33,0.985 133,0.995 C133,1.005 133,1.015 133,1.035 C133.33,1.025 133.66,1.015 134,1.005 Z" id="Path" fill="#C2C4C6"></path>
                    <path d="M162,3.01 C162,3.01 162.025755,2.99 162.025755,2.99 C162.012877,2.99 161.987123,3 161.974245,3 C161.974245,3.01 161.987123,3.01 162,3.01 Z" id="Path" fill="#C2C4C6"></path>
                    <path d="M160.744592,2.98127601 C160.744592,2.86144244 160.653375,2.77905687 160.324993,2.77905687 C160.106072,2.77905687 159.996611,2.83897365 160.014854,2.92884882 C160.051341,3.04119279 159.83242,3.22094313 160.36148,3.22094313 C160.580401,3.22094313 160.781079,3.17600555 161,3.14604716 C160.799322,3.11608877 160.744592,3.05617198 160.744592,2.98127601 Z" id="Path" fill="#C2C4C6"></path>
                    <path d="M118,0.965 C117.670213,0.975 117.340426,0.985 117,0.995 C117,1.005 117,1.015 117,1.035 C117.329787,1.025 117.659574,1.015 118,1.005 C118,0.985 118,0.975 118,0.965 Z" id="Path" fill="#C2C4C6"></path>
                    <path d="M82,2.05 C82,2.01923077 82,1.98846154 82,1.95 C81.6696429,1.95769231 81.3303571,1.96538462 81,1.97307692 C81,1.98846154 81,2.01153846 81,2.02692308 C81.3303571,2.03461538 81.6607143,2.04230769 82,2.05 Z" id="Path" fill="#C2C4C6"></path>
                    <path d="M66,1.98 C65.6712329,1.99 65.3287671,1.99 65,2 C65,2.01 65,2.01 65,2.02 C65.3150685,2.01 65.630137,2.01 65.9589041,2 C65.9726027,1.99 65.9863014,1.98 66,1.98 Z" id="Path" fill="#C2C4C6"></path>
                    <path d="M20.916843,53.8012885 C20.8038385,53.8012885 20.7379192,53.8761845 20.7567533,53.9585701 C20.7850044,54.1008725 20.9074259,54.1907476 21.0863497,54.1982372 C21.1899372,54.2057268 21.2464394,54.1233412 21.2464394,54.0334661 C21.1993542,53.9061429 21.1146008,53.8012885 20.916843,53.8012885 Z" id="Path" fill="#C2C4C6"></path>
                    <path d="M44.990342,3.01010767 C45.0160967,3.00010767 45.0160967,2.97010767 44.990342,3.01010767 L44.990342,3.01010767 Z" id="Path" fill="#C2C4C6"></path>
                    <path d="M44.8876404,3.03744799 C44.9213483,3.03744799 44.9775281,3.02246879 44.988764,3.0074896 C44.988764,2.9925104 45,2.9850208 45,2.97753121 C44.988764,2.9850208 44.9550562,2.97753121 44.9101124,2.94757282 C44.6179775,2.97004161 44.3146067,2.9850208 44,3.0074896 C44,3.02246879 44,3.03744799 44,3.05242718 C44.3033708,3.05242718 44.5955056,3.04493759 44.8876404,3.03744799 Z" id="Path" fill="#C2C4C6"></path>
                    <path d="M143,1.975 C142.672131,1.985 142.327869,1.985 142,1.995 C142,2.005 142,2.015 142,2.025 C142.327869,2.015 142.672131,2.015 143,2.005 C143,1.995 143,1.985 143,1.975 Z" id="Path" fill="#C2C4C6"></path>
                    <path d="M57.3950617,2.95725591 C57.2716049,2.94976631 57.1481481,2.9797247 57,2.9947039 C57.0617284,3.02466229 57.0987654,3.04713108 57.1358025,3.04713108 C57.3950617,3.05462068 57.654321,3.06211028 57.9135802,3.06211028 C57.9382716,3.06211028 58,3.01717269 58,3.0096831 C57.8271605,2.88235993 57.5925926,2.96474551 57.3950617,2.95725591 Z" id="Path" fill="#C2C4C6"></path>
                    <path d="M49.2024664,1.97 C49.0800448,1.97 48.9576233,1.98 48.8257848,1.98 C48.8163677,1.98 48.8069507,2.01 48.7975336,2.03 C48.9293722,2.03 49.0612108,2.02 49.1930493,2.02 C49.2024664,2 49.2024664,1.99 49.2024664,1.97 Z" id="Path" fill="#C2C4C6"></path>
                    <path d="M143.984678,2.08656485 C144.144768,2.10903364 144.229521,2.06409605 144.20127,2.03413766 C144.154185,1.98171048 144.060014,1.93677289 143.975261,1.9143041 C143.899925,1.8993249 143.749252,1.8993249 143.805754,2.01166887 C143.824588,2.06409605 143.965844,2.07907525 143.984678,2.08656485 Z" id="Path" fill="#C2C4C6"></path>
                    <path d="M155.954393,3.12290395 C156.05798,3.13788314 156.152151,3.11541435 156.199236,3.03302877 C156.21807,2.935664 156.161568,2.88323682 156.048563,2.87574722 C155.954393,2.86825762 155.831971,2.86825762 155.80372,2.9581328 C155.775469,3.03302877 155.841388,3.10792475 155.954393,3.12290395 Z" id="Path" fill="#C2C4C6"></path>
                    <path d="M40.7598655,55.0197589 C40.9199552,55.0283101 41.0800448,55.0967192 41.2401345,54.9941055 C41.1836323,54.9770033 41.12713,54.9427987 41.0800448,54.9513499 C40.9670404,54.959901 40.8634529,54.9941055 40.7598655,55.0197589 Z" id="Path" fill="#C2C4C6"></path>
                    <path d="M28.1520819,1.98212453 C28.1238307,1.95 28.0390774,1.95 27.9731581,1.95 C27.9260729,1.95 27.8884047,1.98212453 27.8413195,2.00621793 C27.9072388,2.0222802 27.9637411,2.03834247 28.0202433,2.0463736 C28.1144137,2.06243587 28.180333,2.0222802 28.1520819,1.98212453 Z" id="Path" fill="#C2C4C6"></path>
                    <path d="M88.9171431,1.02792893 C88.9736454,1.03792893 89.0489817,1.02792893 89.1054839,1.01792893 C89.114901,1.01792893 89.124318,0.987928932 89.1431521,0.977928932 C89.0772328,0.977928932 89.0207306,0.967928932 88.9548113,0.967928932 C88.8418068,0.977928932 88.8229727,1.00792893 88.9171431,1.02792893 Z" id="Path" fill="#C2C4C6"></path>
                    <path d="M95.019316,0.995 C95.0064387,0.995 95.0064387,0.995 94.980684,1.005 L94.980684,1.005 C94.9935613,1.005 95.019316,0.995 95.019316,0.995 Z" id="Path" fill="#C2C4C6"></path>
                    <path d="M82,1.9688947 C81.7126437,1.9464259 81.4252874,1.86404033 81,2.02132188 C81.4597701,2.12617625 81.7356322,2.05128027 82,1.9688947 Z" id="Path" fill="#C2C4C6"></path>
                    <path d="M82.0257547,1.99 C82.0128774,2 81.9871226,2 81.9742453,2.01 C81.9871226,2.01 81.9871226,2.01 82,2.01 C82,2 82.0257547,1.99 82.0257547,1.99 Z" id="Path" fill="#C2C4C6"></path>
                    <path d="M135.164798,1.00883143 C135.108296,0.989220955 135.051794,0.969610477 135.004709,0.95 C134.948206,0.969610477 134.891704,0.989220955 134.835202,0.999026194 C134.891704,1.01863667 134.948206,1.04805239 135.004709,1.04805239 C135.051794,1.05785763 135.108296,1.02844191 135.164798,1.00883143 Z" id="Path" fill="#C2C4C6"></path>
                    <path d="M139.95815,3.06218659 C140.005235,3.07716579 140.089988,3.07716579 140.118239,3.05469699 C140.202993,2.96482182 140.127656,2.92737383 140.024069,2.92737383 C139.967567,2.92737383 139.901647,2.94984262 139.845145,2.96482182 C139.873396,2.99478021 139.911064,3.0472074 139.95815,3.06218659 Z" id="Path" fill="#C2C4C6"></path>
                    <path d="M266.971749,20.035 C267.028251,20.035 267.09417,20.015 267.16009,20.015 C267.150673,19.995 267.131839,19.965 267.122422,19.965 C267.028251,19.975 266.934081,19.995 266.83991,20.015 C266.877578,20.015 266.924664,20.035 266.971749,20.035 Z" id="Path" fill="#C2C4C6"></path>
                    <path d="M17.8361702,51.9837725 C17.8173362,52.1036061 17.9397577,52.0886269 18.0339281,52.0736477 C18.0810133,52.0661581 18.1186815,52.0212205 18.1657667,51.9912621 C18.1092644,51.9613037 18.0527622,51.9163662 17.9962599,51.9163662 C17.9397577,51.9163662 17.8455873,51.9538141 17.8361702,51.9837725 Z" id="Path" fill="#C2C4C6"></path>
                </g>
                <path d="M75.647,34.47 C74.9469965,34.862002 73.6240097,34.9880007 71.678,34.848 L71.51,31.572 L73.232,31.698 L73.442,31.74 C73.7360015,31.7680001 73.883,31.6210016 73.883,31.299 L73.883,15.171 L76.739,15.36 L76.739,20.589 L77.096,21.807 C77.2360007,22.2690023 77.3689994,22.6609984 77.495,22.983 C78.0130026,22.4789975 78.5659971,21.8630036 79.154,21.135 C79.6860027,20.4909968 80.1619979,19.8540031 80.582,19.224 L83.06,21.387 L81.464,22.983 L80.8850231,23.5543406 C80.0415512,24.3749036 79.3105485,25.0314521 78.692,25.524 C79.3640034,26.6860058 80.1549954,27.7499952 81.065,28.716 C82.0170048,29.7380051 82.989995,30.5219973 83.984,31.068 L82.304,33.882 C81.1419942,33.1119961 80.0710049,32.125006 79.091,30.921 C78.1949955,29.8149945 77.4110034,28.5690069 76.739,27.183 L76.739,31.509 C76.739,33.0630078 76.3750036,34.0499979 75.647,34.47 Z M73.652,20.883 C73.2739981,23.6130136 72.6090048,26.0559892 71.657,28.212 C70.7049952,30.3820108 69.5990063,31.963995 68.339,32.958 L66.323,30.417 C68.2830098,29.0309931 69.6549961,26.5810176 70.439,23.067 L66.932,22.815 L66.932,19.812 L71.405,20.127 L71.888,20.043 L73.652,20.883 Z M96.4055,18.069 C95.7194965,18.2090007 94.9355044,18.3349994 94.0535,18.447 L93.0656596,18.5612401 C92.5566207,18.61668 92.0249027,18.6695997 91.4705,18.72 L88.8665,18.867 L88.6565,18.867 L86.6195,18.888 C86.5214995,18.0339957 86.2905018,17.1870042 85.9265,16.347 C86.6545036,16.3329999 87.3754964,16.2980003 88.0895,16.242 L90.3995,16.053 C92.0235081,15.8709991 93.5074932,15.6400014 94.8515,15.36 L96.4055,18.069 Z M96.4265,20.295 L95.7965,21.66 L95.5082029,22.2780758 C95.1839559,22.9580268 94.9020567,23.493998 94.6625,23.886 L92.6255,23.109 C93.1575026,21.918994 93.5774984,20.6170071 93.8855,19.203 L96.0905,19.98 L95.9855,19.875 C97.8755094,18.9509954 99.3384948,17.6280086 100.3745,15.906 L103.0625,17.355 C102.390497,18.3350049 101.613504,19.2589957 100.7315,20.127 C99.7934953,21.0370045 98.8765044,21.7509974 97.9805,22.269 C97.7564988,21.9189982 97.5255012,21.5900015 97.2875,21.282 C96.9794984,20.875998 96.6925013,20.5470013 96.4265,20.295 Z M92.8355,22.101 L90.6725,22.773 C90.476499,22.170997 90.2805009,21.5830029 90.0845,21.009 L90.0005,20.799 C89.8604993,20.392998 89.7065008,19.994002 89.5385,19.602 L91.5965,19.014 L92.3105,20.715 L92.8355,22.101 Z M87.7325,23.529 C87.4664986,22.4089944 86.9555037,21.2890056 86.1995,20.169 L88.1525,19.308 C88.9225038,20.3720053 89.4544985,21.4429946 89.7485,22.521 L87.7325,23.529 Z M103.2935,23.277 C101.879493,25.2650099 100.108511,26.8889937 97.9805,28.149 L96.3425,25.587 C97.0565035,25.2369982 97.8264958,24.7190034 98.6525,24.033 C99.5485044,23.2769962 100.220498,22.5560034 100.6685,21.87 L103.2935,23.277 Z M92.6465,34.848 L90.0635,34.659 L90.0635,30.648 C89.6154977,31.2360029 89.1745021,31.7609977 88.7405,32.223 C88.2644976,32.7410026 87.8445018,33.1399986 87.4805,33.42 L85.7165,30.837 C86.2765028,30.4869982 86.8924966,29.9690034 87.5645,29.283 C88.1525029,28.6669969 88.7054974,28.0020036 89.2235,27.288 L86.4935,27.078 L86.4935,24.432 L90.0635,24.684 L90.0635,22.983 L92.6465,23.172 L92.6465,24.873 L95.8595,25.104 L95.8595,27.75 L93.9485,27.603 C94.9005047,28.5830049 95.6494972,29.5839949 96.1955,30.606 L94.4315,32.433 C94.0814982,31.6769962 93.4865042,30.7810052 92.6465,29.745 L92.6465,34.848 Z M103.7765,29.01 C103.020496,30.3680068 102.019506,31.5929945 100.7735,32.685 C99.6254942,33.7070051 98.3235072,34.5749964 96.8675,35.289 L95.3345,32.433 C96.4265054,32.026998 97.4834949,31.4110041 98.5055,30.585 C99.6255056,29.6889955 100.479497,28.7090053 101.0675,27.645 L103.7765,29.01 Z M109.604,22.962 C109.604,23.6760036 109.58825,24.3781867 109.55675,25.0685612 L109.52,25.755 C109.464,26.8750056 109.373001,27.9249951 109.247,28.905 C109.092999,30.0390057 108.897001,31.0539955 108.659,31.95 C108.392999,32.9860052 108.071002,33.8469966 107.693,34.533 C107.076997,33.9029968 106.328004,33.3710022 105.446,32.937 C105.796002,32.3069968 106.089999,31.5440045 106.328,30.648 C106.508001,29.9759966 106.652,29.2268598 106.76,28.4005728 L106.811,27.981 C106.923,27.1409958 107,26.2310049 107.042,25.251 L107.084,23.97 L107.084,16.074 L113.531,16.515 L113.450428,16.1721421 C113.386143,15.9107136 113.329,15.7100007 113.279,15.57 L116.009,15.129 C116.205001,15.6330025 116.358999,16.1649972 116.471,16.725 L122.624,17.166 L122.624,19.686 L109.604,18.762 L109.604,22.962 Z M115.757,33.126 C114.986996,33.4340015 114.203004,33.7139987 113.405,33.966 L113.195,34.029 C113.167,34.0570001 113.132,34.071 113.09,34.071 L110.255,34.995 L109.289,32.79 L109.682038,32.6821481 C110.174457,32.5393829 110.785441,32.3373346 111.515,32.076 L112.838,31.551 L110.612,31.404 L110.612,25.398 L114.896,25.692 L114.896,25.167 L109.814,24.81 L109.814,22.71 L112.628,22.899 L112.628,22.143 L110.36,21.996 L110.36,19.959 L112.628,20.106 L112.628,19.224 L115.085,19.413 L115.085,20.295 L117.164,20.442 L117.164,19.56 L119.621,19.728 L119.621,20.61 L122.141,20.778 L122.141,22.815 L119.621,22.647 L119.621,23.403 L122.834,23.613 L122.834,25.713 L117.374,25.335 L117.374,25.86 L121.91,26.175 L121.91,32.181 L119.159,31.992 L119.999,32.391 L120.732187,32.7342601 C121.550064,33.1214207 122.236664,33.4619985 122.792,33.756 L121.574,35.688 C120.131993,34.8619959 118.515009,34.0290042 116.723,33.189 L117.458,31.866 L114.455,31.656 L115.757,33.126 Z M115.085,23.088 L117.164,23.235 L117.164,22.479 L115.085,22.332 L115.085,23.088 Z M113.006,27.834 L114.896,27.96 L114.896,27.372 L113.006,27.246 L113.006,27.834 Z M117.374,28.128 L119.39,28.275 L119.39,27.687 L117.374,27.54 L117.374,28.128 Z M113.006,29.955 L114.896,30.081 L114.896,29.493 L113.006,29.367 L113.006,29.955 Z M117.374,30.249 L119.39,30.396 L119.39,29.808 L117.374,29.661 L117.374,30.249 Z M142.0805,23.151 L142.0805,25.944 L125.7425,24.81 L125.7425,22.017 L127.5905,22.143 C127.310499,21.8909987 126.939502,21.5970017 126.4775,21.261 C126.071498,20.9669985 125.714501,20.7290009 125.4065,20.547 C126.008503,19.9869972 126.603497,19.1330057 127.1915,17.985 C127.723503,16.9629949 128.150498,15.8990055 128.4725,14.793 L131.1605,15.738 L130.8245,16.725 C130.8245,16.7390001 130.8175,16.7599999 130.8035,16.788 C130.8035,16.8160001 130.7965,16.8369999 130.7825,16.851 L130.7265,17.0283333 C130.717167,17.0547777 130.707833,17.0796666 130.6985,17.103 L130.5865,17.4483332 C130.567833,17.5027775 130.549167,17.5556664 130.5305,17.607 L132.9665,17.775 L132.9665,15.192 L135.8225,15.402 L135.8225,17.985 L141.0515,18.342 L141.0515,21.051 L135.8225,20.694 L135.8225,22.731 L142.0805,23.151 Z M128.0105,22.164 L132.9665,22.521 L132.9665,20.484 L129.2285,20.232 L128.3675,21.681 L128.0105,22.164 Z M140.4845,27.099 L140.4845,34.869 L127.7375,33.987 L127.7375,26.217 L140.4845,27.099 Z M130.5095,31.467 L137.6075,31.95 L137.6075,29.577 L130.5095,29.094 L130.5095,31.467 Z M155.09,18.069 C154.403996,18.2090007 153.620004,18.3349994 152.738,18.447 L151.750159,18.5612401 C151.241121,18.61668 150.709403,18.6695997 150.155,18.72 L147.551,18.867 L147.341,18.867 L145.304,18.888 C145.205999,18.0339957 144.975002,17.1870042 144.611,16.347 C145.339004,16.3329999 146.059996,16.2980003 146.774,16.242 L149.084,16.053 C150.708008,15.8709991 152.191993,15.6400014 153.536,15.36 L155.09,18.069 Z M155.111,20.295 L154.481,21.66 C154.032998,22.6400049 153.655001,23.3819975 153.347,23.886 L151.31,23.109 C151.842003,21.918994 152.261998,20.6170071 152.57,19.203 L154.775,19.98 L154.67,19.875 C156.560009,18.9509954 158.022995,17.6280086 159.059,15.906 L161.747,17.355 C161.074997,18.3350049 160.298004,19.2589957 159.416,20.127 C158.477995,21.0370045 157.561004,21.7509974 156.665,22.269 C156.440999,21.9189982 156.210001,21.5900015 155.972,21.282 C155.663998,20.875998 155.377001,20.5470013 155.111,20.295 Z M151.52,22.101 L149.357,22.773 L148.965,21.5876673 C148.899667,21.3932232 148.834334,21.2003343 148.769,21.009 L148.685,20.799 C148.544999,20.392998 148.391001,19.994002 148.223,19.602 L150.281,19.014 L150.995,20.715 L151.52,22.101 Z M146.417,23.529 C146.150999,22.4089944 145.640004,21.2890056 144.884,20.169 L146.837,19.308 C147.607004,20.3720053 148.138998,21.4429946 148.433,22.521 L146.417,23.529 Z M161.978,23.277 C160.563993,25.2650099 158.793011,26.8889937 156.665,28.149 L155.027,25.587 C155.741003,25.2369982 156.510996,24.7190034 157.337,24.033 C158.233004,23.2769962 158.904998,22.5560034 159.353,21.87 L161.978,23.277 Z M151.331,34.848 L148.748,34.659 L148.748,30.648 C148.389598,31.1184024 148.035681,31.5484795 147.68624,31.9382394 L147.425,32.223 C146.948997,32.7410026 146.529002,33.1399986 146.165,33.42 L144.401,30.837 C144.961003,30.4869982 145.576997,29.9690034 146.249,29.283 C146.837003,28.6669969 147.389997,28.0020036 147.908,27.288 L145.178,27.078 L145.178,24.432 L148.748,24.684 L148.748,22.983 L151.331,23.172 L151.331,24.873 L154.544,25.104 L154.544,27.75 L152.633,27.603 C153.585005,28.5830049 154.333997,29.5839949 154.88,30.606 L153.116,32.433 C152.765998,31.6769962 152.171004,30.7810052 151.331,29.745 L151.331,34.848 Z M162.461,29.01 C161.704996,30.3680068 160.704006,31.5929945 159.458,32.685 C158.309994,33.7070051 157.008007,34.5749964 155.552,35.289 L154.019,32.433 C155.111005,32.026998 156.167995,31.4110041 157.19,30.585 C158.310005,29.6889955 159.163997,28.7090053 159.752,27.645 L162.461,29.01 Z M181.5605,24.18 L181.5605,25.944 L164.5715,27.141 L164.5715,25.377 L171.5225,24.894 L171.5225,24.327 L165.8315,24.726 L165.8315,23.214 L171.5225,22.815 L171.5225,22.269 L166.4615,22.626 L166.4615,21.114 L171.5225,20.757 L171.5225,20.169 L164.6345,20.652 L164.6345,19.119 L171.5225,18.636 L171.5225,18.048 L166.5665,18.384 L166.5665,16.914 L171.5225,16.578 L171.5225,15.36 L174.2525,15.171 L174.2525,16.389 L179.6285,16.011 L179.6285,18.069 L181.3925,17.943 L181.3925,19.476 L179.6285,19.602 L179.6285,21.702 L174.2525,22.08 L174.2525,22.626 L180.3425,22.185 L180.3425,23.697 L174.2525,24.138 L174.2525,24.705 L181.5605,24.18 Z M174.2525,18.447 L176.9195,18.258 L176.9195,17.67 L174.2525,17.859 L174.2525,18.447 Z M174.2525,20.568 L176.9195,20.379 L176.9195,19.791 L174.2525,19.98 L174.2525,20.568 Z M179.6495,26.658 L179.6495,31.74 L166.6715,32.643 L166.6715,27.561 L179.6495,26.658 Z M169.2755,29.262 L171.7115,29.094 L171.7115,28.527 L169.2755,28.695 L169.2755,29.262 Z M174.1895,28.926 L176.8985,28.737 L176.8985,28.17 L174.1895,28.359 L174.1895,28.926 Z M169.2755,31.11 L171.7115,30.942 L171.7115,30.375 L169.2755,30.543 L169.2755,31.11 Z M174.1895,30.774 L176.8985,30.585 L176.8985,30.018 L174.1895,30.207 L174.1895,30.774 Z M181.5185,32.097 L181.5185,33.966 L164.5295,35.142 L164.5295,33.273 L181.5185,32.097 Z M191.336,31.992 C190.411995,32.6500033 189.194007,33.2869969 187.682,33.903 L187.493,33.987 C186.722996,34.2950015 186.009003,34.546999 185.351,34.743 L184.217,32.244 C185.477006,31.9359985 186.813993,31.3480043 188.228,30.48 L184.133,30.186 L184.133,27.54 L186.989,27.729 L186.989,15.822 L198.266,16.62 L198.266,28.527 L201.122,28.737 L201.122,31.383 L197.153,31.089 L198.614599,31.9079998 C198.922599,32.0815994 199.219398,32.2495992 199.505,32.412 L200.019372,32.7158526 C200.588014,33.0546182 201.046554,33.3383322 201.395,33.567 L199.19,35.583 C198.559997,35.0929975 197.762005,34.5330031 196.796,33.903 C195.731994,33.2309966 194.738004,32.6570024 193.814,32.181 L194.927,30.942 L189.719,30.585 L191.336,31.992 Z M189.572,19.224 L195.557,19.644 L195.557,18.72 L189.572,18.3 L189.572,19.224 Z M189.572,22.122 L195.557,22.542 L195.557,21.681 L189.572,21.261 L189.572,22.122 Z M189.572,24.999 L195.557,25.419 L195.557,24.579 L189.572,24.159 L189.572,24.999 Z M189.572,27.999 L195.557,28.419 L195.557,27.579 L189.572,27.159 L189.572,27.999 Z" id="" fill="#FFFFFF"></path>
            </g>
        </g>
    </g>
</svg>