<?xml version="1.0" encoding="UTF-8"?>
<svg width="273px" height="47px" viewBox="0 0 273 47" version="1.1" xmlns="http://www.w3.org/2000/svg" xmlns:xlink="http://www.w3.org/1999/xlink">
    <!-- Generator: Sketch 59.1 (86144) - https://sketch.com -->
    <title>Group 12</title>
    <desc>Created with Sketch.</desc>
    <g id="Amazon-Browser" stroke="none" stroke-width="1" fill="none" fill-rule="evenodd">
        <g id="Group-12" fill-rule="nonzero">
            <g id="paint3-copy-3" transform="translate(136.500000, 23.500000) scale(1, -1) translate(-136.500000, -23.500000) ">
                <path d="M272.976915,20.1636365 C272.701903,19.24712 271.725139,18.5232049 271.573409,17.5801227 C271.563926,17.5070671 271.412195,17.4406528 271.307881,17.3875214 C271.080285,17.2679758 270.975971,17.0886574 270.919072,16.9159804 C270.776825,16.424515 270.587162,15.9861811 269.762128,15.8666354 C269.667296,15.8533526 269.581948,15.733807 269.525049,15.6541099 C269.278487,15.2821902 268.851746,15.1294374 268.29224,15.0630232 C267.524105,14.9766847 267.372375,14.8172905 267.362892,14.2793352 C267.353408,13.7945113 267.552555,13.3229702 267.656869,12.8514291 C267.694802,12.6986764 267.789633,12.5259994 267.581004,12.3998123 C267.049948,12.0943069 266.793903,11.5829172 265.902487,11.562993 C265.295566,11.5430687 265.210217,11.3239017 265.437813,10.8722849 C265.551611,10.6531179 265.58006,10.4273095 265.617993,10.2015011 C265.674891,9.84286426 265.134352,9.67018725 265.06797,9.34475749 C265.058487,9.3181918 264.574846,9.31155038 264.328285,9.34475749 C263.854127,9.41117173 263.569633,9.31155038 263.446352,8.9794792 C263.417902,8.89314069 263.389453,8.76695364 263.294622,8.73374653 C262.583385,8.46808958 262.02388,8.06960417 261.388509,7.74417441 C261.094531,7.59142167 260.677273,7.44531035 260.297947,7.33240615 C259.558262,7.11323917 258.97979,6.56864244 258.012509,6.76124372 C257.784913,6.80773369 257.6237,6.62177383 257.434037,6.54207675 C256.808149,6.26977838 256.182261,5.98419716 255.461542,5.85801012 C254.693407,5.72518165 254.418396,5.47280755 254.532194,4.94149366 C254.579609,4.70904384 254.627025,4.48987686 254.560643,4.25742703 C254.446845,3.90543159 254.361497,3.86558304 253.830441,3.98512867 C253.451115,4.06482575 253.081272,4.15780568 252.673497,4.07146717 C251.013946,3.73275457 249.335429,3.43389051 247.732777,2.95570801 C247.25862,2.81623812 246.860328,2.51737406 246.338755,2.51737406 C246.025811,2.51737406 245.817182,2.43767698 245.551653,2.35133847 C244.821451,2.12553007 244.0059,1.88643882 243.218799,2.11888864 C242.517046,2.32477277 241.862709,2.40446986 241.132507,2.29156566 C240.724732,2.22515142 240.288507,2.22515142 239.861765,2.20522715 C237.415113,2.09896437 234.968461,1.98606017 232.521809,1.85987312 C230.340686,1.74696892 228.150079,1.71376181 225.978438,1.56100906 C222.981764,1.36176636 219.966123,1.26878643 216.950482,1.18244792 C212.787381,1.05626087 208.624279,0.969922365 204.461177,0.883583858 C202.137806,0.837093893 199.804952,0.830452469 197.481581,0.790603928 C194.503873,0.730831116 191.526165,0.644492609 188.548457,0.790603928 C187.761356,0.830452469 186.983738,0.863659587 186.196636,0.823811046 C184.138793,0.724189692 182.080951,0.750755387 180.023108,0.764038234 C177.965265,0.783962504 175.897939,0.717548269 173.840096,0.730831116 C171.289129,0.744113963 168.738163,0.690982574 166.196679,0.737472539 C163.475016,0.783962504 160.762836,0.717548269 158.050656,0.704265422 C155.338476,0.690982574 152.616813,0.657775457 149.904633,0.624568339 C148.501127,0.611285491 147.088138,0.717548269 145.694115,0.677699727 C141.796542,0.558154103 137.898969,0.564795526 134.001395,0.624568339 C133.157395,0.637851186 132.313395,0.684341151 131.469395,0.677699727 C130.160721,0.66441688 128.852046,0.584719797 127.543372,0.598002644 C125.419147,0.624568339 123.285439,0.591361221 121.161214,0.584719797 C117.65245,0.57143695 114.143685,0.578078374 110.644404,0.564795526 C108.880539,0.558154103 107.097707,0.392118513 105.352808,0.518305561 C103.55101,0.651134033 101.787145,0.352269972 99.9853469,0.485098444 C98.249931,0.611285491 96.4765825,0.358911396 94.7222003,0.425325631 C93.802335,0.458532749 92.8824698,0.272572889 91.9910539,0.325704278 C91.0711887,0.38547709 90.1513234,0.325704278 89.2599076,0.299138583 C87.2020647,0.252648618 85.1442218,0.212800077 83.0863789,0.153027265 C82.4320417,0.133102994 81.7777046,0.239365771 81.1328506,0.192875806 C78.4965357,-0.00636690114 75.8507377,0.226082924 73.2144229,0.0666887582 C71.8393665,-0.0130083247 70.4737934,0.146385841 69.0987371,0.113178723 C68.2452538,0.0932544525 67.4107369,0 66.5572537,0 C63.2476353,0.0201987932 59.9285339,-0.0329325954 56.6283987,0.0401230639 C54.3050277,0.0932544525 51.9816567,0.133102994 49.6582857,0.153027265 C47.2969821,0.172951535 44.9356785,0.239365771 42.583858,0.312421431 C39.5113184,0.405401361 36.4482619,0.591361221 33.3852054,0.817169622 C30.7868231,1.00977091 28.1789577,1.18244792 25.5710923,1.33520066 C25.1064181,1.36176636 24.6986428,1.6008576 24.2339686,1.4879534 C23.7029123,1.36840778 23.1908224,1.45474629 22.6787324,1.4879534 C21.1424626,1.58093333 19.5967097,1.8532317 18.0794061,1.4016149 C17.9466421,1.36176636 17.7285297,1.36840778 17.5957656,1.41489774 C16.8276307,1.70047896 16.0215632,1.6008576 15.2154957,1.61414045 C14.7318552,1.62078188 14.1913159,1.49459483 13.7740574,1.6274233 C12.7878101,1.93957021 11.5644841,1.92628736 10.8247987,2.60371256 C10.7868661,2.63691968 10.7110009,2.65684395 10.654102,2.65684395 C10.0376975,2.65020253 9.75320307,2.98891513 9.39284348,3.24128923 C9.18421425,3.38740055 8.95661872,3.52022902 8.7100569,3.63313322 C8.48246137,3.739396 8.33073102,3.87886589 7.97037143,3.89879016 C7.69536017,3.91207301 7.93243884,4.31055842 7.70484331,4.49651828 C7.61949499,4.56293252 7.61001184,4.68247814 7.51518037,4.73560953 C6.82291064,5.11417068 6.67118029,5.67205026 6.46255105,6.21664699 C6.29185441,6.66162237 6.03580944,7.0933149 5.23922509,7.14644629 C4.92628124,7.16637056 4.84093292,7.31248188 4.90731494,7.48515889 C5.02111271,7.77074011 5.040079,8.00983136 4.65126998,8.22235691 C4.40470815,8.35518538 4.47109018,8.60755948 4.49005648,8.80680218 C4.51850592,9.15879763 4.39522501,9.4576617 4.16762948,9.78309145 C3.82623619,10.2745568 3.42794401,10.7593807 3.19086534,11.2774118 C2.94430351,11.8153671 2.73567428,12.3998123 3.0012024,12.9643333 C3.22879792,13.4557987 3.17189904,13.9206983 2.94430351,14.3789566 C2.75464057,14.7575177 2.69774169,15.1294374 2.75464057,15.5279228 C2.83050575,16.0592367 3.02016869,16.6237577 2.22358434,17.0222431 C2.07185399,17.1019402 1.98650567,17.3078244 1.97702252,17.4605771 C1.95805622,18.0516638 1.70201126,18.6493919 2.01495511,19.2338372 C2.15720231,19.4862113 2.08133714,19.6721712 1.74942699,19.8182825 C1.27526964,20.030808 0.952842642,20.3429549 0.630415644,20.6750261 C0.307988645,21.0004559 0.099359411,21.2926785 0.402820115,21.6712397 C0.535584173,21.8372752 0.402820115,21.990028 0.326954939,22.1361393 C0.184707734,22.4217205 0.032977382,22.6940189 0.251089763,22.9995244 C0.326954939,23.1057871 0.317471792,23.2518985 0.203674028,23.3249541 C-0.175651852,23.5773282 0.080393117,23.8429852 0.137291999,24.1020007 C0.184707734,24.3278091 0.336438086,24.5403346 0.279539204,24.7794259 C0.080393117,25.4900582 0.535584173,26.1209934 0.829561731,26.7652115 C0.952842642,27.0308685 1.01922467,27.2832426 1.06664041,27.5555409 C1.20888761,28.2860975 1.22785391,29.029937 1.98650567,29.6675136 C2.85895519,30.4047117 3.64605639,31.1950411 4.34780927,32.0185776 C4.65126998,32.370573 5.040079,32.6893614 5.43837118,32.9882254 C6.10219147,33.4929736 6.76601176,34.0176461 7.12637135,34.6552227 C7.44879834,35.2263852 7.98933772,35.678002 8.5298771,36.1362602 C8.81437151,36.3819929 9.10834907,36.6210841 9.38336033,36.8734582 C10.1135627,37.5376006 10.9575627,38.1353287 12.3421022,37.9028789 C12.6740123,37.8497475 12.8636753,37.9560103 13.1102371,38.108763 C13.878372,38.5869455 14.5421923,39.1647494 15.5094733,39.4835377 C15.6232711,39.5233862 15.7370688,39.5765176 15.8224172,39.6495733 C16.8845296,40.5328826 18.458732,40.632504 19.8906872,40.8583124 C21.10453,41.0509136 22.3847549,41.0907622 23.6460134,41.0974036 C24.3572495,41.104045 25.0779686,41.2103078 25.7702384,41.0841208 C26.4625081,40.9579337 26.9271823,41.1771007 27.3349576,41.4826062 C28.2548229,42.1865971 29.1367556,42.9105123 30.0376545,43.627786 C30.1609354,43.7274074 30.3600815,43.8403116 30.3790478,43.9532158 C30.4169804,44.3052112 30.7204411,44.411474 31.1471827,44.4712468 C31.4032277,44.5044539 31.6403064,44.584151 31.8963513,44.6439238 C32.4084413,44.7634694 33.0058795,44.8099594 33.100711,45.3147076 C33.1291604,45.4674603 33.3946886,45.4741018 33.5748684,45.5205917 C34.6938797,45.7928901 35.8792731,45.8327386 37.0172507,46.0186985 C37.614689,46.1183198 38.2500598,46.0917541 38.8380149,46.2511483 C39.0087116,46.2976383 39.2552734,46.324204 39.4164869,46.277714 C40.0234083,46.1116784 40.5734308,46.2710726 41.1329365,46.3706939 C41.3889815,46.4171839 41.6355433,46.5234467 41.8915883,46.4371082 C42.2140153,46.3308454 42.4605771,46.4238253 42.7261052,46.5168053 C42.9916333,46.6097852 43.2761277,46.6297095 43.5795884,46.6562751 C44.7080829,46.7492551 45.8650269,46.669558 46.9745551,46.8820835 C47.4581956,46.9750635 47.9228698,47.014912 48.4254766,46.9949877 C49.8574318,46.9285735 51.289387,47.061402 52.7403085,46.9418564 C53.4705108,46.8820835 54.2196794,46.8621593 54.9498817,46.7492551 C55.5283537,46.6629166 56.0973425,46.5433709 56.6852976,46.5101638 C57.1215224,46.4835981 57.5292977,46.4304667 57.9086236,46.2909969 C58.4207135,46.0983956 58.9517698,46.0452642 59.5207586,46.0319813 C60.7630508,46.0120571 61.9958599,46.0253399 63.2381522,45.9124357 C64.7175231,45.7796072 66.2158604,45.7331173 67.7047144,45.713193 C68.7383775,45.6999102 69.7910068,45.7397587 70.7962204,45.5803645 C72.1048947,45.367839 73.4515015,45.4873846 74.769659,45.2549348 C75.6515916,45.102182 76.6473221,45.3744804 77.5577042,45.0955406 C77.6335694,45.0689749 77.7473671,45.102182 77.8421986,45.1154649 C78.7146481,45.2482933 79.5965808,45.1353891 80.4690303,45.1154649 C82.0053001,45.0822578 83.5320868,44.8962979 85.0683566,44.8896565 C87.7805367,44.8896565 90.445301,44.537661 93.1479979,44.5243782 C94.3428744,44.5177368 95.5567172,44.3981911 96.7515937,44.4712468 C97.4533466,44.5110953 98.1171669,44.5044539 98.7904703,44.3849083 C99.0085827,44.3450597 99.2551445,44.318494 99.4732569,44.3450597 C100.639684,44.4778882 101.806111,44.318494 102.972538,44.3317769 C105.504538,44.3583426 108.046022,44.1590999 110.587505,44.238797 C111.35564,44.2653627 112.152224,44.2852869 112.89191,44.2055898 C113.802292,44.1126099 114.703191,44.1723827 115.60409,44.1325342 C116.893798,44.0794028 118.192989,44.1989484 119.482697,44.1059685 C120.193933,44.0528371 120.905169,43.9930643 121.616405,43.9997057 C123.181124,44.0129886 124.793259,44.2919284 126.244181,43.627786 C126.320046,43.5945789 126.433844,43.581296 126.528675,43.5746546 C127.249395,43.5281646 127.98908,43.3886947 128.671867,43.4683918 C130.21762,43.6410688 131.611642,43.0366993 133.119463,43.1296792 C133.185845,43.1363207 133.280676,43.1296792 133.309125,43.1031135 C133.878114,42.498744 134.826429,42.3991226 135.689395,42.1666728 C136.002339,42.0803343 136.267867,41.9939958 136.609261,42.0272029 C136.903238,42.0537686 137.197216,42.0471272 137.491193,42.0139201 C138.164497,41.9408644 138.847283,41.8279602 139.482654,42.1401071 C139.624901,42.2065214 139.86198,42.1799557 140.061126,42.1799557 C141.796542,42.1799557 143.531958,42.1334657 145.257891,42.1467485 C147.382116,42.1600314 149.506341,42.0736929 151.621082,42.0338443 C151.91506,42.0272029 152.190071,41.9408644 152.465082,41.9010159 C153.403914,41.7681874 154.342746,41.5091719 155.338476,41.7216974 C155.841083,41.8279602 156.353173,41.934223 156.865263,41.9607887 C157.908409,42.0205615 158.951555,42.0404858 159.975735,42.1998799 C160.791285,42.326067 161.606836,42.1733142 162.40342,42.2065214 C163.797443,42.2662942 165.181983,42.4124055 166.585488,42.4389712 C166.822567,42.4456126 167.021713,42.5053854 167.230342,42.5850825 C168.226073,42.9769265 169.278702,43.2558663 170.445129,43.2691491 C170.644275,43.2691491 170.833938,43.3023562 171.033084,43.3222805 C171.194298,43.3422048 171.393444,43.3754119 171.450343,43.4816747 C171.753803,44.1059685 172.569354,43.9997057 173.185759,44.0129886 C174.295287,44.0395543 175.347916,44.2520798 176.419512,44.3716254 C177.216096,44.4579639 178.003197,44.5575853 178.818748,44.6040753 C179.387737,44.6372824 179.975692,44.5177368 180.506748,44.6505652 C181.009355,44.7767523 181.511962,44.8630908 182.024052,44.9095807 C183.057715,45.0092021 184.081895,45.1287477 185.115558,45.1885205 C185.931108,45.2350105 186.737176,45.367839 187.543243,45.4276118 C188.624322,45.5006674 189.686434,45.5737231 190.720097,45.8260972 C190.985626,45.8925114 191.327019,45.93236 191.592547,45.8792286 C192.284817,45.7464001 192.95812,45.88587 193.631424,45.9057943 C194.740952,45.9456428 195.85048,46.2843554 196.960008,45.9057943 C197.02639,45.8792286 197.159154,45.9057943 197.235019,45.93236 C197.56693,46.0851127 197.936772,45.9987742 198.287649,46.0186985 C200.013582,46.1382441 201.701582,45.6467788 203.436998,45.8260972 C203.588728,45.83938 203.749941,45.7729658 203.911155,45.7530415 C204.67929,45.6534202 205.466391,45.4475361 206.21556,45.5006674 C206.775065,45.540516 207.457852,45.3611976 207.808728,45.540516 C208.453582,45.8725872 208.937223,45.494026 209.487245,45.5338746 C209.961403,45.5670817 210.445043,45.4873846 210.928684,45.4873846 C211.895965,45.4873846 212.853763,45.666703 213.830527,45.5073089 C214.048639,45.4741018 214.314167,45.4741018 214.513313,45.5272331 C215.395246,45.7729658 216.324594,45.7065516 217.234976,45.7530415 C217.927246,45.7862487 218.60055,45.8526629 219.283336,45.9190771 C220.298033,46.0186985 221.350662,45.93236 222.317943,46.2644312 C222.469674,46.3175625 222.697269,46.2445069 222.896415,46.2445069 C223.086078,46.2445069 223.313674,46.2112998 223.474887,46.2710726 C224.271472,46.5433709 225.068056,46.3906182 225.883607,46.3706939 C226.500011,46.3507697 227.239697,46.2179412 227.73282,46.6828408 C227.894034,46.8355936 228.150079,46.7492551 228.368191,46.7027651 C229.240641,46.5101638 230.11309,46.3175625 231.042439,46.3175625 C231.80109,46.3175625 232.531293,46.2378655 233.270978,46.0851127 C233.564956,46.0253399 233.868416,45.8925114 234.20981,45.9456428 C235.05381,46.0917541 235.907293,46.0319813 236.808192,45.9921328 C238.059967,46.0784713 239.359158,45.93236 240.65835,45.88587 C241.17044,45.8725872 241.454934,45.5936474 241.881676,45.4807432 C242.204103,45.4010461 241.98599,45.2018034 242.01444,45.0623335 C242.071339,44.8298837 242.308417,44.7900351 242.583428,44.7501866 C243.029136,44.6837723 243.465361,44.6173581 243.901586,44.4845296 C244.906799,44.1723827 245.930979,43.8934429 246.964642,43.6211446 C247.419833,43.5015989 247.827609,43.3687705 248.235384,43.1496035 C248.927654,42.7776838 249.572508,42.3592741 250.340643,42.0471272 C251.241542,41.6818489 252.246755,41.4161919 253.024373,40.9114438 C253.602845,40.5328826 254.276149,40.2738671 254.987385,40.0480587 C255.537407,39.8753817 256.163295,39.676139 256.514171,39.3573506 C256.90298,39.0053552 257.291789,38.6400769 257.690082,38.28144 C258.25907,37.763409 258.989273,37.325075 259.785857,37.105908 C260.933318,36.7871197 261.625588,36.1893916 262.384239,35.5983049 C262.602352,35.4322693 262.782532,35.2330266 262.792015,34.9872939 C262.792015,34.721637 262.991161,34.5821671 263.370487,34.5157528 C263.749813,34.4493386 264.167071,34.3563587 264.309318,34.0707775 C264.55588,33.5527464 265.011071,33.1476196 265.551611,32.7756999 C265.788689,32.6163057 265.921453,32.3904973 265.997318,32.1646889 C266.329229,31.1419097 267.192195,30.3449388 268.244824,29.6343065 C268.671566,29.3487253 268.95606,29.0565027 268.965543,28.6248101 C268.975027,28.4255674 269.050892,28.1798348 269.231072,28.0470063 C269.724195,27.6883694 269.80006,27.2035455 270.113004,26.7917772 C270.511296,26.2737462 270.890622,25.7623566 271.478577,25.3373055 C271.895836,25.0384414 272.426892,24.7528602 272.113948,24.2348292 C272.0286,24.0820764 272.170847,23.9824551 272.303611,23.8695509 C272.474308,23.730081 272.597589,23.5640454 272.626038,23.3780855 C272.758802,22.5678318 272.938982,21.7575782 272.901049,20.9406831 C272.882083,20.7015918 273.062263,20.4425763 272.976915,20.1636365 Z" id="Path" fill="#319F74"></path>
                <path d="M153,43.8150001 C153.971311,44.1277483 153.971311,44.1277483 156,43.1468563 C154.868852,42.8341081 153.946721,43.004698 153,43.8150001 Z" id="Path" fill="#FCE5EF"></path>
                <path d="M156,44.0359572 C156.661765,44.2218329 156.661765,44.2218329 157,43.9297425 C156.343137,43.7903357 156.343137,43.7903357 156,44.0359572 Z" id="Path" fill="#FCE5EF"></path>
                <path d="M160.32914,43.8672316 C160.08725,43.8738701 159.957002,43.920339 160.012823,44 C160.08725,44.0995763 160.32914,44.1327684 160.589637,44.1327684 C160.775706,44.1327684 161.017595,44.1128531 160.998988,44.0398305 C160.980381,43.8937853 160.608244,43.8871469 160.32914,43.8672316 Z" id="Path" fill="#FCE5EF"></path>
                <path d="M162,44.0546944 C162.269231,44.0546944 162.512821,44.0546944 163,44.0546944 C162.487179,43.8688187 162.24359,43.9551181 162,44.0546944 Z" id="Path" fill="#FCE5EF"></path>
                <path d="M169.910559,43.9634708 C169.677082,43.9432517 169.431932,43.9499914 169.198455,43.9499914 C169.163434,43.9499914 169.128412,43.9634708 169,43.9971693 C169.105065,44.0308678 169.140086,44.051087 169.175108,44.051087 C169.408584,44.051087 169.653735,44.0443473 169.887211,44.0376075 C170.027298,44.0241281 170.038971,43.9769502 169.910559,43.9634708 Z" id="Path" fill="#FCE5EF"></path>
                <path d="M153.966823,44.0449971 C154.052135,44.0104056 154.203802,44.1228279 154.213281,43.9498706 C154.071094,43.9498706 153.919427,43.9325749 153.786719,44.0449971 C153.853073,44.0363492 153.919427,44.0622928 153.966823,44.0449971 Z" id="Path" fill="#FCE5EF"></path>
                <path d="M154.000027,43.8747881 C153.952632,43.8814266 153.914715,43.9345339 153.895757,43.9743644 C153.85784,44.0407486 153.886277,44.1204096 153.990548,44.127048 C154.104298,44.1403249 154.08534,44.047387 154.113777,43.9942797 C154.113777,43.9345339 154.161173,43.8548729 154.000027,43.8747881 Z" id="Path" fill="#FCE5EF"></path>
            </g>
            <path d="M65.311,34.575 C64.906748,34.7342508 64.3792369,34.8291876 63.7284542,34.8598125 L63.442,34.869 C62.7699966,34.8970001 61.832006,34.8620005 60.628,34.764 L60.418,31.845 C61.2580042,31.9290004 62.0909959,31.9989997 62.917,32.055 L63.253,32.097 C63.645002,32.1250001 63.841,31.9570018 63.841,31.593 L63.841,28.947 L56.68,28.443 L56.68,25.566 L63.841,26.07 L63.841,24.012 L57.961,23.592 L57.961,20.778 L63.841,21.198 L63.841,18.972 L61.237,18.993 C60.2709952,18.9789999 59.3190047,18.9510002 58.381,18.909 C58.2829995,18.0549957 58.0590017,17.1660046 57.709,16.242 L58.759,16.263 L60.586,16.284 L63.421,16.2 L63.631,16.179 C66.2770132,16.0529994 68.4889911,15.8150017 70.267,15.465 L72.199,18.132 C71.0649943,18.342001 69.9590054,18.5029994 68.881,18.615 L66.655,18.825 L66.655,21.387 L72.661,21.807 L72.661,24.621 L66.655,24.201 L66.655,26.259 L73.774,26.763 L73.774,29.64 L66.655,29.136 L66.655,31.845 C66.655,33.3150074 66.2070045,34.2249982 65.311,34.575 Z M93.3145,31.383 L93.3145,34.365 L76.3255,33.168 L76.3255,30.186 L83.1505,30.669 L83.1505,20.379 L77.3755,19.959 L77.3755,16.872 L92.2015,17.922 L92.2015,21.009 L86.2375,20.589 L86.2375,30.879 L93.3145,31.383 Z M102.586,18.153 L102.586,18.615 L99.9819999,18.447 L99.9819999,17.985 L96.0759999,17.712 L96.0759999,15.654 L99.9819999,15.927 L99.9819999,14.961 L102.586,15.129 L102.586,16.095 L106.03,16.347 L106.03,15.381 L108.655,15.549 L108.655,16.515 L112.687,16.809 L112.687,18.867 L108.655,18.573 L108.655,19.035 L106.03,18.867 L106.03,18.405 L102.586,18.153 Z M107.353,26.112 C106.834997,27.0640048 106.121004,27.8339971 105.211,28.422 C105.056999,28.1699987 104.756002,27.8200022 104.308,27.372 L104.308,27.813 L104.0392,27.8230801 C103.9216,27.8247601 103.8292,27.8214 103.762,27.813 L102.061,27.834 L99.7408257,27.8152969 C98.4928593,27.8032657 97.3132555,27.7885001 96.2019999,27.771 L96.1389999,26.154 C96.8250034,26.1960002 97.5879957,26.2239999 98.4279999,26.238 L99.1839999,26.28 L99.1839999,25.65 L96.9789999,25.503 L96.9789999,24.579 L96.6429999,24.684 L95.7819999,23.466 L96.0900001,23.3213333 C96.3139996,23.2124447 96.5753318,23.0786675 96.8739999,22.92 C97.2100016,22.7379991 97.5809979,22.5210013 97.9869999,22.269 L96.2439999,22.143 L96.2439999,20.694 L99.1839999,20.904 L99.1839999,20.379 L97.0629999,20.232 L97.0629999,18.888 L99.1839999,19.035 L99.1839999,18.552 L101.41,18.699 L101.41,19.182 L103.531,19.329 L103.531,20.673 L101.41,20.526 L101.41,21.051 L104.392,21.261 L104.392,22.71 L102.67,22.605 L103.573,23.151 C103.825001,23.3190008 104.076999,23.4939991 104.329,23.676 L105.19,22.416 L104.644,22.374 L104.644,20.337 L106.408,20.463 L106.408,19.245 L108.34,19.371 L108.34,20.589 L111.112,20.799 L111.112,22.479 C111.112,23.0670029 111.119,23.563998 111.133,23.97 C111.133,24.4600025 111.147,24.8729983 111.175,25.209 C111.203,25.5730018 111.238,25.852999 111.28,26.049 C111.322,26.245001 111.378,26.3499999 111.448,26.364 C111.50925,26.364 111.559781,26.2353763 111.599594,25.9781255 L111.616,25.86 C111.658,25.5799986 111.679,25.3000014 111.679,25.02 L112.981,25.524 C112.770999,27.6100104 112.197005,28.6180004 111.259,28.548 C110.222995,28.4779996 109.558001,27.4910095 109.264,25.587 L108.319,26.994 C107.968998,26.6299982 107.647001,26.3360011 107.353,26.112 Z M108.088,24.138 C108.466002,24.3760012 108.829998,24.6559984 109.18,24.978 C109.096,24.1379958 109.047,23.3750034 109.033,22.689 L108.319,22.626 C108.263,23.1580027 108.186,23.6619976 108.088,24.138 Z M106.324,22.5 L105.316,22.416 L105.547,22.542 L105.547,22.542 L106.009,22.857 C106.093,22.9130003 106.17,22.9549999 106.24,22.983 L106.324,22.5 Z M99.5829999,23.361 L101.368,23.487 L101.011,23.319 L101.557,22.521 L99.0789999,22.353 L99.7719999,23.277 L99.5829999,23.361 Z M101.41,24.39 L102.964,24.516 L102.397,24.117 L102.187,23.991 C101.864998,23.7669989 101.606001,23.5990006 101.41,23.487 L101.41,24.39 Z M98.0289999,24.159 L99.1839999,24.243 L99.1839999,23.613 L98.0289999,24.159 Z M101.41,25.797 L101.41,26.322 L104.266,26.406 C104.854003,25.8599973 105.287999,25.3420025 105.568,24.852 C105.133998,24.5579985 104.735002,24.3060011 104.371,24.096 L103.741,25.104 L103.636,25.02 L103.636,25.965 L101.41,25.797 Z M110.503,28.863 L110.503,30.459 L98.3019999,29.598 L98.3019999,28.002 L110.503,28.863 Z M110.167,35.562 L109.81,35.163 L109.411,34.764 L101.200249,34.4888875 L101.200249,34.4888875 L100.402,34.47 C98.9459927,34.4419999 97.9800023,34.4699996 97.5039999,34.554 L96.9999999,32.622 C97.1575007,32.6009999 97.3976864,32.528813 97.7205615,32.4054379 L98.0709999,32.265 C98.1130001,32.2509999 98.1409999,32.2370001 98.1549999,32.223 L98.5539999,32.055 L99.0113331,31.8310001 C99.084444,31.7936669 99.1559996,31.7563335 99.2259999,31.719 L95.9709999,31.488 L95.9709999,29.892 L112.645,31.068 L112.645,32.664 L109.621,32.454 C110.657005,33.1960037 111.447997,33.867997 111.994,34.47 L110.167,35.562 Z M106.849,32.244 L102.733,31.971 L102.252333,32.2463338 C101.947444,32.4174447 101.673668,32.5636661 101.431,32.685 L107.206,33 C106.967999,32.8319992 106.702001,32.6640008 106.408,32.496 L106.849,32.244 Z M118.1155,30.27 C118.003499,31.278005 117.842501,32.2019958 117.6325,33.042 C117.380499,34.036005 117.072502,34.8549968 116.7085,35.499 C116.148497,34.7429962 115.532503,34.1760019 114.8605,33.798 C115.252502,33.0419962 115.532499,32.0480062 115.7005,30.816 C115.7425,30.4484982 115.776625,30.0613132 115.802875,29.6544383 L115.8265,29.241 C115.8545,28.7929978 115.8685,28.3100026 115.8685,27.792 L115.8685,23.487 L116.6875,23.424 C116.225498,22.8919973 115.833502,22.5070012 115.5115,22.269 C115.777501,22.1709995 116.113498,22.024001 116.5195,21.828 C116.5895,21.7999999 116.673499,21.7580003 116.7715,21.702 L117.5065,21.345 L115.9105,20.799 L117.2545,19.476 L115.5535,19.602 L115.5535,17.292 L118.5565,17.082 C118.4865,16.7459983 118.367501,16.3680021 118.1995,15.948 L120.6145,15.255 C120.6929,15.4006007 120.77578,15.5999592 120.86314,15.8530794 L121.0765,16.494 C121.1045,16.5640004 121.1255,16.6339997 121.1395,16.704 L121.2025,16.893 L123.7645,16.704 L123.7645,19.014 L122.3365,19.119 L123.1555,19.35 L122.5045,20.127 C122.224499,20.4350015 121.979501,20.6799991 121.7695,20.862 L123.4495,21.618 L122.1055,23.046 L123.8695,22.92 L123.8695,25.251 L121.8955,25.398 L122.9035,25.734 C122.469498,26.2800027 121.902503,26.8189973 121.2025,27.351 C120.572497,27.8270024 119.928503,28.2259984 119.2705,28.548 L118.7875,27.981 C118.577499,27.7429988 118.388501,27.5470008 118.2205,27.393 L118.2205,27.645 C118.2205,27.915668 118.217389,28.1770001 118.211167,28.4289996 L118.1995,28.8 C118.1855,29.2480022 118.1575,29.6539982 118.1155,30.018 C118.773503,29.7099985 119.410497,29.3320022 120.0265,28.884 C120.712503,28.4079976 121.223498,27.9530022 121.5595,27.519 L123.5125,28.212 C123.022497,28.8840034 122.385504,29.5349968 121.6015,30.165 C120.873496,30.7530029 120.110504,31.249998 119.3125,31.656 C118.948498,31.0959972 118.549502,30.6340018 118.1155,30.27 Z M128.0065,31.971 C127.040495,33.1330058 125.717508,34.217995 124.0375,35.226 L122.7985,33.231 C123.750505,32.7129974 124.688495,31.9290053 125.6125,30.879 L124.3525,30.963 L124.3525,19.791 L126.7255,19.623 L126.8515,18.258 L123.9535,18.468 L123.9535,16.011 L132.5845,15.402 L132.5845,17.859 L129.4975,18.069 L129.3295,18.783 L129.264166,19.0723339 C129.223722,19.2434449 129.1895,19.3709996 129.1615,19.455 L132.0805,19.266 L132.0805,30.438 L130.4215,30.543 L131.7865,31.761 C132.318503,32.2510024 132.696499,32.6359986 132.9205,32.916 L130.8625,34.638 C130.610499,34.2879983 130.225502,33.8470027 129.7075,33.315 C129.231498,32.8249976 128.762502,32.377002 128.3005,31.971 L130.0435,30.564 L126.3055,30.837 L128.0065,31.971 Z M118.0525,19.413 C118.1645,19.4550002 118.297499,19.5109997 118.4515,19.581 L119.7115,20.106 C120.019501,19.8959989 120.334498,19.6090018 120.6565,19.245 L118.0525,19.413 Z M126.6415,22.794 L129.6865,22.584 L129.6865,21.597 L126.6415,21.807 L126.6415,22.794 Z M121.4335,23.088 L121.0345,22.878 L120.987833,22.8593333 C120.986278,22.8577778 120.987833,22.857 120.9925,22.857 L120.6775,22.689 L120.30118,22.5041998 C120.12646,22.4201999 119.971901,22.3488003 119.8375,22.29 L119.0815,22.773 C119.0815,22.7870001 119.0605,22.8009999 119.0185,22.815 L118.7245,23.025 L118.4725,23.1930001 C118.3955,23.242 118.3255,23.2839998 118.2625,23.319 L121.4335,23.088 Z M126.6415,25.734 L129.6865,25.524 L129.6865,24.579 L126.6415,24.789 L126.6415,25.734 Z M118.2205,25.65 L118.2205,26.91 C119.116504,26.503998 119.879497,26.0280027 120.5095,25.482 L118.2205,25.65 Z M126.6415,28.674 L129.6865,28.464 L129.6865,27.54 L126.6415,27.75 L126.6415,28.674 Z M124.0795,30.984 C123.533497,31.9500048 122.791505,32.831996 121.8535,33.63 C120.971495,34.3860038 119.935506,35.0509971 118.7455,35.625 L117.8005,33.609 C118.612504,33.3149985 119.389496,32.8810029 120.1315,32.307 C120.943504,31.6909969 121.538498,31.0470034 121.9165,30.375 L124.0795,30.984 Z M150.256,29.157 L150.256,34.575 L147.757,34.764 L147.757,29.85 L142.927,31.152 L142.549,28.611 L141.037,30.879 C140.784999,30.276997 140.442002,29.577004 140.008,28.779 L140.008,35.247 L137.551,35.436 L137.551,28.821 L137.338529,29.5055009 C136.819704,31.1491732 136.393531,32.2859968 136.06,32.916 L134.086,31.152 C134.646003,30.353996 135.163997,29.4090055 135.64,28.317 C136.032002,27.4489957 136.374998,26.5390048 136.669,25.587 L134.863,25.713 L134.863,22.899 L137.551,22.71 L137.551,15.78 L140.008,15.591 L140.008,21.534 L140.26,20.4 C140.33,20.0779984 140.413999,19.6370028 140.512,19.077 L140.89,16.536 L143.095,16.872 L142.087,20.694 L141.926,21.2190009 C141.823333,21.5456671 141.73,21.8256655 141.646,22.059 L140.008,21.702 L140.008,22.521 L142.57,22.353 L142.57,25.167 L140.008,25.335 L140.008,25.398 C140.232001,25.594001 140.665997,26.0769962 141.31,26.847 L142.57,28.359 L147.757,26.973 L147.757,14.919 L150.256,14.73 L150.256,26.301 L151.978,25.839 L152.377,28.569 L150.256,29.157 Z M146.224,20.82 C145.453996,20.0499961 144.502006,19.1890048 143.368,18.237 L144.649,16.095 C145.755005,16.893004 146.741996,17.6699962 147.61,18.426 L146.224,20.82 Z M135.472,22.647 C135.317999,21.1069923 135.073002,19.434009 134.737,17.628 L136.585,16.935 L137.047,19.434 L137.161074,20.085261 C137.285692,20.8099773 137.380666,21.4118865 137.446,21.891 L135.472,22.647 Z M145.615,26.154 C144.914996,25.3279959 143.907006,24.5090041 142.591,23.697 L143.851,21.45 C144.276602,21.6740011 144.720119,21.9427991 145.181559,22.2563993 L145.531,22.5 C146.175003,22.9480022 146.650998,23.3329984 146.959,23.655 L145.615,26.154 Z M165.1345,32.727 C163.944494,33.6230045 162.38351,34.3859969 160.4515,35.016 L159.3175,32.181 C160.591506,31.8589984 161.788494,31.3200038 162.9085,30.564 C161.970495,29.4159943 161.137503,28.0020084 160.4095,26.322 C160.101498,27.8900078 159.618503,29.3529932 158.9605,30.711 C158.204496,32.2510077 157.294505,33.4899953 156.2305,34.428 L154.0885,31.845 C154.900504,31.1729966 155.586497,30.3120053 156.1465,29.262 C156.650502,28.3519955 157.056498,27.3160058 157.3645,26.154 C157.630501,25.1739951 157.819499,24.1170057 157.9315,22.983 C158.0295,22.1009956 158.0785,21.2050046 158.0785,20.295 L158.0785,18.972 L155.3275,18.762 L155.3275,15.717 L167.2555,16.557 L167.2345,16.683 C167.2205,16.7250002 167.2135,16.7669998 167.2135,16.809 L166.6255,20.61 L166.4575,21.534 L168.4315,21.66 L168.9355,21.513 L170.7835,22.542 C170.111496,25.9720172 168.970508,28.6599903 167.3605,30.606 C168.620506,31.4600043 170.006492,32.1249976 171.5185,32.601 L170.4685,35.52 C168.312489,34.7639962 166.534507,33.8330055 165.1345,32.727 Z M160.8925,20.253 C161.312502,21.9190083 161.865496,23.4589929 162.5515,24.873 C163.293504,26.4130077 164.133495,27.679995 165.0715,28.674 C166.037505,27.5399943 166.800497,26.1330084 167.3605,24.453 L162.9505,24.138 C163.202501,23.1859952 163.475498,22.0030071 163.7695,20.589 L163.9585,19.497 C163.9725,19.4689999 163.9795,19.4270003 163.9795,19.371 L160.8925,19.161 L160.8925,20.253 Z M191.08,32.748 L191.08,34.995 L174.154,33.819 L174.154,31.572 L181.189,32.055 L181.189,31.425 L176.275,31.089 L176.275,29.577 C176.148999,29.6610004 176.016001,29.7169999 175.876,29.745 L174.07,28.149 C174.966004,27.8969987 175.686997,27.3860038 176.233,26.616 L174.322,26.49 L174.322,24.453 L181.21,24.936 L181.21,24.369 L175.981,23.991 L175.981,22.164 L181.21,22.542 L181.21,21.996 L176.065,21.618 L176.065,15.696 L189.274,16.62 L189.274,22.542 L183.814,22.164 L183.814,22.71 L189.442,23.109 L189.442,24.936 L183.814,24.537 L183.814,25.104 L190.828,25.608 L190.828,27.645 L189.274,27.519 C189.918003,28.2890038 190.407998,28.9539972 190.744,29.514 L189.148,30.102 L189.148,31.992 L183.835,31.614 L183.835,32.244 L191.08,32.748 Z M183.814,20.4 L185.221,20.505 L184.066,20.001 L184.156857,19.7815713 C184.238285,19.5758575 184.333999,19.3130016 184.444,18.993 L184.759,18.006 L183.814,17.943 L183.814,20.4 Z M185.557,20.526 L186.691,20.61 L186.691,18.153 L184.801,18.006 L186.586,18.699 L186.455714,18.9081429 C186.338571,19.1067139 186.200001,19.3659984 186.04,19.686 L185.557,20.526 Z M178.48,20.022 L179.383,20.085 C179.312999,19.8189987 179.215,19.5040018 179.089,19.14 C178.934999,18.733998 178.802,18.4190011 178.69,18.195 L180.244,17.754 C180.552001,18.2580025 180.810999,18.8529966 181.021,19.539 L179.656,20.106 L181.21,20.232 L181.21,17.775 L178.48,17.565 L178.48,20.022 Z M183.835,29.577 L188.287,29.892 C188.132999,29.6259987 187.902001,29.2830021 187.594,28.863 L186.817,27.834 L187.972,27.435 L185.431,27.267 C185.725001,27.8410029 185.941999,28.3589977 186.082,28.821 L183.835,29.451 L183.835,29.577 Z M181.672,28.8 L183.646,28.947 C183.421999,28.344997 183.219001,27.8550019 183.037,27.477 L184.213,27.183 L181.651,26.994 C181.875001,27.6240031 182.028999,28.2049973 182.113,28.737 L181.672,28.8 Z M181.189,29.388 L181.189,28.884 L179.782,29.136 C179.697999,28.5199969 179.558001,27.8830033 179.362,27.225 L181.21,26.973 L176.926,26.658 L178.459,27.267 C178.066998,28.065004 177.584003,28.6809978 177.01,29.115 L181.189,29.388 Z M202.5775,34.47 C201.877496,34.862002 200.55451,34.9880007 198.6085,34.848 L198.4405,31.572 L200.1625,31.698 L200.3725,31.74 C200.666501,31.7680001 200.8135,31.6210016 200.8135,31.299 L200.8135,15.171 L203.6695,15.36 L203.6695,20.589 L204.0265,21.807 C204.1665,22.2690023 204.299499,22.6609984 204.4255,22.983 C204.943502,22.4789975 205.496497,21.8630036 206.0845,21.135 C206.616502,20.4909968 207.092498,19.8540031 207.5125,19.224 L209.9905,21.387 L208.3945,22.983 L207.815523,23.5543406 C206.972051,24.3749036 206.241048,25.0314521 205.6225,25.524 C206.294503,26.6860058 207.085495,27.7499952 207.9955,28.716 C208.947505,29.7380051 209.920495,30.5219973 210.9145,31.068 L209.2345,33.882 C208.072494,33.1119962 207.001505,32.125006 206.0215,30.921 C205.125495,29.8149945 204.341503,28.5690069 203.6695,27.183 L203.6695,31.509 C203.6695,33.0630078 203.305503,34.0499979 202.5775,34.47 Z M200.5825,20.883 C200.204498,23.6130137 199.539505,26.0559892 198.5875,28.212 C197.635495,30.3820108 196.529506,31.963995 195.2695,32.958 L193.2535,30.417 C195.21351,29.0309931 196.585496,26.5810176 197.3695,23.067 L193.8625,22.815 L193.8625,19.812 L198.3355,20.127 L198.8185,20.043 L200.5825,20.883 Z" id="手工藝顏料及墨水" fill="#FFFFFF"></path>
        </g>
    </g>
</svg>