<?xml version="1.0" encoding="UTF-8"?>
<svg width="273px" height="84px" viewBox="0 0 273 84" version="1.1" xmlns="http://www.w3.org/2000/svg" xmlns:xlink="http://www.w3.org/1999/xlink">
    <!-- Generator: Sketch 59.1 (86144) - https://sketch.com -->
    <title>Group 15</title>
    <desc>Created with Sketch.</desc>
    <g id="Amazon-Browser" stroke="none" stroke-width="1" fill="none" fill-rule="evenodd">
        <g id="Group-15" fill-rule="nonzero">
            <g id="paint1-copy-4" transform="translate(136.500000, 42.000000) scale(1, -1) rotate(-360.000000) translate(-136.500000, -42.000000) ">
                <path d="M161.934689,4.97319149 C161.973876,5.00893617 162.013062,5.04468085 162.065311,5.06255319 C162.026124,5.02680851 162,4.97319149 161.960813,4.93744681 L161.934689,4.97319149 Z" id="Path" fill="#C2C4C6"></path>
                <path d="M272.8596,16.4297123 C273.11387,16.1822391 273.000183,15.4960635 272.699504,15.3948244 C271.927278,15.1473513 271.117382,14.798639 270.345156,15.3610781 C270.100303,15.5410586 269.949625,15.7210391 269.808364,15.3273318 C269.695355,15.0123659 269.817781,14.7648927 270.109721,14.6974 C270.36399,14.6299073 270.674764,14.6974 270.750103,14.2474488 C269.940208,13.876239 269.149146,13.7862487 268.386337,14.3486878 C268.59352,14.9336244 269.036138,14.3711853 269.299825,14.7086488 C269.092642,15.2710879 268.706529,15.1923464 268.348668,15.1023561 C266.766545,14.6861512 265.165588,14.6411561 263.545796,14.7311463 C262.566387,14.7873903 261.577561,14.7198976 260.598152,14.7198976 C260.3533,14.7198976 260.051943,14.6749024 260.004856,14.3711853 C259.929517,13.9549804 260.306213,13.8874878 260.53223,13.7412536 C260.720578,13.617517 260.927761,13.6737609 261.134943,13.7412536 C262.12377,14.0449707 263.150266,13.5837707 264.14851,13.9212341 C264.261518,13.9549804 264.402779,13.8537414 264.591127,13.7974975 C264.449866,13.5050292 264.374527,13.2350584 264.092005,13.1900633 C263.790649,13.1450682 263.63997,12.9313413 263.734144,12.6051267 C263.818901,12.3126584 263.969579,11.8514583 264.261518,11.9751949 C264.911319,12.2339169 265.598788,11.5477412 266.210919,12.1664242 C266.333345,12.2901608 266.531111,12.1664242 266.700624,12.1551754 C267.567024,12.0989315 268.226242,11.4914973 268.989051,11.09779 C268.734781,10.5241021 268.367503,10.3891168 267.934302,10.4003656 C267.425763,10.4116143 266.917224,10.4116143 266.399267,10.4003656 C266.201502,10.4003656 265.956649,10.4678582 265.871893,10.1753899 C265.777719,9.83792649 265.975484,9.60170208 266.17325,9.47796549 C266.832467,9.03926302 267.538772,8.75804348 268.310998,8.90427764 C268.715946,8.98301911 269.111477,9.09550692 269.572929,8.91552642 C269.469338,8.5105703 269.337494,8.10561417 269.610599,7.68940926 C269.789529,7.40818973 269.601181,6.87949701 269.959042,6.78950676 C268.263911,6.19332135 266.484024,6.30580916 264.722971,6.18207257 C263.611718,6.1033311 262.481631,6.08083354 261.389213,5.82211157 C259.420977,5.33841397 257.42449,5.15843347 255.446837,4.76472613 C254.947715,4.6634871 254.439176,4.49475538 253.940054,4.51725294 C252.160166,4.60724319 250.417948,4.20228706 248.666312,4.02230656 C248.195443,3.97731144 247.799912,3.97731144 247.394964,4.24728219 C246.90526,4.56224806 246.359051,4.80972125 245.841094,4.69723344 C244.466154,4.39351634 243.053545,4.60724319 241.678605,4.26977975 C241.235988,4.15729194 240.718031,4.08979925 240.058813,4.32602366 C240.539101,4.47225781 240.859292,4.49475538 241.113562,4.67473588 C241.923458,5.22592616 242.789858,5.22592616 243.684511,5.23717494 C244.645085,5.24842372 245.633911,5.30466763 246.406138,6.19332135 C246.509729,6.31705794 246.65099,6.31705794 246.792251,6.2833116 C247.696321,6.1033311 248.383791,6.91324335 249.231356,7.02573117 C249.560965,7.07072629 249.560965,7.4869312 249.259608,7.73440439 C249.07126,7.89188733 248.741652,7.86938976 248.656895,8.1506093 C248.412043,8.96052155 247.875251,8.80303861 247.376129,8.7467947 C244.814598,8.44307761 242.253067,8.43182883 239.682118,8.44307761 C238.429604,8.45432639 237.205343,8.3305898 236.047003,7.72315561 C235.924577,7.65566292 235.783316,7.61066779 235.651473,7.63316536 C234.408377,7.77939951 233.20295,7.27320435 231.922184,7.52067754 C230.613166,7.76815073 229.247644,7.28445314 227.891539,7.3631946 C226.639026,7.43068729 225.386512,7.16071654 224.133999,7.11572142 C222.966242,7.08197507 221.770233,7.44193607 220.62131,6.92449213 C220.508302,6.86824823 220.357623,6.93574092 220.216362,6.9469897 C218.992101,7.01448238 217.76784,6.93574092 216.552996,6.83450188 C215.432326,6.74451163 214.311656,6.62077504 213.190986,6.5870287 C211.703037,6.54203357 210.196254,6.57577991 208.717723,6.49703845 C206.353957,6.37330185 203.980774,6.4070482 201.617007,6.27206282 C200.034885,6.18207257 198.452763,6.15957501 196.861223,6.05833598 C195.401527,5.96834572 193.951248,5.79961401 192.491552,5.67587741 C190.156038,5.48464813 187.811107,5.439653 185.466175,5.42840422 C185.315497,5.42840422 185.155401,5.3834091 185.004723,5.34966275 C185.117732,5.66462863 185.362584,5.69837497 185.588601,5.65337985 C186.407915,5.48464813 187.151889,6.14832623 187.98062,5.90085304 C188.150133,5.84460913 188.41382,5.97959451 188.41382,6.29456038 C188.41382,6.60952626 188.187802,6.63202382 187.98062,6.67701895 C187.782854,6.71076529 187.538002,6.44079454 187.359072,6.77825798 C187.669846,7.32944826 188.121881,6.99198482 188.489159,7.04822873 C188.715176,7.08197507 188.903524,7.1269702 188.922359,7.43068729 C188.941194,7.72315561 188.771681,7.85814098 188.555081,7.91438489 C188.423237,7.94813123 188.281976,7.99312636 188.150133,7.99312636 C186.549176,7.99312636 184.919966,7.92563367 183.394348,7.44193607 C182.518531,7.17196532 181.6898,7.09322385 180.832817,7.08197507 C179.147103,7.05947751 177.46139,6.96948726 175.785093,6.73326285 C174.268893,6.51953601 172.76211,6.08083354 171.227074,6.15957501 C170.44543,6.20457013 169.710874,6.26081404 168.92923,5.87835547 C168.373603,5.60838472 167.610795,5.49589691 167.036333,5.79961401 C166.386533,6.13707744 165.887411,6.50828723 165.482463,5.49589691 C165.463628,5.45090179 165.35062,5.41715544 165.294115,5.42840422 C164.493637,5.66462863 163.683741,5.60838472 162.873845,5.51839447 C162.647827,5.49589691 162.534819,5.73212132 162.412393,5.93459938 C162.299384,6.12582866 162.158123,6.21581891 161.979192,6.12582866 C162.092201,6.24956526 162.186375,6.39579941 162.402975,6.36205307 C162.911514,6.29456038 163.269375,6.63202382 163.777915,7.25070679 C163.090445,7.28445314 162.67608,7.59941901 162.129871,7.3631946 C161.329392,7.01448238 160.547748,6.59827748 159.662513,6.60952626 C159.502417,6.60952626 159.31407,6.49703845 159.31407,6.24956526 C159.31407,5.9233506 159.53067,5.88960426 159.737852,5.86710669 C159.982705,5.83336035 160.246392,6.20457013 160.557166,5.66462863 C159.201061,5.23717494 157.920295,4.79847247 156.488851,5.6196335 C156.81846,5.86710669 157.119817,5.99084329 157.326999,5.81086279 C157.863791,5.33841397 158.108643,5.79961401 158.447669,6.23831648 C158.15573,6.49703845 157.920295,7.22820923 157.618939,6.9469897 C156.969138,6.32830673 156.309921,6.9469897 155.678955,6.67701895 C155.405851,6.56453113 155.057407,6.60952626 154.812555,6.89074579 C154.511198,7.23945801 154.14392,7.20571167 153.767224,7.19446289 C152.034423,7.16071654 150.31104,7.14946776 148.578239,7.14946776 C148.003778,7.14946776 147.438735,7.26195557 146.854856,7.1832141 C145.479916,7.01448238 144.095559,6.80075554 142.72062,6.77825798 C140.855976,6.74451163 139.000749,6.9469897 137.136105,6.93574092 C135.280878,6.92449213 133.435068,7.11572142 131.579842,6.96948726 C129.216075,6.77825798 126.833475,6.90199457 124.460291,6.87949701 C122.586229,6.85699945 120.721585,6.85699945 118.866358,6.50828723 C117.519671,6.26081404 116.154149,6.1033311 114.798044,6.19332135 C112.048165,6.37330185 109.31712,6.03583841 106.576658,6.00209207 C105.493658,5.99084329 104.40124,5.91210182 103.318239,5.9233506 C100.897969,5.93459938 98.4871159,6.08083354 96.0668454,5.97959451 C94.268123,5.91210182 92.4694006,6.01334085 90.6706781,5.90085304 C89.2863211,5.81086279 87.901964,5.99084329 86.517607,6.00209207 C85.8960589,6.00209207 85.3310152,5.68712619 84.7000498,5.78836522 C82.6470577,6.13707744 80.5752308,6.26081404 78.5034039,6.20457013 C75.9512899,6.13707744 73.4462629,6.74451163 70.9035662,6.83450188 C69.3779483,6.89074579 67.8523303,7.26195557 66.3361297,7.1832141 C64.2548854,7.07072629 62.2018933,7.44193607 60.1300665,7.43068729 C58.8022138,7.41943851 57.4837785,7.71190682 56.1559258,7.62191657 C55.7886474,7.59941901 55.374282,7.71190682 55.4119516,6.96948726 C55.4307864,6.66577016 55.1765167,6.80075554 55.0258384,6.80075554 C54.2441946,6.7670092 53.4625509,6.78950676 52.6809071,6.86824823 C51.0140282,7.04822873 49.3377319,6.39579941 47.6520182,6.98073604 C47.0963919,7.17196532 46.4465917,7.19446289 45.834461,7.23945801 C44.1393299,7.34069704 42.425364,7.25070679 40.7773199,7.90313611 C40.683146,7.93688245 40.5701372,7.94813123 40.4759633,7.93688245 C38.8185018,7.79064829 37.1704577,7.89188733 35.5224136,8.0268727 C35.1645526,8.06061904 34.8349437,8.01562392 34.7031002,7.52067754 C34.6560132,7.35194582 34.5618393,7.22820923 34.4205784,7.19446289 C33.4034997,6.95823848 32.3581689,6.39579941 31.3881772,6.55328235 C29.4481939,6.86824823 27.5176279,6.69951651 25.587062,6.8232531 C24.8901747,6.86824823 24.0991136,6.24956526 24.0896962,5.67587741 C24.0802788,4.98970175 23.8165917,4.96720419 23.3833915,4.98970175 C21.5564169,5.11343835 19.7200249,5.22592616 17.9213025,5.70962376 C17.5634415,5.81086279 17.2055805,5.85585791 16.8194673,5.78836522 C16.0566583,5.66462863 15.3032667,5.46215057 14.5122055,5.63088229 C14.0601706,5.73212132 13.5704661,5.68712619 13.1749355,5.24842372 C12.996005,5.05719444 12.7134831,4.80972125 12.4592135,5.18093103 C12.1672742,5.6196335 11.8094132,5.55214082 11.4421348,5.3834091 C11.0277694,5.19217982 10.7829172,5.21467738 10.6134041,5.83336035 C10.4344736,6.48578966 10.1331169,6.54203357 9.53040364,6.24956526 C9.04069911,6.01334085 8.58866415,6.09208232 8.21196836,6.53078479 C7.88235953,6.91324335 7.55275071,7.22820923 7.07246357,7.25070679 C6.82761131,7.26195557 6.70518517,7.41943851 6.75227215,7.72315561 C6.77110694,7.88063854 6.78994173,8.09436539 6.62984601,8.1506093 C5.83878484,8.44307761 5.20781938,8.97177033 4.73694964,9.79293136 C4.68986266,9.87167283 4.54860174,9.87167283 4.45442779,9.91666796 C3.85171452,10.1978875 3.84229712,10.2091363 4.17190594,10.8953119 C4.39792342,11.3790095 4.76520182,11.817712 4.96296711,12.2451657 C5.1795672,12.7063657 5.33024552,13.3362975 5.52801081,13.876239 C5.79169787,14.6186585 5.75402829,14.7198976 5.11364543,14.6749024 C4.83112359,14.6524049 4.58627132,14.6299073 4.41675821,14.9448732 C4.49209737,15.1586 4.63335829,15.1248537 4.76520182,15.1136049 C5.1701498,15.0686098 5.58451518,15.0123659 5.98004576,15.1923464 C6.30965459,15.3498293 6.62984601,15.6085513 6.56392425,16.0697513 C6.49800248,16.5759465 6.11188929,16.4409611 5.81053266,16.4409611 C5.74461089,16.4409611 5.65985434,16.3847172 5.61276736,16.4072148 C5.06655846,16.6771855 4.33200166,16.497205 4.09656678,17.4983465 C3.96472325,18.0607856 3.48443611,18.3195076 2.98531418,18.4319954 C2.5897836,18.5219856 2.19425301,18.6344735 1.80813982,18.7807076 C1.16775697,19.0281808 1.1112526,19.1406686 1.28076571,19.9393321 C1.52561797,21.075459 1.76105285,22.2228347 2.31667915,23.2239762 C2.62745318,23.7751665 2.44852268,24.213869 1.98707032,24.1126299 C1.15833957,23.9326494 0.734556803,24.6525714 0,25.0125324 C0.51795672,25.2600056 0.932322095,25.2712544 1.25251352,25.6312154 C2.11891385,26.6098594 1.8552268,27.914718 2.0341573,29.0958401 C2.06240948,29.2870693 1.87406159,29.4220547 1.74221806,29.5682889 C0.922904701,30.4456938 0.951156885,32.3017427 1.83639201,33.0104159 C2.27900957,33.3703769 2.53327923,33.8878209 2.90055763,34.3040258 C3.18307948,34.6189917 3.12657511,34.8889624 2.957062,35.271421 C2.60861839,36.0475869 2.74987931,36.7000162 3.40909696,37.0599772 C3.82346233,37.2849528 4.03064502,37.6336651 4.22841031,38.0723675 C5.01005409,39.7371872 5.57509778,41.5144946 6.20606324,43.2693045 C6.52625467,44.1579582 7.18547231,44.7991387 7.392655,45.7890315 C7.54333332,46.5202023 7.90119432,47.150134 8.43798583,47.6788267 C8.8617686,48.0950317 9.29496877,48.6012268 9.49273406,49.2874025 C10.0295256,51.1434514 10.7358302,52.8870125 11.9412567,54.2593638 C12.3179525,54.6868175 12.3838743,54.968037 11.9695089,55.4404858 C11.3856304,56.1041639 11.0842738,56.9703201 10.9995172,57.9264665 C10.9712651,58.2189348 10.9524303,58.5001544 10.8205867,58.7476275 C10.4533083,59.4113056 10.3214648,60.0299886 10.8582563,60.7049155 C11.0842738,60.9973838 11.159613,61.3910911 10.6981606,61.6835595 C10.1236995,62.0547692 9.85059507,62.7746912 9.92593423,63.5283596 C10.0106908,64.2707792 9.73758633,64.6869841 9.40797751,65.2381743 C8.8617686,66.1493256 8.35322928,67.1504672 8.25905533,68.3090916 C8.22138575,68.7927892 8.3249771,69.2539893 7.95769869,69.6364478 C7.79760298,69.8051795 7.77876819,70.1313942 7.92944651,70.3113747 C8.3155597,70.7725747 8.52274239,71.3800089 8.84293381,71.8862041 C8.90885558,71.9874431 9.45506448,73.5847701 9.43622969,73.7085067 C9.25729919,74.6421555 9.69049936,75.5983019 9.27613398,76.5544483 C9.03128171,77.1168874 9.73758633,77.9492972 10.2743778,77.7805655 C11.2443695,77.4880972 12.2708656,77.5893362 13.1937703,76.981902 C13.5233791,76.7681752 13.9848314,76.8131703 14.3709446,76.6444386 C14.6911361,76.5094532 14.8700666,76.7006825 14.9359883,77.0943898 C15.0489971,77.7580679 15.3409363,78.2980094 15.7364669,78.8941948 C15.811806,78.6579704 15.858893,78.5567314 15.8871452,78.4442436 C16.2073366,77.0493947 16.4898585,76.7794239 17.7047024,76.8244191 C17.9495547,76.8356679 18.0719808,76.6894337 18.1755722,76.4644581 C18.2697461,76.2507312 18.3356679,75.9807605 18.6087723,76.0595019 C18.9007116,76.1494922 18.9195464,76.4532093 18.9666333,76.7344288 C19.0325551,77.0943898 19.0137203,77.4543508 18.9383812,77.8143118 C18.8253724,78.3767509 18.9007116,78.93919 19.0702247,79.4903802 C19.2020682,79.9178339 19.3809987,80.0753169 19.7953641,80.1428096 C20.8595297,80.3227901 21.8766084,80.1990535 22.893687,79.8053461 C23.2421306,79.6703607 23.5999916,79.7828486 23.7130004,80.2665461 C23.8071743,80.6827511 23.609409,80.9864681 23.251548,81.0427121 C22.6959217,81.1327023 22.7712609,81.5489072 22.8371826,82.2013365 C23.1762089,81.5264097 23.5529047,81.1776974 24.0802788,81.3576779 C24.7677486,81.5939023 24.3628006,82.4150634 24.6359051,83 C25.0973574,82.4375609 25.6247315,82.3475707 26.20861,82.6062927 C26.5476362,82.7525268 26.8772451,82.6625366 27.2068539,82.5275512 C28.1015064,82.1675902 29.0338285,81.8751219 29.8060549,81.200195 C30.0320723,81.0089657 30.239255,81.0652096 30.4841073,81.098956 C31.3316728,81.200195 31.3975946,81.1327023 31.5953599,80.0528193 C31.6801165,79.5916193 31.859047,79.501629 32.1604036,79.7378534 C32.4900124,79.9965754 32.7913691,80.3452876 33.2622388,80.221551 C32.8572908,79.4566339 32.8949604,79.2541558 33.4317519,79.2541558 C34.816109,79.242907 36.1251269,79.7266046 37.6978318,80.1090632 C36.4453183,80.9302242 35.3434831,80.2327998 34.0721348,80.4127803 C34.6089263,80.7164974 34.9479525,80.8064876 35.2775613,80.7277462 C36.0686225,80.5365169 36.8502663,80.7839901 37.6036579,80.9302242 C38.1027798,81.0314633 38.6019017,81.098956 39.1010236,81.0877072 C39.4871368,81.0764584 39.8355804,81.1551999 40.2028588,81.2564389 C41.803816,81.6838926 43.3953557,81.9538633 44.9115563,80.8627316 C45.0904868,80.7277462 45.3165043,80.840234 45.5048522,80.8064876 C46.2299916,80.6715023 46.9928006,80.9864681 47.6896878,80.6152584 C48.2641489,80.3002925 48.8762796,80.3002925 49.4884102,80.2440486 C51.9651851,79.9853266 54.4419599,80.4015315 56.9187348,80.3677852 C58.3407614,80.3452876 59.7722055,80.2440486 61.1848147,80.5365169 C61.5144235,80.6040096 61.740441,80.4015315 62.1171368,80.0640681 C60.3466665,79.8840876 58.7645442,79.4566339 57.1353349,79.6028681 C56.6267956,79.6478632 55.9864127,79.4228875 55.6379691,79.7153559 C55.0729254,80.1765559 54.5926383,79.8390925 54.0840989,79.8390925 C53.9145858,79.8390925 53.7356553,79.7940973 53.6697336,79.5691217 C53.5943944,79.2766534 53.7639075,79.1079217 53.9334206,78.9841851 C54.0746815,78.882946 54.2441946,78.8267021 54.4137078,78.7929558 C55.2141863,78.6467216 56.0052475,78.5117363 56.8245609,78.5679802 C57.6721264,78.6354729 58.5385267,78.6692192 59.3672575,78.5004875 C61.2978234,78.1180289 63.2283894,78.1742728 65.1683727,78.1292777 C65.3755554,78.1292777 65.6109903,78.1180289 65.7428338,78.320507 C66.0724426,78.8154534 66.5150602,78.7367119 66.9576778,78.7704582 C67.7299041,78.8154534 68.4832957,78.6354729 69.2743569,78.7254631 C69.7169745,78.7704582 70.1784268,79.0516778 70.6210444,78.9279412 C71.7888014,78.6017265 72.9753931,78.5904777 74.1619849,78.5567314 C74.7270286,78.5454826 75.2261505,78.421746 75.7252724,77.7355704 C74.4068371,78.3317558 73.2014106,77.8930533 71.9865666,77.9492972 C70.7905575,78.0055411 69.5662962,78.4104972 68.1442695,77.8143118 C68.7846524,77.4880972 69.0671742,76.8131703 69.5945483,77.0493947 C70.159592,77.2968679 70.5362878,77.3531118 70.658714,76.4869556 C70.6681314,76.4082142 70.8188097,76.2957264 70.9035662,76.2957264 C71.5251143,76.3069751 72.2408363,75.7670336 72.7211234,76.7344288 C72.8623844,77.0156484 73.1354888,76.9369069 73.3803411,76.9031605 C74.1902371,76.8019215 75.0095504,76.8356679 75.810029,76.7569264 C77.8441863,76.5544483 79.9536827,77.2518728 81.9125009,76.1157459 C83.5699624,75.9807605 85.1897543,75.4183214 86.875468,75.5308092 C87.1768246,75.5533068 87.6759466,75.6095507 87.7512857,75.440819 C88.1373989,74.6309067 88.7495296,74.9683702 89.2769037,74.8558823 C89.8419474,74.7433945 90.4352433,74.822136 91.000287,74.7546433 C93.6842445,74.4396774 96.3682021,74.4734238 99.0521596,74.4284287 C100.069238,74.4171799 101.095734,74.3946823 102.112813,74.3384384 C102.508344,74.3159408 103.016883,74.4509262 103.092222,73.6297652 C103.120474,73.3372969 103.572509,73.2023115 103.798527,73.3372969 C104.608423,73.7984969 105.427736,73.2473066 106.265884,73.4610335 C107.160537,73.6972579 108.139946,73.4272871 109.081685,73.382292 C109.57139,73.3597944 110.023425,73.2585554 110.409538,72.8760968 C110.710894,72.5723797 111.097008,72.5048871 111.473703,72.5948773 C111.888069,72.6961163 112.283599,72.6398724 112.688547,72.6061261 C113.809217,72.5161358 114.929887,72.4598919 116.050557,72.3699017 C118.084715,72.2124187 120.118872,72.3699017 122.162447,72.0886821 C123.123021,71.9536968 124.130682,71.2787699 125.138343,71.9199504 C125.194848,71.9536968 125.336109,71.8637065 125.420865,71.8074626 C125.8729,71.4250041 126.400274,71.5037455 126.908814,71.481248 C129.395006,71.3912577 131.871781,71.4025065 134.348556,71.7399699 C134.753504,71.7962138 135.139617,71.942448 135.5634,71.8974529 C137.211444,71.6949748 138.868905,71.6949748 140.516949,71.9311992 C141.402184,72.0549358 142.268585,72.0211895 143.15382,71.8974529 C144.152064,71.7512187 145.187977,71.6049846 146.157969,72.20117 C146.327482,72.302409 146.553499,72.3361553 146.751265,72.3249066 C147.693004,72.2799114 148.625326,72.1786724 149.567066,72.1786724 C150.621814,72.1786724 151.695397,72.1224285 152.712476,72.3586529 C153.964989,72.6511212 155.208085,72.561131 156.451182,72.5498822 C157.157486,72.5498822 157.863791,72.4261456 158.570095,72.6511212 C158.758443,72.7073651 158.975043,72.7073651 159.172809,72.6736188 C159.982705,72.5386334 160.802018,72.5948773 161.602497,72.6736188 C163.372967,72.8535993 165.13402,72.8198529 166.895072,72.7298627 C168.317099,72.66237 169.748543,72.5723797 171.17057,72.6398724 C173.647345,72.763609 176.105285,73.0448286 178.591477,72.763609 C180.540878,72.5386334 182.509113,72.4598919 184.467931,72.3136578 C184.844627,72.2911602 185.193071,72.1674236 185.550932,72.0774334 C186.257236,71.9087016 186.935289,71.6499797 187.698098,71.6612285 C189.148377,71.6949748 190.645742,71.7062236 192.039517,71.3012675 C193.216691,70.9525552 194.337361,70.5363503 195.57104,70.5925942 C196.616371,70.6375894 197.708789,70.3001259 198.71645,70.5251015 C199.761781,70.761326 200.797694,70.8963113 201.843025,70.9300577 C202.671756,70.963804 203.330973,71.6387309 204.159704,71.6499797 C204.734165,71.6612285 205.336878,71.6049846 205.883087,71.7849651 C207.088514,72.20117 208.312775,72.3136578 209.546454,72.3586529 C211.00615,72.403648 212.494099,72.20117 213.878456,72.9098432 C214.867282,73.4160383 215.856109,73.4497847 216.892022,73.3372969 C217.438231,73.281053 217.956188,73.5622725 218.483562,73.6860091 C219.632484,73.9447311 220.83791,73.641014 221.920911,74.102214 C223.776138,74.8783799 225.725538,74.7096482 227.618435,75.1595994 C228.899201,75.4633165 230.245888,75.4970629 231.573741,75.5758043 C232.863924,75.6545458 234.144689,75.7107897 235.44429,75.6657946 C236.357777,75.6320483 237.280682,75.7332873 238.184752,75.9245166 C239.512605,76.1944873 239.842213,76.1832385 240.953466,75.2945848 C241.170066,75.1258531 241.405501,75.1146043 241.640936,75.1708482 C242.592093,75.4183214 243.524415,74.9008775 244.475572,75.1146043 C244.673337,75.1595994 244.955859,75.080858 244.927607,74.7771409 C244.84285,74.0459701 245.153624,73.9447311 245.643329,74.000975 C245.803424,74.0234725 245.972937,73.9447311 245.991772,73.6747603 C245.662163,73.2585554 245.181876,73.6072676 244.833433,73.382292 C243.825771,72.7523602 242.723936,72.921092 241.659771,72.8198529 C241.367831,72.7861066 241.094727,72.8648481 241.08531,72.3923992 C241.075892,71.9986919 241.160649,71.6499797 241.556179,71.5937358 C241.857536,71.5487406 242.16831,71.5149943 242.469667,71.5149943 C244.758094,71.5037455 247.055938,71.8187114 249.344365,71.582487 C249.344365,70.2776284 249.32553,70.2101357 248.308451,70.0751503 C247.639816,69.9964088 247.018268,69.625199 246.311964,69.7601844 C246.048277,69.8164283 245.671581,69.6139503 245.53032,69.1190039 C246.038859,68.8152868 246.509729,68.9952673 246.971181,69.0290136 C247.234868,69.0402624 247.33846,68.8827795 247.413799,68.6465551 C247.51739,68.3203404 247.30079,68.2078526 247.112442,68.1291111 C246.415555,67.825394 245.690416,67.6454135 244.955859,67.4879306 C244.729841,67.4429355 244.466154,67.4429355 244.475572,66.9479891 C245.210129,66.6892671 246.085946,66.8579988 246.698077,66.1155793 C246.726329,66.0818329 246.820503,66.1380768 246.886425,66.1605744 C247.055938,66.2280671 247.244286,66.2505647 247.291373,65.9918427 C247.33846,65.7443695 247.150112,65.6431305 246.980599,65.6093841 C246.848755,65.5756378 246.707494,65.5981353 246.575651,65.5756378 C246.39672,65.5418914 246.264877,65.4181548 246.246042,65.1819304 C246.21779,64.8782133 246.283712,64.5969938 246.500312,64.4282621 C246.65099,64.3045255 246.848755,64.3495206 246.961764,64.5295011 C247.347877,65.1706817 247.865834,64.9794524 248.214277,64.6419889 C248.713399,64.1582913 249.240774,64.225784 249.626887,64.5407499 C250.182513,64.9907012 250.606296,64.6982328 251.048913,64.4395109 C251.491531,64.1807889 251.510366,63.8883206 251.105418,63.4383693 C250.954739,63.2696376 250.766392,63.1234035 250.738139,62.8759303 C250.6628,62.2909936 250.40853,62.0435205 249.899991,62.1110131 C249.749313,62.1335107 249.570382,62.0210229 249.419704,61.9310326 C249.156017,61.7623009 249.203104,61.4585838 249.212521,61.1773643 C249.221939,60.8961448 249.391452,60.9411399 249.560965,60.884896 C250.135426,60.6824179 250.70047,60.4124472 251.265513,60.164974 C251.482114,60.0637349 251.548035,59.8387593 251.5292,59.5687886 C251.482114,59.0063495 251.425609,58.4439104 251.38794,57.8702226 C251.35027,57.3752762 251.143087,57.0828079 250.719305,57.1952957 C250.352026,57.2965348 250.078922,57.1840469 249.994165,56.7903396 C249.899991,56.3853835 249.532713,56.3403883 249.400869,56.0141737 C249.683391,55.4629834 250.248435,55.3729932 250.549791,54.8330516 C251.38794,53.325715 252.913558,53.1794808 253.996558,54.4618419 C254.439176,54.9792858 255.023054,55.2380078 255.559846,55.1142712 C256.030715,55.0017834 256.416828,54.8780468 256.850029,55.2042614 C257.000707,55.3167492 257.273811,55.4067395 257.367985,55.0917736 C257.471577,54.7318126 257.245559,54.6418224 256.99129,54.5293346 C256.30382,54.2031199 255.823533,53.6294321 255.672854,52.7857735 C255.814115,52.549549 255.945959,52.605793 256.08722,52.605793 C256.91595,52.6170417 257.019542,52.4933051 257.000707,51.4809148 C256.99129,50.7722416 257.584585,50.2323001 258.196716,50.4572757 C258.450986,50.547266 258.695838,50.7947392 258.968942,50.6710026 C259.364473,50.4910221 259.684664,50.5922611 259.995439,50.907227 C260.193204,51.109705 260.419221,51.2334416 260.588734,50.8847294 C260.767665,50.5247684 260.513395,50.3785343 260.306213,50.2435489 C260.193204,50.1648074 260.070778,50.0748172 259.938934,50.0523196 C259.279716,49.9173342 259.063116,49.3998903 259.053699,48.6799683 C259.986021,48.3762512 260.871256,48.1512756 261.351543,49.9510806 C261.624648,48.6237244 262.0861,48.1062804 262.961918,48.3875 C263.037257,48.4099975 263.187935,48.3537536 263.235022,48.2637634 C263.630553,47.5663389 264.242684,47.8588072 265.005493,47.8363097 C264.299188,47.4650999 264.073171,46.8801633 263.715309,46.4527096 C263.46104,46.1377437 263.592883,45.8227778 263.960162,45.8227778 C264.299188,45.8227778 264.628797,45.9015193 264.920736,45.5978022 C265.363354,45.1366022 265.871893,45.0353631 266.446354,45.1141046 C266.757128,45.1590997 267.067902,45.1028558 267.425763,45.0916071 C267.284502,44.8103875 267.124406,44.7541436 266.964311,44.6866509 C266.634702,44.5516656 266.088493,44.6641534 266.210919,43.9892265 C266.31451,43.4155386 265.645875,43.2580557 265.843641,42.6956166 C266.13558,41.8632068 266.229754,40.9183092 266.917224,40.3333726 C267.397511,39.9284164 267.51052,39.0622603 267.077319,38.7135481 C266.728876,38.4323285 266.738293,38.0948651 266.597032,37.7461529 C266.342763,37.071226 266.276841,36.2950601 265.730632,35.732621 C266.003736,35.631382 266.182667,35.5526405 266.380432,35.4851478 C265.862476,35.0801917 265.127919,35.4626503 264.609962,34.7652258 C265.240927,34.551499 265.787136,34.3715185 266.342763,34.1802892 C265.805971,33.2916355 266.079076,32.8979281 267.331589,31.7842988 C266.879554,31.6268158 266.465189,31.4468353 266.031989,31.5368256 C265.476362,31.6605622 265.184423,31.2668548 264.996075,30.7831573 C264.817145,30.3107084 265.316267,30.2544645 265.457528,29.973245 C265.824806,29.2645718 266.465189,29.3770596 266.992563,29.1633327 C267.124406,29.1070888 267.265667,29.0170986 267.246833,28.8371181 C267.209163,28.5558986 267.011398,28.5558986 266.851302,28.6458888 C266.144997,29.0170986 265.410441,29.1183376 264.657049,28.9271083 C264.073171,28.7808742 263.498709,28.533401 262.933666,29.0283474 C262.858327,29.0958401 262.669979,28.9496059 262.547553,28.9721035 C261.794161,29.1295864 261.125526,28.4996546 260.3533,28.63464 C260.070778,28.6908839 259.807091,28.2634302 259.769421,27.9259668 C259.722334,27.5097619 260.089612,27.3747765 260.343882,27.4310204 C260.918343,27.554757 261.502222,27.2847863 262.057848,27.5772546 C262.3027,27.71224 262.575805,27.71224 262.77357,27.4647668 C262.745318,27.2172936 262.632309,27.1273033 262.509883,27.0485619 C262.359205,26.9585716 262.170857,26.8910789 262.217944,26.632357 C262.255613,26.373635 262.453379,26.3848838 262.613474,26.3398886 C262.858327,26.2611472 263.169101,26.3961325 263.366866,25.9236837 C262.943083,25.8336935 262.717066,25.4062398 262.34037,25.2150105 C261.568143,24.8100544 261.568143,24.7988056 261.935422,23.8651568 C262.293283,22.9540055 262.453379,22.8865128 263.263275,23.1902299 C263.875405,23.4264543 264.496953,23.6064348 265.203258,23.6401811 C265.061997,23.3252153 264.704136,23.235225 264.770058,22.9315079 C264.854814,22.5490493 265.165588,22.7515274 265.382188,22.7290298 C266.088493,22.6277908 266.82305,22.6390396 267.491685,22.4028152 C268.791285,21.9416152 270.109721,21.5816542 271.456408,21.4129224 C271.682426,21.3791761 271.927278,21.3454297 272.021452,21.0079663 C271.418739,20.8729809 270.844277,20.6480053 270.232147,20.6367565 C269.902538,20.6367565 269.610599,20.4455272 269.582347,20.0180736 C269.554094,19.6581126 269.864868,19.635615 270.062634,19.4893808 C270.65593,19.0506784 271.258643,18.7132149 271.974365,18.8032052 C272.087374,18.814454 272.256887,18.8369515 272.266304,18.5107369 C271.494078,18.1057807 270.505251,18.8257027 269.695355,17.9482978 C270.36399,17.475849 271.032625,17.4421026 271.654173,17.3971075 C272.190965,17.2958685 272.482904,16.8009221 272.8596,16.4297123 Z M247.978843,61.244857 C247.875251,61.5485741 247.658651,61.4810814 247.376129,61.4923302 C247.103025,61.4248375 246.745164,61.3685936 246.39672,61.244857 C246.227207,61.1886131 246.133033,60.9748862 246.161285,60.7724082 C246.189538,60.5586813 246.359051,60.4011984 246.528564,60.4461935 C246.980599,60.5474325 247.432634,60.6936667 247.865834,60.8511496 C247.997677,60.8961448 248.035347,61.0648765 247.978843,61.244857 Z M248.816991,62.8871791 C248.713399,62.8646815 248.647478,62.7746912 248.685147,62.6509546 C248.703982,62.5947107 248.788739,62.5497156 248.845243,62.5497156 C248.939417,62.5384668 249.024173,62.583462 249.033591,62.7296961 C249.005339,62.8534327 248.920582,62.9096766 248.816991,62.8871791 Z" id="Shape" fill="#E2C619"></path>
                <path d="M178.995102,5 C178.995102,5 178.995102,5 178.995102,5 L178.995102,5 C179.008164,5 179.008164,5 178.995102,5 Z" id="Path" fill="#C2C4C6"></path>
                <path d="M178.795736,3.77931034 C178.052957,3.83448276 177.328748,3.66896552 176.595254,3.64137931 C174.459766,3.55862069 172.314993,3.66206897 170.18879,3.45517241 C169.891678,3.42758621 169.585282,3.44827586 169.278886,3.45517241 C168.071871,3.47586207 166.855571,3.46206897 165.667125,3.39310345 C163.800894,3.28275862 161.925378,3.13103448 160.059147,3.11724138 C157.394429,3.08965517 154.720426,3.07586207 152,3 C152.250688,3.20689655 152.52923,3.17241379 152.779917,3.16551724 C153.819807,3.14482759 154.850413,3.23448276 155.881018,3.28965517 C158.685007,3.44137931 161.507565,3.42068966 164.311554,3.57931034 C166.279917,3.68965517 168.257565,3.66206897 170.235213,3.70344828 C172.500688,3.75172414 174.766162,3.8137931 177.022352,3.88275862 C177.681568,3.90344828 178.368638,3.75172414 179,4 C178.972146,3.90344828 178.953576,3.76551724 178.795736,3.77931034 Z" id="Path" fill="#C2C4C6"></path>
                <path d="M81.7475728,3.63870181 C82.4368932,3.66093554 83.1359223,3.62758494 83.815534,3.74987048 C85.0097087,3.9833247 86.1941748,4.28348012 87.3106796,3.44971506 C87.5533981,3.26072832 87.8349515,3.27184518 88.1165049,3.27184518 C88.368932,3.27184518 88.6504854,3.42748133 89,3.08285844 C88.4563107,3.0606247 88.0485437,2.94945603 87.592233,3.0272741 C86.3300971,3.24961145 85.0873786,3.70540301 83.776699,3.36078012 C83.5145631,3.29407892 83.223301,3.38301386 82.9417476,3.4385982 C82.2912621,3.56088374 81.6407767,3.54976687 81,3.38301386 C81.2038835,3.67205241 81.4757282,3.62758494 81.7475728,3.63870181 Z" id="Path" fill="#C2C4C6"></path>
                <path d="M83.0261244,3.01787234 C83.0130622,3 83.0130622,3 83,2.98212766 L82.9738756,3.01787234 C82.9869378,3.01787234 83.0130622,3.01787234 83.0261244,3.01787234 Z" id="Path" fill="#C2C4C6"></path>
                <path d="M54.4315789,2.71506929 C56.5894737,2.601097 58.7473684,2.43013857 61,2.07397518 C58.3894737,1.81753754 55.9157895,2.28767322 53.4210526,2.57260393 C53.2,2.601097 53.1052632,2.8005485 53,3 C53.4421053,2.64383661 53.9473684,2.74356236 54.4315789,2.71506929 Z" id="Path" fill="#C2C4C6"></path>
                <path d="M55.0048983,2.99602837 C54.9918361,2.99602837 54.9918361,2.99602837 55.0048983,2.99602837 L55.0048983,2.99602837 C54.9918361,3.01390071 54.9918361,2.99602837 55.0048983,2.99602837 Z" id="Path" fill="#C2C4C6"></path>
                <path d="M184.934689,5.00893617 C184.960813,5.00893617 184.986938,5.00893617 185.013062,5.00893617 C185.013062,5.00893617 185.013062,5.00893617 185.013062,5.00893617 C185.026124,5.00893617 185.039187,5.00893617 185.065311,5.02680851 C185.065311,5.00893617 185.052249,4.99106383 185.052249,4.97319149 C185.013062,4.99106383 184.973876,4.99106383 184.934689,5.00893617 Z" id="Path" fill="#C2C4C6"></path>
                <path d="M179,3.40798939 C179.958599,3.37134745 180.906051,3.32249151 181.853503,3.32249151 C182.388535,3.32249151 182.979299,3.20035169 183.35828,3.84769278 C183.469745,4.0431165 183.714968,4.03090252 183.904459,3.92097667 C184.562102,3.5423432 185.308917,3.59119914 186,3.40798939 C184.071656,3.28584957 182.143312,3.16370974 180.214968,3.00492796 C179.757962,2.96828601 179.367834,3.13928177 179,3.40798939 Z" id="Path" fill="#C2C4C6"></path>
                <path d="M123.567407,1.05822515 C124.168889,1.05822515 124.77037,1.10316274 125.361481,1.05822515 C125.900741,1.02452196 126.481481,1.27167869 127,0.934646787 C124.645926,1.09192834 122.302222,0.799834027 120,0.912177994 C120.591111,0.968349977 121.182222,1.05822515 121.773333,1.09192834 C122.374815,1.11439713 122.965926,1.06945955 123.567407,1.05822515 Z" id="Path" fill="#C2C4C6"></path>
                <path d="M15.5832332,77.5434653 C14.9530005,77.3878284 14.3126027,77.2218158 13.68237,77.0661789 C13.4790691,77.0143 13.2351081,76.9105421 13.0927975,77.1595611 C12.9708169,77.3567011 12.9708169,77.5953442 13.0826324,77.80286 C13.224943,78.0622547 13.4892342,77.9688726 13.672205,77.9066179 C14.4650784,77.6160958 15.2376217,77.7613568 16,78 C15.9593398,77.7509811 15.8170292,77.60572 15.5832332,77.5434653 Z" id="Path" fill="#C2C4C6"></path>
                <path d="M14.9970973,79 C14.9970973,79 14.9970973,79 14.9970973,79 C14.9970973,79 14.9970973,79 14.9970973,79 C14.9970973,79 15.0101595,79 14.9970973,79 C14.9970973,79 14.9970973,79 14.9970973,79 C14.9970973,79 14.9970973,79 14.9970973,79 Z" id="Path" fill="#C2C4C6"></path>
                <path d="M151,3.0944787 C149.333333,3.07200991 147.687371,2.65633723 146,2.92596275 C147.666667,3.03830672 149.322981,3.28546345 151,3.0944787 Z" id="Path" fill="#C2C4C6"></path>
                <path d="M265,25.1388425 C263.641791,24.7530465 262.820896,25.2259578 262,25.8855445 C263.179104,26.1842253 264.059701,25.8855445 265,25.1388425 Z" id="Path" fill="#C2C4C6"></path>
                <path d="M101.806794,1.13708444 C103.208068,1.09214686 104.598726,1.05844367 106,1.01350608 C104.333333,0.991037286 102.656051,1.03597487 101,0.856224526 C101.201699,1.18202203 101.509554,1.14831884 101.806794,1.13708444 Z" id="Path" fill="#C2C4C6"></path>
                <path d="M52,3.1419173 C52.7926421,3.11944851 53.8862876,3.08574532 55,3.05204213 C53.8762542,2.61390066 52.7826087,3.04080773 52,3.1419173 Z" id="Path" fill="#C2C4C6"></path>
                <path d="M51.2071749,2.98736235 C51.0565022,2.98736235 50.9152466,3.00523469 50.7928251,3.00523469 C50.9152466,3.02310703 51.0565022,3.00523469 51.2071749,2.98736235 Z" id="Path" fill="#C2C4C6"></path>
                <path d="M265,22.5293411 C266.018349,23.2463321 267.022936,23.1343023 268,22.2604694 C266.96789,21.4986664 266.018349,22.6637769 265,22.5293411 Z" id="Path" fill="#C2C4C6"></path>
                <path d="M64,79.0003629 C64.9680851,79.1239413 65.9468085,79.2250509 67,78.9891285 C65.9574468,78.9329566 64.9787234,78.7419718 64,79.0003629 Z" id="Path" fill="#C2C4C6"></path>
                <path d="M38,82.8138142 C39.4926108,83.3305965 39.6995074,83.3530653 41,83.0609709 C39.9655172,82.8138142 39.0935961,82.6565327 38,82.8138142 Z" id="Path" fill="#C2C4C6"></path>
                <path d="M139,0.904507628 C138,0.938210818 137,0.971914008 136,1.0056172 C136,1.03932039 136,1.06178918 136,1.09549237 C137,1.06178918 138,1.02808599 139,0.994382802 C139,0.960679612 139,0.926976422 139,0.904507628 Z" id="Path" fill="#C2C4C6"></path>
                <path d="M41,4.83761817 C39.88,4.71403981 38.9733333,5.18588447 38,5.0847749 C38.9866667,5.33193162 39.92,5.0623061 41,4.83761817 Z" id="Path" fill="#C2C4C6"></path>
                <path d="M73.1836323,2.98456893 C73.0612108,2.94882425 72.9387892,2.94882425 72.8163677,3.02031361 C72.9387892,3.05605829 73.0612108,3.03818595 73.1836323,2.98456893 Z" id="Path" fill="#C2C4C6"></path>
                <path d="M76,5.11513071 C75.6285714,4.65452045 75.3071429,4.87920838 75,4.96908356 C75.3,5.01402114 75.6142857,5.27241227 76,5.11513071 Z" id="Path" fill="#C2C4C6"></path>
                <path d="M115,0.927103292 C114,0.962847973 113,0.998592654 112,1.03433733 C113.0125,1.14157138 114.0125,0.998592654 115,0.927103292 Z" id="Path" fill="#C2C4C6"></path>
                <path d="M16,79.0185276 C16.3221477,79.0522308 16.6510067,79.3555595 17,79.085934 C16.6442953,78.546683 16.3221477,78.9286525 16,79.0185276 Z" id="Path" fill="#C2C4C6"></path>
                <path d="M14.8634529,79.0111044 C14.9576233,79.0289768 15.0423767,79.0111044 15.1365471,78.9932321 C15.0423767,78.9753598 14.9482063,78.9753598 14.8634529,79.0111044 Z" id="Path" fill="#C2C4C6"></path>
                <path d="M130,0.910638298 C129.666667,0.938882337 129.333333,0.967126376 129,0.981248396 C129.333333,1.08010253 129.666667,1.19307869 130,0.910638298 Z" id="Path" fill="#C2C4C6"></path>
                <path d="M100,0.910638298 C99.6632124,0.94406607 99.3316062,0.977493843 99,0.994207729 C99.3367876,1.01092162 99.6735751,1.24491602 100,0.910638298 Z" id="Path" fill="#C2C4C6"></path>
                <path d="M98.8446188,1.00893617 C98.9482063,1.00893617 99.0517937,0.99106383 99.1553812,0.99106383 C99.0517937,0.99106383 98.9482063,0.99106383 98.8446188,1.00893617 Z" id="Path" fill="#C2C4C6"></path>
                <path d="M102.013062,1.00893617 C102.026124,1.00893617 102.039187,1.00893617 102.039187,1.00893617 C102.039187,1.00893617 102.026124,0.99106383 102.026124,0.99106383 C102,1.00893617 101.973876,1.00893617 101.960813,1.00893617 C101.973876,1.00893617 102,1.00893617 102.013062,1.00893617 C102.013062,1.00893617 102.013062,1.00893617 102.013062,1.00893617 Z" id="Path" fill="#C2C4C6"></path>
                <path d="M106,2.89156271 C105.648936,2.80168754 105.329787,2.85785952 105,2.91403151 C105.606383,3.23982901 105.606383,3.23982901 106,2.89156271 Z" id="Path" fill="#C2C4C6"></path>
                <path d="M141,2.89929009 C140.666667,2.91052448 140.333333,2.92175888 140,2.93299328 C140.00813,2.96669647 140.02439,3.00039966 140.04065,3.05657164 C140.349593,3.14644681 140.666667,3.10150923 141,2.89929009 Z" id="Path" fill="#C2C4C6"></path>
                <path d="M43,4.9106383 C42.6940299,4.925354 42.3880597,4.94006971 42,4.96950112 C42.3955224,5.2638152 42.6940299,4.925354 43,4.9106383 Z" id="Path" fill="#C2C4C6"></path>
                <path d="M35,6.83636582 C34.6666667,6.76895944 34.4102564,6.94870979 34,7.15092893 C34.4444444,7.13969453 34.7606838,7.33067928 35,6.83636582 Z" id="Path" fill="#C2C4C6"></path>
                <path d="M133,1.00893617 C133,0.99106383 133,0.973191489 133,0.937446809 C132.67,0.955319149 132.33,0.973191489 132,0.99106383 C132,1.00893617 132,1.02680851 132,1.06255319 C132.33,1.04468085 132.66,1.02680851 133,1.00893617 Z" id="Path" fill="#C2C4C6"></path>
                <path d="M162,5.01787234 C162,5.01787234 162.026124,4.98212766 162.026124,4.98212766 C162.013062,4.98212766 161.986938,5 161.973876,5 C161.973876,5.01787234 161.986938,5.01787234 162,5.01787234 Z" id="Path" fill="#C2C4C6"></path>
                <path d="M159.744592,5.45762712 C159.744592,5.18644068 159.653375,5 159.324993,5 C159.106072,5 158.996611,5.13559322 159.014854,5.33898305 C159.051341,5.59322034 158.83242,6 159.36148,6 C159.580401,6 159.781079,5.89830508 160,5.83050847 C159.799322,5.76271186 159.744592,5.62711864 159.744592,5.45762712 Z" id="Path" fill="#C2C4C6"></path>
                <path d="M119,0.937446809 C118.670213,0.955319149 118.340426,0.973191489 118,0.99106383 C118,1.00893617 118,1.02680851 118,1.06255319 C118.329787,1.04468085 118.659574,1.02680851 119,1.00893617 C119,0.973191489 119,0.955319149 119,0.937446809 Z" id="Path" fill="#C2C4C6"></path>
                <path d="M82,3.0893617 C82,3.03436989 82,2.97937807 82,2.9106383 C81.6696429,2.92438625 81.3303571,2.93813421 81,2.95188216 C81,2.97937807 81,3.02062193 81,3.04811784 C81.3303571,3.06186579 81.6607143,3.07561375 82,3.0893617 Z" id="Path" fill="#C2C4C6"></path>
                <path d="M66,2.96425532 C65.6712329,2.98212766 65.3287671,2.98212766 65,3 C65,3.01787234 65,3.01787234 65,3.03574468 C65.3150685,3.01787234 65.630137,3.01787234 65.9589041,3 C65.9726027,2.98212766 65.9863014,2.96425532 66,2.96425532 Z" id="Path" fill="#C2C4C6"></path>
                <path d="M20.331283,81 C20.1020086,81 19.9682653,81.1884541 20.0064777,81.3957536 C20.0637963,81.7538164 20.3121768,81.9799613 20.6751946,81.9988067 C20.8853628,82.0176521 21,81.8103526 21,81.5842077 C20.904469,81.2638357 20.7325132,81 20.331283,81 Z" id="Path" fill="#C2C4C6"></path>
                <path d="M45.9902033,5.01806478 C46.0163278,5.00019244 46.0163278,4.94657542 45.9902033,5.01806478 L45.9902033,5.01806478 Z" id="Path" fill="#C2C4C6"></path>
                <path d="M45.8876404,5.06382979 C45.9213483,5.06382979 45.9775281,5.03829787 45.988764,5.01276596 C45.988764,4.98723404 46,4.97446809 46,4.96170213 C45.988764,4.97446809 45.9550562,4.96170213 45.9101124,4.9106383 C45.6179775,4.94893617 45.3146067,4.97446809 45,5.01276596 C45,5.03829787 45,5.06382979 45,5.0893617 C45.3033708,5.0893617 45.5955056,5.07659574 45.8876404,5.06382979 Z" id="Path" fill="#C2C4C6"></path>
                <path d="M144,2.95531915 C143.672131,2.97319149 143.327869,2.97319149 143,2.99106383 C143,3.00893617 143,3.02680851 143,3.04468085 C143.327869,3.02680851 143.672131,3.02680851 144,3.00893617 C144,2.99106383 144,2.97319149 144,2.95531915 Z" id="Path" fill="#C2C4C6"></path>
                <path d="M56.3950617,4.93588387 C56.2716049,4.92464947 56.1481481,4.96958706 56,4.99205585 C56.0617284,5.03699344 56.0987654,5.07069663 56.1358025,5.07069663 C56.3950617,5.08193102 56.654321,5.09316542 56.9135802,5.09316542 C56.9382716,5.09316542 57,5.02575904 57,5.01452464 C56.8271605,4.8235399 56.5925926,4.94711826 56.3950617,4.93588387 Z" id="Path" fill="#C2C4C6"></path>
                <path d="M50.2024664,2.94638298 C50.0800448,2.94638298 49.9576233,2.96425532 49.8257848,2.96425532 C49.8163677,2.96425532 49.8069507,3.01787234 49.7975336,3.05361702 C49.9293722,3.05361702 50.0612108,3.03574468 50.1930493,3.03574468 C50.2024664,3 50.2024664,2.98212766 50.2024664,2.94638298 Z" id="Path" fill="#C2C4C6"></path>
                <path d="M144.984678,3.12984727 C145.144768,3.16355046 145.229521,3.09614408 145.20127,3.05120649 C145.154185,2.97256571 145.060014,2.90515933 144.975261,2.87145614 C144.899925,2.84898735 144.749252,2.84898735 144.805754,3.0175033 C144.824588,3.09614408 144.965844,3.11861287 144.984678,3.12984727 Z" id="Path" fill="#C2C4C6"></path>
                <path d="M154.954393,5.18435592 C155.05798,5.20682472 155.152151,5.17312153 155.199236,5.04954316 C155.21807,4.903496 155.161568,4.82485523 155.048563,4.81362083 C154.954393,4.80238643 154.831971,4.80238643 154.80372,4.93719919 C154.775469,5.04954316 154.841388,5.16188713 154.954393,5.18435592 Z" id="Path" fill="#C2C4C6"></path>
                <path d="M41.7598655,83.0353139 C41.9199552,83.0505967 42.0800448,83.1728598 42.2401345,82.9894652 C42.1836323,82.9588995 42.12713,82.897768 42.0800448,82.9130508 C41.9670404,82.9283337 41.8634529,82.9894652 41.7598655,83.0353139 Z" id="Path" fill="#C2C4C6"></path>
                <path d="M28.1520819,2.96805236 C28.1238307,2.9106383 28.0390774,2.9106383 27.9731581,2.9106383 C27.9260729,2.9106383 27.8884047,2.96805236 27.8413195,3.0111129 C27.9072388,3.03981993 27.9637411,3.06852696 28.0202433,3.08288048 C28.1144137,3.11158751 28.180333,3.03981993 28.1520819,2.96805236 Z" id="Path" fill="#C2C4C6"></path>
                <path d="M88.9171431,1.04991554 C88.9736454,1.06778788 89.0489817,1.04991554 89.1054839,1.0320432 C89.114901,1.0320432 89.124318,0.978426177 89.1431521,0.960553836 C89.0772328,0.960553836 89.0207306,0.942681496 88.9548113,0.942681496 C88.8418068,0.960553836 88.8229727,1.01417086 88.9171431,1.04991554 Z" id="Path" fill="#C2C4C6"></path>
                <path d="M95.0195933,0.99106383 C95.0065311,0.99106383 95.0065311,0.99106383 94.9804067,1.00893617 L94.9804067,1.00893617 C94.9934689,1.00893617 95.0195933,0.99106383 95.0195933,0.99106383 Z" id="Path" fill="#C2C4C6"></path>
                <path d="M82,2.95334205 C81.7126437,2.91963886 81.4252874,2.79606049 81,3.03198282 C81.4597701,3.18926438 81.7356322,3.07692041 82,2.95334205 Z" id="Path" fill="#C2C4C6"></path>
                <path d="M83.0261244,2.98212766 C83.0130622,3 82.9869378,3 82.9738756,3.01787234 C82.9869378,3.01787234 82.9869378,3.01787234 83,3.01787234 C83,3 83.0261244,2.98212766 83.0261244,2.98212766 Z" id="Path" fill="#C2C4C6"></path>
                <path d="M135.164798,1.01578384 C135.108296,0.980735324 135.051794,0.945686811 135.004709,0.910638298 C134.948206,0.945686811 134.891704,0.980735324 134.835202,0.99825958 C134.891704,1.03330809 134.948206,1.08588086 135.004709,1.08588086 C135.051794,1.10340512 135.108296,1.05083235 135.164798,1.01578384 Z" id="Path" fill="#C2C4C6"></path>
                <path d="M140.95815,5.09327989 C141.005235,5.11574868 141.089988,5.11574868 141.118239,5.08204549 C141.202993,4.94723273 141.127656,4.89106075 141.024069,4.89106075 C140.967567,4.89106075 140.901647,4.92476394 140.845145,4.94723273 C140.873396,4.99217032 140.911064,5.07081109 140.95815,5.09327989 Z" id="Path" fill="#C2C4C6"></path>
                <path d="M265.971749,30.0625532 C266.028251,30.0625532 266.09417,30.0268085 266.16009,30.0268085 C266.150673,29.9910638 266.131839,29.9374468 266.122422,29.9374468 C266.028251,29.9553191 265.934081,29.9910638 265.83991,30.0268085 C265.877578,30.0268085 265.924664,30.0625532 265.971749,30.0625532 Z" id="Path" fill="#C2C4C6"></path>
                <path d="M17.8361702,76.9756588 C17.8173362,77.1554092 17.9397577,77.1329404 18.0339281,77.1104716 C18.0810133,77.0992372 18.1186815,77.0318308 18.1657667,76.9868932 C18.1092644,76.9419556 18.0527622,76.8745492 17.9962599,76.8745492 C17.9397577,76.8745492 17.8455873,76.9307212 17.8361702,76.9756588 Z" id="Path" fill="#C2C4C6"></path>
            </g>
            <path d="M41.311,41.575 C40.906748,41.7342508 40.3792369,41.8291876 39.7284542,41.8598125 L39.442,41.869 C38.7699966,41.8970001 37.832006,41.8620005 36.628,41.764 L36.418,38.845 C37.2580042,38.9290004 38.0909959,38.9989997 38.917,39.055 L39.253,39.097 C39.645002,39.1250001 39.841,38.9570018 39.841,38.593 L39.841,35.947 L32.68,35.443 L32.68,32.566 L39.841,33.07 L39.841,31.012 L33.961,30.592 L33.961,27.778 L39.841,28.198 L39.841,25.972 L37.237,25.993 C36.2709952,25.9789999 35.3190047,25.9510002 34.381,25.909 C34.2829995,25.0549957 34.0590017,24.1660046 33.709,23.242 L34.759,23.263 L36.586,23.284 L39.421,23.2 L39.631,23.179 C42.2770132,23.0529994 44.4889911,22.8150017 46.267,22.465 L48.199,25.132 C47.0649943,25.342001 45.9590054,25.5029994 44.881,25.615 L42.655,25.825 L42.655,28.387 L48.661,28.807 L48.661,31.621 L42.655,31.201 L42.655,33.259 L49.774,33.763 L49.774,36.64 L42.655,36.136 L42.655,38.845 C42.655,40.3150073 42.2070045,41.2249982 41.311,41.575 Z M68.0145,38.383 L68.0145,41.365 L51.0255,40.168 L51.0255,37.186 L57.8505,37.669 L57.8505,27.379 L52.0755,26.959 L52.0755,23.872 L66.9015,24.922 L66.9015,28.009 L60.9375,27.589 L60.9375,37.879 L68.0145,38.383 Z M82.962,22.255 C81.9959952,23.7250073 81.310002,25.1809928 80.904,26.623 C80.4839979,28.1210075 80.274,29.9409893 80.274,32.083 C80.274,34.2250107 80.4839979,36.0799922 80.904,37.648 C81.310002,39.1600076 81.9959952,40.7069921 82.962,42.289 L80.715,43.654 L79.959,42.457 C79.6929987,42.0229978 79.455001,41.6170019 79.245,41.239 C78.7269974,40.3149954 78.3000017,39.4330042 77.964,38.593 C77.571998,37.598995 77.278001,36.5770052 77.082,35.527 C76.8579989,34.3649942 76.746,33.1400064 76.746,31.852 C76.746,30.5639936 76.8579989,29.3530057 77.082,28.219 C77.278001,27.1969949 77.571998,26.2170047 77.964,25.279 C78.2440014,24.6023299 78.5871931,23.9159462 78.9935826,23.2198345 L79.245,22.801 C79.455001,22.4509982 79.6929987,22.073002 79.959,21.667 L80.715,20.596 L82.962,22.255 Z M99.8165,31.915 C99.214497,31.6909989 98.6335028,31.4040017 98.0735,31.054 C97.5974976,30.7319984 97.1355022,30.3610021 96.6875,29.941 C95.7494953,30.5990033 94.7345055,31.0959983 93.6425,31.432 L92.8025,29.248 C93.1245016,29.1779996 93.5164977,29.038001 93.9785,28.828 C94.3565019,28.6459991 94.7624978,28.4220013 95.1965,28.156 C95.1229996,28.0614995 95.0455626,27.9473128 94.9641877,27.8134378 L94.8815,27.673 C94.7974996,27.5329993 94.6995006,27.358001 94.5875,27.148 C94.3494988,27.4000013 94.0415019,27.6379989 93.6635,27.862 L92.4245,25.93 C93.7825068,25.2439966 94.860496,24.0680083 95.6585,22.402 L97.4855,23.263 C97.4574999,23.3050002 97.4295001,23.3609996 97.4015,23.431 L97.1285,23.977 L98.8295,24.082 L100.1735,24.901 C99.7114977,26.3850074 99.0675041,27.5889954 98.2415,28.513 C99.0815042,29.1290031 99.8584964,29.534999 100.5725,29.731 L99.8165,31.915 Z M88.3715,35.191 L88.2245,34.372 L86.4709988,34.6765002 C85.9670001,34.7674999 85.5435017,34.8479996 85.2005,34.918 L84.5495,35.086 C84.4234994,35.1140001 84.3395002,35.1419999 84.2975,35.17 L83.4575,33.07 C83.7375014,33.0279998 84.1574972,32.608004 84.7175,31.81 C84.913501,31.5719988 85.2564975,30.9980045 85.7465,30.088 L85.1437111,30.1439173 C84.5472607,30.2035623 84.1951928,30.2549229 84.0875,30.298 L83.3525,27.946 C83.5205008,27.9179999 83.7934981,27.5820032 84.1715,26.938 L84.2695002,26.7367497 C84.4445001,26.3575835 84.6778319,25.7596708 84.9695,24.943 C85.1515009,24.4249974 85.3124993,23.9210024 85.4525,23.431 C85.6345009,22.8569971 85.7744995,22.3320024 85.8725,21.856 L88.0145,23.011 C87.7484987,23.8230041 87.4475017,24.6349959 87.1115,25.447 C86.7334981,26.3850047 86.3695017,27.1619969 86.0195,27.778 L86.8805,27.841 C87.2305017,27.042996 87.5454986,26.2170043 87.8255,25.363 L89.7575,26.665 C89.4354984,27.3790036 89.1065017,28.0719966 88.7705,28.744 L88.4765,29.311 L88.1638329,29.8850009 C87.961611,30.2490004 87.7718342,30.5756652 87.5945,30.865 L88.7915,30.55 C89.0155011,31.2080033 89.2324989,31.9219961 89.4425,32.692 L89.5973754,33.2786889 C89.7391255,33.8325639 89.8414997,34.2879982 89.9045,34.645 L88.3715,35.191 Z M92.3195,28.051 L90.4715,28.912 L90.3560001,28.2977501 C90.3140002,28.0842507 90.2685002,27.8620012 90.2195,27.631 L89.8415,25.909 C89.7854997,25.6989989 89.7295003,25.4400015 89.6735,25.132 L89.6315,24.943 C89.6174999,24.9289999 89.6105,24.9010002 89.6105,24.859 L89.5369999,24.5702499 C89.523,24.51075 89.5125,24.4600002 89.5055,24.418 L91.2065,23.641 L91.8155,25.888 L92.0301671,26.7443348 C92.1577225,27.270112 92.2541663,27.7056649 92.3195,28.051 Z M95.9945,26.077 C96.0225001,26.1143335 96.0536111,26.1609999 96.0878333,26.2169998 L96.2885,26.56 C96.3445003,26.6440004 96.4004997,26.7209996 96.4565,26.791 L96.6035,27.001 C96.8275011,26.7769989 97.0444989,26.4970017 97.2545,26.161 L95.9945,26.077 Z M91.4585,39.622 C91.2946992,39.6093999 91.0798711,39.7952481 90.8140103,40.1795494 L90.7235,40.315 C90.4854988,40.6650017 90.2125015,41.1479969 89.9045,41.764 L88.5815,39.139 C88.6935006,39.0129994 88.8264992,38.8730008 88.9805,38.719 L89.3795,38.341 L88.0775,38.782 C88.0374998,38.5319987 87.9725003,38.2177151 87.8825003,37.8391439 L87.7625,37.354 C87.6504994,36.8779976 87.5175008,36.3670027 87.3635,35.821 L88.8335,35.38 C89.1835017,36.4580054 89.4424992,37.3819961 89.6105,38.152 C89.7365006,38.0259994 89.8904991,37.9070006 90.0725,37.795 L90.5345,37.522 L90.5345,31.768 L89.4845,31.684 L89.4845,29.29 L92.4665,29.5 L92.4665,37.858 L92.9075,38.236 C92.9635003,38.2920003 93.0194997,38.3339999 93.0755,38.362 C93.481502,38.6840016 93.9994968,38.9359991 94.6295,39.118 C95.1615027,39.2580007 95.8054962,39.3559997 96.5615,39.412 C98.2275083,39.5240006 99.6134945,39.5170006 100.7195,39.391 L100.8455,41.995 L100.04918,42.0050801 C99.6308608,42.0067601 99.1823024,42.0034 98.7035,41.995 L97.9954986,41.9795714 C97.435499,41.9638572 96.950502,41.9410001 96.5405,41.911 C95.0004923,41.7989994 93.7755045,41.3930035 92.8655,40.693 L92.4455,40.315 L92.4455,40.315 L92.0675,39.979 L91.7315,39.727 C91.6194994,39.6569996 91.5285003,39.622 91.4585,39.622 Z M97.7375,38.467 L97.7375,39.202 L95.8265,39.076 L95.8265,38.341 L93.1175,38.152 L93.1175,36.241 L95.8265,36.43 L95.8265,35.884 L93.8735,35.737 L93.8735,33.973 L95.8265,34.12 L95.8265,33.616 L93.6425,33.448 L93.6425,31.621 L95.8265,31.789 L95.8265,30.97 L97.7375,31.096 L97.7375,31.915 L99.7535,32.062 L99.7535,33.889 L97.7375,33.742 L97.7375,34.246 L99.2705,34.351 L99.2705,36.115 L97.7375,36.01 L97.7375,36.556 L100.0055,36.724 L100.0055,38.635 L97.7375,38.467 Z M87.4055,31.159 C87.1394987,31.6070022 86.8595015,32.033998 86.5655,32.44 L87.7205,32.293 L87.4055,31.159 Z M85.9985,40.378 C85.9704999,39.173994 85.8445011,37.7950078 85.6205,36.241 L87.1955,35.905 L87.2263571,36.1964288 C87.2577856,36.4621426 87.3034997,36.7849981 87.3635,37.165 L87.5315,38.803 L87.5840001,39.4855004 C87.598,39.6884999 87.6085,39.8669992 87.6155,40.021 L85.9985,40.378 Z M85.4315,36.22 C85.3614996,38.2500101 85.1375019,39.859994 84.7595,41.05 L83.1635,40.378 C83.3105007,39.9247477 83.4360623,39.3321591 83.5401874,38.6002199 L83.5835,38.278 C83.6815005,37.5779965 83.7514998,36.7520048 83.7935,35.8 L85.4315,36.22 Z M107.431,35.569 L107.284,34.876 L105.314286,35.3902855 C105.219429,35.4154284 105.127,35.4399999 105.037,35.464 L103.63,35.884 L102.853,36.136 L102.517,36.304 L101.614,34.015 C101.890001,33.9189995 102.299712,33.5350032 102.843142,32.8630014 L103.126,32.503 C103.182,32.4329996 103.245,32.3490005 103.315,32.251 L104.134,30.949 L103.622999,31.0563335 C103.384999,31.1076668 103.17325,31.1554999 102.98775,31.1998332 L102.811,31.243 C102.572999,31.2990003 102.419,31.3479998 102.349,31.39 L101.467,29.185 C101.733001,29.0869995 102.103998,28.6880035 102.58,27.988 C103.322004,26.9239947 104.098996,25.1390125 104.911,22.633 L107.032,23.536 L106.549,24.67 L105.898,26.077 L105.373,27.0862855 L105.373,27.0862855 L105.205,27.4 C104.952999,27.8760024 104.722001,28.2749984 104.512,28.597 L105.499,28.513 L105.877,27.736 L106.654,25.972 C106.766001,25.7199987 106.857,25.496001 106.927,25.3 L108.922,26.665 C108.515998,27.5050042 108.124002,28.2889964 107.746,29.017 C107.255998,29.9130045 106.801002,30.6829968 106.381,31.327 L108.082,30.655 C108.628003,31.9850066 109.054998,33.3289932 109.363,34.687 L107.431,35.569 Z M115.915,25.699 L115.054,25.762 L115.04644,26.0895996 C115.04308,26.1791994 115.0386,26.2799994 115.033,26.392 L114.97,28.177 C114.9,29.6890076 114.788001,31.039994 114.634,32.23 C114.451999,33.6440071 114.200002,34.9109944 113.878,36.031 C113.527998,37.3050064 113.080003,38.4319951 112.534,39.412 C111.931997,40.4760053 111.211004,41.3929961 110.371,42.163 L108.628,40.168 C109.370004,39.5239968 109.992997,38.7540045 110.497,37.858 C110.973002,37.0319959 111.357999,36.0800054 111.652,35.002 C111.904001,34.0499952 112.099999,32.972006 112.24,31.768 C112.366001,30.759995 112.45,29.5980066 112.492,28.282 L112.534,25.951 L109.678,26.14 L109.678,23.473 L118.477,22.864 L118.372,27.799 L118.332143,29.2094295 C118.312714,29.8071425 118.291,30.3659974 118.267,30.886 L118.222375,32.2693782 C118.175125,33.5871281 118.12,34.7079954 118.057,35.632 L118.011427,36.259859 C117.853695,38.2786183 117.637742,39.556339 117.363564,40.0930508 L117.322,40.168 C116.957998,40.8960036 116.447003,41.357999 115.789,41.554 C115.536999,41.6380004 115.194002,41.7079997 114.76,41.764 L114.488312,41.7941876 C114.186438,41.8230626 113.794002,41.8479999 113.311,41.869 L113.227,39.097 L113.689,39.097 L114.403,39.034 C114.672501,39.0217499 114.877687,38.8969543 115.018562,38.6596098 L115.075,38.551 C115.271001,38.2009982 115.438999,37.0110101 115.579,34.981 L115.632354,34.1132889 C115.747741,32.070717 115.841956,29.2659744 115.915,25.699 Z M110.056,27.757 L112.009,28.03 L111.925,29.773 L111.925,29.773 L111.87124,30.5189206 C111.84268,30.8784399 111.8116,31.2177984 111.778,31.537 C111.637999,32.8390065 111.442001,33.8259966 111.19,34.498 L109.279,33.826 C109.517001,33.1679967 109.705999,32.237006 109.846,31.033 C109.902,30.5289975 109.944,29.976003 109.972,29.374 C110.014,28.8699975 110.042,28.3310029 110.056,27.757 Z M106.78,32.902 L106.318,31.453 L106.1815,31.6629999 C106.1325,31.7399997 106.08,31.8239995 106.024,31.915 L105.1,33.259 L106.78,32.902 Z M107.62,39.979 C107.507999,39.3909971 107.319001,38.6840041 107.053,37.858 L106.801,37.039 L106.591,36.472 L108.334,35.653 L108.586,36.262 L108.88,37.123 C109.118001,37.7810033 109.313999,38.410997 109.468,39.013 L107.62,39.979 Z M106.948,40.63 L104.974,41.365 L104.95825,40.935812 C104.93725,40.4764376 104.9005,39.9265032 104.848,39.286 C104.778,38.5579964 104.694,37.8300036 104.596,37.102 L106.444,36.451 L106.675,37.921 L106.717,38.341 C106.829001,39.2090043 106.906,39.9719967 106.948,40.63 Z M104.449,37.249 C104.336999,38.0330039 104.169001,38.9149951 103.945,39.895 C103.748999,40.7490043 103.546001,41.4979968 103.336,42.142 L101.446,41.596 C101.670001,41.0499973 101.879999,40.3290045 102.076,39.433 C102.258001,38.6209959 102.404999,37.7880043 102.517,36.934 L104.449,37.249 Z M124.2645,41.89 C122.948493,40.3779924 121.464508,38.9500067 119.8125,37.606 L122.4795,35.128 C124.229509,36.4580066 125.727494,37.8719925 126.9735,39.37 L124.2645,41.89 Z M151.556,42.415 L148.994,42.226 L148.994,37.081 C147.971995,38.873009 146.754007,40.2379953 145.34,41.176 L143.723,38.74 L144.038,38.551 C144.178001,38.4669996 144.303999,38.3830004 144.416,38.299 L141.518,38.95 L138.62,39.58 L138.137,36.745 L140.279,36.346 L140.279,31.747 L138.389,31.621 L138.389,28.87 L140.279,28.996 L140.279,25.615 L138.284,25.489 L138.284,22.78 L144.752,23.221 L144.752,25.93 L142.82,25.804 L142.82,29.185 L144.458,29.29 L144.458,32.041 L142.82,31.936 L142.82,35.863 L143.006667,35.8256667 C143.040889,35.8178889 143.076666,35.8093334 143.114,35.8 C143.142,35.7859999 143.191,35.7720001 143.261,35.758 L144.479,35.506 L144.794,38.026 C146.124007,36.9339945 147.215996,35.5130087 148.07,33.763 L144.815,33.532 L144.815,30.865 L148.994,31.159 L148.994,28.597 L147.398,28.492 L147.186319,29.0405216 C146.913039,29.7304424 146.675601,30.2545982 146.474,30.613 L144.332,29.101 C144.738002,28.498997 145.101998,27.6170058 145.424,26.455 C145.690001,25.460995 145.892999,24.3760059 146.033,23.2 L148.448,23.851 C148.42,23.9770006 148.392,24.137999 148.364,24.334 L148.112,25.867 L148.994,25.93 L148.994,22.381 L151.556,22.57 L151.556,26.119 L154.874,26.35 L154.874,29.017 L151.556,28.786 L151.556,31.348 L155.609,31.621 L155.609,34.288 L152.396,34.078 C152.872002,35.086005 153.431997,36.0519954 154.076,36.976 C154.776003,37.9980051 155.447997,38.7819973 156.092,39.328 L154.139,41.428 C153.284996,40.5039954 152.424004,39.1180092 151.556,37.27 L151.556,42.415 Z M159.366695,26.8688526 C159.026917,27.273351 158.716521,27.6043978 158.4355,27.862 L159.6955,27.946 L159.4435,27.085 C159.426432,27.0252626 159.409364,26.9733285 159.392297,26.9291973 L159.366695,26.8688526 L159.366695,26.8688526 Z M159.386996,26.8446398 L161.3335,26.182 L161.9845,28.114 L163.5805,28.219 L163.5805,28.408 C164.070502,27.7919969 164.518498,26.8680062 164.9245,25.636 C165.274502,24.5299945 165.533499,23.3610062 165.7015,22.129 L168.1585,22.801 C168.046499,23.5150036 167.913501,24.1799969 167.7595,24.796 L173.7025,25.216 L173.7025,27.925 L170.3215,27.673 L170.3215,29.815 L173.3875,30.046 L173.3875,37.585 C173.3875,38.6770055 173.156502,39.3909983 172.6945,39.727 C172.442499,39.8950008 172.134502,39.9999998 171.7705,40.042 C171.504499,40.0700001 171.126502,40.0630002 170.6365,40.021 C170.6253,39.8753993 170.59618,39.6939606 170.54914,39.4766805 L170.3215,38.509 L170.3215,42.436 L167.8645,42.268 L167.8645,32.251 L167.1715,32.209 L167.1715,39.811 L164.8195,39.643 L164.8195,29.731 L164.1685,29.101 C163.916499,28.8489987 163.720501,28.6670006 163.5805,28.555 L163.5805,36.367 L162.4465,36.283 L162.6355,36.766 C162.6915,36.8873339 162.741278,37.0024445 162.784833,37.1113332 L163.2445,38.299 C163.552502,39.097004 163.7555,39.7059979 163.8535,40.126 L161.8375,40.987 L161.7115,40.462 L161.5225,39.853 L159.941907,40.4658527 C159.421174,40.6711303 159.01004,40.8378455 158.7085,40.966 C158.242998,41.174251 157.906125,41.3503434 157.697875,41.4942811 L157.5325,41.617 C157.4485,41.2529982 157.315501,40.7980027 157.1335,40.252 C156.923499,39.6359969 156.734501,39.1810015 156.5665,38.887 C157.154503,38.6069986 157.4485,38.1240034 157.4485,37.438 L157.4485,28.702 L157.1755,28.891 C156.965499,27.8269947 156.636502,26.798005 156.1885,25.804 C157.728508,24.8799954 158.981495,23.4660095 159.9475,21.562 L162.1105,22.633 L161.8795,23.2 C162.341502,23.6620023 162.824497,24.1659973 163.3285,24.712 L163.702563,25.132001 C164.051688,25.531001 164.325999,25.8669986 164.5255,26.14 L162.8245,28.03 L162.647167,27.7803333 C162.513389,27.5967781 162.348501,27.3790013 162.1525,27.127 L161.0815,25.783 L160.5985,25.237 C160.234498,25.7550026 159.891502,26.216998 159.5695,26.623 L159.386996,26.8446398 L159.386996,26.8446398 Z M167.8645,29.647 L167.8645,27.505 L166.9615,27.442 L166.5415,28.513 C166.373499,28.9470022 166.219501,29.2829988 166.0795,29.521 L167.8645,29.647 Z M159.8215,31.012 L161.2285,31.117 L161.2285,30.172 L159.8215,30.067 L159.8215,31.012 Z M170.3215,37.543 L170.7835,37.585 C170.909501,37.5990001 170.9725,37.5220008 170.9725,37.354 L170.9725,32.482 L170.3215,32.419 L170.3215,37.543 Z M159.8215,33.994 L161.2285,34.099 L161.2285,33.091 L159.8215,32.986 L159.8215,33.994 Z M159.8215,36.094 L159.8215,38.089 L160.8295,37.774 L160.4725,36.85 L161.9635,36.262 L159.8215,36.094 Z M179.049,41.89 C177.732993,40.3779924 176.249008,38.9500067 174.597,37.606 L177.264,35.128 C179.014009,36.4580066 180.511994,37.8719925 181.758,39.37 L179.049,41.89 Z M203.7995,35.044 C203.631499,36.4580071 203.295503,37.7389943 202.7915,38.887 C202.189497,40.2450068 201.391505,41.3159961 200.3975,42.1 L198.6545,39.832 C199.424504,39.3279975 200.026498,38.5930048 200.4605,37.627 C200.824502,36.828996 201.069499,35.9120052 201.1955,34.876 L198.9905,34.708 L198.9905,31.873 L201.3215,32.041 L201.3215,29.227 L199.5575,29.101 L199.5575,26.287 L201.5735,26.434 C201.461499,26.0195979 201.32262,25.5828011 201.15686,25.1236009 L201.0275,24.775 C200.775499,24.0889966 200.537501,23.5360021 200.3135,23.116 L202.6445,22.234 C203.358504,23.5500066 203.862499,24.7609945 204.1565,25.867 L202.7705,26.518 L205.5425,26.707 C205.794501,26.2169975 206.067499,25.5310044 206.3615,24.649 C206.613501,23.9069963 206.830499,23.1790036 207.0125,22.465 L209.8475,23.725 L208.2935,26.896 L209.6795,27.001 L209.6795,29.815 L208.1465,29.71 L208.1465,32.524 L210.1205,32.65 L210.1205,35.485 L208.1465,35.359 L208.1465,42.457 L205.5005,42.268 L205.5005,35.17 L203.7995,35.044 Z M196.5335,40.861 C196.015497,41.1970017 195.007507,41.3160005 193.5095,41.218 L193.4255,38.383 L194.4965,38.446 C194.692501,38.4600001 194.7905,38.3550011 194.7905,38.131 L194.7905,34.645 L193.2995,35.002 L192.7535,32.104 L193.7195,31.936 C193.7755,31.9219999 193.859499,31.9080001 193.9715,31.894 L194.7905,31.726 L194.7905,28.408 L193.0685,28.303 L193.0685,25.594 L194.7905,25.699 L194.7905,21.793 L197.3735,21.982 L197.3735,25.888 L198.6965,25.972 L198.6965,28.681 L197.3735,28.597 L197.3735,31.222 L198.4445,30.991 L198.8015,33.7 L197.3735,34.036 L197.3735,38.341 C197.3735,39.6570066 197.093503,40.4969982 196.5335,40.861 Z M203.9045,32.23 L205.5005,32.335 L205.5005,29.521 L203.9045,29.416 L203.9045,32.23 Z M227.773,23.641 L227.773,26.35 L211.939,25.258 L211.939,22.549 L227.773,23.641 Z M228.319,39.328 L228.319,42.037 L211.477,40.861 L211.477,38.152 L215.467,38.425 C215.312999,37.3889948 215.005002,36.2270064 214.543,34.939 L216.16,34.54 L213.451,34.351 L213.451,26.791 L226.345,27.694 L226.345,35.254 L223.426,35.044 L225.421,35.674 C224.888997,36.8920061 224.350003,38.004995 223.804,39.013 L228.319,39.328 Z M216.223,31.789 L223.363,32.293 L223.363,30.214 L216.223,29.71 L216.223,31.789 Z M216.643,38.509 L221.011,38.824 C221.543003,37.619994 221.976998,36.3320069 222.313,34.96 L217.147,34.603 C217.721003,35.9330066 218.063999,37.094995 218.176,38.089 L216.643,38.509 Z M36.88,64.89 C35.5639934,63.3779924 34.0800083,61.9500067 32.428,60.606 L35.095,58.128 C36.8450087,59.4580066 38.3429938,60.8719925 39.589,62.37 L36.88,64.89 Z M64.5285,61.971 C63.8984968,62.9930051 63.079505,63.9239958 62.0715,64.764 C61.9594994,64.5819991 61.7635014,64.3160017 61.4835,63.966 C61.2174987,63.6719985 60.9585013,63.3920013 60.7065,63.126 L55.6875,63.483 L55.6875,55.188 L57.3885,55.062 L57.3885,51.807 L55.5195,51.933 L55.5195,49.266 L57.3885,49.14 L57.3885,45.675 L59.9085,45.486 L59.9085,48.951 L61.5675,48.846 L61.5675,51.513 L59.9085,51.618 L59.9085,54.873 L61.0215,54.81 L60.5595,54.096 C60.965502,53.4519968 61.3364983,52.5770055 61.6725,51.471 C61.9665015,50.5329953 62.2324988,49.4270064 62.4705,48.153 L62.7435,46.452 C62.7995003,46.0319979 62.8554997,45.5490027 62.9115,45.003 L65.2845,45.276 L65.0745,46.704 L64.9905,47.145 L64.9183124,47.6280012 C64.8474374,48.0795013 64.7805003,48.4364987 64.7175,48.699 L68.2245,48.468 L68.2245,50.988 L67.3635,51.051 C67.2532494,52.4965072 67.0947665,53.8240904 66.8880472,55.0337797 L66.7965,55.545 C66.5444987,57.0010073 66.222502,58.2539947 65.8305,59.304 C66.4745032,60.5220061 67.2794952,61.4389969 68.2455,62.055 L66.6075,64.386 C65.8374961,63.7979971 65.1445031,62.9930051 64.5285,61.971 Z M63.9195,52.038 C64.0735008,53.2000058 64.2834987,54.4389934 64.5495,55.755 C64.8155013,54.4949937 64.9974995,52.9760089 65.0955,51.198 L64.1295,51.261 L63.9195,52.038 Z M61.5465,62.013 C61.8965017,61.6629982 62.2394983,61.2500024 62.5755,60.774 C62.8555014,60.3539979 63.1284987,59.8920025 63.3945,59.388 C63.2264992,58.8699974 63.0515009,58.2680034 62.8695,57.582 C62.7294993,57.0219972 62.5965006,56.4130033 62.4705,55.755 L61.9665,56.595 C61.8264993,56.2869985 61.6865007,56.0000013 61.5465,55.734 L61.5465,62.013 Z M57.9555,60.837 L59.2365,60.753 L59.2365,57.414 L57.9555,57.498 L57.9555,60.837 Z M52.4325,65.541 L52.4325,55.902 L52.3485,56.049 L52.3485,56.049 L52.0755,56.469 L49.9965,54.474 C50.8365042,53.3119942 51.6204964,51.8770085 52.3485,50.169 C52.9785031,48.6569924 53.489498,47.1310077 53.8815,45.591 L56.3595,46.242 C56.1354989,47.0540041 55.9115011,47.7889967 55.6875,48.447 L55.6245,48.657 C55.3724987,49.4410039 55.1275012,50.1409969 54.8895,50.757 L54.8895,65.373 L52.4325,65.541 Z M81.635,62.874 L80.4435687,63.4088583 C79.628426,63.7791439 78.9897514,64.0799992 78.5275362,64.3114283 L78.38,64.386 C77.8199972,64.6800015 77.4700007,64.8899994 77.33,65.016 L75.902,63.231 C76.294002,62.8669982 76.5529994,62.4400024 76.679,61.95 L74.915,62.748 C74.8729998,62.341998 74.7680008,61.7960034 74.6,61.11 C74.4879994,60.5779973 74.3410009,59.9830033 74.159,59.325 L76.07,58.443 L76.469,59.766 L76.6235602,60.3405605 C76.6941201,60.61272 76.7545997,60.8621989 76.805,61.089 L76.805,57.729 L74.852,58.779 L74.663,57.897 L73.614364,58.1657758 C72.6317127,58.4222493 71.8470136,58.6418159 71.2602551,58.8244791 L70.295,59.136 L70.0075626,59.269875 C69.9821876,59.2821249 69.9590001,59.2934999 69.938,59.304 L68.993,56.868 C69.3430017,56.7559994 69.8609966,56.2520045 70.547,55.356 L70.6613333,55.2300001 C70.7484442,55.1273337 70.8573327,54.9873342 70.988,54.81 L71.576,53.928 L71.1182847,54.0308573 C70.9065705,54.0797145 70.7205712,54.1247143 70.5602859,54.1658571 L70.274,54.243 C70.0219987,54.3130003 69.8400006,54.3759997 69.728,54.432 L68.825,51.996 C69.2030019,51.8559993 69.5739982,51.4220036 69.938,50.694 C70.148001,50.4699989 70.4979975,49.7980056 70.988,48.678 C71.5060026,47.5019941 71.9189985,46.4030051 72.227,45.381 L74.579,46.347 C73.8229962,48.1810092 72.9830046,49.8749922 72.059,51.429 L73.13,51.324 C73.3680012,50.917998 73.6199987,50.4280029 73.886,49.854 C74.1100011,49.3779976 74.3269989,48.8810026 74.537,48.363 L76.679,49.791 C76.2589979,50.589004 75.853002,51.3309966 75.461,52.017 C74.9709975,52.8710043 74.5160021,53.6059969 74.096,54.222 L75.503,53.529 C76.0630028,54.9150069 76.4969985,56.1749943 76.805,57.309 L76.805,47.481 L76.826,47.481 C78.0440061,47.1869985 79.4089924,46.7810026 80.921,46.263 C82.2230065,45.8149978 83.4199945,45.3530024 84.512,44.877 L86.339,47.229 L85.8383599,47.4205201 C85.5729205,47.5196398 85.2848016,47.6237995 84.974,47.733 L83.525,48.195 L83.483,52.878 L86.36,52.668 L86.36,55.419 L83.546,55.629 L83.5903334,56.4824194 C83.6603334,57.7196711 83.7460829,58.7639764 83.8475832,59.6153532 L83.882,59.892 C84.0360008,61.0820059 84.210999,61.6700001 84.407,61.656 C84.5050005,61.6419999 84.5819997,61.3900024 84.638,60.9 C84.6940003,60.4379977 84.7289999,59.8640034 84.743,59.178 L86.759,59.451 C86.6189993,61.3130093 86.3390021,62.6079964 85.919,63.336 C85.5409981,63.9800032 84.953004,64.3299997 84.155,64.386 C83.2589955,64.4420003 82.5520026,63.6300084 82.034,61.95 C81.8099989,61.2079963 81.6210008,60.2910055 81.467,59.199 C81.3269993,58.204995 81.2220003,57.0710064 81.152,55.797 L79.283,55.923 L79.283,61.194 L81.341,60.375 C81.3970003,61.3970051 81.4949993,62.2299968 81.635,62.874 Z M79.283,53.172 L81.047,53.046 C81.0049998,51.7859937 80.984,50.4210073 80.984,48.951 C80.2699964,49.1330009 79.7030021,49.3079992 79.283,49.476 L79.283,53.172 Z M73.718,54.747 L73.277,55.356 L73.0888398,55.6281604 C73.00148,55.7491202 72.9242003,55.8473996 72.857,55.923 L74.012,55.692 L73.718,54.747 Z M72.395,64.302 L72.353,63.252 C72.3249999,62.8319979 72.2900002,62.4330019 72.248,62.055 L72.017,60.06 L74.054,59.409 C74.3060013,61.019008 74.4669996,62.4329939 74.537,63.651 L72.395,64.302 Z M71.828,60.186 C71.7579996,62.1740099 71.5130021,63.8539931 71.093,65.226 L68.951,64.638 C69.1330009,64.0919973 69.2869994,63.3570046 69.413,62.433 C69.5110005,61.634996 69.5809998,60.8090043 69.623,59.955 L71.828,60.186 Z M91.6645,64.89 C90.3484934,63.3779924 88.8645083,61.9500067 87.2125,60.606 L89.8795,58.128 C91.6295087,59.4580066 93.1274938,60.8719925 94.3735,62.37 L91.6645,64.89 Z M120.132,65.394 C119.683998,65.4500003 118.949005,65.4290005 117.927,65.331 C117.885,64.4629957 117.668002,63.5950043 117.276,62.727 L117.087,62.811 C116.904999,61.9569957 116.534003,60.9350059 115.974,59.745 L117.906,59.178 C118.494003,60.2700055 118.906999,61.2639955 119.145,62.16 L117.591,62.643 L118.242,62.727 L118.65864,62.74716 L118.65864,62.74716 L118.725,62.748 C119.005001,62.7620001 119.200999,62.6990007 119.313,62.559 C119.551001,62.2789986 119.739999,61.0750106 119.88,58.947 L107.784,58.107 L107.784,45.528 L121.224,46.452 L121.224,48.972 L115.869,48.594 L115.869,49.644 L120.552,49.98 L120.552,52.248 L115.869,51.912 L115.869,52.899 L120.552,53.235 L120.552,55.503 L115.869,55.167 L115.869,56.154 L122.673,56.637 L122.61,57.729 L122.573026,58.4774862 C122.385868,61.99335 122.076196,64.0328359 121.644,64.596 C121.307998,65.0440022 120.804003,65.3099996 120.132,65.394 Z M110.409,49.266 L113.202,49.476 L113.202,48.426 L110.409,48.216 L110.409,49.266 Z M110.409,52.521 L113.202,52.731 L113.202,51.744 L110.409,51.534 L110.409,52.521 Z M110.409,55.776 L113.202,55.986 L113.202,54.999 L110.409,54.789 L110.409,55.776 Z M107.217,58.464 L109.569,59.325 L108.939,61.131 C108.737399,61.6798027 108.54476,62.1748394 108.36108,62.6161193 L108.225,62.937 C107.972999,63.539003 107.728001,64.0639978 107.49,64.512 L105.327,62.853 C105.780602,62.046596 106.245538,61.019075 106.721819,59.7704116 L107.217,58.464 Z M113.979,63.819 C113.881,62.6989944 113.566003,61.3830076 113.034,59.871 L115.092,59.472 C115.666003,60.9560074 116.029999,62.2509945 116.184,63.357 L113.979,63.819 Z M110.472,64.05 C110.472,62.7759936 110.269002,61.3200082 109.863,59.682 L112.089,59.451 C112.551002,60.9910077 112.803,62.4329933 112.845,63.777 L110.472,64.05 Z M132.0515,63.189 C131.337496,63.6510023 130.357506,64.1059978 129.1115,64.554 C127.921494,64.9740021 126.675507,65.3239986 125.3735,65.604 L124.7855,63.693 L125.36006,63.5586 C125.665819,63.4830002 125.999298,63.3948005 126.3605,63.294 C127.074504,63.0839989 127.690497,62.881001 128.2085,62.685 L127.0745,62.769 L127.0745,58.695 C126.416497,59.087002 125.688504,59.4509983 124.8905,59.787 L123.9665,57.54 C125.002505,57.2039983 126.164494,56.5880045 127.4525,55.692 L124.3865,55.902 L124.3865,53.907 L128.6915,53.613 L128.6915,53.172 L126.6125,53.319 L126.6125,51.912 L128.6915,51.765 L128.6915,51.198 L126.4445,51.345 L126.4445,50.442 L124.4285,50.589 L124.4285,46.914 L131.2745,46.431 L131.0225,45.822 L133.7105,44.709 C133.934501,45.1290021 134.130499,45.6329971 134.2985,46.221 L140.6405,45.78 L140.6405,49.455 L138.7295,49.581 L138.7295,50.484 L136.3985,50.652 L136.3985,51.219 L138.6245,51.072 L138.6245,52.479 L136.3985,52.626 L136.3985,53.067 L140.7245,52.773 L140.7245,54.768 L138.3095,54.936 C139.387505,55.4260024 140.304496,55.7409993 141.0605,55.881 L140.0735,58.422 C139.387497,58.2119989 138.708503,57.9460016 138.0365,57.624 L138.0365,62.013 L137.0075,62.076 L137.5535,62.181 C137.6235,62.1950001 137.6935,62.2159999 137.7635,62.244 L139.1915,62.58 L140.5145,62.937 L138.2885,64.659 L138.0785,64.575 L137.1125,64.281 C135.838494,63.888998 134.487507,63.5250017 133.0595,63.189 L134.0045,62.286 L131.0225,62.496 L132.0515,63.189 Z M126.8645,49.812 L128.6915,49.686 L128.6915,48.993 L131.1275,48.825 L131.1275,49.518 L133.8995,49.308 L133.8995,48.615 L136.3985,48.447 L136.3985,49.14 L138.0995,49.014 L138.0995,48.237 L126.8645,49.035 L126.8645,49.812 Z M131.1275,51.597 L133.8995,51.387 L133.8995,50.82 L131.1275,51.03 L131.1275,51.597 Z M131.1275,53.445 L133.8995,53.235 L133.8995,52.794 L131.1275,53.004 L131.1275,53.445 Z M130.2245,55.986 L135.2855,55.629 L134.9075,55.167 L130.6025,55.461 L130.2245,55.986 Z M129.5105,57.813 L135.4955,57.393 L135.4955,56.952 L129.5105,57.372 L129.5105,57.813 Z M129.5105,59.514 L135.4955,59.094 L135.4955,58.674 L129.5105,59.094 L129.5105,59.514 Z M129.5105,61.236 L135.4955,60.816 L135.4955,60.396 L129.5105,60.816 L129.5105,61.236 Z M149.725,57.918 C149.627,58.8000044 149.480001,59.5629968 149.284,60.207 C149.031999,60.9490037 148.682002,61.5929973 148.234,62.139 C147.729997,62.741003 147.086004,63.244998 146.302,63.651 C145.447996,64.0850022 144.398006,64.4209988 143.152,64.659 L142.27,61.719 C143.936008,61.4949989 145.118996,61.0260036 145.819,60.312 C146.127002,59.9899984 146.364999,59.5980023 146.533,59.136 C146.659001,58.7579981 146.757,58.2820029 146.827,57.708 L144.622,57.561 L144.622,50.631 L149.347,50.946 L149.347,49.455 L142.732,48.993 L142.732,46.347 L149.347,46.809 L149.347,45.129 L152.077,45.318 L152.077,46.998 L158.902,47.481 L158.902,50.127 L152.077,49.644 L152.077,51.135 L157.159,51.492 L157.159,58.422 L154.24,58.233 L154.24,61.509 C154.24,61.8590017 154.302999,62.0829995 154.429,62.181 C154.555001,62.2790005 154.862998,62.3419999 155.353,62.37 L155.836,62.412 C156.312002,62.4400001 156.619999,62.3210013 156.76,62.055 C156.886001,61.7889987 156.963,61.1940046 156.991,60.27 L159.511,60.816 C159.370999,62.6360091 159.049003,63.8399971 158.545,64.428 C158.040997,65.0160029 157.145006,65.2680004 155.857,65.184 L155.143,65.142 C153.658993,65.0299994 152.672002,64.6870029 152.182,64.113 C151.733998,63.6089975 151.51,62.6920066 151.51,61.362 L151.51,58.044 L149.725,57.918 Z M147.184,55.125 L154.387,55.629 L154.387,53.865 L147.184,53.361 L147.184,55.125 Z M159.8385,44.835 L162.0645,43.47 L162.738214,44.5705711 C162.767071,44.6188568 162.7945,44.6649998 162.8205,44.709 C163.100501,45.1430022 163.345499,45.5489981 163.5555,45.927 C164.073503,46.8510046 164.500498,47.7329958 164.8365,48.573 C165.228502,49.567005 165.522499,50.5819948 165.7185,51.618 C165.942501,52.7660057 166.0545,53.9839936 166.0545,55.272 C166.0545,56.5600064 165.942501,57.7639944 165.7185,58.884 C165.522499,59.892005 165.228502,60.8649953 164.8365,61.803 C164.500498,62.6150041 164.073503,63.4409958 163.5555,64.281 C163.397999,64.5435013 163.220813,64.8217495 163.023938,65.1157494 L162.323358,66.1542849 C162.242786,66.2714277 162.1565,66.3959993 162.0645,66.528 L159.8385,64.869 C160.790505,63.3989926 161.476498,61.9290073 161.8965,60.459 C162.316502,58.9469924 162.5265,57.1410105 162.5265,55.041 C162.5265,52.9269894 162.316502,51.0790079 161.8965,49.497 C161.490498,47.9709924 160.804505,46.4170079 159.8385,44.835 Z" id="()" fill="#FFFFFF"></path>
        </g>
    </g>
</svg>