<?xml version="1.0" encoding="UTF-8"?>
<svg width="166px" height="75px" viewBox="0 0 166 75" version="1.1" xmlns="http://www.w3.org/2000/svg" xmlns:xlink="http://www.w3.org/1999/xlink">
    <!-- Generator: Sketch 59.1 (86144) - https://sketch.com -->
    <title>Group 31</title>
    <desc>Created with Sketch.</desc>
    <defs>
        <linearGradient x1="100%" y1="100%" x2="100%" y2="0%" id="linearGradient-1">
            <stop stop-color="#21A39F" offset="0%"></stop>
            <stop stop-color="#89E0EA" offset="100%"></stop>
        </linearGradient>
    </defs>
    <g id="Amazon-Browser" stroke="none" stroke-width="1" fill="none" fill-rule="evenodd">
        <g id="Group-31" fill-rule="nonzero">
            <g id="whatsAppLogotype-Copy-3" fill="url(#linearGradient-1)">
                <rect id="Rectangle" x="0" y="0.330935252" width="166" height="74" rx="23.1"></rect>
            </g>
            <path d="M30.1,26.57 L30.1,31.28 L34.78,31.28 L34.78,32.06 C34.78,32.9 35.245,33.32 36.175,33.32 L42.13,33.32 L42.13,32.105 L36.58,32.105 C36.295,32.105 36.16,31.985 36.16,31.745 L36.16,31.28 L40.825,31.28 L40.825,26.57 L36.16,26.57 L36.16,25.88 L34.78,25.88 L34.78,26.57 L30.1,26.57 Z M39.505,30.2 L36.16,30.2 L36.16,29.36 L39.505,29.36 L39.505,30.2 Z M34.78,30.2 L31.435,30.2 L31.435,29.36 L34.78,29.36 L34.78,30.2 Z M31.435,28.415 L31.435,27.62 L34.78,27.62 L34.78,28.415 L31.435,28.415 Z M36.16,27.62 L39.505,27.62 L39.505,28.415 L36.16,28.415 L36.16,27.62 Z M29.635,20.03 L29.635,21.185 L34.81,21.185 L34.81,21.83 L29.05,21.83 L29.05,24.935 L30.355,24.935 L30.355,22.895 L34.81,22.895 L34.81,25.535 L36.19,25.535 L36.19,22.895 L40.645,22.895 L40.645,24.935 L41.95,24.935 L41.95,21.83 L36.19,21.83 L36.19,21.185 L41.365,21.185 L41.365,20.03 L29.635,20.03 Z M37.21,24.83 L36.82,25.595 C37.84,25.715 38.815,25.88 39.775,26.105 L40.15,25.205 C39.205,25.04 38.23,24.92 37.21,24.83 Z M31.405,23.315 L30.97,24.155 C31.96,24.23 32.92,24.335 33.835,24.485 L34.18,23.66 C33.295,23.51 32.365,23.39 31.405,23.315 Z M33.88,24.815 C33.265,24.965 32.26,25.055 30.85,25.115 L31.12,26.015 C32.545,25.91 33.55,25.775 34.15,25.61 L33.88,24.815 Z M37.045,24.53 C38.155,24.44 39.115,24.32 39.94,24.155 L39.595,23.24 C38.8,23.465 37.9,23.615 36.895,23.69 L37.045,24.53 Z M45.6675,32.675 L47.5425,32.675 L47.5425,33.305 L48.9075,33.305 L48.9075,28.04 L44.3025,28.04 L44.3025,33.53 L45.6675,33.53 L45.6675,32.675 Z M47.5425,31.37 L45.6675,31.37 L45.6675,29.345 L47.5425,29.345 L47.5425,31.37 Z M43.8975,21.5 L43.8975,22.82 L49.3125,22.82 L49.3125,21.5 L47.4375,21.5 C47.2875,20.945 47.0625,20.33 46.7625,19.655 L45.3975,20.03 C45.6375,20.495 45.8625,20.99 46.0725,21.5 L43.8975,21.5 Z M44.4525,23.735 L44.4525,24.98 L48.7875,24.98 L48.7875,23.735 L44.4525,23.735 Z M44.4525,25.805 L44.4525,27.08 L48.7875,27.08 L48.7875,25.805 L44.4525,25.805 Z M49.4775,23.96 L49.4775,25.34 L52.6875,25.34 L52.6875,27.425 L50.0475,27.425 L50.0475,33.5 L51.4425,33.5 L51.4425,32.84 L55.3575,32.84 L55.3575,33.5 L56.7375,33.5 L56.7375,27.425 L54.0675,27.425 L54.0675,25.34 L57.5475,25.34 L57.5475,23.96 L54.0675,23.96 L54.0675,21.875 C55.2225,21.695 56.2425,21.41 57.1125,21.05 L56.4075,19.85 C54.5775,20.54 52.3425,20.885 49.6875,20.885 L50.0925,22.16 C51.0075,22.16 51.8775,22.115 52.6875,22.04 L52.6875,23.96 L49.4775,23.96 Z M51.4425,31.52 L51.4425,28.73 L55.3575,28.73 L55.3575,31.52 L51.4425,31.52 Z M60.515,24.305 C60.2321429,24.305 60.0043878,24.3821429 59.8222886,24.5458746 L59.735,24.635 C59.51,24.845 59.405,25.115 59.405,25.43 C59.405,25.73 59.51,26 59.735,26.225 C59.93,26.435 60.185,26.54 60.515,26.54 C60.815,26.54 61.085,26.435 61.31,26.225 C61.52,26 61.64,25.73 61.64,25.43 C61.64,25.115 61.52,24.845 61.31,24.635 C61.085,24.41 60.815,24.305 60.515,24.305 Z M60.515,29.795 C60.2321429,29.795 60.0043878,29.8721429 59.8222886,30.0358746 L59.735,30.125 C59.51,30.335 59.405,30.605 59.405,30.92 C59.405,31.22 59.51,31.49 59.735,31.715 C59.93,31.925 60.185,32.03 60.515,32.03 C60.815,32.03 61.085,31.925 61.31,31.715 C61.52,31.49 61.64,31.22 61.64,30.92 C61.64,30.605 61.52,30.335 61.31,30.125 C61.085,29.9 60.815,29.795 60.515,29.795 Z M72.69,21.08 C71.55,21.08 70.62,21.455 69.93,22.235 C69.255,22.955 68.91,23.915 68.895,25.115 L70.53,25.115 C70.56,24.245 70.74,23.6 71.1,23.15 C71.445,22.685 71.955,22.46 72.63,22.46 C73.26,22.46 73.755,22.61 74.085,22.91 C74.415,23.21 74.58,23.66 74.58,24.26 C74.58,24.89 74.325,25.475 73.845,26.015 C73.545,26.33 73.035,26.735 72.315,27.245 L71.8191254,27.593105 C70.8771429,28.2656122 70.2342857,28.7964286 69.9,29.195 C69.18,30.005 68.835,30.935 68.835,32 L76.215,32 L76.215,30.56 L70.86,30.56 C71.0689286,30.0167857 71.678801,29.3959694 72.6896173,28.697551 L72.93,28.535 C73.995,27.815 74.73,27.245 75.15,26.81 C75.84,26.045 76.2,25.205 76.2,24.275 C76.2,23.33 75.87,22.565 75.225,21.965 C74.565,21.365 73.71,21.08 72.69,21.08 Z M82.8425,21.29 L77.5625,28.13 L77.5625,29.675 L82.7825,29.675 L82.7825,32 L84.3425,32 L84.3425,29.675 L85.9625,29.675 L85.9625,28.37 L84.3425,28.37 L84.3425,21.29 L82.8425,21.29 Z M82.7375,23.36 L82.7825,23.36 L82.7825,28.37 L78.8975,28.37 L82.7375,23.36 Z M87.925,21.29 L87.34,27.29 L88.87,27.29 C89.08,26.9 89.365,26.615 89.755,26.435 C90.115,26.255 90.52,26.18 91,26.18 C91.72,26.18 92.26,26.39 92.65,26.81 C93.04,27.23 93.235,27.815 93.235,28.565 C93.235,29.255 93.01,29.795 92.56,30.215 C92.11,30.62 91.555,30.83 90.895,30.83 C90.295,30.83 89.815,30.695 89.455,30.425 C89.05,30.125 88.81,29.66 88.75,29.06 L87.145,29.06 C87.22,30.05 87.64,30.845 88.405,31.415 C89.095,31.94 89.92,32.21 90.88,32.21 C91.945,32.21 92.86,31.895 93.625,31.265 C94.435,30.56 94.855,29.66 94.855,28.55 C94.855,27.395 94.525,26.495 93.895,25.835 C93.265,25.175 92.44,24.845 91.435,24.845 C91.035,24.845 90.6558333,24.8970833 90.3148611,25.0099306 L90.115,25.085 C89.68,25.235 89.305,25.475 88.975,25.82 L88.93,25.82 L89.245,22.73 L94.375,22.73 L94.375,21.29 L87.925,21.29 Z M100.2375,21.08 C98.9775,21.08 98.0025,21.605 97.3125,22.67 C96.6825,23.645 96.3675,24.965 96.3675,26.645 C96.3675,28.31 96.6825,29.63 97.3125,30.62 C98.0025,31.67 98.9775,32.21 100.2375,32.21 C101.4975,32.21 102.4725,31.67 103.1625,30.62 C103.7925,29.63 104.1075,28.295 104.1075,26.645 C104.1075,24.98 103.7925,23.66 103.1625,22.67 C102.4725,21.605 101.4975,21.08 100.2375,21.08 Z M100.2375,22.46 C101.1075,22.46 101.7375,22.94 102.0975,23.915 C102.3525,24.575 102.4875,25.49 102.4875,26.645 C102.4875,27.785 102.3525,28.7 102.0975,29.375 C101.7375,30.335 101.1075,30.83 100.2375,30.83 C99.3525,30.83 98.7375,30.335 98.3775,29.375 C98.1075,28.7 97.9875,27.785 97.9875,26.645 C97.9875,25.49 98.1075,24.575 98.3775,23.915 C98.7375,22.94 99.3525,22.46 100.2375,22.46 Z M106.4,21.29 L105.815,27.29 L107.345,27.29 C107.555,26.9 107.84,26.615 108.23,26.435 C108.59,26.255 108.995,26.18 109.475,26.18 C110.195,26.18 110.735,26.39 111.125,26.81 C111.515,27.23 111.71,27.815 111.71,28.565 C111.71,29.255 111.485,29.795 111.035,30.215 C110.585,30.62 110.03,30.83 109.37,30.83 C108.77,30.83 108.29,30.695 107.93,30.425 C107.525,30.125 107.285,29.66 107.225,29.06 L105.62,29.06 C105.695,30.05 106.115,30.845 106.88,31.415 C107.57,31.94 108.395,32.21 109.355,32.21 C110.42,32.21 111.335,31.895 112.1,31.265 C112.91,30.56 113.33,29.66 113.33,28.55 C113.33,27.395 113,26.495 112.37,25.835 C111.74,25.175 110.915,24.845 109.91,24.845 C109.51,24.845 109.130833,24.8970833 108.789861,25.0099306 L108.59,25.085 C108.155,25.235 107.78,25.475 107.45,25.82 L107.405,25.82 L107.72,22.73 L112.85,22.73 L112.85,21.29 L106.4,21.29 Z M117.6925,21.29 C117.3325,21.68 116.8825,22.025 116.3425,22.355 C115.8025,22.655 115.3075,22.865 114.8275,22.985 L114.8275,24.605 C115.8175,24.32 116.6425,23.87 117.2875,23.255 L117.2875,32 L118.9225,32 L118.9225,21.29 L117.6925,21.29 Z M125.07,21.08 C123.93,21.08 123.015,21.38 122.355,21.98 C121.755,22.52 121.455,23.195 121.455,23.99 C121.455,24.545 121.575,25.01 121.815,25.385 C122.085,25.79 122.49,26.09 123.03,26.3 L123.03,26.345 C122.505,26.465 122.07,26.765 121.71,27.245 C121.29,27.755 121.08,28.34 121.08,29.015 C121.08,29.96 121.425,30.725 122.115,31.325 C122.805,31.91 123.795,32.21 125.07,32.21 C126.33,32.21 127.32,31.91 128.025,31.325 C128.715,30.725 129.06,29.96 129.06,29.015 C129.06,28.34 128.85,27.755 128.43,27.245 C128.07,26.765 127.62,26.465 127.11,26.345 L127.11,26.3 C127.65,26.09 128.055,25.79 128.325,25.385 C128.565,25.01 128.685,24.545 128.685,23.99 C128.685,23.195 128.385,22.52 127.785,21.98 C127.11,21.38 126.21,21.08 125.07,21.08 Z M125.07,22.385 C125.73,22.385 126.255,22.55 126.645,22.91 C126.975,23.21 127.155,23.6 127.155,24.05 C127.155,24.56 127.005,24.965 126.735,25.265 C126.375,25.625 125.82,25.805 125.07,25.805 C124.305,25.805 123.75,25.625 123.405,25.265 C123.12,24.965 122.985,24.56 122.985,24.05 C122.985,23.6 123.15,23.21 123.495,22.91 C123.885,22.55 124.41,22.385 125.07,22.385 Z M125.07,27.02 C125.85,27.02 126.435,27.215 126.855,27.605 C127.245,27.95 127.44,28.415 127.44,29.015 C127.44,29.57 127.245,30.02 126.855,30.365 C126.42,30.71 125.82,30.89 125.07,30.89 C124.305,30.89 123.72,30.71 123.315,30.365 C122.895,30.02 122.7,29.57 122.7,29.015 C122.7,28.415 122.895,27.95 123.3,27.59 C123.69,27.2 124.29,27.02 125.07,27.02 Z M134.4725,21.08 C133.3325,21.08 132.4025,21.455 131.7125,22.235 C131.0375,22.955 130.6925,23.915 130.6775,25.115 L132.3125,25.115 C132.3425,24.245 132.5225,23.6 132.8825,23.15 C133.2275,22.685 133.7375,22.46 134.4125,22.46 C135.0425,22.46 135.5375,22.61 135.8675,22.91 C136.1975,23.21 136.3625,23.66 136.3625,24.26 C136.3625,24.89 136.1075,25.475 135.6275,26.015 C135.3275,26.33 134.8175,26.735 134.0975,27.245 L133.601625,27.593105 C132.659643,28.2656122 132.016786,28.7964286 131.6825,29.195 C130.9625,30.005 130.6175,30.935 130.6175,32 L137.9975,32 L137.9975,30.56 L132.6425,30.56 C132.851429,30.0167857 133.461301,29.3959694 134.472117,28.697551 L134.7125,28.535 C135.7775,27.815 136.5125,27.245 136.9325,26.81 C137.6225,26.045 137.9825,25.205 137.9825,24.275 C137.9825,23.33 137.6525,22.565 137.0075,21.965 C136.3475,21.365 135.4925,21.08 134.4725,21.08 Z M31.525,40.67 C30.88,42.965 29.875,44.975 28.525,46.7 L28.945,48.125 C29.47,47.525 29.95,46.91 30.4,46.265 L30.4,54.545 L31.78,54.545 L31.78,43.88 C32.17,43.04 32.5,42.155 32.77,41.255 L31.525,40.67 Z M32.965,41.42 L32.965,42.545 L36.49,42.545 L36.49,43.205 L33.265,43.205 L33.265,47.765 L36.49,47.765 L36.49,48.59 L32.695,48.665 L32.695,48.665 L32.86,49.79 L34.4568343,49.7462494 C36.1592012,49.6953846 37.6219231,49.6376923 38.845,49.58 L38.845,50.42 L32.425,50.42 L32.425,51.65 L34.075,51.65 L33.505,52.49 C34.285,52.88 35.065,53.405 35.83,54.095 L36.535,52.985 C35.875,52.475 35.125,52.025 34.315,51.65 L38.845,51.65 L38.845,52.985 C38.845,53.21 38.695,53.33 38.395,53.33 C37.915,53.33 37.39,53.3 36.835,53.255 L37.12,54.515 L38.875,54.515 C39.745,54.515 40.195,54.11 40.195,53.3 L40.195,51.65 L42.175,51.65 L42.175,50.42 L40.195,50.42 L40.195,49.505 C40.405,49.475 40.6,49.46 40.81,49.46 C40.975,49.7 41.14,49.94 41.29,50.18 L42.265,49.49 C41.935,48.98 41.5,48.41 40.945,47.765 L41.23,47.765 L41.23,43.205 L37.87,43.205 L37.87,42.545 L41.725,42.545 L41.725,41.42 L37.87,41.42 L37.87,40.715 L36.49,40.715 L36.49,41.42 L32.965,41.42 Z M40.03,48.44 L38.3308,48.52544 C38.1796,48.5324 38.026,48.539 37.87,48.545 L37.87,47.765 L39.865,47.765 L39.595,47.93 C39.73,48.095 39.88,48.26 40.03,48.44 Z M39.97,46.73 L37.765,46.73 L37.765,45.95 L39.97,45.95 L39.97,46.73 Z M36.58,46.73 L34.51,46.73 L34.51,45.95 L36.58,45.95 L36.58,46.73 Z M34.51,45.005 L34.51,44.24 L36.58,44.24 L36.58,45.005 L34.51,45.005 Z M37.765,44.24 L39.97,44.24 L39.97,45.005 L37.765,45.005 L37.765,44.24 Z M44.6175,41.675 L44.6175,42.905 L50.0325,42.905 L50.0325,43.67 L46.1925,43.67 L46.1925,50.675 L44.0625,50.675 L44.0625,51.935 L48.0225,51.935 C47.0325,52.535 45.8175,53.045 44.3775,53.435 L44.9625,54.65 C46.6425,54.125 48.0675,53.465 49.2375,52.655 L48.6075,51.935 L52.7775,51.935 L52.2975,52.67 C53.7375,53.15 55.1475,53.81 56.5275,54.65 L57.2625,53.525 C56.1525,52.925 54.9375,52.385 53.6025,51.935 L57.4125,51.935 L57.4125,50.675 L55.5075,50.675 L55.5075,43.67 L51.4425,43.67 L51.4425,42.905 L56.8575,42.905 L56.8575,41.675 L51.4425,41.675 L51.4425,40.715 L50.0325,40.715 L50.0325,41.675 L44.6175,41.675 Z M47.5575,50.675 L47.5575,49.955 L54.1575,49.955 L54.1575,50.675 L47.5575,50.675 Z M47.5575,48.905 L47.5575,48.245 L54.1575,48.245 L54.1575,48.905 L47.5575,48.905 Z M47.5575,47.195 L47.5575,46.535 L54.1575,46.535 L54.1575,47.195 L47.5575,47.195 Z M47.5575,45.47 L47.5575,44.795 L54.1575,44.795 L54.1575,45.47 L47.5575,45.47 Z M60.515,45.305 C60.2321429,45.305 60.0043878,45.3821429 59.8222886,45.5458746 L59.735,45.635 C59.51,45.845 59.405,46.115 59.405,46.43 C59.405,46.73 59.51,47 59.735,47.225 C59.93,47.435 60.185,47.54 60.515,47.54 C60.815,47.54 61.085,47.435 61.31,47.225 C61.52,47 61.64,46.73 61.64,46.43 C61.64,46.115 61.52,45.845 61.31,45.635 C61.085,45.41 60.815,45.305 60.515,45.305 Z M60.515,50.795 C60.2321429,50.795 60.0043878,50.8721429 59.8222886,51.0358746 L59.735,51.125 C59.51,51.335 59.405,51.605 59.405,51.92 C59.405,52.22 59.51,52.49 59.735,52.715 C59.93,52.925 60.185,53.03 60.515,53.03 C60.815,53.03 61.085,52.925 61.31,52.715 C61.52,52.49 61.64,52.22 61.64,51.92 C61.64,51.605 61.52,51.335 61.31,51.125 C61.085,50.9 60.815,50.795 60.515,50.795 Z M72.69,42.08 C71.55,42.08 70.62,42.455 69.93,43.235 C69.255,43.955 68.91,44.915 68.895,46.115 L70.53,46.115 C70.56,45.245 70.74,44.6 71.1,44.15 C71.445,43.685 71.955,43.46 72.63,43.46 C73.26,43.46 73.755,43.61 74.085,43.91 C74.415,44.21 74.58,44.66 74.58,45.26 C74.58,45.89 74.325,46.475 73.845,47.015 C73.545,47.33 73.035,47.735 72.315,48.245 L71.8191254,48.593105 C70.8771429,49.2656122 70.2342857,49.7964286 69.9,50.195 C69.18,51.005 68.835,51.935 68.835,53 L76.215,53 L76.215,51.56 L70.86,51.56 C71.0689286,51.0167857 71.678801,50.3959694 72.6896173,49.697551 L72.93,49.535 C73.995,48.815 74.73,48.245 75.15,47.81 C75.84,47.045 76.2,46.205 76.2,45.275 C76.2,44.33 75.87,43.565 75.225,42.965 C74.565,42.365 73.71,42.08 72.69,42.08 Z M82.8425,42.29 L77.5625,49.13 L77.5625,50.675 L82.7825,50.675 L82.7825,53 L84.3425,53 L84.3425,50.675 L85.9625,50.675 L85.9625,49.37 L84.3425,49.37 L84.3425,42.29 L82.8425,42.29 Z M82.7375,44.36 L82.7825,44.36 L82.7825,49.37 L78.8975,49.37 L82.7375,44.36 Z M87.925,42.29 L87.34,48.29 L88.87,48.29 C89.08,47.9 89.365,47.615 89.755,47.435 C90.115,47.255 90.52,47.18 91,47.18 C91.72,47.18 92.26,47.39 92.65,47.81 C93.04,48.23 93.235,48.815 93.235,49.565 C93.235,50.255 93.01,50.795 92.56,51.215 C92.11,51.62 91.555,51.83 90.895,51.83 C90.295,51.83 89.815,51.695 89.455,51.425 C89.05,51.125 88.81,50.66 88.75,50.06 L87.145,50.06 C87.22,51.05 87.64,51.845 88.405,52.415 C89.095,52.94 89.92,53.21 90.88,53.21 C91.945,53.21 92.86,52.895 93.625,52.265 C94.435,51.56 94.855,50.66 94.855,49.55 C94.855,48.395 94.525,47.495 93.895,46.835 C93.265,46.175 92.44,45.845 91.435,45.845 C91.035,45.845 90.6558333,45.8970833 90.3148611,46.0099306 L90.115,46.085 C89.68,46.235 89.305,46.475 88.975,46.82 L88.93,46.82 L89.245,43.73 L94.375,43.73 L94.375,42.29 L87.925,42.29 Z M100.2375,42.08 C98.9775,42.08 98.0025,42.605 97.3125,43.67 C96.6825,44.645 96.3675,45.965 96.3675,47.645 C96.3675,49.31 96.6825,50.63 97.3125,51.62 C98.0025,52.67 98.9775,53.21 100.2375,53.21 C101.4975,53.21 102.4725,52.67 103.1625,51.62 C103.7925,50.63 104.1075,49.295 104.1075,47.645 C104.1075,45.98 103.7925,44.66 103.1625,43.67 C102.4725,42.605 101.4975,42.08 100.2375,42.08 Z M100.2375,43.46 C101.1075,43.46 101.7375,43.94 102.0975,44.915 C102.3525,45.575 102.4875,46.49 102.4875,47.645 C102.4875,48.785 102.3525,49.7 102.0975,50.375 C101.7375,51.335 101.1075,51.83 100.2375,51.83 C99.3525,51.83 98.7375,51.335 98.3775,50.375 C98.1075,49.7 97.9875,48.785 97.9875,47.645 C97.9875,46.49 98.1075,45.575 98.3775,44.915 C98.7375,43.94 99.3525,43.46 100.2375,43.46 Z M106.4,42.29 L105.815,48.29 L107.345,48.29 C107.555,47.9 107.84,47.615 108.23,47.435 C108.59,47.255 108.995,47.18 109.475,47.18 C110.195,47.18 110.735,47.39 111.125,47.81 C111.515,48.23 111.71,48.815 111.71,49.565 C111.71,50.255 111.485,50.795 111.035,51.215 C110.585,51.62 110.03,51.83 109.37,51.83 C108.77,51.83 108.29,51.695 107.93,51.425 C107.525,51.125 107.285,50.66 107.225,50.06 L105.62,50.06 C105.695,51.05 106.115,51.845 106.88,52.415 C107.57,52.94 108.395,53.21 109.355,53.21 C110.42,53.21 111.335,52.895 112.1,52.265 C112.91,51.56 113.33,50.66 113.33,49.55 C113.33,48.395 113,47.495 112.37,46.835 C111.74,46.175 110.915,45.845 109.91,45.845 C109.51,45.845 109.130833,45.8970833 108.789861,46.0099306 L108.59,46.085 C108.155,46.235 107.78,46.475 107.45,46.82 L107.405,46.82 L107.72,43.73 L112.85,43.73 L112.85,42.29 L106.4,42.29 Z M117.6925,42.29 C117.3325,42.68 116.8825,43.025 116.3425,43.355 C115.8025,43.655 115.3075,43.865 114.8275,43.985 L114.8275,45.605 C115.8175,45.32 116.6425,44.87 117.2875,44.255 L117.2875,53 L118.9225,53 L118.9225,42.29 L117.6925,42.29 Z M121.995,42.29 L121.41,48.29 L122.94,48.29 C123.15,47.9 123.435,47.615 123.825,47.435 C124.185,47.255 124.59,47.18 125.07,47.18 C125.79,47.18 126.33,47.39 126.72,47.81 C127.11,48.23 127.305,48.815 127.305,49.565 C127.305,50.255 127.08,50.795 126.63,51.215 C126.18,51.62 125.625,51.83 124.965,51.83 C124.365,51.83 123.885,51.695 123.525,51.425 C123.12,51.125 122.88,50.66 122.82,50.06 L121.215,50.06 C121.29,51.05 121.71,51.845 122.475,52.415 C123.165,52.94 123.99,53.21 124.95,53.21 C126.015,53.21 126.93,52.895 127.695,52.265 C128.505,51.56 128.925,50.66 128.925,49.55 C128.925,48.395 128.595,47.495 127.965,46.835 C127.335,46.175 126.51,45.845 125.505,45.845 C125.105,45.845 124.725833,45.8970833 124.384861,46.0099306 L124.185,46.085 C123.75,46.235 123.375,46.475 123.045,46.82 L123,46.82 L123.315,43.73 L128.445,43.73 L128.445,42.29 L121.995,42.29 Z M133.2875,42.29 L134.5175,42.29 L134.5175,53 L132.8825,53 L132.8825,44.255 C132.2375,44.87 131.4125,45.32 130.4225,45.605 L130.4225,43.985 C130.9025,43.865 131.3975,43.655 131.9375,43.355 C132.4775,43.025 132.9275,42.68 133.2875,42.29 Z" id="電話:24505182傳真:24505151" fill="#FFFFFF"></path>
        </g>
    </g>
</svg>