<?xml version="1.0" encoding="UTF-8"?>
<svg width="149px" height="40px" viewBox="0 0 149 40" version="1.1" xmlns="http://www.w3.org/2000/svg" xmlns:xlink="http://www.w3.org/1999/xlink">
    <!-- Generator: Sketch 59.1 (86144) - https://sketch.com -->
    <title>TEL:24505182FAX:24505151</title>
    <desc>Created with Sketch.</desc>
    <g id="Amazon-Browser" stroke="none" stroke-width="1" fill="none" fill-rule="evenodd">
        <g id="A4" transform="translate(-631.000000, -33.000000)" fill="#FFFFFF" fill-rule="nonzero">
            <path d="M638.896,37.198 L638.896,49 L635.305,49 L635.305,37.198 L631.105,37.198 L631.105,34.132 L643.096,34.132 L643.096,37.198 L638.896,37.198 Z M643.9465,49 L643.9465,34.132 L653.9425,34.132 L653.9425,37.177 L647.4115,37.177 L647.4115,39.97 L653.5855,39.97 L653.5855,42.847 L647.4115,42.847 L647.4115,45.934 L654.3205,45.934 L654.3205,49 L643.9465,49 Z M655.906,49 L655.906,34.132 L659.518,34.132 L659.518,45.871 L665.272,45.871 L665.272,49 L655.906,49 Z M670.1755,40.39 C670.1755,40.6700014 670.1195,40.9324988 670.0075,41.1775 C669.895499,41.4225012 669.748501,41.6359991 669.5665,41.818 C669.384499,42.0000009 669.167501,42.1434995 668.9155,42.2485 C668.663499,42.3535005 668.404501,42.406 668.1385,42.406 C667.858499,42.406 667.592501,42.3570005 667.3405,42.259 C667.088499,42.1609995 666.868001,42.0210009 666.679,41.839 C666.489999,41.6569991 666.3395,41.4470012 666.2275,41.209 C666.115499,40.9709988 666.0595,40.7120014 666.0595,40.432 C666.0595,40.1519986 666.115499,39.8895012 666.2275,39.6445 C666.3395,39.3994988 666.489999,39.1860009 666.679,39.004 C666.868001,38.8219991 667.088499,38.6785005 667.3405,38.5735 C667.592501,38.4684995 667.858499,38.416 668.1385,38.416 C668.404501,38.416 668.663499,38.4684995 668.9155,38.5735 C669.167501,38.6785005 669.384499,38.8184991 669.5665,38.9935 C669.748501,39.1685009 669.895499,39.3784988 670.0075,39.6235 C670.1195,39.8685012 670.1755,40.1239987 670.1755,40.39 Z M670.1755,47.131 C670.1755,47.4110014 670.1195,47.6734988 670.0075,47.9185 C669.895499,48.1635012 669.748501,48.3734991 669.5665,48.5485 C669.384499,48.7235009 669.167501,48.8634995 668.9155,48.9685 C668.663499,49.0735005 668.404501,49.126 668.1385,49.126 C667.858499,49.126 667.592501,49.0770005 667.3405,48.979 C667.088499,48.8809995 666.868001,48.7410009 666.679,48.559 C666.489999,48.3769991 666.3395,48.1670012 666.2275,47.929 C666.115499,47.6909988 666.0595,47.4320014 666.0595,47.152 C666.0595,46.8719986 666.115499,46.6095012 666.2275,46.3645 C666.3395,46.1194988 666.489999,45.9060009 666.679,45.724 C666.868001,45.5419991 667.088499,45.3985005 667.3405,45.2935 C667.592501,45.1884995 667.858499,45.136 668.1385,45.136 C668.404501,45.136 668.663499,45.1884995 668.9155,45.2935 C669.167501,45.3985005 669.384499,45.5384991 669.5665,45.7135 C669.748501,45.8885009 669.895499,46.0984988 670.0075,46.3435 C670.1195,46.5885012 670.1755,46.8509986 670.1755,47.131 Z M676.7065,49 L676.7065,46.06 L682.5025,40.81 C682.866502,40.4599982 683.160499,40.1030018 683.3845,39.739 C683.608501,39.3749982 683.7205,38.9690022 683.7205,38.521 C683.7205,37.9889973 683.552502,37.5585016 683.2165,37.2295 C682.880498,36.9004984 682.432503,36.736 681.8725,36.736 C681.284497,36.736 680.805002,36.9424979 680.434,37.3555 C680.062998,37.7685021 679.8425,38.3109966 679.7725,38.983 L676.3915,38.521 C676.4755,37.7649962 676.681998,37.0930029 677.011,36.505 C677.340001,35.9169971 677.756497,35.4165021 678.2605,35.0035 C678.764502,34.5904979 679.341997,34.2755011 679.993,34.0585 C680.644003,33.8414989 681.333496,33.733 682.0615,33.733 C682.747503,33.733 683.412497,33.8239991 684.0565,34.006 C684.700503,34.1880009 685.274497,34.4679981 685.7785,34.846 C686.282502,35.2240019 686.684998,35.6999971 686.986,36.274 C687.287001,36.8480029 687.4375,37.5199961 687.4375,38.29 C687.4375,38.8220027 687.367501,39.3014979 687.2275,39.7285 C687.087499,40.1555021 686.895001,40.5509982 686.65,40.915 C686.404999,41.2790018 686.125001,41.6184984 685.81,41.9335 C685.494998,42.2485016 685.169502,42.5599985 684.8335,42.868 L681.3895,45.934 L687.4585,45.934 L687.4585,49 L676.7065,49 Z M698.872,46.102 L698.872,49 L695.575,49 L695.575,46.102 L688.582,46.102 L688.582,43.141 L694.63,34.132 L698.851,34.132 L698.851,43.246 L700.909,43.246 L700.909,46.102 L698.872,46.102 Z M695.596,37.744 L695.533,37.744 L692.005,43.246 L695.596,43.246 L695.596,37.744 Z M713.0575,44.086 C713.0575,44.9960046 712.896501,45.7834967 712.5745,46.4485 C712.252498,47.1135033 711.822002,47.6629978 711.283,48.097 C710.743997,48.5310022 710.131503,48.8564989 709.4455,49.0735 C708.759496,49.2905011 708.052503,49.399 707.3245,49.399 C706.652496,49.399 706.012003,49.3115009 705.403,49.1365 C704.793997,48.9614991 704.241002,48.7130016 703.744,48.391 C703.246997,48.0689984 702.820002,47.6735023 702.463,47.2045 C702.105998,46.7354977 701.843501,46.2070029 701.6755,45.619 L704.8885,44.632 C705.042501,45.1500026 705.332998,45.5769983 705.76,45.913 C706.187002,46.2490017 706.694497,46.417 707.2825,46.417 C707.884503,46.417 708.405998,46.2350018 708.847,45.871 C709.288002,45.5069982 709.5085,44.9680036 709.5085,44.254 C709.5085,43.8199978 709.417501,43.4560015 709.2355,43.162 C709.053499,42.8679985 708.819001,42.6335009 708.532,42.4585 C708.244998,42.2834991 707.919502,42.1610003 707.5555,42.091 C707.191498,42.0209997 706.827502,41.986 706.4635,41.986 C705.931497,41.986 705.326003,42.0454994 704.647,42.1645 C703.967996,42.2835006 703.362502,42.440999 702.8305,42.637 L703.1875,34.132 L712.3015,34.132 L712.3015,37.156 L706.3165,37.156 L706.1905,39.508 C706.414501,39.4519997 706.662998,39.4135001 706.936,39.3925 C707.209001,39.3714999 707.457499,39.361 707.6815,39.361 C708.423503,39.361 709.123496,39.458999 709.7815,39.655 C710.439503,39.851001 711.009997,40.148498 711.493,40.5475 C711.976002,40.946502 712.357498,41.4399971 712.6375,42.028 C712.917501,42.6160029 713.0575,43.3019961 713.0575,44.086 Z M726.214,41.524 C726.214,42.5740052 726.109001,43.5749952 725.899,44.527 C725.688999,45.4790048 725.353002,46.3154964 724.891,47.0365 C724.428997,47.7575036 723.830503,48.3314979 723.0955,48.7585 C722.360496,49.1855021 721.468005,49.399 720.418,49.399 C719.367994,49.399 718.472003,49.1855021 717.73,48.7585 C716.987996,48.3314979 716.382502,47.7575036 715.9135,47.0365 C715.444497,46.3154964 715.105001,45.4790048 714.895,44.527 C714.684999,43.5749952 714.58,42.5740052 714.58,41.524 C714.58,40.4739948 714.684999,39.4765047 714.895,38.5315 C715.105001,37.5864953 715.444497,36.7605035 715.9135,36.0535 C716.382502,35.3464965 716.987996,34.7830021 717.73,34.363 C718.472003,33.9429979 719.367994,33.733 720.418,33.733 C721.468005,33.733 722.360496,33.9429979 723.0955,34.363 C723.830503,34.7830021 724.428997,35.3464965 724.891,36.0535 C725.353002,36.7605035 725.688999,37.5864953 725.899,38.5315 C726.109001,39.4765047 726.214,40.4739948 726.214,41.524 Z M722.602,41.524 C722.602,41.0619977 722.574,40.5510028 722.518,39.991 C722.461999,39.4309972 722.357001,38.9095024 722.203,38.4265 C722.048999,37.9434976 721.828501,37.5375016 721.5415,37.2085 C721.254498,36.8794984 720.880002,36.715 720.418,36.715 C719.955997,36.715 719.578001,36.8794984 719.284,37.2085 C718.989998,37.5375016 718.762501,37.9434976 718.6015,38.4265 C718.440499,38.9095024 718.332,39.4309972 718.276,39.991 C718.219999,40.5510028 718.192,41.0619977 718.192,41.524 C718.192,42.0000024 718.219999,42.5214972 718.276,43.0885 C718.332,43.6555028 718.440499,44.1804976 718.6015,44.6635 C718.762501,45.1465024 718.989998,45.5524984 719.284,45.8815 C719.578001,46.2105016 719.955997,46.375 720.418,46.375 C720.880002,46.375 721.254498,46.2105016 721.5415,45.8815 C721.828501,45.5524984 722.048999,45.1465024 722.203,44.6635 C722.357001,44.1804976 722.461999,43.6555028 722.518,43.0885 C722.574,42.5214972 722.602,42.0000024 722.602,41.524 Z M738.6145,44.086 C738.6145,44.9960046 738.453501,45.7834967 738.1315,46.4485 C737.809498,47.1135033 737.379002,47.6629978 736.84,48.097 C736.300997,48.5310022 735.688503,48.8564989 735.0025,49.0735 C734.316496,49.2905011 733.609503,49.399 732.8815,49.399 C732.209496,49.399 731.569003,49.3115009 730.96,49.1365 C730.350997,48.9614991 729.798002,48.7130016 729.301,48.391 C728.803997,48.0689984 728.377002,47.6735023 728.02,47.2045 C727.662998,46.7354977 727.400501,46.2070029 727.2325,45.619 L730.4455,44.632 C730.5995,45.1500026 730.889998,45.5769983 731.317,45.913 C731.744002,46.2490017 732.251497,46.417 732.8395,46.417 C733.441503,46.417 733.962998,46.2350018 734.404,45.871 C734.845002,45.5069982 735.0655,44.9680036 735.0655,44.254 C735.0655,43.8199978 734.974501,43.4560015 734.7925,43.162 C734.610499,42.8679985 734.376001,42.6335009 734.089,42.4585 C733.801998,42.2834991 733.476502,42.1610003 733.1125,42.091 C732.748498,42.0209997 732.384502,41.986 732.0205,41.986 C731.488497,41.986 730.883003,42.0454994 730.204,42.1645 C729.524996,42.2835006 728.919502,42.440999 728.3875,42.637 L728.7445,34.132 L737.8585,34.132 L737.8585,37.156 L731.8735,37.156 L731.7475,39.508 C731.971501,39.4519997 732.219998,39.4135001 732.493,39.3925 C732.766001,39.3714999 733.014499,39.361 733.2385,39.361 C733.980503,39.361 734.680496,39.458999 735.3385,39.655 C735.996503,39.851001 736.566997,40.148498 737.05,40.5475 C737.533002,40.946502 737.914498,41.4399971 738.1945,42.028 C738.474501,42.6160029 738.6145,43.3019961 738.6145,44.086 Z M745.114,49 L745.114,38.08 L742.342,40.222 L740.515,37.723 L745.408,34.132 L748.642,34.132 L748.642,49 L745.114,49 Z M764.3185,44.758 C764.3185,45.5420039 764.164501,46.2244971 763.8565,46.8055 C763.548498,47.3865029 763.139002,47.8694981 762.628,48.2545 C762.116997,48.6395019 761.522003,48.9264991 760.843,49.1155 C760.163996,49.3045009 759.460503,49.399 758.7325,49.399 C757.990496,49.399 757.283503,49.3045009 756.6115,49.1155 C755.939496,48.9264991 755.348002,48.6430019 754.837,48.265 C754.325997,47.8869981 753.916501,47.4075029 753.6085,46.8265 C753.300498,46.2454971 753.1465,45.5630039 753.1465,44.779 C753.1465,44.3309978 753.216499,43.9145019 753.3565,43.5295 C753.4965,43.1444981 753.688998,42.8015015 753.934,42.5005 C754.179001,42.1994985 754.462498,41.9405011 754.7845,41.7235 C755.106501,41.5064989 755.449498,41.3420006 755.8135,41.23 L755.8135,41.188 C755.169496,40.9499988 754.630502,40.5615027 754.1965,40.0225 C753.762497,39.4834973 753.5455,38.8010041 753.5455,37.975 C753.5455,37.2889966 753.685498,36.6800027 753.9655,36.148 C754.245501,35.6159973 754.623497,35.1715018 755.0995,34.8145 C755.575502,34.4574982 756.128497,34.1880009 756.7585,34.006 C757.388503,33.8239991 758.046496,33.733 758.7325,33.733 C759.418503,33.733 760.072997,33.8204991 760.696,33.9955 C761.319003,34.1705009 761.868497,34.4329982 762.3445,34.783 C762.820502,35.1330017 763.201998,35.5704974 763.489,36.0955 C763.776001,36.6205026 763.9195,37.2259966 763.9195,37.912 C763.9195,38.7380041 763.709502,39.4309972 763.2895,39.991 C762.869498,40.5510028 762.323503,40.9429989 761.6515,41.167 L761.6515,41.23 C762.029502,41.3420006 762.379498,41.5064989 762.7015,41.7235 C763.023501,41.9405011 763.303498,42.1994985 763.5415,42.5005 C763.779501,42.8015015 763.968499,43.1444981 764.1085,43.5295 C764.2485,43.9145019 764.3185,44.3239978 764.3185,44.758 Z M760.5175,38.164 C760.5175,37.6739976 760.342501,37.2680016 759.9925,36.946 C759.642498,36.6239984 759.222502,36.463 758.7325,36.463 C758.200497,36.463 757.773501,36.6239984 757.4515,36.946 C757.129498,37.2680016 756.9685,37.6739976 756.9685,38.164 C756.9685,38.6400024 757.125998,39.0529983 757.441,39.403 C757.756001,39.7530017 758.186497,39.928 758.7325,39.928 C759.250502,39.928 759.677498,39.7530017 760.0135,39.403 C760.349501,39.0529983 760.5175,38.6400024 760.5175,38.164 Z M760.7905,44.632 C760.7905,44.0579971 760.598002,43.5785019 760.213,43.1935 C759.827998,42.8084981 759.334503,42.616 758.7325,42.616 C758.116497,42.616 757.616002,42.8049981 757.231,43.183 C756.845998,43.5610019 756.6535,44.0439971 756.6535,44.632 C756.6535,45.234003 756.845998,45.7134982 757.231,46.0705 C757.616002,46.4275018 758.116497,46.606 758.7325,46.606 C759.348503,46.606 759.845498,46.4275018 760.2235,46.0705 C760.601502,45.7134982 760.7905,45.234003 760.7905,44.632 Z M766.156,49 L766.156,46.06 L771.952,40.81 C772.316001,40.4599982 772.609999,40.1030018 772.834,39.739 C773.058001,39.3749982 773.17,38.9690022 773.17,38.521 C773.17,37.9889973 773.002001,37.5585016 772.666,37.2295 C772.329998,36.9004984 771.882002,36.736 771.322,36.736 C770.733997,36.736 770.254501,36.9424979 769.8835,37.3555 C769.512498,37.7685021 769.292,38.3109966 769.222,38.983 L765.841,38.521 C765.925,37.7649962 766.131498,37.0930029 766.4605,36.505 C766.789501,35.9169971 767.205997,35.4165021 767.71,35.0035 C768.214002,34.5904979 768.791496,34.2755011 769.4425,34.0585 C770.093503,33.8414989 770.782996,33.733 771.511,33.733 C772.197003,33.733 772.861996,33.8239991 773.506,34.006 C774.150003,34.1880009 774.723997,34.4679981 775.228,34.846 C775.732002,35.2240019 776.134498,35.6999971 776.4355,36.274 C776.736501,36.8480029 776.887,37.5199961 776.887,38.29 C776.887,38.8220027 776.817,39.3014979 776.677,39.7285 C776.536999,40.1555021 776.344501,40.5509982 776.0995,40.915 C775.854498,41.2790018 775.574501,41.6184984 775.2595,41.9335 C774.944498,42.2485016 774.619001,42.5599985 774.283,42.868 L770.839,45.934 L776.908,45.934 L776.908,49 L766.156,49 Z M636.082,60.198 L636.082,63.264 L641.836,63.264 L641.836,66.225 L636.082,66.225 L636.082,72 L632.533,72 L632.533,57.132 L642.319,57.132 L642.319,60.198 L636.082,60.198 Z M652.7875,72 L651.6325,69.081 L645.8785,69.081 L644.7865,72 L640.8805,72 L647.1175,57.132 L650.6035,57.132 L656.7775,72 L652.7875,72 Z M648.7975,61.101 L646.9075,66.204 L650.6455,66.204 L648.7975,61.101 Z M666.196,72 L662.941,66.75 L659.812,72 L655.528,72 L660.736,64.146 L655.948,57.132 L660.274,57.132 L663.046,61.752 L665.776,57.132 L669.955,57.132 L665.251,64.146 L670.627,72 L666.196,72 Z M675.2155,63.39 C675.2155,63.6700014 675.1595,63.9324988 675.0475,64.1775 C674.935499,64.4225012 674.788501,64.6359991 674.6065,64.818 C674.424499,65.0000009 674.207501,65.1434995 673.9555,65.2485 C673.703499,65.3535005 673.444501,65.406 673.1785,65.406 C672.898499,65.406 672.632501,65.3570005 672.3805,65.259 C672.128499,65.1609995 671.908001,65.0210009 671.719,64.839 C671.529999,64.6569991 671.3795,64.4470012 671.2675,64.209 C671.155499,63.9709988 671.0995,63.7120014 671.0995,63.432 C671.0995,63.1519986 671.155499,62.8895012 671.2675,62.6445 C671.3795,62.3994988 671.529999,62.1860009 671.719,62.004 C671.908001,61.8219991 672.128499,61.6785005 672.3805,61.5735 C672.632501,61.4684995 672.898499,61.416 673.1785,61.416 C673.444501,61.416 673.703499,61.4684995 673.9555,61.5735 C674.207501,61.6785005 674.424499,61.8184991 674.6065,61.9935 C674.788501,62.1685009 674.935499,62.3784988 675.0475,62.6235 C675.1595,62.8685012 675.2155,63.1239987 675.2155,63.39 Z M675.2155,70.131 C675.2155,70.4110014 675.1595,70.6734988 675.0475,70.9185 C674.935499,71.1635012 674.788501,71.3734991 674.6065,71.5485 C674.424499,71.7235009 674.207501,71.8634995 673.9555,71.9685 C673.703499,72.0735005 673.444501,72.126 673.1785,72.126 C672.898499,72.126 672.632501,72.0770005 672.3805,71.979 C672.128499,71.8809995 671.908001,71.7410009 671.719,71.559 C671.529999,71.3769991 671.3795,71.1670012 671.2675,70.929 C671.155499,70.6909988 671.0995,70.4320014 671.0995,70.152 C671.0995,69.8719986 671.155499,69.6095012 671.2675,69.3645 C671.3795,69.1194988 671.529999,68.9060009 671.719,68.724 C671.908001,68.5419991 672.128499,68.3985005 672.3805,68.2935 C672.632501,68.1884995 672.898499,68.136 673.1785,68.136 C673.444501,68.136 673.703499,68.1884995 673.9555,68.2935 C674.207501,68.3985005 674.424499,68.5384991 674.6065,68.7135 C674.788501,68.8885009 674.935499,69.0984988 675.0475,69.3435 C675.1595,69.5885012 675.2155,69.8509986 675.2155,70.131 Z M681.7465,72 L681.7465,69.06 L687.5425,63.81 C687.906502,63.4599982 688.200499,63.1030018 688.4245,62.739 C688.648501,62.3749982 688.7605,61.9690022 688.7605,61.521 C688.7605,60.9889973 688.592502,60.5585016 688.2565,60.2295 C687.920498,59.9004984 687.472503,59.736 686.9125,59.736 C686.324497,59.736 685.845002,59.9424979 685.474,60.3555 C685.102998,60.7685021 684.8825,61.3109966 684.8125,61.983 L681.4315,61.521 C681.5155,60.7649962 681.721998,60.0930029 682.051,59.505 C682.380001,58.9169971 682.796497,58.4165021 683.3005,58.0035 C683.804502,57.5904979 684.381997,57.2755011 685.033,57.0585 C685.684003,56.8414989 686.373496,56.733 687.1015,56.733 C687.787503,56.733 688.452497,56.8239991 689.0965,57.006 C689.740503,57.1880009 690.314497,57.4679981 690.8185,57.846 C691.322502,58.2240019 691.724998,58.6999971 692.026,59.274 C692.327001,59.8480029 692.4775,60.5199961 692.4775,61.29 C692.4775,61.8220027 692.407501,62.3014979 692.2675,62.7285 C692.127499,63.1555021 691.935001,63.5509982 691.69,63.915 C691.444999,64.2790018 691.165001,64.6184984 690.85,64.9335 C690.534998,65.2485016 690.209502,65.5599985 689.8735,65.868 L686.4295,68.934 L692.4985,68.934 L692.4985,72 L681.7465,72 Z M703.912,69.102 L703.912,72 L700.615,72 L700.615,69.102 L693.622,69.102 L693.622,66.141 L699.67,57.132 L703.891,57.132 L703.891,66.246 L705.949,66.246 L705.949,69.102 L703.912,69.102 Z M700.636,60.744 L700.573,60.744 L697.045,66.246 L700.636,66.246 L700.636,60.744 Z M718.0975,67.086 C718.0975,67.9960045 717.936501,68.7834967 717.6145,69.4485 C717.292498,70.1135033 716.862002,70.6629978 716.323,71.097 C715.783997,71.5310022 715.171503,71.8564989 714.4855,72.0735 C713.799496,72.2905011 713.092503,72.399 712.3645,72.399 C711.692496,72.399 711.052003,72.3115009 710.443,72.1365 C709.833997,71.9614991 709.281002,71.7130016 708.784,71.391 C708.286997,71.0689984 707.860002,70.6735023 707.503,70.2045 C707.145998,69.7354977 706.883501,69.2070029 706.7155,68.619 L709.9285,67.632 C710.082501,68.1500026 710.372998,68.5769983 710.8,68.913 C711.227002,69.2490017 711.734497,69.417 712.3225,69.417 C712.924503,69.417 713.445998,69.2350018 713.887,68.871 C714.328002,68.5069982 714.5485,67.9680036 714.5485,67.254 C714.5485,66.8199978 714.457501,66.4560015 714.2755,66.162 C714.093499,65.8679985 713.859001,65.6335009 713.572,65.4585 C713.284998,65.2834991 712.959502,65.1610003 712.5955,65.091 C712.231498,65.0209996 711.867502,64.986 711.5035,64.986 C710.971497,64.986 710.366003,65.0454994 709.687,65.1645 C709.007996,65.2835006 708.402502,65.440999 707.8705,65.637 L708.2275,57.132 L717.3415,57.132 L717.3415,60.156 L711.3565,60.156 L711.2305,62.508 C711.454501,62.4519997 711.702998,62.4135001 711.976,62.3925 C712.249001,62.3714999 712.497499,62.361 712.7215,62.361 C713.463503,62.361 714.163496,62.458999 714.8215,62.655 C715.479503,62.851001 716.049997,63.148498 716.533,63.5475 C717.016002,63.946502 717.397498,64.4399971 717.6775,65.028 C717.957501,65.6160029 718.0975,66.3019961 718.0975,67.086 Z M731.254,64.524 C731.254,65.5740052 731.149001,66.5749952 730.939,67.527 C730.728999,68.4790048 730.393002,69.3154964 729.931,70.0365 C729.468997,70.7575036 728.870503,71.3314979 728.1355,71.7585 C727.400496,72.1855021 726.508005,72.399 725.458,72.399 C724.407994,72.399 723.512003,72.1855021 722.77,71.7585 C722.027996,71.3314979 721.422502,70.7575036 720.9535,70.0365 C720.484497,69.3154964 720.145001,68.4790048 719.935,67.527 C719.724999,66.5749952 719.62,65.5740052 719.62,64.524 C719.62,63.4739948 719.724999,62.4765047 719.935,61.5315 C720.145001,60.5864953 720.484497,59.7605035 720.9535,59.0535 C721.422502,58.3464965 722.027996,57.7830021 722.77,57.363 C723.512003,56.9429979 724.407994,56.733 725.458,56.733 C726.508005,56.733 727.400496,56.9429979 728.1355,57.363 C728.870503,57.7830021 729.468997,58.3464965 729.931,59.0535 C730.393002,59.7605035 730.728999,60.5864953 730.939,61.5315 C731.149001,62.4765047 731.254,63.4739948 731.254,64.524 Z M727.642,64.524 C727.642,64.0619977 727.614,63.5510028 727.558,62.991 C727.501999,62.4309972 727.397001,61.9095024 727.243,61.4265 C727.088999,60.9434976 726.868501,60.5375016 726.5815,60.2085 C726.294498,59.8794984 725.920002,59.715 725.458,59.715 C724.995997,59.715 724.618001,59.8794984 724.324,60.2085 C724.029998,60.5375016 723.802501,60.9434976 723.6415,61.4265 C723.480499,61.9095024 723.372,62.4309972 723.316,62.991 C723.259999,63.5510028 723.232,64.0619977 723.232,64.524 C723.232,65.0000024 723.259999,65.5214972 723.316,66.0885 C723.372,66.6555028 723.480499,67.1804976 723.6415,67.6635 C723.802501,68.1465024 724.029998,68.5524984 724.324,68.8815 C724.618001,69.2105016 724.995997,69.375 725.458,69.375 C725.920002,69.375 726.294498,69.2105016 726.5815,68.8815 C726.868501,68.5524984 727.088999,68.1465024 727.243,67.6635 C727.397001,67.1804976 727.501999,66.6555028 727.558,66.0885 C727.614,65.5214972 727.642,65.0000024 727.642,64.524 Z M743.6545,67.086 C743.6545,67.9960045 743.493501,68.7834967 743.1715,69.4485 C742.849498,70.1135033 742.419002,70.6629978 741.88,71.097 C741.340997,71.5310022 740.728503,71.8564989 740.0425,72.0735 C739.356496,72.2905011 738.649503,72.399 737.9215,72.399 C737.249496,72.399 736.609003,72.3115009 736,72.1365 C735.390997,71.9614991 734.838002,71.7130016 734.341,71.391 C733.843997,71.0689984 733.417002,70.6735023 733.06,70.2045 C732.702998,69.7354977 732.440501,69.2070029 732.2725,68.619 L735.4855,67.632 C735.6395,68.1500026 735.929998,68.5769983 736.357,68.913 C736.784002,69.2490017 737.291497,69.417 737.8795,69.417 C738.481503,69.417 739.002998,69.2350018 739.444,68.871 C739.885002,68.5069982 740.1055,67.9680036 740.1055,67.254 C740.1055,66.8199978 740.014501,66.4560015 739.8325,66.162 C739.650499,65.8679985 739.416001,65.6335009 739.129,65.4585 C738.841998,65.2834991 738.516502,65.1610003 738.1525,65.091 C737.788498,65.0209996 737.424502,64.986 737.0605,64.986 C736.528497,64.986 735.923003,65.0454994 735.244,65.1645 C734.564996,65.2835006 733.959502,65.440999 733.4275,65.637 L733.7845,57.132 L742.8985,57.132 L742.8985,60.156 L736.9135,60.156 L736.7875,62.508 C737.011501,62.4519997 737.259998,62.4135001 737.533,62.3925 C737.806001,62.3714999 738.054499,62.361 738.2785,62.361 C739.020503,62.361 739.720496,62.458999 740.3785,62.655 C741.036503,62.851001 741.606997,63.148498 742.09,63.5475 C742.573002,63.946502 742.954498,64.4399971 743.2345,65.028 C743.514501,65.6160029 743.6545,66.3019961 743.6545,67.086 Z M750.154,72 L750.154,61.08 L747.382,63.222 L745.555,60.723 L750.448,57.132 L753.682,57.132 L753.682,72 L750.154,72 Z M769.2115,67.086 C769.2115,67.9960045 769.050501,68.7834967 768.7285,69.4485 C768.406498,70.1135033 767.976002,70.6629978 767.437,71.097 C766.897997,71.5310022 766.285503,71.8564989 765.5995,72.0735 C764.913496,72.2905011 764.206503,72.399 763.4785,72.399 C762.806496,72.399 762.166003,72.3115009 761.557,72.1365 C760.947997,71.9614991 760.395002,71.7130016 759.898,71.391 C759.400997,71.0689984 758.974001,70.6735023 758.617,70.2045 C758.259998,69.7354977 757.9975,69.2070029 757.8295,68.619 L761.0425,67.632 C761.1965,68.1500026 761.486998,68.5769983 761.914,68.913 C762.341002,69.2490017 762.848497,69.417 763.4365,69.417 C764.038503,69.417 764.559997,69.2350018 765.001,68.871 C765.442002,68.5069982 765.6625,67.9680036 765.6625,67.254 C765.6625,66.8199978 765.571501,66.4560015 765.3895,66.162 C765.207499,65.8679985 764.973001,65.6335009 764.686,65.4585 C764.398998,65.2834991 764.073501,65.1610003 763.7095,65.091 C763.345498,65.0209996 762.981501,64.986 762.6175,64.986 C762.085497,64.986 761.480003,65.0454994 760.801,65.1645 C760.121996,65.2835006 759.516502,65.440999 758.9845,65.637 L759.3415,57.132 L768.4555,57.132 L768.4555,60.156 L762.4705,60.156 L762.3445,62.508 C762.568501,62.4519997 762.816998,62.4135001 763.09,62.3925 C763.363001,62.3714999 763.611499,62.361 763.8355,62.361 C764.577503,62.361 765.277496,62.458999 765.9355,62.655 C766.593503,62.851001 767.163997,63.148498 767.647,63.5475 C768.130002,63.946502 768.511498,64.4399971 768.7915,65.028 C769.071501,65.6160029 769.2115,66.3019961 769.2115,67.086 Z M775.711,72 L775.711,61.08 L772.939,63.222 L771.112,60.723 L776.005,57.132 L779.239,57.132 L779.239,72 L775.711,72 Z" id="TEL:24505182FAX:24505151"></path>
        </g>
    </g>
</svg>