<?xml version="1.0" encoding="UTF-8"?>
<svg width="166px" height="75px" viewBox="0 0 166 75" version="1.1" xmlns="http://www.w3.org/2000/svg" xmlns:xlink="http://www.w3.org/1999/xlink">
    <!-- Generator: Sketch 59.1 (86144) - https://sketch.com -->
    <title>Group 28</title>
    <desc>Created with Sketch.</desc>
    <defs>
        <linearGradient x1="100%" y1="100%" x2="100%" y2="0%" id="linearGradient-1">
            <stop stop-color="#20B038" offset="0%"></stop>
            <stop stop-color="#60D66A" offset="100%"></stop>
        </linearGradient>
    </defs>
    <g id="Amazon-Browser" stroke="none" stroke-width="1" fill="none" fill-rule="evenodd">
        <g id="Group-28" fill-rule="nonzero">
            <g id="whatsAppLogotype">
                <rect id="Rectangle" fill="url(#linearGradient-1)" x="0" y="0.330935252" width="166" height="74" rx="23.1"></rect>
                <path d="M42.1979842,25.8019557 C39.1264716,22.7152552 34.9387184,20.9852916 30.5742654,21.0000942 C21.5184711,21.0000942 14.1418364,28.3434643 14.1338295,37.3583046 C14.1338295,40.2448298 14.8910526,43.0539256 16.3242862,45.5407781 L14,54.0215827 L22.7160733,51.7465226 C25.1273698,53.0531754 27.8288621,53.7382164 30.5742654,53.7391929 L30.5822723,53.7391929 C39.6369227,53.7391929 47.0135575,46.3947796 47.0215736,37.3731073 C47.0261861,33.0304318 45.2899518,28.8654279 42.1979842,25.8019557 Z M30.5742654,50.9699505 C28.1150059,50.9699505 25.7106507,50.3106614 23.6151328,49.0706511 L23.1187056,48.7734586 L17.9485413,50.122781 L19.3280144,45.1012519 L19.0043072,44.5831577 C17.6355437,42.4171125 16.9113533,39.9093062 16.9156333,37.3503339 C16.9156333,29.8658644 23.0466435,23.7614381 30.5822723,23.7614381 C34.2078248,23.7547782 37.6859878,25.1894315 40.2443026,27.7468019 C42.8111076,30.2943571 44.2494645,33.7569549 44.2397905,37.3651366 C44.2317346,44.8735182 38.1007434,50.9699505 30.5742654,50.9699505 Z M38.0687158,40.7868361 C37.6592205,40.5818757 35.6414839,39.5935113 35.2628723,39.4523164 C34.8854045,39.3190921 34.6085949,39.2484947 34.3409359,39.6572767 C34.0652701,40.0649201 33.2771632,40.9895192 33.040388,41.2571063 C32.8036128,41.5315255 32.5599745,41.5634082 32.1504792,41.3595865 C31.73984,41.1546261 30.4164152,40.7242093 28.8482084,39.3270628 C27.6265855,38.2453275 26.806451,36.9028371 26.5628128,36.4951937 C26.3260375,36.0875503 26.5387921,35.8666486 26.7435397,35.6639655 C26.9254106,35.4817785 27.153035,35.1857247 27.3589265,34.9488816 C27.5636742,34.7143158 27.6334485,34.5412382 27.7684218,34.266819 C27.9022513,33.9923998 27.83934,33.7566954 27.7363943,33.5528737 C27.6334485,33.3479133 26.8144579,31.3324697 26.4678739,30.5171829 C26.1361598,29.7166988 25.7975827,29.826011 25.5459375,29.8180403 C25.3091623,29.8032376 25.0334965,29.8032376 24.7566868,29.8032376 C24.4821648,29.8032376 24.0406419,29.9057178 23.6620304,30.3122225 C23.2845626,30.7210046 22.2276529,31.709369 22.2276529,33.7259513 C22.2276529,35.741395 23.7020648,37.6794092 23.9068125,37.9538283 C24.1115601,38.2282475 26.7984441,42.3559216 30.9208494,44.1288288 C31.8976902,44.5524136 32.6629202,44.8029207 33.2611494,44.9919397 C34.2459971,45.3050736 35.1370497,45.2583882 35.8462315,45.155908 C36.6343384,45.0386251 38.2734635,44.1675436 38.6200475,43.2110618 C38.9597685,42.2534414 38.9597685,41.437016 38.8568227,41.2639383 C38.753877,41.093138 38.479355,40.9906578 38.0687158,40.7856975 L38.0687158,40.7868361 Z" id="Shape" fill="#FFFFFF"></path>
            </g>
            <path d="M65.95,21.29 L62.515,21.29 C62.335,20.66 62.14,20.075 61.945,19.55 L60.49,19.79 C60.715,20.24 60.91,20.75 61.09,21.29 L57.805,21.29 L57.805,24.47 L59.155,24.47 L59.155,22.595 L64.585,22.595 L64.585,24.41 L65.95,24.41 L65.95,21.29 Z M60.46,23.36 C60.28,24.14 60.07,24.89 59.845,25.625 L57.49,25.625 L57.49,26.99 L59.365,26.99 C59.05,27.785 58.705,28.55 58.33,29.27 L59.41816,29.85776 C59.9488,30.149 60.46,30.437 60.955,30.725 C59.98,31.385 58.6,31.91 56.83,32.3 L57.4,33.65 C59.62,33.11 61.27,32.405 62.32,31.52 C63.595,32.27 64.66,32.96 65.5,33.59 L66.46,32.465 L65.93608,32.11244 C65.1988,31.6286 64.306,31.091 63.25,30.515 C63.97,29.555 64.45,28.385 64.69,26.99 L66.385,26.99 L66.385,25.625 L61.285,25.625 C61.48,24.98 61.675,24.26 61.87,23.48 L60.46,23.36 Z M63.325,26.99 C63.085,28.13 62.635,29.075 61.99,29.825 C61.375,29.495 60.715,29.165 60.01,28.82 C60.28,28.31 60.55,27.695 60.82,26.99 L63.325,26.99 Z M54.4,33.41 C55.36,33.41 55.84,32.915 55.84,31.94 L55.84,27.8 C56.245,27.62 56.665,27.41 57.085,27.2 L57.085,25.76 L56.2561111,26.1755556 C56.1183333,26.2433333 55.98,26.31 55.84,26.375 L55.84,23.825 L57.13,23.825 L57.13,22.46 L55.84,22.46 L55.84,19.745 L54.4,19.745 L54.4,22.46 L52.765,22.46 L52.765,23.825 L54.4,23.825 L54.4,26.96 C53.755,27.185 53.11,27.365 52.45,27.515 L52.81,28.94 C53.335,28.775 53.86,28.595 54.4,28.4 L54.4,31.58 C54.4,31.925 54.235,32.105 53.905,32.105 C53.545,32.105 53.185,32.075 52.81,32.03 L53.125,33.41 L54.4,33.41 Z M71.5425,20.135 L71.5425,30.875 L70.5136111,31.0894444 C70.3391667,31.1266667 70.1625,31.165 69.9825,31.205 L69.9825,22.655 L68.5875,22.655 L68.5875,31.445 L67.7986111,31.5761111 C67.6641667,31.5983333 67.5275,31.62 67.3875,31.64 L67.5825,33.095 C70.4025,32.645 72.9075,32.06 75.1125,31.34 L75.1125,29.9 C74.4225,30.125 73.7025,30.335 72.9375,30.53 L72.9375,25.79 L75.0825,25.79 L75.0825,24.41 L72.9375,24.41 L72.9375,20.135 L71.5425,20.135 Z M80.4825,22.445 C79.4625,23.33 78.3525,24.065 77.1225,24.65 L77.1225,19.88 L75.6825,19.88 L75.6825,31.295 C75.6825,32.45 76.2375,33.035 77.3625,33.035 L79.0725,33.035 C79.7625,33.035 80.2725,32.855 80.6025,32.525 C80.9625,32.135 81.2025,30.98 81.3525,29.06 L80.0025,28.625 L79.9715625,29.1488281 C79.8928125,30.3071094 79.768125,31.0175 79.5975,31.28 C79.4175,31.535 79.1625,31.67 78.8025,31.67 L77.8275,31.67 C77.3475,31.67 77.1225,31.445 77.1225,30.995 L77.1225,26.06 C78.6975,25.4 80.0925,24.575 81.3225,23.615 L80.4825,22.445 Z M81.95,21.29 L85.025,32 L86.78,32 L88.955,23.735 L89.015,23.735 L91.19,32 L92.93,32 L96.02,21.29 L94.175,21.29 L92.09,29.63 L92.03,29.63 L89.84,21.29 L88.13,21.29 L85.94,29.63 L85.88,29.63 L83.795,21.29 L81.95,21.29 Z M96.9325,21.08 L96.9325,32 L98.5225,32 L98.5225,27.65 C98.5225,26.975 98.6875,26.42 99.0325,25.985 C99.3625,25.55 99.7975,25.34 100.3375,25.34 C100.9375,25.34 101.4025,25.52 101.7025,25.895 C101.9725,26.255 102.1225,26.765 102.1225,27.455 L102.1225,32 L103.7125,32 L103.7125,27.185 C103.7125,26.165 103.4875,25.385 103.0375,24.86 C102.5575,24.305 101.8525,24.035 100.9225,24.035 C100.4275,24.035 99.9925,24.125 99.6025,24.335 C99.1675,24.545 98.8075,24.89 98.5225,25.34 L98.5225,21.08 L96.9325,21.08 Z M108.945,24.035 C107.985,24.035 107.205,24.2 106.635,24.56 C105.975,24.95 105.555,25.58 105.39,26.42 L106.965,26.555 C107.055,26.12 107.28,25.805 107.64,25.595 C107.94,25.415 108.345,25.325 108.84,25.325 C110.01,25.325 110.595,25.865 110.595,26.945 L110.595,27.26 L108.855,27.305 C107.715,27.335 106.815,27.56 106.185,28.01 C105.495,28.475 105.15,29.15 105.15,30.02 C105.15,30.665 105.39,31.19 105.885,31.595 C106.335,32 106.965,32.21 107.775,32.21 C108.465,32.21 109.065,32.075 109.575,31.835 C110.025,31.61 110.4,31.295 110.7,30.905 L110.7,32 L112.17,32 L112.17,27.05 C112.17,26.105 111.93,25.385 111.465,24.89 C110.925,24.32 110.085,24.035 108.945,24.035 Z M110.595,28.415 L110.595,28.865 C110.595,29.465 110.34,29.975 109.86,30.38 C109.38,30.785 108.81,30.995 108.135,30.995 C107.73,30.995 107.4,30.89 107.16,30.695 C106.905,30.5 106.785,30.26 106.785,29.96 C106.785,29 107.505,28.49 108.96,28.46 L110.595,28.415 Z M116.2775,21.74 L114.6875,22.4 L114.6875,24.245 L113.2475,24.245 L113.2475,25.565 L114.6875,25.565 L114.6875,30.065 C114.6875,30.68 114.8225,31.145 115.1225,31.475 C115.4225,31.82 115.9175,32 116.5775,32 L117.8525,32 L117.8525,30.68 L116.8325,30.68 C116.6375,30.68 116.5025,30.62 116.4125,30.53 C116.3225,30.425 116.2775,30.275 116.2775,30.065 L116.2775,25.565 L118.0475,25.565 L118.0475,24.245 L116.2775,24.245 L116.2775,21.74 Z M122.155,24.035 C121.225,24.035 120.46,24.23 119.875,24.635 C119.29,25.025 119.005,25.58 119.005,26.285 C119.005,26.945 119.305,27.47 119.905,27.845 C120.229,28.061 120.78385,28.26485 121.558615,28.45655 L122.26948,28.6244 C122.8186,28.7588 123.193,28.874 123.385,28.97 C123.835,29.18 124.075,29.48 124.075,29.855 C124.075,30.545 123.445,30.905 122.215,30.905 C121.615,30.905 121.195,30.8 120.925,30.605 C120.655,30.395 120.46,30.02 120.37,29.495 L118.81,29.495 C118.99,31.295 120.13,32.21 122.26,32.21 C124.555,32.21 125.71,31.385 125.71,29.75 C125.71,29.06 125.395,28.52 124.78,28.13 C124.406667,27.89 123.843704,27.6618519 123.101646,27.4666255 L122.37916,27.28328 C121.8406,27.1412 121.471,27.026 121.255,26.93 C120.835,26.735 120.625,26.51 120.625,26.24 C120.625,25.94 120.76,25.7 121.045,25.55 C121.285,25.4 121.645,25.34 122.125,25.34 C122.665,25.34 123.085,25.43 123.355,25.61 C123.61,25.775 123.79,26.06 123.91,26.48 L125.455,26.48 C125.275,24.845 124.165,24.035 122.155,24.035 Z M130.4925,24.035 C129.5325,24.035 128.7525,24.2 128.1825,24.56 C127.5225,24.95 127.1025,25.58 126.9375,26.42 L128.5125,26.555 C128.6025,26.12 128.8275,25.805 129.1875,25.595 C129.4875,25.415 129.8925,25.325 130.3875,25.325 C131.5575,25.325 132.1425,25.865 132.1425,26.945 L132.1425,27.26 L130.4025,27.305 C129.2625,27.335 128.3625,27.56 127.7325,28.01 C127.0425,28.475 126.6975,29.15 126.6975,30.02 C126.6975,30.665 126.9375,31.19 127.4325,31.595 C127.8825,32 128.5125,32.21 129.3225,32.21 C130.0125,32.21 130.6125,32.075 131.1225,31.835 C131.5725,31.61 131.9475,31.295 132.2475,30.905 L132.2475,32 L133.7175,32 L133.7175,27.05 C133.7175,26.105 133.4775,25.385 133.0125,24.89 C132.4725,24.32 131.6325,24.035 130.4925,24.035 Z M132.1425,28.415 L132.1425,28.865 C132.1425,29.465 131.8875,29.975 131.4075,30.38 C130.9275,30.785 130.3575,30.995 129.6825,30.995 C129.2775,30.995 128.9475,30.89 128.7075,30.695 C128.4525,30.5 128.3325,30.26 128.3325,29.96 C128.3325,29 129.0525,28.49 130.5075,28.46 L132.1425,28.415 Z M139.355,24.035 C138.305,24.035 137.495,24.41 136.955,25.175 L136.955,24.245 L135.47,24.245 L135.47,34.97 L137.06,34.97 L137.06,30.86 C137.69,31.76 138.47,32.21 139.43,32.21 C140.54,32.21 141.425,31.805 142.055,30.995 C142.64,30.245 142.94,29.3 142.94,28.16 C142.94,26.96 142.64,26 142.04,25.25 C141.38,24.44 140.495,24.035 139.355,24.035 Z M139.115,25.325 C139.895,25.325 140.465,25.595 140.84,26.165 C141.14,26.645 141.305,27.305 141.305,28.16 C141.305,29.015 141.125,29.675 140.795,30.155 C140.42,30.665 139.85,30.92 139.07,30.92 C138.47,30.92 137.99,30.68 137.63,30.215 C137.21,29.705 137.015,29.03 137.015,28.205 L137.015,28.07 C137.015,27.275 137.18,26.63 137.51,26.15 C137.885,25.595 138.425,25.325 139.115,25.325 Z M148.2625,24.035 C147.2125,24.035 146.4025,24.41 145.8625,25.175 L145.8625,24.245 L144.3775,24.245 L144.3775,34.97 L145.9675,34.97 L145.9675,30.86 C146.5975,31.76 147.3775,32.21 148.3375,32.21 C149.4475,32.21 150.3325,31.805 150.9625,30.995 C151.5475,30.245 151.8475,29.3 151.8475,28.16 C151.8475,26.96 151.5475,26 150.9475,25.25 C150.2875,24.44 149.4025,24.035 148.2625,24.035 Z M148.0225,25.325 C148.8025,25.325 149.3725,25.595 149.7475,26.165 C150.0475,26.645 150.2125,27.305 150.2125,28.16 C150.2125,29.015 150.0325,29.675 149.7025,30.155 C149.3275,30.665 148.7575,30.92 147.9775,30.92 C147.3775,30.92 146.8975,30.68 146.5375,30.215 C146.1175,29.705 145.9225,29.03 145.9225,28.205 L145.9225,28.07 C145.9225,27.275 146.0875,26.63 146.4175,26.15 C146.7925,25.595 147.3325,25.325 148.0225,25.325 Z M56.65,42.08 C55.42,42.08 54.43,42.62 53.71,43.715 C52.99,44.795 52.645,46.205 52.645,47.945 C52.645,49.58 52.975,50.855 53.635,51.77 C54.325,52.73 55.315,53.21 56.635,53.21 C57.685,53.21 58.585,52.85 59.305,52.16 C60.01,51.47 60.37,50.585 60.37,49.52 C60.37,48.47 60.055,47.6 59.44,46.925 C58.81,46.265 57.97,45.935 56.92,45.935 C56.35,45.935 55.855,46.04 55.435,46.265 C54.97,46.49 54.595,46.835 54.295,47.315 L54.235,47.315 C54.225,47.255 54.2216667,47.2083333 54.2205556,47.1705556 L54.22,47.12 C54.22,46.07 54.43,45.215 54.865,44.525 C55.3,43.79 55.885,43.43 56.635,43.43 C57.715,43.43 58.36,43.94 58.585,44.99 L60.175,44.99 C59.905,43.04 58.72,42.08 56.65,42.08 Z M56.59,47.255 C57.25,47.255 57.79,47.465 58.18,47.885 C58.57,48.275 58.765,48.83 58.765,49.52 C58.765,50.195 58.555,50.75 58.15,51.2 C57.76,51.635 57.235,51.86 56.575,51.86 C55.93,51.86 55.405,51.65 55.015,51.23 C54.61,50.81 54.415,50.255 54.415,49.565 C54.415,48.86 54.61,48.305 55,47.885 C55.39,47.465 55.915,47.255 56.59,47.255 Z M61.4025,42.29 L61.4025,43.775 L66.9525,43.775 L63.0675,53 L64.8075,53 L68.6025,43.61 L68.6025,42.29 L61.4025,42.29 Z M73.745,42.08 C72.695,42.08 71.84,42.365 71.18,42.965 C70.475,43.565 70.085,44.39 69.995,45.455 L71.6,45.455 C71.66,44.795 71.885,44.3 72.245,43.97 C72.605,43.64 73.115,43.475 73.76,43.475 C74.39,43.475 74.885,43.61 75.215,43.91 C75.515,44.195 75.68,44.6 75.68,45.14 C75.68,45.68 75.5,46.1 75.17,46.385 C74.84,46.67 74.345,46.82 73.685,46.82 L72.92,46.82 L72.92,48.05 L73.7,48.05 C74.405,48.05 74.945,48.2 75.305,48.5 C75.695,48.8 75.89,49.265 75.89,49.895 C75.89,50.435 75.695,50.87 75.335,51.23 C74.915,51.62 74.36,51.83 73.67,51.83 C73.04,51.83 72.53,51.65 72.14,51.29 C71.69,50.9 71.465,50.345 71.435,49.625 L69.785,49.625 C69.875,50.825 70.295,51.74 71.045,52.37 C71.705,52.925 72.59,53.21 73.685,53.21 C74.825,53.21 75.77,52.88 76.49,52.25 C77.165,51.62 77.51,50.81 77.51,49.82 C77.51,49.19 77.33,48.665 76.97,48.26 C76.64,47.87 76.16,47.57 75.53,47.375 C76.7,46.985 77.3,46.19 77.3,45.02 C77.3,44.105 76.97,43.385 76.34,42.86 C75.68,42.335 74.825,42.08 73.745,42.08 Z M79.5025,42.29 L78.9175,48.29 L80.4475,48.29 C80.6575,47.9 80.9425,47.615 81.3325,47.435 C81.6925,47.255 82.0975,47.18 82.5775,47.18 C83.2975,47.18 83.8375,47.39 84.2275,47.81 C84.6175,48.23 84.8125,48.815 84.8125,49.565 C84.8125,50.255 84.5875,50.795 84.1375,51.215 C83.6875,51.62 83.1325,51.83 82.4725,51.83 C81.8725,51.83 81.3925,51.695 81.0325,51.425 C80.6275,51.125 80.3875,50.66 80.3275,50.06 L78.7225,50.06 C78.7975,51.05 79.2175,51.845 79.9825,52.415 C80.6725,52.94 81.4975,53.21 82.4575,53.21 C83.5225,53.21 84.4375,52.895 85.2025,52.265 C86.0125,51.56 86.4325,50.66 86.4325,49.55 C86.4325,48.395 86.1025,47.495 85.4725,46.835 C84.8425,46.175 84.0175,45.845 83.0125,45.845 C82.6125,45.845 82.2333333,45.8970833 81.8923611,46.0099306 L81.6925,46.085 C81.2575,46.235 80.8825,46.475 80.5525,46.82 L80.5075,46.82 L80.8225,43.73 L85.9525,43.73 L85.9525,42.29 L79.5025,42.29 Z M91.665,42.08 C90.435,42.08 89.445,42.62 88.725,43.715 C88.005,44.795 87.66,46.205 87.66,47.945 C87.66,49.58 87.99,50.855 88.65,51.77 C89.34,52.73 90.33,53.21 91.65,53.21 C92.7,53.21 93.6,52.85 94.32,52.16 C95.025,51.47 95.385,50.585 95.385,49.52 C95.385,48.47 95.07,47.6 94.455,46.925 C93.825,46.265 92.985,45.935 91.935,45.935 C91.365,45.935 90.87,46.04 90.45,46.265 C89.985,46.49 89.61,46.835 89.31,47.315 L89.25,47.315 C89.24,47.255 89.2366667,47.2083333 89.2355556,47.1705556 L89.235,47.12 C89.235,46.07 89.445,45.215 89.88,44.525 C90.315,43.79 90.9,43.43 91.65,43.43 C92.73,43.43 93.375,43.94 93.6,44.99 L95.19,44.99 C94.92,43.04 93.735,42.08 91.665,42.08 Z M91.605,47.255 C92.265,47.255 92.805,47.465 93.195,47.885 C93.585,48.275 93.78,48.83 93.78,49.52 C93.78,50.195 93.57,50.75 93.165,51.2 C92.775,51.635 92.25,51.86 91.59,51.86 C90.945,51.86 90.42,51.65 90.03,51.23 C89.625,50.81 89.43,50.255 89.43,49.565 C89.43,48.86 89.625,48.305 90.015,47.885 C90.405,47.465 90.93,47.255 91.605,47.255 Z M100.6175,42.08 C99.4775,42.08 98.5475,42.455 97.8575,43.235 C97.1825,43.955 96.8375,44.915 96.8225,46.115 L98.4575,46.115 C98.4875,45.245 98.6675,44.6 99.0275,44.15 C99.3725,43.685 99.8825,43.46 100.5575,43.46 C101.1875,43.46 101.6825,43.61 102.0125,43.91 C102.3425,44.21 102.5075,44.66 102.5075,45.26 C102.5075,45.89 102.2525,46.475 101.7725,47.015 C101.4725,47.33 100.9625,47.735 100.2425,48.245 L99.7466254,48.593105 C98.8046429,49.2656122 98.1617857,49.7964286 97.8275,50.195 C97.1075,51.005 96.7625,51.935 96.7625,53 L104.1425,53 L104.1425,51.56 L98.7875,51.56 C98.9964286,51.0167857 99.606301,50.3959694 100.617117,49.697551 L100.8575,49.535 C101.9225,48.815 102.6575,48.245 103.0775,47.81 C103.7675,47.045 104.1275,46.205 104.1275,45.275 C104.1275,44.33 103.7975,43.565 103.1525,42.965 C102.4925,42.365 101.6375,42.08 100.6175,42.08 Z M105.355,42.29 L105.355,43.775 L110.905,43.775 L107.02,53 L108.76,53 L112.555,43.61 L112.555,42.29 L105.355,42.29 Z M117.6975,42.08 C116.6475,42.08 115.7925,42.365 115.1325,42.965 C114.4275,43.565 114.0375,44.39 113.9475,45.455 L115.5525,45.455 C115.6125,44.795 115.8375,44.3 116.1975,43.97 C116.5575,43.64 117.0675,43.475 117.7125,43.475 C118.3425,43.475 118.8375,43.61 119.1675,43.91 C119.4675,44.195 119.6325,44.6 119.6325,45.14 C119.6325,45.68 119.4525,46.1 119.1225,46.385 C118.7925,46.67 118.2975,46.82 117.6375,46.82 L116.8725,46.82 L116.8725,48.05 L117.6525,48.05 C118.3575,48.05 118.8975,48.2 119.2575,48.5 C119.6475,48.8 119.8425,49.265 119.8425,49.895 C119.8425,50.435 119.6475,50.87 119.2875,51.23 C118.8675,51.62 118.3125,51.83 117.6225,51.83 C116.9925,51.83 116.4825,51.65 116.0925,51.29 C115.6425,50.9 115.4175,50.345 115.3875,49.625 L113.7375,49.625 C113.8275,50.825 114.2475,51.74 114.9975,52.37 C115.6575,52.925 116.5425,53.21 117.6375,53.21 C118.7775,53.21 119.7225,52.88 120.4425,52.25 C121.1175,51.62 121.4625,50.81 121.4625,49.82 C121.4625,49.19 121.2825,48.665 120.9225,48.26 C120.5925,47.87 120.1125,47.57 119.4825,47.375 C120.6525,46.985 121.2525,46.19 121.2525,45.02 C121.2525,44.105 120.9225,43.385 120.2925,42.86 C119.6325,42.335 118.7775,42.08 117.6975,42.08 Z M122.81,41.39 L122.81,42.785 L128.42,42.785 L128.42,54.545 L129.845,54.545 L129.845,46.265 L130.404286,46.5597522 C131.561429,47.1858163 132.95,48.0307143 134.57,49.085 L135.425,47.795 C133.535,46.655 131.675,45.635 129.845,44.75 L129.845,42.785 L136.235,42.785 L136.235,41.39 L122.81,41.39 Z M138.5575,41.15 L138.5575,44.435 L143.9575,44.435 L143.9575,41.15 L138.5575,41.15 Z M142.5625,43.4 L139.9375,43.4 L139.9375,42.185 L142.5625,42.185 L142.5625,43.4 Z M144.9625,41.15 L144.9625,44.435 L150.3625,44.435 L150.3625,41.15 L144.9625,41.15 Z M148.9825,43.46 L146.3575,43.46 L146.3575,42.155 L148.9825,42.155 L148.9825,43.46 Z M139.1125,45.17 L139.1125,50.36 L143.7475,50.36 L143.7475,51.305 L137.9425,51.305 L137.9425,52.52 L143.7475,52.52 L143.7475,54.53 L145.1875,54.53 L145.1875,52.52 L150.9775,52.52 L150.9775,51.305 L145.1875,51.305 L145.1875,50.36 L149.8225,50.36 L149.8225,45.17 L139.1125,45.17 Z M148.4275,49.235 L145.1875,49.235 L145.1875,48.26 L148.4275,48.26 L148.4275,49.235 Z M143.7475,49.235 L140.5075,49.235 L140.5075,48.26 L143.7475,48.26 L143.7475,49.235 Z M140.5075,47.255 L140.5075,46.295 L143.7475,46.295 L143.7475,47.255 L140.5075,47.255 Z M145.1875,46.295 L148.4275,46.295 L148.4275,47.255 L145.1875,47.255 L145.1875,46.295 Z" id="按此Whatsapp67356273下單" fill="#FFFFFF"></path>
        </g>
    </g>
</svg>